<?xml version="1.0" encoding="UTF-8" standalone="no"?>
<!DOCTYPE svg PUBLIC "-//W3C//DTD SVG 1.1//EN"
 "http://www.w3.org/Graphics/SVG/1.1/DTD/svg11.dtd">
<!-- Generated by graphviz version 2.43.0 (0)
 -->
<!-- Title: include/hmatrix/aca_plus/aca_plus.hcu Pages: 1 -->
<svg width="318pt" height="385pt"
 viewBox="0.00 0.00 318.04 385.00" xmlns="http://www.w3.org/2000/svg" xmlns:xlink="http://www.w3.org/1999/xlink">
<g id="graph0" class="graph" transform="scale(1 1) rotate(0) translate(4 381)">
<title>include/hmatrix/aca_plus/aca_plus.hcu</title>
<!-- Node1 -->
<g id="node1" class="node">
<title>Node1</title>
<g id="a_node1"><a xlink:title="Implement the ACA+ method proposed in Grasedyck, L. 2005. “Adaptive Recompression of &#45;Matrices for BE...">
<polygon fill="#bfbfbf" stroke="black" points="42.04,-346.5 42.04,-376.5 143.04,-376.5 143.04,-346.5 42.04,-346.5"/>
<text text-anchor="start" x="50.04" y="-364.5" font-family="Helvetica,sans-Serif" font-size="10.00">include/hmatrix/aca</text>
<text text-anchor="middle" x="92.54" y="-353.5" font-family="Helvetica,sans-Serif" font-size="10.00">_plus/aca_plus.hcu</text>
</a>
</g>
</g>
<!-- Node2 -->
<g id="node2" class="node">
<title>Node2</title>
<g id="a_node2"><a xlink:href="laplace__bem_8priv_8hcu_source.html" target="_top" xlink:title=" ">
<polygon fill="none" stroke="black" points="35.04,-134.5 35.04,-164.5 150.04,-164.5 150.04,-134.5 35.04,-134.5"/>
<text text-anchor="start" x="43.04" y="-152.5" font-family="Helvetica,sans-Serif" font-size="10.00">include/laplace/laplace</text>
<text text-anchor="middle" x="92.54" y="-141.5" font-family="Helvetica,sans-Serif" font-size="10.00">_bem.priv.hcu</text>
</a>
</g>
</g>
<!-- Node1&#45;&gt;Node2 -->
<g id="edge1" class="edge">
<title>Node1&#45;&gt;Node2</title>
<path fill="none" stroke="midnightblue" d="M49.95,-341.07C37.64,-333.25 25.63,-322.95 18.54,-310 -4.73,-267.5 -6.36,-243.7 16.54,-201 25.3,-184.66 41.92,-172.71 57.4,-164.55"/>
<polygon fill="midnightblue" stroke="midnightblue" points="48.5,-344.28 58.89,-346.33 52.05,-338.24 48.5,-344.28"/>
</g>
<!-- Node5 -->
<g id="node5" class="node">
<title>Node5</title>
<g id="a_node5"><a xlink:href="operator__preconditioner_8h.html" target="_top" xlink:title=" ">
<polygon fill="none" stroke="black" points="28.04,-279.5 28.04,-309.5 157.04,-309.5 157.04,-279.5 28.04,-279.5"/>
<text text-anchor="start" x="36.04" y="-297.5" font-family="Helvetica,sans-Serif" font-size="10.00">include/preconditioners</text>
<text text-anchor="middle" x="92.54" y="-286.5" font-family="Helvetica,sans-Serif" font-size="10.00">/operator_preconditioner.h</text>
</a>
</g>
</g>
<!-- Node1&#45;&gt;Node5 -->
<g id="edge4" class="edge">
<title>Node1&#45;&gt;Node5</title>
<path fill="none" stroke="midnightblue" d="M92.54,-336.11C92.54,-327.15 92.54,-317.32 92.54,-309.58"/>
<polygon fill="midnightblue" stroke="midnightblue" points="89.04,-336.4 92.54,-346.4 96.04,-336.4 89.04,-336.4"/>
</g>
<!-- Node8 -->
<g id="node8" class="node">
<title>Node8</title>
<g id="a_node8"><a xlink:href="aca__plus_8cu_source.html" target="_top" xlink:title=" ">
<polygon fill="none" stroke="black" points="175.04,-279.5 175.04,-309.5 282.04,-309.5 282.04,-279.5 175.04,-279.5"/>
<text text-anchor="start" x="183.04" y="-297.5" font-family="Helvetica,sans-Serif" font-size="10.00">src/hmatrix/aca_plus</text>
<text text-anchor="middle" x="228.54" y="-286.5" font-family="Helvetica,sans-Serif" font-size="10.00">/aca_plus.cu</text>
</a>
</g>
</g>
<!-- Node1&#45;&gt;Node8 -->
<g id="edge9" class="edge">
<title>Node1&#45;&gt;Node8</title>
<path fill="none" stroke="midnightblue" d="M131.26,-341.99C152.82,-331.69 179.23,-319.07 199.09,-309.58"/>
<polygon fill="midnightblue" stroke="midnightblue" points="129.56,-338.93 122.05,-346.4 132.58,-345.24 129.56,-338.93"/>
</g>
<!-- Node3 -->
<g id="node3" class="node">
<title>Node3</title>
<g id="a_node3"><a xlink:href="laplace__bem_8impl_8hcu_source.html" target="_top" xlink:title=" ">
<polygon fill="none" stroke="black" points="35.04,-67.5 35.04,-97.5 150.04,-97.5 150.04,-67.5 35.04,-67.5"/>
<text text-anchor="start" x="43.04" y="-85.5" font-family="Helvetica,sans-Serif" font-size="10.00">include/laplace/laplace</text>
<text text-anchor="middle" x="92.54" y="-74.5" font-family="Helvetica,sans-Serif" font-size="10.00">_bem.impl.hcu</text>
</a>
</g>
</g>
<!-- Node2&#45;&gt;Node3 -->
<g id="edge2" class="edge">
<title>Node2&#45;&gt;Node3</title>
<path fill="none" stroke="midnightblue" d="M92.54,-124.11C92.54,-115.15 92.54,-105.32 92.54,-97.58"/>
<polygon fill="midnightblue" stroke="midnightblue" points="89.04,-124.4 92.54,-134.4 96.04,-124.4 89.04,-124.4"/>
</g>
<!-- Node4 -->
<g id="node4" class="node">
<title>Node4</title>
<g id="a_node4"><a xlink:href="laplace__bem_8cu_source.html" target="_top" xlink:title=" ">
<polygon fill="none" stroke="black" points="43.54,-0.5 43.54,-30.5 141.54,-30.5 141.54,-0.5 43.54,-0.5"/>
<text text-anchor="start" x="51.54" y="-18.5" font-family="Helvetica,sans-Serif" font-size="10.00">src/laplace/laplace</text>
<text text-anchor="middle" x="92.54" y="-7.5" font-family="Helvetica,sans-Serif" font-size="10.00">_bem.cu</text>
</a>
</g>
</g>
<!-- Node3&#45;&gt;Node4 -->
<g id="edge3" class="edge">
<title>Node3&#45;&gt;Node4</title>
<path fill="none" stroke="midnightblue" d="M92.54,-57.11C92.54,-48.15 92.54,-38.32 92.54,-30.58"/>
<polygon fill="midnightblue" stroke="midnightblue" points="89.04,-57.4 92.54,-67.4 96.04,-57.4 89.04,-57.4"/>
</g>
<!-- Node6 -->
<g id="node6" class="node">
<title>Node6</title>
<g id="a_node6"><a xlink:href="preconditioner__for__laplace__dirichlet_8h.html" target="_top" xlink:title=" ">
<polygon fill="none" stroke="black" points="26.04,-201.5 26.04,-242.5 159.04,-242.5 159.04,-201.5 26.04,-201.5"/>
<text text-anchor="start" x="34.04" y="-230.5" font-family="Helvetica,sans-Serif" font-size="10.00">include/preconditioners</text>
<text text-anchor="start" x="34.04" y="-219.5" font-family="Helvetica,sans-Serif" font-size="10.00">/preconditioner_for_laplace</text>
<text text-anchor="middle" x="92.54" y="-208.5" font-family="Helvetica,sans-Serif" font-size="10.00">_dirichlet.h</text>
</a>
</g>
</g>
<!-- Node5&#45;&gt;Node6 -->
<g id="edge5" class="edge">
<title>Node5&#45;&gt;Node6</title>
<path fill="none" stroke="midnightblue" d="M92.54,-268.98C92.54,-260.35 92.54,-250.76 92.54,-242.59"/>
<polygon fill="midnightblue" stroke="midnightblue" points="89.04,-269.23 92.54,-279.23 96.04,-269.23 89.04,-269.23"/>
</g>
<!-- Node7 -->
<g id="node7" class="node">
<title>Node7</title>
<g id="a_node7"><a xlink:href="preconditioner__for__laplace__neumann_8h.html" target="_top" xlink:title=" ">
<polygon fill="none" stroke="black" points="177.04,-201.5 177.04,-242.5 310.04,-242.5 310.04,-201.5 177.04,-201.5"/>
<text text-anchor="start" x="185.04" y="-230.5" font-family="Helvetica,sans-Serif" font-size="10.00">include/preconditioners</text>
<text text-anchor="start" x="185.04" y="-219.5" font-family="Helvetica,sans-Serif" font-size="10.00">/preconditioner_for_laplace</text>
<text text-anchor="middle" x="243.54" y="-208.5" font-family="Helvetica,sans-Serif" font-size="10.00">_neumann.h</text>
</a>
</g>
</g>
<!-- Node5&#45;&gt;Node7 -->
<g id="edge7" class="edge">
<title>Node5&#45;&gt;Node7</title>
<path fill="none" stroke="midnightblue" d="M131.88,-275.13C153.32,-265.12 179.85,-252.73 201.67,-242.55"/>
<polygon fill="midnightblue" stroke="midnightblue" points="130.31,-272 122.73,-279.4 133.27,-278.34 130.31,-272"/>
</g>
<!-- Node6&#45;&gt;Node2 -->
<g id="edge6" class="edge">
<title>Node6&#45;&gt;Node2</title>
<path fill="none" stroke="midnightblue" d="M92.54,-191.08C92.54,-182.01 92.54,-172.45 92.54,-164.89"/>
<polygon fill="midnightblue" stroke="midnightblue" points="89.04,-191.36 92.54,-201.36 96.04,-191.36 89.04,-191.36"/>
</g>
<!-- Node7&#45;&gt;Node2 -->
<g id="edge8" class="edge">
<title>Node7&#45;&gt;Node2</title>
<path fill="none" stroke="midnightblue" d="M192.17,-197.02C169.12,-186.25 142.72,-173.93 122.89,-164.67"/>
<polygon fill="midnightblue" stroke="midnightblue" points="190.93,-200.3 201.48,-201.36 193.9,-193.96 190.93,-200.3"/>
</g>
</g>
</svg>
