<?xml version="1.0" encoding="UTF-8" standalone="no"?>
<!DOCTYPE svg PUBLIC "-//W3C//DTD SVG 1.1//EN"
 "http://www.w3.org/Graphics/SVG/1.1/DTD/svg11.dtd">
<!-- Generated by graphviz version 2.43.0 (0)
 -->
<!-- Title: include/hmatrix/aca_plus/aca_plus.hcu Pages: 1 -->
<svg width="1266pt" height="474pt"
 viewBox="0.00 0.00 1266.00 474.00" xmlns="http://www.w3.org/2000/svg" xmlns:xlink="http://www.w3.org/1999/xlink">
<g id="graph0" class="graph" transform="scale(1 1) rotate(0) translate(4 470)">
<title>include/hmatrix/aca_plus/aca_plus.hcu</title>
<!-- Node1 -->
<g id="node1" class="node">
<title>Node1</title>
<g id="a_node1"><a xlink:title="Implement the ACA+ method proposed in Grasedyck, L. 2005. “Adaptive Recompression of &#45;Matrices for BE...">
<polygon fill="#bfbfbf" stroke="black" points="344,-435.5 344,-465.5 445,-465.5 445,-435.5 344,-435.5"/>
<text text-anchor="start" x="352" y="-453.5" font-family="Helvetica,sans-Serif" font-size="10.00">include/hmatrix/aca</text>
<text text-anchor="middle" x="394.5" y="-442.5" font-family="Helvetica,sans-Serif" font-size="10.00">_plus/aca_plus.hcu</text>
</a>
</g>
</g>
<!-- Node2 -->
<g id="node2" class="node">
<title>Node2</title>
<g id="a_node2"><a xlink:href="build-hmatrix-on-subdomain_8cu.html" target="_top" xlink:title="Example for building an H&#45;matrix on a subdomain which is specified by a set of material ids.">
<polygon fill="none" stroke="black" points="0,-357.5 0,-398.5 139,-398.5 139,-357.5 0,-357.5"/>
<text text-anchor="start" x="8" y="-386.5" font-family="Helvetica,sans-Serif" font-size="10.00">examples/build&#45;hmatrix</text>
<text text-anchor="start" x="8" y="-375.5" font-family="Helvetica,sans-Serif" font-size="10.00">&#45;on&#45;subdomain/build&#45;hmatrix</text>
<text text-anchor="middle" x="69.5" y="-364.5" font-family="Helvetica,sans-Serif" font-size="10.00">&#45;on&#45;subdomain.cu</text>
</a>
</g>
</g>
<!-- Node1&#45;&gt;Node2 -->
<g id="edge1" class="edge">
<title>Node1&#45;&gt;Node2</title>
<path fill="none" stroke="midnightblue" d="M333.7,-437.94C283.6,-428.2 210.75,-413.56 147.5,-399 144.78,-398.37 142,-397.72 139.2,-397.05"/>
<polygon fill="midnightblue" stroke="midnightblue" points="333.24,-441.41 343.73,-439.88 334.57,-434.54 333.24,-441.41"/>
</g>
<!-- Node3 -->
<g id="node3" class="node">
<title>Node3</title>
<g id="a_node3"><a xlink:href="build-hmatrix_8cu.html" target="_top" xlink:title="Example for building an H&#45;matrix.">
<polygon fill="none" stroke="black" points="157,-363 157,-393 274,-393 274,-363 157,-363"/>
<text text-anchor="start" x="165" y="-381" font-family="Helvetica,sans-Serif" font-size="10.00">examples/build&#45;hmatrix</text>
<text text-anchor="middle" x="215.5" y="-370" font-family="Helvetica,sans-Serif" font-size="10.00">/build&#45;hmatrix.cu</text>
</a>
</g>
</g>
<!-- Node1&#45;&gt;Node3 -->
<g id="edge2" class="edge">
<title>Node1&#45;&gt;Node3</title>
<path fill="none" stroke="midnightblue" d="M349.19,-431.65C318.82,-419.69 279.39,-404.16 251.23,-393.07"/>
<polygon fill="midnightblue" stroke="midnightblue" points="348.12,-434.99 358.71,-435.4 350.69,-428.48 348.12,-434.99"/>
</g>
<!-- Node4 -->
<g id="node4" class="node">
<title>Node4</title>
<g id="a_node4"><a xlink:href="bem__bilinear__form_8h.html" target="_top" xlink:title="Definition of a class for BEM bilinear form.">
<polygon fill="none" stroke="black" points="331,-207 331,-237 458,-237 458,-207 331,-207"/>
<text text-anchor="start" x="339" y="-225" font-family="Helvetica,sans-Serif" font-size="10.00">include/bem/bem_bilinear</text>
<text text-anchor="middle" x="394.5" y="-214" font-family="Helvetica,sans-Serif" font-size="10.00">_form.h</text>
</a>
</g>
</g>
<!-- Node1&#45;&gt;Node4 -->
<g id="edge3" class="edge">
<title>Node1&#45;&gt;Node4</title>
<path fill="none" stroke="midnightblue" d="M394.5,-425.08C394.5,-377.73 394.5,-274.81 394.5,-237.16"/>
<polygon fill="midnightblue" stroke="midnightblue" points="391,-425.33 394.5,-435.33 398,-425.33 391,-425.33"/>
</g>
<!-- Node5 -->
<g id="node5" class="node">
<title>Node5</title>
<g id="a_node5"><a xlink:href="helmholtz__acoustic__bem_8priv_8hcu_source.html" target="_top" xlink:title=" ">
<polygon fill="none" stroke="black" points="405,-134.5 405,-164.5 542,-164.5 542,-134.5 405,-134.5"/>
<text text-anchor="start" x="413" y="-152.5" font-family="Helvetica,sans-Serif" font-size="10.00">include/helmholtz/helmholtz</text>
<text text-anchor="middle" x="473.5" y="-141.5" font-family="Helvetica,sans-Serif" font-size="10.00">_acoustic_bem.priv.hcu</text>
</a>
</g>
</g>
<!-- Node1&#45;&gt;Node5 -->
<g id="edge10" class="edge">
<title>Node1&#45;&gt;Node5</title>
<path fill="none" stroke="midnightblue" d="M376.3,-427.3C340.71,-381.06 269.72,-272.77 321.5,-201 340.62,-174.5 374.21,-161.69 404.96,-155.58"/>
<polygon fill="midnightblue" stroke="midnightblue" points="373.76,-429.74 382.69,-435.44 379.27,-425.42 373.76,-429.74"/>
</g>
<!-- Node8 -->
<g id="node8" class="node">
<title>Node8</title>
<g id="a_node8"><a xlink:href="laplace__bem_8priv_8hcu_source.html" target="_top" xlink:title=" ">
<polygon fill="none" stroke="black" points="813,-134.5 813,-164.5 928,-164.5 928,-134.5 813,-134.5"/>
<text text-anchor="start" x="821" y="-152.5" font-family="Helvetica,sans-Serif" font-size="10.00">include/laplace/laplace</text>
<text text-anchor="middle" x="870.5" y="-141.5" font-family="Helvetica,sans-Serif" font-size="10.00">_bem.priv.hcu</text>
</a>
</g>
</g>
<!-- Node1&#45;&gt;Node8 -->
<g id="edge11" class="edge">
<title>Node1&#45;&gt;Node8</title>
<path fill="none" stroke="midnightblue" d="M455.27,-448.02C537.34,-444.69 687.51,-433.91 810.5,-399 890.08,-376.41 906.78,-360.44 979.5,-321 1036.73,-289.96 1072.02,-299.99 1103.5,-243 1141.64,-173.95 1008.98,-156.31 928.25,-151.89"/>
<polygon fill="midnightblue" stroke="midnightblue" points="454.98,-444.53 445.12,-448.4 455.25,-451.52 454.98,-444.53"/>
</g>
<!-- Node11 -->
<g id="node11" class="node">
<title>Node11</title>
<g id="a_node11"><a xlink:href="operator__preconditioner_8h.html" target="_top" xlink:title="Definition of the abstract class for dual mesh operator preconditioner.">
<polygon fill="none" stroke="black" points="672,-363 672,-393 801,-393 801,-363 672,-363"/>
<text text-anchor="start" x="680" y="-381" font-family="Helvetica,sans-Serif" font-size="10.00">include/preconditioners</text>
<text text-anchor="middle" x="736.5" y="-370" font-family="Helvetica,sans-Serif" font-size="10.00">/operator_preconditioner.h</text>
</a>
</g>
</g>
<!-- Node1&#45;&gt;Node11 -->
<g id="edge12" class="edge">
<title>Node1&#45;&gt;Node11</title>
<path fill="none" stroke="midnightblue" d="M455.19,-436.99C516.13,-424.43 609.67,-405.14 671.94,-392.31"/>
<polygon fill="midnightblue" stroke="midnightblue" points="454.42,-433.57 445.33,-439.02 455.83,-440.43 454.42,-433.57"/>
</g>
<!-- Node18 -->
<g id="node18" class="node">
<title>Node18</title>
<g id="a_node18"><a xlink:href="aca__plus_8cu_source.html" target="_top" xlink:title=" ">
<polygon fill="none" stroke="black" points="1151,-363 1151,-393 1258,-393 1258,-363 1151,-363"/>
<text text-anchor="start" x="1159" y="-381" font-family="Helvetica,sans-Serif" font-size="10.00">src/hmatrix/aca_plus</text>
<text text-anchor="middle" x="1204.5" y="-370" font-family="Helvetica,sans-Serif" font-size="10.00">/aca_plus.cu</text>
</a>
</g>
</g>
<!-- Node1&#45;&gt;Node18 -->
<g id="edge27" class="edge">
<title>Node1&#45;&gt;Node18</title>
<path fill="none" stroke="midnightblue" d="M455.69,-449.82C583.31,-449.52 886.78,-443.67 1136.5,-399 1144.86,-397.5 1153.65,-395.36 1162.04,-393.03"/>
<polygon fill="midnightblue" stroke="midnightblue" points="455.34,-446.32 445.35,-449.84 455.35,-453.32 455.34,-446.32"/>
</g>
<!-- Node4&#45;&gt;Node5 -->
<g id="edge4" class="edge">
<title>Node4&#45;&gt;Node5</title>
<path fill="none" stroke="midnightblue" d="M418.07,-199.96C430.91,-188.5 446.45,-174.64 457.81,-164.5"/>
<polygon fill="midnightblue" stroke="midnightblue" points="415.62,-197.46 410.49,-206.73 420.28,-202.69 415.62,-197.46"/>
</g>
<!-- Node4&#45;&gt;Node8 -->
<g id="edge7" class="edge">
<title>Node4&#45;&gt;Node8</title>
<path fill="none" stroke="midnightblue" d="M451.06,-204.45C456.26,-203.18 461.46,-202.01 466.5,-201 588.66,-176.54 734.11,-161.82 812.87,-155.03"/>
<polygon fill="midnightblue" stroke="midnightblue" points="449.95,-201.12 441.12,-206.98 451.68,-207.91 449.95,-201.12"/>
</g>
<!-- Node6 -->
<g id="node6" class="node">
<title>Node6</title>
<g id="a_node6"><a xlink:href="helmholtz__acoustic__bem_8impl_8hcu.html" target="_top" xlink:title="Call member functions of pimpl from HelmholtzAcousticBEM.">
<polygon fill="none" stroke="black" points="405,-67.5 405,-97.5 542,-97.5 542,-67.5 405,-67.5"/>
<text text-anchor="start" x="413" y="-85.5" font-family="Helvetica,sans-Serif" font-size="10.00">include/helmholtz/helmholtz</text>
<text text-anchor="middle" x="473.5" y="-74.5" font-family="Helvetica,sans-Serif" font-size="10.00">_acoustic_bem.impl.hcu</text>
</a>
</g>
</g>
<!-- Node5&#45;&gt;Node6 -->
<g id="edge5" class="edge">
<title>Node5&#45;&gt;Node6</title>
<path fill="none" stroke="midnightblue" d="M473.5,-124.11C473.5,-115.15 473.5,-105.32 473.5,-97.58"/>
<polygon fill="midnightblue" stroke="midnightblue" points="470,-124.4 473.5,-134.4 477,-124.4 470,-124.4"/>
</g>
<!-- Node7 -->
<g id="node7" class="node">
<title>Node7</title>
<g id="a_node7"><a xlink:href="helmholtz__acoustic__bem_8cu_source.html" target="_top" xlink:title=" ">
<polygon fill="none" stroke="black" points="413.5,-0.5 413.5,-30.5 533.5,-30.5 533.5,-0.5 413.5,-0.5"/>
<text text-anchor="start" x="421.5" y="-18.5" font-family="Helvetica,sans-Serif" font-size="10.00">src/helmholtz/helmholtz</text>
<text text-anchor="middle" x="473.5" y="-7.5" font-family="Helvetica,sans-Serif" font-size="10.00">_acoustic_bem.cu</text>
</a>
</g>
</g>
<!-- Node6&#45;&gt;Node7 -->
<g id="edge6" class="edge">
<title>Node6&#45;&gt;Node7</title>
<path fill="none" stroke="midnightblue" d="M473.5,-57.11C473.5,-48.15 473.5,-38.32 473.5,-30.58"/>
<polygon fill="midnightblue" stroke="midnightblue" points="470,-57.4 473.5,-67.4 477,-57.4 470,-57.4"/>
</g>
<!-- Node9 -->
<g id="node9" class="node">
<title>Node9</title>
<g id="a_node9"><a xlink:href="laplace__bem_8impl_8hcu.html" target="_top" xlink:title="Implementation of pimpl member functions to be called by LaplaceBEM.">
<polygon fill="none" stroke="black" points="813,-67.5 813,-97.5 928,-97.5 928,-67.5 813,-67.5"/>
<text text-anchor="start" x="821" y="-85.5" font-family="Helvetica,sans-Serif" font-size="10.00">include/laplace/laplace</text>
<text text-anchor="middle" x="870.5" y="-74.5" font-family="Helvetica,sans-Serif" font-size="10.00">_bem.impl.hcu</text>
</a>
</g>
</g>
<!-- Node8&#45;&gt;Node9 -->
<g id="edge8" class="edge">
<title>Node8&#45;&gt;Node9</title>
<path fill="none" stroke="midnightblue" d="M870.5,-124.11C870.5,-115.15 870.5,-105.32 870.5,-97.58"/>
<polygon fill="midnightblue" stroke="midnightblue" points="867,-124.4 870.5,-134.4 874,-124.4 867,-124.4"/>
</g>
<!-- Node10 -->
<g id="node10" class="node">
<title>Node10</title>
<g id="a_node10"><a xlink:href="laplace__bem_8cu_source.html" target="_top" xlink:title=" ">
<polygon fill="none" stroke="black" points="821.5,-0.5 821.5,-30.5 919.5,-30.5 919.5,-0.5 821.5,-0.5"/>
<text text-anchor="start" x="829.5" y="-18.5" font-family="Helvetica,sans-Serif" font-size="10.00">src/laplace/laplace</text>
<text text-anchor="middle" x="870.5" y="-7.5" font-family="Helvetica,sans-Serif" font-size="10.00">_bem.cu</text>
</a>
</g>
</g>
<!-- Node9&#45;&gt;Node10 -->
<g id="edge9" class="edge">
<title>Node9&#45;&gt;Node10</title>
<path fill="none" stroke="midnightblue" d="M870.5,-57.11C870.5,-48.15 870.5,-38.32 870.5,-30.58"/>
<polygon fill="midnightblue" stroke="midnightblue" points="867,-57.4 870.5,-67.4 874,-57.4 867,-57.4"/>
</g>
<!-- Node12 -->
<g id="node12" class="node">
<title>Node12</title>
<g id="a_node12"><a xlink:href="preconditioner__for__helmholtz__acoustic__hyper__singular__bio_8h.html" target="_top" xlink:title="Dual mesh operator preconditioner for the hyper singular boundary integral operator in the Helmholtz ...">
<polygon fill="none" stroke="black" points="476,-201.5 476,-242.5 629,-242.5 629,-201.5 476,-201.5"/>
<text text-anchor="start" x="484" y="-230.5" font-family="Helvetica,sans-Serif" font-size="10.00">include/preconditioners</text>
<text text-anchor="start" x="484" y="-219.5" font-family="Helvetica,sans-Serif" font-size="10.00">/preconditioner_for_helmholtz</text>
<text text-anchor="middle" x="552.5" y="-208.5" font-family="Helvetica,sans-Serif" font-size="10.00">_acoustic_hyper_singular_bio.h</text>
</a>
</g>
</g>
<!-- Node11&#45;&gt;Node12 -->
<g id="edge13" class="edge">
<title>Node11&#45;&gt;Node12</title>
<path fill="none" stroke="midnightblue" d="M661.57,-367.74C630.2,-360.12 595.89,-346.25 573.5,-321 554.34,-299.39 551.2,-264.6 551.36,-242.81"/>
<polygon fill="midnightblue" stroke="midnightblue" points="661.11,-371.22 671.63,-370 662.64,-364.39 661.11,-371.22"/>
</g>
<!-- Node13 -->
<g id="node13" class="node">
<title>Node13</title>
<g id="a_node13"><a xlink:href="preconditioner__for__helmholtz__acoustic__single__layer__bio_8h_source.html" target="_top" xlink:title=" ">
<polygon fill="none" stroke="black" points="798.5,-201.5 798.5,-242.5 942.5,-242.5 942.5,-201.5 798.5,-201.5"/>
<text text-anchor="start" x="806.5" y="-230.5" font-family="Helvetica,sans-Serif" font-size="10.00">include/preconditioners</text>
<text text-anchor="start" x="806.5" y="-219.5" font-family="Helvetica,sans-Serif" font-size="10.00">/preconditioner_for_helmholtz</text>
<text text-anchor="middle" x="870.5" y="-208.5" font-family="Helvetica,sans-Serif" font-size="10.00">_acoustic_single_layer_bio.h</text>
</a>
</g>
</g>
<!-- Node11&#45;&gt;Node13 -->
<g id="edge15" class="edge">
<title>Node11&#45;&gt;Node13</title>
<path fill="none" stroke="midnightblue" d="M747.85,-353.83C758.78,-332.89 776.7,-301.94 797.5,-279 809.95,-265.27 826.1,-252.49 840.05,-242.61"/>
<polygon fill="midnightblue" stroke="midnightblue" points="744.62,-352.45 743.2,-362.95 750.86,-355.63 744.62,-352.45"/>
</g>
<!-- Node14 -->
<g id="node14" class="node">
<title>Node14</title>
<g id="a_node14"><a xlink:href="preconditioner__for__hyper__singular__bio_8h.html" target="_top" xlink:title="Dual mesh operator preconditioner for the hyper singular boundary integral operator.">
<polygon fill="none" stroke="black" points="582.5,-279.5 582.5,-320.5 708.5,-320.5 708.5,-279.5 582.5,-279.5"/>
<text text-anchor="start" x="590.5" y="-308.5" font-family="Helvetica,sans-Serif" font-size="10.00">include/preconditioners</text>
<text text-anchor="start" x="590.5" y="-297.5" font-family="Helvetica,sans-Serif" font-size="10.00">/preconditioner_for_hyper</text>
<text text-anchor="middle" x="645.5" y="-286.5" font-family="Helvetica,sans-Serif" font-size="10.00">_singular_bio.h</text>
</a>
</g>
</g>
<!-- Node11&#45;&gt;Node14 -->
<g id="edge17" class="edge">
<title>Node11&#45;&gt;Node14</title>
<path fill="none" stroke="midnightblue" d="M711.57,-356.18C698.31,-345.11 682.11,-331.57 669.06,-320.68"/>
<polygon fill="midnightblue" stroke="midnightblue" points="709.46,-358.98 719.38,-362.7 713.95,-353.61 709.46,-358.98"/>
</g>
<!-- Node15 -->
<g id="node15" class="node">
<title>Node15</title>
<g id="a_node15"><a xlink:href="preconditioner__for__laplace__hyper__singular__bio_8h.html" target="_top" xlink:title="Dual mesh operator preconditioner for the hyper singular boundary integral operator in the Laplace eq...">
<polygon fill="none" stroke="black" points="647,-201.5 647,-242.5 780,-242.5 780,-201.5 647,-201.5"/>
<text text-anchor="start" x="655" y="-230.5" font-family="Helvetica,sans-Serif" font-size="10.00">include/preconditioners</text>
<text text-anchor="start" x="655" y="-219.5" font-family="Helvetica,sans-Serif" font-size="10.00">/preconditioner_for_laplace</text>
<text text-anchor="middle" x="713.5" y="-208.5" font-family="Helvetica,sans-Serif" font-size="10.00">_hyper_singular_bio.h</text>
</a>
</g>
</g>
<!-- Node11&#45;&gt;Node15 -->
<g id="edge21" class="edge">
<title>Node11&#45;&gt;Node15</title>
<path fill="none" stroke="midnightblue" d="M732.86,-352.61C728.31,-322.17 720.63,-270.73 716.44,-242.68"/>
<polygon fill="midnightblue" stroke="midnightblue" points="729.44,-353.41 734.38,-362.79 736.36,-352.38 729.44,-353.41"/>
</g>
<!-- Node16 -->
<g id="node16" class="node">
<title>Node16</title>
<g id="a_node16"><a xlink:href="preconditioner__for__laplace__single__layer__bio_8h.html" target="_top" xlink:title="Dual mesh operator preconditioner for the single layer potential boundary integral operator in the La...">
<polygon fill="none" stroke="black" points="961,-201.5 961,-242.5 1094,-242.5 1094,-201.5 961,-201.5"/>
<text text-anchor="start" x="969" y="-230.5" font-family="Helvetica,sans-Serif" font-size="10.00">include/preconditioners</text>
<text text-anchor="start" x="969" y="-219.5" font-family="Helvetica,sans-Serif" font-size="10.00">/preconditioner_for_laplace</text>
<text text-anchor="middle" x="1027.5" y="-208.5" font-family="Helvetica,sans-Serif" font-size="10.00">_single_layer_bio.h</text>
</a>
</g>
</g>
<!-- Node11&#45;&gt;Node16 -->
<g id="edge22" class="edge">
<title>Node11&#45;&gt;Node16</title>
<path fill="none" stroke="midnightblue" d="M811.19,-367.82C852.62,-360.13 903.66,-346.16 943.5,-321 975.33,-300.9 1001.56,-264.98 1015.83,-242.65"/>
<polygon fill="midnightblue" stroke="midnightblue" points="810.38,-364.41 801.15,-369.6 811.6,-371.3 810.38,-364.41"/>
</g>
<!-- Node17 -->
<g id="node17" class="node">
<title>Node17</title>
<g id="a_node17"><a xlink:href="preconditioner__for__single__layer__bio_8h.html" target="_top" xlink:title="Dual mesh operator preconditioner for the single layer potential boundary integral operator.">
<polygon fill="none" stroke="black" points="806.5,-279.5 806.5,-320.5 934.5,-320.5 934.5,-279.5 806.5,-279.5"/>
<text text-anchor="start" x="814.5" y="-308.5" font-family="Helvetica,sans-Serif" font-size="10.00">include/preconditioners</text>
<text text-anchor="start" x="814.5" y="-297.5" font-family="Helvetica,sans-Serif" font-size="10.00">/preconditioner_for_single</text>
<text text-anchor="middle" x="870.5" y="-286.5" font-family="Helvetica,sans-Serif" font-size="10.00">_layer_bio.h</text>
</a>
</g>
</g>
<!-- Node11&#45;&gt;Node17 -->
<g id="edge24" class="edge">
<title>Node11&#45;&gt;Node17</title>
<path fill="none" stroke="midnightblue" d="M770.2,-357.89C790.26,-346.51 815.67,-332.1 835.89,-320.63"/>
<polygon fill="midnightblue" stroke="midnightblue" points="768.36,-354.91 761.39,-362.88 771.82,-360.99 768.36,-354.91"/>
</g>
<!-- Node12&#45;&gt;Node5 -->
<g id="edge14" class="edge">
<title>Node12&#45;&gt;Node5</title>
<path fill="none" stroke="midnightblue" d="M522.86,-194.55C511.5,-184.41 498.97,-173.23 489.38,-164.67"/>
<polygon fill="midnightblue" stroke="midnightblue" points="520.7,-197.31 530.49,-201.36 525.36,-192.09 520.7,-197.31"/>
</g>
<!-- Node13&#45;&gt;Node5 -->
<g id="edge16" class="edge">
<title>Node13&#45;&gt;Node5</title>
<path fill="none" stroke="midnightblue" d="M788.29,-200.83C697.96,-182.77 604.18,-168.55 542.22,-159.79"/>
<polygon fill="midnightblue" stroke="midnightblue" points="787.65,-204.27 798.14,-202.82 789.03,-197.41 787.65,-204.27"/>
</g>
<!-- Node14&#45;&gt;Node12 -->
<g id="edge18" class="edge">
<title>Node14&#45;&gt;Node12</title>
<path fill="none" stroke="midnightblue" d="M613.76,-273.06C601.52,-263.06 587.75,-251.8 576.37,-242.51"/>
<polygon fill="midnightblue" stroke="midnightblue" points="611.59,-275.81 621.55,-279.43 616.02,-270.39 611.59,-275.81"/>
</g>
<!-- Node14&#45;&gt;Node15 -->
<g id="edge19" class="edge">
<title>Node14&#45;&gt;Node15</title>
<path fill="none" stroke="midnightblue" d="M669.73,-271.92C678.42,-262.2 688.04,-251.45 696.05,-242.51"/>
<polygon fill="midnightblue" stroke="midnightblue" points="667.07,-269.64 663.01,-279.43 672.29,-274.31 667.07,-269.64"/>
</g>
<!-- Node15&#45;&gt;Node8 -->
<g id="edge20" class="edge">
<title>Node15&#45;&gt;Node8</title>
<path fill="none" stroke="midnightblue" d="M766.59,-197.16C790.63,-186.36 818.23,-173.97 838.94,-164.67"/>
<polygon fill="midnightblue" stroke="midnightblue" points="764.92,-194.07 757.23,-201.36 767.79,-200.46 764.92,-194.07"/>
</g>
<!-- Node16&#45;&gt;Node8 -->
<g id="edge23" class="edge">
<title>Node16&#45;&gt;Node8</title>
<path fill="none" stroke="midnightblue" d="M974.41,-197.16C950.37,-186.36 922.77,-173.97 902.06,-164.67"/>
<polygon fill="midnightblue" stroke="midnightblue" points="973.21,-200.46 983.77,-201.36 976.08,-194.07 973.21,-200.46"/>
</g>
<!-- Node17&#45;&gt;Node13 -->
<g id="edge25" class="edge">
<title>Node17&#45;&gt;Node13</title>
<path fill="none" stroke="midnightblue" d="M870.5,-269.3C870.5,-260.3 870.5,-250.65 870.5,-242.51"/>
<polygon fill="midnightblue" stroke="midnightblue" points="867,-269.43 870.5,-279.43 874,-269.43 867,-269.43"/>
</g>
<!-- Node17&#45;&gt;Node16 -->
<g id="edge26" class="edge">
<title>Node17&#45;&gt;Node16</title>
<path fill="none" stroke="midnightblue" d="M919.98,-275.05C941.63,-264.57 966.72,-252.42 987.21,-242.51"/>
<polygon fill="midnightblue" stroke="midnightblue" points="918.41,-271.92 910.93,-279.43 921.46,-278.22 918.41,-271.92"/>
</g>
</g>
</svg>
