<?xml version="1.0" encoding="UTF-8" standalone="no"?>
<!DOCTYPE svg PUBLIC "-//W3C//DTD SVG 1.1//EN"
 "http://www.w3.org/Graphics/SVG/1.1/DTD/svg11.dtd">
<!-- Generated by graphviz version 2.43.0 (0)
 -->
<!-- Title: include/bem/bem_tools.h Pages: 1 -->
<svg width="1208pt" height="765pt"
 viewBox="0.00 0.00 1208.00 765.00" xmlns="http://www.w3.org/2000/svg" xmlns:xlink="http://www.w3.org/1999/xlink">
<g id="graph0" class="graph" transform="scale(1 1) rotate(0) translate(4 761)">
<title>include/bem/bem_tools.h</title>
<!-- Node1 -->
<g id="node1" class="node">
<title>Node1</title>
<g id="a_node1"><a xlink:title="Introduction of bem_tools.h.">
<polygon fill="#bfbfbf" stroke="black" points="481.5,-737.5 481.5,-756.5 606.5,-756.5 606.5,-737.5 481.5,-737.5"/>
<text text-anchor="middle" x="544" y="-744.5" font-family="Helvetica,sans-Serif" font-size="10.00">include/bem/bem_tools.h</text>
</a>
</g>
</g>
<!-- Node2 -->
<g id="node2" class="node">
<title>Node2</title>
<g id="a_node2"><a xlink:href="bem__general_8hcu_source.html" target="_top" xlink:title=" ">
<polygon fill="none" stroke="black" points="282,-352 282,-371 428,-371 428,-352 282,-352"/>
<text text-anchor="middle" x="355" y="-359" font-family="Helvetica,sans-Serif" font-size="10.00">include/bem/bem_general.hcu</text>
</a>
</g>
</g>
<!-- Node1&#45;&gt;Node2 -->
<g id="edge1" class="edge">
<title>Node1&#45;&gt;Node2</title>
<path fill="none" stroke="midnightblue" d="M470.96,-744.88C322.61,-740.61 0,-720.37 0,-625 0,-625 0,-625 0,-494.5 0,-418.63 79.25,-440.41 150,-413 201.44,-393.07 263.25,-379.12 305.46,-371.01"/>
<polygon fill="midnightblue" stroke="midnightblue" points="471.24,-748.39 481.33,-745.16 471.43,-741.39 471.24,-748.39"/>
</g>
<!-- Node3 -->
<g id="node3" class="node">
<title>Node3</title>
<g id="a_node3"><a xlink:href="laplace__bem_8priv_8hcu_source.html" target="_top" xlink:title=" ">
<polygon fill="none" stroke="black" points="651.5,-134.5 651.5,-164.5 766.5,-164.5 766.5,-134.5 651.5,-134.5"/>
<text text-anchor="start" x="659.5" y="-152.5" font-family="Helvetica,sans-Serif" font-size="10.00">include/laplace/laplace</text>
<text text-anchor="middle" x="709" y="-141.5" font-family="Helvetica,sans-Serif" font-size="10.00">_bem.priv.hcu</text>
</a>
</g>
</g>
<!-- Node1&#45;&gt;Node3 -->
<g id="edge42" class="edge">
<title>Node1&#45;&gt;Node3</title>
<path fill="none" stroke="midnightblue" d="M616.63,-745.4C709.39,-743.18 874.28,-734.34 1011,-701 1098.96,-679.55 1200,-715.54 1200,-625 1200,-625 1200,-625 1200,-427.5 1200,-230.53 896.56,-172.06 766.77,-156.06"/>
<polygon fill="midnightblue" stroke="midnightblue" points="616.43,-741.9 606.51,-745.62 616.58,-748.9 616.43,-741.9"/>
</g>
<!-- Node9 -->
<g id="node9" class="node">
<title>Node9</title>
<g id="a_node9"><a xlink:href="bem__values_8hcu_source.html" target="_top" xlink:title=" ">
<polygon fill="none" stroke="black" points="197.5,-614.5 197.5,-633.5 340.5,-633.5 340.5,-614.5 197.5,-614.5"/>
<text text-anchor="middle" x="269" y="-621.5" font-family="Helvetica,sans-Serif" font-size="10.00">include/bem/bem_values.hcu</text>
</a>
</g>
</g>
<!-- Node1&#45;&gt;Node9 -->
<g id="edge10" class="edge">
<title>Node1&#45;&gt;Node9</title>
<path fill="none" stroke="midnightblue" d="M515.32,-733.38C459.29,-708.73 336.56,-654.73 288.68,-633.66"/>
<polygon fill="midnightblue" stroke="midnightblue" points="514.1,-736.67 524.66,-737.49 516.92,-730.26 514.1,-736.67"/>
</g>
<!-- Node11 -->
<g id="node11" class="node">
<title>Node11</title>
<g id="a_node11"><a xlink:href="aca__plus_8hcu.html" target="_top" xlink:title="Implement the ACA+ method proposed in Grasedyck, L. 2005. “Adaptive Recompression of &#45;Matrices for BE...">
<polygon fill="none" stroke="black" points="460.5,-346.5 460.5,-376.5 561.5,-376.5 561.5,-346.5 460.5,-346.5"/>
<text text-anchor="start" x="468.5" y="-364.5" font-family="Helvetica,sans-Serif" font-size="10.00">include/hmatrix/aca</text>
<text text-anchor="middle" x="511" y="-353.5" font-family="Helvetica,sans-Serif" font-size="10.00">_plus/aca_plus.hcu</text>
</a>
</g>
</g>
<!-- Node1&#45;&gt;Node11 -->
<g id="edge41" class="edge">
<title>Node1&#45;&gt;Node11</title>
<path fill="none" stroke="midnightblue" d="M542.95,-727.01C540.48,-683.35 533.81,-572.46 525,-480 521.44,-442.57 515.81,-398.61 512.9,-376.58"/>
<polygon fill="midnightblue" stroke="midnightblue" points="539.47,-727.47 543.53,-737.26 546.46,-727.08 539.47,-727.47"/>
</g>
<!-- Node13 -->
<g id="node13" class="node">
<title>Node13</title>
<g id="a_node13"><a xlink:href="sauter__quadrature_8hcu_source.html" target="_top" xlink:title=" ">
<polygon fill="none" stroke="black" points="184,-413.5 184,-443.5 300,-443.5 300,-413.5 184,-413.5"/>
<text text-anchor="start" x="192" y="-431.5" font-family="Helvetica,sans-Serif" font-size="10.00">include/quadrature</text>
<text text-anchor="middle" x="242" y="-420.5" font-family="Helvetica,sans-Serif" font-size="10.00">/sauter_quadrature.hcu</text>
</a>
</g>
</g>
<!-- Node1&#45;&gt;Node13 -->
<g id="edge53" class="edge">
<title>Node1&#45;&gt;Node13</title>
<path fill="none" stroke="midnightblue" d="M471.24,-744.63C389.4,-738.91 258.72,-716.39 188,-634 142.84,-581.38 129.69,-540.82 163,-480 171.99,-463.58 188.85,-451.72 204.69,-443.64"/>
<polygon fill="midnightblue" stroke="midnightblue" points="471.27,-748.14 481.47,-745.28 471.71,-741.16 471.27,-748.14"/>
</g>
<!-- Node17 -->
<g id="node17" class="node">
<title>Node17</title>
<g id="a_node17"><a xlink:href="dof__tools__ext_8h.html" target="_top" xlink:title="Introduction of dof_tools_ext.h.">
<polygon fill="none" stroke="black" points="840,-413.5 840,-443.5 952,-443.5 952,-413.5 840,-413.5"/>
<text text-anchor="start" x="848" y="-431.5" font-family="Helvetica,sans-Serif" font-size="10.00">include/dofs/dof_tools</text>
<text text-anchor="middle" x="896" y="-420.5" font-family="Helvetica,sans-Serif" font-size="10.00">_ext.h</text>
</a>
</g>
</g>
<!-- Node1&#45;&gt;Node17 -->
<g id="edge31" class="edge">
<title>Node1&#45;&gt;Node17</title>
<path fill="none" stroke="midnightblue" d="M617.05,-742.38C753.72,-733.9 1039.74,-707.61 1100,-634 1163.45,-556.49 1003.68,-475.43 930.41,-443.55"/>
<polygon fill="midnightblue" stroke="midnightblue" points="616.45,-738.91 606.68,-743 616.87,-745.89 616.45,-738.91"/>
</g>
<!-- Node21 -->
<g id="node21" class="node">
<title>Node21</title>
<g id="a_node21"><a xlink:href="mapping__info_8h.html" target="_top" xlink:title="Introduction of mapping_info.h.">
<polygon fill="none" stroke="black" points="613.5,-670.5 613.5,-700.5 740.5,-700.5 740.5,-670.5 613.5,-670.5"/>
<text text-anchor="start" x="621.5" y="-688.5" font-family="Helvetica,sans-Serif" font-size="10.00">include/mapping/mapping</text>
<text text-anchor="middle" x="677" y="-677.5" font-family="Helvetica,sans-Serif" font-size="10.00">_info.h</text>
</a>
</g>
</g>
<!-- Node1&#45;&gt;Node21 -->
<g id="edge43" class="edge">
<title>Node1&#45;&gt;Node21</title>
<path fill="none" stroke="midnightblue" d="M572.32,-733.33C593.84,-723.7 623.42,-710.47 645.65,-700.52"/>
<polygon fill="midnightblue" stroke="midnightblue" points="570.75,-730.2 563.06,-737.48 573.61,-736.59 570.75,-730.2"/>
</g>
<!-- Node2&#45;&gt;Node3 -->
<g id="edge2" class="edge">
<title>Node2&#45;&gt;Node3</title>
<path fill="none" stroke="midnightblue" d="M355.18,-341.72C356.25,-323.94 360.29,-297.32 374,-279 439.9,-190.99 574.17,-163.26 651.21,-154.52"/>
<polygon fill="midnightblue" stroke="midnightblue" points="351.68,-341.84 354.83,-351.95 358.67,-342.08 351.68,-341.84"/>
</g>
<!-- Node6 -->
<g id="node6" class="node">
<title>Node6</title>
<g id="a_node6"><a xlink:href="operator__preconditioner_8h.html" target="_top" xlink:title=" ">
<polygon fill="none" stroke="black" points="551.5,-279.5 551.5,-309.5 680.5,-309.5 680.5,-279.5 551.5,-279.5"/>
<text text-anchor="start" x="559.5" y="-297.5" font-family="Helvetica,sans-Serif" font-size="10.00">include/preconditioners</text>
<text text-anchor="middle" x="616" y="-286.5" font-family="Helvetica,sans-Serif" font-size="10.00">/operator_preconditioner.h</text>
</a>
</g>
</g>
<!-- Node2&#45;&gt;Node6 -->
<g id="edge5" class="edge">
<title>Node2&#45;&gt;Node6</title>
<path fill="none" stroke="midnightblue" d="M399.26,-349.48C443.44,-338.47 511.5,-321.52 559.55,-309.56"/>
<polygon fill="midnightblue" stroke="midnightblue" points="398.25,-346.12 389.39,-351.94 399.94,-352.92 398.25,-346.12"/>
</g>
<!-- Node4 -->
<g id="node4" class="node">
<title>Node4</title>
<g id="a_node4"><a xlink:href="laplace__bem_8impl_8hcu_source.html" target="_top" xlink:title=" ">
<polygon fill="none" stroke="black" points="1016.5,-67.5 1016.5,-97.5 1131.5,-97.5 1131.5,-67.5 1016.5,-67.5"/>
<text text-anchor="start" x="1024.5" y="-85.5" font-family="Helvetica,sans-Serif" font-size="10.00">include/laplace/laplace</text>
<text text-anchor="middle" x="1074" y="-74.5" font-family="Helvetica,sans-Serif" font-size="10.00">_bem.impl.hcu</text>
</a>
</g>
</g>
<!-- Node3&#45;&gt;Node4 -->
<g id="edge3" class="edge">
<title>Node3&#45;&gt;Node4</title>
<path fill="none" stroke="midnightblue" d="M776.73,-136.44C845.68,-124.16 951.41,-105.33 1016.44,-93.75"/>
<polygon fill="midnightblue" stroke="midnightblue" points="776.07,-133 766.84,-138.2 777.29,-139.89 776.07,-133"/>
</g>
<!-- Node5 -->
<g id="node5" class="node">
<title>Node5</title>
<g id="a_node5"><a xlink:href="laplace__bem_8cu_source.html" target="_top" xlink:title=" ">
<polygon fill="none" stroke="black" points="1025,-0.5 1025,-30.5 1123,-30.5 1123,-0.5 1025,-0.5"/>
<text text-anchor="start" x="1033" y="-18.5" font-family="Helvetica,sans-Serif" font-size="10.00">src/laplace/laplace</text>
<text text-anchor="middle" x="1074" y="-7.5" font-family="Helvetica,sans-Serif" font-size="10.00">_bem.cu</text>
</a>
</g>
</g>
<!-- Node4&#45;&gt;Node5 -->
<g id="edge4" class="edge">
<title>Node4&#45;&gt;Node5</title>
<path fill="none" stroke="midnightblue" d="M1074,-57.11C1074,-48.15 1074,-38.32 1074,-30.58"/>
<polygon fill="midnightblue" stroke="midnightblue" points="1070.5,-57.4 1074,-67.4 1077.5,-57.4 1070.5,-57.4"/>
</g>
<!-- Node7 -->
<g id="node7" class="node">
<title>Node7</title>
<g id="a_node7"><a xlink:href="preconditioner__for__laplace__dirichlet_8h.html" target="_top" xlink:title=" ">
<polygon fill="none" stroke="black" points="547.5,-201.5 547.5,-242.5 680.5,-242.5 680.5,-201.5 547.5,-201.5"/>
<text text-anchor="start" x="555.5" y="-230.5" font-family="Helvetica,sans-Serif" font-size="10.00">include/preconditioners</text>
<text text-anchor="start" x="555.5" y="-219.5" font-family="Helvetica,sans-Serif" font-size="10.00">/preconditioner_for_laplace</text>
<text text-anchor="middle" x="614" y="-208.5" font-family="Helvetica,sans-Serif" font-size="10.00">_dirichlet.h</text>
</a>
</g>
</g>
<!-- Node6&#45;&gt;Node7 -->
<g id="edge6" class="edge">
<title>Node6&#45;&gt;Node7</title>
<path fill="none" stroke="midnightblue" d="M615.3,-268.98C615.06,-260.35 614.79,-250.76 614.56,-242.59"/>
<polygon fill="midnightblue" stroke="midnightblue" points="611.81,-269.34 615.6,-279.23 618.81,-269.14 611.81,-269.34"/>
</g>
<!-- Node8 -->
<g id="node8" class="node">
<title>Node8</title>
<g id="a_node8"><a xlink:href="preconditioner__for__laplace__neumann_8h.html" target="_top" xlink:title=" ">
<polygon fill="none" stroke="black" points="737.5,-201.5 737.5,-242.5 870.5,-242.5 870.5,-201.5 737.5,-201.5"/>
<text text-anchor="start" x="745.5" y="-230.5" font-family="Helvetica,sans-Serif" font-size="10.00">include/preconditioners</text>
<text text-anchor="start" x="745.5" y="-219.5" font-family="Helvetica,sans-Serif" font-size="10.00">/preconditioner_for_laplace</text>
<text text-anchor="middle" x="804" y="-208.5" font-family="Helvetica,sans-Serif" font-size="10.00">_neumann.h</text>
</a>
</g>
</g>
<!-- Node6&#45;&gt;Node8 -->
<g id="edge8" class="edge">
<title>Node6&#45;&gt;Node8</title>
<path fill="none" stroke="midnightblue" d="M663.2,-275.8C690.19,-265.68 724.1,-252.96 751.88,-242.55"/>
<polygon fill="midnightblue" stroke="midnightblue" points="661.73,-272.61 653.59,-279.4 664.19,-279.17 661.73,-272.61"/>
</g>
<!-- Node7&#45;&gt;Node3 -->
<g id="edge7" class="edge">
<title>Node7&#45;&gt;Node3</title>
<path fill="none" stroke="midnightblue" d="M648.85,-195.14C662.73,-184.84 678.15,-173.39 689.91,-164.67"/>
<polygon fill="midnightblue" stroke="midnightblue" points="646.41,-192.59 640.46,-201.36 650.58,-198.21 646.41,-192.59"/>
</g>
<!-- Node8&#45;&gt;Node3 -->
<g id="edge9" class="edge">
<title>Node8&#45;&gt;Node3</title>
<path fill="none" stroke="midnightblue" d="M769.15,-195.14C755.27,-184.84 739.85,-173.39 728.09,-164.67"/>
<polygon fill="midnightblue" stroke="midnightblue" points="767.42,-198.21 777.54,-201.36 771.59,-192.59 767.42,-198.21"/>
</g>
<!-- Node9&#45;&gt;Node2 -->
<g id="edge11" class="edge">
<title>Node9&#45;&gt;Node2</title>
<path fill="none" stroke="midnightblue" d="M234.39,-610.34C218.43,-603 200.34,-592.34 188,-578 140.03,-522.23 125.55,-467.46 175,-413 184.63,-402.4 266.54,-382.41 316.49,-371.02"/>
<polygon fill="midnightblue" stroke="midnightblue" points="233.41,-613.73 243.98,-614.48 236.19,-607.3 233.41,-613.73"/>
</g>
<!-- Node9&#45;&gt;Node3 -->
<g id="edge28" class="edge">
<title>Node9&#45;&gt;Node3</title>
<path fill="none" stroke="midnightblue" d="M231.59,-611.13C166.2,-587.78 38,-529.27 38,-429.5 38,-429.5 38,-429.5 38,-293.5 38,-168.58 488.45,-152.37 651.21,-150.58"/>
<polygon fill="midnightblue" stroke="midnightblue" points="230.54,-614.47 241.14,-614.45 232.84,-607.86 230.54,-614.47"/>
</g>
<!-- Node10 -->
<g id="node10" class="node">
<title>Node10</title>
<g id="a_node10"><a xlink:href="bem__kernels_8hcu_source.html" target="_top" xlink:title=" ">
<polygon fill="none" stroke="black" points="370,-486 370,-505 516,-505 516,-486 370,-486"/>
<text text-anchor="middle" x="443" y="-493" font-family="Helvetica,sans-Serif" font-size="10.00">include/bem/bem_kernels.hcu</text>
</a>
</g>
</g>
<!-- Node9&#45;&gt;Node10 -->
<g id="edge12" class="edge">
<title>Node9&#45;&gt;Node10</title>
<path fill="none" stroke="midnightblue" d="M307.05,-610.97C327.47,-603.43 352.4,-592.39 372,-578 401.05,-556.69 426.46,-521.5 437.35,-505.24"/>
<polygon fill="midnightblue" stroke="midnightblue" points="305.68,-607.75 297.43,-614.4 308.03,-614.34 305.68,-607.75"/>
</g>
<!-- Node9&#45;&gt;Node13 -->
<g id="edge29" class="edge">
<title>Node9&#45;&gt;Node13</title>
<path fill="none" stroke="midnightblue" d="M249.27,-608.14C225.45,-588.81 186.62,-552.57 171,-511 166.15,-498.1 164.68,-492.24 171,-480 179.25,-464 195.17,-451.97 209.85,-443.66"/>
<polygon fill="midnightblue" stroke="midnightblue" points="247.28,-611.03 257.3,-614.47 251.62,-605.53 247.28,-611.03"/>
</g>
<!-- Node15 -->
<g id="node15" class="node">
<title>Node15</title>
<g id="a_node15"><a xlink:href="cu__bem__values_8hcu.html" target="_top" xlink:title="Introduction of cu_bem_values.hcu.">
<polygon fill="none" stroke="black" points="256.5,-547.5 256.5,-577.5 363.5,-577.5 363.5,-547.5 256.5,-547.5"/>
<text text-anchor="start" x="264.5" y="-565.5" font-family="Helvetica,sans-Serif" font-size="10.00">include/bem/cu_bem</text>
<text text-anchor="middle" x="310" y="-554.5" font-family="Helvetica,sans-Serif" font-size="10.00">_values.hcu</text>
</a>
</g>
</g>
<!-- Node9&#45;&gt;Node15 -->
<g id="edge23" class="edge">
<title>Node9&#45;&gt;Node15</title>
<path fill="none" stroke="midnightblue" d="M280.74,-605.96C286.95,-596.96 294.47,-586.03 300.34,-577.52"/>
<polygon fill="midnightblue" stroke="midnightblue" points="277.67,-604.25 274.87,-614.48 283.43,-608.23 277.67,-604.25"/>
</g>
<!-- Node16 -->
<g id="node16" class="node">
<title>Node16</title>
<g id="a_node16"><a xlink:href="cu__debug__tools_8hcu_source.html" target="_top" xlink:title=" ">
<polygon fill="none" stroke="black" points="180.5,-480.5 180.5,-510.5 275.5,-510.5 275.5,-480.5 180.5,-480.5"/>
<text text-anchor="start" x="188.5" y="-498.5" font-family="Helvetica,sans-Serif" font-size="10.00">include/utilities/cu</text>
<text text-anchor="middle" x="228" y="-487.5" font-family="Helvetica,sans-Serif" font-size="10.00">_debug_tools.hcu</text>
</a>
</g>
</g>
<!-- Node9&#45;&gt;Node16 -->
<g id="edge30" class="edge">
<title>Node9&#45;&gt;Node16</title>
<path fill="none" stroke="midnightblue" d="M259.24,-605.39C255.03,-597.24 250.32,-587.32 247,-578 238.82,-555 233.19,-527.09 230.29,-510.62"/>
<polygon fill="midnightblue" stroke="midnightblue" points="256.2,-607.13 264.01,-614.29 262.37,-603.82 256.2,-607.13"/>
</g>
<!-- Node10&#45;&gt;Node2 -->
<g id="edge13" class="edge">
<title>Node10&#45;&gt;Node2</title>
<path fill="none" stroke="midnightblue" d="M431.53,-477.29C412.46,-448.69 374.94,-392.41 360.68,-371.02"/>
<polygon fill="midnightblue" stroke="midnightblue" points="428.77,-479.46 437.23,-485.84 434.59,-475.58 428.77,-479.46"/>
</g>
<!-- Node10&#45;&gt;Node6 -->
<g id="edge18" class="edge">
<title>Node10&#45;&gt;Node6</title>
<path fill="none" stroke="midnightblue" d="M462.81,-479.43C489.43,-458.5 537.19,-418.49 570,-377 587.13,-355.33 601.8,-326.5 609.71,-309.58"/>
<polygon fill="midnightblue" stroke="midnightblue" points="460.39,-476.87 454.64,-485.77 464.69,-482.4 460.39,-476.87"/>
</g>
<!-- Node10&#45;&gt;Node11 -->
<g id="edge14" class="edge">
<title>Node10&#45;&gt;Node11</title>
<path fill="none" stroke="midnightblue" d="M452.04,-476.95C465.64,-450.55 491.11,-401.12 503.64,-376.78"/>
<polygon fill="midnightblue" stroke="midnightblue" points="448.93,-475.35 447.46,-485.84 455.15,-478.55 448.93,-475.35"/>
</g>
<!-- Node10&#45;&gt;Node13 -->
<g id="edge19" class="edge">
<title>Node10&#45;&gt;Node13</title>
<path fill="none" stroke="midnightblue" d="M406.74,-482.77C372.66,-471.75 321.61,-455.24 285.38,-443.53"/>
<polygon fill="midnightblue" stroke="midnightblue" points="405.72,-486.12 416.31,-485.87 407.87,-479.46 405.72,-486.12"/>
</g>
<!-- Node11&#45;&gt;Node3 -->
<g id="edge15" class="edge">
<title>Node11&#45;&gt;Node3</title>
<path fill="none" stroke="midnightblue" d="M507.79,-335.9C504.73,-301.37 504.7,-238.54 538,-201 566.25,-169.16 613.48,-156.95 651.16,-152.48"/>
<polygon fill="midnightblue" stroke="midnightblue" points="504.33,-336.47 508.85,-346.05 511.29,-335.74 504.33,-336.47"/>
</g>
<!-- Node11&#45;&gt;Node6 -->
<g id="edge16" class="edge">
<title>Node11&#45;&gt;Node6</title>
<path fill="none" stroke="midnightblue" d="M542.48,-341.02C558.82,-330.9 578.41,-318.77 593.26,-309.58"/>
<polygon fill="midnightblue" stroke="midnightblue" points="540.44,-338.16 533.78,-346.4 544.13,-344.11 540.44,-338.16"/>
</g>
<!-- Node12 -->
<g id="node12" class="node">
<title>Node12</title>
<g id="a_node12"><a xlink:href="aca__plus_8cu_source.html" target="_top" xlink:title=" ">
<polygon fill="none" stroke="black" points="383.5,-279.5 383.5,-309.5 490.5,-309.5 490.5,-279.5 383.5,-279.5"/>
<text text-anchor="start" x="391.5" y="-297.5" font-family="Helvetica,sans-Serif" font-size="10.00">src/hmatrix/aca_plus</text>
<text text-anchor="middle" x="437" y="-286.5" font-family="Helvetica,sans-Serif" font-size="10.00">/aca_plus.cu</text>
</a>
</g>
</g>
<!-- Node11&#45;&gt;Node12 -->
<g id="edge17" class="edge">
<title>Node11&#45;&gt;Node12</title>
<path fill="none" stroke="midnightblue" d="M487.2,-339.6C476.03,-329.78 463.01,-318.34 453.03,-309.58"/>
<polygon fill="midnightblue" stroke="midnightblue" points="485.12,-342.43 494.94,-346.4 489.74,-337.17 485.12,-342.43"/>
</g>
<!-- Node13&#45;&gt;Node2 -->
<g id="edge20" class="edge">
<title>Node13&#45;&gt;Node2</title>
<path fill="none" stroke="midnightblue" d="M275.37,-408.31C296.89,-395.93 323.83,-380.43 340.21,-371.01"/>
<polygon fill="midnightblue" stroke="midnightblue" points="273.44,-405.38 266.52,-413.4 276.93,-411.44 273.44,-405.38"/>
</g>
<!-- Node13&#45;&gt;Node11 -->
<g id="edge21" class="edge">
<title>Node13&#45;&gt;Node11</title>
<path fill="none" stroke="midnightblue" d="M309.79,-411.12C356.56,-399.82 417.75,-385.03 460.31,-374.75"/>
<polygon fill="midnightblue" stroke="midnightblue" points="308.94,-407.73 300.04,-413.48 310.58,-414.53 308.94,-407.73"/>
</g>
<!-- Node14 -->
<g id="node14" class="node">
<title>Node14</title>
<g id="a_node14"><a xlink:href="sauter__quadrature_8cu_source.html" target="_top" xlink:title=" ">
<polygon fill="none" stroke="black" points="154.5,-346.5 154.5,-376.5 263.5,-376.5 263.5,-346.5 154.5,-346.5"/>
<text text-anchor="start" x="162.5" y="-364.5" font-family="Helvetica,sans-Serif" font-size="10.00">src/quadrature/sauter</text>
<text text-anchor="middle" x="209" y="-353.5" font-family="Helvetica,sans-Serif" font-size="10.00">_quadrature.cu</text>
</a>
</g>
</g>
<!-- Node13&#45;&gt;Node14 -->
<g id="edge22" class="edge">
<title>Node13&#45;&gt;Node14</title>
<path fill="none" stroke="midnightblue" d="M230.21,-404.28C225.51,-395.02 220.25,-384.66 216.15,-376.58"/>
<polygon fill="midnightblue" stroke="midnightblue" points="227.19,-406.06 234.84,-413.4 233.43,-402.89 227.19,-406.06"/>
</g>
<!-- Node15&#45;&gt;Node10 -->
<g id="edge24" class="edge">
<title>Node15&#45;&gt;Node10</title>
<path fill="none" stroke="midnightblue" d="M347.92,-542.97C373.47,-530.48 405.97,-514.6 425.59,-505.01"/>
<polygon fill="midnightblue" stroke="midnightblue" points="346.31,-539.86 338.86,-547.4 349.38,-546.15 346.31,-539.86"/>
</g>
<!-- Node15&#45;&gt;Node11 -->
<g id="edge25" class="edge">
<title>Node15&#45;&gt;Node11</title>
<path fill="none" stroke="midnightblue" d="M321.88,-537.93C331.17,-520.8 345.13,-497.63 361,-480 400.28,-436.35 457.2,-396.74 488.42,-376.56"/>
<polygon fill="midnightblue" stroke="midnightblue" points="318.55,-536.75 316.97,-547.23 324.74,-540.02 318.55,-536.75"/>
</g>
<!-- Node15&#45;&gt;Node13 -->
<g id="edge26" class="edge">
<title>Node15&#45;&gt;Node13</title>
<path fill="none" stroke="midnightblue" d="M304.86,-537.2C300.7,-520.46 293.89,-498.06 284,-480 276.66,-466.6 265.49,-453.39 256.52,-443.85"/>
<polygon fill="midnightblue" stroke="midnightblue" points="301.53,-538.34 307.21,-547.29 308.34,-536.75 301.53,-538.34"/>
</g>
<!-- Node15&#45;&gt;Node16 -->
<g id="edge27" class="edge">
<title>Node15&#45;&gt;Node16</title>
<path fill="none" stroke="midnightblue" d="M284.35,-541.17C271.81,-531.23 257.03,-519.51 245.76,-510.58"/>
<polygon fill="midnightblue" stroke="midnightblue" points="282.2,-543.93 292.21,-547.4 286.54,-538.44 282.2,-543.93"/>
</g>
<!-- Node17&#45;&gt;Node2 -->
<g id="edge32" class="edge">
<title>Node17&#45;&gt;Node2</title>
<path fill="none" stroke="midnightblue" d="M829.72,-420.75C742.69,-411.71 585.2,-394.74 451,-377 437.38,-375.2 422.7,-373.08 409.02,-371.02"/>
<polygon fill="midnightblue" stroke="midnightblue" points="829.41,-424.24 839.72,-421.79 830.13,-417.27 829.41,-424.24"/>
</g>
<!-- Node17&#45;&gt;Node4 -->
<g id="edge37" class="edge">
<title>Node17&#45;&gt;Node4</title>
<path fill="none" stroke="midnightblue" d="M962.2,-417.88C1029.52,-403.91 1124,-370.87 1124,-295.5 1124,-295.5 1124,-295.5 1124,-221 1124,-173.5 1097.32,-122.03 1082.94,-97.73"/>
<polygon fill="midnightblue" stroke="midnightblue" points="961.2,-414.51 952.07,-419.88 962.56,-421.37 961.2,-414.51"/>
</g>
<!-- Node17&#45;&gt;Node6 -->
<g id="edge38" class="edge">
<title>Node17&#45;&gt;Node6</title>
<path fill="none" stroke="midnightblue" d="M885.36,-404.22C875.65,-385.62 859.53,-360.36 838,-346 791.13,-314.76 727.66,-302.65 680.58,-298.05"/>
<polygon fill="midnightblue" stroke="midnightblue" points="882.26,-405.85 889.85,-413.25 888.53,-402.74 882.26,-405.85"/>
</g>
<!-- Node17&#45;&gt;Node8 -->
<g id="edge39" class="edge">
<title>Node17&#45;&gt;Node8</title>
<path fill="none" stroke="midnightblue" d="M888.81,-403.54C883.62,-387.11 876.13,-364.95 868,-346 851.86,-308.39 828.94,-266.49 815.35,-242.58"/>
<polygon fill="midnightblue" stroke="midnightblue" points="885.56,-404.9 891.86,-413.42 892.25,-402.83 885.56,-404.9"/>
</g>
<!-- Node18 -->
<g id="node18" class="node">
<title>Node18</title>
<g id="a_node18"><a xlink:href="ddm__efield_8h.html" target="_top" xlink:title="Introduction of ddm_efield.h.">
<polygon fill="none" stroke="black" points="724.5,-346.5 724.5,-376.5 829.5,-376.5 829.5,-346.5 724.5,-346.5"/>
<text text-anchor="start" x="732.5" y="-364.5" font-family="Helvetica,sans-Serif" font-size="10.00">include/electric_field</text>
<text text-anchor="middle" x="777" y="-353.5" font-family="Helvetica,sans-Serif" font-size="10.00">/ddm_efield.h</text>
</a>
</g>
</g>
<!-- Node17&#45;&gt;Node18 -->
<g id="edge33" class="edge">
<title>Node17&#45;&gt;Node18</title>
<path fill="none" stroke="midnightblue" d="M861.35,-408.57C842.63,-398.35 819.91,-385.94 802.77,-376.58"/>
<polygon fill="midnightblue" stroke="midnightblue" points="859.72,-411.67 870.18,-413.4 863.08,-405.53 859.72,-411.67"/>
</g>
<!-- Node19 -->
<g id="node19" class="node">
<title>Node19</title>
<g id="a_node19"><a xlink:href="laplace__bem_8h.html" target="_top" xlink:title="Implementation of BEM involving kernel functions and singular numerical quadratures.">
<polygon fill="none" stroke="black" points="966.5,-279.5 966.5,-309.5 1081.5,-309.5 1081.5,-279.5 966.5,-279.5"/>
<text text-anchor="start" x="974.5" y="-297.5" font-family="Helvetica,sans-Serif" font-size="10.00">include/laplace/laplace</text>
<text text-anchor="middle" x="1024" y="-286.5" font-family="Helvetica,sans-Serif" font-size="10.00">_bem.h</text>
</a>
</g>
</g>
<!-- Node17&#45;&gt;Node19 -->
<g id="edge34" class="edge">
<title>Node17&#45;&gt;Node19</title>
<path fill="none" stroke="midnightblue" d="M909.07,-404.59C919.58,-387.32 935.45,-363.69 953,-346 967.06,-331.83 985.5,-318.84 1000.06,-309.59"/>
<polygon fill="midnightblue" stroke="midnightblue" points="905.9,-403.06 903.8,-413.44 911.92,-406.64 905.9,-403.06"/>
</g>
<!-- Node20 -->
<g id="node20" class="node">
<title>Node20</title>
<g id="a_node20"><a xlink:href="dof__tools__ext_8cc_source.html" target="_top" xlink:title=" ">
<polygon fill="none" stroke="black" points="962.5,-346.5 962.5,-376.5 1057.5,-376.5 1057.5,-346.5 962.5,-346.5"/>
<text text-anchor="start" x="970.5" y="-364.5" font-family="Helvetica,sans-Serif" font-size="10.00">src/dofs/dof_tools</text>
<text text-anchor="middle" x="1010" y="-353.5" font-family="Helvetica,sans-Serif" font-size="10.00">_ext.cc</text>
</a>
</g>
</g>
<!-- Node17&#45;&gt;Node20 -->
<g id="edge40" class="edge">
<title>Node17&#45;&gt;Node20</title>
<path fill="none" stroke="midnightblue" d="M929.68,-408.3C947.52,-398.12 969.04,-385.85 985.31,-376.58"/>
<polygon fill="midnightblue" stroke="midnightblue" points="927.69,-405.4 920.74,-413.4 931.16,-411.48 927.69,-405.4"/>
</g>
<!-- Node19&#45;&gt;Node3 -->
<g id="edge36" class="edge">
<title>Node19&#45;&gt;Node3</title>
<path fill="none" stroke="midnightblue" d="M997.62,-273.45C969.51,-252.88 923.06,-221.12 879,-201 843.01,-184.57 800.32,-171.91 766.72,-163.37"/>
<polygon fill="midnightblue" stroke="midnightblue" points="995.61,-276.32 1005.73,-279.45 999.77,-270.69 995.61,-276.32"/>
</g>
<!-- Node19&#45;&gt;Node4 -->
<g id="edge35" class="edge">
<title>Node19&#45;&gt;Node4</title>
<path fill="none" stroke="midnightblue" d="M1029.7,-269.54C1040.2,-225.47 1062.26,-132.82 1070.66,-97.54"/>
<polygon fill="midnightblue" stroke="midnightblue" points="1026.27,-268.86 1027.36,-279.4 1033.08,-270.48 1026.27,-268.86"/>
</g>
<!-- Node21&#45;&gt;Node2 -->
<g id="edge44" class="edge">
<title>Node21&#45;&gt;Node2</title>
<path fill="none" stroke="midnightblue" d="M656.62,-662.79C648.69,-654.05 639.68,-643.74 632,-634 580.4,-568.55 584.01,-538.86 525,-480 475.72,-430.84 403.5,-388.71 371.41,-371.19"/>
<polygon fill="midnightblue" stroke="midnightblue" points="654.18,-665.32 663.53,-670.31 659.34,-660.58 654.18,-665.32"/>
</g>
<!-- Node21&#45;&gt;Node3 -->
<g id="edge51" class="edge">
<title>Node21&#45;&gt;Node3</title>
<path fill="none" stroke="midnightblue" d="M695.59,-662.14C701.38,-653.83 707.03,-643.98 710,-634 712.54,-625.48 710.01,-622.89 710,-614 709.81,-436.57 709.21,-220.93 709.04,-164.53"/>
<polygon fill="midnightblue" stroke="midnightblue" points="692.77,-660.07 689.61,-670.19 698.39,-664.25 692.77,-660.07"/>
</g>
<!-- Node21&#45;&gt;Node4 -->
<g id="edge50" class="edge">
<title>Node21&#45;&gt;Node4</title>
<path fill="none" stroke="midnightblue" d="M750.72,-678.64C839.3,-670.8 982.11,-655.35 1031,-634 1108.35,-600.22 1162,-580.91 1162,-496.5 1162,-496.5 1162,-496.5 1162,-427.5 1162,-295.85 1184.8,-249.71 1122,-134 1114.38,-119.97 1101.86,-106.98 1091.51,-97.69"/>
<polygon fill="midnightblue" stroke="midnightblue" points="750.38,-675.16 740.73,-679.51 750.99,-682.13 750.38,-675.16"/>
</g>
<!-- Node21&#45;&gt;Node6 -->
<g id="edge52" class="edge">
<title>Node21&#45;&gt;Node6</title>
<path fill="none" stroke="midnightblue" d="M671.02,-660.7C665.45,-636.42 658,-597.58 658,-563.5 658,-563.5 658,-563.5 658,-427.5 658,-382.77 635.83,-333.36 623.7,-309.68"/>
<polygon fill="midnightblue" stroke="midnightblue" points="667.62,-661.54 673.34,-670.45 674.43,-659.92 667.62,-661.54"/>
</g>
<!-- Node21&#45;&gt;Node9 -->
<g id="edge45" class="edge">
<title>Node21&#45;&gt;Node9</title>
<path fill="none" stroke="midnightblue" d="M603.35,-673.76C524.2,-662.22 400.01,-644.11 327.35,-633.51"/>
<polygon fill="midnightblue" stroke="midnightblue" points="602.85,-677.22 613.25,-675.2 603.86,-670.3 602.85,-677.22"/>
</g>
<!-- Node21&#45;&gt;Node11 -->
<g id="edge48" class="edge">
<title>Node21&#45;&gt;Node11</title>
<path fill="none" stroke="midnightblue" d="M660.31,-661.89C654.59,-653.44 648.51,-643.56 644,-634 613.43,-569.15 624.51,-545.78 596,-480 582.38,-448.59 578.24,-440.61 558,-413 548.37,-399.86 535.71,-386.43 525.95,-376.73"/>
<polygon fill="midnightblue" stroke="midnightblue" points="657.45,-663.91 666.05,-670.11 663.19,-659.9 657.45,-663.91"/>
</g>
<!-- Node21&#45;&gt;Node17 -->
<g id="edge46" class="edge">
<title>Node21&#45;&gt;Node17</title>
<path fill="none" stroke="midnightblue" d="M709.39,-664.74C722.15,-656.14 736.48,-645.42 748,-634 811.48,-571.04 867.77,-478.56 888.02,-443.59"/>
<polygon fill="midnightblue" stroke="midnightblue" points="707.3,-661.92 700.86,-670.33 711.14,-667.77 707.3,-661.92"/>
</g>
<!-- Node21&#45;&gt;Node18 -->
<g id="edge47" class="edge">
<title>Node21&#45;&gt;Node18</title>
<path fill="none" stroke="midnightblue" d="M684.5,-660.34C704.22,-596.85 757.06,-426.72 772.63,-376.59"/>
<polygon fill="midnightblue" stroke="midnightblue" points="681.05,-659.66 681.43,-670.25 687.73,-661.74 681.05,-659.66"/>
</g>
<!-- Node21&#45;&gt;Node19 -->
<g id="edge49" class="edge">
<title>Node21&#45;&gt;Node19</title>
<path fill="none" stroke="midnightblue" d="M750.95,-677.87C868.78,-665.23 1086,-632.57 1086,-563.5 1086,-563.5 1086,-563.5 1086,-427.5 1086,-390.2 1082.8,-379.3 1066,-346 1059.12,-332.36 1047.93,-319.16 1038.84,-309.68"/>
<polygon fill="midnightblue" stroke="midnightblue" points="750.49,-674.4 740.91,-678.92 751.22,-681.36 750.49,-674.4"/>
</g>
</g>
</svg>
