<?xml version="1.0" encoding="UTF-8" standalone="no"?>
<!DOCTYPE svg PUBLIC "-//W3C//DTD SVG 1.1//EN"
 "http://www.w3.org/Graphics/SVG/1.1/DTD/svg11.dtd">
<!-- Generated by graphviz version 2.43.0 (0)
 -->
<!-- Title: include/linear_algebra/blas_templates.h Pages: 1 -->
<svg width="507pt" height="106pt"
 viewBox="0.00 0.00 507.00 106.00" xmlns="http://www.w3.org/2000/svg" xmlns:xlink="http://www.w3.org/1999/xlink">
<g id="graph0" class="graph" transform="scale(1 1) rotate(0) translate(4 102)">
<title>include/linear_algebra/blas_templates.h</title>
<!-- Node1 -->
<g id="node1" class="node">
<title>Node1</title>
<g id="a_node1"><a xlink:title="Template based BLAS functions.">
<polygon fill="#bfbfbf" stroke="black" points="258.5,-67.5 258.5,-97.5 368.5,-97.5 368.5,-67.5 258.5,-67.5"/>
<text text-anchor="start" x="266.5" y="-85.5" font-family="Helvetica,sans-Serif" font-size="10.00">include/linear_algebra</text>
<text text-anchor="middle" x="313.5" y="-74.5" font-family="Helvetica,sans-Serif" font-size="10.00">/blas_templates.h</text>
</a>
</g>
</g>
<!-- Node2 -->
<g id="node2" class="node">
<title>Node2</title>
<g id="a_node2"><a xlink:title=" ">
<polygon fill="none" stroke="#bfbfbf" points="0,-6 0,-25 105,-25 105,-6 0,-6"/>
<text text-anchor="middle" x="52.5" y="-13" font-family="Helvetica,sans-Serif" font-size="10.00">deal.II/base/config.h</text>
</a>
</g>
</g>
<!-- Node1&#45;&gt;Node2 -->
<g id="edge1" class="edge">
<title>Node1&#45;&gt;Node2</title>
<path fill="none" stroke="midnightblue" d="M258.47,-67.79C210.32,-55.8 141.29,-38.61 96.68,-27.5"/>
<polygon fill="midnightblue" stroke="midnightblue" points="97.27,-24.04 86.72,-25.02 95.57,-30.83 97.27,-24.04"/>
</g>
<!-- Node3 -->
<g id="node3" class="node">
<title>Node3</title>
<g id="a_node3"><a xlink:title=" ">
<polygon fill="none" stroke="#bfbfbf" points="123.5,-6 123.5,-25 249.5,-25 249.5,-6 123.5,-6"/>
<text text-anchor="middle" x="186.5" y="-13" font-family="Helvetica,sans-Serif" font-size="10.00">deal.II/base/exceptions.h</text>
</a>
</g>
</g>
<!-- Node1&#45;&gt;Node3 -->
<g id="edge2" class="edge">
<title>Node1&#45;&gt;Node3</title>
<path fill="none" stroke="midnightblue" d="M285.94,-67.4C264.05,-56.19 233.67,-40.64 212.26,-29.69"/>
<polygon fill="midnightblue" stroke="midnightblue" points="213.62,-26.45 203.12,-25.01 210.43,-32.68 213.62,-26.45"/>
</g>
<!-- Node4 -->
<g id="node4" class="node">
<title>Node4</title>
<g id="a_node4"><a xlink:title=" ">
<polygon fill="none" stroke="#bfbfbf" points="268,-0.5 268,-30.5 359,-30.5 359,-0.5 268,-0.5"/>
<text text-anchor="start" x="276" y="-18.5" font-family="Helvetica,sans-Serif" font-size="10.00">deal.II/lac/lapack</text>
<text text-anchor="middle" x="313.5" y="-7.5" font-family="Helvetica,sans-Serif" font-size="10.00">_support.h</text>
</a>
</g>
</g>
<!-- Node1&#45;&gt;Node4 -->
<g id="edge3" class="edge">
<title>Node1&#45;&gt;Node4</title>
<path fill="none" stroke="midnightblue" d="M313.5,-67.4C313.5,-59.64 313.5,-49.81 313.5,-40.86"/>
<polygon fill="midnightblue" stroke="midnightblue" points="317,-40.58 313.5,-30.58 310,-40.58 317,-40.58"/>
</g>
<!-- Node5 -->
<g id="node5" class="node">
<title>Node5</title>
<g id="a_node5"><a xlink:title=" ">
<polygon fill="none" stroke="#bfbfbf" points="377,-6 377,-25 430,-25 430,-6 377,-6"/>
<text text-anchor="middle" x="403.5" y="-13" font-family="Helvetica,sans-Serif" font-size="10.00">complex</text>
</a>
</g>
</g>
<!-- Node1&#45;&gt;Node5 -->
<g id="edge4" class="edge">
<title>Node1&#45;&gt;Node5</title>
<path fill="none" stroke="midnightblue" d="M333.03,-67.4C347.98,-56.6 368.53,-41.76 383.58,-30.89"/>
<polygon fill="midnightblue" stroke="midnightblue" points="385.66,-33.7 391.72,-25.01 381.57,-28.02 385.66,-33.7"/>
</g>
<!-- Node6 -->
<g id="node6" class="node">
<title>Node6</title>
<g id="a_node6"><a xlink:href="config_8h.html" target="_top" xlink:title="Configurations for building the project.">
<polygon fill="none" stroke="black" points="448,-6 448,-25 499,-25 499,-6 448,-6"/>
<text text-anchor="middle" x="473.5" y="-13" font-family="Helvetica,sans-Serif" font-size="10.00">config.h</text>
</a>
</g>
</g>
<!-- Node1&#45;&gt;Node6 -->
<g id="edge5" class="edge">
<title>Node1&#45;&gt;Node6</title>
<path fill="none" stroke="midnightblue" d="M349.16,-67.45C374.44,-57.43 409.12,-43.56 439.5,-31 441.09,-30.34 442.72,-29.66 444.36,-28.97"/>
<polygon fill="midnightblue" stroke="midnightblue" points="445.9,-32.12 453.75,-25.01 443.18,-25.68 445.9,-32.12"/>
</g>
</g>
</svg>
