<?xml version="1.0" encoding="UTF-8" standalone="no"?>
<!DOCTYPE svg PUBLIC "-//W3C//DTD SVG 1.1//EN"
 "http://www.w3.org/Graphics/SVG/1.1/DTD/svg11.dtd">
<!-- Generated by graphviz version 2.43.0 (0)
 -->
<!-- Title: include/linear_algebra/blas_helpers.h Pages: 1 -->
<svg width="999pt" height="173pt"
 viewBox="0.00 0.00 999.00 173.00" xmlns="http://www.w3.org/2000/svg" xmlns:xlink="http://www.w3.org/1999/xlink">
<g id="graph0" class="graph" transform="scale(1 1) rotate(0) translate(4 169)">
<title>include/linear_algebra/blas_helpers.h</title>
<!-- Node1 -->
<g id="node1" class="node">
<title>Node1</title>
<g id="a_node1"><a xlink:title="Helper functions for calling BLAS functions.">
<polygon fill="#bfbfbf" stroke="black" points="482.5,-134.5 482.5,-164.5 592.5,-164.5 592.5,-134.5 482.5,-134.5"/>
<text text-anchor="start" x="490.5" y="-152.5" font-family="Helvetica,sans-Serif" font-size="10.00">include/linear_algebra</text>
<text text-anchor="middle" x="537.5" y="-141.5" font-family="Helvetica,sans-Serif" font-size="10.00">/blas_helpers.h</text>
</a>
</g>
</g>
<!-- Node2 -->
<g id="node2" class="node">
<title>Node2</title>
<g id="a_node2"><a xlink:title=" ">
<polygon fill="none" stroke="#bfbfbf" points="0,-67.5 0,-97.5 101,-97.5 101,-67.5 0,-67.5"/>
<text text-anchor="start" x="8" y="-85.5" font-family="Helvetica,sans-Serif" font-size="10.00">deal.II/base/aligned</text>
<text text-anchor="middle" x="50.5" y="-74.5" font-family="Helvetica,sans-Serif" font-size="10.00">_vector.h</text>
</a>
</g>
</g>
<!-- Node1&#45;&gt;Node2 -->
<g id="edge1" class="edge">
<title>Node1&#45;&gt;Node2</title>
<path fill="none" stroke="midnightblue" d="M482.25,-144.09C402.48,-137.25 250.29,-122.46 111.14,-97.97"/>
<polygon fill="midnightblue" stroke="midnightblue" points="111.61,-94.5 101.15,-96.19 110.38,-101.39 111.61,-94.5"/>
</g>
<!-- Node3 -->
<g id="node3" class="node">
<title>Node3</title>
<g id="a_node3"><a xlink:title=" ">
<polygon fill="none" stroke="#bfbfbf" points="119.5,-73 119.5,-92 235.5,-92 235.5,-73 119.5,-73"/>
<text text-anchor="middle" x="177.5" y="-80" font-family="Helvetica,sans-Serif" font-size="10.00">deal.II/base/numbers.h</text>
</a>
</g>
</g>
<!-- Node1&#45;&gt;Node3 -->
<g id="edge2" class="edge">
<title>Node1&#45;&gt;Node3</title>
<path fill="none" stroke="midnightblue" d="M482.29,-139.7C423.29,-130.13 327.09,-114.05 244.5,-98 238.37,-96.81 231.93,-95.5 225.58,-94.16"/>
<polygon fill="midnightblue" stroke="midnightblue" points="226.22,-90.72 215.71,-92.06 224.76,-97.57 226.22,-90.72"/>
</g>
<!-- Node4 -->
<g id="node4" class="node">
<title>Node4</title>
<g id="a_node4"><a xlink:title=" ">
<polygon fill="none" stroke="#bfbfbf" points="254,-73 254,-92 357,-92 357,-73 254,-73"/>
<text text-anchor="middle" x="305.5" y="-80" font-family="Helvetica,sans-Serif" font-size="10.00">deal.II/base/types.h</text>
</a>
</g>
</g>
<!-- Node1&#45;&gt;Node4 -->
<g id="edge3" class="edge">
<title>Node1&#45;&gt;Node4</title>
<path fill="none" stroke="midnightblue" d="M487.45,-134.48C445.05,-122.6 385.05,-105.79 345.72,-94.77"/>
<polygon fill="midnightblue" stroke="midnightblue" points="346.51,-91.36 335.94,-92.03 344.63,-98.1 346.51,-91.36"/>
</g>
<!-- Node5 -->
<g id="node5" class="node">
<title>Node5</title>
<g id="a_node5"><a xlink:title=" ">
<polygon fill="none" stroke="#bfbfbf" points="375.5,-73 375.5,-92 509.5,-92 509.5,-73 375.5,-73"/>
<text text-anchor="middle" x="442.5" y="-80" font-family="Helvetica,sans-Serif" font-size="10.00">deal.II/base/vectorization.h</text>
</a>
</g>
</g>
<!-- Node1&#45;&gt;Node5 -->
<g id="edge4" class="edge">
<title>Node1&#45;&gt;Node5</title>
<path fill="none" stroke="midnightblue" d="M516.89,-134.4C501.1,-123.6 479.41,-108.76 463.53,-97.89"/>
<polygon fill="midnightblue" stroke="midnightblue" points="465.16,-94.77 454.93,-92.01 461.21,-100.54 465.16,-94.77"/>
</g>
<!-- Node6 -->
<g id="node6" class="node">
<title>Node6</title>
<g id="a_node6"><a xlink:title=" ">
<polygon fill="none" stroke="#bfbfbf" points="492,-0.5 492,-30.5 583,-30.5 583,-0.5 492,-0.5"/>
<text text-anchor="start" x="500" y="-18.5" font-family="Helvetica,sans-Serif" font-size="10.00">deal.II/lac/lapack</text>
<text text-anchor="middle" x="537.5" y="-7.5" font-family="Helvetica,sans-Serif" font-size="10.00">_support.h</text>
</a>
</g>
</g>
<!-- Node1&#45;&gt;Node6 -->
<g id="edge5" class="edge">
<title>Node1&#45;&gt;Node6</title>
<path fill="none" stroke="midnightblue" d="M537.5,-134.37C537.5,-112.04 537.5,-68.31 537.5,-40.85"/>
<polygon fill="midnightblue" stroke="midnightblue" points="541,-40.52 537.5,-30.52 534,-40.52 541,-40.52"/>
</g>
<!-- Node7 -->
<g id="node7" class="node">
<title>Node7</title>
<g id="a_node7"><a xlink:title=" ">
<polygon fill="none" stroke="#bfbfbf" points="565.5,-67.5 565.5,-97.5 677.5,-97.5 677.5,-67.5 565.5,-67.5"/>
<text text-anchor="start" x="573.5" y="-85.5" font-family="Helvetica,sans-Serif" font-size="10.00">deal.II/lac/vector</text>
<text text-anchor="middle" x="621.5" y="-74.5" font-family="Helvetica,sans-Serif" font-size="10.00">_operations_internal.h</text>
</a>
</g>
</g>
<!-- Node1&#45;&gt;Node7 -->
<g id="edge6" class="edge">
<title>Node1&#45;&gt;Node7</title>
<path fill="none" stroke="midnightblue" d="M555.73,-134.4C567.28,-125.45 582.42,-113.74 595.26,-103.8"/>
<polygon fill="midnightblue" stroke="midnightblue" points="597.54,-106.46 603.31,-97.58 593.26,-100.93 597.54,-106.46"/>
</g>
<!-- Node8 -->
<g id="node8" class="node">
<title>Node8</title>
<g id="a_node8"><a xlink:title=" ">
<polygon fill="none" stroke="#bfbfbf" points="695.5,-73 695.5,-92 757.5,-92 757.5,-73 695.5,-73"/>
<text text-anchor="middle" x="726.5" y="-80" font-family="Helvetica,sans-Serif" font-size="10.00">type_traits</text>
</a>
</g>
</g>
<!-- Node1&#45;&gt;Node8 -->
<g id="edge7" class="edge">
<title>Node1&#45;&gt;Node8</title>
<path fill="none" stroke="midnightblue" d="M579.65,-134.48C609.53,-124.47 650.54,-110.61 686.5,-98 688.88,-97.17 691.33,-96.3 693.8,-95.42"/>
<polygon fill="midnightblue" stroke="midnightblue" points="695.04,-98.69 703.26,-92.02 692.67,-92.1 695.04,-98.69"/>
</g>
<!-- Node9 -->
<g id="node9" class="node">
<title>Node9</title>
<g id="a_node9"><a xlink:href="blas__templates_8h.html" target="_top" xlink:title="Template based BLAS functions.">
<polygon fill="none" stroke="black" points="776,-73 776,-92 867,-92 867,-73 776,-73"/>
<text text-anchor="middle" x="821.5" y="-80" font-family="Helvetica,sans-Serif" font-size="10.00">blas_templates.h</text>
</a>
</g>
</g>
<!-- Node1&#45;&gt;Node9 -->
<g id="edge8" class="edge">
<title>Node1&#45;&gt;Node9</title>
<path fill="none" stroke="midnightblue" d="M592.71,-136.98C639.18,-127.13 707.34,-112.31 766.5,-98 770.94,-96.93 775.57,-95.77 780.18,-94.59"/>
<polygon fill="midnightblue" stroke="midnightblue" points="781.34,-97.9 790.14,-92 779.59,-91.13 781.34,-97.9"/>
</g>
<!-- Node13 -->
<g id="node13" class="node">
<title>Node13</title>
<g id="a_node13"><a xlink:href="config_8h.html" target="_top" xlink:title="Configurations for building the project.">
<polygon fill="none" stroke="black" points="940,-6 940,-25 991,-25 991,-6 940,-6"/>
<text text-anchor="middle" x="965.5" y="-13" font-family="Helvetica,sans-Serif" font-size="10.00">config.h</text>
</a>
</g>
</g>
<!-- Node1&#45;&gt;Node13 -->
<g id="edge14" class="edge">
<title>Node1&#45;&gt;Node13</title>
<path fill="none" stroke="midnightblue" d="M592.82,-144.21C675.65,-137.12 827.42,-121.39 876.5,-98 908.48,-82.76 937.05,-52.09 952.75,-33.03"/>
<polygon fill="midnightblue" stroke="midnightblue" points="955.52,-35.18 959.03,-25.18 950.05,-30.8 955.52,-35.18"/>
</g>
<!-- Node9&#45;&gt;Node6 -->
<g id="edge11" class="edge">
<title>Node9&#45;&gt;Node6</title>
<path fill="none" stroke="midnightblue" d="M790.45,-73C782.65,-70.95 774.29,-68.83 766.5,-67 692.21,-49.58 670.45,-49.3 592.86,-31.25"/>
<polygon fill="midnightblue" stroke="midnightblue" points="593.65,-27.84 583.12,-28.95 592.05,-34.65 593.65,-27.84"/>
</g>
<!-- Node10 -->
<g id="node10" class="node">
<title>Node10</title>
<g id="a_node10"><a xlink:title=" ">
<polygon fill="none" stroke="#bfbfbf" points="601,-6 601,-25 706,-25 706,-6 601,-6"/>
<text text-anchor="middle" x="653.5" y="-13" font-family="Helvetica,sans-Serif" font-size="10.00">deal.II/base/config.h</text>
</a>
</g>
</g>
<!-- Node9&#45;&gt;Node10 -->
<g id="edge9" class="edge">
<title>Node9&#45;&gt;Node10</title>
<path fill="none" stroke="midnightblue" d="M799.19,-72.87C769.99,-61.57 718.62,-41.7 685.34,-28.82"/>
<polygon fill="midnightblue" stroke="midnightblue" points="686.22,-25.41 675.63,-25.06 683.7,-31.94 686.22,-25.41"/>
</g>
<!-- Node11 -->
<g id="node11" class="node">
<title>Node11</title>
<g id="a_node11"><a xlink:title=" ">
<polygon fill="none" stroke="#bfbfbf" points="724.5,-6 724.5,-25 850.5,-25 850.5,-6 724.5,-6"/>
<text text-anchor="middle" x="787.5" y="-13" font-family="Helvetica,sans-Serif" font-size="10.00">deal.II/base/exceptions.h</text>
</a>
</g>
</g>
<!-- Node9&#45;&gt;Node11 -->
<g id="edge10" class="edge">
<title>Node9&#45;&gt;Node11</title>
<path fill="none" stroke="midnightblue" d="M816.91,-72.73C811.77,-62.89 803.28,-46.66 796.74,-34.16"/>
<polygon fill="midnightblue" stroke="midnightblue" points="799.75,-32.37 792.01,-25.13 793.55,-35.61 799.75,-32.37"/>
</g>
<!-- Node12 -->
<g id="node12" class="node">
<title>Node12</title>
<g id="a_node12"><a xlink:title=" ">
<polygon fill="none" stroke="#bfbfbf" points="869,-6 869,-25 922,-25 922,-6 869,-6"/>
<text text-anchor="middle" x="895.5" y="-13" font-family="Helvetica,sans-Serif" font-size="10.00">complex</text>
</a>
</g>
</g>
<!-- Node9&#45;&gt;Node12 -->
<g id="edge12" class="edge">
<title>Node9&#45;&gt;Node12</title>
<path fill="none" stroke="midnightblue" d="M831.48,-72.73C843.35,-62.31 863.39,-44.71 877.88,-31.97"/>
<polygon fill="midnightblue" stroke="midnightblue" points="880.47,-34.36 885.68,-25.13 875.86,-29.1 880.47,-34.36"/>
</g>
<!-- Node9&#45;&gt;Node13 -->
<g id="edge13" class="edge">
<title>Node9&#45;&gt;Node13</title>
<path fill="none" stroke="midnightblue" d="M840.62,-72.87C865.26,-61.75 908.31,-42.32 936.86,-29.43"/>
<polygon fill="midnightblue" stroke="midnightblue" points="938.62,-32.47 946.3,-25.17 935.74,-26.09 938.62,-32.47"/>
</g>
</g>
</svg>
