<?xml version="1.0" encoding="UTF-8" standalone="no"?>
<!DOCTYPE svg PUBLIC "-//W3C//DTD SVG 1.1//EN"
 "http://www.w3.org/Graphics/SVG/1.1/DTD/svg11.dtd">
<!-- Generated by graphviz version 2.43.0 (0)
 -->
<!-- Title: include/cluster_tree/block_cluster_tree.h Pages: 1 -->
<svg width="1263pt" height="597pt"
 viewBox="0.00 0.00 1262.50 597.00" xmlns="http://www.w3.org/2000/svg" xmlns:xlink="http://www.w3.org/1999/xlink">
<g id="graph0" class="graph" transform="scale(1 1) rotate(0) translate(4 593)">
<title>include/cluster_tree/block_cluster_tree.h</title>
<!-- Node1 -->
<g id="node1" class="node">
<title>Node1</title>
<g id="a_node1"><a xlink:title="Implementation of the class BlockClusterTree.">
<polygon fill="#bfbfbf" stroke="black" points="0,-558.5 0,-588.5 107,-588.5 107,-558.5 0,-558.5"/>
<text text-anchor="start" x="8" y="-576.5" font-family="Helvetica,sans-Serif" font-size="10.00">include/cluster_tree</text>
<text text-anchor="middle" x="53.5" y="-565.5" font-family="Helvetica,sans-Serif" font-size="10.00">/block_cluster_tree.h</text>
</a>
</g>
</g>
<!-- Node2 -->
<g id="node2" class="node">
<title>Node2</title>
<g id="a_node2"><a xlink:href="hmatrix_8h.html" target="_top" xlink:title="Definition of hierarchical matrix.">
<polygon fill="none" stroke="black" points="465.5,-502.5 465.5,-521.5 591.5,-521.5 591.5,-502.5 465.5,-502.5"/>
<text text-anchor="middle" x="528.5" y="-509.5" font-family="Helvetica,sans-Serif" font-size="10.00">include/hmatrix/hmatrix.h</text>
</a>
</g>
</g>
<!-- Node1&#45;&gt;Node2 -->
<g id="edge1" class="edge">
<title>Node1&#45;&gt;Node2</title>
<path fill="none" stroke="midnightblue" d="M117.25,-564.51C208.31,-553.11 374.63,-532.27 465.35,-520.91"/>
<polygon fill="midnightblue" stroke="midnightblue" points="116.55,-561.07 107.07,-565.79 117.42,-568.02 116.55,-561.07"/>
</g>
<!-- Node11 -->
<g id="node11" class="node">
<title>Node11</title>
<g id="a_node11"><a xlink:href="laplace__bem_8priv_8hcu_source.html" target="_top" xlink:title=" ">
<polygon fill="none" stroke="black" points="445,-134.5 445,-164.5 560,-164.5 560,-134.5 445,-134.5"/>
<text text-anchor="start" x="453" y="-152.5" font-family="Helvetica,sans-Serif" font-size="10.00">include/laplace/laplace</text>
<text text-anchor="middle" x="502.5" y="-141.5" font-family="Helvetica,sans-Serif" font-size="10.00">_bem.priv.hcu</text>
</a>
</g>
</g>
<!-- Node1&#45;&gt;Node11 -->
<g id="edge39" class="edge">
<title>Node1&#45;&gt;Node11</title>
<path fill="none" stroke="midnightblue" d="M41.5,-549.13C30.37,-525.25 15.5,-486.76 15.5,-451.5 15.5,-451.5 15.5,-451.5 15.5,-299 15.5,-254.63 1.84,-231.03 34.5,-201 64.17,-173.73 325.96,-158.5 444.56,-152.95"/>
<polygon fill="midnightblue" stroke="midnightblue" points="38.49,-550.94 45.99,-558.42 44.79,-547.9 38.49,-550.94"/>
</g>
<!-- Node14 -->
<g id="node14" class="node">
<title>Node14</title>
<g id="a_node14"><a xlink:href="operator__preconditioner_8h.html" target="_top" xlink:title=" ">
<polygon fill="none" stroke="black" points="87,-285 87,-315 216,-315 216,-285 87,-285"/>
<text text-anchor="start" x="95" y="-303" font-family="Helvetica,sans-Serif" font-size="10.00">include/preconditioners</text>
<text text-anchor="middle" x="151.5" y="-292" font-family="Helvetica,sans-Serif" font-size="10.00">/operator_preconditioner.h</text>
</a>
</g>
</g>
<!-- Node1&#45;&gt;Node14 -->
<g id="edge40" class="edge">
<title>Node1&#45;&gt;Node14</title>
<path fill="none" stroke="midnightblue" d="M54.73,-548.06C57.67,-506.58 67.58,-420.73 100.5,-357 108.83,-340.88 123,-325.86 134.29,-315.45"/>
<polygon fill="midnightblue" stroke="midnightblue" points="51.22,-548.09 54.08,-558.29 58.2,-548.53 51.22,-548.09"/>
</g>
<!-- Node3 -->
<g id="node3" class="node">
<title>Node3</title>
<g id="a_node3"><a xlink:href="ddm__efield_8h.html" target="_top" xlink:title="Introduction of ddm_efield.h.">
<polygon fill="none" stroke="black" points="975,-134.5 975,-164.5 1080,-164.5 1080,-134.5 975,-134.5"/>
<text text-anchor="start" x="983" y="-152.5" font-family="Helvetica,sans-Serif" font-size="10.00">include/electric_field</text>
<text text-anchor="middle" x="1027.5" y="-141.5" font-family="Helvetica,sans-Serif" font-size="10.00">/ddm_efield.h</text>
</a>
</g>
</g>
<!-- Node2&#45;&gt;Node3 -->
<g id="edge2" class="edge">
<title>Node2&#45;&gt;Node3</title>
<path fill="none" stroke="midnightblue" d="M601.76,-508.45C730.41,-503.41 991.61,-490.46 1079.5,-466 1163.18,-442.71 1254.5,-465.86 1254.5,-379 1254.5,-379 1254.5,-379 1254.5,-299 1254.5,-250.88 1245.24,-232.07 1208.5,-201 1172.51,-170.56 1119.48,-158.39 1080.11,-153.57"/>
<polygon fill="midnightblue" stroke="midnightblue" points="601.47,-504.96 591.61,-508.84 601.74,-511.96 601.47,-504.96"/>
</g>
<!-- Node4 -->
<g id="node4" class="node">
<title>Node4</title>
<g id="a_node4"><a xlink:href="subdomain__steklov__poincare__hmatrix_8h.html" target="_top" xlink:title="Introduction of subdomain_steklov_poincare_hmatrix.h.">
<polygon fill="none" stroke="black" points="901.5,-357.5 901.5,-398.5 1047.5,-398.5 1047.5,-357.5 901.5,-357.5"/>
<text text-anchor="start" x="909.5" y="-386.5" font-family="Helvetica,sans-Serif" font-size="10.00">include/electric_field</text>
<text text-anchor="start" x="909.5" y="-375.5" font-family="Helvetica,sans-Serif" font-size="10.00">/subdomain_steklov_poincare</text>
<text text-anchor="middle" x="974.5" y="-364.5" font-family="Helvetica,sans-Serif" font-size="10.00">_hmatrix.h</text>
</a>
</g>
</g>
<!-- Node2&#45;&gt;Node4 -->
<g id="edge3" class="edge">
<title>Node2&#45;&gt;Node4</title>
<path fill="none" stroke="midnightblue" d="M601.88,-510.21C740.98,-507.93 1031.96,-499.22 1062.5,-466 1084.6,-441.96 1049.43,-415.8 1017.21,-398.51"/>
<polygon fill="midnightblue" stroke="midnightblue" points="601.67,-506.71 591.73,-510.36 601.78,-513.71 601.67,-506.71"/>
</g>
<!-- Node10 -->
<g id="node10" class="node">
<title>Node10</title>
<g id="a_node10"><a xlink:href="aca__plus_8hcu.html" target="_top" xlink:title="Implement the ACA+ method proposed in Grasedyck, L. 2005. “Adaptive Recompression of &#45;Matrices for BE...">
<polygon fill="none" stroke="black" points="411,-363 411,-393 512,-393 512,-363 411,-363"/>
<text text-anchor="start" x="419" y="-381" font-family="Helvetica,sans-Serif" font-size="10.00">include/hmatrix/aca</text>
<text text-anchor="middle" x="461.5" y="-370" font-family="Helvetica,sans-Serif" font-size="10.00">_plus/aca_plus.hcu</text>
</a>
</g>
</g>
<!-- Node2&#45;&gt;Node10 -->
<g id="edge14" class="edge">
<title>Node2&#45;&gt;Node10</title>
<path fill="none" stroke="midnightblue" d="M499.23,-497.61C486.56,-490.2 472.94,-479.68 465.5,-466 453,-443.02 455.57,-411.37 458.55,-393.26"/>
<polygon fill="midnightblue" stroke="midnightblue" points="497.73,-500.78 508.19,-502.46 501.06,-494.62 497.73,-500.78"/>
</g>
<!-- Node2&#45;&gt;Node11 -->
<g id="edge31" class="edge">
<title>Node2&#45;&gt;Node11</title>
<path fill="none" stroke="midnightblue" d="M514,-494.4C507.95,-486.39 501.62,-476.3 498.5,-466 494.51,-452.81 494.77,-448.26 498.5,-435 503.58,-416.95 515.42,-417.05 520.5,-399 528.22,-371.57 529.59,-338.8 512.5,-201 510.96,-188.58 508.11,-174.64 505.85,-164.56"/>
<polygon fill="midnightblue" stroke="midnightblue" points="511.28,-496.6 520.29,-502.18 516.73,-492.2 511.28,-496.6"/>
</g>
<!-- Node2&#45;&gt;Node14 -->
<g id="edge32" class="edge">
<title>Node2&#45;&gt;Node14</title>
<path fill="none" stroke="midnightblue" d="M455.4,-502.75C346.21,-488.68 149.13,-455.88 110.5,-399 92.05,-371.84 119.08,-335.07 137.26,-315.19"/>
<polygon fill="midnightblue" stroke="midnightblue" points="455.01,-506.23 465.37,-504.02 455.89,-499.29 455.01,-506.23"/>
</g>
<!-- Node18 -->
<g id="node18" class="node">
<title>Node18</title>
<g id="a_node18"><a xlink:href="hblockmatrix__skew__symm_8h.html" target="_top" xlink:title="Introduction of hblockmatrix_skew_symm.h.">
<polygon fill="none" stroke="black" points="508,-435.5 508,-465.5 649,-465.5 649,-435.5 508,-435.5"/>
<text text-anchor="start" x="516" y="-453.5" font-family="Helvetica,sans-Serif" font-size="10.00">include/hmatrix/hblockmatrix</text>
<text text-anchor="middle" x="578.5" y="-442.5" font-family="Helvetica,sans-Serif" font-size="10.00">_skew_symm.h</text>
</a>
</g>
</g>
<!-- Node2&#45;&gt;Node18 -->
<g id="edge24" class="edge">
<title>Node2&#45;&gt;Node18</title>
<path fill="none" stroke="midnightblue" d="M542.1,-494.81C549.8,-485.65 559.34,-474.3 566.72,-465.52"/>
<polygon fill="midnightblue" stroke="midnightblue" points="539.42,-492.57 535.66,-502.48 544.78,-497.07 539.42,-492.57"/>
</g>
<!-- Node19 -->
<g id="node19" class="node">
<title>Node19</title>
<g id="a_node19"><a xlink:href="hblockmatrix__skew__symm__preconditioner_8h.html" target="_top" xlink:title="Introduction of hblockmatrix_skew_symm_preconditioner.h.">
<polygon fill="none" stroke="black" points="667.5,-435.5 667.5,-465.5 877.5,-465.5 877.5,-435.5 667.5,-435.5"/>
<text text-anchor="start" x="675.5" y="-453.5" font-family="Helvetica,sans-Serif" font-size="10.00">include/hmatrix/preconditioner</text>
<text text-anchor="middle" x="772.5" y="-442.5" font-family="Helvetica,sans-Serif" font-size="10.00">/hblockmatrix_skew_symm_preconditioner.h</text>
</a>
</g>
</g>
<!-- Node2&#45;&gt;Node19 -->
<g id="edge26" class="edge">
<title>Node2&#45;&gt;Node19</title>
<path fill="none" stroke="midnightblue" d="M573.42,-500.05C613.28,-490.33 671.73,-476.07 714.99,-465.52"/>
<polygon fill="midnightblue" stroke="midnightblue" points="572.35,-496.71 563.46,-502.48 574,-503.51 572.35,-496.71"/>
</g>
<!-- Node20 -->
<g id="node20" class="node">
<title>Node20</title>
<g id="a_node20"><a xlink:href="hmatrix__symm__preconditioner_8h.html" target="_top" xlink:title="Symmetric &#45;matrix by inheriting from HMatrix, which is used as the preconditioner for SPD &#45;matrices.">
<polygon fill="none" stroke="black" points="895.5,-435.5 895.5,-465.5 1053.5,-465.5 1053.5,-435.5 895.5,-435.5"/>
<text text-anchor="start" x="903.5" y="-453.5" font-family="Helvetica,sans-Serif" font-size="10.00">include/hmatrix/preconditioner</text>
<text text-anchor="middle" x="974.5" y="-442.5" font-family="Helvetica,sans-Serif" font-size="10.00">/hmatrix_symm_preconditioner.h</text>
</a>
</g>
</g>
<!-- Node2&#45;&gt;Node20 -->
<g id="edge28" class="edge">
<title>Node2&#45;&gt;Node20</title>
<path fill="none" stroke="midnightblue" d="M601.59,-502.64C674.02,-494.17 788.07,-480.29 886.5,-466 889.41,-465.58 892.38,-465.14 895.37,-464.69"/>
<polygon fill="midnightblue" stroke="midnightblue" points="601.18,-499.17 591.65,-503.8 601.99,-506.12 601.18,-499.17"/>
</g>
<!-- Node21 -->
<g id="node21" class="node">
<title>Node21</title>
<g id="a_node21"><a xlink:href="sauter__quadrature_8hcu_source.html" target="_top" xlink:title=" ">
<polygon fill="none" stroke="black" points="288.5,-435.5 288.5,-465.5 404.5,-465.5 404.5,-435.5 288.5,-435.5"/>
<text text-anchor="start" x="296.5" y="-453.5" font-family="Helvetica,sans-Serif" font-size="10.00">include/quadrature</text>
<text text-anchor="middle" x="346.5" y="-442.5" font-family="Helvetica,sans-Serif" font-size="10.00">/sauter_quadrature.hcu</text>
</a>
</g>
</g>
<!-- Node2&#45;&gt;Node21 -->
<g id="edge33" class="edge">
<title>Node2&#45;&gt;Node21</title>
<path fill="none" stroke="midnightblue" d="M492.89,-499.36C463.23,-489.66 420.91,-475.83 389.39,-465.52"/>
<polygon fill="midnightblue" stroke="midnightblue" points="491.83,-502.69 502.42,-502.48 494.01,-496.04 491.83,-502.69"/>
</g>
<!-- Node4&#45;&gt;Node3 -->
<g id="edge4" class="edge">
<title>Node4&#45;&gt;Node3</title>
<path fill="none" stroke="midnightblue" d="M891.14,-364.55C841.59,-355.25 785.55,-340.74 770.5,-321 759.18,-306.16 761.97,-295.6 770.5,-279 809.61,-202.91 911.66,-171.1 974.77,-158.39"/>
<polygon fill="midnightblue" stroke="midnightblue" points="890.8,-368.04 901.27,-366.39 892.06,-361.16 890.8,-368.04"/>
</g>
<!-- Node5 -->
<g id="node5" class="node">
<title>Node5</title>
<g id="a_node5"><a xlink:href="ddm__efield__matrix_8h.html" target="_top" xlink:title="Introduction of ddm_efield_matrix.h.">
<polygon fill="none" stroke="black" points="888,-207 888,-237 995,-237 995,-207 888,-207"/>
<text text-anchor="start" x="896" y="-225" font-family="Helvetica,sans-Serif" font-size="10.00">include/electric_field</text>
<text text-anchor="middle" x="941.5" y="-214" font-family="Helvetica,sans-Serif" font-size="10.00">/ddm_efield_matrix.h</text>
</a>
</g>
</g>
<!-- Node4&#45;&gt;Node5 -->
<g id="edge5" class="edge">
<title>Node4&#45;&gt;Node5</title>
<path fill="none" stroke="midnightblue" d="M958.74,-348.29C954.73,-339.74 950.88,-330.2 948.5,-321 940.99,-291.93 940.5,-256.51 940.92,-237.21"/>
<polygon fill="midnightblue" stroke="midnightblue" points="955.7,-350.03 963.28,-357.44 961.97,-346.93 955.7,-350.03"/>
</g>
<!-- Node6 -->
<g id="node6" class="node">
<title>Node6</title>
<g id="a_node6"><a xlink:href="subdomain__hmatrix__for__charge__neutrality__eqn_8h.html" target="_top" xlink:title="Introduction of subdomain_hmatrix_for_charge_neutrality_eqn.h.">
<polygon fill="none" stroke="black" points="957,-279.5 957,-320.5 1082,-320.5 1082,-279.5 957,-279.5"/>
<text text-anchor="start" x="965" y="-308.5" font-family="Helvetica,sans-Serif" font-size="10.00">include/electric_field</text>
<text text-anchor="start" x="965" y="-297.5" font-family="Helvetica,sans-Serif" font-size="10.00">/subdomain_hmatrix_for</text>
<text text-anchor="middle" x="1019.5" y="-286.5" font-family="Helvetica,sans-Serif" font-size="10.00">_charge_neutrality_eqn.h</text>
</a>
</g>
</g>
<!-- Node4&#45;&gt;Node6 -->
<g id="edge7" class="edge">
<title>Node4&#45;&gt;Node6</title>
<path fill="none" stroke="midnightblue" d="M991.22,-348.76C996.79,-339.35 1002.86,-329.1 1007.95,-320.51"/>
<polygon fill="midnightblue" stroke="midnightblue" points="988.17,-347.04 986.09,-357.43 994.2,-350.61 988.17,-347.04"/>
</g>
<!-- Node7 -->
<g id="node7" class="node">
<title>Node7</title>
<g id="a_node7"><a xlink:href="subdomain__hmatrix__for__global__preconditioning_8h.html" target="_top" xlink:title="Introduction of subdomain_hmatrix_for_global_preconditioning.h.">
<polygon fill="none" stroke="black" points="1100.5,-279.5 1100.5,-320.5 1226.5,-320.5 1226.5,-279.5 1100.5,-279.5"/>
<text text-anchor="start" x="1108.5" y="-308.5" font-family="Helvetica,sans-Serif" font-size="10.00">include/electric_field</text>
<text text-anchor="start" x="1108.5" y="-297.5" font-family="Helvetica,sans-Serif" font-size="10.00">/subdomain_hmatrix_for</text>
<text text-anchor="middle" x="1163.5" y="-286.5" font-family="Helvetica,sans-Serif" font-size="10.00">_global_preconditioning.h</text>
</a>
</g>
</g>
<!-- Node4&#45;&gt;Node7 -->
<g id="edge9" class="edge">
<title>Node4&#45;&gt;Node7</title>
<path fill="none" stroke="midnightblue" d="M1032.67,-353.61C1059.05,-343 1089.89,-330.6 1114.99,-320.51"/>
<polygon fill="midnightblue" stroke="midnightblue" points="1031.14,-350.45 1023.17,-357.43 1033.76,-356.94 1031.14,-350.45"/>
</g>
<!-- Node9 -->
<g id="node9" class="node">
<title>Node9</title>
<g id="a_node9"><a xlink:href="subdomain__hmatrix__for__transmission__eqn_8h.html" target="_top" xlink:title="Introduction of subdomain_hmatrix_for_transmission_eqn.h.">
<polygon fill="none" stroke="black" points="779,-279.5 779,-320.5 900,-320.5 900,-279.5 779,-279.5"/>
<text text-anchor="start" x="787" y="-308.5" font-family="Helvetica,sans-Serif" font-size="10.00">include/electric_field</text>
<text text-anchor="start" x="787" y="-297.5" font-family="Helvetica,sans-Serif" font-size="10.00">/subdomain_hmatrix_for</text>
<text text-anchor="middle" x="839.5" y="-286.5" font-family="Helvetica,sans-Serif" font-size="10.00">_transmission_eqn.h</text>
</a>
</g>
</g>
<!-- Node4&#45;&gt;Node9 -->
<g id="edge12" class="edge">
<title>Node4&#45;&gt;Node9</title>
<path fill="none" stroke="midnightblue" d="M930.95,-352.49C912.57,-342.13 891.45,-330.25 874.15,-320.51"/>
<polygon fill="midnightblue" stroke="midnightblue" points="929.3,-355.57 939.73,-357.43 932.74,-349.47 929.3,-355.57"/>
</g>
<!-- Node5&#45;&gt;Node3 -->
<g id="edge6" class="edge">
<title>Node5&#45;&gt;Node3</title>
<path fill="none" stroke="midnightblue" d="M966.77,-200.29C980.82,-188.77 997.94,-174.73 1010.42,-164.5"/>
<polygon fill="midnightblue" stroke="midnightblue" points="964.42,-197.69 958.9,-206.73 968.86,-203.1 964.42,-197.69"/>
</g>
<!-- Node6&#45;&gt;Node5 -->
<g id="edge8" class="edge">
<title>Node6&#45;&gt;Node5</title>
<path fill="none" stroke="midnightblue" d="M992.12,-272.32C979.99,-260.51 966.22,-247.08 956.1,-237.23"/>
<polygon fill="midnightblue" stroke="midnightblue" points="989.81,-274.96 999.41,-279.43 994.69,-269.94 989.81,-274.96"/>
</g>
<!-- Node8 -->
<g id="node8" class="node">
<title>Node8</title>
<g id="a_node8"><a xlink:href="ddm__efield__global__preconditioner_8h.html" target="_top" xlink:title="Introduction of ddm_efield_global_preconditioner.h.">
<polygon fill="none" stroke="black" points="1027.5,-207 1027.5,-237 1199.5,-237 1199.5,-207 1027.5,-207"/>
<text text-anchor="start" x="1035.5" y="-225" font-family="Helvetica,sans-Serif" font-size="10.00">include/electric_field</text>
<text text-anchor="middle" x="1113.5" y="-214" font-family="Helvetica,sans-Serif" font-size="10.00">/ddm_efield_global_preconditioner.h</text>
</a>
</g>
</g>
<!-- Node7&#45;&gt;Node8 -->
<g id="edge10" class="edge">
<title>Node7&#45;&gt;Node8</title>
<path fill="none" stroke="midnightblue" d="M1145.07,-270.98C1137.51,-259.5 1129.1,-246.71 1122.86,-237.23"/>
<polygon fill="midnightblue" stroke="midnightblue" points="1142.2,-273 1150.62,-279.43 1148.05,-269.15 1142.2,-273"/>
</g>
<!-- Node8&#45;&gt;Node3 -->
<g id="edge11" class="edge">
<title>Node8&#45;&gt;Node3</title>
<path fill="none" stroke="midnightblue" d="M1088.23,-200.29C1074.18,-188.77 1057.06,-174.73 1044.58,-164.5"/>
<polygon fill="midnightblue" stroke="midnightblue" points="1086.14,-203.1 1096.1,-206.73 1090.58,-197.69 1086.14,-203.1"/>
</g>
<!-- Node9&#45;&gt;Node5 -->
<g id="edge13" class="edge">
<title>Node9&#45;&gt;Node5</title>
<path fill="none" stroke="midnightblue" d="M873.96,-273.32C890.14,-261.27 908.8,-247.36 922.41,-237.23"/>
<polygon fill="midnightblue" stroke="midnightblue" points="871.7,-270.65 865.77,-279.43 875.88,-276.26 871.7,-270.65"/>
</g>
<!-- Node10&#45;&gt;Node11 -->
<g id="edge15" class="edge">
<title>Node10&#45;&gt;Node11</title>
<path fill="none" stroke="midnightblue" d="M471.91,-353.11C475.79,-343.33 479.89,-331.78 482.5,-321 496.26,-264.23 500.67,-194.44 501.99,-164.85"/>
<polygon fill="midnightblue" stroke="midnightblue" points="468.59,-351.99 468.02,-362.57 475.06,-354.65 468.59,-351.99"/>
</g>
<!-- Node10&#45;&gt;Node14 -->
<g id="edge18" class="edge">
<title>Node10&#45;&gt;Node14</title>
<path fill="none" stroke="midnightblue" d="M411.67,-359.97C408.24,-358.92 404.83,-357.92 401.5,-357 339.15,-339.67 266.91,-323.95 216.17,-313.61"/>
<polygon fill="midnightblue" stroke="midnightblue" points="410.74,-363.34 421.33,-362.99 412.83,-356.66 410.74,-363.34"/>
</g>
<!-- Node17 -->
<g id="node17" class="node">
<title>Node17</title>
<g id="a_node17"><a xlink:href="aca__plus_8cu_source.html" target="_top" xlink:title=" ">
<polygon fill="none" stroke="black" points="367,-285 367,-315 474,-315 474,-285 367,-285"/>
<text text-anchor="start" x="375" y="-303" font-family="Helvetica,sans-Serif" font-size="10.00">src/hmatrix/aca_plus</text>
<text text-anchor="middle" x="420.5" y="-292" font-family="Helvetica,sans-Serif" font-size="10.00">/aca_plus.cu</text>
</a>
</g>
</g>
<!-- Node10&#45;&gt;Node17 -->
<g id="edge23" class="edge">
<title>Node10&#45;&gt;Node17</title>
<path fill="none" stroke="midnightblue" d="M448.93,-353.7C442.16,-341.14 434.01,-326.04 428.18,-315.23"/>
<polygon fill="midnightblue" stroke="midnightblue" points="445.96,-355.57 453.79,-362.7 452.12,-352.24 445.96,-355.57"/>
</g>
<!-- Node12 -->
<g id="node12" class="node">
<title>Node12</title>
<g id="a_node12"><a xlink:href="laplace__bem_8impl_8hcu_source.html" target="_top" xlink:title=" ">
<polygon fill="none" stroke="black" points="445,-67.5 445,-97.5 560,-97.5 560,-67.5 445,-67.5"/>
<text text-anchor="start" x="453" y="-85.5" font-family="Helvetica,sans-Serif" font-size="10.00">include/laplace/laplace</text>
<text text-anchor="middle" x="502.5" y="-74.5" font-family="Helvetica,sans-Serif" font-size="10.00">_bem.impl.hcu</text>
</a>
</g>
</g>
<!-- Node11&#45;&gt;Node12 -->
<g id="edge16" class="edge">
<title>Node11&#45;&gt;Node12</title>
<path fill="none" stroke="midnightblue" d="M502.5,-124.11C502.5,-115.15 502.5,-105.32 502.5,-97.58"/>
<polygon fill="midnightblue" stroke="midnightblue" points="499,-124.4 502.5,-134.4 506,-124.4 499,-124.4"/>
</g>
<!-- Node13 -->
<g id="node13" class="node">
<title>Node13</title>
<g id="a_node13"><a xlink:href="laplace__bem_8cu_source.html" target="_top" xlink:title=" ">
<polygon fill="none" stroke="black" points="453.5,-0.5 453.5,-30.5 551.5,-30.5 551.5,-0.5 453.5,-0.5"/>
<text text-anchor="start" x="461.5" y="-18.5" font-family="Helvetica,sans-Serif" font-size="10.00">src/laplace/laplace</text>
<text text-anchor="middle" x="502.5" y="-7.5" font-family="Helvetica,sans-Serif" font-size="10.00">_bem.cu</text>
</a>
</g>
</g>
<!-- Node12&#45;&gt;Node13 -->
<g id="edge17" class="edge">
<title>Node12&#45;&gt;Node13</title>
<path fill="none" stroke="midnightblue" d="M502.5,-57.11C502.5,-48.15 502.5,-38.32 502.5,-30.58"/>
<polygon fill="midnightblue" stroke="midnightblue" points="499,-57.4 502.5,-67.4 506,-57.4 499,-57.4"/>
</g>
<!-- Node15 -->
<g id="node15" class="node">
<title>Node15</title>
<g id="a_node15"><a xlink:href="preconditioner__for__laplace__dirichlet_8h.html" target="_top" xlink:title=" ">
<polygon fill="none" stroke="black" points="195,-201.5 195,-242.5 328,-242.5 328,-201.5 195,-201.5"/>
<text text-anchor="start" x="203" y="-230.5" font-family="Helvetica,sans-Serif" font-size="10.00">include/preconditioners</text>
<text text-anchor="start" x="203" y="-219.5" font-family="Helvetica,sans-Serif" font-size="10.00">/preconditioner_for_laplace</text>
<text text-anchor="middle" x="261.5" y="-208.5" font-family="Helvetica,sans-Serif" font-size="10.00">_dirichlet.h</text>
</a>
</g>
</g>
<!-- Node14&#45;&gt;Node15 -->
<g id="edge19" class="edge">
<title>Node14&#45;&gt;Node15</title>
<path fill="none" stroke="midnightblue" d="M180.47,-278.98C196.66,-267.8 216.75,-253.91 232.88,-242.77"/>
<polygon fill="midnightblue" stroke="midnightblue" points="178.17,-276.32 171.93,-284.88 182.15,-282.08 178.17,-276.32"/>
</g>
<!-- Node16 -->
<g id="node16" class="node">
<title>Node16</title>
<g id="a_node16"><a xlink:href="preconditioner__for__laplace__neumann_8h.html" target="_top" xlink:title=" ">
<polygon fill="none" stroke="black" points="44,-201.5 44,-242.5 177,-242.5 177,-201.5 44,-201.5"/>
<text text-anchor="start" x="52" y="-230.5" font-family="Helvetica,sans-Serif" font-size="10.00">include/preconditioners</text>
<text text-anchor="start" x="52" y="-219.5" font-family="Helvetica,sans-Serif" font-size="10.00">/preconditioner_for_laplace</text>
<text text-anchor="middle" x="110.5" y="-208.5" font-family="Helvetica,sans-Serif" font-size="10.00">_neumann.h</text>
</a>
</g>
</g>
<!-- Node14&#45;&gt;Node16 -->
<g id="edge21" class="edge">
<title>Node14&#45;&gt;Node16</title>
<path fill="none" stroke="midnightblue" d="M138.89,-275.63C133.2,-265.08 126.55,-252.75 121.12,-242.68"/>
<polygon fill="midnightblue" stroke="midnightblue" points="135.96,-277.57 143.79,-284.7 142.12,-274.24 135.96,-277.57"/>
</g>
<!-- Node15&#45;&gt;Node11 -->
<g id="edge20" class="edge">
<title>Node15&#45;&gt;Node11</title>
<path fill="none" stroke="midnightblue" d="M338.34,-198.52C376.38,-187.39 421.15,-174.3 454.31,-164.6"/>
<polygon fill="midnightblue" stroke="midnightblue" points="336.93,-195.29 328.31,-201.46 338.89,-202.01 336.93,-195.29"/>
</g>
<!-- Node16&#45;&gt;Node11 -->
<g id="edge22" class="edge">
<title>Node16&#45;&gt;Node11</title>
<path fill="none" stroke="midnightblue" d="M186.89,-200.8C282.42,-180.88 383.25,-166.15 444.91,-157.86"/>
<polygon fill="midnightblue" stroke="midnightblue" points="186.13,-197.38 177.07,-202.87 187.58,-204.23 186.13,-197.38"/>
</g>
<!-- Node18&#45;&gt;Node11 -->
<g id="edge25" class="edge">
<title>Node18&#45;&gt;Node11</title>
<path fill="none" stroke="midnightblue" d="M581.44,-425.47C585.98,-379.37 590.75,-276.4 554.5,-201 547.47,-186.37 534.32,-173.66 523,-164.65"/>
<polygon fill="midnightblue" stroke="midnightblue" points="577.96,-425.1 580.37,-435.42 584.92,-425.85 577.96,-425.1"/>
</g>
<!-- Node19&#45;&gt;Node11 -->
<g id="edge27" class="edge">
<title>Node19&#45;&gt;Node11</title>
<path fill="none" stroke="midnightblue" d="M735.9,-430.12C722.2,-421.74 707.16,-411.08 695.5,-399 624.05,-324.95 646.03,-275.92 575.5,-201 561.77,-186.41 543.16,-173.62 528.16,-164.56"/>
<polygon fill="midnightblue" stroke="midnightblue" points="734.27,-433.22 744.66,-435.29 737.82,-427.2 734.27,-433.22"/>
</g>
<!-- Node20&#45;&gt;Node4 -->
<g id="edge29" class="edge">
<title>Node20&#45;&gt;Node4</title>
<path fill="none" stroke="midnightblue" d="M974.5,-424.98C974.5,-416.35 974.5,-406.76 974.5,-398.59"/>
<polygon fill="midnightblue" stroke="midnightblue" points="971,-425.23 974.5,-435.23 978,-425.23 971,-425.23"/>
</g>
<!-- Node20&#45;&gt;Node11 -->
<g id="edge30" class="edge">
<title>Node20&#45;&gt;Node11</title>
<path fill="none" stroke="midnightblue" d="M939.57,-430.51C896.16,-406.5 820.26,-363.19 758.5,-321 686.85,-272.06 677.98,-247.15 604.5,-201 582.25,-187.02 555.58,-173.94 535.1,-164.59"/>
<polygon fill="midnightblue" stroke="midnightblue" points="938.14,-433.71 948.59,-435.47 941.52,-427.58 938.14,-433.71"/>
</g>
<!-- Node21&#45;&gt;Node10 -->
<g id="edge37" class="edge">
<title>Node21&#45;&gt;Node10</title>
<path fill="none" stroke="midnightblue" d="M378.18,-430.08C397.3,-418.36 421.24,-403.68 438.54,-393.07"/>
<polygon fill="midnightblue" stroke="midnightblue" points="376.19,-427.19 369.5,-435.4 379.85,-433.16 376.19,-427.19"/>
</g>
<!-- Node22 -->
<g id="node22" class="node">
<title>Node22</title>
<g id="a_node22"><a xlink:href="bem__general_8hcu_source.html" target="_top" xlink:title=" ">
<polygon fill="none" stroke="black" points="119.5,-368.5 119.5,-387.5 265.5,-387.5 265.5,-368.5 119.5,-368.5"/>
<text text-anchor="middle" x="192.5" y="-375.5" font-family="Helvetica,sans-Serif" font-size="10.00">include/bem/bem_general.hcu</text>
</a>
</g>
</g>
<!-- Node21&#45;&gt;Node22 -->
<g id="edge34" class="edge">
<title>Node21&#45;&gt;Node22</title>
<path fill="none" stroke="midnightblue" d="M306.52,-431.2C275.77,-417.12 234.67,-398.3 211.14,-387.53"/>
<polygon fill="midnightblue" stroke="midnightblue" points="305.16,-434.42 315.71,-435.4 308.07,-428.06 305.16,-434.42"/>
</g>
<!-- Node23 -->
<g id="node23" class="node">
<title>Node23</title>
<g id="a_node23"><a xlink:href="sauter__quadrature_8cu_source.html" target="_top" xlink:title=" ">
<polygon fill="none" stroke="black" points="284,-363 284,-393 393,-393 393,-363 284,-363"/>
<text text-anchor="start" x="292" y="-381" font-family="Helvetica,sans-Serif" font-size="10.00">src/quadrature/sauter</text>
<text text-anchor="middle" x="338.5" y="-370" font-family="Helvetica,sans-Serif" font-size="10.00">_quadrature.cu</text>
</a>
</g>
</g>
<!-- Node21&#45;&gt;Node23 -->
<g id="edge38" class="edge">
<title>Node21&#45;&gt;Node23</title>
<path fill="none" stroke="midnightblue" d="M343.75,-425.23C342.54,-414.57 341.16,-402.41 340.12,-393.25"/>
<polygon fill="midnightblue" stroke="midnightblue" points="340.28,-425.69 344.88,-435.23 347.23,-424.9 340.28,-425.69"/>
</g>
<!-- Node22&#45;&gt;Node11 -->
<g id="edge35" class="edge">
<title>Node22&#45;&gt;Node11</title>
<path fill="none" stroke="midnightblue" d="M212.37,-362.48C268.52,-321.46 427.88,-205.02 483.25,-164.56"/>
<polygon fill="midnightblue" stroke="midnightblue" points="210.28,-359.67 204.27,-368.4 214.41,-365.32 210.28,-359.67"/>
</g>
<!-- Node22&#45;&gt;Node14 -->
<g id="edge36" class="edge">
<title>Node22&#45;&gt;Node14</title>
<path fill="none" stroke="midnightblue" d="M183.04,-359.47C175.76,-345.97 165.82,-327.55 159.06,-315.02"/>
<polygon fill="midnightblue" stroke="midnightblue" points="179.97,-361.14 187.8,-368.28 186.13,-357.82 179.97,-361.14"/>
</g>
</g>
</svg>
