<?xml version="1.0" encoding="UTF-8" standalone="no"?>
<!DOCTYPE svg PUBLIC "-//W3C//DTD SVG 1.1//EN"
 "http://www.w3.org/Graphics/SVG/1.1/DTD/svg11.dtd">
<!-- Generated by graphviz version 2.43.0 (0)
 -->
<!-- Title: include/cluster_tree/block_cluster.h Pages: 1 -->
<svg width="1293pt" height="664pt"
 viewBox="0.00 0.00 1292.57 664.00" xmlns="http://www.w3.org/2000/svg" xmlns:xlink="http://www.w3.org/1999/xlink">
<g id="graph0" class="graph" transform="scale(1 1) rotate(0) translate(4 660)">
<title>include/cluster_tree/block_cluster.h</title>
<!-- Node1 -->
<g id="node1" class="node">
<title>Node1</title>
<g id="a_node1"><a xlink:title="Implementation of the class BlockCluster.">
<polygon fill="#bfbfbf" stroke="black" points="993.07,-625.5 993.07,-655.5 1094.07,-655.5 1094.07,-625.5 993.07,-625.5"/>
<text text-anchor="start" x="1001.07" y="-643.5" font-family="Helvetica,sans-Serif" font-size="10.00">include/cluster_tree</text>
<text text-anchor="middle" x="1043.57" y="-632.5" font-family="Helvetica,sans-Serif" font-size="10.00">/block_cluster.h</text>
</a>
</g>
</g>
<!-- Node2 -->
<g id="node2" class="node">
<title>Node2</title>
<g id="a_node2"><a xlink:href="block__cluster__tree_8h.html" target="_top" xlink:title="Implementation of the class BlockClusterTree.">
<polygon fill="none" stroke="black" points="1112.07,-558.5 1112.07,-588.5 1219.07,-588.5 1219.07,-558.5 1112.07,-558.5"/>
<text text-anchor="start" x="1120.07" y="-576.5" font-family="Helvetica,sans-Serif" font-size="10.00">include/cluster_tree</text>
<text text-anchor="middle" x="1165.57" y="-565.5" font-family="Helvetica,sans-Serif" font-size="10.00">/block_cluster_tree.h</text>
</a>
</g>
</g>
<!-- Node1&#45;&gt;Node2 -->
<g id="edge1" class="edge">
<title>Node1&#45;&gt;Node2</title>
<path fill="none" stroke="midnightblue" d="M1079.09,-620.57C1098.28,-610.35 1121.57,-597.94 1139.15,-588.58"/>
<polygon fill="midnightblue" stroke="midnightblue" points="1077.22,-617.6 1070.04,-625.4 1080.51,-623.78 1077.22,-617.6"/>
</g>
<!-- Node3 -->
<g id="node3" class="node">
<title>Node3</title>
<g id="a_node3"><a xlink:href="hmatrix_8h.html" target="_top" xlink:title="Definition of hierarchical matrix.">
<polygon fill="none" stroke="black" points="777.57,-502.5 777.57,-521.5 903.57,-521.5 903.57,-502.5 777.57,-502.5"/>
<text text-anchor="middle" x="840.57" y="-509.5" font-family="Helvetica,sans-Serif" font-size="10.00">include/hmatrix/hmatrix.h</text>
</a>
</g>
</g>
<!-- Node1&#45;&gt;Node3 -->
<g id="edge42" class="edge">
<title>Node1&#45;&gt;Node3</title>
<path fill="none" stroke="midnightblue" d="M1012.36,-620.05C967.63,-592.18 887.11,-542 854.67,-521.79"/>
<polygon fill="midnightblue" stroke="midnightblue" points="1010.73,-623.16 1021.07,-625.48 1014.43,-617.22 1010.73,-623.16"/>
</g>
<!-- Node2&#45;&gt;Node3 -->
<g id="edge2" class="edge">
<title>Node2&#45;&gt;Node3</title>
<path fill="none" stroke="midnightblue" d="M1102.06,-560.87C1038.94,-549.32 943.64,-531.87 887.2,-521.54"/>
<polygon fill="midnightblue" stroke="midnightblue" points="1101.44,-564.32 1111.9,-562.67 1102.7,-557.43 1101.44,-564.32"/>
</g>
<!-- Node12 -->
<g id="node12" class="node">
<title>Node12</title>
<g id="a_node12"><a xlink:href="laplace__bem_8priv_8hcu_source.html" target="_top" xlink:title=" ">
<polygon fill="none" stroke="black" points="867.07,-134.5 867.07,-164.5 982.07,-164.5 982.07,-134.5 867.07,-134.5"/>
<text text-anchor="start" x="875.07" y="-152.5" font-family="Helvetica,sans-Serif" font-size="10.00">include/laplace/laplace</text>
<text text-anchor="middle" x="924.57" y="-141.5" font-family="Helvetica,sans-Serif" font-size="10.00">_bem.priv.hcu</text>
</a>
</g>
</g>
<!-- Node2&#45;&gt;Node12 -->
<g id="edge40" class="edge">
<title>Node2&#45;&gt;Node12</title>
<path fill="none" stroke="midnightblue" d="M1204.61,-553.3C1239.3,-533.18 1284.57,-498.02 1284.57,-451.5 1284.57,-451.5 1284.57,-451.5 1284.57,-299 1284.57,-241.92 1250.98,-229.57 1201.57,-201 1133.33,-161.55 1041.16,-151.76 982.27,-149.92"/>
<polygon fill="midnightblue" stroke="midnightblue" points="1202.62,-550.4 1195.6,-558.34 1206.04,-556.52 1202.62,-550.4"/>
</g>
<!-- Node15 -->
<g id="node15" class="node">
<title>Node15</title>
<g id="a_node15"><a xlink:href="operator__preconditioner_8h.html" target="_top" xlink:title=" ">
<polygon fill="none" stroke="black" points="936.07,-285 936.07,-315 1065.07,-315 1065.07,-285 936.07,-285"/>
<text text-anchor="start" x="944.07" y="-303" font-family="Helvetica,sans-Serif" font-size="10.00">include/preconditioners</text>
<text text-anchor="middle" x="1000.57" y="-292" font-family="Helvetica,sans-Serif" font-size="10.00">/operator_preconditioner.h</text>
</a>
</g>
</g>
<!-- Node2&#45;&gt;Node15 -->
<g id="edge41" class="edge">
<title>Node2&#45;&gt;Node15</title>
<path fill="none" stroke="midnightblue" d="M1177.56,-549.41C1197.85,-506.77 1232.72,-414.79 1189.57,-357 1174.47,-336.78 1114.03,-321.27 1065.5,-311.75"/>
<polygon fill="midnightblue" stroke="midnightblue" points="1174.4,-547.91 1173.13,-558.43 1180.68,-551 1174.4,-547.91"/>
</g>
<!-- Node4 -->
<g id="node4" class="node">
<title>Node4</title>
<g id="a_node4"><a xlink:href="ddm__efield_8h.html" target="_top" xlink:title="Introduction of ddm_efield.h.">
<polygon fill="none" stroke="black" points="121.07,-134.5 121.07,-164.5 226.07,-164.5 226.07,-134.5 121.07,-134.5"/>
<text text-anchor="start" x="129.07" y="-152.5" font-family="Helvetica,sans-Serif" font-size="10.00">include/electric_field</text>
<text text-anchor="middle" x="173.57" y="-141.5" font-family="Helvetica,sans-Serif" font-size="10.00">/ddm_efield.h</text>
</a>
</g>
</g>
<!-- Node3&#45;&gt;Node4 -->
<g id="edge3" class="edge">
<title>Node3&#45;&gt;Node4</title>
<path fill="none" stroke="midnightblue" d="M767.23,-511.64C654.33,-511.25 431.72,-504.96 247.57,-466 134.52,-442.08 2.57,-494.55 2.57,-379 2.57,-379 2.57,-379 2.57,-299 2.57,-254.63 -7.71,-234.33 21.57,-201 46.44,-172.69 87.56,-160.2 120.77,-154.72"/>
<polygon fill="midnightblue" stroke="midnightblue" points="767.47,-515.15 777.47,-511.67 767.48,-508.15 767.47,-515.15"/>
</g>
<!-- Node5 -->
<g id="node5" class="node">
<title>Node5</title>
<g id="a_node5"><a xlink:href="subdomain__steklov__poincare__hmatrix_8h.html" target="_top" xlink:title="Introduction of subdomain_steklov_poincare_hmatrix.h.">
<polygon fill="none" stroke="black" points="248.57,-357.5 248.57,-398.5 394.57,-398.5 394.57,-357.5 248.57,-357.5"/>
<text text-anchor="start" x="256.57" y="-386.5" font-family="Helvetica,sans-Serif" font-size="10.00">include/electric_field</text>
<text text-anchor="start" x="256.57" y="-375.5" font-family="Helvetica,sans-Serif" font-size="10.00">/subdomain_steklov_poincare</text>
<text text-anchor="middle" x="321.57" y="-364.5" font-family="Helvetica,sans-Serif" font-size="10.00">_hmatrix.h</text>
</a>
</g>
</g>
<!-- Node3&#45;&gt;Node5 -->
<g id="edge4" class="edge">
<title>Node3&#45;&gt;Node5</title>
<path fill="none" stroke="midnightblue" d="M767.13,-510.78C618.13,-509.55 291.52,-502.67 257.57,-466 237.7,-444.54 265.81,-416.92 290.81,-398.63"/>
<polygon fill="midnightblue" stroke="midnightblue" points="767.52,-514.28 777.54,-510.85 767.57,-507.28 767.52,-514.28"/>
</g>
<!-- Node11 -->
<g id="node11" class="node">
<title>Node11</title>
<g id="a_node11"><a xlink:href="aca__plus_8hcu.html" target="_top" xlink:title="Implement the ACA+ method proposed in Grasedyck, L. 2005. “Adaptive Recompression of &#45;Matrices for BE...">
<polygon fill="none" stroke="black" points="749.07,-363 749.07,-393 850.07,-393 850.07,-363 749.07,-363"/>
<text text-anchor="start" x="757.07" y="-381" font-family="Helvetica,sans-Serif" font-size="10.00">include/hmatrix/aca</text>
<text text-anchor="middle" x="799.57" y="-370" font-family="Helvetica,sans-Serif" font-size="10.00">_plus/aca_plus.hcu</text>
</a>
</g>
</g>
<!-- Node3&#45;&gt;Node11 -->
<g id="edge15" class="edge">
<title>Node3&#45;&gt;Node11</title>
<path fill="none" stroke="midnightblue" d="M836.67,-492.59C833.22,-477.08 827.77,-454.39 821.57,-435 816.92,-420.47 810.42,-404.3 805.69,-393.09"/>
<polygon fill="midnightblue" stroke="midnightblue" points="833.27,-493.44 838.81,-502.46 840.11,-491.95 833.27,-493.44"/>
</g>
<!-- Node3&#45;&gt;Node12 -->
<g id="edge32" class="edge">
<title>Node3&#45;&gt;Node12</title>
<path fill="none" stroke="midnightblue" d="M908.9,-500.81C1015.32,-482.99 1208.57,-441.96 1208.57,-379 1208.57,-379 1208.57,-379 1208.57,-299 1208.57,-252.6 1207.76,-231.24 1172.57,-201 1144.53,-176.91 1046.23,-162.67 982.13,-155.74"/>
<polygon fill="midnightblue" stroke="midnightblue" points="908.18,-497.38 898.88,-502.46 909.32,-504.29 908.18,-497.38"/>
</g>
<!-- Node3&#45;&gt;Node15 -->
<g id="edge33" class="edge">
<title>Node3&#45;&gt;Node15</title>
<path fill="none" stroke="midnightblue" d="M843.15,-492.27C848.34,-460.92 862.67,-397.31 897.57,-357 914.09,-337.92 938.77,-324.19 959.83,-315.09"/>
<polygon fill="midnightblue" stroke="midnightblue" points="839.68,-491.84 841.63,-502.25 846.6,-492.89 839.68,-491.84"/>
</g>
<!-- Node19 -->
<g id="node19" class="node">
<title>Node19</title>
<g id="a_node19"><a xlink:href="hblockmatrix__skew__symm_8h.html" target="_top" xlink:title="Introduction of hblockmatrix_skew_symm.h.">
<polygon fill="none" stroke="black" points="443.07,-435.5 443.07,-465.5 584.07,-465.5 584.07,-435.5 443.07,-435.5"/>
<text text-anchor="start" x="451.07" y="-453.5" font-family="Helvetica,sans-Serif" font-size="10.00">include/hmatrix/hblockmatrix</text>
<text text-anchor="middle" x="513.57" y="-442.5" font-family="Helvetica,sans-Serif" font-size="10.00">_skew_symm.h</text>
</a>
</g>
</g>
<!-- Node3&#45;&gt;Node19 -->
<g id="edge25" class="edge">
<title>Node3&#45;&gt;Node19</title>
<path fill="none" stroke="midnightblue" d="M783.72,-500.66C728.27,-490.57 643.81,-475.2 584.11,-464.34"/>
<polygon fill="midnightblue" stroke="midnightblue" points="783.25,-504.13 793.72,-502.48 784.51,-497.24 783.25,-504.13"/>
</g>
<!-- Node20 -->
<g id="node20" class="node">
<title>Node20</title>
<g id="a_node20"><a xlink:href="hblockmatrix__skew__symm__preconditioner_8h.html" target="_top" xlink:title="Introduction of hblockmatrix_skew_symm_preconditioner.h.">
<polygon fill="none" stroke="black" points="602.57,-435.5 602.57,-465.5 812.57,-465.5 812.57,-435.5 602.57,-435.5"/>
<text text-anchor="start" x="610.57" y="-453.5" font-family="Helvetica,sans-Serif" font-size="10.00">include/hmatrix/preconditioner</text>
<text text-anchor="middle" x="707.57" y="-442.5" font-family="Helvetica,sans-Serif" font-size="10.00">/hblockmatrix_skew_symm_preconditioner.h</text>
</a>
</g>
</g>
<!-- Node3&#45;&gt;Node20 -->
<g id="edge27" class="edge">
<title>Node3&#45;&gt;Node20</title>
<path fill="none" stroke="midnightblue" d="M812.25,-498.33C790.73,-488.7 761.15,-475.47 738.92,-465.52"/>
<polygon fill="midnightblue" stroke="midnightblue" points="810.96,-501.59 821.51,-502.48 813.82,-495.2 810.96,-501.59"/>
</g>
<!-- Node21 -->
<g id="node21" class="node">
<title>Node21</title>
<g id="a_node21"><a xlink:href="hmatrix__symm__preconditioner_8h.html" target="_top" xlink:title="Symmetric &#45;matrix by inheriting from HMatrix, which is used as the preconditioner for SPD &#45;matrices.">
<polygon fill="none" stroke="black" points="266.57,-435.5 266.57,-465.5 424.57,-465.5 424.57,-435.5 266.57,-435.5"/>
<text text-anchor="start" x="274.57" y="-453.5" font-family="Helvetica,sans-Serif" font-size="10.00">include/hmatrix/preconditioner</text>
<text text-anchor="middle" x="345.57" y="-442.5" font-family="Helvetica,sans-Serif" font-size="10.00">/hmatrix_symm_preconditioner.h</text>
</a>
</g>
</g>
<!-- Node3&#45;&gt;Node21 -->
<g id="edge29" class="edge">
<title>Node3&#45;&gt;Node21</title>
<path fill="none" stroke="midnightblue" d="M767.17,-504.07C685.56,-496.09 549.9,-482 433.57,-466 430.66,-465.6 427.69,-465.18 424.69,-464.74"/>
<polygon fill="midnightblue" stroke="midnightblue" points="767.05,-507.58 777.34,-505.06 767.73,-500.61 767.05,-507.58"/>
</g>
<!-- Node22 -->
<g id="node22" class="node">
<title>Node22</title>
<g id="a_node22"><a xlink:href="sauter__quadrature_8hcu_source.html" target="_top" xlink:title=" ">
<polygon fill="none" stroke="black" points="906.57,-435.5 906.57,-465.5 1022.57,-465.5 1022.57,-435.5 906.57,-435.5"/>
<text text-anchor="start" x="914.57" y="-453.5" font-family="Helvetica,sans-Serif" font-size="10.00">include/quadrature</text>
<text text-anchor="middle" x="964.57" y="-442.5" font-family="Helvetica,sans-Serif" font-size="10.00">/sauter_quadrature.hcu</text>
</a>
</g>
</g>
<!-- Node3&#45;&gt;Node22 -->
<g id="edge34" class="edge">
<title>Node3&#45;&gt;Node22</title>
<path fill="none" stroke="midnightblue" d="M867.52,-498.07C887.53,-488.47 914.81,-475.38 935.35,-465.52"/>
<polygon fill="midnightblue" stroke="midnightblue" points="865.84,-494.99 858.34,-502.48 868.87,-501.3 865.84,-494.99"/>
</g>
<!-- Node5&#45;&gt;Node4 -->
<g id="edge5" class="edge">
<title>Node5&#45;&gt;Node4</title>
<path fill="none" stroke="midnightblue" d="M279.7,-351.21C268.64,-342.73 257.57,-332.5 249.57,-321 217.6,-275.09 237.2,-250.73 211.57,-201 204.73,-187.74 194.44,-174.31 186.28,-164.64"/>
<polygon fill="midnightblue" stroke="midnightblue" points="277.97,-354.27 288.11,-357.34 282.09,-348.62 277.97,-354.27"/>
</g>
<!-- Node6 -->
<g id="node6" class="node">
<title>Node6</title>
<g id="a_node6"><a xlink:href="ddm__efield__matrix_8h.html" target="_top" xlink:title="Introduction of ddm_efield_matrix.h.">
<polygon fill="none" stroke="black" points="338.07,-207 338.07,-237 445.07,-237 445.07,-207 338.07,-207"/>
<text text-anchor="start" x="346.07" y="-225" font-family="Helvetica,sans-Serif" font-size="10.00">include/electric_field</text>
<text text-anchor="middle" x="391.57" y="-214" font-family="Helvetica,sans-Serif" font-size="10.00">/ddm_efield_matrix.h</text>
</a>
</g>
</g>
<!-- Node5&#45;&gt;Node6 -->
<g id="edge6" class="edge">
<title>Node5&#45;&gt;Node6</title>
<path fill="none" stroke="midnightblue" d="M404.6,-365.36C456.24,-356.23 515.75,-341.59 531.57,-321 542.94,-306.2 542.04,-294.46 531.57,-279 512.34,-250.6 476.14,-236.6 445.36,-229.7"/>
<polygon fill="midnightblue" stroke="midnightblue" points="403.99,-361.91 394.72,-367.06 405.17,-368.81 403.99,-361.91"/>
</g>
<!-- Node7 -->
<g id="node7" class="node">
<title>Node7</title>
<g id="a_node7"><a xlink:href="subdomain__hmatrix__for__charge__neutrality__eqn_8h.html" target="_top" xlink:title="Introduction of subdomain_hmatrix_for_charge_neutrality_eqn.h.">
<polygon fill="none" stroke="black" points="259.07,-279.5 259.07,-320.5 384.07,-320.5 384.07,-279.5 259.07,-279.5"/>
<text text-anchor="start" x="267.07" y="-308.5" font-family="Helvetica,sans-Serif" font-size="10.00">include/electric_field</text>
<text text-anchor="start" x="267.07" y="-297.5" font-family="Helvetica,sans-Serif" font-size="10.00">/subdomain_hmatrix_for</text>
<text text-anchor="middle" x="321.57" y="-286.5" font-family="Helvetica,sans-Serif" font-size="10.00">_charge_neutrality_eqn.h</text>
</a>
</g>
</g>
<!-- Node5&#45;&gt;Node7 -->
<g id="edge8" class="edge">
<title>Node5&#45;&gt;Node7</title>
<path fill="none" stroke="midnightblue" d="M321.57,-347.3C321.57,-338.3 321.57,-328.65 321.57,-320.51"/>
<polygon fill="midnightblue" stroke="midnightblue" points="318.07,-347.43 321.57,-357.43 325.07,-347.43 318.07,-347.43"/>
</g>
<!-- Node8 -->
<g id="node8" class="node">
<title>Node8</title>
<g id="a_node8"><a xlink:href="subdomain__hmatrix__for__global__preconditioning_8h.html" target="_top" xlink:title="Introduction of subdomain_hmatrix_for_global_preconditioning.h.">
<polygon fill="none" stroke="black" points="64.57,-279.5 64.57,-320.5 190.57,-320.5 190.57,-279.5 64.57,-279.5"/>
<text text-anchor="start" x="72.57" y="-308.5" font-family="Helvetica,sans-Serif" font-size="10.00">include/electric_field</text>
<text text-anchor="start" x="72.57" y="-297.5" font-family="Helvetica,sans-Serif" font-size="10.00">/subdomain_hmatrix_for</text>
<text text-anchor="middle" x="127.57" y="-286.5" font-family="Helvetica,sans-Serif" font-size="10.00">_global_preconditioning.h</text>
</a>
</g>
</g>
<!-- Node5&#45;&gt;Node8 -->
<g id="edge10" class="edge">
<title>Node5&#45;&gt;Node8</title>
<path fill="none" stroke="midnightblue" d="M262.22,-353.75C235.06,-343.11 203.24,-330.65 177.36,-320.51"/>
<polygon fill="midnightblue" stroke="midnightblue" points="261.02,-357.04 271.61,-357.43 263.58,-350.52 261.02,-357.04"/>
</g>
<!-- Node10 -->
<g id="node10" class="node">
<title>Node10</title>
<g id="a_node10"><a xlink:href="subdomain__hmatrix__for__transmission__eqn_8h.html" target="_top" xlink:title="Introduction of subdomain_hmatrix_for_transmission_eqn.h.">
<polygon fill="none" stroke="black" points="402.07,-279.5 402.07,-320.5 523.07,-320.5 523.07,-279.5 402.07,-279.5"/>
<text text-anchor="start" x="410.07" y="-308.5" font-family="Helvetica,sans-Serif" font-size="10.00">include/electric_field</text>
<text text-anchor="start" x="410.07" y="-297.5" font-family="Helvetica,sans-Serif" font-size="10.00">/subdomain_hmatrix_for</text>
<text text-anchor="middle" x="462.57" y="-286.5" font-family="Helvetica,sans-Serif" font-size="10.00">_transmission_eqn.h</text>
</a>
</g>
</g>
<!-- Node5&#45;&gt;Node10 -->
<g id="edge13" class="edge">
<title>Node5&#45;&gt;Node10</title>
<path fill="none" stroke="midnightblue" d="M366.79,-352.63C386.06,-342.24 408.23,-330.29 426.38,-320.51"/>
<polygon fill="midnightblue" stroke="midnightblue" points="365.02,-349.6 357.88,-357.43 368.34,-355.76 365.02,-349.6"/>
</g>
<!-- Node6&#45;&gt;Node4 -->
<g id="edge7" class="edge">
<title>Node6&#45;&gt;Node4</title>
<path fill="none" stroke="midnightblue" d="M338.57,-203.86C301.34,-191.82 252.15,-175.91 217.19,-164.61"/>
<polygon fill="midnightblue" stroke="midnightblue" points="337.65,-207.24 348.24,-206.99 339.8,-200.58 337.65,-207.24"/>
</g>
<!-- Node7&#45;&gt;Node6 -->
<g id="edge9" class="edge">
<title>Node7&#45;&gt;Node6</title>
<path fill="none" stroke="midnightblue" d="M346.45,-271.99C357.26,-260.25 369.47,-246.99 378.47,-237.23"/>
<polygon fill="midnightblue" stroke="midnightblue" points="343.8,-269.7 339.6,-279.43 348.95,-274.44 343.8,-269.7"/>
</g>
<!-- Node9 -->
<g id="node9" class="node">
<title>Node9</title>
<g id="a_node9"><a xlink:href="ddm__efield__global__preconditioner_8h.html" target="_top" xlink:title="Introduction of ddm_efield_global_preconditioner.h.">
<polygon fill="none" stroke="black" points="30.57,-207 30.57,-237 202.57,-237 202.57,-207 30.57,-207"/>
<text text-anchor="start" x="38.57" y="-225" font-family="Helvetica,sans-Serif" font-size="10.00">include/electric_field</text>
<text text-anchor="middle" x="116.57" y="-214" font-family="Helvetica,sans-Serif" font-size="10.00">/ddm_efield_global_preconditioner.h</text>
</a>
</g>
</g>
<!-- Node8&#45;&gt;Node9 -->
<g id="edge11" class="edge">
<title>Node8&#45;&gt;Node9</title>
<path fill="none" stroke="midnightblue" d="M123.27,-269.28C121.67,-258.25 119.93,-246.25 118.63,-237.23"/>
<polygon fill="midnightblue" stroke="midnightblue" points="119.84,-270.03 124.74,-279.43 126.77,-269.03 119.84,-270.03"/>
</g>
<!-- Node9&#45;&gt;Node4 -->
<g id="edge12" class="edge">
<title>Node9&#45;&gt;Node4</title>
<path fill="none" stroke="midnightblue" d="M134.59,-198.71C143.58,-187.6 154.18,-174.49 162.05,-164.75"/>
<polygon fill="midnightblue" stroke="midnightblue" points="131.67,-196.76 128.1,-206.73 137.11,-201.16 131.67,-196.76"/>
</g>
<!-- Node10&#45;&gt;Node6 -->
<g id="edge14" class="edge">
<title>Node10&#45;&gt;Node6</title>
<path fill="none" stroke="midnightblue" d="M437.34,-271.99C426.37,-260.25 413.98,-246.99 404.86,-237.23"/>
<polygon fill="midnightblue" stroke="midnightblue" points="434.9,-274.51 444.29,-279.43 440.02,-269.73 434.9,-274.51"/>
</g>
<!-- Node11&#45;&gt;Node12 -->
<g id="edge16" class="edge">
<title>Node11&#45;&gt;Node12</title>
<path fill="none" stroke="midnightblue" d="M804.14,-352.78C812.46,-310.49 830.87,-225.38 848.57,-201 859.92,-185.36 877.72,-173.16 893.23,-164.67"/>
<polygon fill="midnightblue" stroke="midnightblue" points="800.66,-352.29 802.2,-362.78 807.54,-353.62 800.66,-352.29"/>
</g>
<!-- Node11&#45;&gt;Node15 -->
<g id="edge19" class="edge">
<title>Node11&#45;&gt;Node15</title>
<path fill="none" stroke="midnightblue" d="M846.6,-359.22C882.22,-345.75 930.5,-327.5 963.43,-315.04"/>
<polygon fill="midnightblue" stroke="midnightblue" points="845.02,-356.07 836.91,-362.88 847.5,-362.62 845.02,-356.07"/>
</g>
<!-- Node18 -->
<g id="node18" class="node">
<title>Node18</title>
<g id="a_node18"><a xlink:href="aca__plus_8cu_source.html" target="_top" xlink:title=" ">
<polygon fill="none" stroke="black" points="694.07,-285 694.07,-315 801.07,-315 801.07,-285 694.07,-285"/>
<text text-anchor="start" x="702.07" y="-303" font-family="Helvetica,sans-Serif" font-size="10.00">src/hmatrix/aca_plus</text>
<text text-anchor="middle" x="747.57" y="-292" font-family="Helvetica,sans-Serif" font-size="10.00">/aca_plus.cu</text>
</a>
</g>
</g>
<!-- Node11&#45;&gt;Node18 -->
<g id="edge24" class="edge">
<title>Node11&#45;&gt;Node18</title>
<path fill="none" stroke="midnightblue" d="M784.13,-354.44C775.44,-341.73 764.85,-326.25 757.31,-315.23"/>
<polygon fill="midnightblue" stroke="midnightblue" points="781.25,-356.43 789.79,-362.7 787.03,-352.48 781.25,-356.43"/>
</g>
<!-- Node13 -->
<g id="node13" class="node">
<title>Node13</title>
<g id="a_node13"><a xlink:href="laplace__bem_8impl_8hcu_source.html" target="_top" xlink:title=" ">
<polygon fill="none" stroke="black" points="867.07,-67.5 867.07,-97.5 982.07,-97.5 982.07,-67.5 867.07,-67.5"/>
<text text-anchor="start" x="875.07" y="-85.5" font-family="Helvetica,sans-Serif" font-size="10.00">include/laplace/laplace</text>
<text text-anchor="middle" x="924.57" y="-74.5" font-family="Helvetica,sans-Serif" font-size="10.00">_bem.impl.hcu</text>
</a>
</g>
</g>
<!-- Node12&#45;&gt;Node13 -->
<g id="edge17" class="edge">
<title>Node12&#45;&gt;Node13</title>
<path fill="none" stroke="midnightblue" d="M924.57,-124.11C924.57,-115.15 924.57,-105.32 924.57,-97.58"/>
<polygon fill="midnightblue" stroke="midnightblue" points="921.07,-124.4 924.57,-134.4 928.07,-124.4 921.07,-124.4"/>
</g>
<!-- Node14 -->
<g id="node14" class="node">
<title>Node14</title>
<g id="a_node14"><a xlink:href="laplace__bem_8cu_source.html" target="_top" xlink:title=" ">
<polygon fill="none" stroke="black" points="875.57,-0.5 875.57,-30.5 973.57,-30.5 973.57,-0.5 875.57,-0.5"/>
<text text-anchor="start" x="883.57" y="-18.5" font-family="Helvetica,sans-Serif" font-size="10.00">src/laplace/laplace</text>
<text text-anchor="middle" x="924.57" y="-7.5" font-family="Helvetica,sans-Serif" font-size="10.00">_bem.cu</text>
</a>
</g>
</g>
<!-- Node13&#45;&gt;Node14 -->
<g id="edge18" class="edge">
<title>Node13&#45;&gt;Node14</title>
<path fill="none" stroke="midnightblue" d="M924.57,-57.11C924.57,-48.15 924.57,-38.32 924.57,-30.58"/>
<polygon fill="midnightblue" stroke="midnightblue" points="921.07,-57.4 924.57,-67.4 928.07,-57.4 921.07,-57.4"/>
</g>
<!-- Node16 -->
<g id="node16" class="node">
<title>Node16</title>
<g id="a_node16"><a xlink:href="preconditioner__for__laplace__dirichlet_8h.html" target="_top" xlink:title=" ">
<polygon fill="none" stroke="black" points="858.07,-201.5 858.07,-242.5 991.07,-242.5 991.07,-201.5 858.07,-201.5"/>
<text text-anchor="start" x="866.07" y="-230.5" font-family="Helvetica,sans-Serif" font-size="10.00">include/preconditioners</text>
<text text-anchor="start" x="866.07" y="-219.5" font-family="Helvetica,sans-Serif" font-size="10.00">/preconditioner_for_laplace</text>
<text text-anchor="middle" x="924.57" y="-208.5" font-family="Helvetica,sans-Serif" font-size="10.00">_dirichlet.h</text>
</a>
</g>
</g>
<!-- Node15&#45;&gt;Node16 -->
<g id="edge20" class="edge">
<title>Node15&#45;&gt;Node16</title>
<path fill="none" stroke="midnightblue" d="M979.12,-277.55C968.17,-266.6 954.94,-253.37 944.25,-242.68"/>
<polygon fill="midnightblue" stroke="midnightblue" points="976.73,-280.11 986.28,-284.7 981.68,-275.16 976.73,-280.11"/>
</g>
<!-- Node17 -->
<g id="node17" class="node">
<title>Node17</title>
<g id="a_node17"><a xlink:href="preconditioner__for__laplace__neumann_8h.html" target="_top" xlink:title=" ">
<polygon fill="none" stroke="black" points="1009.07,-201.5 1009.07,-242.5 1142.07,-242.5 1142.07,-201.5 1009.07,-201.5"/>
<text text-anchor="start" x="1017.07" y="-230.5" font-family="Helvetica,sans-Serif" font-size="10.00">include/preconditioners</text>
<text text-anchor="start" x="1017.07" y="-219.5" font-family="Helvetica,sans-Serif" font-size="10.00">/preconditioner_for_laplace</text>
<text text-anchor="middle" x="1075.57" y="-208.5" font-family="Helvetica,sans-Serif" font-size="10.00">_neumann.h</text>
</a>
</g>
</g>
<!-- Node15&#45;&gt;Node17 -->
<g id="edge22" class="edge">
<title>Node15&#45;&gt;Node17</title>
<path fill="none" stroke="midnightblue" d="M1021.74,-277.55C1032.55,-266.6 1045.6,-253.37 1056.15,-242.68"/>
<polygon fill="midnightblue" stroke="midnightblue" points="1019.21,-275.13 1014.68,-284.7 1024.19,-280.05 1019.21,-275.13"/>
</g>
<!-- Node16&#45;&gt;Node12 -->
<g id="edge21" class="edge">
<title>Node16&#45;&gt;Node12</title>
<path fill="none" stroke="midnightblue" d="M924.57,-191.08C924.57,-182.01 924.57,-172.45 924.57,-164.89"/>
<polygon fill="midnightblue" stroke="midnightblue" points="921.07,-191.36 924.57,-201.36 928.07,-191.36 921.07,-191.36"/>
</g>
<!-- Node17&#45;&gt;Node12 -->
<g id="edge23" class="edge">
<title>Node17&#45;&gt;Node12</title>
<path fill="none" stroke="midnightblue" d="M1024.2,-197.02C1001.15,-186.25 974.75,-173.93 954.92,-164.67"/>
<polygon fill="midnightblue" stroke="midnightblue" points="1022.97,-200.3 1033.51,-201.36 1025.93,-193.96 1022.97,-200.3"/>
</g>
<!-- Node19&#45;&gt;Node12 -->
<g id="edge26" class="edge">
<title>Node19&#45;&gt;Node12</title>
<path fill="none" stroke="midnightblue" d="M557.79,-430.99C573.58,-422.85 590.64,-412.12 603.57,-399 673.92,-327.59 631.76,-261.65 711.57,-201 756.35,-166.97 820.54,-155.41 866.74,-151.71"/>
<polygon fill="midnightblue" stroke="midnightblue" points="556.1,-427.92 548.68,-435.48 559.2,-434.2 556.1,-427.92"/>
</g>
<!-- Node20&#45;&gt;Node12 -->
<g id="edge28" class="edge">
<title>Node20&#45;&gt;Node12</title>
<path fill="none" stroke="midnightblue" d="M695.49,-425.69C679.7,-390.9 657.09,-325.29 684.57,-279 723.65,-213.16 809.38,-179.19 867.07,-163.12"/>
<polygon fill="midnightblue" stroke="midnightblue" points="692.48,-427.5 699.91,-435.04 698.8,-424.5 692.48,-427.5"/>
</g>
<!-- Node21&#45;&gt;Node5 -->
<g id="edge30" class="edge">
<title>Node21&#45;&gt;Node5</title>
<path fill="none" stroke="midnightblue" d="M337.42,-425.56C334.43,-416.77 331.08,-406.94 328.24,-398.59"/>
<polygon fill="midnightblue" stroke="midnightblue" points="334.18,-426.89 340.71,-435.23 340.8,-424.64 334.18,-426.89"/>
</g>
<!-- Node21&#45;&gt;Node12 -->
<g id="edge31" class="edge">
<title>Node21&#45;&gt;Node12</title>
<path fill="none" stroke="midnightblue" d="M380.85,-430.62C423.02,-407.34 494.86,-365.38 550.57,-321 609.56,-274.01 604.05,-236.55 670.57,-201 732.43,-167.94 813.22,-156.42 866.89,-152.46"/>
<polygon fill="midnightblue" stroke="midnightblue" points="379.15,-427.56 372.07,-435.44 382.52,-433.7 379.15,-427.56"/>
</g>
<!-- Node22&#45;&gt;Node11 -->
<g id="edge38" class="edge">
<title>Node22&#45;&gt;Node11</title>
<path fill="none" stroke="midnightblue" d="M922.08,-431.34C894.18,-419.42 858.23,-404.07 832.51,-393.07"/>
<polygon fill="midnightblue" stroke="midnightblue" points="921.01,-434.69 931.58,-435.4 923.76,-428.26 921.01,-434.69"/>
</g>
<!-- Node23 -->
<g id="node23" class="node">
<title>Node23</title>
<g id="a_node23"><a xlink:href="bem__general_8hcu_source.html" target="_top" xlink:title=" ">
<polygon fill="none" stroke="black" points="1034.57,-368.5 1034.57,-387.5 1180.57,-387.5 1180.57,-368.5 1034.57,-368.5"/>
<text text-anchor="middle" x="1107.57" y="-375.5" font-family="Helvetica,sans-Serif" font-size="10.00">include/bem/bem_general.hcu</text>
</a>
</g>
</g>
<!-- Node22&#45;&gt;Node23 -->
<g id="edge35" class="edge">
<title>Node22&#45;&gt;Node23</title>
<path fill="none" stroke="midnightblue" d="M1002.43,-430.83C1030.91,-416.79 1068.6,-398.21 1090.26,-387.53"/>
<polygon fill="midnightblue" stroke="midnightblue" points="1000.59,-427.84 993.16,-435.4 1003.68,-434.12 1000.59,-427.84"/>
</g>
<!-- Node24 -->
<g id="node24" class="node">
<title>Node24</title>
<g id="a_node24"><a xlink:href="sauter__quadrature_8cu_source.html" target="_top" xlink:title=" ">
<polygon fill="none" stroke="black" points="907.07,-363 907.07,-393 1016.07,-393 1016.07,-363 907.07,-363"/>
<text text-anchor="start" x="915.07" y="-381" font-family="Helvetica,sans-Serif" font-size="10.00">src/quadrature/sauter</text>
<text text-anchor="middle" x="961.57" y="-370" font-family="Helvetica,sans-Serif" font-size="10.00">_quadrature.cu</text>
</a>
</g>
</g>
<!-- Node22&#45;&gt;Node24 -->
<g id="edge39" class="edge">
<title>Node22&#45;&gt;Node24</title>
<path fill="none" stroke="midnightblue" d="M963.54,-425.23C963.08,-414.57 962.57,-402.41 962.18,-393.25"/>
<polygon fill="midnightblue" stroke="midnightblue" points="960.04,-425.39 963.96,-435.23 967.03,-425.09 960.04,-425.39"/>
</g>
<!-- Node23&#45;&gt;Node12 -->
<g id="edge36" class="edge">
<title>Node23&#45;&gt;Node12</title>
<path fill="none" stroke="midnightblue" d="M1120.53,-359.78C1144.49,-325.71 1189.93,-248.84 1151.57,-201 1130.73,-175.02 1042.45,-161.55 982.33,-155.26"/>
<polygon fill="midnightblue" stroke="midnightblue" points="1117.47,-358.05 1114.43,-368.2 1123.13,-362.16 1117.47,-358.05"/>
</g>
<!-- Node23&#45;&gt;Node15 -->
<g id="edge37" class="edge">
<title>Node23&#45;&gt;Node15</title>
<path fill="none" stroke="midnightblue" d="M1086.93,-362.34C1067.71,-348.69 1039.24,-328.47 1020.31,-315.02"/>
<polygon fill="midnightblue" stroke="midnightblue" points="1085.12,-365.34 1095.3,-368.28 1089.17,-359.64 1085.12,-365.34"/>
</g>
</g>
</svg>
