<?xml version="1.0" encoding="UTF-8" standalone="no"?>
<!DOCTYPE svg PUBLIC "-//W3C//DTD SVG 1.1//EN"
 "http://www.w3.org/Graphics/SVG/1.1/DTD/svg11.dtd">
<!-- Generated by graphviz version 2.43.0 (0)
 -->
<!-- Title: cpptrace::exception_with_message Pages: 1 -->
<svg width="1161pt" height="646pt"
 viewBox="0.00 0.00 1161.00 646.00" xmlns="http://www.w3.org/2000/svg" xmlns:xlink="http://www.w3.org/1999/xlink">
<g id="graph0" class="graph" transform="scale(1 1) rotate(0) translate(4 642)">
<title>cpptrace::exception_with_message</title>
<!-- Node1 -->
<g id="node1" class="node">
<title>Node1</title>
<g id="a_node1"><a xlink:title=" ">
<polygon fill="#bfbfbf" stroke="black" points="526,-210.5 526,-289.5 668,-289.5 668,-210.5 526,-210.5"/>
<text text-anchor="start" x="534" y="-277.5" font-family="Helvetica,sans-Serif" font-size="10.00">cpptrace::exception</text>
<text text-anchor="middle" x="597" y="-266.5" font-family="Helvetica,sans-Serif" font-size="10.00">_with_message</text>
<polyline fill="none" stroke="black" points="526,-259.5 668,-259.5 "/>
<text text-anchor="start" x="534" y="-247.5" font-family="Helvetica,sans-Serif" font-size="10.00">&#45; user_message</text>
<polyline fill="none" stroke="black" points="526,-240.5 668,-240.5 "/>
<text text-anchor="start" x="534" y="-228.5" font-family="Helvetica,sans-Serif" font-size="10.00">+ exception_with_message()</text>
<text text-anchor="start" x="534" y="-217.5" font-family="Helvetica,sans-Serif" font-size="10.00">+ message()</text>
</a>
</g>
</g>
<!-- Node5 -->
<g id="node5" class="node">
<title>Node5</title>
<g id="a_node5"><a xlink:href="classcpptrace_1_1domain__error.html" target="_top" xlink:title=" ">
<polygon fill="none" stroke="#bfbfbf" points="0,-111 0,-168 116,-168 116,-111 0,-111"/>
<text text-anchor="middle" x="58" y="-156" font-family="Helvetica,sans-Serif" font-size="10.00">cpptrace::domain_error</text>
<polyline fill="none" stroke="#bfbfbf" points="0,-149 116,-149 "/>
<text text-anchor="middle" x="58" y="-137" font-family="Helvetica,sans-Serif" font-size="10.00"> </text>
<polyline fill="none" stroke="#bfbfbf" points="0,-130 116,-130 "/>
<text text-anchor="start" x="8" y="-118" font-family="Helvetica,sans-Serif" font-size="10.00">+ domain_error()</text>
</a>
</g>
</g>
<!-- Node1&#45;&gt;Node5 -->
<g id="edge4" class="edge">
<title>Node1&#45;&gt;Node5</title>
<path fill="none" stroke="midnightblue" d="M515.7,-243.66C420.22,-235.67 258.01,-216.7 125,-174 119.8,-172.33 114.5,-170.31 109.28,-168.09"/>
<polygon fill="none" stroke="midnightblue" points="515.61,-247.17 525.86,-244.49 516.18,-240.19 515.61,-247.17"/>
</g>
<!-- Node6 -->
<g id="node6" class="node">
<title>Node6</title>
<g id="a_node6"><a xlink:href="classcpptrace_1_1invalid__argument.html" target="_top" xlink:title=" ">
<polygon fill="none" stroke="#bfbfbf" points="134,-111 134,-168 268,-168 268,-111 134,-111"/>
<text text-anchor="middle" x="201" y="-156" font-family="Helvetica,sans-Serif" font-size="10.00">cpptrace::invalid_argument</text>
<polyline fill="none" stroke="#bfbfbf" points="134,-149 268,-149 "/>
<text text-anchor="middle" x="201" y="-137" font-family="Helvetica,sans-Serif" font-size="10.00"> </text>
<polyline fill="none" stroke="#bfbfbf" points="134,-130 268,-130 "/>
<text text-anchor="start" x="142" y="-118" font-family="Helvetica,sans-Serif" font-size="10.00">+ invalid_argument()</text>
</a>
</g>
</g>
<!-- Node1&#45;&gt;Node6 -->
<g id="edge5" class="edge">
<title>Node1&#45;&gt;Node6</title>
<path fill="none" stroke="midnightblue" d="M515.89,-234.31C450.5,-221.44 356.66,-200.64 277,-174 271.67,-172.22 266.19,-170.2 260.75,-168.06"/>
<polygon fill="none" stroke="midnightblue" points="515.24,-237.75 525.73,-236.23 516.58,-230.88 515.24,-237.75"/>
</g>
<!-- Node7 -->
<g id="node7" class="node">
<title>Node7</title>
<g id="a_node7"><a xlink:href="classcpptrace_1_1length__error.html" target="_top" xlink:title=" ">
<polygon fill="none" stroke="#bfbfbf" points="286.5,-111 286.5,-168 397.5,-168 397.5,-111 286.5,-111"/>
<text text-anchor="middle" x="342" y="-156" font-family="Helvetica,sans-Serif" font-size="10.00">cpptrace::length_error</text>
<polyline fill="none" stroke="#bfbfbf" points="286.5,-149 397.5,-149 "/>
<text text-anchor="middle" x="342" y="-137" font-family="Helvetica,sans-Serif" font-size="10.00"> </text>
<polyline fill="none" stroke="#bfbfbf" points="286.5,-130 397.5,-130 "/>
<text text-anchor="start" x="294.5" y="-118" font-family="Helvetica,sans-Serif" font-size="10.00">+ length_error()</text>
</a>
</g>
</g>
<!-- Node1&#45;&gt;Node7 -->
<g id="edge6" class="edge">
<title>Node1&#45;&gt;Node7</title>
<path fill="none" stroke="midnightblue" d="M516.41,-219.57C482.03,-206.45 441.7,-190.29 406,-174 401.89,-172.13 397.68,-170.12 393.46,-168.05"/>
<polygon fill="none" stroke="midnightblue" points="515.35,-222.91 525.94,-223.19 517.83,-216.37 515.35,-222.91"/>
</g>
<!-- Node8 -->
<g id="node8" class="node">
<title>Node8</title>
<g id="a_node8"><a xlink:href="classcpptrace_1_1logic__error.html" target="_top" xlink:title=" ">
<polygon fill="none" stroke="#bfbfbf" points="415.5,-111 415.5,-168 520.5,-168 520.5,-111 415.5,-111"/>
<text text-anchor="middle" x="468" y="-156" font-family="Helvetica,sans-Serif" font-size="10.00">cpptrace::logic_error</text>
<polyline fill="none" stroke="#bfbfbf" points="415.5,-149 520.5,-149 "/>
<text text-anchor="middle" x="468" y="-137" font-family="Helvetica,sans-Serif" font-size="10.00"> </text>
<polyline fill="none" stroke="#bfbfbf" points="415.5,-130 520.5,-130 "/>
<text text-anchor="start" x="423.5" y="-118" font-family="Helvetica,sans-Serif" font-size="10.00">+ logic_error()</text>
</a>
</g>
</g>
<!-- Node1&#45;&gt;Node8 -->
<g id="edge7" class="edge">
<title>Node1&#45;&gt;Node8</title>
<path fill="none" stroke="midnightblue" d="M543.23,-203.78C528.8,-191.64 513.64,-178.89 500.73,-168.03"/>
<polygon fill="none" stroke="midnightblue" points="541.25,-206.68 551.16,-210.44 545.76,-201.33 541.25,-206.68"/>
</g>
<!-- Node9 -->
<g id="node9" class="node">
<title>Node9</title>
<g id="a_node9"><a xlink:href="classcpptrace_1_1out__of__range.html" target="_top" xlink:title=" ">
<polygon fill="none" stroke="#bfbfbf" points="539,-111 539,-168 655,-168 655,-111 539,-111"/>
<text text-anchor="middle" x="597" y="-156" font-family="Helvetica,sans-Serif" font-size="10.00">cpptrace::out_of_range</text>
<polyline fill="none" stroke="#bfbfbf" points="539,-149 655,-149 "/>
<text text-anchor="middle" x="597" y="-137" font-family="Helvetica,sans-Serif" font-size="10.00"> </text>
<polyline fill="none" stroke="#bfbfbf" points="539,-130 655,-130 "/>
<text text-anchor="start" x="547" y="-118" font-family="Helvetica,sans-Serif" font-size="10.00">+ out_of_range()</text>
</a>
</g>
</g>
<!-- Node1&#45;&gt;Node9 -->
<g id="edge8" class="edge">
<title>Node1&#45;&gt;Node9</title>
<path fill="none" stroke="midnightblue" d="M597,-200.39C597,-189.3 597,-177.88 597,-168.03"/>
<polygon fill="none" stroke="midnightblue" points="593.5,-200.44 597,-210.44 600.5,-200.44 593.5,-200.44"/>
</g>
<!-- Node10 -->
<g id="node10" class="node">
<title>Node10</title>
<g id="a_node10"><a xlink:href="classcpptrace_1_1overflow__error.html" target="_top" xlink:title=" ">
<polygon fill="none" stroke="#bfbfbf" points="673.5,-105.5 673.5,-173.5 770.5,-173.5 770.5,-105.5 673.5,-105.5"/>
<text text-anchor="start" x="681.5" y="-161.5" font-family="Helvetica,sans-Serif" font-size="10.00">cpptrace::overflow</text>
<text text-anchor="middle" x="722" y="-150.5" font-family="Helvetica,sans-Serif" font-size="10.00">_error</text>
<polyline fill="none" stroke="#bfbfbf" points="673.5,-143.5 770.5,-143.5 "/>
<text text-anchor="middle" x="722" y="-131.5" font-family="Helvetica,sans-Serif" font-size="10.00"> </text>
<polyline fill="none" stroke="#bfbfbf" points="673.5,-124.5 770.5,-124.5 "/>
<text text-anchor="start" x="681.5" y="-112.5" font-family="Helvetica,sans-Serif" font-size="10.00">+ overflow_error()</text>
</a>
</g>
</g>
<!-- Node1&#45;&gt;Node10 -->
<g id="edge9" class="edge">
<title>Node1&#45;&gt;Node10</title>
<path fill="none" stroke="midnightblue" d="M649.02,-203.85C660.72,-193.69 672.93,-183.1 683.93,-173.54"/>
<polygon fill="none" stroke="midnightblue" points="646.68,-201.24 641.42,-210.44 651.27,-206.53 646.68,-201.24"/>
</g>
<!-- Node11 -->
<g id="node11" class="node">
<title>Node11</title>
<g id="a_node11"><a xlink:href="classcpptrace_1_1range__error.html" target="_top" xlink:title=" ">
<polygon fill="none" stroke="#bfbfbf" points="788.5,-111 788.5,-168 897.5,-168 897.5,-111 788.5,-111"/>
<text text-anchor="middle" x="843" y="-156" font-family="Helvetica,sans-Serif" font-size="10.00">cpptrace::range_error</text>
<polyline fill="none" stroke="#bfbfbf" points="788.5,-149 897.5,-149 "/>
<text text-anchor="middle" x="843" y="-137" font-family="Helvetica,sans-Serif" font-size="10.00"> </text>
<polyline fill="none" stroke="#bfbfbf" points="788.5,-130 897.5,-130 "/>
<text text-anchor="start" x="796.5" y="-118" font-family="Helvetica,sans-Serif" font-size="10.00">+ range_error()</text>
</a>
</g>
</g>
<!-- Node1&#45;&gt;Node11 -->
<g id="edge10" class="edge">
<title>Node1&#45;&gt;Node11</title>
<path fill="none" stroke="midnightblue" d="M677.39,-217.72C709.3,-204.82 746.16,-189.32 779,-174 782.98,-172.14 787.06,-170.17 791.16,-168.14"/>
<polygon fill="none" stroke="midnightblue" points="676.06,-214.48 668.09,-221.46 678.67,-220.97 676.06,-214.48"/>
</g>
<!-- Node12 -->
<g id="node12" class="node">
<title>Node12</title>
<g id="a_node12"><a xlink:href="classcpptrace_1_1runtime__error.html" target="_top" xlink:title=" ">
<polygon fill="none" stroke="#bfbfbf" points="915.5,-111 915.5,-168 1032.5,-168 1032.5,-111 915.5,-111"/>
<text text-anchor="middle" x="974" y="-156" font-family="Helvetica,sans-Serif" font-size="10.00">cpptrace::runtime_error</text>
<polyline fill="none" stroke="#bfbfbf" points="915.5,-149 1032.5,-149 "/>
<text text-anchor="middle" x="974" y="-137" font-family="Helvetica,sans-Serif" font-size="10.00"> </text>
<polyline fill="none" stroke="#bfbfbf" points="915.5,-130 1032.5,-130 "/>
<text text-anchor="start" x="923.5" y="-118" font-family="Helvetica,sans-Serif" font-size="10.00">+ runtime_error()</text>
</a>
</g>
</g>
<!-- Node1&#45;&gt;Node12 -->
<g id="edge11" class="edge">
<title>Node1&#45;&gt;Node12</title>
<path fill="none" stroke="midnightblue" d="M678.16,-234.38C741.33,-221.79 830.63,-201.33 906,-174 910.83,-172.25 915.76,-170.26 920.65,-168.13"/>
<polygon fill="none" stroke="midnightblue" points="677.39,-230.96 668.25,-236.33 678.74,-237.83 677.39,-230.96"/>
</g>
<!-- Node14 -->
<g id="node14" class="node">
<title>Node14</title>
<g id="a_node14"><a xlink:href="classcpptrace_1_1underflow__error.html" target="_top" xlink:title=" ">
<polygon fill="none" stroke="#bfbfbf" points="1051,-105.5 1051,-173.5 1153,-173.5 1153,-105.5 1051,-105.5"/>
<text text-anchor="start" x="1059" y="-161.5" font-family="Helvetica,sans-Serif" font-size="10.00">cpptrace::underflow</text>
<text text-anchor="middle" x="1102" y="-150.5" font-family="Helvetica,sans-Serif" font-size="10.00">_error</text>
<polyline fill="none" stroke="#bfbfbf" points="1051,-143.5 1153,-143.5 "/>
<text text-anchor="middle" x="1102" y="-131.5" font-family="Helvetica,sans-Serif" font-size="10.00"> </text>
<polyline fill="none" stroke="#bfbfbf" points="1051,-124.5 1153,-124.5 "/>
<text text-anchor="start" x="1059" y="-112.5" font-family="Helvetica,sans-Serif" font-size="10.00">+ underflow_error()</text>
</a>
</g>
</g>
<!-- Node1&#45;&gt;Node14 -->
<g id="edge13" class="edge">
<title>Node1&#45;&gt;Node14</title>
<path fill="none" stroke="midnightblue" d="M678.23,-243.46C768.82,-235.43 918.72,-216.54 1041,-174 1044.31,-172.85 1047.65,-171.53 1050.98,-170.09"/>
<polygon fill="none" stroke="midnightblue" points="677.68,-240 668.02,-244.34 678.28,-246.97 677.68,-240"/>
</g>
<!-- Node2 -->
<g id="node2" class="node">
<title>Node2</title>
<g id="a_node2"><a xlink:href="classcpptrace_1_1lazy__exception.html" target="_top" xlink:title=" ">
<polygon fill="none" stroke="#bfbfbf" points="534.5,-326.5 534.5,-427.5 659.5,-427.5 659.5,-326.5 534.5,-326.5"/>
<text text-anchor="middle" x="597" y="-415.5" font-family="Helvetica,sans-Serif" font-size="10.00">cpptrace::lazy_exception</text>
<polyline fill="none" stroke="#bfbfbf" points="534.5,-408.5 659.5,-408.5 "/>
<text text-anchor="start" x="542.5" y="-396.5" font-family="Helvetica,sans-Serif" font-size="10.00">&#45; trace_holder</text>
<text text-anchor="start" x="542.5" y="-385.5" font-family="Helvetica,sans-Serif" font-size="10.00">&#45; what_string</text>
<polyline fill="none" stroke="#bfbfbf" points="534.5,-378.5 659.5,-378.5 "/>
<text text-anchor="start" x="542.5" y="-366.5" font-family="Helvetica,sans-Serif" font-size="10.00">+ lazy_exception()</text>
<text text-anchor="start" x="542.5" y="-355.5" font-family="Helvetica,sans-Serif" font-size="10.00">+ what()</text>
<text text-anchor="start" x="542.5" y="-344.5" font-family="Helvetica,sans-Serif" font-size="10.00">+ message()</text>
<text text-anchor="start" x="542.5" y="-333.5" font-family="Helvetica,sans-Serif" font-size="10.00">+ trace()</text>
</a>
</g>
</g>
<!-- Node2&#45;&gt;Node1 -->
<g id="edge1" class="edge">
<title>Node2&#45;&gt;Node1</title>
<path fill="none" stroke="midnightblue" d="M597,-316.19C597,-307.22 597,-298.18 597,-289.81"/>
<polygon fill="none" stroke="midnightblue" points="593.5,-316.24 597,-326.24 600.5,-316.24 593.5,-316.24"/>
</g>
<!-- Node3 -->
<g id="node3" class="node">
<title>Node3</title>
<g id="a_node3"><a xlink:href="classcpptrace_1_1exception.html" target="_top" xlink:title=" ">
<polygon fill="none" stroke="#bfbfbf" points="546,-464.5 546,-543.5 648,-543.5 648,-464.5 546,-464.5"/>
<text text-anchor="middle" x="597" y="-531.5" font-family="Helvetica,sans-Serif" font-size="10.00">cpptrace::exception</text>
<polyline fill="none" stroke="#bfbfbf" points="546,-524.5 648,-524.5 "/>
<text text-anchor="middle" x="597" y="-512.5" font-family="Helvetica,sans-Serif" font-size="10.00"> </text>
<polyline fill="none" stroke="#bfbfbf" points="546,-505.5 648,-505.5 "/>
<text text-anchor="start" x="554" y="-493.5" font-family="Helvetica,sans-Serif" font-size="10.00">+ what()</text>
<text text-anchor="start" x="554" y="-482.5" font-family="Helvetica,sans-Serif" font-size="10.00">+ message()</text>
<text text-anchor="start" x="554" y="-471.5" font-family="Helvetica,sans-Serif" font-size="10.00">+ trace()</text>
</a>
</g>
</g>
<!-- Node3&#45;&gt;Node2 -->
<g id="edge2" class="edge">
<title>Node3&#45;&gt;Node2</title>
<path fill="none" stroke="midnightblue" d="M597,-454.41C597,-445.64 597,-436.49 597,-427.69"/>
<polygon fill="none" stroke="midnightblue" points="593.5,-454.48 597,-464.48 600.5,-454.48 593.5,-454.48"/>
</g>
<!-- Node4 -->
<g id="node4" class="node">
<title>Node4</title>
<g id="a_node4"><a xlink:title=" ">
<polygon fill="none" stroke="#bfbfbf" points="558,-580.5 558,-637.5 636,-637.5 636,-580.5 558,-580.5"/>
<text text-anchor="middle" x="597" y="-625.5" font-family="Helvetica,sans-Serif" font-size="10.00">std::exception</text>
<polyline fill="none" stroke="#bfbfbf" points="558,-618.5 636,-618.5 "/>
<text text-anchor="middle" x="597" y="-606.5" font-family="Helvetica,sans-Serif" font-size="10.00"> </text>
<polyline fill="none" stroke="#bfbfbf" points="558,-599.5 636,-599.5 "/>
<text text-anchor="middle" x="597" y="-587.5" font-family="Helvetica,sans-Serif" font-size="10.00"> </text>
</a>
</g>
</g>
<!-- Node4&#45;&gt;Node3 -->
<g id="edge3" class="edge">
<title>Node4&#45;&gt;Node3</title>
<path fill="none" stroke="midnightblue" d="M597,-570.16C597,-561.47 597,-552.23 597,-543.52"/>
<polygon fill="none" stroke="midnightblue" points="593.5,-570.4 597,-580.4 600.5,-570.4 593.5,-570.4"/>
</g>
<!-- Node13 -->
<g id="node13" class="node">
<title>Node13</title>
<g id="a_node13"><a xlink:href="classcpptrace_1_1system__error.html" target="_top" xlink:title=" ">
<polygon fill="none" stroke="#bfbfbf" points="915.5,-0.5 915.5,-68.5 1032.5,-68.5 1032.5,-0.5 915.5,-0.5"/>
<text text-anchor="middle" x="974" y="-56.5" font-family="Helvetica,sans-Serif" font-size="10.00">cpptrace::system_error</text>
<polyline fill="none" stroke="#bfbfbf" points="915.5,-49.5 1032.5,-49.5 "/>
<text text-anchor="start" x="923.5" y="-37.5" font-family="Helvetica,sans-Serif" font-size="10.00">&#45; ec</text>
<polyline fill="none" stroke="#bfbfbf" points="915.5,-30.5 1032.5,-30.5 "/>
<text text-anchor="start" x="923.5" y="-18.5" font-family="Helvetica,sans-Serif" font-size="10.00">+ system_error()</text>
<text text-anchor="start" x="923.5" y="-7.5" font-family="Helvetica,sans-Serif" font-size="10.00">+ code()</text>
</a>
</g>
</g>
<!-- Node12&#45;&gt;Node13 -->
<g id="edge12" class="edge">
<title>Node12&#45;&gt;Node13</title>
<path fill="none" stroke="midnightblue" d="M974,-100.74C974,-90.23 974,-78.9 974,-68.68"/>
<polygon fill="none" stroke="midnightblue" points="970.5,-100.9 974,-110.9 977.5,-100.9 970.5,-100.9"/>
</g>
</g>
</svg>
