<?xml version="1.0" encoding="UTF-8" standalone="no"?>
<!DOCTYPE svg PUBLIC "-//W3C//DTD SVG 1.1//EN"
 "http://www.w3.org/Graphics/SVG/1.1/DTD/svg11.dtd">
<!-- Generated by graphviz version 2.43.0 (0)
 -->
<!-- Title: cpptrace::overflow_error Pages: 1 -->
<svg width="150pt" height="541pt"
 viewBox="0.00 0.00 150.00 541.00" xmlns="http://www.w3.org/2000/svg" xmlns:xlink="http://www.w3.org/1999/xlink">
<g id="graph0" class="graph" transform="scale(1 1) rotate(0) translate(4 537)">
<title>cpptrace::overflow_error</title>
<!-- Node1 -->
<g id="node1" class="node">
<title>Node1</title>
<g id="a_node1"><a xlink:title=" ">
<polygon fill="#bfbfbf" stroke="black" points="22.5,-0.5 22.5,-68.5 119.5,-68.5 119.5,-0.5 22.5,-0.5"/>
<text text-anchor="start" x="30.5" y="-56.5" font-family="Helvetica,sans-Serif" font-size="10.00">cpptrace::overflow</text>
<text text-anchor="middle" x="71" y="-45.5" font-family="Helvetica,sans-Serif" font-size="10.00">_error</text>
<polyline fill="none" stroke="black" points="22.5,-38.5 119.5,-38.5 "/>
<text text-anchor="middle" x="71" y="-26.5" font-family="Helvetica,sans-Serif" font-size="10.00"> </text>
<polyline fill="none" stroke="black" points="22.5,-19.5 119.5,-19.5 "/>
<text text-anchor="start" x="30.5" y="-7.5" font-family="Helvetica,sans-Serif" font-size="10.00">+ overflow_error()</text>
</a>
</g>
</g>
<!-- Node2 -->
<g id="node2" class="node">
<title>Node2</title>
<g id="a_node2"><a xlink:href="classcpptrace_1_1exception__with__message.html" target="_top" xlink:title=" ">
<polygon fill="none" stroke="#bfbfbf" points="0,-105.5 0,-184.5 142,-184.5 142,-105.5 0,-105.5"/>
<text text-anchor="start" x="8" y="-172.5" font-family="Helvetica,sans-Serif" font-size="10.00">cpptrace::exception</text>
<text text-anchor="middle" x="71" y="-161.5" font-family="Helvetica,sans-Serif" font-size="10.00">_with_message</text>
<polyline fill="none" stroke="#bfbfbf" points="0,-154.5 142,-154.5 "/>
<text text-anchor="start" x="8" y="-142.5" font-family="Helvetica,sans-Serif" font-size="10.00">&#45; user_message</text>
<polyline fill="none" stroke="#bfbfbf" points="0,-135.5 142,-135.5 "/>
<text text-anchor="start" x="8" y="-123.5" font-family="Helvetica,sans-Serif" font-size="10.00">+ exception_with_message()</text>
<text text-anchor="start" x="8" y="-112.5" font-family="Helvetica,sans-Serif" font-size="10.00">+ message()</text>
</a>
</g>
</g>
<!-- Node2&#45;&gt;Node1 -->
<g id="edge1" class="edge">
<title>Node2&#45;&gt;Node1</title>
<path fill="none" stroke="midnightblue" d="M71,-95.35C71,-86.28 71,-77 71,-68.54"/>
<polygon fill="none" stroke="midnightblue" points="67.5,-95.44 71,-105.44 74.5,-95.44 67.5,-95.44"/>
</g>
<!-- Node3 -->
<g id="node3" class="node">
<title>Node3</title>
<g id="a_node3"><a xlink:href="classcpptrace_1_1lazy__exception.html" target="_top" xlink:title=" ">
<polygon fill="none" stroke="#bfbfbf" points="8.5,-221.5 8.5,-322.5 133.5,-322.5 133.5,-221.5 8.5,-221.5"/>
<text text-anchor="middle" x="71" y="-310.5" font-family="Helvetica,sans-Serif" font-size="10.00">cpptrace::lazy_exception</text>
<polyline fill="none" stroke="#bfbfbf" points="8.5,-303.5 133.5,-303.5 "/>
<text text-anchor="start" x="16.5" y="-291.5" font-family="Helvetica,sans-Serif" font-size="10.00">&#45; trace_holder</text>
<text text-anchor="start" x="16.5" y="-280.5" font-family="Helvetica,sans-Serif" font-size="10.00">&#45; what_string</text>
<polyline fill="none" stroke="#bfbfbf" points="8.5,-273.5 133.5,-273.5 "/>
<text text-anchor="start" x="16.5" y="-261.5" font-family="Helvetica,sans-Serif" font-size="10.00">+ lazy_exception()</text>
<text text-anchor="start" x="16.5" y="-250.5" font-family="Helvetica,sans-Serif" font-size="10.00">+ what()</text>
<text text-anchor="start" x="16.5" y="-239.5" font-family="Helvetica,sans-Serif" font-size="10.00">+ message()</text>
<text text-anchor="start" x="16.5" y="-228.5" font-family="Helvetica,sans-Serif" font-size="10.00">+ trace()</text>
</a>
</g>
</g>
<!-- Node3&#45;&gt;Node2 -->
<g id="edge2" class="edge">
<title>Node3&#45;&gt;Node2</title>
<path fill="none" stroke="midnightblue" d="M71,-211.19C71,-202.22 71,-193.18 71,-184.81"/>
<polygon fill="none" stroke="midnightblue" points="67.5,-211.24 71,-221.24 74.5,-211.24 67.5,-211.24"/>
</g>
<!-- Node4 -->
<g id="node4" class="node">
<title>Node4</title>
<g id="a_node4"><a xlink:href="classcpptrace_1_1exception.html" target="_top" xlink:title=" ">
<polygon fill="none" stroke="#bfbfbf" points="20,-359.5 20,-438.5 122,-438.5 122,-359.5 20,-359.5"/>
<text text-anchor="middle" x="71" y="-426.5" font-family="Helvetica,sans-Serif" font-size="10.00">cpptrace::exception</text>
<polyline fill="none" stroke="#bfbfbf" points="20,-419.5 122,-419.5 "/>
<text text-anchor="middle" x="71" y="-407.5" font-family="Helvetica,sans-Serif" font-size="10.00"> </text>
<polyline fill="none" stroke="#bfbfbf" points="20,-400.5 122,-400.5 "/>
<text text-anchor="start" x="28" y="-388.5" font-family="Helvetica,sans-Serif" font-size="10.00">+ what()</text>
<text text-anchor="start" x="28" y="-377.5" font-family="Helvetica,sans-Serif" font-size="10.00">+ message()</text>
<text text-anchor="start" x="28" y="-366.5" font-family="Helvetica,sans-Serif" font-size="10.00">+ trace()</text>
</a>
</g>
</g>
<!-- Node4&#45;&gt;Node3 -->
<g id="edge3" class="edge">
<title>Node4&#45;&gt;Node3</title>
<path fill="none" stroke="midnightblue" d="M71,-349.41C71,-340.64 71,-331.49 71,-322.69"/>
<polygon fill="none" stroke="midnightblue" points="67.5,-349.48 71,-359.48 74.5,-349.48 67.5,-349.48"/>
</g>
<!-- Node5 -->
<g id="node5" class="node">
<title>Node5</title>
<g id="a_node5"><a xlink:title=" ">
<polygon fill="none" stroke="#bfbfbf" points="32,-475.5 32,-532.5 110,-532.5 110,-475.5 32,-475.5"/>
<text text-anchor="middle" x="71" y="-520.5" font-family="Helvetica,sans-Serif" font-size="10.00">std::exception</text>
<polyline fill="none" stroke="#bfbfbf" points="32,-513.5 110,-513.5 "/>
<text text-anchor="middle" x="71" y="-501.5" font-family="Helvetica,sans-Serif" font-size="10.00"> </text>
<polyline fill="none" stroke="#bfbfbf" points="32,-494.5 110,-494.5 "/>
<text text-anchor="middle" x="71" y="-482.5" font-family="Helvetica,sans-Serif" font-size="10.00"> </text>
</a>
</g>
</g>
<!-- Node5&#45;&gt;Node4 -->
<g id="edge4" class="edge">
<title>Node5&#45;&gt;Node4</title>
<path fill="none" stroke="midnightblue" d="M71,-465.16C71,-456.47 71,-447.23 71,-438.52"/>
<polygon fill="none" stroke="midnightblue" points="67.5,-465.4 71,-475.4 74.5,-465.4 67.5,-465.4"/>
</g>
</g>
</svg>
