<?xml version="1.0" encoding="UTF-8" standalone="no"?>
<!DOCTYPE svg PUBLIC "-//W3C//DTD SVG 1.1//EN"
 "http://www.w3.org/Graphics/SVG/1.1/DTD/svg11.dtd">
<!-- Generated by graphviz version 2.43.0 (0)
 -->
<!-- Title: detail::apple_file&lt; F &gt; Pages: 1 -->
<svg width="132pt" height="259pt"
 viewBox="0.00 0.00 132.00 259.00" xmlns="http://www.w3.org/2000/svg" xmlns:xlink="http://www.w3.org/1999/xlink">
<g id="graph0" class="graph" transform="scale(1 1) rotate(0) translate(4 255)">
<title>detail::apple_file&lt; F &gt;</title>
<!-- Node1 -->
<g id="node1" class="node">
<title>Node1</title>
<g id="a_node1"><a xlink:title=" ">
<polygon fill="#bfbfbf" stroke="black" points="0,-0.5 0,-112.5 124,-112.5 124,-0.5 0,-0.5"/>
<text text-anchor="middle" x="62" y="-100.5" font-family="Helvetica,sans-Serif" font-size="10.00">detail::apple_file&lt; F &gt;</text>
<polyline fill="none" stroke="black" points="0,-93.5 124,-93.5 "/>
<text text-anchor="middle" x="62" y="-81.5" font-family="Helvetica,sans-Serif" font-size="10.00"> </text>
<polyline fill="none" stroke="black" points="0,-74.5 124,-74.5 "/>
<text text-anchor="start" x="8" y="-62.5" font-family="Helvetica,sans-Serif" font-size="10.00">+ is_buffered()</text>
<text text-anchor="start" x="8" y="-51.5" font-family="Helvetica,sans-Serif" font-size="10.00">+ init_buffer()</text>
<text text-anchor="start" x="8" y="-40.5" font-family="Helvetica,sans-Serif" font-size="10.00">+ get_read_buffer()</text>
<text text-anchor="start" x="8" y="-29.5" font-family="Helvetica,sans-Serif" font-size="10.00">+ get_write_buffer()</text>
<text text-anchor="start" x="8" y="-18.5" font-family="Helvetica,sans-Serif" font-size="10.00">+ advance_write_buffer()</text>
<text text-anchor="start" x="8" y="-7.5" font-family="Helvetica,sans-Serif" font-size="10.00">+ needs_flush()</text>
</a>
</g>
</g>
<!-- Node2 -->
<g id="node2" class="node">
<title>Node2</title>
<g id="a_node2"><a xlink:href="classdetail_1_1file__base.html" target="_top" xlink:title=" ">
<polygon fill="none" stroke="#bfbfbf" points="7.5,-149.5 7.5,-250.5 116.5,-250.5 116.5,-149.5 7.5,-149.5"/>
<text text-anchor="middle" x="62" y="-238.5" font-family="Helvetica,sans-Serif" font-size="10.00">detail::file_base&lt; F &gt;</text>
<polyline fill="none" stroke="#bfbfbf" points="7.5,-231.5 116.5,-231.5 "/>
<text text-anchor="start" x="15.5" y="-219.5" font-family="Helvetica,sans-Serif" font-size="10.00">+ file_</text>
<polyline fill="none" stroke="#bfbfbf" points="7.5,-212.5 116.5,-212.5 "/>
<text text-anchor="start" x="15.5" y="-200.5" font-family="Helvetica,sans-Serif" font-size="10.00">+ file_base()</text>
<text text-anchor="start" x="15.5" y="-189.5" font-family="Helvetica,sans-Serif" font-size="10.00">+ operator F*()</text>
<text text-anchor="start" x="15.5" y="-178.5" font-family="Helvetica,sans-Serif" font-size="10.00">+ get()</text>
<text text-anchor="start" x="15.5" y="-167.5" font-family="Helvetica,sans-Serif" font-size="10.00">+ unget()</text>
<text text-anchor="start" x="15.5" y="-156.5" font-family="Helvetica,sans-Serif" font-size="10.00">+ flush()</text>
</a>
</g>
</g>
<!-- Node2&#45;&gt;Node1 -->
<g id="edge1" class="edge">
<title>Node2&#45;&gt;Node1</title>
<path fill="none" stroke="midnightblue" d="M62,-139.01C62,-130.29 62,-121.34 62,-112.72"/>
<polygon fill="none" stroke="midnightblue" points="58.5,-139.11 62,-149.11 65.5,-139.11 58.5,-139.11"/>
</g>
</g>
</svg>
