<?xml version="1.0" encoding="UTF-8" standalone="no"?>
<!DOCTYPE svg PUBLIC "-//W3C//DTD SVG 1.1//EN"
 "http://www.w3.org/Graphics/SVG/1.1/DTD/svg11.dtd">
<!-- Generated by graphviz version 2.43.0 (0)
 -->
<!-- Title: format_facet&lt; Locale &gt; Pages: 1 -->
<svg width="126pt" height="237pt"
 viewBox="0.00 0.00 126.00 237.00" xmlns="http://www.w3.org/2000/svg" xmlns:xlink="http://www.w3.org/1999/xlink">
<g id="graph0" class="graph" transform="scale(1 1) rotate(0) translate(4 233)">
<title>format_facet&lt; Locale &gt;</title>
<!-- Node1 -->
<g id="node1" class="node">
<title>Node1</title>
<g id="a_node1"><a xlink:title=" ">
<polygon fill="#bfbfbf" stroke="black" points="0,-0.5 0,-134.5 118,-134.5 118,-0.5 0,-0.5"/>
<text text-anchor="middle" x="59" y="-122.5" font-family="Helvetica,sans-Serif" font-size="10.00">format_facet&lt; Locale &gt;</text>
<polyline fill="none" stroke="black" points="0,-115.5 118,-115.5 "/>
<text text-anchor="start" x="8" y="-103.5" font-family="Helvetica,sans-Serif" font-size="10.00">+ id</text>
<text text-anchor="start" x="8" y="-92.5" font-family="Helvetica,sans-Serif" font-size="10.00">&#45; separator_</text>
<text text-anchor="start" x="8" y="-81.5" font-family="Helvetica,sans-Serif" font-size="10.00">&#45; grouping_</text>
<text text-anchor="start" x="8" y="-70.5" font-family="Helvetica,sans-Serif" font-size="10.00">&#45; decimal_point_</text>
<polyline fill="none" stroke="black" points="0,-63.5 118,-63.5 "/>
<text text-anchor="start" x="8" y="-51.5" font-family="Helvetica,sans-Serif" font-size="10.00">+ format_facet()</text>
<text text-anchor="start" x="8" y="-40.5" font-family="Helvetica,sans-Serif" font-size="10.00">+ format_facet()</text>
<text text-anchor="start" x="8" y="-29.5" font-family="Helvetica,sans-Serif" font-size="10.00">+ put()</text>
<text text-anchor="start" x="8" y="-18.5" font-family="Helvetica,sans-Serif" font-size="10.00"># do_put()</text>
<text text-anchor="start" x="8" y="-7.5" font-family="Helvetica,sans-Serif" font-size="10.00"># do_put()</text>
</a>
</g>
</g>
<!-- Node2 -->
<g id="node2" class="node">
<title>Node2</title>
<g id="a_node2"><a xlink:title=" ">
<polygon fill="none" stroke="#bfbfbf" points="22.5,-171.5 22.5,-228.5 95.5,-228.5 95.5,-171.5 22.5,-171.5"/>
<text text-anchor="middle" x="59" y="-216.5" font-family="Helvetica,sans-Serif" font-size="10.00">Locale::facet</text>
<polyline fill="none" stroke="#bfbfbf" points="22.5,-209.5 95.5,-209.5 "/>
<text text-anchor="middle" x="59" y="-197.5" font-family="Helvetica,sans-Serif" font-size="10.00"> </text>
<polyline fill="none" stroke="#bfbfbf" points="22.5,-190.5 95.5,-190.5 "/>
<text text-anchor="middle" x="59" y="-178.5" font-family="Helvetica,sans-Serif" font-size="10.00"> </text>
</a>
</g>
</g>
<!-- Node2&#45;&gt;Node1 -->
<g id="edge1" class="edge">
<title>Node2&#45;&gt;Node1</title>
<path fill="none" stroke="midnightblue" d="M59,-161.16C59,-152.78 59,-143.67 59,-134.53"/>
<polygon fill="none" stroke="midnightblue" points="55.5,-161.32 59,-171.32 62.5,-161.32 55.5,-161.32"/>
</g>
</g>
</svg>
