<?xml version="1.0" encoding="UTF-8" standalone="no"?>
<!DOCTYPE svg PUBLIC "-//W3C//DTD SVG 1.1//EN"
 "http://www.w3.org/Graphics/SVG/1.1/DTD/svg11.dtd">
<!-- Generated by graphviz version 2.43.0 (0)
 -->
<!-- Title: cpptrace::lazy_exception Pages: 1 -->
<svg width="1161pt" height="657pt"
 viewBox="0.00 0.00 1161.00 657.00" xmlns="http://www.w3.org/2000/svg" xmlns:xlink="http://www.w3.org/1999/xlink">
<g id="graph0" class="graph" transform="scale(1 1) rotate(0) translate(4 653)">
<title>cpptrace::lazy_exception</title>
<!-- Node1 -->
<g id="node1" class="node">
<title>Node1</title>
<g id="a_node1"><a xlink:title=" ">
<polygon fill="#bfbfbf" stroke="black" points="613.5,-337.5 613.5,-438.5 738.5,-438.5 738.5,-337.5 613.5,-337.5"/>
<text text-anchor="middle" x="676" y="-426.5" font-family="Helvetica,sans-Serif" font-size="10.00">cpptrace::lazy_exception</text>
<polyline fill="none" stroke="black" points="613.5,-419.5 738.5,-419.5 "/>
<text text-anchor="start" x="621.5" y="-407.5" font-family="Helvetica,sans-Serif" font-size="10.00">&#45; trace_holder</text>
<text text-anchor="start" x="621.5" y="-396.5" font-family="Helvetica,sans-Serif" font-size="10.00">&#45; what_string</text>
<polyline fill="none" stroke="black" points="613.5,-389.5 738.5,-389.5 "/>
<text text-anchor="start" x="621.5" y="-377.5" font-family="Helvetica,sans-Serif" font-size="10.00">+ lazy_exception()</text>
<text text-anchor="start" x="621.5" y="-366.5" font-family="Helvetica,sans-Serif" font-size="10.00">+ what()</text>
<text text-anchor="start" x="621.5" y="-355.5" font-family="Helvetica,sans-Serif" font-size="10.00">+ message()</text>
<text text-anchor="start" x="621.5" y="-344.5" font-family="Helvetica,sans-Serif" font-size="10.00">+ trace()</text>
</a>
</g>
</g>
<!-- Node4 -->
<g id="node4" class="node">
<title>Node4</title>
<g id="a_node4"><a xlink:href="classcpptrace_1_1exception__with__message.html" target="_top" xlink:title=" ">
<polygon fill="none" stroke="#bfbfbf" points="526,-216 526,-295 668,-295 668,-216 526,-216"/>
<text text-anchor="start" x="534" y="-283" font-family="Helvetica,sans-Serif" font-size="10.00">cpptrace::exception</text>
<text text-anchor="middle" x="597" y="-272" font-family="Helvetica,sans-Serif" font-size="10.00">_with_message</text>
<polyline fill="none" stroke="#bfbfbf" points="526,-265 668,-265 "/>
<text text-anchor="start" x="534" y="-253" font-family="Helvetica,sans-Serif" font-size="10.00">&#45; user_message</text>
<polyline fill="none" stroke="#bfbfbf" points="526,-246 668,-246 "/>
<text text-anchor="start" x="534" y="-234" font-family="Helvetica,sans-Serif" font-size="10.00">+ exception_with_message()</text>
<text text-anchor="start" x="534" y="-223" font-family="Helvetica,sans-Serif" font-size="10.00">+ message()</text>
</a>
</g>
</g>
<!-- Node1&#45;&gt;Node4 -->
<g id="edge3" class="edge">
<title>Node1&#45;&gt;Node4</title>
<path fill="none" stroke="midnightblue" d="M640.69,-328.67C633.81,-317.3 626.75,-305.65 620.37,-295.11"/>
<polygon fill="none" stroke="midnightblue" points="637.74,-330.55 645.91,-337.29 643.72,-326.92 637.74,-330.55"/>
</g>
<!-- Node15 -->
<g id="node15" class="node">
<title>Node15</title>
<g id="a_node15"><a xlink:href="classcpptrace_1_1nested__exception.html" target="_top" xlink:title=" ">
<polygon fill="none" stroke="#bfbfbf" points="686.5,-210.5 686.5,-300.5 823.5,-300.5 823.5,-210.5 686.5,-210.5"/>
<text text-anchor="middle" x="755" y="-288.5" font-family="Helvetica,sans-Serif" font-size="10.00">cpptrace::nested_exception</text>
<polyline fill="none" stroke="#bfbfbf" points="686.5,-281.5 823.5,-281.5 "/>
<text text-anchor="start" x="694.5" y="-269.5" font-family="Helvetica,sans-Serif" font-size="10.00">&#45; ptr</text>
<text text-anchor="start" x="694.5" y="-258.5" font-family="Helvetica,sans-Serif" font-size="10.00">&#45; message_value</text>
<polyline fill="none" stroke="#bfbfbf" points="686.5,-251.5 823.5,-251.5 "/>
<text text-anchor="start" x="694.5" y="-239.5" font-family="Helvetica,sans-Serif" font-size="10.00">+ nested_exception()</text>
<text text-anchor="start" x="694.5" y="-228.5" font-family="Helvetica,sans-Serif" font-size="10.00">+ message()</text>
<text text-anchor="start" x="694.5" y="-217.5" font-family="Helvetica,sans-Serif" font-size="10.00">+ nested_ptr()</text>
</a>
</g>
</g>
<!-- Node1&#45;&gt;Node15 -->
<g id="edge14" class="edge">
<title>Node1&#45;&gt;Node15</title>
<path fill="none" stroke="midnightblue" d="M711.3,-328.68C717.03,-319.22 722.88,-309.56 728.35,-300.52"/>
<polygon fill="none" stroke="midnightblue" points="708.28,-326.92 706.09,-337.29 714.26,-330.55 708.28,-326.92"/>
</g>
<!-- Node2 -->
<g id="node2" class="node">
<title>Node2</title>
<g id="a_node2"><a xlink:href="classcpptrace_1_1exception.html" target="_top" xlink:title=" ">
<polygon fill="none" stroke="#bfbfbf" points="625,-475.5 625,-554.5 727,-554.5 727,-475.5 625,-475.5"/>
<text text-anchor="middle" x="676" y="-542.5" font-family="Helvetica,sans-Serif" font-size="10.00">cpptrace::exception</text>
<polyline fill="none" stroke="#bfbfbf" points="625,-535.5 727,-535.5 "/>
<text text-anchor="middle" x="676" y="-523.5" font-family="Helvetica,sans-Serif" font-size="10.00"> </text>
<polyline fill="none" stroke="#bfbfbf" points="625,-516.5 727,-516.5 "/>
<text text-anchor="start" x="633" y="-504.5" font-family="Helvetica,sans-Serif" font-size="10.00">+ what()</text>
<text text-anchor="start" x="633" y="-493.5" font-family="Helvetica,sans-Serif" font-size="10.00">+ message()</text>
<text text-anchor="start" x="633" y="-482.5" font-family="Helvetica,sans-Serif" font-size="10.00">+ trace()</text>
</a>
</g>
</g>
<!-- Node2&#45;&gt;Node1 -->
<g id="edge1" class="edge">
<title>Node2&#45;&gt;Node1</title>
<path fill="none" stroke="midnightblue" d="M676,-465.41C676,-456.64 676,-447.49 676,-438.69"/>
<polygon fill="none" stroke="midnightblue" points="672.5,-465.48 676,-475.48 679.5,-465.48 672.5,-465.48"/>
</g>
<!-- Node3 -->
<g id="node3" class="node">
<title>Node3</title>
<g id="a_node3"><a xlink:title=" ">
<polygon fill="none" stroke="#bfbfbf" points="637,-591.5 637,-648.5 715,-648.5 715,-591.5 637,-591.5"/>
<text text-anchor="middle" x="676" y="-636.5" font-family="Helvetica,sans-Serif" font-size="10.00">std::exception</text>
<polyline fill="none" stroke="#bfbfbf" points="637,-629.5 715,-629.5 "/>
<text text-anchor="middle" x="676" y="-617.5" font-family="Helvetica,sans-Serif" font-size="10.00"> </text>
<polyline fill="none" stroke="#bfbfbf" points="637,-610.5 715,-610.5 "/>
<text text-anchor="middle" x="676" y="-598.5" font-family="Helvetica,sans-Serif" font-size="10.00"> </text>
</a>
</g>
</g>
<!-- Node3&#45;&gt;Node2 -->
<g id="edge2" class="edge">
<title>Node3&#45;&gt;Node2</title>
<path fill="none" stroke="midnightblue" d="M676,-581.16C676,-572.47 676,-563.23 676,-554.52"/>
<polygon fill="none" stroke="midnightblue" points="672.5,-581.4 676,-591.4 679.5,-581.4 672.5,-581.4"/>
</g>
<!-- Node5 -->
<g id="node5" class="node">
<title>Node5</title>
<g id="a_node5"><a xlink:href="classcpptrace_1_1domain__error.html" target="_top" xlink:title=" ">
<polygon fill="none" stroke="#bfbfbf" points="0,-111 0,-168 116,-168 116,-111 0,-111"/>
<text text-anchor="middle" x="58" y="-156" font-family="Helvetica,sans-Serif" font-size="10.00">cpptrace::domain_error</text>
<polyline fill="none" stroke="#bfbfbf" points="0,-149 116,-149 "/>
<text text-anchor="middle" x="58" y="-137" font-family="Helvetica,sans-Serif" font-size="10.00"> </text>
<polyline fill="none" stroke="#bfbfbf" points="0,-130 116,-130 "/>
<text text-anchor="start" x="8" y="-118" font-family="Helvetica,sans-Serif" font-size="10.00">+ domain_error()</text>
</a>
</g>
</g>
<!-- Node4&#45;&gt;Node5 -->
<g id="edge4" class="edge">
<title>Node4&#45;&gt;Node5</title>
<path fill="none" stroke="midnightblue" d="M515.7,-247.96C420.23,-238.62 258.02,-217.53 125,-174 119.81,-172.3 114.52,-170.26 109.3,-168.03"/>
<polygon fill="none" stroke="midnightblue" points="515.57,-251.47 525.86,-248.94 516.24,-244.5 515.57,-251.47"/>
</g>
<!-- Node6 -->
<g id="node6" class="node">
<title>Node6</title>
<g id="a_node6"><a xlink:href="classcpptrace_1_1invalid__argument.html" target="_top" xlink:title=" ">
<polygon fill="none" stroke="#bfbfbf" points="134,-111 134,-168 268,-168 268,-111 134,-111"/>
<text text-anchor="middle" x="201" y="-156" font-family="Helvetica,sans-Serif" font-size="10.00">cpptrace::invalid_argument</text>
<polyline fill="none" stroke="#bfbfbf" points="134,-149 268,-149 "/>
<text text-anchor="middle" x="201" y="-137" font-family="Helvetica,sans-Serif" font-size="10.00"> </text>
<polyline fill="none" stroke="#bfbfbf" points="134,-130 268,-130 "/>
<text text-anchor="start" x="142" y="-118" font-family="Helvetica,sans-Serif" font-size="10.00">+ invalid_argument()</text>
</a>
</g>
</g>
<!-- Node4&#45;&gt;Node6 -->
<g id="edge5" class="edge">
<title>Node4&#45;&gt;Node6</title>
<path fill="none" stroke="midnightblue" d="M515.94,-238.08C450.58,-223.89 356.75,-201.39 277,-174 271.82,-172.22 266.5,-170.23 261.2,-168.13"/>
<polygon fill="none" stroke="midnightblue" points="515.26,-241.51 525.77,-240.2 516.73,-234.67 515.26,-241.51"/>
</g>
<!-- Node7 -->
<g id="node7" class="node">
<title>Node7</title>
<g id="a_node7"><a xlink:href="classcpptrace_1_1length__error.html" target="_top" xlink:title=" ">
<polygon fill="none" stroke="#bfbfbf" points="286.5,-111 286.5,-168 397.5,-168 397.5,-111 286.5,-111"/>
<text text-anchor="middle" x="342" y="-156" font-family="Helvetica,sans-Serif" font-size="10.00">cpptrace::length_error</text>
<polyline fill="none" stroke="#bfbfbf" points="286.5,-149 397.5,-149 "/>
<text text-anchor="middle" x="342" y="-137" font-family="Helvetica,sans-Serif" font-size="10.00"> </text>
<polyline fill="none" stroke="#bfbfbf" points="286.5,-130 397.5,-130 "/>
<text text-anchor="start" x="294.5" y="-118" font-family="Helvetica,sans-Serif" font-size="10.00">+ length_error()</text>
</a>
</g>
</g>
<!-- Node4&#45;&gt;Node7 -->
<g id="edge6" class="edge">
<title>Node4&#45;&gt;Node7</title>
<path fill="none" stroke="midnightblue" d="M516.13,-222.17C481.87,-208.02 441.7,-190.83 406,-174 402.03,-172.13 397.95,-170.14 393.86,-168.11"/>
<polygon fill="none" stroke="midnightblue" points="515.05,-225.5 525.63,-226.07 517.71,-219.03 515.05,-225.5"/>
</g>
<!-- Node8 -->
<g id="node8" class="node">
<title>Node8</title>
<g id="a_node8"><a xlink:href="classcpptrace_1_1logic__error.html" target="_top" xlink:title=" ">
<polygon fill="none" stroke="#bfbfbf" points="415.5,-111 415.5,-168 520.5,-168 520.5,-111 415.5,-111"/>
<text text-anchor="middle" x="468" y="-156" font-family="Helvetica,sans-Serif" font-size="10.00">cpptrace::logic_error</text>
<polyline fill="none" stroke="#bfbfbf" points="415.5,-149 520.5,-149 "/>
<text text-anchor="middle" x="468" y="-137" font-family="Helvetica,sans-Serif" font-size="10.00"> </text>
<polyline fill="none" stroke="#bfbfbf" points="415.5,-130 520.5,-130 "/>
<text text-anchor="start" x="423.5" y="-118" font-family="Helvetica,sans-Serif" font-size="10.00">+ logic_error()</text>
</a>
</g>
</g>
<!-- Node4&#45;&gt;Node8 -->
<g id="edge7" class="edge">
<title>Node4&#45;&gt;Node8</title>
<path fill="none" stroke="midnightblue" d="M545.74,-209.2C530.08,-195.36 513.33,-180.56 499.4,-168.25"/>
<polygon fill="none" stroke="midnightblue" points="543.52,-211.91 553.33,-215.9 548.15,-206.66 543.52,-211.91"/>
</g>
<!-- Node9 -->
<g id="node9" class="node">
<title>Node9</title>
<g id="a_node9"><a xlink:href="classcpptrace_1_1out__of__range.html" target="_top" xlink:title=" ">
<polygon fill="none" stroke="#bfbfbf" points="539,-111 539,-168 655,-168 655,-111 539,-111"/>
<text text-anchor="middle" x="597" y="-156" font-family="Helvetica,sans-Serif" font-size="10.00">cpptrace::out_of_range</text>
<polyline fill="none" stroke="#bfbfbf" points="539,-149 655,-149 "/>
<text text-anchor="middle" x="597" y="-137" font-family="Helvetica,sans-Serif" font-size="10.00"> </text>
<polyline fill="none" stroke="#bfbfbf" points="539,-130 655,-130 "/>
<text text-anchor="start" x="547" y="-118" font-family="Helvetica,sans-Serif" font-size="10.00">+ out_of_range()</text>
</a>
</g>
</g>
<!-- Node4&#45;&gt;Node9 -->
<g id="edge8" class="edge">
<title>Node4&#45;&gt;Node9</title>
<path fill="none" stroke="midnightblue" d="M597,-205.79C597,-192.96 597,-179.55 597,-168.25"/>
<polygon fill="none" stroke="midnightblue" points="593.5,-205.9 597,-215.9 600.5,-205.9 593.5,-205.9"/>
</g>
<!-- Node10 -->
<g id="node10" class="node">
<title>Node10</title>
<g id="a_node10"><a xlink:href="classcpptrace_1_1overflow__error.html" target="_top" xlink:title=" ">
<polygon fill="none" stroke="#bfbfbf" points="673.5,-105.5 673.5,-173.5 770.5,-173.5 770.5,-105.5 673.5,-105.5"/>
<text text-anchor="start" x="681.5" y="-161.5" font-family="Helvetica,sans-Serif" font-size="10.00">cpptrace::overflow</text>
<text text-anchor="middle" x="722" y="-150.5" font-family="Helvetica,sans-Serif" font-size="10.00">_error</text>
<polyline fill="none" stroke="#bfbfbf" points="673.5,-143.5 770.5,-143.5 "/>
<text text-anchor="middle" x="722" y="-131.5" font-family="Helvetica,sans-Serif" font-size="10.00"> </text>
<polyline fill="none" stroke="#bfbfbf" points="673.5,-124.5 770.5,-124.5 "/>
<text text-anchor="start" x="681.5" y="-112.5" font-family="Helvetica,sans-Serif" font-size="10.00">+ overflow_error()</text>
</a>
</g>
</g>
<!-- Node4&#45;&gt;Node10 -->
<g id="edge9" class="edge">
<title>Node4&#45;&gt;Node10</title>
<path fill="none" stroke="midnightblue" d="M646.83,-209.05C659.77,-197.25 673.47,-184.76 685.57,-173.72"/>
<polygon fill="none" stroke="midnightblue" points="644.35,-206.58 639.32,-215.9 649.07,-211.75 644.35,-206.58"/>
</g>
<!-- Node11 -->
<g id="node11" class="node">
<title>Node11</title>
<g id="a_node11"><a xlink:href="classcpptrace_1_1range__error.html" target="_top" xlink:title=" ">
<polygon fill="none" stroke="#bfbfbf" points="788.5,-111 788.5,-168 897.5,-168 897.5,-111 788.5,-111"/>
<text text-anchor="middle" x="843" y="-156" font-family="Helvetica,sans-Serif" font-size="10.00">cpptrace::range_error</text>
<polyline fill="none" stroke="#bfbfbf" points="788.5,-149 897.5,-149 "/>
<text text-anchor="middle" x="843" y="-137" font-family="Helvetica,sans-Serif" font-size="10.00"> </text>
<polyline fill="none" stroke="#bfbfbf" points="788.5,-130 897.5,-130 "/>
<text text-anchor="start" x="796.5" y="-118" font-family="Helvetica,sans-Serif" font-size="10.00">+ range_error()</text>
</a>
</g>
</g>
<!-- Node4&#45;&gt;Node11 -->
<g id="edge10" class="edge">
<title>Node4&#45;&gt;Node11</title>
<path fill="none" stroke="midnightblue" d="M673.95,-211.4C674.97,-210.92 675.99,-210.46 677,-210 720.83,-190.25 734.92,-193.2 779,-174 783.25,-172.15 787.62,-170.13 791.96,-168.03"/>
<polygon fill="none" stroke="midnightblue" points="672.19,-208.36 664.68,-215.83 675.21,-214.67 672.19,-208.36"/>
</g>
<!-- Node12 -->
<g id="node12" class="node">
<title>Node12</title>
<g id="a_node12"><a xlink:href="classcpptrace_1_1runtime__error.html" target="_top" xlink:title=" ">
<polygon fill="none" stroke="#bfbfbf" points="915.5,-111 915.5,-168 1032.5,-168 1032.5,-111 915.5,-111"/>
<text text-anchor="middle" x="974" y="-156" font-family="Helvetica,sans-Serif" font-size="10.00">cpptrace::runtime_error</text>
<polyline fill="none" stroke="#bfbfbf" points="915.5,-149 1032.5,-149 "/>
<text text-anchor="middle" x="974" y="-137" font-family="Helvetica,sans-Serif" font-size="10.00"> </text>
<polyline fill="none" stroke="#bfbfbf" points="915.5,-130 1032.5,-130 "/>
<text text-anchor="start" x="923.5" y="-118" font-family="Helvetica,sans-Serif" font-size="10.00">+ runtime_error()</text>
</a>
</g>
</g>
<!-- Node4&#45;&gt;Node12 -->
<g id="edge11" class="edge">
<title>Node4&#45;&gt;Node12</title>
<path fill="none" stroke="midnightblue" d="M671.41,-212.04C673.27,-211.32 675.14,-210.64 677,-210 774.41,-176.44 807.78,-205.12 906,-174 911.27,-172.33 916.64,-170.31 921.94,-168.09"/>
<polygon fill="none" stroke="midnightblue" points="669.96,-208.85 662.07,-215.92 672.64,-215.32 669.96,-208.85"/>
</g>
<!-- Node14 -->
<g id="node14" class="node">
<title>Node14</title>
<g id="a_node14"><a xlink:href="classcpptrace_1_1underflow__error.html" target="_top" xlink:title=" ">
<polygon fill="none" stroke="#bfbfbf" points="1051,-105.5 1051,-173.5 1153,-173.5 1153,-105.5 1051,-105.5"/>
<text text-anchor="start" x="1059" y="-161.5" font-family="Helvetica,sans-Serif" font-size="10.00">cpptrace::underflow</text>
<text text-anchor="middle" x="1102" y="-150.5" font-family="Helvetica,sans-Serif" font-size="10.00">_error</text>
<polyline fill="none" stroke="#bfbfbf" points="1051,-143.5 1153,-143.5 "/>
<text text-anchor="middle" x="1102" y="-131.5" font-family="Helvetica,sans-Serif" font-size="10.00"> </text>
<polyline fill="none" stroke="#bfbfbf" points="1051,-124.5 1153,-124.5 "/>
<text text-anchor="start" x="1059" y="-112.5" font-family="Helvetica,sans-Serif" font-size="10.00">+ underflow_error()</text>
</a>
</g>
</g>
<!-- Node4&#45;&gt;Node14 -->
<g id="edge13" class="edge">
<title>Node4&#45;&gt;Node14</title>
<path fill="none" stroke="midnightblue" d="M670.52,-212.2C672.68,-211.41 674.84,-210.67 677,-210 832.16,-161.48 885.71,-222.1 1041,-174 1044.23,-173 1047.49,-171.82 1050.72,-170.5"/>
<polygon fill="none" stroke="midnightblue" points="669.04,-209.02 661.05,-215.98 671.64,-215.52 669.04,-209.02"/>
</g>
<!-- Node13 -->
<g id="node13" class="node">
<title>Node13</title>
<g id="a_node13"><a xlink:href="classcpptrace_1_1system__error.html" target="_top" xlink:title=" ">
<polygon fill="none" stroke="#bfbfbf" points="915.5,-0.5 915.5,-68.5 1032.5,-68.5 1032.5,-0.5 915.5,-0.5"/>
<text text-anchor="middle" x="974" y="-56.5" font-family="Helvetica,sans-Serif" font-size="10.00">cpptrace::system_error</text>
<polyline fill="none" stroke="#bfbfbf" points="915.5,-49.5 1032.5,-49.5 "/>
<text text-anchor="start" x="923.5" y="-37.5" font-family="Helvetica,sans-Serif" font-size="10.00">&#45; ec</text>
<polyline fill="none" stroke="#bfbfbf" points="915.5,-30.5 1032.5,-30.5 "/>
<text text-anchor="start" x="923.5" y="-18.5" font-family="Helvetica,sans-Serif" font-size="10.00">+ system_error()</text>
<text text-anchor="start" x="923.5" y="-7.5" font-family="Helvetica,sans-Serif" font-size="10.00">+ code()</text>
</a>
</g>
</g>
<!-- Node12&#45;&gt;Node13 -->
<g id="edge12" class="edge">
<title>Node12&#45;&gt;Node13</title>
<path fill="none" stroke="midnightblue" d="M974,-100.74C974,-90.23 974,-78.9 974,-68.68"/>
<polygon fill="none" stroke="midnightblue" points="970.5,-100.9 974,-110.9 977.5,-100.9 970.5,-100.9"/>
</g>
</g>
</svg>
