<?xml version="1.0" encoding="UTF-8" standalone="no"?>
<!DOCTYPE svg PUBLIC "-//W3C//DTD SVG 1.1//EN"
 "http://www.w3.org/Graphics/SVG/1.1/DTD/svg11.dtd">
<!-- Generated by graphviz version 2.43.0 (0)
 -->
<!-- Title: cpptrace::logic_error Pages: 1 -->
<svg width="150pt" height="530pt"
 viewBox="0.00 0.00 150.00 530.00" xmlns="http://www.w3.org/2000/svg" xmlns:xlink="http://www.w3.org/1999/xlink">
<g id="graph0" class="graph" transform="scale(1 1) rotate(0) translate(4 526)">
<title>cpptrace::logic_error</title>
<!-- Node1 -->
<g id="node1" class="node">
<title>Node1</title>
<g id="a_node1"><a xlink:title=" ">
<polygon fill="#bfbfbf" stroke="black" points="18.5,-0.5 18.5,-57.5 123.5,-57.5 123.5,-0.5 18.5,-0.5"/>
<text text-anchor="middle" x="71" y="-45.5" font-family="Helvetica,sans-Serif" font-size="10.00">cpptrace::logic_error</text>
<polyline fill="none" stroke="black" points="18.5,-38.5 123.5,-38.5 "/>
<text text-anchor="middle" x="71" y="-26.5" font-family="Helvetica,sans-Serif" font-size="10.00"> </text>
<polyline fill="none" stroke="black" points="18.5,-19.5 123.5,-19.5 "/>
<text text-anchor="start" x="26.5" y="-7.5" font-family="Helvetica,sans-Serif" font-size="10.00">+ logic_error()</text>
</a>
</g>
</g>
<!-- Node2 -->
<g id="node2" class="node">
<title>Node2</title>
<g id="a_node2"><a xlink:href="classcpptrace_1_1exception__with__message.html" target="_top" xlink:title=" ">
<polygon fill="none" stroke="#bfbfbf" points="0,-94.5 0,-173.5 142,-173.5 142,-94.5 0,-94.5"/>
<text text-anchor="start" x="8" y="-161.5" font-family="Helvetica,sans-Serif" font-size="10.00">cpptrace::exception</text>
<text text-anchor="middle" x="71" y="-150.5" font-family="Helvetica,sans-Serif" font-size="10.00">_with_message</text>
<polyline fill="none" stroke="#bfbfbf" points="0,-143.5 142,-143.5 "/>
<text text-anchor="start" x="8" y="-131.5" font-family="Helvetica,sans-Serif" font-size="10.00">&#45; user_message</text>
<polyline fill="none" stroke="#bfbfbf" points="0,-124.5 142,-124.5 "/>
<text text-anchor="start" x="8" y="-112.5" font-family="Helvetica,sans-Serif" font-size="10.00">+ exception_with_message()</text>
<text text-anchor="start" x="8" y="-101.5" font-family="Helvetica,sans-Serif" font-size="10.00">+ message()</text>
</a>
</g>
</g>
<!-- Node2&#45;&gt;Node1 -->
<g id="edge1" class="edge">
<title>Node2&#45;&gt;Node1</title>
<path fill="none" stroke="midnightblue" d="M71,-84.16C71,-75.04 71,-65.81 71,-57.61"/>
<polygon fill="none" stroke="midnightblue" points="67.5,-84.35 71,-94.35 74.5,-84.35 67.5,-84.35"/>
</g>
<!-- Node3 -->
<g id="node3" class="node">
<title>Node3</title>
<g id="a_node3"><a xlink:href="classcpptrace_1_1lazy__exception.html" target="_top" xlink:title=" ">
<polygon fill="none" stroke="#bfbfbf" points="8.5,-210.5 8.5,-311.5 133.5,-311.5 133.5,-210.5 8.5,-210.5"/>
<text text-anchor="middle" x="71" y="-299.5" font-family="Helvetica,sans-Serif" font-size="10.00">cpptrace::lazy_exception</text>
<polyline fill="none" stroke="#bfbfbf" points="8.5,-292.5 133.5,-292.5 "/>
<text text-anchor="start" x="16.5" y="-280.5" font-family="Helvetica,sans-Serif" font-size="10.00">&#45; trace_holder</text>
<text text-anchor="start" x="16.5" y="-269.5" font-family="Helvetica,sans-Serif" font-size="10.00">&#45; what_string</text>
<polyline fill="none" stroke="#bfbfbf" points="8.5,-262.5 133.5,-262.5 "/>
<text text-anchor="start" x="16.5" y="-250.5" font-family="Helvetica,sans-Serif" font-size="10.00">+ lazy_exception()</text>
<text text-anchor="start" x="16.5" y="-239.5" font-family="Helvetica,sans-Serif" font-size="10.00">+ what()</text>
<text text-anchor="start" x="16.5" y="-228.5" font-family="Helvetica,sans-Serif" font-size="10.00">+ message()</text>
<text text-anchor="start" x="16.5" y="-217.5" font-family="Helvetica,sans-Serif" font-size="10.00">+ trace()</text>
</a>
</g>
</g>
<!-- Node3&#45;&gt;Node2 -->
<g id="edge2" class="edge">
<title>Node3&#45;&gt;Node2</title>
<path fill="none" stroke="midnightblue" d="M71,-200.19C71,-191.22 71,-182.18 71,-173.81"/>
<polygon fill="none" stroke="midnightblue" points="67.5,-200.24 71,-210.24 74.5,-200.24 67.5,-200.24"/>
</g>
<!-- Node4 -->
<g id="node4" class="node">
<title>Node4</title>
<g id="a_node4"><a xlink:href="classcpptrace_1_1exception.html" target="_top" xlink:title=" ">
<polygon fill="none" stroke="#bfbfbf" points="20,-348.5 20,-427.5 122,-427.5 122,-348.5 20,-348.5"/>
<text text-anchor="middle" x="71" y="-415.5" font-family="Helvetica,sans-Serif" font-size="10.00">cpptrace::exception</text>
<polyline fill="none" stroke="#bfbfbf" points="20,-408.5 122,-408.5 "/>
<text text-anchor="middle" x="71" y="-396.5" font-family="Helvetica,sans-Serif" font-size="10.00"> </text>
<polyline fill="none" stroke="#bfbfbf" points="20,-389.5 122,-389.5 "/>
<text text-anchor="start" x="28" y="-377.5" font-family="Helvetica,sans-Serif" font-size="10.00">+ what()</text>
<text text-anchor="start" x="28" y="-366.5" font-family="Helvetica,sans-Serif" font-size="10.00">+ message()</text>
<text text-anchor="start" x="28" y="-355.5" font-family="Helvetica,sans-Serif" font-size="10.00">+ trace()</text>
</a>
</g>
</g>
<!-- Node4&#45;&gt;Node3 -->
<g id="edge3" class="edge">
<title>Node4&#45;&gt;Node3</title>
<path fill="none" stroke="midnightblue" d="M71,-338.41C71,-329.64 71,-320.49 71,-311.69"/>
<polygon fill="none" stroke="midnightblue" points="67.5,-338.48 71,-348.48 74.5,-338.48 67.5,-338.48"/>
</g>
<!-- Node5 -->
<g id="node5" class="node">
<title>Node5</title>
<g id="a_node5"><a xlink:title=" ">
<polygon fill="none" stroke="#bfbfbf" points="32,-464.5 32,-521.5 110,-521.5 110,-464.5 32,-464.5"/>
<text text-anchor="middle" x="71" y="-509.5" font-family="Helvetica,sans-Serif" font-size="10.00">std::exception</text>
<polyline fill="none" stroke="#bfbfbf" points="32,-502.5 110,-502.5 "/>
<text text-anchor="middle" x="71" y="-490.5" font-family="Helvetica,sans-Serif" font-size="10.00"> </text>
<polyline fill="none" stroke="#bfbfbf" points="32,-483.5 110,-483.5 "/>
<text text-anchor="middle" x="71" y="-471.5" font-family="Helvetica,sans-Serif" font-size="10.00"> </text>
</a>
</g>
</g>
<!-- Node5&#45;&gt;Node4 -->
<g id="edge4" class="edge">
<title>Node5&#45;&gt;Node4</title>
<path fill="none" stroke="midnightblue" d="M71,-454.16C71,-445.47 71,-436.23 71,-427.52"/>
<polygon fill="none" stroke="midnightblue" points="67.5,-454.4 71,-464.4 74.5,-454.4 67.5,-454.4"/>
</g>
</g>
</svg>
