<?xml version="1.0" encoding="UTF-8" standalone="no"?>
<!DOCTYPE svg PUBLIC "-//W3C//DTD SVG 1.1//EN"
 "http://www.w3.org/Graphics/SVG/1.1/DTD/svg11.dtd">
<!-- Generated by graphviz version 2.43.0 (0)
 -->
<!-- Title: cpptrace::system_error Pages: 1 -->
<svg width="150pt" height="635pt"
 viewBox="0.00 0.00 150.00 635.00" xmlns="http://www.w3.org/2000/svg" xmlns:xlink="http://www.w3.org/1999/xlink">
<g id="graph0" class="graph" transform="scale(1 1) rotate(0) translate(4 631)">
<title>cpptrace::system_error</title>
<!-- Node1 -->
<g id="node1" class="node">
<title>Node1</title>
<g id="a_node1"><a xlink:title=" ">
<polygon fill="#bfbfbf" stroke="black" points="12.5,-0.5 12.5,-68.5 129.5,-68.5 129.5,-0.5 12.5,-0.5"/>
<text text-anchor="middle" x="71" y="-56.5" font-family="Helvetica,sans-Serif" font-size="10.00">cpptrace::system_error</text>
<polyline fill="none" stroke="black" points="12.5,-49.5 129.5,-49.5 "/>
<text text-anchor="start" x="20.5" y="-37.5" font-family="Helvetica,sans-Serif" font-size="10.00">&#45; ec</text>
<polyline fill="none" stroke="black" points="12.5,-30.5 129.5,-30.5 "/>
<text text-anchor="start" x="20.5" y="-18.5" font-family="Helvetica,sans-Serif" font-size="10.00">+ system_error()</text>
<text text-anchor="start" x="20.5" y="-7.5" font-family="Helvetica,sans-Serif" font-size="10.00">+ code()</text>
</a>
</g>
</g>
<!-- Node2 -->
<g id="node2" class="node">
<title>Node2</title>
<g id="a_node2"><a xlink:href="classcpptrace_1_1runtime__error.html" target="_top" xlink:title=" ">
<polygon fill="none" stroke="#bfbfbf" points="12.5,-105.5 12.5,-162.5 129.5,-162.5 129.5,-105.5 12.5,-105.5"/>
<text text-anchor="middle" x="71" y="-150.5" font-family="Helvetica,sans-Serif" font-size="10.00">cpptrace::runtime_error</text>
<polyline fill="none" stroke="#bfbfbf" points="12.5,-143.5 129.5,-143.5 "/>
<text text-anchor="middle" x="71" y="-131.5" font-family="Helvetica,sans-Serif" font-size="10.00"> </text>
<polyline fill="none" stroke="#bfbfbf" points="12.5,-124.5 129.5,-124.5 "/>
<text text-anchor="start" x="20.5" y="-112.5" font-family="Helvetica,sans-Serif" font-size="10.00">+ runtime_error()</text>
</a>
</g>
</g>
<!-- Node2&#45;&gt;Node1 -->
<g id="edge1" class="edge">
<title>Node2&#45;&gt;Node1</title>
<path fill="none" stroke="midnightblue" d="M71,-95.06C71,-86.39 71,-77.24 71,-68.79"/>
<polygon fill="none" stroke="midnightblue" points="67.5,-95.32 71,-105.32 74.5,-95.32 67.5,-95.32"/>
</g>
<!-- Node3 -->
<g id="node3" class="node">
<title>Node3</title>
<g id="a_node3"><a xlink:href="classcpptrace_1_1exception__with__message.html" target="_top" xlink:title=" ">
<polygon fill="none" stroke="#bfbfbf" points="0,-199.5 0,-278.5 142,-278.5 142,-199.5 0,-199.5"/>
<text text-anchor="start" x="8" y="-266.5" font-family="Helvetica,sans-Serif" font-size="10.00">cpptrace::exception</text>
<text text-anchor="middle" x="71" y="-255.5" font-family="Helvetica,sans-Serif" font-size="10.00">_with_message</text>
<polyline fill="none" stroke="#bfbfbf" points="0,-248.5 142,-248.5 "/>
<text text-anchor="start" x="8" y="-236.5" font-family="Helvetica,sans-Serif" font-size="10.00">&#45; user_message</text>
<polyline fill="none" stroke="#bfbfbf" points="0,-229.5 142,-229.5 "/>
<text text-anchor="start" x="8" y="-217.5" font-family="Helvetica,sans-Serif" font-size="10.00">+ exception_with_message()</text>
<text text-anchor="start" x="8" y="-206.5" font-family="Helvetica,sans-Serif" font-size="10.00">+ message()</text>
</a>
</g>
</g>
<!-- Node3&#45;&gt;Node2 -->
<g id="edge2" class="edge">
<title>Node3&#45;&gt;Node2</title>
<path fill="none" stroke="midnightblue" d="M71,-189.16C71,-180.04 71,-170.81 71,-162.61"/>
<polygon fill="none" stroke="midnightblue" points="67.5,-189.35 71,-199.35 74.5,-189.35 67.5,-189.35"/>
</g>
<!-- Node4 -->
<g id="node4" class="node">
<title>Node4</title>
<g id="a_node4"><a xlink:href="classcpptrace_1_1lazy__exception.html" target="_top" xlink:title=" ">
<polygon fill="none" stroke="#bfbfbf" points="8.5,-315.5 8.5,-416.5 133.5,-416.5 133.5,-315.5 8.5,-315.5"/>
<text text-anchor="middle" x="71" y="-404.5" font-family="Helvetica,sans-Serif" font-size="10.00">cpptrace::lazy_exception</text>
<polyline fill="none" stroke="#bfbfbf" points="8.5,-397.5 133.5,-397.5 "/>
<text text-anchor="start" x="16.5" y="-385.5" font-family="Helvetica,sans-Serif" font-size="10.00">&#45; trace_holder</text>
<text text-anchor="start" x="16.5" y="-374.5" font-family="Helvetica,sans-Serif" font-size="10.00">&#45; what_string</text>
<polyline fill="none" stroke="#bfbfbf" points="8.5,-367.5 133.5,-367.5 "/>
<text text-anchor="start" x="16.5" y="-355.5" font-family="Helvetica,sans-Serif" font-size="10.00">+ lazy_exception()</text>
<text text-anchor="start" x="16.5" y="-344.5" font-family="Helvetica,sans-Serif" font-size="10.00">+ what()</text>
<text text-anchor="start" x="16.5" y="-333.5" font-family="Helvetica,sans-Serif" font-size="10.00">+ message()</text>
<text text-anchor="start" x="16.5" y="-322.5" font-family="Helvetica,sans-Serif" font-size="10.00">+ trace()</text>
</a>
</g>
</g>
<!-- Node4&#45;&gt;Node3 -->
<g id="edge3" class="edge">
<title>Node4&#45;&gt;Node3</title>
<path fill="none" stroke="midnightblue" d="M71,-305.19C71,-296.22 71,-287.18 71,-278.81"/>
<polygon fill="none" stroke="midnightblue" points="67.5,-305.24 71,-315.24 74.5,-305.24 67.5,-305.24"/>
</g>
<!-- Node5 -->
<g id="node5" class="node">
<title>Node5</title>
<g id="a_node5"><a xlink:href="classcpptrace_1_1exception.html" target="_top" xlink:title=" ">
<polygon fill="none" stroke="#bfbfbf" points="20,-453.5 20,-532.5 122,-532.5 122,-453.5 20,-453.5"/>
<text text-anchor="middle" x="71" y="-520.5" font-family="Helvetica,sans-Serif" font-size="10.00">cpptrace::exception</text>
<polyline fill="none" stroke="#bfbfbf" points="20,-513.5 122,-513.5 "/>
<text text-anchor="middle" x="71" y="-501.5" font-family="Helvetica,sans-Serif" font-size="10.00"> </text>
<polyline fill="none" stroke="#bfbfbf" points="20,-494.5 122,-494.5 "/>
<text text-anchor="start" x="28" y="-482.5" font-family="Helvetica,sans-Serif" font-size="10.00">+ what()</text>
<text text-anchor="start" x="28" y="-471.5" font-family="Helvetica,sans-Serif" font-size="10.00">+ message()</text>
<text text-anchor="start" x="28" y="-460.5" font-family="Helvetica,sans-Serif" font-size="10.00">+ trace()</text>
</a>
</g>
</g>
<!-- Node5&#45;&gt;Node4 -->
<g id="edge4" class="edge">
<title>Node5&#45;&gt;Node4</title>
<path fill="none" stroke="midnightblue" d="M71,-443.41C71,-434.64 71,-425.49 71,-416.69"/>
<polygon fill="none" stroke="midnightblue" points="67.5,-443.48 71,-453.48 74.5,-443.48 67.5,-443.48"/>
</g>
<!-- Node6 -->
<g id="node6" class="node">
<title>Node6</title>
<g id="a_node6"><a xlink:title=" ">
<polygon fill="none" stroke="#bfbfbf" points="32,-569.5 32,-626.5 110,-626.5 110,-569.5 32,-569.5"/>
<text text-anchor="middle" x="71" y="-614.5" font-family="Helvetica,sans-Serif" font-size="10.00">std::exception</text>
<polyline fill="none" stroke="#bfbfbf" points="32,-607.5 110,-607.5 "/>
<text text-anchor="middle" x="71" y="-595.5" font-family="Helvetica,sans-Serif" font-size="10.00"> </text>
<polyline fill="none" stroke="#bfbfbf" points="32,-588.5 110,-588.5 "/>
<text text-anchor="middle" x="71" y="-576.5" font-family="Helvetica,sans-Serif" font-size="10.00"> </text>
</a>
</g>
</g>
<!-- Node6&#45;&gt;Node5 -->
<g id="edge5" class="edge">
<title>Node6&#45;&gt;Node5</title>
<path fill="none" stroke="midnightblue" d="M71,-559.16C71,-550.47 71,-541.23 71,-532.52"/>
<polygon fill="none" stroke="midnightblue" points="67.5,-559.4 71,-569.4 74.5,-559.4 67.5,-559.4"/>
</g>
</g>
</svg>
