<?xml version="1.0" encoding="UTF-8" standalone="no"?>
<!DOCTYPE svg PUBLIC "-//W3C//DTD SVG 1.1//EN"
 "http://www.w3.org/Graphics/SVG/1.1/DTD/svg11.dtd">
<!-- Generated by graphviz version 2.43.0 (0)
 -->
<!-- Title: CPUTable&lt; N, T &gt; Pages: 1 -->
<svg width="107pt" height="204pt"
 viewBox="0.00 0.00 107.00 204.00" xmlns="http://www.w3.org/2000/svg" xmlns:xlink="http://www.w3.org/1999/xlink">
<g id="graph0" class="graph" transform="scale(1 1) rotate(0) translate(4 200)">
<title>CPUTable&lt; N, T &gt;</title>
<!-- Node1 -->
<g id="node1" class="node">
<title>Node1</title>
<g id="a_node1"><a xlink:title=" ">
<polygon fill="#bfbfbf" stroke="black" points="0.5,-0.5 0.5,-101.5 98.5,-101.5 98.5,-0.5 0.5,-0.5"/>
<text text-anchor="middle" x="49.5" y="-89.5" font-family="Helvetica,sans-Serif" font-size="10.00">CPUTable&lt; N, T &gt;</text>
<polyline fill="none" stroke="black" points="0.5,-82.5 98.5,-82.5 "/>
<text text-anchor="middle" x="49.5" y="-70.5" font-family="Helvetica,sans-Serif" font-size="10.00"> </text>
<polyline fill="none" stroke="black" points="0.5,-63.5 98.5,-63.5 "/>
<text text-anchor="start" x="8.5" y="-51.5" font-family="Helvetica,sans-Serif" font-size="10.00">+ CPUTable()</text>
<text text-anchor="start" x="8.5" y="-40.5" font-family="Helvetica,sans-Serif" font-size="10.00">+ CPUTable()</text>
<text text-anchor="start" x="8.5" y="-29.5" font-family="Helvetica,sans-Serif" font-size="10.00">+ CPUTable()</text>
<text text-anchor="start" x="8.5" y="-18.5" font-family="Helvetica,sans-Serif" font-size="10.00">+ data()</text>
<text text-anchor="start" x="8.5" y="-7.5" font-family="Helvetica,sans-Serif" font-size="10.00">+ data()</text>
</a>
</g>
</g>
<!-- Node2 -->
<g id="node2" class="node">
<title>Node2</title>
<g id="a_node2"><a xlink:title=" ">
<polygon fill="none" stroke="#bfbfbf" points="0,-138.5 0,-195.5 99,-195.5 99,-138.5 0,-138.5"/>
<text text-anchor="middle" x="49.5" y="-183.5" font-family="Helvetica,sans-Serif" font-size="10.00">TableBase&lt; N, T &gt;</text>
<polyline fill="none" stroke="#bfbfbf" points="0,-176.5 99,-176.5 "/>
<text text-anchor="middle" x="49.5" y="-164.5" font-family="Helvetica,sans-Serif" font-size="10.00"> </text>
<polyline fill="none" stroke="#bfbfbf" points="0,-157.5 99,-157.5 "/>
<text text-anchor="middle" x="49.5" y="-145.5" font-family="Helvetica,sans-Serif" font-size="10.00"> </text>
</a>
</g>
</g>
<!-- Node2&#45;&gt;Node1 -->
<g id="edge1" class="edge">
<title>Node2&#45;&gt;Node1</title>
<path fill="none" stroke="midnightblue" d="M49.5,-128.35C49.5,-119.8 49.5,-110.58 49.5,-101.61"/>
<polygon fill="none" stroke="midnightblue" points="46,-128.4 49.5,-138.4 53,-128.4 46,-128.4"/>
</g>
</g>
</svg>
