<?xml version="1.0" encoding="UTF-8" standalone="no"?>
<!DOCTYPE svg PUBLIC "-//W3C//DTD SVG 1.1//EN"
 "http://www.w3.org/Graphics/SVG/1.1/DTD/svg11.dtd">
<!-- Generated by graphviz version 2.43.0 (0)
 -->
<!-- Title: cpptrace::nested_exception Pages: 1 -->
<svg width="145pt" height="447pt"
 viewBox="0.00 0.00 145.00 447.00" xmlns="http://www.w3.org/2000/svg" xmlns:xlink="http://www.w3.org/1999/xlink">
<g id="graph0" class="graph" transform="scale(1 1) rotate(0) translate(4 443)">
<title>cpptrace::nested_exception</title>
<!-- Node1 -->
<g id="node1" class="node">
<title>Node1</title>
<g id="a_node1"><a xlink:title=" ">
<polygon fill="#bfbfbf" stroke="black" points="0,-0.5 0,-90.5 137,-90.5 137,-0.5 0,-0.5"/>
<text text-anchor="middle" x="68.5" y="-78.5" font-family="Helvetica,sans-Serif" font-size="10.00">cpptrace::nested_exception</text>
<polyline fill="none" stroke="black" points="0,-71.5 137,-71.5 "/>
<text text-anchor="start" x="8" y="-59.5" font-family="Helvetica,sans-Serif" font-size="10.00">&#45; ptr</text>
<text text-anchor="start" x="8" y="-48.5" font-family="Helvetica,sans-Serif" font-size="10.00">&#45; message_value</text>
<polyline fill="none" stroke="black" points="0,-41.5 137,-41.5 "/>
<text text-anchor="start" x="8" y="-29.5" font-family="Helvetica,sans-Serif" font-size="10.00">+ nested_exception()</text>
<text text-anchor="start" x="8" y="-18.5" font-family="Helvetica,sans-Serif" font-size="10.00">+ message()</text>
<text text-anchor="start" x="8" y="-7.5" font-family="Helvetica,sans-Serif" font-size="10.00">+ nested_ptr()</text>
</a>
</g>
</g>
<!-- Node2 -->
<g id="node2" class="node">
<title>Node2</title>
<g id="a_node2"><a xlink:href="classcpptrace_1_1lazy__exception.html" target="_top" xlink:title=" ">
<polygon fill="none" stroke="#bfbfbf" points="6,-127.5 6,-228.5 131,-228.5 131,-127.5 6,-127.5"/>
<text text-anchor="middle" x="68.5" y="-216.5" font-family="Helvetica,sans-Serif" font-size="10.00">cpptrace::lazy_exception</text>
<polyline fill="none" stroke="#bfbfbf" points="6,-209.5 131,-209.5 "/>
<text text-anchor="start" x="14" y="-197.5" font-family="Helvetica,sans-Serif" font-size="10.00">&#45; trace_holder</text>
<text text-anchor="start" x="14" y="-186.5" font-family="Helvetica,sans-Serif" font-size="10.00">&#45; what_string</text>
<polyline fill="none" stroke="#bfbfbf" points="6,-179.5 131,-179.5 "/>
<text text-anchor="start" x="14" y="-167.5" font-family="Helvetica,sans-Serif" font-size="10.00">+ lazy_exception()</text>
<text text-anchor="start" x="14" y="-156.5" font-family="Helvetica,sans-Serif" font-size="10.00">+ what()</text>
<text text-anchor="start" x="14" y="-145.5" font-family="Helvetica,sans-Serif" font-size="10.00">+ message()</text>
<text text-anchor="start" x="14" y="-134.5" font-family="Helvetica,sans-Serif" font-size="10.00">+ trace()</text>
</a>
</g>
</g>
<!-- Node2&#45;&gt;Node1 -->
<g id="edge1" class="edge">
<title>Node2&#45;&gt;Node1</title>
<path fill="none" stroke="midnightblue" d="M68.5,-117.23C68.5,-108.24 68.5,-99.1 68.5,-90.52"/>
<polygon fill="none" stroke="midnightblue" points="65,-117.29 68.5,-127.29 72,-117.29 65,-117.29"/>
</g>
<!-- Node3 -->
<g id="node3" class="node">
<title>Node3</title>
<g id="a_node3"><a xlink:href="classcpptrace_1_1exception.html" target="_top" xlink:title=" ">
<polygon fill="none" stroke="#bfbfbf" points="17.5,-265.5 17.5,-344.5 119.5,-344.5 119.5,-265.5 17.5,-265.5"/>
<text text-anchor="middle" x="68.5" y="-332.5" font-family="Helvetica,sans-Serif" font-size="10.00">cpptrace::exception</text>
<polyline fill="none" stroke="#bfbfbf" points="17.5,-325.5 119.5,-325.5 "/>
<text text-anchor="middle" x="68.5" y="-313.5" font-family="Helvetica,sans-Serif" font-size="10.00"> </text>
<polyline fill="none" stroke="#bfbfbf" points="17.5,-306.5 119.5,-306.5 "/>
<text text-anchor="start" x="25.5" y="-294.5" font-family="Helvetica,sans-Serif" font-size="10.00">+ what()</text>
<text text-anchor="start" x="25.5" y="-283.5" font-family="Helvetica,sans-Serif" font-size="10.00">+ message()</text>
<text text-anchor="start" x="25.5" y="-272.5" font-family="Helvetica,sans-Serif" font-size="10.00">+ trace()</text>
</a>
</g>
</g>
<!-- Node3&#45;&gt;Node2 -->
<g id="edge2" class="edge">
<title>Node3&#45;&gt;Node2</title>
<path fill="none" stroke="midnightblue" d="M68.5,-255.41C68.5,-246.64 68.5,-237.49 68.5,-228.69"/>
<polygon fill="none" stroke="midnightblue" points="65,-255.48 68.5,-265.48 72,-255.48 65,-255.48"/>
</g>
<!-- Node4 -->
<g id="node4" class="node">
<title>Node4</title>
<g id="a_node4"><a xlink:title=" ">
<polygon fill="none" stroke="#bfbfbf" points="29.5,-381.5 29.5,-438.5 107.5,-438.5 107.5,-381.5 29.5,-381.5"/>
<text text-anchor="middle" x="68.5" y="-426.5" font-family="Helvetica,sans-Serif" font-size="10.00">std::exception</text>
<polyline fill="none" stroke="#bfbfbf" points="29.5,-419.5 107.5,-419.5 "/>
<text text-anchor="middle" x="68.5" y="-407.5" font-family="Helvetica,sans-Serif" font-size="10.00"> </text>
<polyline fill="none" stroke="#bfbfbf" points="29.5,-400.5 107.5,-400.5 "/>
<text text-anchor="middle" x="68.5" y="-388.5" font-family="Helvetica,sans-Serif" font-size="10.00"> </text>
</a>
</g>
</g>
<!-- Node4&#45;&gt;Node3 -->
<g id="edge3" class="edge">
<title>Node4&#45;&gt;Node3</title>
<path fill="none" stroke="midnightblue" d="M68.5,-371.16C68.5,-362.47 68.5,-353.23 68.5,-344.52"/>
<polygon fill="none" stroke="midnightblue" points="65,-371.4 68.5,-381.4 72,-371.4 65,-371.4"/>
</g>
</g>
</svg>
