<?xml version="1.0" encoding="UTF-8" standalone="no"?>
<!DOCTYPE svg PUBLIC "-//W3C//DTD SVG 1.1//EN"
 "http://www.w3.org/Graphics/SVG/1.1/DTD/svg11.dtd">
<!-- Generated by graphviz version 2.43.0 (0)
 -->
<!-- Title: detail::file_base&lt; F &gt; Pages: 1 -->
<svg width="416pt" height="292pt"
 viewBox="0.00 0.00 416.00 292.00" xmlns="http://www.w3.org/2000/svg" xmlns:xlink="http://www.w3.org/1999/xlink">
<g id="graph0" class="graph" transform="scale(1 1) rotate(0) translate(4 288)">
<title>detail::file_base&lt; F &gt;</title>
<!-- Node1 -->
<g id="node1" class="node">
<title>Node1</title>
<g id="a_node1"><a xlink:title=" ">
<polygon fill="#bfbfbf" stroke="black" points="149.5,-182.5 149.5,-283.5 258.5,-283.5 258.5,-182.5 149.5,-182.5"/>
<text text-anchor="middle" x="204" y="-271.5" font-family="Helvetica,sans-Serif" font-size="10.00">detail::file_base&lt; F &gt;</text>
<polyline fill="none" stroke="black" points="149.5,-264.5 258.5,-264.5 "/>
<text text-anchor="start" x="157.5" y="-252.5" font-family="Helvetica,sans-Serif" font-size="10.00">+ file_</text>
<polyline fill="none" stroke="black" points="149.5,-245.5 258.5,-245.5 "/>
<text text-anchor="start" x="157.5" y="-233.5" font-family="Helvetica,sans-Serif" font-size="10.00">+ file_base()</text>
<text text-anchor="start" x="157.5" y="-222.5" font-family="Helvetica,sans-Serif" font-size="10.00">+ operator F*()</text>
<text text-anchor="start" x="157.5" y="-211.5" font-family="Helvetica,sans-Serif" font-size="10.00">+ get()</text>
<text text-anchor="start" x="157.5" y="-200.5" font-family="Helvetica,sans-Serif" font-size="10.00">+ unget()</text>
<text text-anchor="start" x="157.5" y="-189.5" font-family="Helvetica,sans-Serif" font-size="10.00">+ flush()</text>
</a>
</g>
</g>
<!-- Node2 -->
<g id="node2" class="node">
<title>Node2</title>
<g id="a_node2"><a xlink:href="classdetail_1_1apple__file.html" target="_top" xlink:title=" ">
<polygon fill="none" stroke="#bfbfbf" points="0,-17 0,-129 124,-129 124,-17 0,-17"/>
<text text-anchor="middle" x="62" y="-117" font-family="Helvetica,sans-Serif" font-size="10.00">detail::apple_file&lt; F &gt;</text>
<polyline fill="none" stroke="#bfbfbf" points="0,-110 124,-110 "/>
<text text-anchor="middle" x="62" y="-98" font-family="Helvetica,sans-Serif" font-size="10.00"> </text>
<polyline fill="none" stroke="#bfbfbf" points="0,-91 124,-91 "/>
<text text-anchor="start" x="8" y="-79" font-family="Helvetica,sans-Serif" font-size="10.00">+ is_buffered()</text>
<text text-anchor="start" x="8" y="-68" font-family="Helvetica,sans-Serif" font-size="10.00">+ init_buffer()</text>
<text text-anchor="start" x="8" y="-57" font-family="Helvetica,sans-Serif" font-size="10.00">+ get_read_buffer()</text>
<text text-anchor="start" x="8" y="-46" font-family="Helvetica,sans-Serif" font-size="10.00">+ get_write_buffer()</text>
<text text-anchor="start" x="8" y="-35" font-family="Helvetica,sans-Serif" font-size="10.00">+ advance_write_buffer()</text>
<text text-anchor="start" x="8" y="-24" font-family="Helvetica,sans-Serif" font-size="10.00">+ needs_flush()</text>
</a>
</g>
</g>
<!-- Node1&#45;&gt;Node2 -->
<g id="edge1" class="edge">
<title>Node1&#45;&gt;Node2</title>
<path fill="none" stroke="midnightblue" d="M152.57,-174.78C139.21,-159.91 124.84,-143.92 111.57,-129.15"/>
<polygon fill="none" stroke="midnightblue" points="150.17,-177.34 159.46,-182.44 155.38,-172.66 150.17,-177.34"/>
</g>
<!-- Node3 -->
<g id="node3" class="node">
<title>Node3</title>
<g id="a_node3"><a xlink:href="classdetail_1_1fallback__file.html" target="_top" xlink:title=" ">
<polygon fill="none" stroke="#bfbfbf" points="142,-0.5 142,-145.5 266,-145.5 266,-0.5 142,-0.5"/>
<text text-anchor="middle" x="204" y="-133.5" font-family="Helvetica,sans-Serif" font-size="10.00">detail::fallback_file&lt; F &gt;</text>
<polyline fill="none" stroke="#bfbfbf" points="142,-126.5 266,-126.5 "/>
<text text-anchor="start" x="150" y="-114.5" font-family="Helvetica,sans-Serif" font-size="10.00">&#45; next_</text>
<text text-anchor="start" x="150" y="-103.5" font-family="Helvetica,sans-Serif" font-size="10.00">&#45; has_next_</text>
<polyline fill="none" stroke="#bfbfbf" points="142,-96.5 266,-96.5 "/>
<text text-anchor="start" x="150" y="-84.5" font-family="Helvetica,sans-Serif" font-size="10.00">+ is_buffered()</text>
<text text-anchor="start" x="150" y="-73.5" font-family="Helvetica,sans-Serif" font-size="10.00">+ needs_flush()</text>
<text text-anchor="start" x="150" y="-62.5" font-family="Helvetica,sans-Serif" font-size="10.00">+ init_buffer()</text>
<text text-anchor="start" x="150" y="-51.5" font-family="Helvetica,sans-Serif" font-size="10.00">+ get_read_buffer()</text>
<text text-anchor="start" x="150" y="-40.5" font-family="Helvetica,sans-Serif" font-size="10.00">+ get_write_buffer()</text>
<text text-anchor="start" x="150" y="-29.5" font-family="Helvetica,sans-Serif" font-size="10.00">+ advance_write_buffer()</text>
<text text-anchor="start" x="150" y="-18.5" font-family="Helvetica,sans-Serif" font-size="10.00">+ get()</text>
<text text-anchor="start" x="150" y="-7.5" font-family="Helvetica,sans-Serif" font-size="10.00">+ unget()</text>
</a>
</g>
</g>
<!-- Node1&#45;&gt;Node3 -->
<g id="edge2" class="edge">
<title>Node1&#45;&gt;Node3</title>
<path fill="none" stroke="midnightblue" d="M204,-172.38C204,-163.66 204,-154.59 204,-145.66"/>
<polygon fill="none" stroke="midnightblue" points="200.5,-172.44 204,-182.44 207.5,-172.44 200.5,-172.44"/>
</g>
<!-- Node4 -->
<g id="node4" class="node">
<title>Node4</title>
<g id="a_node4"><a xlink:href="classdetail_1_1glibc__file.html" target="_top" xlink:title=" ">
<polygon fill="none" stroke="#bfbfbf" points="284,-11.5 284,-134.5 408,-134.5 408,-11.5 284,-11.5"/>
<text text-anchor="middle" x="346" y="-122.5" font-family="Helvetica,sans-Serif" font-size="10.00">detail::glibc_file&lt; F &gt;</text>
<polyline fill="none" stroke="#bfbfbf" points="284,-115.5 408,-115.5 "/>
<text text-anchor="middle" x="346" y="-103.5" font-family="Helvetica,sans-Serif" font-size="10.00"> </text>
<polyline fill="none" stroke="#bfbfbf" points="284,-96.5 408,-96.5 "/>
<text text-anchor="start" x="292" y="-84.5" font-family="Helvetica,sans-Serif" font-size="10.00">+ is_buffered()</text>
<text text-anchor="start" x="292" y="-73.5" font-family="Helvetica,sans-Serif" font-size="10.00">+ init_buffer()</text>
<text text-anchor="start" x="292" y="-62.5" font-family="Helvetica,sans-Serif" font-size="10.00">+ get_read_buffer()</text>
<text text-anchor="start" x="292" y="-51.5" font-family="Helvetica,sans-Serif" font-size="10.00">+ get_write_buffer()</text>
<text text-anchor="start" x="292" y="-40.5" font-family="Helvetica,sans-Serif" font-size="10.00">+ advance_write_buffer()</text>
<text text-anchor="start" x="292" y="-29.5" font-family="Helvetica,sans-Serif" font-size="10.00">+ needs_flush()</text>
<text text-anchor="start" x="292" y="-18.5" font-family="Helvetica,sans-Serif" font-size="10.00">+ flush()</text>
</a>
</g>
</g>
<!-- Node1&#45;&gt;Node4 -->
<g id="edge3" class="edge">
<title>Node1&#45;&gt;Node4</title>
<path fill="none" stroke="midnightblue" d="M255.34,-174.88C267.05,-161.85 279.54,-147.95 291.38,-134.77"/>
<polygon fill="none" stroke="midnightblue" points="252.62,-172.66 248.54,-182.44 257.83,-177.34 252.62,-172.66"/>
</g>
</g>
</svg>
