<?xml version="1.0" encoding="UTF-8" standalone="no"?>
<!DOCTYPE svg PUBLIC "-//W3C//DTD SVG 1.1//EN"
 "http://www.w3.org/Graphics/SVG/1.1/DTD/svg11.dtd">
<!-- Generated by graphviz version 2.43.0 (0)
 -->
<!-- Title: include/cluster_tree/cluster.h Pages: 1 -->
<svg width="1907pt" height="162pt"
 viewBox="0.00 0.00 1906.50 162.00" xmlns="http://www.w3.org/2000/svg" xmlns:xlink="http://www.w3.org/1999/xlink">
<g id="graph0" class="graph" transform="scale(1 1) rotate(0) translate(4 158)">
<title>include/cluster_tree/cluster.h</title>
<!-- Node1 -->
<g id="node1" class="node">
<title>Node1</title>
<g id="a_node1"><a xlink:title="Implementation of the class Cluster.">
<polygon fill="#bfbfbf" stroke="black" points="730.5,-123.5 730.5,-153.5 831.5,-153.5 831.5,-123.5 730.5,-123.5"/>
<text text-anchor="start" x="738.5" y="-141.5" font-family="Helvetica,sans-Serif" font-size="10.00">include/cluster_tree</text>
<text text-anchor="middle" x="781" y="-130.5" font-family="Helvetica,sans-Serif" font-size="10.00">/cluster.h</text>
</a>
</g>
</g>
<!-- Node2 -->
<g id="node2" class="node">
<title>Node2</title>
<g id="a_node2"><a xlink:title=" ">
<polygon fill="none" stroke="#bfbfbf" points="0,-0.5 0,-30.5 106,-30.5 106,-0.5 0,-0.5"/>
<text text-anchor="start" x="8" y="-18.5" font-family="Helvetica,sans-Serif" font-size="10.00">deal.II/base/memory</text>
<text text-anchor="middle" x="53" y="-7.5" font-family="Helvetica,sans-Serif" font-size="10.00">_consumption.h</text>
</a>
</g>
</g>
<!-- Node1&#45;&gt;Node2 -->
<g id="edge1" class="edge">
<title>Node1&#45;&gt;Node2</title>
<path fill="none" stroke="midnightblue" d="M730.2,-130.8C620.05,-115.97 350.9,-78.08 116.15,-31.16"/>
<polygon fill="midnightblue" stroke="midnightblue" points="116.55,-27.67 106.05,-29.13 115.17,-34.54 116.55,-27.67"/>
</g>
<!-- Node3 -->
<g id="node3" class="node">
<title>Node3</title>
<g id="a_node3"><a xlink:title=" ">
<polygon fill="none" stroke="#bfbfbf" points="834.5,-6 834.5,-25 937.5,-25 937.5,-6 834.5,-6"/>
<text text-anchor="middle" x="886" y="-13" font-family="Helvetica,sans-Serif" font-size="10.00">deal.II/base/types.h</text>
</a>
</g>
</g>
<!-- Node1&#45;&gt;Node3 -->
<g id="edge2" class="edge">
<title>Node1&#45;&gt;Node3</title>
<path fill="none" stroke="midnightblue" d="M793.46,-123.14C813.1,-100.51 851.16,-56.65 871.82,-32.84"/>
<polygon fill="midnightblue" stroke="midnightblue" points="874.67,-34.9 878.58,-25.05 869.38,-30.31 874.67,-34.9"/>
</g>
<!-- Node4 -->
<g id="node4" class="node">
<title>Node4</title>
<g id="a_node4"><a xlink:title=" ">
<polygon fill="none" stroke="#bfbfbf" points="659,-67.5 659,-86.5 715,-86.5 715,-67.5 659,-67.5"/>
<text text-anchor="middle" x="687" y="-74.5" font-family="Helvetica,sans-Serif" font-size="10.00">algorithm</text>
</a>
</g>
</g>
<!-- Node1&#45;&gt;Node4 -->
<g id="edge3" class="edge">
<title>Node1&#45;&gt;Node4</title>
<path fill="none" stroke="midnightblue" d="M758.72,-123.4C743.8,-113.95 724.22,-101.56 709.29,-92.11"/>
<polygon fill="midnightblue" stroke="midnightblue" points="711,-89.05 700.68,-86.66 707.26,-94.96 711,-89.05"/>
</g>
<!-- Node5 -->
<g id="node5" class="node">
<title>Node5</title>
<g id="a_node5"><a xlink:title=" ">
<polygon fill="none" stroke="#bfbfbf" points="956,-6 956,-25 994,-25 994,-6 956,-6"/>
<text text-anchor="middle" x="975" y="-13" font-family="Helvetica,sans-Serif" font-size="10.00">array</text>
</a>
</g>
</g>
<!-- Node1&#45;&gt;Node5 -->
<g id="edge4" class="edge">
<title>Node1&#45;&gt;Node5</title>
<path fill="none" stroke="midnightblue" d="M803.63,-123.38C841.04,-100.05 915.33,-53.71 952.59,-30.47"/>
<polygon fill="midnightblue" stroke="midnightblue" points="954.59,-33.35 961.22,-25.09 950.89,-27.41 954.59,-33.35"/>
</g>
<!-- Node6 -->
<g id="node6" class="node">
<title>Node6</title>
<g id="a_node6"><a xlink:title=" ">
<polygon fill="none" stroke="#bfbfbf" points="1012.5,-6 1012.5,-25 1059.5,-25 1059.5,-6 1012.5,-6"/>
<text text-anchor="middle" x="1036" y="-13" font-family="Helvetica,sans-Serif" font-size="10.00">iterator</text>
</a>
</g>
</g>
<!-- Node1&#45;&gt;Node6 -->
<g id="edge5" class="edge">
<title>Node1&#45;&gt;Node6</title>
<path fill="none" stroke="midnightblue" d="M812.69,-123.37C834.95,-113.37 865.39,-99.56 892,-87 933.38,-67.46 981.01,-43.94 1009.79,-29.61"/>
<polygon fill="midnightblue" stroke="midnightblue" points="1011.4,-32.72 1018.79,-25.12 1008.28,-26.45 1011.4,-32.72"/>
</g>
<!-- Node7 -->
<g id="node7" class="node">
<title>Node7</title>
<g id="a_node7"><a xlink:title=" ">
<polygon fill="none" stroke="#bfbfbf" points="584,-6 584,-25 628,-25 628,-6 584,-6"/>
<text text-anchor="middle" x="606" y="-13" font-family="Helvetica,sans-Serif" font-size="10.00">vector</text>
</a>
</g>
</g>
<!-- Node1&#45;&gt;Node7 -->
<g id="edge6" class="edge">
<title>Node1&#45;&gt;Node7</title>
<path fill="none" stroke="midnightblue" d="M772.58,-123.28C762.68,-107.64 744.93,-82.64 724,-67 690.48,-41.96 675.3,-47.87 637,-31 635.81,-30.47 634.59,-29.93 633.36,-29.38"/>
<polygon fill="midnightblue" stroke="midnightblue" points="634.52,-26.06 623.97,-25.07 631.6,-32.42 634.52,-26.06"/>
</g>
<!-- Node8 -->
<g id="node8" class="node">
<title>Node8</title>
<g id="a_node8"><a xlink:href="config_8h.html" target="_top" xlink:title="Configurations for building the project.">
<polygon fill="none" stroke="black" points="646.5,-6 646.5,-25 697.5,-25 697.5,-6 646.5,-6"/>
<text text-anchor="middle" x="672" y="-13" font-family="Helvetica,sans-Serif" font-size="10.00">config.h</text>
</a>
</g>
</g>
<!-- Node1&#45;&gt;Node8 -->
<g id="edge7" class="edge">
<title>Node1&#45;&gt;Node8</title>
<path fill="none" stroke="midnightblue" d="M779.15,-123.39C776.52,-108.07 770.44,-83.57 757,-67 748.81,-56.9 720.52,-41.05 698.8,-29.81"/>
<polygon fill="midnightblue" stroke="midnightblue" points="700.18,-26.58 689.68,-25.15 697,-32.82 700.18,-26.58"/>
</g>
<!-- Node9 -->
<g id="node9" class="node">
<title>Node9</title>
<g id="a_node9"><a xlink:href="simple__bounding__box_8h_source.html" target="_top" xlink:title=" ">
<polygon fill="none" stroke="black" points="454.5,-67.5 454.5,-86.5 573.5,-86.5 573.5,-67.5 454.5,-67.5"/>
<text text-anchor="middle" x="514" y="-74.5" font-family="Helvetica,sans-Serif" font-size="10.00">simple_bounding_box.h</text>
</a>
</g>
</g>
<!-- Node1&#45;&gt;Node9 -->
<g id="edge8" class="edge">
<title>Node1&#45;&gt;Node9</title>
<path fill="none" stroke="midnightblue" d="M730.47,-126.24C682.15,-115.47 609.83,-99.35 562.28,-88.76"/>
<polygon fill="midnightblue" stroke="midnightblue" points="562.76,-85.28 552.23,-86.52 561.23,-92.11 562.76,-85.28"/>
</g>
<!-- Node15 -->
<g id="node15" class="node">
<title>Node15</title>
<g id="a_node15"><a xlink:href="generic__functors_8h.html" target="_top" xlink:title="This header file contains a set of self&#45;defined generic functors.">
<polygon fill="none" stroke="black" points="1060.5,-67.5 1060.5,-86.5 1191.5,-86.5 1191.5,-67.5 1060.5,-67.5"/>
<text text-anchor="middle" x="1126" y="-74.5" font-family="Helvetica,sans-Serif" font-size="10.00">utilities/generic_functors.h</text>
</a>
</g>
</g>
<!-- Node1&#45;&gt;Node15 -->
<g id="edge17" class="edge">
<title>Node1&#45;&gt;Node15</title>
<path fill="none" stroke="midnightblue" d="M831.54,-128.78C894.02,-118.01 1000.22,-99.69 1066.56,-88.25"/>
<polygon fill="midnightblue" stroke="midnightblue" points="1067.19,-91.69 1076.45,-86.55 1066,-84.8 1067.19,-91.69"/>
</g>
<!-- Node9&#45;&gt;Node2 -->
<g id="edge9" class="edge">
<title>Node9&#45;&gt;Node2</title>
<path fill="none" stroke="midnightblue" d="M454.2,-71.46C377.96,-65.18 241.94,-52.34 116.21,-31.08"/>
<polygon fill="midnightblue" stroke="midnightblue" points="116.46,-27.57 106.02,-29.33 115.28,-34.47 116.46,-27.57"/>
</g>
<!-- Node9&#45;&gt;Node7 -->
<g id="edge15" class="edge">
<title>Node9&#45;&gt;Node7</title>
<path fill="none" stroke="midnightblue" d="M527.18,-67.48C542.07,-57.84 566.54,-42.02 584.27,-30.55"/>
<polygon fill="midnightblue" stroke="midnightblue" points="586.35,-33.38 592.84,-25.01 582.55,-27.5 586.35,-33.38"/>
</g>
<!-- Node9&#45;&gt;Node8 -->
<g id="edge16" class="edge">
<title>Node9&#45;&gt;Node8</title>
<path fill="none" stroke="midnightblue" d="M538.62,-67.34C563.53,-58.49 603.1,-44.22 637,-31 638.64,-30.36 640.33,-29.69 642.02,-29.02"/>
<polygon fill="midnightblue" stroke="midnightblue" points="643.76,-32.09 651.7,-25.08 641.12,-25.61 643.76,-32.09"/>
</g>
<!-- Node10 -->
<g id="node10" class="node">
<title>Node10</title>
<g id="a_node10"><a xlink:title=" ">
<polygon fill="none" stroke="#bfbfbf" points="716,-6 716,-25 816,-25 816,-6 716,-6"/>
<text text-anchor="middle" x="766" y="-13" font-family="Helvetica,sans-Serif" font-size="10.00">deal.II/base/point.h</text>
</a>
</g>
</g>
<!-- Node9&#45;&gt;Node10 -->
<g id="edge10" class="edge">
<title>Node9&#45;&gt;Node10</title>
<path fill="none" stroke="midnightblue" d="M550.83,-67.45C589.49,-58.45 652.04,-43.84 706,-31 710.77,-29.87 715.74,-28.67 720.71,-27.48"/>
<polygon fill="midnightblue" stroke="midnightblue" points="721.89,-30.8 730.79,-25.05 720.25,-23.99 721.89,-30.8"/>
</g>
<!-- Node11 -->
<g id="node11" class="node">
<title>Node11</title>
<g id="a_node11"><a xlink:title=" ">
<polygon fill="none" stroke="#bfbfbf" points="182.5,-6 182.5,-25 309.5,-25 309.5,-6 182.5,-6"/>
<text text-anchor="middle" x="246" y="-13" font-family="Helvetica,sans-Serif" font-size="10.00">deal.II/dofs/dof_handler.h</text>
</a>
</g>
</g>
<!-- Node9&#45;&gt;Node11 -->
<g id="edge11" class="edge">
<title>Node9&#45;&gt;Node11</title>
<path fill="none" stroke="midnightblue" d="M475.6,-67.48C427.84,-56.87 346.26,-38.76 294.3,-27.22"/>
<polygon fill="midnightblue" stroke="midnightblue" points="294.85,-23.76 284.33,-25.01 293.33,-30.59 294.85,-23.76"/>
</g>
<!-- Node12 -->
<g id="node12" class="node">
<title>Node12</title>
<g id="a_node12"><a xlink:title=" ">
<polygon fill="none" stroke="#bfbfbf" points="328,-6 328,-25 444,-25 444,-6 328,-6"/>
<text text-anchor="middle" x="386" y="-13" font-family="Helvetica,sans-Serif" font-size="10.00">deal.II/dofs/dof_tools.h</text>
</a>
</g>
</g>
<!-- Node9&#45;&gt;Node12 -->
<g id="edge12" class="edge">
<title>Node9&#45;&gt;Node12</title>
<path fill="none" stroke="midnightblue" d="M495.66,-67.48C474.18,-57.49 438.38,-40.85 413.55,-29.31"/>
<polygon fill="midnightblue" stroke="midnightblue" points="414.85,-26.05 404.31,-25.01 411.9,-32.4 414.85,-26.05"/>
</g>
<!-- Node13 -->
<g id="node13" class="node">
<title>Node13</title>
<g id="a_node13"><a xlink:title=" ">
<polygon fill="none" stroke="#bfbfbf" points="462.5,-6 462.5,-25 565.5,-25 565.5,-6 462.5,-6"/>
<text text-anchor="middle" x="514" y="-13" font-family="Helvetica,sans-Serif" font-size="10.00">deal.II/fe/mapping.h</text>
</a>
</g>
</g>
<!-- Node9&#45;&gt;Node13 -->
<g id="edge13" class="edge">
<title>Node9&#45;&gt;Node13</title>
<path fill="none" stroke="midnightblue" d="M514,-67.48C514,-59.08 514,-45.98 514,-35.16"/>
<polygon fill="midnightblue" stroke="midnightblue" points="517.5,-35.01 514,-25.01 510.5,-35.01 517.5,-35.01"/>
</g>
<!-- Node14 -->
<g id="node14" class="node">
<title>Node14</title>
<g id="a_node14"><a xlink:title=" ">
<polygon fill="none" stroke="#bfbfbf" points="124,-6 124,-25 164,-25 164,-6 124,-6"/>
<text text-anchor="middle" x="144" y="-13" font-family="Helvetica,sans-Serif" font-size="10.00">utility</text>
</a>
</g>
</g>
<!-- Node9&#45;&gt;Node14 -->
<g id="edge14" class="edge">
<title>Node9&#45;&gt;Node14</title>
<path fill="none" stroke="midnightblue" d="M454.2,-74.09C385.1,-70.53 268.63,-60.31 173,-31 171.33,-30.49 169.65,-29.89 167.97,-29.23"/>
<polygon fill="midnightblue" stroke="midnightblue" points="169.21,-25.95 158.66,-25.01 166.32,-32.33 169.21,-25.95"/>
</g>
<!-- Node15&#45;&gt;Node3 -->
<g id="edge21" class="edge">
<title>Node15&#45;&gt;Node3</title>
<path fill="none" stroke="midnightblue" d="M1091.61,-67.48C1049.11,-56.94 976.7,-38.99 930.13,-27.44"/>
<polygon fill="midnightblue" stroke="midnightblue" points="930.87,-24.02 920.32,-25.01 929.19,-30.81 930.87,-24.02"/>
</g>
<!-- Node15&#45;&gt;Node5 -->
<g id="edge24" class="edge">
<title>Node15&#45;&gt;Node5</title>
<path fill="none" stroke="midnightblue" d="M1100.44,-67.49C1075.53,-58.99 1036.73,-45.17 1004,-31 1002.84,-30.5 1001.66,-29.97 1000.47,-29.43"/>
<polygon fill="midnightblue" stroke="midnightblue" points="1001.95,-26.26 991.41,-25.1 998.93,-32.57 1001.95,-26.26"/>
</g>
<!-- Node15&#45;&gt;Node6 -->
<g id="edge28" class="edge">
<title>Node15&#45;&gt;Node6</title>
<path fill="none" stroke="midnightblue" d="M1113.11,-67.48C1098.54,-57.84 1074.6,-42.02 1057.25,-30.55"/>
<polygon fill="midnightblue" stroke="midnightblue" points="1059.14,-27.6 1048.87,-25.01 1055.28,-33.44 1059.14,-27.6"/>
</g>
<!-- Node15&#45;&gt;Node7 -->
<g id="edge31" class="edge">
<title>Node15&#45;&gt;Node7</title>
<path fill="none" stroke="midnightblue" d="M1060.39,-72.77C946.06,-66.67 715.07,-52.16 637,-31 635.06,-30.48 633.1,-29.84 631.15,-29.12"/>
<polygon fill="midnightblue" stroke="midnightblue" points="632.26,-25.79 621.69,-25.12 629.53,-32.24 632.26,-25.79"/>
</g>
<!-- Node15&#45;&gt;Node8 -->
<g id="edge32" class="edge">
<title>Node15&#45;&gt;Node8</title>
<path fill="none" stroke="midnightblue" d="M1060.38,-74.72C977.02,-71.79 829.28,-62.21 707,-31 704.49,-30.36 701.93,-29.57 699.38,-28.7"/>
<polygon fill="midnightblue" stroke="midnightblue" points="700.42,-25.35 689.83,-25.04 697.91,-31.89 700.42,-25.35"/>
</g>
<!-- Node15&#45;&gt;Node10 -->
<g id="edge19" class="edge">
<title>Node15&#45;&gt;Node10</title>
<path fill="none" stroke="midnightblue" d="M1060.46,-67.86C999.5,-59.89 906.25,-46.68 826,-31 820.48,-29.92 814.7,-28.67 809,-27.37"/>
<polygon fill="midnightblue" stroke="midnightblue" points="809.43,-23.88 798.9,-25 807.83,-30.7 809.43,-23.88"/>
</g>
<!-- Node16 -->
<g id="node16" class="node">
<title>Node16</title>
<g id="a_node16"><a xlink:title=" ">
<polygon fill="none" stroke="#bfbfbf" points="1158,-6 1158,-25 1284,-25 1284,-6 1158,-6"/>
<text text-anchor="middle" x="1221" y="-13" font-family="Helvetica,sans-Serif" font-size="10.00">deal.II/base/exceptions.h</text>
</a>
</g>
</g>
<!-- Node15&#45;&gt;Node16 -->
<g id="edge18" class="edge">
<title>Node15&#45;&gt;Node16</title>
<path fill="none" stroke="midnightblue" d="M1139.61,-67.48C1155.06,-57.8 1180.49,-41.87 1198.82,-30.39"/>
<polygon fill="midnightblue" stroke="midnightblue" points="1200.8,-33.28 1207.41,-25.01 1197.08,-27.35 1200.8,-33.28"/>
</g>
<!-- Node17 -->
<g id="node17" class="node">
<title>Node17</title>
<g id="a_node17"><a xlink:title=" ">
<polygon fill="none" stroke="#bfbfbf" points="1302,-6 1302,-25 1408,-25 1408,-6 1302,-6"/>
<text text-anchor="middle" x="1355" y="-13" font-family="Helvetica,sans-Serif" font-size="10.00">deal.II/base/tensor.h</text>
</a>
</g>
</g>
<!-- Node15&#45;&gt;Node17 -->
<g id="edge20" class="edge">
<title>Node15&#45;&gt;Node17</title>
<path fill="none" stroke="midnightblue" d="M1158.81,-67.48C1199.2,-56.98 1267.88,-39.14 1312.33,-27.59"/>
<polygon fill="midnightblue" stroke="midnightblue" points="1313.45,-30.91 1322.25,-25.01 1311.69,-24.14 1313.45,-30.91"/>
</g>
<!-- Node18 -->
<g id="node18" class="node">
<title>Node18</title>
<g id="a_node18"><a xlink:title=" ">
<polygon fill="none" stroke="#bfbfbf" points="1426.5,-0.5 1426.5,-30.5 1517.5,-30.5 1517.5,-0.5 1426.5,-0.5"/>
<text text-anchor="start" x="1434.5" y="-18.5" font-family="Helvetica,sans-Serif" font-size="10.00">deal.II/lac/lapack</text>
<text text-anchor="middle" x="1472" y="-7.5" font-family="Helvetica,sans-Serif" font-size="10.00">_support.h</text>
</a>
</g>
</g>
<!-- Node15&#45;&gt;Node18 -->
<g id="edge22" class="edge">
<title>Node15&#45;&gt;Node18</title>
<path fill="none" stroke="midnightblue" d="M1191.65,-67.84C1248.61,-60.31 1333.42,-48 1416.6,-30.94"/>
<polygon fill="midnightblue" stroke="midnightblue" points="1417.39,-34.35 1426.47,-28.9 1415.97,-27.5 1417.39,-34.35"/>
</g>
<!-- Node19 -->
<g id="node19" class="node">
<title>Node19</title>
<g id="a_node19"><a xlink:title=" ">
<polygon fill="none" stroke="#bfbfbf" points="1536,-6 1536,-25 1634,-25 1634,-6 1536,-6"/>
<text text-anchor="middle" x="1585" y="-13" font-family="Helvetica,sans-Serif" font-size="10.00">deal.II/lac/vector.h</text>
</a>
</g>
</g>
<!-- Node15&#45;&gt;Node19 -->
<g id="edge23" class="edge">
<title>Node15&#45;&gt;Node19</title>
<path fill="none" stroke="midnightblue" d="M1191.68,-71.33C1271.42,-65.04 1409.8,-52.13 1527,-31 1532.55,-30 1538.37,-28.77 1544.07,-27.45"/>
<polygon fill="midnightblue" stroke="midnightblue" points="1545.26,-30.77 1554.16,-25.02 1543.62,-23.96 1545.26,-30.77"/>
</g>
<!-- Node20 -->
<g id="node20" class="node">
<title>Node20</title>
<g id="a_node20"><a xlink:title=" ">
<polygon fill="none" stroke="#bfbfbf" points="1652,-6 1652,-25 1696,-25 1696,-6 1652,-6"/>
<text text-anchor="middle" x="1674" y="-13" font-family="Helvetica,sans-Serif" font-size="10.00">cmath</text>
</a>
</g>
</g>
<!-- Node15&#45;&gt;Node20 -->
<g id="edge25" class="edge">
<title>Node15&#45;&gt;Node20</title>
<path fill="none" stroke="midnightblue" d="M1191.58,-73.15C1311.07,-67.48 1559.57,-53.39 1643,-31 1644.94,-30.48 1646.9,-29.85 1648.85,-29.14"/>
<polygon fill="midnightblue" stroke="midnightblue" points="1650.47,-32.25 1658.32,-25.14 1647.74,-25.81 1650.47,-32.25"/>
</g>
<!-- Node21 -->
<g id="node21" class="node">
<title>Node21</title>
<g id="a_node21"><a xlink:title=" ">
<polygon fill="none" stroke="#bfbfbf" points="1714,-6 1714,-25 1760,-25 1760,-6 1714,-6"/>
<text text-anchor="middle" x="1737" y="-13" font-family="Helvetica,sans-Serif" font-size="10.00">cstring</text>
</a>
</g>
</g>
<!-- Node15&#45;&gt;Node21 -->
<g id="edge26" class="edge">
<title>Node15&#45;&gt;Node21</title>
<path fill="none" stroke="midnightblue" d="M1191.73,-73.76C1322.21,-68.84 1609.55,-55.53 1705,-31 1707.21,-30.43 1709.45,-29.72 1711.68,-28.92"/>
<polygon fill="midnightblue" stroke="midnightblue" points="1713.22,-32.07 1721.12,-25.01 1710.54,-25.6 1713.22,-32.07"/>
</g>
<!-- Node22 -->
<g id="node22" class="node">
<title>Node22</title>
<g id="a_node22"><a xlink:title=" ">
<polygon fill="none" stroke="#bfbfbf" points="1778.5,-6 1778.5,-25 1845.5,-25 1845.5,-6 1778.5,-6"/>
<text text-anchor="middle" x="1812" y="-13" font-family="Helvetica,sans-Serif" font-size="10.00">forward_list</text>
</a>
</g>
</g>
<!-- Node15&#45;&gt;Node22 -->
<g id="edge27" class="edge">
<title>Node15&#45;&gt;Node22</title>
<path fill="none" stroke="midnightblue" d="M1191.53,-76.89C1308.64,-77.28 1561.06,-72.62 1769,-31 1772.69,-30.26 1776.51,-29.29 1780.27,-28.2"/>
<polygon fill="midnightblue" stroke="midnightblue" points="1781.5,-31.49 1789.98,-25.13 1779.39,-24.81 1781.5,-31.49"/>
</g>
<!-- Node23 -->
<g id="node23" class="node">
<title>Node23</title>
<g id="a_node23"><a xlink:title=" ">
<polygon fill="none" stroke="#bfbfbf" points="1863.5,-6 1863.5,-25 1898.5,-25 1898.5,-6 1863.5,-6"/>
<text text-anchor="middle" x="1881" y="-13" font-family="Helvetica,sans-Serif" font-size="10.00">map</text>
</a>
</g>
</g>
<!-- Node15&#45;&gt;Node23 -->
<g id="edge29" class="edge">
<title>Node15&#45;&gt;Node23</title>
<path fill="none" stroke="midnightblue" d="M1191.78,-75.66C1346.89,-74.26 1731.72,-67.14 1855,-31 1856.43,-30.58 1857.86,-30.07 1859.28,-29.5"/>
<polygon fill="midnightblue" stroke="midnightblue" points="1860.85,-32.63 1868.28,-25.08 1857.76,-26.35 1860.85,-32.63"/>
</g>
<!-- Node24 -->
<g id="node24" class="node">
<title>Node24</title>
<g id="a_node24"><a xlink:title=" ">
<polygon fill="none" stroke="#bfbfbf" points="1078,-6 1078,-25 1140,-25 1140,-6 1078,-6"/>
<text text-anchor="middle" x="1109" y="-13" font-family="Helvetica,sans-Serif" font-size="10.00">type_traits</text>
</a>
</g>
</g>
<!-- Node15&#45;&gt;Node24 -->
<g id="edge30" class="edge">
<title>Node15&#45;&gt;Node24</title>
<path fill="none" stroke="midnightblue" d="M1123.56,-67.48C1121.14,-58.99 1117.34,-45.7 1114.23,-34.82"/>
<polygon fill="midnightblue" stroke="midnightblue" points="1117.54,-33.66 1111.43,-25.01 1110.81,-35.59 1117.54,-33.66"/>
</g>
</g>
</svg>
