<?xml version="1.0" encoding="UTF-8" standalone="no"?>
<!DOCTYPE svg PUBLIC "-//W3C//DTD SVG 1.1//EN"
 "http://www.w3.org/Graphics/SVG/1.1/DTD/svg11.dtd">
<!-- Generated by graphviz version 2.43.0 (0)
 -->
<!-- Title: include/cluster_tree/cluster.h Pages: 1 -->
<svg width="1217pt" height="798pt"
 viewBox="0.00 0.00 1217.00 798.00" xmlns="http://www.w3.org/2000/svg" xmlns:xlink="http://www.w3.org/1999/xlink">
<g id="graph0" class="graph" transform="scale(1 1) rotate(0) translate(4 794)">
<title>include/cluster_tree/cluster.h</title>
<!-- Node1 -->
<g id="node1" class="node">
<title>Node1</title>
<g id="a_node1"><a xlink:title="Implementation of the class Cluster.">
<polygon fill="#bfbfbf" stroke="black" points="1058.5,-759.5 1058.5,-789.5 1159.5,-789.5 1159.5,-759.5 1058.5,-759.5"/>
<text text-anchor="start" x="1066.5" y="-777.5" font-family="Helvetica,sans-Serif" font-size="10.00">include/cluster_tree</text>
<text text-anchor="middle" x="1109" y="-766.5" font-family="Helvetica,sans-Serif" font-size="10.00">/cluster.h</text>
</a>
</g>
</g>
<!-- Node2 -->
<g id="node2" class="node">
<title>Node2</title>
<g id="a_node2"><a xlink:href="block__cluster_8h.html" target="_top" xlink:title="Implementation of the class BlockCluster.">
<polygon fill="none" stroke="black" points="1019.5,-625.5 1019.5,-655.5 1120.5,-655.5 1120.5,-625.5 1019.5,-625.5"/>
<text text-anchor="start" x="1027.5" y="-643.5" font-family="Helvetica,sans-Serif" font-size="10.00">include/cluster_tree</text>
<text text-anchor="middle" x="1070" y="-632.5" font-family="Helvetica,sans-Serif" font-size="10.00">/block_cluster.h</text>
</a>
</g>
</g>
<!-- Node1&#45;&gt;Node2 -->
<g id="edge1" class="edge">
<title>Node1&#45;&gt;Node2</title>
<path fill="none" stroke="midnightblue" d="M1099.33,-749.58C1096.14,-741.25 1092.72,-731.78 1090,-723 1082.8,-699.76 1076.49,-672.16 1072.96,-655.77"/>
<polygon fill="midnightblue" stroke="midnightblue" points="1096.14,-751.04 1103.05,-759.07 1102.66,-748.49 1096.14,-751.04"/>
</g>
<!-- Node26 -->
<g id="node26" class="node">
<title>Node26</title>
<g id="a_node26"><a xlink:href="cluster__tree_8h_source.html" target="_top" xlink:title=" ">
<polygon fill="none" stroke="black" points="1098.5,-692.5 1098.5,-722.5 1199.5,-722.5 1199.5,-692.5 1098.5,-692.5"/>
<text text-anchor="start" x="1106.5" y="-710.5" font-family="Helvetica,sans-Serif" font-size="10.00">include/cluster_tree</text>
<text text-anchor="middle" x="1149" y="-699.5" font-family="Helvetica,sans-Serif" font-size="10.00">/cluster_tree.h</text>
</a>
</g>
</g>
<!-- Node1&#45;&gt;Node26 -->
<g id="edge44" class="edge">
<title>Node1&#45;&gt;Node26</title>
<path fill="none" stroke="midnightblue" d="M1122.93,-750.87C1128.72,-741.46 1135.26,-730.83 1140.34,-722.58"/>
<polygon fill="midnightblue" stroke="midnightblue" points="1119.94,-749.05 1117.68,-759.4 1125.9,-752.71 1119.94,-749.05"/>
</g>
<!-- Node3 -->
<g id="node3" class="node">
<title>Node3</title>
<g id="a_node3"><a xlink:href="block__cluster__tree_8h.html" target="_top" xlink:title="Implementation of the class BlockClusterTree.">
<polygon fill="none" stroke="black" points="1073.5,-558.5 1073.5,-588.5 1180.5,-588.5 1180.5,-558.5 1073.5,-558.5"/>
<text text-anchor="start" x="1081.5" y="-576.5" font-family="Helvetica,sans-Serif" font-size="10.00">include/cluster_tree</text>
<text text-anchor="middle" x="1127" y="-565.5" font-family="Helvetica,sans-Serif" font-size="10.00">/block_cluster_tree.h</text>
</a>
</g>
</g>
<!-- Node2&#45;&gt;Node3 -->
<g id="edge2" class="edge">
<title>Node2&#45;&gt;Node3</title>
<path fill="none" stroke="midnightblue" d="M1089.09,-617.74C1097.52,-608.12 1107.19,-597.09 1114.66,-588.58"/>
<polygon fill="midnightblue" stroke="midnightblue" points="1086.33,-615.57 1082.37,-625.4 1091.59,-620.18 1086.33,-615.57"/>
</g>
<!-- Node4 -->
<g id="node4" class="node">
<title>Node4</title>
<g id="a_node4"><a xlink:href="hmatrix_8h.html" target="_top" xlink:title="Definition of hierarchical matrix.">
<polygon fill="none" stroke="black" points="606,-502.5 606,-521.5 732,-521.5 732,-502.5 606,-502.5"/>
<text text-anchor="middle" x="669" y="-509.5" font-family="Helvetica,sans-Serif" font-size="10.00">include/hmatrix/hmatrix.h</text>
</a>
</g>
</g>
<!-- Node2&#45;&gt;Node4 -->
<g id="edge43" class="edge">
<title>Node2&#45;&gt;Node4</title>
<path fill="none" stroke="midnightblue" d="M1015.89,-622.43C929.12,-595.06 761.94,-542.32 696.36,-521.63"/>
<polygon fill="midnightblue" stroke="midnightblue" points="1014.96,-625.81 1025.55,-625.48 1017.07,-619.13 1014.96,-625.81"/>
</g>
<!-- Node3&#45;&gt;Node4 -->
<g id="edge3" class="edge">
<title>Node3&#45;&gt;Node4</title>
<path fill="none" stroke="midnightblue" d="M1063.05,-564.19C975.51,-552.82 819.33,-532.53 732.19,-521.21"/>
<polygon fill="midnightblue" stroke="midnightblue" points="1062.75,-567.68 1073.11,-565.5 1063.65,-560.74 1062.75,-567.68"/>
</g>
<!-- Node13 -->
<g id="node13" class="node">
<title>Node13</title>
<g id="a_node13"><a xlink:href="laplace__bem_8priv_8hcu_source.html" target="_top" xlink:title=" ">
<polygon fill="none" stroke="black" points="881.5,-134.5 881.5,-164.5 996.5,-164.5 996.5,-134.5 881.5,-134.5"/>
<text text-anchor="start" x="889.5" y="-152.5" font-family="Helvetica,sans-Serif" font-size="10.00">include/laplace/laplace</text>
<text text-anchor="middle" x="939" y="-141.5" font-family="Helvetica,sans-Serif" font-size="10.00">_bem.priv.hcu</text>
</a>
</g>
</g>
<!-- Node3&#45;&gt;Node13 -->
<g id="edge41" class="edge">
<title>Node3&#45;&gt;Node13</title>
<path fill="none" stroke="midnightblue" d="M1140.93,-549.29C1153.82,-525.57 1171,-487.26 1171,-451.5 1171,-451.5 1171,-451.5 1171,-299 1171,-216.39 1065.36,-177.65 996.65,-161.19"/>
<polygon fill="midnightblue" stroke="midnightblue" points="1137.76,-547.78 1135.9,-558.21 1143.86,-551.22 1137.76,-547.78"/>
</g>
<!-- Node16 -->
<g id="node16" class="node">
<title>Node16</title>
<g id="a_node16"><a xlink:href="operator__preconditioner_8h.html" target="_top" xlink:title=" ">
<polygon fill="none" stroke="black" points="585.5,-285 585.5,-315 714.5,-315 714.5,-285 585.5,-285"/>
<text text-anchor="start" x="593.5" y="-303" font-family="Helvetica,sans-Serif" font-size="10.00">include/preconditioners</text>
<text text-anchor="middle" x="650" y="-292" font-family="Helvetica,sans-Serif" font-size="10.00">/operator_preconditioner.h</text>
</a>
</g>
</g>
<!-- Node3&#45;&gt;Node16 -->
<g id="edge42" class="edge">
<title>Node3&#45;&gt;Node16</title>
<path fill="none" stroke="midnightblue" d="M1131.88,-548.28C1136.43,-518.41 1139.22,-467.6 1114,-435 1051.8,-354.61 996.56,-385.54 899,-357 837.12,-338.9 765.15,-323.28 714.54,-313.18"/>
<polygon fill="midnightblue" stroke="midnightblue" points="1128.41,-547.82 1130.17,-558.27 1135.31,-549 1128.41,-547.82"/>
</g>
<!-- Node5 -->
<g id="node5" class="node">
<title>Node5</title>
<g id="a_node5"><a xlink:href="ddm__efield_8h.html" target="_top" xlink:title="Introduction of ddm_efield.h.">
<polygon fill="none" stroke="black" points="66.5,-134.5 66.5,-164.5 171.5,-164.5 171.5,-134.5 66.5,-134.5"/>
<text text-anchor="start" x="74.5" y="-152.5" font-family="Helvetica,sans-Serif" font-size="10.00">include/electric_field</text>
<text text-anchor="middle" x="119" y="-141.5" font-family="Helvetica,sans-Serif" font-size="10.00">/ddm_efield.h</text>
</a>
</g>
</g>
<!-- Node4&#45;&gt;Node5 -->
<g id="edge4" class="edge">
<title>Node4&#45;&gt;Node5</title>
<path fill="none" stroke="midnightblue" d="M595.68,-511.82C422.01,-511.8 0,-499.35 0,-379 0,-379 0,-379 0,-299 0,-238.05 61.81,-187.82 96.34,-164.52"/>
<polygon fill="midnightblue" stroke="midnightblue" points="595.77,-515.32 605.76,-511.81 595.76,-508.32 595.77,-515.32"/>
</g>
<!-- Node6 -->
<g id="node6" class="node">
<title>Node6</title>
<g id="a_node6"><a xlink:href="subdomain__steklov__poincare__hmatrix_8h.html" target="_top" xlink:title="Introduction of subdomain_steklov_poincare_hmatrix.h.">
<polygon fill="none" stroke="black" points="197,-357.5 197,-398.5 343,-398.5 343,-357.5 197,-357.5"/>
<text text-anchor="start" x="205" y="-386.5" font-family="Helvetica,sans-Serif" font-size="10.00">include/electric_field</text>
<text text-anchor="start" x="205" y="-375.5" font-family="Helvetica,sans-Serif" font-size="10.00">/subdomain_steklov_poincare</text>
<text text-anchor="middle" x="270" y="-364.5" font-family="Helvetica,sans-Serif" font-size="10.00">_hmatrix.h</text>
</a>
</g>
</g>
<!-- Node4&#45;&gt;Node6 -->
<g id="edge5" class="edge">
<title>Node4&#45;&gt;Node6</title>
<path fill="none" stroke="midnightblue" d="M595.77,-507.32C489.55,-501.28 302.92,-487.69 281,-466 263.47,-448.65 263.72,-418.42 266.27,-398.56"/>
<polygon fill="midnightblue" stroke="midnightblue" points="595.62,-510.82 605.8,-507.88 596.01,-503.83 595.62,-510.82"/>
</g>
<!-- Node12 -->
<g id="node12" class="node">
<title>Node12</title>
<g id="a_node12"><a xlink:href="aca__plus_8hcu.html" target="_top" xlink:title="Implement the ACA+ method proposed in Grasedyck, L. 2005. “Adaptive Recompression of &#45;Matrices for BE...">
<polygon fill="none" stroke="black" points="788.5,-363 788.5,-393 889.5,-393 889.5,-363 788.5,-363"/>
<text text-anchor="start" x="796.5" y="-381" font-family="Helvetica,sans-Serif" font-size="10.00">include/hmatrix/aca</text>
<text text-anchor="middle" x="839" y="-370" font-family="Helvetica,sans-Serif" font-size="10.00">_plus/aca_plus.hcu</text>
</a>
</g>
</g>
<!-- Node4&#45;&gt;Node12 -->
<g id="edge16" class="edge">
<title>Node4&#45;&gt;Node12</title>
<path fill="none" stroke="midnightblue" d="M670.42,-491.93C672.65,-474.99 678.36,-450.55 693,-435 696.88,-430.87 757.83,-408.3 799.74,-393.1"/>
<polygon fill="midnightblue" stroke="midnightblue" points="666.9,-491.96 669.37,-502.27 673.86,-492.67 666.9,-491.96"/>
</g>
<!-- Node4&#45;&gt;Node13 -->
<g id="edge33" class="edge">
<title>Node4&#45;&gt;Node13</title>
<path fill="none" stroke="midnightblue" d="M677.48,-492.98C686.8,-475.27 703.49,-448.94 726,-435 801.3,-388.37 856.52,-458.64 922,-399 989.78,-337.27 956.96,-207.36 943.67,-164.53"/>
<polygon fill="midnightblue" stroke="midnightblue" points="674.19,-491.74 672.86,-502.25 680.45,-494.86 674.19,-491.74"/>
</g>
<!-- Node4&#45;&gt;Node16 -->
<g id="edge34" class="edge">
<title>Node4&#45;&gt;Node16</title>
<path fill="none" stroke="midnightblue" d="M595.82,-503C568.09,-496.75 537.95,-485.66 516,-466 491.96,-444.47 494.35,-430.64 488,-399 484.33,-380.7 477.17,-372.2 488,-357 510.01,-326.1 550.28,-312.09 585.17,-305.81"/>
<polygon fill="midnightblue" stroke="midnightblue" points="595.41,-506.49 605.91,-505.09 596.83,-499.64 595.41,-506.49"/>
</g>
<!-- Node20 -->
<g id="node20" class="node">
<title>Node20</title>
<g id="a_node20"><a xlink:href="hblockmatrix__skew__symm_8h.html" target="_top" xlink:title="Introduction of hblockmatrix_skew_symm.h.">
<polygon fill="none" stroke="black" points="963.5,-435.5 963.5,-465.5 1104.5,-465.5 1104.5,-435.5 963.5,-435.5"/>
<text text-anchor="start" x="971.5" y="-453.5" font-family="Helvetica,sans-Serif" font-size="10.00">include/hmatrix/hblockmatrix</text>
<text text-anchor="middle" x="1034" y="-442.5" font-family="Helvetica,sans-Serif" font-size="10.00">_skew_symm.h</text>
</a>
</g>
</g>
<!-- Node4&#45;&gt;Node20 -->
<g id="edge26" class="edge">
<title>Node4&#45;&gt;Node20</title>
<path fill="none" stroke="midnightblue" d="M735.4,-500.95C793.2,-492.1 879.22,-478.68 954,-466 957.06,-465.48 960.19,-464.94 963.35,-464.4"/>
<polygon fill="midnightblue" stroke="midnightblue" points="734.66,-497.53 725.3,-502.5 735.71,-504.44 734.66,-497.53"/>
</g>
<!-- Node21 -->
<g id="node21" class="node">
<title>Node21</title>
<g id="a_node21"><a xlink:href="hblockmatrix__skew__symm__preconditioner_8h.html" target="_top" xlink:title="Introduction of hblockmatrix_skew_symm_preconditioner.h.">
<polygon fill="none" stroke="black" points="735,-435.5 735,-465.5 945,-465.5 945,-435.5 735,-435.5"/>
<text text-anchor="start" x="743" y="-453.5" font-family="Helvetica,sans-Serif" font-size="10.00">include/hmatrix/preconditioner</text>
<text text-anchor="middle" x="840" y="-442.5" font-family="Helvetica,sans-Serif" font-size="10.00">/hblockmatrix_skew_symm_preconditioner.h</text>
</a>
</g>
</g>
<!-- Node4&#45;&gt;Node21 -->
<g id="edge28" class="edge">
<title>Node4&#45;&gt;Node21</title>
<path fill="none" stroke="midnightblue" d="M703.19,-499.1C731.02,-489.42 770.34,-475.74 799.7,-465.52"/>
<polygon fill="midnightblue" stroke="midnightblue" points="701.79,-495.88 693.5,-502.48 704.09,-502.49 701.79,-495.88"/>
</g>
<!-- Node22 -->
<g id="node22" class="node">
<title>Node22</title>
<g id="a_node22"><a xlink:href="hmatrix__symm__preconditioner_8h.html" target="_top" xlink:title="Symmetric &#45;matrix by inheriting from HMatrix, which is used as the preconditioner for SPD &#45;matrices.">
<polygon fill="none" stroke="black" points="290,-435.5 290,-465.5 448,-465.5 448,-435.5 290,-435.5"/>
<text text-anchor="start" x="298" y="-453.5" font-family="Helvetica,sans-Serif" font-size="10.00">include/hmatrix/preconditioner</text>
<text text-anchor="middle" x="369" y="-442.5" font-family="Helvetica,sans-Serif" font-size="10.00">/hmatrix_symm_preconditioner.h</text>
</a>
</g>
</g>
<!-- Node4&#45;&gt;Node22 -->
<g id="edge30" class="edge">
<title>Node4&#45;&gt;Node22</title>
<path fill="none" stroke="midnightblue" d="M615.94,-500.48C566.9,-490.75 493.69,-476.23 439.7,-465.52"/>
<polygon fill="midnightblue" stroke="midnightblue" points="615.53,-503.96 626.02,-502.48 616.89,-497.1 615.53,-503.96"/>
</g>
<!-- Node23 -->
<g id="node23" class="node">
<title>Node23</title>
<g id="a_node23"><a xlink:href="sauter__quadrature_8hcu_source.html" target="_top" xlink:title=" ">
<polygon fill="none" stroke="black" points="525,-435.5 525,-465.5 641,-465.5 641,-435.5 525,-435.5"/>
<text text-anchor="start" x="533" y="-453.5" font-family="Helvetica,sans-Serif" font-size="10.00">include/quadrature</text>
<text text-anchor="middle" x="583" y="-442.5" font-family="Helvetica,sans-Serif" font-size="10.00">/sauter_quadrature.hcu</text>
</a>
</g>
</g>
<!-- Node4&#45;&gt;Node23 -->
<g id="edge35" class="edge">
<title>Node4&#45;&gt;Node23</title>
<path fill="none" stroke="midnightblue" d="M648.39,-496.74C634.72,-487.28 616.87,-474.93 603.27,-465.52"/>
<polygon fill="midnightblue" stroke="midnightblue" points="646.46,-499.66 656.68,-502.48 650.45,-493.91 646.46,-499.66"/>
</g>
<!-- Node6&#45;&gt;Node5 -->
<g id="edge6" class="edge">
<title>Node6&#45;&gt;Node5</title>
<path fill="none" stroke="midnightblue" d="M186.87,-365.7C134.25,-356.65 73.18,-341.98 57,-321 18.73,-271.36 77.42,-195.87 105.46,-164.71"/>
<polygon fill="midnightblue" stroke="midnightblue" points="186.49,-369.19 196.93,-367.38 187.64,-362.28 186.49,-369.19"/>
</g>
<!-- Node7 -->
<g id="node7" class="node">
<title>Node7</title>
<g id="a_node7"><a xlink:href="ddm__efield__matrix_8h.html" target="_top" xlink:title="Introduction of ddm_efield_matrix.h.">
<polygon fill="none" stroke="black" points="110.5,-207 110.5,-237 217.5,-237 217.5,-207 110.5,-207"/>
<text text-anchor="start" x="118.5" y="-225" font-family="Helvetica,sans-Serif" font-size="10.00">include/electric_field</text>
<text text-anchor="middle" x="164" y="-214" font-family="Helvetica,sans-Serif" font-size="10.00">/ddm_efield_matrix.h</text>
</a>
</g>
</g>
<!-- Node6&#45;&gt;Node7 -->
<g id="edge7" class="edge">
<title>Node6&#45;&gt;Node7</title>
<path fill="none" stroke="midnightblue" d="M313.89,-351.1C323.99,-342.85 333.4,-332.76 339,-321 347.03,-304.15 350.01,-294.08 339,-279 324.47,-259.1 263.74,-242.82 217.86,-233.04"/>
<polygon fill="midnightblue" stroke="midnightblue" points="311.55,-348.48 305.7,-357.32 315.78,-354.06 311.55,-348.48"/>
</g>
<!-- Node8 -->
<g id="node8" class="node">
<title>Node8</title>
<g id="a_node8"><a xlink:href="subdomain__hmatrix__for__charge__neutrality__eqn_8h.html" target="_top" xlink:title="Introduction of subdomain_hmatrix_for_charge_neutrality_eqn.h.">
<polygon fill="none" stroke="black" points="66.5,-279.5 66.5,-320.5 191.5,-320.5 191.5,-279.5 66.5,-279.5"/>
<text text-anchor="start" x="74.5" y="-308.5" font-family="Helvetica,sans-Serif" font-size="10.00">include/electric_field</text>
<text text-anchor="start" x="74.5" y="-297.5" font-family="Helvetica,sans-Serif" font-size="10.00">/subdomain_hmatrix_for</text>
<text text-anchor="middle" x="129" y="-286.5" font-family="Helvetica,sans-Serif" font-size="10.00">_charge_neutrality_eqn.h</text>
</a>
</g>
</g>
<!-- Node6&#45;&gt;Node8 -->
<g id="edge9" class="edge">
<title>Node6&#45;&gt;Node8</title>
<path fill="none" stroke="midnightblue" d="M224.78,-352.63C205.51,-342.24 183.34,-330.29 165.19,-320.51"/>
<polygon fill="midnightblue" stroke="midnightblue" points="223.23,-355.76 233.69,-357.43 226.55,-349.6 223.23,-355.76"/>
</g>
<!-- Node9 -->
<g id="node9" class="node">
<title>Node9</title>
<g id="a_node9"><a xlink:href="subdomain__hmatrix__for__global__preconditioning_8h.html" target="_top" xlink:title="Introduction of subdomain_hmatrix_for_global_preconditioning.h.">
<polygon fill="none" stroke="black" points="387,-279.5 387,-320.5 513,-320.5 513,-279.5 387,-279.5"/>
<text text-anchor="start" x="395" y="-308.5" font-family="Helvetica,sans-Serif" font-size="10.00">include/electric_field</text>
<text text-anchor="start" x="395" y="-297.5" font-family="Helvetica,sans-Serif" font-size="10.00">/subdomain_hmatrix_for</text>
<text text-anchor="middle" x="450" y="-286.5" font-family="Helvetica,sans-Serif" font-size="10.00">_global_preconditioning.h</text>
</a>
</g>
</g>
<!-- Node6&#45;&gt;Node9 -->
<g id="edge11" class="edge">
<title>Node6&#45;&gt;Node9</title>
<path fill="none" stroke="midnightblue" d="M325.73,-353.47C350.78,-342.89 380,-330.56 403.8,-320.51"/>
<polygon fill="midnightblue" stroke="midnightblue" points="324.21,-350.31 316.35,-357.43 326.93,-356.76 324.21,-350.31"/>
</g>
<!-- Node11 -->
<g id="node11" class="node">
<title>Node11</title>
<g id="a_node11"><a xlink:href="subdomain__hmatrix__for__transmission__eqn_8h.html" target="_top" xlink:title="Introduction of subdomain_hmatrix_for_transmission_eqn.h.">
<polygon fill="none" stroke="black" points="209.5,-279.5 209.5,-320.5 330.5,-320.5 330.5,-279.5 209.5,-279.5"/>
<text text-anchor="start" x="217.5" y="-308.5" font-family="Helvetica,sans-Serif" font-size="10.00">include/electric_field</text>
<text text-anchor="start" x="217.5" y="-297.5" font-family="Helvetica,sans-Serif" font-size="10.00">/subdomain_hmatrix_for</text>
<text text-anchor="middle" x="270" y="-286.5" font-family="Helvetica,sans-Serif" font-size="10.00">_transmission_eqn.h</text>
</a>
</g>
</g>
<!-- Node6&#45;&gt;Node11 -->
<g id="edge14" class="edge">
<title>Node6&#45;&gt;Node11</title>
<path fill="none" stroke="midnightblue" d="M270,-347.3C270,-338.3 270,-328.65 270,-320.51"/>
<polygon fill="midnightblue" stroke="midnightblue" points="266.5,-347.43 270,-357.43 273.5,-347.43 266.5,-347.43"/>
</g>
<!-- Node7&#45;&gt;Node5 -->
<g id="edge8" class="edge">
<title>Node7&#45;&gt;Node5</title>
<path fill="none" stroke="midnightblue" d="M149.36,-198.06C142.35,-187.09 134.19,-174.3 128.09,-164.75"/>
<polygon fill="midnightblue" stroke="midnightblue" points="146.56,-200.19 154.89,-206.73 152.46,-196.42 146.56,-200.19"/>
</g>
<!-- Node8&#45;&gt;Node7 -->
<g id="edge10" class="edge">
<title>Node8&#45;&gt;Node7</title>
<path fill="none" stroke="midnightblue" d="M142.22,-270.3C147.42,-259 153.17,-246.52 157.45,-237.23"/>
<polygon fill="midnightblue" stroke="midnightblue" points="139.02,-268.88 138.01,-279.43 145.38,-271.81 139.02,-268.88"/>
</g>
<!-- Node10 -->
<g id="node10" class="node">
<title>Node10</title>
<g id="a_node10"><a xlink:href="ddm__efield__global__preconditioner_8h.html" target="_top" xlink:title="Introduction of ddm_efield_global_preconditioner.h.">
<polygon fill="none" stroke="black" points="271,-207 271,-237 443,-237 443,-207 271,-207"/>
<text text-anchor="start" x="279" y="-225" font-family="Helvetica,sans-Serif" font-size="10.00">include/electric_field</text>
<text text-anchor="middle" x="357" y="-214" font-family="Helvetica,sans-Serif" font-size="10.00">/ddm_efield_global_preconditioner.h</text>
</a>
</g>
</g>
<!-- Node9&#45;&gt;Node10 -->
<g id="edge12" class="edge">
<title>Node9&#45;&gt;Node10</title>
<path fill="none" stroke="midnightblue" d="M418.17,-272.99C403.52,-261.02 386.7,-247.27 374.41,-237.23"/>
<polygon fill="midnightblue" stroke="midnightblue" points="416.09,-275.81 426.05,-279.43 420.52,-270.39 416.09,-275.81"/>
</g>
<!-- Node10&#45;&gt;Node5 -->
<g id="edge13" class="edge">
<title>Node10&#45;&gt;Node5</title>
<path fill="none" stroke="midnightblue" d="M299.91,-204.09C259.18,-192.02 205.03,-175.98 166.62,-164.61"/>
<polygon fill="midnightblue" stroke="midnightblue" points="299.11,-207.5 309.69,-206.99 301.1,-200.79 299.11,-207.5"/>
</g>
<!-- Node11&#45;&gt;Node7 -->
<g id="edge15" class="edge">
<title>Node11&#45;&gt;Node7</title>
<path fill="none" stroke="midnightblue" d="M234.19,-273.32C217.38,-261.27 197.98,-247.36 183.84,-237.23"/>
<polygon fill="midnightblue" stroke="midnightblue" points="232.54,-276.45 242.7,-279.43 236.61,-270.76 232.54,-276.45"/>
</g>
<!-- Node12&#45;&gt;Node13 -->
<g id="edge17" class="edge">
<title>Node12&#45;&gt;Node13</title>
<path fill="none" stroke="midnightblue" d="M806.69,-356.96C794.71,-347.65 782.48,-335.43 776,-321 768.35,-303.97 765.63,-294.52 776,-279 799.25,-244.21 829.38,-267.91 863,-243 892.89,-220.85 918.14,-184.45 930.62,-164.56"/>
<polygon fill="midnightblue" stroke="midnightblue" points="804.73,-359.86 814.87,-362.94 808.86,-354.21 804.73,-359.86"/>
</g>
<!-- Node12&#45;&gt;Node16 -->
<g id="edge20" class="edge">
<title>Node12&#45;&gt;Node16</title>
<path fill="none" stroke="midnightblue" d="M794.35,-359.05C760.9,-345.59 715.76,-327.44 684.92,-315.04"/>
<polygon fill="midnightblue" stroke="midnightblue" points="793.31,-362.4 803.89,-362.88 795.92,-355.9 793.31,-362.4"/>
</g>
<!-- Node19 -->
<g id="node19" class="node">
<title>Node19</title>
<g id="a_node19"><a xlink:href="aca__plus_8cu_source.html" target="_top" xlink:title=" ">
<polygon fill="none" stroke="black" points="784.5,-285 784.5,-315 891.5,-315 891.5,-285 784.5,-285"/>
<text text-anchor="start" x="792.5" y="-303" font-family="Helvetica,sans-Serif" font-size="10.00">src/hmatrix/aca_plus</text>
<text text-anchor="middle" x="838" y="-292" font-family="Helvetica,sans-Serif" font-size="10.00">/aca_plus.cu</text>
</a>
</g>
</g>
<!-- Node12&#45;&gt;Node19 -->
<g id="edge25" class="edge">
<title>Node12&#45;&gt;Node19</title>
<path fill="none" stroke="midnightblue" d="M838.68,-352.59C838.52,-340.26 838.33,-325.72 838.19,-315.23"/>
<polygon fill="midnightblue" stroke="midnightblue" points="835.18,-352.75 838.81,-362.7 842.18,-352.66 835.18,-352.75"/>
</g>
<!-- Node14 -->
<g id="node14" class="node">
<title>Node14</title>
<g id="a_node14"><a xlink:href="laplace__bem_8impl_8hcu_source.html" target="_top" xlink:title=" ">
<polygon fill="none" stroke="black" points="881.5,-67.5 881.5,-97.5 996.5,-97.5 996.5,-67.5 881.5,-67.5"/>
<text text-anchor="start" x="889.5" y="-85.5" font-family="Helvetica,sans-Serif" font-size="10.00">include/laplace/laplace</text>
<text text-anchor="middle" x="939" y="-74.5" font-family="Helvetica,sans-Serif" font-size="10.00">_bem.impl.hcu</text>
</a>
</g>
</g>
<!-- Node13&#45;&gt;Node14 -->
<g id="edge18" class="edge">
<title>Node13&#45;&gt;Node14</title>
<path fill="none" stroke="midnightblue" d="M939,-124.11C939,-115.15 939,-105.32 939,-97.58"/>
<polygon fill="midnightblue" stroke="midnightblue" points="935.5,-124.4 939,-134.4 942.5,-124.4 935.5,-124.4"/>
</g>
<!-- Node15 -->
<g id="node15" class="node">
<title>Node15</title>
<g id="a_node15"><a xlink:href="laplace__bem_8cu_source.html" target="_top" xlink:title=" ">
<polygon fill="none" stroke="black" points="890,-0.5 890,-30.5 988,-30.5 988,-0.5 890,-0.5"/>
<text text-anchor="start" x="898" y="-18.5" font-family="Helvetica,sans-Serif" font-size="10.00">src/laplace/laplace</text>
<text text-anchor="middle" x="939" y="-7.5" font-family="Helvetica,sans-Serif" font-size="10.00">_bem.cu</text>
</a>
</g>
</g>
<!-- Node14&#45;&gt;Node15 -->
<g id="edge19" class="edge">
<title>Node14&#45;&gt;Node15</title>
<path fill="none" stroke="midnightblue" d="M939,-57.11C939,-48.15 939,-38.32 939,-30.58"/>
<polygon fill="midnightblue" stroke="midnightblue" points="935.5,-57.4 939,-67.4 942.5,-57.4 935.5,-57.4"/>
</g>
<!-- Node17 -->
<g id="node17" class="node">
<title>Node17</title>
<g id="a_node17"><a xlink:href="preconditioner__for__laplace__dirichlet_8h.html" target="_top" xlink:title=" ">
<polygon fill="none" stroke="black" points="569.5,-201.5 569.5,-242.5 702.5,-242.5 702.5,-201.5 569.5,-201.5"/>
<text text-anchor="start" x="577.5" y="-230.5" font-family="Helvetica,sans-Serif" font-size="10.00">include/preconditioners</text>
<text text-anchor="start" x="577.5" y="-219.5" font-family="Helvetica,sans-Serif" font-size="10.00">/preconditioner_for_laplace</text>
<text text-anchor="middle" x="636" y="-208.5" font-family="Helvetica,sans-Serif" font-size="10.00">_dirichlet.h</text>
</a>
</g>
</g>
<!-- Node16&#45;&gt;Node17 -->
<g id="edge21" class="edge">
<title>Node16&#45;&gt;Node17</title>
<path fill="none" stroke="midnightblue" d="M645.52,-274.66C643.61,-264.33 641.42,-252.44 639.63,-242.68"/>
<polygon fill="midnightblue" stroke="midnightblue" points="642.11,-275.5 647.37,-284.7 649,-274.24 642.11,-275.5"/>
</g>
<!-- Node18 -->
<g id="node18" class="node">
<title>Node18</title>
<g id="a_node18"><a xlink:href="preconditioner__for__laplace__neumann_8h.html" target="_top" xlink:title=" ">
<polygon fill="none" stroke="black" points="720.5,-201.5 720.5,-242.5 853.5,-242.5 853.5,-201.5 720.5,-201.5"/>
<text text-anchor="start" x="728.5" y="-230.5" font-family="Helvetica,sans-Serif" font-size="10.00">include/preconditioners</text>
<text text-anchor="start" x="728.5" y="-219.5" font-family="Helvetica,sans-Serif" font-size="10.00">/preconditioner_for_laplace</text>
<text text-anchor="middle" x="787" y="-208.5" font-family="Helvetica,sans-Serif" font-size="10.00">_neumann.h</text>
</a>
</g>
</g>
<!-- Node16&#45;&gt;Node18 -->
<g id="edge23" class="edge">
<title>Node16&#45;&gt;Node18</title>
<path fill="none" stroke="midnightblue" d="M684.45,-279.89C704.96,-268.51 730.94,-254.1 751.62,-242.63"/>
<polygon fill="midnightblue" stroke="midnightblue" points="682.49,-276.97 675.45,-284.88 685.89,-283.09 682.49,-276.97"/>
</g>
<!-- Node17&#45;&gt;Node13 -->
<g id="edge22" class="edge">
<title>Node17&#45;&gt;Node13</title>
<path fill="none" stroke="midnightblue" d="M712.69,-200.63C775.39,-185.46 837.38,-171.92 881.21,-162.59"/>
<polygon fill="midnightblue" stroke="midnightblue" points="711.51,-197.31 702.62,-203.08 713.16,-204.12 711.51,-197.31"/>
</g>
<!-- Node18&#45;&gt;Node13 -->
<g id="edge24" class="edge">
<title>Node18&#45;&gt;Node13</title>
<path fill="none" stroke="midnightblue" d="M838.71,-197.02C861.91,-186.25 888.49,-173.93 908.45,-164.67"/>
<polygon fill="midnightblue" stroke="midnightblue" points="836.94,-193.98 829.34,-201.36 839.88,-200.33 836.94,-193.98"/>
</g>
<!-- Node20&#45;&gt;Node13 -->
<g id="edge27" class="edge">
<title>Node20&#45;&gt;Node13</title>
<path fill="none" stroke="midnightblue" d="M1037.92,-425.27C1044.22,-378.41 1051.99,-273.59 1010,-201 1000.84,-185.16 984.47,-173.01 969.76,-164.6"/>
<polygon fill="midnightblue" stroke="midnightblue" points="1034.42,-424.98 1036.46,-435.38 1041.35,-425.98 1034.42,-424.98"/>
</g>
<!-- Node21&#45;&gt;Node13 -->
<g id="edge29" class="edge">
<title>Node21&#45;&gt;Node13</title>
<path fill="none" stroke="midnightblue" d="M930.82,-431.39C947.04,-424 961.94,-413.62 972,-399 1021.88,-326.5 997.11,-285.34 972,-201 967.99,-187.55 959.14,-174.34 951.61,-164.81"/>
<polygon fill="midnightblue" stroke="midnightblue" points="929.05,-428.33 921.15,-435.4 931.73,-434.8 929.05,-428.33"/>
</g>
<!-- Node22&#45;&gt;Node6 -->
<g id="edge31" class="edge">
<title>Node22&#45;&gt;Node6</title>
<path fill="none" stroke="midnightblue" d="M340.51,-429.21C326.99,-419.58 310.9,-408.12 297.51,-398.59"/>
<polygon fill="midnightblue" stroke="midnightblue" points="338.79,-432.28 348.97,-435.23 342.85,-426.58 338.79,-432.28"/>
</g>
<!-- Node22&#45;&gt;Node13 -->
<g id="edge32" class="edge">
<title>Node22&#45;&gt;Node13</title>
<path fill="none" stroke="midnightblue" d="M458.47,-440.61C477.46,-438.74 497.39,-436.79 516,-435 558.55,-430.9 867.8,-428.21 899,-399 933.37,-366.82 938.22,-212.73 938.89,-164.77"/>
<polygon fill="midnightblue" stroke="midnightblue" points="457.94,-437.14 448.34,-441.61 458.63,-444.11 457.94,-437.14"/>
</g>
<!-- Node23&#45;&gt;Node12 -->
<g id="edge39" class="edge">
<title>Node23&#45;&gt;Node12</title>
<path fill="none" stroke="midnightblue" d="M651.03,-433.41C689.15,-424.06 737.44,-411.65 780,-399 786.12,-397.18 792.55,-395.14 798.82,-393.07"/>
<polygon fill="midnightblue" stroke="midnightblue" points="649.96,-430.07 641.07,-435.84 651.62,-436.87 649.96,-430.07"/>
</g>
<!-- Node24 -->
<g id="node24" class="node">
<title>Node24</title>
<g id="a_node24"><a xlink:href="bem__general_8hcu_source.html" target="_top" xlink:title=" ">
<polygon fill="none" stroke="black" points="497,-368.5 497,-387.5 643,-387.5 643,-368.5 497,-368.5"/>
<text text-anchor="middle" x="570" y="-375.5" font-family="Helvetica,sans-Serif" font-size="10.00">include/bem/bem_general.hcu</text>
</a>
</g>
</g>
<!-- Node23&#45;&gt;Node24 -->
<g id="edge36" class="edge">
<title>Node23&#45;&gt;Node24</title>
<path fill="none" stroke="midnightblue" d="M578.5,-425.09C576.12,-412.21 573.36,-397.2 571.64,-387.89"/>
<polygon fill="midnightblue" stroke="midnightblue" points="575.11,-426.03 580.37,-435.23 582,-424.76 575.11,-426.03"/>
</g>
<!-- Node25 -->
<g id="node25" class="node">
<title>Node25</title>
<g id="a_node25"><a xlink:href="sauter__quadrature_8cu_source.html" target="_top" xlink:title=" ">
<polygon fill="none" stroke="black" points="661.5,-363 661.5,-393 770.5,-393 770.5,-363 661.5,-363"/>
<text text-anchor="start" x="669.5" y="-381" font-family="Helvetica,sans-Serif" font-size="10.00">src/quadrature/sauter</text>
<text text-anchor="middle" x="716" y="-370" font-family="Helvetica,sans-Serif" font-size="10.00">_quadrature.cu</text>
</a>
</g>
</g>
<!-- Node23&#45;&gt;Node25 -->
<g id="edge40" class="edge">
<title>Node23&#45;&gt;Node25</title>
<path fill="none" stroke="midnightblue" d="M618.44,-430.72C640.75,-418.89 669.08,-403.87 689.45,-393.07"/>
<polygon fill="midnightblue" stroke="midnightblue" points="616.79,-427.63 609.59,-435.4 620.07,-433.81 616.79,-427.63"/>
</g>
<!-- Node24&#45;&gt;Node13 -->
<g id="edge37" class="edge">
<title>Node24&#45;&gt;Node13</title>
<path fill="none" stroke="midnightblue" d="M561.63,-358.86C546.78,-323.66 520.9,-245.66 560,-201 580.83,-177.22 780.53,-160.86 881.35,-154.05"/>
<polygon fill="midnightblue" stroke="midnightblue" points="558.56,-360.58 565.8,-368.32 564.97,-357.76 558.56,-360.58"/>
</g>
<!-- Node24&#45;&gt;Node16 -->
<g id="edge38" class="edge">
<title>Node24&#45;&gt;Node16</title>
<path fill="none" stroke="midnightblue" d="M586.82,-361.02C601.15,-347.41 621.54,-328.04 635.24,-315.02"/>
<polygon fill="midnightblue" stroke="midnightblue" points="584.02,-358.86 579.18,-368.28 588.84,-363.93 584.02,-358.86"/>
</g>
<!-- Node26&#45;&gt;Node2 -->
<g id="edge45" class="edge">
<title>Node26&#45;&gt;Node2</title>
<path fill="none" stroke="midnightblue" d="M1123.94,-685.88C1111.94,-676.01 1097.87,-664.43 1087.11,-655.58"/>
<polygon fill="midnightblue" stroke="midnightblue" points="1121.91,-688.75 1131.86,-692.4 1126.36,-683.34 1121.91,-688.75"/>
</g>
<!-- Node26&#45;&gt;Node3 -->
<g id="edge46" class="edge">
<title>Node26&#45;&gt;Node3</title>
<path fill="none" stroke="midnightblue" d="M1144.98,-682.39C1140.4,-654.9 1133.06,-610.89 1129.34,-588.52"/>
<polygon fill="midnightblue" stroke="midnightblue" points="1141.55,-683.09 1146.65,-692.37 1148.45,-681.93 1141.55,-683.09"/>
</g>
<!-- Node26&#45;&gt;Node13 -->
<g id="edge47" class="edge">
<title>Node26&#45;&gt;Node13</title>
<path fill="none" stroke="midnightblue" d="M1166.2,-684.29C1183.93,-659.12 1209,-616.16 1209,-574.5 1209,-574.5 1209,-574.5 1209,-299 1209,-246.49 1186.03,-231.1 1143,-201 1099.8,-170.78 1040.37,-158.59 996.8,-153.7"/>
<polygon fill="midnightblue" stroke="midnightblue" points="1163.34,-682.27 1160.29,-692.42 1169,-686.39 1163.34,-682.27"/>
</g>
</g>
</svg>
