<?xml version="1.0" encoding="UTF-8" standalone="no"?>
<!DOCTYPE svg PUBLIC "-//W3C//DTD SVG 1.1//EN"
 "http://www.w3.org/Graphics/SVG/1.1/DTD/svg11.dtd">
<!-- Generated by graphviz version 2.43.0 (0)
 -->
<!-- Title: include/linear_algebra/cpu_table.h Pages: 1 -->
<svg width="553pt" height="709pt"
 viewBox="0.00 0.00 552.50 709.00" xmlns="http://www.w3.org/2000/svg" xmlns:xlink="http://www.w3.org/1999/xlink">
<g id="graph0" class="graph" transform="scale(1 1) rotate(0) translate(4 705)">
<title>include/linear_algebra/cpu_table.h</title>
<!-- Node1 -->
<g id="node1" class="node">
<title>Node1</title>
<g id="a_node1"><a xlink:title="Introduction of cpu_table.h.">
<polygon fill="#bfbfbf" stroke="black" points="204.5,-670.5 204.5,-700.5 314.5,-700.5 314.5,-670.5 204.5,-670.5"/>
<text text-anchor="start" x="212.5" y="-688.5" font-family="Helvetica,sans-Serif" font-size="10.00">include/linear_algebra</text>
<text text-anchor="middle" x="259.5" y="-677.5" font-family="Helvetica,sans-Serif" font-size="10.00">/cpu_table.h</text>
</a>
</g>
</g>
<!-- Node2 -->
<g id="node2" class="node">
<title>Node2</title>
<g id="a_node2"><a xlink:href="bem__kernels_8hcu_source.html" target="_top" xlink:title=" ">
<polygon fill="none" stroke="black" points="78.5,-486 78.5,-505 224.5,-505 224.5,-486 78.5,-486"/>
<text text-anchor="middle" x="151.5" y="-493" font-family="Helvetica,sans-Serif" font-size="10.00">include/bem/bem_kernels.hcu</text>
</a>
</g>
</g>
<!-- Node1&#45;&gt;Node2 -->
<g id="edge1" class="edge">
<title>Node1&#45;&gt;Node2</title>
<path fill="none" stroke="midnightblue" d="M242.5,-661.93C227.07,-640.88 204.23,-608.25 187.5,-578 173.43,-552.55 160.61,-520.53 154.79,-505.31"/>
<polygon fill="midnightblue" stroke="midnightblue" points="239.86,-664.25 248.62,-670.21 245.49,-660.09 239.86,-664.25"/>
</g>
<!-- Node14 -->
<g id="node14" class="node">
<title>Node14</title>
<g id="a_node14"><a xlink:href="bem__values_8hcu_source.html" target="_top" xlink:title=" ">
<polygon fill="none" stroke="black" points="298,-614.5 298,-633.5 441,-633.5 441,-614.5 298,-614.5"/>
<text text-anchor="middle" x="369.5" y="-621.5" font-family="Helvetica,sans-Serif" font-size="10.00">include/bem/bem_values.hcu</text>
</a>
</g>
</g>
<!-- Node1&#45;&gt;Node14 -->
<g id="edge20" class="edge">
<title>Node1&#45;&gt;Node14</title>
<path fill="none" stroke="midnightblue" d="M294.62,-665.51C314.39,-654.81 338.12,-641.97 353.49,-633.66"/>
<polygon fill="midnightblue" stroke="midnightblue" points="292.7,-662.56 285.57,-670.4 296.03,-668.72 292.7,-662.56"/>
</g>
<!-- Node3 -->
<g id="node3" class="node">
<title>Node3</title>
<g id="a_node3"><a xlink:href="bem__general_8hcu_source.html" target="_top" xlink:title=" ">
<polygon fill="none" stroke="black" points="242.5,-352 242.5,-371 388.5,-371 388.5,-352 242.5,-352"/>
<text text-anchor="middle" x="315.5" y="-359" font-family="Helvetica,sans-Serif" font-size="10.00">include/bem/bem_general.hcu</text>
</a>
</g>
</g>
<!-- Node2&#45;&gt;Node3 -->
<g id="edge2" class="edge">
<title>Node2&#45;&gt;Node3</title>
<path fill="none" stroke="midnightblue" d="M174.76,-480.71C190.42,-471.07 211.28,-457.55 228.5,-444 259.4,-419.69 292.36,-386.57 307.3,-371.11"/>
<polygon fill="midnightblue" stroke="midnightblue" points="172.93,-477.72 166.2,-485.9 176.57,-483.7 172.93,-477.72"/>
</g>
<!-- Node7 -->
<g id="node7" class="node">
<title>Node7</title>
<g id="a_node7"><a xlink:href="operator__preconditioner_8h.html" target="_top" xlink:title=" ">
<polygon fill="none" stroke="black" points="166,-279.5 166,-309.5 295,-309.5 295,-279.5 166,-279.5"/>
<text text-anchor="start" x="174" y="-297.5" font-family="Helvetica,sans-Serif" font-size="10.00">include/preconditioners</text>
<text text-anchor="middle" x="230.5" y="-286.5" font-family="Helvetica,sans-Serif" font-size="10.00">/operator_preconditioner.h</text>
</a>
</g>
</g>
<!-- Node2&#45;&gt;Node7 -->
<g id="edge15" class="edge">
<title>Node2&#45;&gt;Node7</title>
<path fill="none" stroke="midnightblue" d="M158.6,-476.61C174.14,-437.47 210.9,-344.87 224.93,-309.53"/>
<polygon fill="midnightblue" stroke="midnightblue" points="155.33,-475.36 154.89,-485.95 161.84,-477.95 155.33,-475.36"/>
</g>
<!-- Node10 -->
<g id="node10" class="node">
<title>Node10</title>
<g id="a_node10"><a xlink:href="aca__plus_8hcu.html" target="_top" xlink:title="Implement the ACA+ method proposed in Grasedyck, L. 2005. “Adaptive Recompression of &#45;Matrices for BE...">
<polygon fill="none" stroke="black" points="85,-346.5 85,-376.5 186,-376.5 186,-346.5 85,-346.5"/>
<text text-anchor="start" x="93" y="-364.5" font-family="Helvetica,sans-Serif" font-size="10.00">include/hmatrix/aca</text>
<text text-anchor="middle" x="135.5" y="-353.5" font-family="Helvetica,sans-Serif" font-size="10.00">_plus/aca_plus.hcu</text>
</a>
</g>
</g>
<!-- Node2&#45;&gt;Node10 -->
<g id="edge11" class="edge">
<title>Node2&#45;&gt;Node10</title>
<path fill="none" stroke="midnightblue" d="M149.24,-475.89C146.01,-449.24 140.14,-400.8 137.23,-376.78"/>
<polygon fill="midnightblue" stroke="midnightblue" points="145.77,-476.33 150.45,-485.84 152.72,-475.49 145.77,-476.33"/>
</g>
<!-- Node12 -->
<g id="node12" class="node">
<title>Node12</title>
<g id="a_node12"><a xlink:href="sauter__quadrature_8hcu_source.html" target="_top" xlink:title=" ">
<polygon fill="none" stroke="black" points="318.5,-413.5 318.5,-443.5 434.5,-443.5 434.5,-413.5 318.5,-413.5"/>
<text text-anchor="start" x="326.5" y="-431.5" font-family="Helvetica,sans-Serif" font-size="10.00">include/quadrature</text>
<text text-anchor="middle" x="376.5" y="-420.5" font-family="Helvetica,sans-Serif" font-size="10.00">/sauter_quadrature.hcu</text>
</a>
</g>
</g>
<!-- Node2&#45;&gt;Node12 -->
<g id="edge16" class="edge">
<title>Node2&#45;&gt;Node12</title>
<path fill="none" stroke="midnightblue" d="M191.11,-483.06C229.26,-472.04 287.04,-455.34 327.94,-443.53"/>
<polygon fill="midnightblue" stroke="midnightblue" points="190.01,-479.73 181.38,-485.87 191.96,-486.46 190.01,-479.73"/>
</g>
<!-- Node4 -->
<g id="node4" class="node">
<title>Node4</title>
<g id="a_node4"><a xlink:href="laplace__bem_8priv_8hcu_source.html" target="_top" xlink:title=" ">
<polygon fill="none" stroke="black" points="324,-134.5 324,-164.5 439,-164.5 439,-134.5 324,-134.5"/>
<text text-anchor="start" x="332" y="-152.5" font-family="Helvetica,sans-Serif" font-size="10.00">include/laplace/laplace</text>
<text text-anchor="middle" x="381.5" y="-141.5" font-family="Helvetica,sans-Serif" font-size="10.00">_bem.priv.hcu</text>
</a>
</g>
</g>
<!-- Node3&#45;&gt;Node4 -->
<g id="edge3" class="edge">
<title>Node3&#45;&gt;Node4</title>
<path fill="none" stroke="midnightblue" d="M343.04,-347.32C377.23,-329.23 433.9,-293.15 457.5,-243 465.45,-226.11 466.32,-217.45 457.5,-201 448.74,-184.66 432.11,-172.71 416.64,-164.55"/>
<polygon fill="midnightblue" stroke="midnightblue" points="341.34,-344.26 334.04,-351.94 344.54,-350.49 341.34,-344.26"/>
</g>
<!-- Node3&#45;&gt;Node7 -->
<g id="edge6" class="edge">
<title>Node3&#45;&gt;Node7</title>
<path fill="none" stroke="midnightblue" d="M295.94,-345.54C281.79,-334.73 262.8,-320.2 248.92,-309.59"/>
<polygon fill="midnightblue" stroke="midnightblue" points="293.97,-348.44 304.04,-351.73 298.22,-342.88 293.97,-348.44"/>
</g>
<!-- Node5 -->
<g id="node5" class="node">
<title>Node5</title>
<g id="a_node5"><a xlink:href="laplace__bem_8impl_8hcu_source.html" target="_top" xlink:title=" ">
<polygon fill="none" stroke="black" points="324,-67.5 324,-97.5 439,-97.5 439,-67.5 324,-67.5"/>
<text text-anchor="start" x="332" y="-85.5" font-family="Helvetica,sans-Serif" font-size="10.00">include/laplace/laplace</text>
<text text-anchor="middle" x="381.5" y="-74.5" font-family="Helvetica,sans-Serif" font-size="10.00">_bem.impl.hcu</text>
</a>
</g>
</g>
<!-- Node4&#45;&gt;Node5 -->
<g id="edge4" class="edge">
<title>Node4&#45;&gt;Node5</title>
<path fill="none" stroke="midnightblue" d="M381.5,-124.11C381.5,-115.15 381.5,-105.32 381.5,-97.58"/>
<polygon fill="midnightblue" stroke="midnightblue" points="378,-124.4 381.5,-134.4 385,-124.4 378,-124.4"/>
</g>
<!-- Node6 -->
<g id="node6" class="node">
<title>Node6</title>
<g id="a_node6"><a xlink:href="laplace__bem_8cu_source.html" target="_top" xlink:title=" ">
<polygon fill="none" stroke="black" points="332.5,-0.5 332.5,-30.5 430.5,-30.5 430.5,-0.5 332.5,-0.5"/>
<text text-anchor="start" x="340.5" y="-18.5" font-family="Helvetica,sans-Serif" font-size="10.00">src/laplace/laplace</text>
<text text-anchor="middle" x="381.5" y="-7.5" font-family="Helvetica,sans-Serif" font-size="10.00">_bem.cu</text>
</a>
</g>
</g>
<!-- Node5&#45;&gt;Node6 -->
<g id="edge5" class="edge">
<title>Node5&#45;&gt;Node6</title>
<path fill="none" stroke="midnightblue" d="M381.5,-57.11C381.5,-48.15 381.5,-38.32 381.5,-30.58"/>
<polygon fill="midnightblue" stroke="midnightblue" points="378,-57.4 381.5,-67.4 385,-57.4 378,-57.4"/>
</g>
<!-- Node8 -->
<g id="node8" class="node">
<title>Node8</title>
<g id="a_node8"><a xlink:href="preconditioner__for__laplace__dirichlet_8h.html" target="_top" xlink:title=" ">
<polygon fill="none" stroke="black" points="315,-201.5 315,-242.5 448,-242.5 448,-201.5 315,-201.5"/>
<text text-anchor="start" x="323" y="-230.5" font-family="Helvetica,sans-Serif" font-size="10.00">include/preconditioners</text>
<text text-anchor="start" x="323" y="-219.5" font-family="Helvetica,sans-Serif" font-size="10.00">/preconditioner_for_laplace</text>
<text text-anchor="middle" x="381.5" y="-208.5" font-family="Helvetica,sans-Serif" font-size="10.00">_dirichlet.h</text>
</a>
</g>
</g>
<!-- Node7&#45;&gt;Node8 -->
<g id="edge7" class="edge">
<title>Node7&#45;&gt;Node8</title>
<path fill="none" stroke="midnightblue" d="M269.85,-275.13C291.28,-265.12 317.82,-252.73 339.63,-242.55"/>
<polygon fill="midnightblue" stroke="midnightblue" points="268.27,-272 260.69,-279.4 271.24,-278.34 268.27,-272"/>
</g>
<!-- Node9 -->
<g id="node9" class="node">
<title>Node9</title>
<g id="a_node9"><a xlink:href="preconditioner__for__laplace__neumann_8h.html" target="_top" xlink:title=" ">
<polygon fill="none" stroke="black" points="164,-201.5 164,-242.5 297,-242.5 297,-201.5 164,-201.5"/>
<text text-anchor="start" x="172" y="-230.5" font-family="Helvetica,sans-Serif" font-size="10.00">include/preconditioners</text>
<text text-anchor="start" x="172" y="-219.5" font-family="Helvetica,sans-Serif" font-size="10.00">/preconditioner_for_laplace</text>
<text text-anchor="middle" x="230.5" y="-208.5" font-family="Helvetica,sans-Serif" font-size="10.00">_neumann.h</text>
</a>
</g>
</g>
<!-- Node7&#45;&gt;Node9 -->
<g id="edge9" class="edge">
<title>Node7&#45;&gt;Node9</title>
<path fill="none" stroke="midnightblue" d="M230.5,-268.98C230.5,-260.35 230.5,-250.76 230.5,-242.59"/>
<polygon fill="midnightblue" stroke="midnightblue" points="227,-269.23 230.5,-279.23 234,-269.23 227,-269.23"/>
</g>
<!-- Node8&#45;&gt;Node4 -->
<g id="edge8" class="edge">
<title>Node8&#45;&gt;Node4</title>
<path fill="none" stroke="midnightblue" d="M381.5,-191.08C381.5,-182.01 381.5,-172.45 381.5,-164.89"/>
<polygon fill="midnightblue" stroke="midnightblue" points="378,-191.36 381.5,-201.36 385,-191.36 378,-191.36"/>
</g>
<!-- Node9&#45;&gt;Node4 -->
<g id="edge10" class="edge">
<title>Node9&#45;&gt;Node4</title>
<path fill="none" stroke="midnightblue" d="M281.87,-197.02C304.92,-186.25 331.32,-173.93 351.15,-164.67"/>
<polygon fill="midnightblue" stroke="midnightblue" points="280.14,-193.96 272.56,-201.36 283.1,-200.3 280.14,-193.96"/>
</g>
<!-- Node10&#45;&gt;Node4 -->
<g id="edge12" class="edge">
<title>Node10&#45;&gt;Node4</title>
<path fill="none" stroke="midnightblue" d="M130.59,-336.27C125.1,-301.65 120.91,-238.14 154.5,-201 176.77,-176.37 264.15,-162.54 323.77,-155.8"/>
<polygon fill="midnightblue" stroke="midnightblue" points="127.19,-337.18 132.37,-346.42 134.09,-335.97 127.19,-337.18"/>
</g>
<!-- Node10&#45;&gt;Node7 -->
<g id="edge13" class="edge">
<title>Node10&#45;&gt;Node7</title>
<path fill="none" stroke="midnightblue" d="M164.39,-340.73C179.09,-330.68 196.61,-318.68 209.93,-309.58"/>
<polygon fill="midnightblue" stroke="midnightblue" points="162.39,-337.86 156.11,-346.4 166.34,-343.64 162.39,-337.86"/>
</g>
<!-- Node11 -->
<g id="node11" class="node">
<title>Node11</title>
<g id="a_node11"><a xlink:href="aca__plus_8cu_source.html" target="_top" xlink:title=" ">
<polygon fill="none" stroke="black" points="0,-279.5 0,-309.5 107,-309.5 107,-279.5 0,-279.5"/>
<text text-anchor="start" x="8" y="-297.5" font-family="Helvetica,sans-Serif" font-size="10.00">src/hmatrix/aca_plus</text>
<text text-anchor="middle" x="53.5" y="-286.5" font-family="Helvetica,sans-Serif" font-size="10.00">/aca_plus.cu</text>
</a>
</g>
</g>
<!-- Node10&#45;&gt;Node11 -->
<g id="edge14" class="edge">
<title>Node10&#45;&gt;Node11</title>
<path fill="none" stroke="midnightblue" d="M109.85,-340.17C97.31,-330.23 82.53,-318.51 71.26,-309.58"/>
<polygon fill="midnightblue" stroke="midnightblue" points="107.7,-342.93 117.71,-346.4 112.04,-337.44 107.7,-342.93"/>
</g>
<!-- Node12&#45;&gt;Node3 -->
<g id="edge17" class="edge">
<title>Node12&#45;&gt;Node3</title>
<path fill="none" stroke="midnightblue" d="M356.32,-406C345.19,-394.13 331.97,-380.05 323.66,-371.19"/>
<polygon fill="midnightblue" stroke="midnightblue" points="353.87,-408.5 363.26,-413.4 358.97,-403.71 353.87,-408.5"/>
</g>
<!-- Node12&#45;&gt;Node10 -->
<g id="edge18" class="edge">
<title>Node12&#45;&gt;Node10</title>
<path fill="none" stroke="midnightblue" d="M314.63,-410.81C274.77,-400.06 223.6,-386.26 186.16,-376.16"/>
<polygon fill="midnightblue" stroke="midnightblue" points="313.94,-414.25 324.5,-413.48 315.76,-407.49 313.94,-414.25"/>
</g>
<!-- Node13 -->
<g id="node13" class="node">
<title>Node13</title>
<g id="a_node13"><a xlink:href="sauter__quadrature_8cu_source.html" target="_top" xlink:title=" ">
<polygon fill="none" stroke="black" points="407,-346.5 407,-376.5 516,-376.5 516,-346.5 407,-346.5"/>
<text text-anchor="start" x="415" y="-364.5" font-family="Helvetica,sans-Serif" font-size="10.00">src/quadrature/sauter</text>
<text text-anchor="middle" x="461.5" y="-353.5" font-family="Helvetica,sans-Serif" font-size="10.00">_quadrature.cu</text>
</a>
</g>
</g>
<!-- Node12&#45;&gt;Node13 -->
<g id="edge19" class="edge">
<title>Node12&#45;&gt;Node13</title>
<path fill="none" stroke="midnightblue" d="M403.09,-407.17C416.09,-397.23 431.4,-385.51 443.09,-376.58"/>
<polygon fill="midnightblue" stroke="midnightblue" points="400.76,-404.54 394.94,-413.4 405.01,-410.1 400.76,-404.54"/>
</g>
<!-- Node14&#45;&gt;Node2 -->
<g id="edge22" class="edge">
<title>Node14&#45;&gt;Node2</title>
<path fill="none" stroke="midnightblue" d="M309.77,-612.12C282.29,-605.26 250.18,-594.48 224.5,-578 193.49,-558.09 167.56,-521.55 156.81,-505.02"/>
<polygon fill="midnightblue" stroke="midnightblue" points="309.12,-615.57 319.66,-614.48 310.74,-608.76 309.12,-615.57"/>
</g>
<!-- Node14&#45;&gt;Node3 -->
<g id="edge21" class="edge">
<title>Node14&#45;&gt;Node3</title>
<path fill="none" stroke="midnightblue" d="M389.79,-608.04C399.37,-600.06 410.26,-589.52 417.5,-578 456.98,-515.13 485.27,-474.38 443.5,-413 428.11,-390.39 400.88,-377.9 375.48,-371"/>
<polygon fill="midnightblue" stroke="midnightblue" points="387.49,-605.4 381.83,-614.36 391.84,-610.88 387.49,-605.4"/>
</g>
<!-- Node14&#45;&gt;Node4 -->
<g id="edge28" class="edge">
<title>Node14&#45;&gt;Node4</title>
<path fill="none" stroke="midnightblue" d="M415.01,-611.49C466.86,-595.31 544.5,-560.42 544.5,-496.5 544.5,-496.5 544.5,-496.5 544.5,-293.5 544.5,-227.62 468.33,-184.99 420.13,-164.6"/>
<polygon fill="midnightblue" stroke="midnightblue" points="413.91,-608.16 405.34,-614.38 415.92,-614.87 413.91,-608.16"/>
</g>
<!-- Node14&#45;&gt;Node12 -->
<g id="edge29" class="edge">
<title>Node14&#45;&gt;Node12</title>
<path fill="none" stroke="midnightblue" d="M380.93,-605.67C394.2,-584.41 415.33,-546.77 423.5,-511 426.57,-497.57 428.54,-492.82 423.5,-480 417.8,-465.51 405.77,-452.71 395.31,-443.63"/>
<polygon fill="midnightblue" stroke="midnightblue" points="377.9,-603.91 375.46,-614.22 383.79,-607.69 377.9,-603.91"/>
</g>
<!-- Node15 -->
<g id="node15" class="node">
<title>Node15</title>
<g id="a_node15"><a xlink:href="cu__bem__values_8hcu.html" target="_top" xlink:title="Introduction of cu_bem_values.hcu.">
<polygon fill="none" stroke="black" points="234,-547.5 234,-577.5 341,-577.5 341,-547.5 234,-547.5"/>
<text text-anchor="start" x="242" y="-565.5" font-family="Helvetica,sans-Serif" font-size="10.00">include/bem/cu_bem</text>
<text text-anchor="middle" x="287.5" y="-554.5" font-family="Helvetica,sans-Serif" font-size="10.00">_values.hcu</text>
</a>
</g>
</g>
<!-- Node14&#45;&gt;Node15 -->
<g id="edge23" class="edge">
<title>Node14&#45;&gt;Node15</title>
<path fill="none" stroke="midnightblue" d="M349.47,-608.47C336.49,-599.05 319.67,-586.84 306.83,-577.52"/>
<polygon fill="midnightblue" stroke="midnightblue" points="347.6,-611.43 357.75,-614.48 351.71,-605.77 347.6,-611.43"/>
</g>
<!-- Node16 -->
<g id="node16" class="node">
<title>Node16</title>
<g id="a_node16"><a xlink:href="cu__debug__tools_8hcu_source.html" target="_top" xlink:title=" ">
<polygon fill="none" stroke="black" points="319,-480.5 319,-510.5 414,-510.5 414,-480.5 319,-480.5"/>
<text text-anchor="start" x="327" y="-498.5" font-family="Helvetica,sans-Serif" font-size="10.00">include/utilities/cu</text>
<text text-anchor="middle" x="366.5" y="-487.5" font-family="Helvetica,sans-Serif" font-size="10.00">_debug_tools.hcu</text>
</a>
</g>
</g>
<!-- Node14&#45;&gt;Node16 -->
<g id="edge30" class="edge">
<title>Node14&#45;&gt;Node16</title>
<path fill="none" stroke="midnightblue" d="M369.05,-604.11C368.45,-578.63 367.38,-533.81 366.84,-510.89"/>
<polygon fill="midnightblue" stroke="midnightblue" points="365.56,-604.39 369.29,-614.31 372.56,-604.22 365.56,-604.39"/>
</g>
<!-- Node15&#45;&gt;Node2 -->
<g id="edge24" class="edge">
<title>Node15&#45;&gt;Node2</title>
<path fill="none" stroke="midnightblue" d="M248.72,-542.97C222.6,-530.48 189.37,-514.6 169.3,-505.01"/>
<polygon fill="midnightblue" stroke="midnightblue" points="247.46,-546.24 257.99,-547.4 250.48,-539.93 247.46,-546.24"/>
</g>
<!-- Node15&#45;&gt;Node10 -->
<g id="edge25" class="edge">
<title>Node15&#45;&gt;Node10</title>
<path fill="none" stroke="midnightblue" d="M273.42,-538.82C262.88,-522.21 247.87,-499.3 233.5,-480 204.62,-441.23 167.27,-398.2 148.09,-376.56"/>
<polygon fill="midnightblue" stroke="midnightblue" points="270.49,-540.74 278.78,-547.34 276.42,-537.01 270.49,-540.74"/>
</g>
<!-- Node15&#45;&gt;Node12 -->
<g id="edge26" class="edge">
<title>Node15&#45;&gt;Node12</title>
<path fill="none" stroke="midnightblue" d="M290.25,-537.05C293.12,-519.9 298.92,-497.06 310.5,-480 320.71,-464.96 336.86,-452.49 350.63,-443.71"/>
<polygon fill="midnightblue" stroke="midnightblue" points="286.72,-536.99 288.75,-547.39 293.65,-538 286.72,-536.99"/>
</g>
<!-- Node15&#45;&gt;Node16 -->
<g id="edge27" class="edge">
<title>Node15&#45;&gt;Node16</title>
<path fill="none" stroke="midnightblue" d="M312.56,-540.88C324.56,-531.01 338.63,-519.43 349.39,-510.58"/>
<polygon fill="midnightblue" stroke="midnightblue" points="310.14,-538.34 304.64,-547.4 314.59,-543.75 310.14,-538.34"/>
</g>
</g>
</svg>
