<?xml version="1.0" encoding="UTF-8" standalone="no"?>
<!DOCTYPE svg PUBLIC "-//W3C//DTD SVG 1.1//EN"
 "http://www.w3.org/Graphics/SVG/1.1/DTD/svg11.dtd">
<!-- Generated by graphviz version 2.43.0 (0)
 -->
<!-- Title: include/linear_algebra/cu_vector.hcu Pages: 1 -->
<svg width="526pt" height="720pt"
 viewBox="0.00 0.00 525.50 720.00" xmlns="http://www.w3.org/2000/svg" xmlns:xlink="http://www.w3.org/1999/xlink">
<g id="graph0" class="graph" transform="scale(1 1) rotate(0) translate(4 716)">
<title>include/linear_algebra/cu_vector.hcu</title>
<!-- Node1 -->
<g id="node1" class="node">
<title>Node1</title>
<g id="a_node1"><a xlink:title="Introduction of cu_vector.hcu.">
<polygon fill="#bfbfbf" stroke="black" points="211,-681.5 211,-711.5 321,-711.5 321,-681.5 211,-681.5"/>
<text text-anchor="start" x="219" y="-699.5" font-family="Helvetica,sans-Serif" font-size="10.00">include/linear_algebra</text>
<text text-anchor="middle" x="266" y="-688.5" font-family="Helvetica,sans-Serif" font-size="10.00">/cu_vector.hcu</text>
</a>
</g>
</g>
<!-- Node2 -->
<g id="node2" class="node">
<title>Node2</title>
<g id="a_node2"><a xlink:href="bem__kernels_8hcu_source.html" target="_top" xlink:title=" ">
<polygon fill="none" stroke="black" points="152,-486 152,-505 298,-505 298,-486 152,-486"/>
<text text-anchor="middle" x="225" y="-493" font-family="Helvetica,sans-Serif" font-size="10.00">include/bem/bem_kernels.hcu</text>
</a>
</g>
</g>
<!-- Node1&#45;&gt;Node2 -->
<g id="edge1" class="edge">
<title>Node1&#45;&gt;Node2</title>
<path fill="none" stroke="midnightblue" d="M254.19,-672.16C250.39,-663.78 246.52,-654.14 244,-645 229.7,-593.13 226.1,-528.05 225.25,-505.04"/>
<polygon fill="midnightblue" stroke="midnightblue" points="251.08,-673.77 258.52,-681.31 257.4,-670.78 251.08,-673.77"/>
</g>
<!-- Node14 -->
<g id="node14" class="node">
<title>Node14</title>
<g id="a_node14"><a xlink:href="cu__bem__values_8hcu.html" target="_top" xlink:title="Introduction of cu_bem_values.hcu.">
<polygon fill="none" stroke="black" points="330.5,-547.5 330.5,-577.5 437.5,-577.5 437.5,-547.5 330.5,-547.5"/>
<text text-anchor="start" x="338.5" y="-565.5" font-family="Helvetica,sans-Serif" font-size="10.00">include/bem/cu_bem</text>
<text text-anchor="middle" x="384" y="-554.5" font-family="Helvetica,sans-Serif" font-size="10.00">_values.hcu</text>
</a>
</g>
</g>
<!-- Node1&#45;&gt;Node14 -->
<g id="edge20" class="edge">
<title>Node1&#45;&gt;Node14</title>
<path fill="none" stroke="midnightblue" d="M329.39,-677.38C345.57,-669.85 361.37,-659.39 372,-645 386.62,-625.21 387.01,-595.22 385.69,-577.67"/>
<polygon fill="midnightblue" stroke="midnightblue" points="327.66,-674.32 319.86,-681.49 330.43,-680.75 327.66,-674.32"/>
</g>
<!-- Node16 -->
<g id="node16" class="node">
<title>Node16</title>
<g id="a_node16"><a xlink:href="cu__fullmatrix_8hcu.html" target="_top" xlink:title="Introduction of cu_fullmatrix.hcu.">
<polygon fill="none" stroke="black" points="87,-614.5 87,-644.5 197,-644.5 197,-614.5 87,-614.5"/>
<text text-anchor="start" x="95" y="-632.5" font-family="Helvetica,sans-Serif" font-size="10.00">include/linear_algebra</text>
<text text-anchor="middle" x="142" y="-621.5" font-family="Helvetica,sans-Serif" font-size="10.00">/cu_fullmatrix.hcu</text>
</a>
</g>
</g>
<!-- Node1&#45;&gt;Node16 -->
<g id="edge25" class="edge">
<title>Node1&#45;&gt;Node16</title>
<path fill="none" stroke="midnightblue" d="M230.16,-676.71C210.61,-666.46 186.8,-653.98 168.85,-644.58"/>
<polygon fill="midnightblue" stroke="midnightblue" points="228.61,-679.85 239.09,-681.4 231.86,-673.65 228.61,-679.85"/>
</g>
<!-- Node18 -->
<g id="node18" class="node">
<title>Node18</title>
<g id="a_node18"><a xlink:href="cu__tensor_8hcu.html" target="_top" xlink:title="Introduction of cu_tensor.hcu.">
<polygon fill="none" stroke="black" points="253,-614.5 253,-644.5 363,-644.5 363,-614.5 253,-614.5"/>
<text text-anchor="start" x="261" y="-632.5" font-family="Helvetica,sans-Serif" font-size="10.00">include/linear_algebra</text>
<text text-anchor="middle" x="308" y="-621.5" font-family="Helvetica,sans-Serif" font-size="10.00">/cu_tensor.hcu</text>
</a>
</g>
</g>
<!-- Node1&#45;&gt;Node18 -->
<g id="edge29" class="edge">
<title>Node1&#45;&gt;Node18</title>
<path fill="none" stroke="midnightblue" d="M280.62,-672.87C286.7,-663.46 293.57,-652.83 298.9,-644.58"/>
<polygon fill="midnightblue" stroke="midnightblue" points="277.6,-671.1 275.11,-681.4 283.48,-674.9 277.6,-671.1"/>
</g>
<!-- Node3 -->
<g id="node3" class="node">
<title>Node3</title>
<g id="a_node3"><a xlink:href="bem__general_8hcu_source.html" target="_top" xlink:title=" ">
<polygon fill="none" stroke="black" points="0,-352 0,-371 146,-371 146,-352 0,-352"/>
<text text-anchor="middle" x="73" y="-359" font-family="Helvetica,sans-Serif" font-size="10.00">include/bem/bem_general.hcu</text>
</a>
</g>
</g>
<!-- Node2&#45;&gt;Node3 -->
<g id="edge2" class="edge">
<title>Node2&#45;&gt;Node3</title>
<path fill="none" stroke="midnightblue" d="M204.96,-479.69C191.91,-469.86 174.66,-456.51 160,-444 130.41,-418.74 97.36,-386.63 81.89,-371.35"/>
<polygon fill="midnightblue" stroke="midnightblue" points="203.13,-482.69 213.24,-485.87 207.32,-477.08 203.13,-482.69"/>
</g>
<!-- Node7 -->
<g id="node7" class="node">
<title>Node7</title>
<g id="a_node7"><a xlink:href="operator__preconditioner_8h.html" target="_top" xlink:title=" ">
<polygon fill="none" stroke="black" points="109.5,-279.5 109.5,-309.5 238.5,-309.5 238.5,-279.5 109.5,-279.5"/>
<text text-anchor="start" x="117.5" y="-297.5" font-family="Helvetica,sans-Serif" font-size="10.00">include/preconditioners</text>
<text text-anchor="middle" x="174" y="-286.5" font-family="Helvetica,sans-Serif" font-size="10.00">/operator_preconditioner.h</text>
</a>
</g>
</g>
<!-- Node2&#45;&gt;Node7 -->
<g id="edge15" class="edge">
<title>Node2&#45;&gt;Node7</title>
<path fill="none" stroke="midnightblue" d="M211.78,-477.79C205.04,-468.39 197.38,-456.13 193,-444 176.07,-397.05 173.85,-337 173.8,-309.9"/>
<polygon fill="midnightblue" stroke="midnightblue" points="209.01,-479.93 217.81,-485.83 214.61,-475.73 209.01,-479.93"/>
</g>
<!-- Node10 -->
<g id="node10" class="node">
<title>Node10</title>
<g id="a_node10"><a xlink:href="aca__plus_8hcu.html" target="_top" xlink:title="Implement the ACA+ method proposed in Grasedyck, L. 2005. “Adaptive Recompression of &#45;Matrices for BE...">
<polygon fill="none" stroke="black" points="331.5,-346.5 331.5,-376.5 432.5,-376.5 432.5,-346.5 331.5,-346.5"/>
<text text-anchor="start" x="339.5" y="-364.5" font-family="Helvetica,sans-Serif" font-size="10.00">include/hmatrix/aca</text>
<text text-anchor="middle" x="382" y="-353.5" font-family="Helvetica,sans-Serif" font-size="10.00">_plus/aca_plus.hcu</text>
</a>
</g>
</g>
<!-- Node2&#45;&gt;Node10 -->
<g id="edge11" class="edge">
<title>Node2&#45;&gt;Node10</title>
<path fill="none" stroke="midnightblue" d="M260.58,-482.2C281.52,-473.74 307.61,-460.95 327,-444 349.23,-424.56 366.53,-394.18 375.42,-376.52"/>
<polygon fill="midnightblue" stroke="midnightblue" points="259.12,-479.01 251.07,-485.89 261.65,-485.54 259.12,-479.01"/>
</g>
<!-- Node12 -->
<g id="node12" class="node">
<title>Node12</title>
<g id="a_node12"><a xlink:href="sauter__quadrature_8hcu_source.html" target="_top" xlink:title=" ">
<polygon fill="none" stroke="black" points="202,-413.5 202,-443.5 318,-443.5 318,-413.5 202,-413.5"/>
<text text-anchor="start" x="210" y="-431.5" font-family="Helvetica,sans-Serif" font-size="10.00">include/quadrature</text>
<text text-anchor="middle" x="260" y="-420.5" font-family="Helvetica,sans-Serif" font-size="10.00">/sauter_quadrature.hcu</text>
</a>
</g>
</g>
<!-- Node2&#45;&gt;Node12 -->
<g id="edge16" class="edge">
<title>Node2&#45;&gt;Node12</title>
<path fill="none" stroke="midnightblue" d="M234.58,-476.71C240.19,-466.29 247.18,-453.3 252.41,-443.59"/>
<polygon fill="midnightblue" stroke="midnightblue" points="231.38,-475.27 229.72,-485.73 237.54,-478.59 231.38,-475.27"/>
</g>
<!-- Node4 -->
<g id="node4" class="node">
<title>Node4</title>
<g id="a_node4"><a xlink:href="laplace__bem_8priv_8hcu_source.html" target="_top" xlink:title=" ">
<polygon fill="none" stroke="black" points="153.5,-134.5 153.5,-164.5 268.5,-164.5 268.5,-134.5 153.5,-134.5"/>
<text text-anchor="start" x="161.5" y="-152.5" font-family="Helvetica,sans-Serif" font-size="10.00">include/laplace/laplace</text>
<text text-anchor="middle" x="211" y="-141.5" font-family="Helvetica,sans-Serif" font-size="10.00">_bem.priv.hcu</text>
</a>
</g>
</g>
<!-- Node3&#45;&gt;Node4 -->
<g id="edge3" class="edge">
<title>Node3&#45;&gt;Node4</title>
<path fill="none" stroke="midnightblue" d="M64.61,-342.49C51.16,-310.64 29.23,-243.74 60,-201 81.16,-171.61 120.2,-159.08 153.29,-153.84"/>
<polygon fill="midnightblue" stroke="midnightblue" points="61.51,-344.13 68.76,-351.86 67.91,-341.3 61.51,-344.13"/>
</g>
<!-- Node3&#45;&gt;Node7 -->
<g id="edge6" class="edge">
<title>Node3&#45;&gt;Node7</title>
<path fill="none" stroke="midnightblue" d="M95.29,-346.15C112.2,-335.27 135.3,-320.4 152.11,-309.59"/>
<polygon fill="midnightblue" stroke="midnightblue" points="93.14,-343.38 86.62,-351.73 96.92,-349.27 93.14,-343.38"/>
</g>
<!-- Node5 -->
<g id="node5" class="node">
<title>Node5</title>
<g id="a_node5"><a xlink:href="laplace__bem_8impl_8hcu_source.html" target="_top" xlink:title=" ">
<polygon fill="none" stroke="black" points="153.5,-67.5 153.5,-97.5 268.5,-97.5 268.5,-67.5 153.5,-67.5"/>
<text text-anchor="start" x="161.5" y="-85.5" font-family="Helvetica,sans-Serif" font-size="10.00">include/laplace/laplace</text>
<text text-anchor="middle" x="211" y="-74.5" font-family="Helvetica,sans-Serif" font-size="10.00">_bem.impl.hcu</text>
</a>
</g>
</g>
<!-- Node4&#45;&gt;Node5 -->
<g id="edge4" class="edge">
<title>Node4&#45;&gt;Node5</title>
<path fill="none" stroke="midnightblue" d="M211,-124.11C211,-115.15 211,-105.32 211,-97.58"/>
<polygon fill="midnightblue" stroke="midnightblue" points="207.5,-124.4 211,-134.4 214.5,-124.4 207.5,-124.4"/>
</g>
<!-- Node6 -->
<g id="node6" class="node">
<title>Node6</title>
<g id="a_node6"><a xlink:href="laplace__bem_8cu_source.html" target="_top" xlink:title=" ">
<polygon fill="none" stroke="black" points="162,-0.5 162,-30.5 260,-30.5 260,-0.5 162,-0.5"/>
<text text-anchor="start" x="170" y="-18.5" font-family="Helvetica,sans-Serif" font-size="10.00">src/laplace/laplace</text>
<text text-anchor="middle" x="211" y="-7.5" font-family="Helvetica,sans-Serif" font-size="10.00">_bem.cu</text>
</a>
</g>
</g>
<!-- Node5&#45;&gt;Node6 -->
<g id="edge5" class="edge">
<title>Node5&#45;&gt;Node6</title>
<path fill="none" stroke="midnightblue" d="M211,-57.11C211,-48.15 211,-38.32 211,-30.58"/>
<polygon fill="midnightblue" stroke="midnightblue" points="207.5,-57.4 211,-67.4 214.5,-57.4 207.5,-57.4"/>
</g>
<!-- Node8 -->
<g id="node8" class="node">
<title>Node8</title>
<g id="a_node8"><a xlink:href="preconditioner__for__laplace__dirichlet_8h.html" target="_top" xlink:title=" ">
<polygon fill="none" stroke="black" points="69.5,-201.5 69.5,-242.5 202.5,-242.5 202.5,-201.5 69.5,-201.5"/>
<text text-anchor="start" x="77.5" y="-230.5" font-family="Helvetica,sans-Serif" font-size="10.00">include/preconditioners</text>
<text text-anchor="start" x="77.5" y="-219.5" font-family="Helvetica,sans-Serif" font-size="10.00">/preconditioner_for_laplace</text>
<text text-anchor="middle" x="136" y="-208.5" font-family="Helvetica,sans-Serif" font-size="10.00">_dirichlet.h</text>
</a>
</g>
</g>
<!-- Node7&#45;&gt;Node8 -->
<g id="edge7" class="edge">
<title>Node7&#45;&gt;Node8</title>
<path fill="none" stroke="midnightblue" d="M161.56,-270.41C156.71,-261.42 151.21,-251.22 146.56,-242.59"/>
<polygon fill="midnightblue" stroke="midnightblue" points="158.48,-272.09 166.31,-279.23 164.65,-268.77 158.48,-272.09"/>
</g>
<!-- Node9 -->
<g id="node9" class="node">
<title>Node9</title>
<g id="a_node9"><a xlink:href="preconditioner__for__laplace__neumann_8h.html" target="_top" xlink:title=" ">
<polygon fill="none" stroke="black" points="220.5,-201.5 220.5,-242.5 353.5,-242.5 353.5,-201.5 220.5,-201.5"/>
<text text-anchor="start" x="228.5" y="-230.5" font-family="Helvetica,sans-Serif" font-size="10.00">include/preconditioners</text>
<text text-anchor="start" x="228.5" y="-219.5" font-family="Helvetica,sans-Serif" font-size="10.00">/preconditioner_for_laplace</text>
<text text-anchor="middle" x="287" y="-208.5" font-family="Helvetica,sans-Serif" font-size="10.00">_neumann.h</text>
</a>
</g>
</g>
<!-- Node7&#45;&gt;Node9 -->
<g id="edge9" class="edge">
<title>Node7&#45;&gt;Node9</title>
<path fill="none" stroke="midnightblue" d="M205.37,-273.93C220.99,-264.19 239.82,-252.44 255.46,-242.68"/>
<polygon fill="midnightblue" stroke="midnightblue" points="203.23,-271.14 196.6,-279.4 206.93,-277.08 203.23,-271.14"/>
</g>
<!-- Node8&#45;&gt;Node4 -->
<g id="edge8" class="edge">
<title>Node8&#45;&gt;Node4</title>
<path fill="none" stroke="midnightblue" d="M164.39,-194.31C175.02,-184.32 186.69,-173.35 195.69,-164.89"/>
<polygon fill="midnightblue" stroke="midnightblue" points="161.78,-191.96 156.89,-201.36 166.58,-197.06 161.78,-191.96"/>
</g>
<!-- Node9&#45;&gt;Node4 -->
<g id="edge10" class="edge">
<title>Node9&#45;&gt;Node4</title>
<path fill="none" stroke="midnightblue" d="M258.23,-194.31C247.46,-184.32 235.64,-173.35 226.51,-164.89"/>
<polygon fill="midnightblue" stroke="midnightblue" points="256.12,-197.13 265.83,-201.36 260.88,-191.99 256.12,-197.13"/>
</g>
<!-- Node10&#45;&gt;Node4 -->
<g id="edge12" class="edge">
<title>Node10&#45;&gt;Node4</title>
<path fill="none" stroke="midnightblue" d="M386.47,-336.2C391.28,-302.01 394.49,-239.61 363,-201 340.15,-172.99 301.31,-160.4 268.61,-154.8"/>
<polygon fill="midnightblue" stroke="midnightblue" points="382.99,-335.81 384.89,-346.24 389.9,-336.9 382.99,-335.81"/>
</g>
<!-- Node10&#45;&gt;Node7 -->
<g id="edge13" class="edge">
<title>Node10&#45;&gt;Node7</title>
<path fill="none" stroke="midnightblue" d="M327.42,-343.44C293.7,-332.91 250.96,-319.55 219.15,-309.61"/>
<polygon fill="midnightblue" stroke="midnightblue" points="326.53,-346.83 337.12,-346.48 328.62,-340.15 326.53,-346.83"/>
</g>
<!-- Node11 -->
<g id="node11" class="node">
<title>Node11</title>
<g id="a_node11"><a xlink:href="aca__plus_8cu_source.html" target="_top" xlink:title=" ">
<polygon fill="none" stroke="black" points="410.5,-279.5 410.5,-309.5 517.5,-309.5 517.5,-279.5 410.5,-279.5"/>
<text text-anchor="start" x="418.5" y="-297.5" font-family="Helvetica,sans-Serif" font-size="10.00">src/hmatrix/aca_plus</text>
<text text-anchor="middle" x="464" y="-286.5" font-family="Helvetica,sans-Serif" font-size="10.00">/aca_plus.cu</text>
</a>
</g>
</g>
<!-- Node10&#45;&gt;Node11 -->
<g id="edge14" class="edge">
<title>Node10&#45;&gt;Node11</title>
<path fill="none" stroke="midnightblue" d="M407.65,-340.17C420.19,-330.23 434.97,-318.51 446.24,-309.58"/>
<polygon fill="midnightblue" stroke="midnightblue" points="405.46,-337.44 399.79,-346.4 409.8,-342.93 405.46,-337.44"/>
</g>
<!-- Node12&#45;&gt;Node3 -->
<g id="edge17" class="edge">
<title>Node12&#45;&gt;Node3</title>
<path fill="none" stroke="midnightblue" d="M209.96,-410.11C173.58,-397.46 125.91,-380.89 97.47,-371.01"/>
<polygon fill="midnightblue" stroke="midnightblue" points="208.83,-413.42 219.42,-413.4 211.13,-406.81 208.83,-413.42"/>
</g>
<!-- Node12&#45;&gt;Node10 -->
<g id="edge18" class="edge">
<title>Node12&#45;&gt;Node10</title>
<path fill="none" stroke="midnightblue" d="M295.52,-408.57C314.71,-398.35 338,-385.94 355.58,-376.58"/>
<polygon fill="midnightblue" stroke="midnightblue" points="293.65,-405.6 286.47,-413.4 296.94,-411.78 293.65,-405.6"/>
</g>
<!-- Node13 -->
<g id="node13" class="node">
<title>Node13</title>
<g id="a_node13"><a xlink:href="sauter__quadrature_8cu_source.html" target="_top" xlink:title=" ">
<polygon fill="none" stroke="black" points="204.5,-346.5 204.5,-376.5 313.5,-376.5 313.5,-346.5 204.5,-346.5"/>
<text text-anchor="start" x="212.5" y="-364.5" font-family="Helvetica,sans-Serif" font-size="10.00">src/quadrature/sauter</text>
<text text-anchor="middle" x="259" y="-353.5" font-family="Helvetica,sans-Serif" font-size="10.00">_quadrature.cu</text>
</a>
</g>
</g>
<!-- Node12&#45;&gt;Node13 -->
<g id="edge19" class="edge">
<title>Node12&#45;&gt;Node13</title>
<path fill="none" stroke="midnightblue" d="M259.62,-403.11C259.49,-394.15 259.34,-384.32 259.22,-376.58"/>
<polygon fill="midnightblue" stroke="midnightblue" points="256.13,-403.45 259.78,-413.4 263.13,-403.34 256.13,-403.45"/>
</g>
<!-- Node14&#45;&gt;Node2 -->
<g id="edge21" class="edge">
<title>Node14&#45;&gt;Node2</title>
<path fill="none" stroke="midnightblue" d="M339.87,-543.46C309.15,-530.9 269.58,-514.72 245.81,-505.01"/>
<polygon fill="midnightblue" stroke="midnightblue" points="338.92,-546.85 349.5,-547.4 341.57,-540.37 338.92,-546.85"/>
</g>
<!-- Node14&#45;&gt;Node10 -->
<g id="edge22" class="edge">
<title>Node14&#45;&gt;Node10</title>
<path fill="none" stroke="midnightblue" d="M383.75,-537C383.33,-494.93 382.48,-410.26 382.14,-376.68"/>
<polygon fill="midnightblue" stroke="midnightblue" points="380.26,-537.22 383.86,-547.19 387.26,-537.15 380.26,-537.22"/>
</g>
<!-- Node14&#45;&gt;Node12 -->
<g id="edge23" class="edge">
<title>Node14&#45;&gt;Node12</title>
<path fill="none" stroke="midnightblue" d="M363.7,-539.9C338.11,-512.65 294.83,-466.58 273.17,-443.52"/>
<polygon fill="midnightblue" stroke="midnightblue" points="361.33,-542.48 370.73,-547.37 366.43,-537.69 361.33,-542.48"/>
</g>
<!-- Node15 -->
<g id="node15" class="node">
<title>Node15</title>
<g id="a_node15"><a xlink:href="cu__debug__tools_8hcu_source.html" target="_top" xlink:title=" ">
<polygon fill="none" stroke="black" points="412.5,-480.5 412.5,-510.5 507.5,-510.5 507.5,-480.5 412.5,-480.5"/>
<text text-anchor="start" x="420.5" y="-498.5" font-family="Helvetica,sans-Serif" font-size="10.00">include/utilities/cu</text>
<text text-anchor="middle" x="460" y="-487.5" font-family="Helvetica,sans-Serif" font-size="10.00">_debug_tools.hcu</text>
</a>
</g>
</g>
<!-- Node14&#45;&gt;Node15 -->
<g id="edge24" class="edge">
<title>Node14&#45;&gt;Node15</title>
<path fill="none" stroke="midnightblue" d="M408.11,-540.88C419.66,-531.01 433.19,-519.43 443.54,-510.58"/>
<polygon fill="midnightblue" stroke="midnightblue" points="405.82,-538.24 400.49,-547.4 410.37,-543.56 405.82,-538.24"/>
</g>
<!-- Node16&#45;&gt;Node2 -->
<g id="edge26" class="edge">
<title>Node16&#45;&gt;Node2</title>
<path fill="none" stroke="midnightblue" d="M110.16,-608.35C88.38,-591.98 65.95,-568.22 81,-547 97.32,-523.98 124.98,-511.38 151.73,-504.5"/>
<polygon fill="midnightblue" stroke="midnightblue" points="108.22,-611.27 118.39,-614.24 112.29,-605.57 108.22,-611.27"/>
</g>
<!-- Node17 -->
<g id="node17" class="node">
<title>Node17</title>
<g id="a_node17"><a xlink:href="cu__bem__tools_8hcu_source.html" target="_top" xlink:title=" ">
<polygon fill="none" stroke="black" points="89.5,-547.5 89.5,-577.5 196.5,-577.5 196.5,-547.5 89.5,-547.5"/>
<text text-anchor="start" x="97.5" y="-565.5" font-family="Helvetica,sans-Serif" font-size="10.00">include/bem/cu_bem</text>
<text text-anchor="middle" x="143" y="-554.5" font-family="Helvetica,sans-Serif" font-size="10.00">_tools.hcu</text>
</a>
</g>
</g>
<!-- Node16&#45;&gt;Node17 -->
<g id="edge27" class="edge">
<title>Node16&#45;&gt;Node17</title>
<path fill="none" stroke="midnightblue" d="M142.38,-604.11C142.51,-595.15 142.66,-585.32 142.78,-577.58"/>
<polygon fill="midnightblue" stroke="midnightblue" points="138.87,-604.34 142.22,-614.4 145.87,-604.45 138.87,-604.34"/>
</g>
<!-- Node17&#45;&gt;Node2 -->
<g id="edge28" class="edge">
<title>Node17&#45;&gt;Node2</title>
<path fill="none" stroke="midnightblue" d="M168.85,-541.01C184.07,-528.94 202.54,-514.3 214.03,-505.19"/>
<polygon fill="midnightblue" stroke="midnightblue" points="166.46,-538.44 160.79,-547.4 170.8,-543.93 166.46,-538.44"/>
</g>
<!-- Node18&#45;&gt;Node2 -->
<g id="edge30" class="edge">
<title>Node18&#45;&gt;Node2</title>
<path fill="none" stroke="midnightblue" d="M293.77,-605.87C275.06,-576.12 243.08,-525.26 230.41,-505.1"/>
<polygon fill="midnightblue" stroke="midnightblue" points="290.83,-607.77 299.12,-614.37 296.76,-604.05 290.83,-607.77"/>
</g>
</g>
</svg>
