<?xml version="1.0" encoding="UTF-8" standalone="no"?>
<!DOCTYPE svg PUBLIC "-//W3C//DTD SVG 1.1//EN"
 "http://www.w3.org/Graphics/SVG/1.1/DTD/svg11.dtd">
<!-- Generated by graphviz version 2.43.0 (0)
 -->
<!-- Title: include/linear_algebra/cu_tensor.hcu Pages: 1 -->
<svg width="1008pt" height="664pt"
 viewBox="0.00 0.00 1007.54 664.00" xmlns="http://www.w3.org/2000/svg" xmlns:xlink="http://www.w3.org/1999/xlink">
<g id="graph0" class="graph" transform="scale(1 1) rotate(0) translate(4 660)">
<title>include/linear_algebra/cu_tensor.hcu</title>
<!-- Node1 -->
<g id="node1" class="node">
<title>Node1</title>
<g id="a_node1"><a xlink:title="Introduction of cu_tensor.hcu.">
<polygon fill="#bfbfbf" stroke="black" points="519.47,-625.5 519.47,-655.5 629.47,-655.5 629.47,-625.5 519.47,-625.5"/>
<text text-anchor="start" x="527.47" y="-643.5" font-family="Helvetica,sans-Serif" font-size="10.00">include/linear_algebra</text>
<text text-anchor="middle" x="574.47" y="-632.5" font-family="Helvetica,sans-Serif" font-size="10.00">/cu_tensor.hcu</text>
</a>
</g>
</g>
<!-- Node2 -->
<g id="node2" class="node">
<title>Node2</title>
<g id="a_node2"><a xlink:href="bem__kernels_8hcu_source.html" target="_top" xlink:title=" ">
<polygon fill="none" stroke="black" points="501.47,-569.5 501.47,-588.5 647.47,-588.5 647.47,-569.5 501.47,-569.5"/>
<text text-anchor="middle" x="574.47" y="-576.5" font-family="Helvetica,sans-Serif" font-size="10.00">include/bem/bem_kernels.hcu</text>
</a>
</g>
</g>
<!-- Node1&#45;&gt;Node2 -->
<g id="edge1" class="edge">
<title>Node1&#45;&gt;Node2</title>
<path fill="none" stroke="midnightblue" d="M574.47,-615.29C574.47,-605.86 574.47,-595.65 574.47,-588.66"/>
<polygon fill="midnightblue" stroke="midnightblue" points="570.97,-615.4 574.47,-625.4 577.97,-615.4 570.97,-615.4"/>
</g>
<!-- Node3 -->
<g id="node3" class="node">
<title>Node3</title>
<g id="a_node3"><a xlink:href="bem__general_8hcu_source.html" target="_top" xlink:title=" ">
<polygon fill="none" stroke="black" points="402.47,-441 402.47,-460 548.47,-460 548.47,-441 402.47,-441"/>
<text text-anchor="middle" x="475.47" y="-448" font-family="Helvetica,sans-Serif" font-size="10.00">include/bem/bem_general.hcu</text>
</a>
</g>
</g>
<!-- Node2&#45;&gt;Node3 -->
<g id="edge2" class="edge">
<title>Node2&#45;&gt;Node3</title>
<path fill="none" stroke="midnightblue" d="M561.26,-561.12C539.93,-533.86 498.62,-481.08 482.33,-460.26"/>
<polygon fill="midnightblue" stroke="midnightblue" points="558.75,-563.59 567.67,-569.31 564.26,-559.27 558.75,-563.59"/>
</g>
<!-- Node17 -->
<g id="node17" class="node">
<title>Node17</title>
<g id="a_node17"><a xlink:href="aca__plus_8hcu.html" target="_top" xlink:title="Implement the ACA+ method proposed in Grasedyck, L. 2005. “Adaptive Recompression of &#45;Matrices for BE...">
<polygon fill="none" stroke="black" points="566.97,-435.5 566.97,-465.5 667.97,-465.5 667.97,-435.5 566.97,-435.5"/>
<text text-anchor="start" x="574.97" y="-453.5" font-family="Helvetica,sans-Serif" font-size="10.00">include/hmatrix/aca</text>
<text text-anchor="middle" x="617.47" y="-442.5" font-family="Helvetica,sans-Serif" font-size="10.00">_plus/aca_plus.hcu</text>
</a>
</g>
</g>
<!-- Node2&#45;&gt;Node17 -->
<g id="edge24" class="edge">
<title>Node2&#45;&gt;Node17</title>
<path fill="none" stroke="midnightblue" d="M578.03,-559.48C581.27,-543.9 586.6,-521.16 593.47,-502 598,-489.39 604.62,-475.7 609.76,-465.76"/>
<polygon fill="midnightblue" stroke="midnightblue" points="574.57,-558.91 576.04,-569.4 581.44,-560.28 574.57,-558.91"/>
</g>
<!-- Node22 -->
<g id="node22" class="node">
<title>Node22</title>
<g id="a_node22"><a xlink:href="sauter__quadrature_8hcu_source.html" target="_top" xlink:title=" ">
<polygon fill="none" stroke="black" points="602.47,-502.5 602.47,-532.5 718.47,-532.5 718.47,-502.5 602.47,-502.5"/>
<text text-anchor="start" x="610.47" y="-520.5" font-family="Helvetica,sans-Serif" font-size="10.00">include/quadrature</text>
<text text-anchor="middle" x="660.47" y="-509.5" font-family="Helvetica,sans-Serif" font-size="10.00">/sauter_quadrature.hcu</text>
</a>
</g>
</g>
<!-- Node2&#45;&gt;Node22 -->
<g id="edge34" class="edge">
<title>Node2&#45;&gt;Node22</title>
<path fill="none" stroke="midnightblue" d="M595.09,-563.74C608.75,-554.28 626.61,-541.93 640.21,-532.52"/>
<polygon fill="midnightblue" stroke="midnightblue" points="593.03,-560.91 586.8,-569.48 597.01,-566.66 593.03,-560.91"/>
</g>
<!-- Node4 -->
<g id="node4" class="node">
<title>Node4</title>
<g id="a_node4"><a xlink:href="helmholtz__acoustic__bem_8priv_8hcu_source.html" target="_top" xlink:title=" ">
<polygon fill="none" stroke="black" points="90.97,-134.5 90.97,-164.5 227.97,-164.5 227.97,-134.5 90.97,-134.5"/>
<text text-anchor="start" x="98.97" y="-152.5" font-family="Helvetica,sans-Serif" font-size="10.00">include/helmholtz/helmholtz</text>
<text text-anchor="middle" x="159.47" y="-141.5" font-family="Helvetica,sans-Serif" font-size="10.00">_acoustic_bem.priv.hcu</text>
</a>
</g>
</g>
<!-- Node3&#45;&gt;Node4 -->
<g id="edge3" class="edge">
<title>Node3&#45;&gt;Node4</title>
<path fill="none" stroke="midnightblue" d="M392.15,-445.7C272.4,-439.37 63.41,-424.76 40.47,-399 -18.05,-333.28 -8.1,-274.38 40.47,-201 52.12,-183.41 71.26,-171.93 90.81,-164.44"/>
<polygon fill="midnightblue" stroke="midnightblue" points="392.22,-449.21 402.38,-446.23 392.58,-442.22 392.22,-449.21"/>
</g>
<!-- Node7 -->
<g id="node7" class="node">
<title>Node7</title>
<g id="a_node7"><a xlink:href="laplace__bem_8priv_8hcu_source.html" target="_top" xlink:title=" ">
<polygon fill="none" stroke="black" points="671.97,-134.5 671.97,-164.5 786.97,-164.5 786.97,-134.5 671.97,-134.5"/>
<text text-anchor="start" x="679.97" y="-152.5" font-family="Helvetica,sans-Serif" font-size="10.00">include/laplace/laplace</text>
<text text-anchor="middle" x="729.47" y="-141.5" font-family="Helvetica,sans-Serif" font-size="10.00">_bem.priv.hcu</text>
</a>
</g>
</g>
<!-- Node3&#45;&gt;Node7 -->
<g id="edge6" class="edge">
<title>Node3&#45;&gt;Node7</title>
<path fill="none" stroke="midnightblue" d="M479.4,-431.05C484.69,-410.4 496.03,-377.19 517.47,-357 550.05,-326.34 572.57,-343.09 611.47,-321 660.18,-293.34 681.05,-290.67 710.47,-243 725.63,-218.45 728.93,-183.93 729.51,-164.76"/>
<polygon fill="midnightblue" stroke="midnightblue" points="475.98,-430.28 477.11,-440.82 482.8,-431.88 475.98,-430.28"/>
</g>
<!-- Node10 -->
<g id="node10" class="node">
<title>Node10</title>
<g id="a_node10"><a xlink:href="operator__preconditioner_8h.html" target="_top" xlink:title="Definition of the abstract class for dual mesh operator preconditioner.">
<polygon fill="none" stroke="black" points="339.97,-363 339.97,-393 468.97,-393 468.97,-363 339.97,-363"/>
<text text-anchor="start" x="347.97" y="-381" font-family="Helvetica,sans-Serif" font-size="10.00">include/preconditioners</text>
<text text-anchor="middle" x="404.47" y="-370" font-family="Helvetica,sans-Serif" font-size="10.00">/operator_preconditioner.h</text>
</a>
</g>
</g>
<!-- Node3&#45;&gt;Node10 -->
<g id="edge9" class="edge">
<title>Node3&#45;&gt;Node10</title>
<path fill="none" stroke="midnightblue" d="M459.45,-433.59C447.19,-421.41 430.43,-404.77 418.65,-393.08"/>
<polygon fill="midnightblue" stroke="midnightblue" points="457.21,-436.29 466.77,-440.86 462.14,-431.33 457.21,-436.29"/>
</g>
<!-- Node5 -->
<g id="node5" class="node">
<title>Node5</title>
<g id="a_node5"><a xlink:href="helmholtz__acoustic__bem_8impl_8hcu.html" target="_top" xlink:title="Call member functions of pimpl from HelmholtzAcousticBEM.">
<polygon fill="none" stroke="black" points="90.97,-67.5 90.97,-97.5 227.97,-97.5 227.97,-67.5 90.97,-67.5"/>
<text text-anchor="start" x="98.97" y="-85.5" font-family="Helvetica,sans-Serif" font-size="10.00">include/helmholtz/helmholtz</text>
<text text-anchor="middle" x="159.47" y="-74.5" font-family="Helvetica,sans-Serif" font-size="10.00">_acoustic_bem.impl.hcu</text>
</a>
</g>
</g>
<!-- Node4&#45;&gt;Node5 -->
<g id="edge4" class="edge">
<title>Node4&#45;&gt;Node5</title>
<path fill="none" stroke="midnightblue" d="M159.47,-124.11C159.47,-115.15 159.47,-105.32 159.47,-97.58"/>
<polygon fill="midnightblue" stroke="midnightblue" points="155.97,-124.4 159.47,-134.4 162.97,-124.4 155.97,-124.4"/>
</g>
<!-- Node6 -->
<g id="node6" class="node">
<title>Node6</title>
<g id="a_node6"><a xlink:href="helmholtz__acoustic__bem_8cu_source.html" target="_top" xlink:title=" ">
<polygon fill="none" stroke="black" points="99.47,-0.5 99.47,-30.5 219.47,-30.5 219.47,-0.5 99.47,-0.5"/>
<text text-anchor="start" x="107.47" y="-18.5" font-family="Helvetica,sans-Serif" font-size="10.00">src/helmholtz/helmholtz</text>
<text text-anchor="middle" x="159.47" y="-7.5" font-family="Helvetica,sans-Serif" font-size="10.00">_acoustic_bem.cu</text>
</a>
</g>
</g>
<!-- Node5&#45;&gt;Node6 -->
<g id="edge5" class="edge">
<title>Node5&#45;&gt;Node6</title>
<path fill="none" stroke="midnightblue" d="M159.47,-57.11C159.47,-48.15 159.47,-38.32 159.47,-30.58"/>
<polygon fill="midnightblue" stroke="midnightblue" points="155.97,-57.4 159.47,-67.4 162.97,-57.4 155.97,-57.4"/>
</g>
<!-- Node8 -->
<g id="node8" class="node">
<title>Node8</title>
<g id="a_node8"><a xlink:href="laplace__bem_8impl_8hcu.html" target="_top" xlink:title="Implementation of pimpl member functions to be called by LaplaceBEM.">
<polygon fill="none" stroke="black" points="671.97,-67.5 671.97,-97.5 786.97,-97.5 786.97,-67.5 671.97,-67.5"/>
<text text-anchor="start" x="679.97" y="-85.5" font-family="Helvetica,sans-Serif" font-size="10.00">include/laplace/laplace</text>
<text text-anchor="middle" x="729.47" y="-74.5" font-family="Helvetica,sans-Serif" font-size="10.00">_bem.impl.hcu</text>
</a>
</g>
</g>
<!-- Node7&#45;&gt;Node8 -->
<g id="edge7" class="edge">
<title>Node7&#45;&gt;Node8</title>
<path fill="none" stroke="midnightblue" d="M729.47,-124.11C729.47,-115.15 729.47,-105.32 729.47,-97.58"/>
<polygon fill="midnightblue" stroke="midnightblue" points="725.97,-124.4 729.47,-134.4 732.97,-124.4 725.97,-124.4"/>
</g>
<!-- Node9 -->
<g id="node9" class="node">
<title>Node9</title>
<g id="a_node9"><a xlink:href="laplace__bem_8cu_source.html" target="_top" xlink:title=" ">
<polygon fill="none" stroke="black" points="680.47,-0.5 680.47,-30.5 778.47,-30.5 778.47,-0.5 680.47,-0.5"/>
<text text-anchor="start" x="688.47" y="-18.5" font-family="Helvetica,sans-Serif" font-size="10.00">src/laplace/laplace</text>
<text text-anchor="middle" x="729.47" y="-7.5" font-family="Helvetica,sans-Serif" font-size="10.00">_bem.cu</text>
</a>
</g>
</g>
<!-- Node8&#45;&gt;Node9 -->
<g id="edge8" class="edge">
<title>Node8&#45;&gt;Node9</title>
<path fill="none" stroke="midnightblue" d="M729.47,-57.11C729.47,-48.15 729.47,-38.32 729.47,-30.58"/>
<polygon fill="midnightblue" stroke="midnightblue" points="725.97,-57.4 729.47,-67.4 732.97,-57.4 725.97,-57.4"/>
</g>
<!-- Node11 -->
<g id="node11" class="node">
<title>Node11</title>
<g id="a_node11"><a xlink:href="preconditioner__for__helmholtz__acoustic__hyper__singular__bio_8h.html" target="_top" xlink:title="Dual mesh operator preconditioner for the hyper singular boundary integral operator in the Helmholtz ...">
<polygon fill="none" stroke="black" points="82.97,-201.5 82.97,-242.5 235.97,-242.5 235.97,-201.5 82.97,-201.5"/>
<text text-anchor="start" x="90.97" y="-230.5" font-family="Helvetica,sans-Serif" font-size="10.00">include/preconditioners</text>
<text text-anchor="start" x="90.97" y="-219.5" font-family="Helvetica,sans-Serif" font-size="10.00">/preconditioner_for_helmholtz</text>
<text text-anchor="middle" x="159.47" y="-208.5" font-family="Helvetica,sans-Serif" font-size="10.00">_acoustic_hyper_singular_bio.h</text>
</a>
</g>
</g>
<!-- Node10&#45;&gt;Node11 -->
<g id="edge10" class="edge">
<title>Node10&#45;&gt;Node11</title>
<path fill="none" stroke="midnightblue" d="M329.47,-367.9C292.38,-360.31 248.76,-346.41 216.47,-321 190.49,-300.55 174.06,-264.74 165.84,-242.53"/>
<polygon fill="midnightblue" stroke="midnightblue" points="329.26,-371.43 339.74,-369.88 330.59,-364.55 329.26,-371.43"/>
</g>
<!-- Node12 -->
<g id="node12" class="node">
<title>Node12</title>
<g id="a_node12"><a xlink:href="preconditioner__for__helmholtz__acoustic__single__layer__bio_8h_source.html" target="_top" xlink:title=" ">
<polygon fill="none" stroke="black" points="405.47,-201.5 405.47,-242.5 549.47,-242.5 549.47,-201.5 405.47,-201.5"/>
<text text-anchor="start" x="413.47" y="-230.5" font-family="Helvetica,sans-Serif" font-size="10.00">include/preconditioners</text>
<text text-anchor="start" x="413.47" y="-219.5" font-family="Helvetica,sans-Serif" font-size="10.00">/preconditioner_for_helmholtz</text>
<text text-anchor="middle" x="477.47" y="-208.5" font-family="Helvetica,sans-Serif" font-size="10.00">_acoustic_single_layer_bio.h</text>
</a>
</g>
</g>
<!-- Node10&#45;&gt;Node12 -->
<g id="edge12" class="edge">
<title>Node10&#45;&gt;Node12</title>
<path fill="none" stroke="midnightblue" d="M410.01,-353.09C415.26,-332.72 424.17,-303.01 436.47,-279 443.07,-266.13 452.49,-253.02 460.64,-242.73"/>
<polygon fill="midnightblue" stroke="midnightblue" points="406.61,-352.27 407.61,-362.82 413.41,-353.95 406.61,-352.27"/>
</g>
<!-- Node13 -->
<g id="node13" class="node">
<title>Node13</title>
<g id="a_node13"><a xlink:href="preconditioner__for__hyper__singular__bio_8h.html" target="_top" xlink:title="Dual mesh operator preconditioner for the hyper singular boundary integral operator.">
<polygon fill="none" stroke="black" points="225.47,-279.5 225.47,-320.5 351.47,-320.5 351.47,-279.5 225.47,-279.5"/>
<text text-anchor="start" x="233.47" y="-308.5" font-family="Helvetica,sans-Serif" font-size="10.00">include/preconditioners</text>
<text text-anchor="start" x="233.47" y="-297.5" font-family="Helvetica,sans-Serif" font-size="10.00">/preconditioner_for_hyper</text>
<text text-anchor="middle" x="288.47" y="-286.5" font-family="Helvetica,sans-Serif" font-size="10.00">_singular_bio.h</text>
</a>
</g>
</g>
<!-- Node10&#45;&gt;Node13 -->
<g id="edge14" class="edge">
<title>Node10&#45;&gt;Node13</title>
<path fill="none" stroke="midnightblue" d="M374.39,-357.29C357.24,-346.06 335.82,-332.02 318.65,-320.77"/>
<polygon fill="midnightblue" stroke="midnightblue" points="372.64,-360.33 382.93,-362.88 376.48,-354.48 372.64,-360.33"/>
</g>
<!-- Node14 -->
<g id="node14" class="node">
<title>Node14</title>
<g id="a_node14"><a xlink:href="preconditioner__for__laplace__hyper__singular__bio_8h.html" target="_top" xlink:title="Dual mesh operator preconditioner for the hyper singular boundary integral operator in the Laplace eq...">
<polygon fill="none" stroke="black" points="253.97,-201.5 253.97,-242.5 386.97,-242.5 386.97,-201.5 253.97,-201.5"/>
<text text-anchor="start" x="261.97" y="-230.5" font-family="Helvetica,sans-Serif" font-size="10.00">include/preconditioners</text>
<text text-anchor="start" x="261.97" y="-219.5" font-family="Helvetica,sans-Serif" font-size="10.00">/preconditioner_for_laplace</text>
<text text-anchor="middle" x="320.47" y="-208.5" font-family="Helvetica,sans-Serif" font-size="10.00">_hyper_singular_bio.h</text>
</a>
</g>
</g>
<!-- Node10&#45;&gt;Node14 -->
<g id="edge18" class="edge">
<title>Node10&#45;&gt;Node14</title>
<path fill="none" stroke="midnightblue" d="M395.48,-353.56C387.35,-333.3 374.53,-303.49 360.47,-279 353.22,-266.36 343.79,-253.05 335.91,-242.58"/>
<polygon fill="midnightblue" stroke="midnightblue" points="392.26,-354.92 399.19,-362.94 398.77,-352.35 392.26,-354.92"/>
</g>
<!-- Node15 -->
<g id="node15" class="node">
<title>Node15</title>
<g id="a_node15"><a xlink:href="preconditioner__for__laplace__single__layer__bio_8h.html" target="_top" xlink:title="Dual mesh operator preconditioner for the single layer potential boundary integral operator in the La...">
<polygon fill="none" stroke="black" points="567.97,-201.5 567.97,-242.5 700.97,-242.5 700.97,-201.5 567.97,-201.5"/>
<text text-anchor="start" x="575.97" y="-230.5" font-family="Helvetica,sans-Serif" font-size="10.00">include/preconditioners</text>
<text text-anchor="start" x="575.97" y="-219.5" font-family="Helvetica,sans-Serif" font-size="10.00">/preconditioner_for_laplace</text>
<text text-anchor="middle" x="634.47" y="-208.5" font-family="Helvetica,sans-Serif" font-size="10.00">_single_layer_bio.h</text>
</a>
</g>
</g>
<!-- Node10&#45;&gt;Node15 -->
<g id="edge19" class="edge">
<title>Node10&#45;&gt;Node15</title>
<path fill="none" stroke="midnightblue" d="M465.8,-360.19C513.51,-346.7 573.13,-328.78 582.47,-321 607.2,-300.43 621.8,-264.99 628.96,-242.84"/>
<polygon fill="midnightblue" stroke="midnightblue" points="464.81,-356.83 456.13,-362.91 466.71,-363.57 464.81,-356.83"/>
</g>
<!-- Node16 -->
<g id="node16" class="node">
<title>Node16</title>
<g id="a_node16"><a xlink:href="preconditioner__for__single__layer__bio_8h.html" target="_top" xlink:title="Dual mesh operator preconditioner for the single layer potential boundary integral operator.">
<polygon fill="none" stroke="black" points="445.47,-279.5 445.47,-320.5 573.47,-320.5 573.47,-279.5 445.47,-279.5"/>
<text text-anchor="start" x="453.47" y="-308.5" font-family="Helvetica,sans-Serif" font-size="10.00">include/preconditioners</text>
<text text-anchor="start" x="453.47" y="-297.5" font-family="Helvetica,sans-Serif" font-size="10.00">/preconditioner_for_single</text>
<text text-anchor="middle" x="509.47" y="-286.5" font-family="Helvetica,sans-Serif" font-size="10.00">_layer_bio.h</text>
</a>
</g>
</g>
<!-- Node10&#45;&gt;Node16 -->
<g id="edge21" class="edge">
<title>Node10&#45;&gt;Node16</title>
<path fill="none" stroke="midnightblue" d="M432.38,-356.8C447.83,-345.62 466.95,-331.78 482.28,-320.68"/>
<polygon fill="midnightblue" stroke="midnightblue" points="430.27,-354.01 424.22,-362.7 434.38,-359.68 430.27,-354.01"/>
</g>
<!-- Node11&#45;&gt;Node4 -->
<g id="edge11" class="edge">
<title>Node11&#45;&gt;Node4</title>
<path fill="none" stroke="midnightblue" d="M159.47,-191.08C159.47,-182.01 159.47,-172.45 159.47,-164.89"/>
<polygon fill="midnightblue" stroke="midnightblue" points="155.97,-191.36 159.47,-201.36 162.97,-191.36 155.97,-191.36"/>
</g>
<!-- Node12&#45;&gt;Node4 -->
<g id="edge13" class="edge">
<title>Node12&#45;&gt;Node4</title>
<path fill="none" stroke="midnightblue" d="M395.16,-200.73C333.39,-186.61 273.04,-173.83 228.05,-164.5"/>
<polygon fill="midnightblue" stroke="midnightblue" points="394.55,-204.18 405.08,-203 396.11,-197.35 394.55,-204.18"/>
</g>
<!-- Node13&#45;&gt;Node11 -->
<g id="edge15" class="edge">
<title>Node13&#45;&gt;Node11</title>
<path fill="none" stroke="midnightblue" d="M246.38,-274.2C228.93,-263.92 208.97,-252.16 192.58,-242.51"/>
<polygon fill="midnightblue" stroke="midnightblue" points="244.86,-277.37 255.25,-279.43 248.41,-271.34 244.86,-277.37"/>
</g>
<!-- Node13&#45;&gt;Node14 -->
<g id="edge16" class="edge">
<title>Node13&#45;&gt;Node14</title>
<path fill="none" stroke="midnightblue" d="M300.61,-270.17C304.5,-260.93 308.72,-250.92 312.26,-242.51"/>
<polygon fill="midnightblue" stroke="midnightblue" points="297.37,-268.85 296.71,-279.43 303.82,-271.57 297.37,-268.85"/>
</g>
<!-- Node14&#45;&gt;Node7 -->
<g id="edge17" class="edge">
<title>Node14&#45;&gt;Node7</title>
<path fill="none" stroke="midnightblue" d="M396.98,-201.01C499.25,-180.24 607.09,-165.45 671.69,-157.36"/>
<polygon fill="midnightblue" stroke="midnightblue" points="396.2,-197.59 387.11,-203.03 397.61,-204.45 396.2,-197.59"/>
</g>
<!-- Node15&#45;&gt;Node7 -->
<g id="edge20" class="edge">
<title>Node15&#45;&gt;Node7</title>
<path fill="none" stroke="midnightblue" d="M669.33,-195.14C683.2,-184.84 698.62,-173.39 710.38,-164.67"/>
<polygon fill="midnightblue" stroke="midnightblue" points="666.88,-192.59 660.94,-201.36 671.05,-198.21 666.88,-192.59"/>
</g>
<!-- Node16&#45;&gt;Node12 -->
<g id="edge22" class="edge">
<title>Node16&#45;&gt;Node12</title>
<path fill="none" stroke="midnightblue" d="M497.34,-270.17C493.45,-260.93 489.23,-250.92 485.69,-242.51"/>
<polygon fill="midnightblue" stroke="midnightblue" points="494.13,-271.57 501.23,-279.43 500.58,-268.85 494.13,-271.57"/>
</g>
<!-- Node16&#45;&gt;Node15 -->
<g id="edge23" class="edge">
<title>Node16&#45;&gt;Node15</title>
<path fill="none" stroke="midnightblue" d="M550.26,-274.2C567.18,-263.92 586.52,-252.16 602.39,-242.51"/>
<polygon fill="midnightblue" stroke="midnightblue" points="548.39,-271.24 541.66,-279.43 552.03,-277.22 548.39,-271.24"/>
</g>
<!-- Node17&#45;&gt;Node4 -->
<g id="edge30" class="edge">
<title>Node17&#45;&gt;Node4</title>
<path fill="none" stroke="midnightblue" d="M556.81,-435.01C326.26,-391.22 176.89,-446.36 73.47,-243 65.01,-226.36 64.2,-217.2 73.47,-201 83.02,-184.32 100.46,-172.61 117.15,-164.7"/>
<polygon fill="midnightblue" stroke="midnightblue" points="556.31,-438.47 566.8,-436.95 557.65,-431.6 556.31,-438.47"/>
</g>
<!-- Node17&#45;&gt;Node7 -->
<g id="edge31" class="edge">
<title>Node17&#45;&gt;Node7</title>
<path fill="none" stroke="midnightblue" d="M678.34,-435.27C758.47,-425.24 931.43,-446.47 973.47,-399 1025.62,-340.13 997.81,-287.96 894.47,-201 864.33,-175.64 821.62,-163 787.2,-156.72"/>
<polygon fill="midnightblue" stroke="midnightblue" points="677.49,-431.86 668.13,-436.82 678.54,-438.78 677.49,-431.86"/>
</g>
<!-- Node17&#45;&gt;Node10 -->
<g id="edge32" class="edge">
<title>Node17&#45;&gt;Node10</title>
<path fill="none" stroke="midnightblue" d="M565.22,-432.2C528.9,-420.18 481.11,-404.36 447.09,-393.11"/>
<polygon fill="midnightblue" stroke="midnightblue" points="564.54,-435.67 575.14,-435.49 566.74,-429.02 564.54,-435.67"/>
</g>
<!-- Node18 -->
<g id="node18" class="node">
<title>Node18</title>
<g id="a_node18"><a xlink:href="build-hmatrix-on-subdomain_8cu.html" target="_top" xlink:title="Example for building an H&#45;matrix on a subdomain which is specified by a set of material ids.">
<polygon fill="none" stroke="black" points="525.97,-357.5 525.97,-398.5 664.97,-398.5 664.97,-357.5 525.97,-357.5"/>
<text text-anchor="start" x="533.97" y="-386.5" font-family="Helvetica,sans-Serif" font-size="10.00">examples/build&#45;hmatrix</text>
<text text-anchor="start" x="533.97" y="-375.5" font-family="Helvetica,sans-Serif" font-size="10.00">&#45;on&#45;subdomain/build&#45;hmatrix</text>
<text text-anchor="middle" x="595.47" y="-364.5" font-family="Helvetica,sans-Serif" font-size="10.00">&#45;on&#45;subdomain.cu</text>
</a>
</g>
</g>
<!-- Node17&#45;&gt;Node18 -->
<g id="edge25" class="edge">
<title>Node17&#45;&gt;Node18</title>
<path fill="none" stroke="midnightblue" d="M610,-425.56C607.26,-416.77 604.19,-406.94 601.59,-398.59"/>
<polygon fill="midnightblue" stroke="midnightblue" points="606.7,-426.73 613.02,-435.23 613.38,-424.64 606.7,-426.73"/>
</g>
<!-- Node19 -->
<g id="node19" class="node">
<title>Node19</title>
<g id="a_node19"><a xlink:href="build-hmatrix_8cu.html" target="_top" xlink:title="Example for building an H&#45;matrix.">
<polygon fill="none" stroke="black" points="682.97,-363 682.97,-393 799.97,-393 799.97,-363 682.97,-363"/>
<text text-anchor="start" x="690.97" y="-381" font-family="Helvetica,sans-Serif" font-size="10.00">examples/build&#45;hmatrix</text>
<text text-anchor="middle" x="741.47" y="-370" font-family="Helvetica,sans-Serif" font-size="10.00">/build&#45;hmatrix.cu</text>
</a>
</g>
</g>
<!-- Node17&#45;&gt;Node19 -->
<g id="edge26" class="edge">
<title>Node17&#45;&gt;Node19</title>
<path fill="none" stroke="midnightblue" d="M651.07,-430.4C671.78,-418.62 697.89,-403.78 716.72,-393.07"/>
<polygon fill="midnightblue" stroke="midnightblue" points="649.23,-427.42 642.27,-435.4 652.69,-433.5 649.23,-427.42"/>
</g>
<!-- Node20 -->
<g id="node20" class="node">
<title>Node20</title>
<g id="a_node20"><a xlink:href="bem__bilinear__form_8h.html" target="_top" xlink:title="Definition of a class for BEM bilinear form.">
<polygon fill="none" stroke="black" points="757.97,-207 757.97,-237 884.97,-237 884.97,-207 757.97,-207"/>
<text text-anchor="start" x="765.97" y="-225" font-family="Helvetica,sans-Serif" font-size="10.00">include/bem/bem_bilinear</text>
<text text-anchor="middle" x="821.47" y="-214" font-family="Helvetica,sans-Serif" font-size="10.00">_form.h</text>
</a>
</g>
</g>
<!-- Node17&#45;&gt;Node20 -->
<g id="edge27" class="edge">
<title>Node17&#45;&gt;Node20</title>
<path fill="none" stroke="midnightblue" d="M677.89,-434.49C733.36,-420.58 807.29,-401.65 809.47,-399 848.7,-351.56 833.73,-270.11 825.48,-237.31"/>
<polygon fill="midnightblue" stroke="midnightblue" points="676.97,-431.12 668.12,-436.94 678.67,-437.91 676.97,-431.12"/>
</g>
<!-- Node21 -->
<g id="node21" class="node">
<title>Node21</title>
<g id="a_node21"><a xlink:href="aca__plus_8cu_source.html" target="_top" xlink:title=" ">
<polygon fill="none" stroke="black" points="856.97,-363 856.97,-393 963.97,-393 963.97,-363 856.97,-363"/>
<text text-anchor="start" x="864.97" y="-381" font-family="Helvetica,sans-Serif" font-size="10.00">src/hmatrix/aca_plus</text>
<text text-anchor="middle" x="910.47" y="-370" font-family="Helvetica,sans-Serif" font-size="10.00">/aca_plus.cu</text>
</a>
</g>
</g>
<!-- Node17&#45;&gt;Node21 -->
<g id="edge33" class="edge">
<title>Node17&#45;&gt;Node21</title>
<path fill="none" stroke="midnightblue" d="M678.03,-434.91C752.28,-418.11 772.74,-416.84 842.47,-399 849.63,-397.17 857.16,-395.1 864.51,-393"/>
<polygon fill="midnightblue" stroke="midnightblue" points="677.16,-431.52 668.19,-437.16 678.72,-438.34 677.16,-431.52"/>
</g>
<!-- Node20&#45;&gt;Node4 -->
<g id="edge28" class="edge">
<title>Node20&#45;&gt;Node4</title>
<path fill="none" stroke="midnightblue" d="M748.02,-206.84C735.52,-204.69 722.65,-202.65 710.47,-201 537.47,-177.53 332.39,-161.93 227.98,-154.86"/>
<polygon fill="midnightblue" stroke="midnightblue" points="747.48,-210.3 757.94,-208.57 748.69,-203.4 747.48,-210.3"/>
</g>
<!-- Node20&#45;&gt;Node7 -->
<g id="edge29" class="edge">
<title>Node20&#45;&gt;Node7</title>
<path fill="none" stroke="midnightblue" d="M794.87,-200.61C779.75,-189.03 761.22,-174.83 747.75,-164.5"/>
<polygon fill="midnightblue" stroke="midnightblue" points="792.79,-203.43 802.86,-206.73 797.05,-197.87 792.79,-203.43"/>
</g>
<!-- Node22&#45;&gt;Node3 -->
<g id="edge35" class="edge">
<title>Node22&#45;&gt;Node3</title>
<path fill="none" stroke="midnightblue" d="M610.51,-498.95C574.58,-486.32 527.7,-469.85 499.69,-460.01"/>
<polygon fill="midnightblue" stroke="midnightblue" points="609.74,-502.38 620.33,-502.4 612.06,-495.78 609.74,-502.38"/>
</g>
<!-- Node22&#45;&gt;Node17 -->
<g id="edge36" class="edge">
<title>Node22&#45;&gt;Node17</title>
<path fill="none" stroke="midnightblue" d="M645.5,-493.87C639.28,-484.46 632.25,-473.83 626.79,-465.58"/>
<polygon fill="midnightblue" stroke="midnightblue" points="642.71,-495.99 651.14,-502.4 648.55,-492.12 642.71,-495.99"/>
</g>
<!-- Node23 -->
<g id="node23" class="node">
<title>Node23</title>
<g id="a_node23"><a xlink:href="cu__related_8cu_source.html" target="_top" xlink:title=" ">
<polygon fill="none" stroke="black" points="685.97,-435.5 685.97,-465.5 792.97,-465.5 792.97,-435.5 685.97,-435.5"/>
<text text-anchor="start" x="693.97" y="-453.5" font-family="Helvetica,sans-Serif" font-size="10.00">src/hbem_laplace/cu</text>
<text text-anchor="middle" x="739.47" y="-442.5" font-family="Helvetica,sans-Serif" font-size="10.00">_related.cu</text>
</a>
</g>
</g>
<!-- Node22&#45;&gt;Node23 -->
<g id="edge37" class="edge">
<title>Node22&#45;&gt;Node23</title>
<path fill="none" stroke="midnightblue" d="M685.53,-495.88C697.54,-486.01 711.61,-474.43 722.37,-465.58"/>
<polygon fill="midnightblue" stroke="midnightblue" points="683.11,-493.34 677.62,-502.4 687.56,-498.75 683.11,-493.34"/>
</g>
<!-- Node24 -->
<g id="node24" class="node">
<title>Node24</title>
<g id="a_node24"><a xlink:href="sauter__quadrature_8cu.html" target="_top" xlink:title="Implementation of functions in include/quadrature/sauter_quadrature.hcu.">
<polygon fill="none" stroke="black" points="810.97,-435.5 810.97,-465.5 919.97,-465.5 919.97,-435.5 810.97,-435.5"/>
<text text-anchor="start" x="818.97" y="-453.5" font-family="Helvetica,sans-Serif" font-size="10.00">src/quadrature/sauter</text>
<text text-anchor="middle" x="865.47" y="-442.5" font-family="Helvetica,sans-Serif" font-size="10.00">_quadrature.cu</text>
</a>
</g>
</g>
<!-- Node22&#45;&gt;Node24 -->
<g id="edge38" class="edge">
<title>Node22&#45;&gt;Node24</title>
<path fill="none" stroke="midnightblue" d="M714.27,-499.44C747.5,-488.91 789.63,-475.55 820.97,-465.61"/>
<polygon fill="midnightblue" stroke="midnightblue" points="713.18,-496.12 704.7,-502.48 715.29,-502.79 713.18,-496.12"/>
</g>
</g>
</svg>
