<?xml version="1.0" encoding="UTF-8" standalone="no"?>
<!DOCTYPE svg PUBLIC "-//W3C//DTD SVG 1.1//EN"
 "http://www.w3.org/Graphics/SVG/1.1/DTD/svg11.dtd">
<!-- Generated by graphviz version 2.43.0 (0)
 -->
<!-- Title: include/bem/cu_bem_values.hcu Pages: 1 -->
<svg width="540pt" height="586pt"
 viewBox="0.00 0.00 540.00 586.00" xmlns="http://www.w3.org/2000/svg" xmlns:xlink="http://www.w3.org/1999/xlink">
<g id="graph0" class="graph" transform="scale(1 1) rotate(0) translate(4 582)">
<title>include/bem/cu_bem_values.hcu</title>
<!-- Node1 -->
<g id="node1" class="node">
<title>Node1</title>
<g id="a_node1"><a xlink:title="Introduction of cu_bem_values.hcu.">
<polygon fill="#bfbfbf" stroke="black" points="128,-547.5 128,-577.5 235,-577.5 235,-547.5 128,-547.5"/>
<text text-anchor="start" x="136" y="-565.5" font-family="Helvetica,sans-Serif" font-size="10.00">include/bem/cu_bem</text>
<text text-anchor="middle" x="181.5" y="-554.5" font-family="Helvetica,sans-Serif" font-size="10.00">_values.hcu</text>
</a>
</g>
</g>
<!-- Node2 -->
<g id="node2" class="node">
<title>Node2</title>
<g id="a_node2"><a xlink:href="bem__kernels_8hcu_source.html" target="_top" xlink:title=" ">
<polygon fill="none" stroke="black" points="159.5,-486 159.5,-505 305.5,-505 305.5,-486 159.5,-486"/>
<text text-anchor="middle" x="232.5" y="-493" font-family="Helvetica,sans-Serif" font-size="10.00">include/bem/bem_kernels.hcu</text>
</a>
</g>
</g>
<!-- Node1&#45;&gt;Node2 -->
<g id="edge1" class="edge">
<title>Node1&#45;&gt;Node2</title>
<path fill="none" stroke="midnightblue" d="M198.91,-539.32C208.1,-527.6 218.86,-513.88 225.68,-505.19"/>
<polygon fill="midnightblue" stroke="midnightblue" points="195.99,-537.37 192.57,-547.4 201.49,-541.69 195.99,-537.37"/>
</g>
<!-- Node10 -->
<g id="node10" class="node">
<title>Node10</title>
<g id="a_node10"><a xlink:href="aca__plus_8hcu.html" target="_top" xlink:title="Implement the ACA+ method proposed in Grasedyck, L. 2005. “Adaptive Recompression of &#45;Matrices for BE...">
<polygon fill="none" stroke="black" points="0,-346.5 0,-376.5 101,-376.5 101,-346.5 0,-346.5"/>
<text text-anchor="start" x="8" y="-364.5" font-family="Helvetica,sans-Serif" font-size="10.00">include/hmatrix/aca</text>
<text text-anchor="middle" x="50.5" y="-353.5" font-family="Helvetica,sans-Serif" font-size="10.00">_plus/aca_plus.hcu</text>
</a>
</g>
</g>
<!-- Node1&#45;&gt;Node10 -->
<g id="edge20" class="edge">
<title>Node1&#45;&gt;Node10</title>
<path fill="none" stroke="midnightblue" d="M157.4,-540.32C133.77,-518.37 98.2,-481.99 76.5,-444 64.05,-422.21 56.71,-393.67 53.15,-376.79"/>
<polygon fill="midnightblue" stroke="midnightblue" points="155.18,-543.04 164.92,-547.2 159.9,-537.87 155.18,-543.04"/>
</g>
<!-- Node12 -->
<g id="node12" class="node">
<title>Node12</title>
<g id="a_node12"><a xlink:href="sauter__quadrature_8hcu_source.html" target="_top" xlink:title=" ">
<polygon fill="none" stroke="black" points="116.5,-413.5 116.5,-443.5 232.5,-443.5 232.5,-413.5 116.5,-413.5"/>
<text text-anchor="start" x="124.5" y="-431.5" font-family="Helvetica,sans-Serif" font-size="10.00">include/quadrature</text>
<text text-anchor="middle" x="174.5" y="-420.5" font-family="Helvetica,sans-Serif" font-size="10.00">/sauter_quadrature.hcu</text>
</a>
</g>
</g>
<!-- Node1&#45;&gt;Node12 -->
<g id="edge21" class="edge">
<title>Node1&#45;&gt;Node12</title>
<path fill="none" stroke="midnightblue" d="M164.09,-539.09C158.62,-530.75 153.29,-520.89 150.5,-511 146.76,-497.74 147.47,-493.44 150.5,-480 153.4,-467.12 160,-453.67 165.54,-443.9"/>
<polygon fill="midnightblue" stroke="midnightblue" points="161.36,-541.3 169.96,-547.49 167.1,-537.29 161.36,-541.3"/>
</g>
<!-- Node14 -->
<g id="node14" class="node">
<title>Node14</title>
<g id="a_node14"><a xlink:href="cu__debug__tools_8hcu_source.html" target="_top" xlink:title=" ">
<polygon fill="none" stroke="black" points="324,-480.5 324,-510.5 419,-510.5 419,-480.5 324,-480.5"/>
<text text-anchor="start" x="332" y="-498.5" font-family="Helvetica,sans-Serif" font-size="10.00">include/utilities/cu</text>
<text text-anchor="middle" x="371.5" y="-487.5" font-family="Helvetica,sans-Serif" font-size="10.00">_debug_tools.hcu</text>
</a>
</g>
</g>
<!-- Node1&#45;&gt;Node14 -->
<g id="edge22" class="edge">
<title>Node1&#45;&gt;Node14</title>
<path fill="none" stroke="midnightblue" d="M232.39,-544.09C263.06,-533.6 301.61,-520.41 330.35,-510.58"/>
<polygon fill="midnightblue" stroke="midnightblue" points="231.06,-540.85 222.73,-547.4 233.32,-547.47 231.06,-540.85"/>
</g>
<!-- Node3 -->
<g id="node3" class="node">
<title>Node3</title>
<g id="a_node3"><a xlink:href="bem__general_8hcu_source.html" target="_top" xlink:title=" ">
<polygon fill="none" stroke="black" points="246.5,-352 246.5,-371 392.5,-371 392.5,-352 246.5,-352"/>
<text text-anchor="middle" x="319.5" y="-359" font-family="Helvetica,sans-Serif" font-size="10.00">include/bem/bem_general.hcu</text>
</a>
</g>
</g>
<!-- Node2&#45;&gt;Node3 -->
<g id="edge2" class="edge">
<title>Node2&#45;&gt;Node3</title>
<path fill="none" stroke="midnightblue" d="M243.84,-477.29C262.69,-448.69 299.79,-392.41 313.88,-371.02"/>
<polygon fill="midnightblue" stroke="midnightblue" points="240.79,-475.56 238.21,-485.84 246.63,-479.42 240.79,-475.56"/>
</g>
<!-- Node7 -->
<g id="node7" class="node">
<title>Node7</title>
<g id="a_node7"><a xlink:href="operator__preconditioner_8h.html" target="_top" xlink:title=" ">
<polygon fill="none" stroke="black" points="255,-279.5 255,-309.5 384,-309.5 384,-279.5 255,-279.5"/>
<text text-anchor="start" x="263" y="-297.5" font-family="Helvetica,sans-Serif" font-size="10.00">include/preconditioners</text>
<text text-anchor="middle" x="319.5" y="-286.5" font-family="Helvetica,sans-Serif" font-size="10.00">/operator_preconditioner.h</text>
</a>
</g>
</g>
<!-- Node2&#45;&gt;Node7 -->
<g id="edge15" class="edge">
<title>Node2&#45;&gt;Node7</title>
<path fill="none" stroke="midnightblue" d="M266.73,-482.12C307.37,-465.35 373.21,-431.13 401.5,-377 407.88,-364.79 408.22,-358.03 401.5,-346 392.21,-329.36 374.93,-317.53 358.62,-309.52"/>
<polygon fill="midnightblue" stroke="midnightblue" points="265.21,-478.96 257.22,-485.92 267.81,-485.46 265.21,-478.96"/>
</g>
<!-- Node2&#45;&gt;Node10 -->
<g id="edge11" class="edge">
<title>Node2&#45;&gt;Node10</title>
<path fill="none" stroke="midnightblue" d="M186.8,-482.99C161.55,-475.02 130.7,-462.46 107.5,-444 84.13,-425.4 66.31,-394.72 57.22,-376.78"/>
<polygon fill="midnightblue" stroke="midnightblue" points="185.94,-486.39 196.52,-485.93 187.96,-479.69 185.94,-486.39"/>
</g>
<!-- Node2&#45;&gt;Node12 -->
<g id="edge16" class="edge">
<title>Node2&#45;&gt;Node12</title>
<path fill="none" stroke="midnightblue" d="M217.77,-477.99C208.29,-467.36 196.1,-453.7 187.07,-443.59"/>
<polygon fill="midnightblue" stroke="midnightblue" points="215.41,-480.6 224.68,-485.73 220.63,-475.94 215.41,-480.6"/>
</g>
<!-- Node4 -->
<g id="node4" class="node">
<title>Node4</title>
<g id="a_node4"><a xlink:href="laplace__bem_8priv_8hcu_source.html" target="_top" xlink:title=" ">
<polygon fill="none" stroke="black" points="209,-134.5 209,-164.5 324,-164.5 324,-134.5 209,-134.5"/>
<text text-anchor="start" x="217" y="-152.5" font-family="Helvetica,sans-Serif" font-size="10.00">include/laplace/laplace</text>
<text text-anchor="middle" x="266.5" y="-141.5" font-family="Helvetica,sans-Serif" font-size="10.00">_bem.priv.hcu</text>
</a>
</g>
</g>
<!-- Node3&#45;&gt;Node4 -->
<g id="edge3" class="edge">
<title>Node3&#45;&gt;Node4</title>
<path fill="none" stroke="midnightblue" d="M289.14,-347.22C273.73,-338.85 256.26,-326.47 246.5,-310 221.76,-268.24 227.7,-248.09 239.5,-201 242.79,-187.88 250.2,-174.45 256.43,-164.74"/>
<polygon fill="midnightblue" stroke="midnightblue" points="287.88,-350.51 298.38,-351.92 291.05,-344.27 287.88,-350.51"/>
</g>
<!-- Node3&#45;&gt;Node7 -->
<g id="edge6" class="edge">
<title>Node3&#45;&gt;Node7</title>
<path fill="none" stroke="midnightblue" d="M319.5,-341.41C319.5,-331.22 319.5,-318.9 319.5,-309.59"/>
<polygon fill="midnightblue" stroke="midnightblue" points="316,-341.73 319.5,-351.73 323,-341.73 316,-341.73"/>
</g>
<!-- Node5 -->
<g id="node5" class="node">
<title>Node5</title>
<g id="a_node5"><a xlink:href="laplace__bem_8impl_8hcu_source.html" target="_top" xlink:title=" ">
<polygon fill="none" stroke="black" points="209,-67.5 209,-97.5 324,-97.5 324,-67.5 209,-67.5"/>
<text text-anchor="start" x="217" y="-85.5" font-family="Helvetica,sans-Serif" font-size="10.00">include/laplace/laplace</text>
<text text-anchor="middle" x="266.5" y="-74.5" font-family="Helvetica,sans-Serif" font-size="10.00">_bem.impl.hcu</text>
</a>
</g>
</g>
<!-- Node4&#45;&gt;Node5 -->
<g id="edge4" class="edge">
<title>Node4&#45;&gt;Node5</title>
<path fill="none" stroke="midnightblue" d="M266.5,-124.11C266.5,-115.15 266.5,-105.32 266.5,-97.58"/>
<polygon fill="midnightblue" stroke="midnightblue" points="263,-124.4 266.5,-134.4 270,-124.4 263,-124.4"/>
</g>
<!-- Node6 -->
<g id="node6" class="node">
<title>Node6</title>
<g id="a_node6"><a xlink:href="laplace__bem_8cu_source.html" target="_top" xlink:title=" ">
<polygon fill="none" stroke="black" points="217.5,-0.5 217.5,-30.5 315.5,-30.5 315.5,-0.5 217.5,-0.5"/>
<text text-anchor="start" x="225.5" y="-18.5" font-family="Helvetica,sans-Serif" font-size="10.00">src/laplace/laplace</text>
<text text-anchor="middle" x="266.5" y="-7.5" font-family="Helvetica,sans-Serif" font-size="10.00">_bem.cu</text>
</a>
</g>
</g>
<!-- Node5&#45;&gt;Node6 -->
<g id="edge5" class="edge">
<title>Node5&#45;&gt;Node6</title>
<path fill="none" stroke="midnightblue" d="M266.5,-57.11C266.5,-48.15 266.5,-38.32 266.5,-30.58"/>
<polygon fill="midnightblue" stroke="midnightblue" points="263,-57.4 266.5,-67.4 270,-57.4 263,-57.4"/>
</g>
<!-- Node8 -->
<g id="node8" class="node">
<title>Node8</title>
<g id="a_node8"><a xlink:href="preconditioner__for__laplace__dirichlet_8h.html" target="_top" xlink:title=" ">
<polygon fill="none" stroke="black" points="248,-201.5 248,-242.5 381,-242.5 381,-201.5 248,-201.5"/>
<text text-anchor="start" x="256" y="-230.5" font-family="Helvetica,sans-Serif" font-size="10.00">include/preconditioners</text>
<text text-anchor="start" x="256" y="-219.5" font-family="Helvetica,sans-Serif" font-size="10.00">/preconditioner_for_laplace</text>
<text text-anchor="middle" x="314.5" y="-208.5" font-family="Helvetica,sans-Serif" font-size="10.00">_dirichlet.h</text>
</a>
</g>
</g>
<!-- Node7&#45;&gt;Node8 -->
<g id="edge7" class="edge">
<title>Node7&#45;&gt;Node8</title>
<path fill="none" stroke="midnightblue" d="M317.76,-268.98C317.15,-260.35 316.47,-250.76 315.89,-242.59"/>
<polygon fill="midnightblue" stroke="midnightblue" points="314.29,-269.51 318.49,-279.23 321.27,-269.01 314.29,-269.51"/>
</g>
<!-- Node9 -->
<g id="node9" class="node">
<title>Node9</title>
<g id="a_node9"><a xlink:href="preconditioner__for__laplace__neumann_8h.html" target="_top" xlink:title=" ">
<polygon fill="none" stroke="black" points="399,-201.5 399,-242.5 532,-242.5 532,-201.5 399,-201.5"/>
<text text-anchor="start" x="407" y="-230.5" font-family="Helvetica,sans-Serif" font-size="10.00">include/preconditioners</text>
<text text-anchor="start" x="407" y="-219.5" font-family="Helvetica,sans-Serif" font-size="10.00">/preconditioner_for_laplace</text>
<text text-anchor="middle" x="465.5" y="-208.5" font-family="Helvetica,sans-Serif" font-size="10.00">_neumann.h</text>
</a>
</g>
</g>
<!-- Node7&#45;&gt;Node9 -->
<g id="edge9" class="edge">
<title>Node7&#45;&gt;Node9</title>
<path fill="none" stroke="midnightblue" d="M357.82,-275C378.5,-265.01 404.02,-252.69 425.02,-242.55"/>
<polygon fill="midnightblue" stroke="midnightblue" points="356.18,-271.9 348.69,-279.4 359.22,-278.21 356.18,-271.9"/>
</g>
<!-- Node8&#45;&gt;Node4 -->
<g id="edge8" class="edge">
<title>Node8&#45;&gt;Node4</title>
<path fill="none" stroke="midnightblue" d="M295.33,-192.85C288.81,-183.26 281.78,-172.94 276.3,-164.89"/>
<polygon fill="midnightblue" stroke="midnightblue" points="292.61,-195.07 301.13,-201.36 298.39,-191.13 292.61,-195.07"/>
</g>
<!-- Node9&#45;&gt;Node4 -->
<g id="edge10" class="edge">
<title>Node9&#45;&gt;Node4</title>
<path fill="none" stroke="midnightblue" d="M400.85,-198.1C369.69,-187.06 333.33,-174.17 306.29,-164.6"/>
<polygon fill="midnightblue" stroke="midnightblue" points="399.74,-201.42 410.33,-201.46 402.07,-194.82 399.74,-201.42"/>
</g>
<!-- Node10&#45;&gt;Node4 -->
<g id="edge12" class="edge">
<title>Node10&#45;&gt;Node4</title>
<path fill="none" stroke="midnightblue" d="M51.47,-335.83C53.23,-318.56 57.81,-295.69 69.5,-279 109.67,-221.64 184.43,-183.46 229.41,-164.51"/>
<polygon fill="midnightblue" stroke="midnightblue" points="47.95,-336.01 50.68,-346.24 54.93,-336.54 47.95,-336.01"/>
</g>
<!-- Node10&#45;&gt;Node7 -->
<g id="edge13" class="edge">
<title>Node10&#45;&gt;Node7</title>
<path fill="none" stroke="midnightblue" d="M110.77,-345.7C166.81,-332.09 220.84,-319.11 260.64,-309.57"/>
<polygon fill="midnightblue" stroke="midnightblue" points="109.92,-342.3 101.03,-348.06 111.57,-349.1 109.92,-342.3"/>
</g>
<!-- Node11 -->
<g id="node11" class="node">
<title>Node11</title>
<g id="a_node11"><a xlink:href="aca__plus_8cu_source.html" target="_top" xlink:title=" ">
<polygon fill="none" stroke="black" points="79,-279.5 79,-309.5 186,-309.5 186,-279.5 79,-279.5"/>
<text text-anchor="start" x="87" y="-297.5" font-family="Helvetica,sans-Serif" font-size="10.00">src/hmatrix/aca_plus</text>
<text text-anchor="middle" x="132.5" y="-286.5" font-family="Helvetica,sans-Serif" font-size="10.00">/aca_plus.cu</text>
</a>
</g>
</g>
<!-- Node10&#45;&gt;Node11 -->
<g id="edge14" class="edge">
<title>Node10&#45;&gt;Node11</title>
<path fill="none" stroke="midnightblue" d="M76.15,-340.17C88.69,-330.23 103.47,-318.51 114.74,-309.58"/>
<polygon fill="midnightblue" stroke="midnightblue" points="73.96,-337.44 68.29,-346.4 78.3,-342.93 73.96,-337.44"/>
</g>
<!-- Node12&#45;&gt;Node3 -->
<g id="edge17" class="edge">
<title>Node12&#45;&gt;Node3</title>
<path fill="none" stroke="midnightblue" d="M215.11,-409.3C243.07,-396.76 278.94,-380.68 300.52,-371.01"/>
<polygon fill="midnightblue" stroke="midnightblue" points="213.66,-406.11 205.96,-413.4 216.52,-412.5 213.66,-406.11"/>
</g>
<!-- Node12&#45;&gt;Node10 -->
<g id="edge18" class="edge">
<title>Node12&#45;&gt;Node10</title>
<path fill="none" stroke="midnightblue" d="M138.66,-408.71C119.11,-398.46 95.3,-385.98 77.35,-376.58"/>
<polygon fill="midnightblue" stroke="midnightblue" points="137.11,-411.85 147.59,-413.4 140.36,-405.65 137.11,-411.85"/>
</g>
<!-- Node13 -->
<g id="node13" class="node">
<title>Node13</title>
<g id="a_node13"><a xlink:href="sauter__quadrature_8cu_source.html" target="_top" xlink:title=" ">
<polygon fill="none" stroke="black" points="119,-346.5 119,-376.5 228,-376.5 228,-346.5 119,-346.5"/>
<text text-anchor="start" x="127" y="-364.5" font-family="Helvetica,sans-Serif" font-size="10.00">src/quadrature/sauter</text>
<text text-anchor="middle" x="173.5" y="-353.5" font-family="Helvetica,sans-Serif" font-size="10.00">_quadrature.cu</text>
</a>
</g>
</g>
<!-- Node12&#45;&gt;Node13 -->
<g id="edge19" class="edge">
<title>Node12&#45;&gt;Node13</title>
<path fill="none" stroke="midnightblue" d="M174.12,-403.11C173.99,-394.15 173.84,-384.32 173.72,-376.58"/>
<polygon fill="midnightblue" stroke="midnightblue" points="170.63,-403.45 174.28,-413.4 177.63,-403.34 170.63,-403.45"/>
</g>
</g>
</svg>
