<?xml version="1.0" encoding="UTF-8" standalone="no"?>
<!DOCTYPE svg PUBLIC "-//W3C//DTD SVG 1.1//EN"
 "http://www.w3.org/Graphics/SVG/1.1/DTD/svg11.dtd">
<!-- Generated by graphviz version 2.43.0 (0)
 -->
<!-- Title: include/utilities/cu_profile.hcu Pages: 1 -->
<svg width="523pt" height="519pt"
 viewBox="0.00 0.00 522.50 519.00" xmlns="http://www.w3.org/2000/svg" xmlns:xlink="http://www.w3.org/1999/xlink">
<g id="graph0" class="graph" transform="scale(1 1) rotate(0) translate(4 515)">
<title>include/utilities/cu_profile.hcu</title>
<!-- Node1 -->
<g id="node1" class="node">
<title>Node1</title>
<g id="a_node1"><a xlink:title="CUDA performance profiling.">
<polygon fill="#bfbfbf" stroke="black" points="70.5,-480.5 70.5,-510.5 165.5,-510.5 165.5,-480.5 70.5,-480.5"/>
<text text-anchor="start" x="78.5" y="-498.5" font-family="Helvetica,sans-Serif" font-size="10.00">include/utilities/cu</text>
<text text-anchor="middle" x="118" y="-487.5" font-family="Helvetica,sans-Serif" font-size="10.00">_profile.hcu</text>
</a>
</g>
</g>
<!-- Node2 -->
<g id="node2" class="node">
<title>Node2</title>
<g id="a_node2"><a xlink:href="laplace__bem_8priv_8hcu_source.html" target="_top" xlink:title=" ">
<polygon fill="none" stroke="black" points="75.5,-134.5 75.5,-164.5 190.5,-164.5 190.5,-134.5 75.5,-134.5"/>
<text text-anchor="start" x="83.5" y="-152.5" font-family="Helvetica,sans-Serif" font-size="10.00">include/laplace/laplace</text>
<text text-anchor="middle" x="133" y="-141.5" font-family="Helvetica,sans-Serif" font-size="10.00">_bem.priv.hcu</text>
</a>
</g>
</g>
<!-- Node1&#45;&gt;Node2 -->
<g id="edge1" class="edge">
<title>Node1&#45;&gt;Node2</title>
<path fill="none" stroke="midnightblue" d="M83.29,-475.18C48.48,-452.95 0,-412.94 0,-362.5 0,-362.5 0,-362.5 0,-293.5 0,-247.39 15.4,-234.58 47,-201 61.59,-185.49 82.02,-173.23 99.3,-164.67"/>
<polygon fill="midnightblue" stroke="midnightblue" points="81.47,-478.16 91.81,-480.44 85.14,-472.21 81.47,-478.16"/>
</g>
<!-- Node5 -->
<g id="node5" class="node">
<title>Node5</title>
<g id="a_node5"><a xlink:href="sauter__quadrature_8hcu_source.html" target="_top" xlink:title=" ">
<polygon fill="none" stroke="black" points="191,-413.5 191,-443.5 307,-443.5 307,-413.5 191,-413.5"/>
<text text-anchor="start" x="199" y="-431.5" font-family="Helvetica,sans-Serif" font-size="10.00">include/quadrature</text>
<text text-anchor="middle" x="249" y="-420.5" font-family="Helvetica,sans-Serif" font-size="10.00">/sauter_quadrature.hcu</text>
</a>
</g>
</g>
<!-- Node1&#45;&gt;Node5 -->
<g id="edge4" class="edge">
<title>Node1&#45;&gt;Node5</title>
<path fill="none" stroke="midnightblue" d="M155.58,-475.85C176.29,-465.58 201.59,-453.03 220.63,-443.58"/>
<polygon fill="midnightblue" stroke="midnightblue" points="153.83,-472.82 146.43,-480.4 156.94,-479.09 153.83,-472.82"/>
</g>
<!-- Node3 -->
<g id="node3" class="node">
<title>Node3</title>
<g id="a_node3"><a xlink:href="laplace__bem_8impl_8hcu_source.html" target="_top" xlink:title=" ">
<polygon fill="none" stroke="black" points="75.5,-67.5 75.5,-97.5 190.5,-97.5 190.5,-67.5 75.5,-67.5"/>
<text text-anchor="start" x="83.5" y="-85.5" font-family="Helvetica,sans-Serif" font-size="10.00">include/laplace/laplace</text>
<text text-anchor="middle" x="133" y="-74.5" font-family="Helvetica,sans-Serif" font-size="10.00">_bem.impl.hcu</text>
</a>
</g>
</g>
<!-- Node2&#45;&gt;Node3 -->
<g id="edge2" class="edge">
<title>Node2&#45;&gt;Node3</title>
<path fill="none" stroke="midnightblue" d="M133,-124.11C133,-115.15 133,-105.32 133,-97.58"/>
<polygon fill="midnightblue" stroke="midnightblue" points="129.5,-124.4 133,-134.4 136.5,-124.4 129.5,-124.4"/>
</g>
<!-- Node4 -->
<g id="node4" class="node">
<title>Node4</title>
<g id="a_node4"><a xlink:href="laplace__bem_8cu_source.html" target="_top" xlink:title=" ">
<polygon fill="none" stroke="black" points="84,-0.5 84,-30.5 182,-30.5 182,-0.5 84,-0.5"/>
<text text-anchor="start" x="92" y="-18.5" font-family="Helvetica,sans-Serif" font-size="10.00">src/laplace/laplace</text>
<text text-anchor="middle" x="133" y="-7.5" font-family="Helvetica,sans-Serif" font-size="10.00">_bem.cu</text>
</a>
</g>
</g>
<!-- Node3&#45;&gt;Node4 -->
<g id="edge3" class="edge">
<title>Node3&#45;&gt;Node4</title>
<path fill="none" stroke="midnightblue" d="M133,-57.11C133,-48.15 133,-38.32 133,-30.58"/>
<polygon fill="midnightblue" stroke="midnightblue" points="129.5,-57.4 133,-67.4 136.5,-57.4 129.5,-57.4"/>
</g>
<!-- Node6 -->
<g id="node6" class="node">
<title>Node6</title>
<g id="a_node6"><a xlink:href="bem__general_8hcu_source.html" target="_top" xlink:title=" ">
<polygon fill="none" stroke="black" points="105,-352 105,-371 251,-371 251,-352 105,-352"/>
<text text-anchor="middle" x="178" y="-359" font-family="Helvetica,sans-Serif" font-size="10.00">include/bem/bem_general.hcu</text>
</a>
</g>
</g>
<!-- Node5&#45;&gt;Node6 -->
<g id="edge5" class="edge">
<title>Node5&#45;&gt;Node6</title>
<path fill="none" stroke="midnightblue" d="M225.88,-406.34C212.85,-394.4 197.26,-380.14 187.5,-371.19"/>
<polygon fill="midnightblue" stroke="midnightblue" points="223.85,-409.22 233.59,-413.4 228.58,-404.06 223.85,-409.22"/>
</g>
<!-- Node10 -->
<g id="node10" class="node">
<title>Node10</title>
<g id="a_node10"><a xlink:href="aca__plus_8hcu.html" target="_top" xlink:title="Implement the ACA+ method proposed in Grasedyck, L. 2005. “Adaptive Recompression of &#45;Matrices for BE...">
<polygon fill="none" stroke="black" points="269.5,-346.5 269.5,-376.5 370.5,-376.5 370.5,-346.5 269.5,-346.5"/>
<text text-anchor="start" x="277.5" y="-364.5" font-family="Helvetica,sans-Serif" font-size="10.00">include/hmatrix/aca</text>
<text text-anchor="middle" x="320" y="-353.5" font-family="Helvetica,sans-Serif" font-size="10.00">_plus/aca_plus.hcu</text>
</a>
</g>
</g>
<!-- Node5&#45;&gt;Node10 -->
<g id="edge12" class="edge">
<title>Node5&#45;&gt;Node10</title>
<path fill="none" stroke="midnightblue" d="M271.83,-406.6C282.55,-396.78 295.05,-385.34 304.62,-376.58"/>
<polygon fill="midnightblue" stroke="midnightblue" points="269.42,-404.06 264.41,-413.4 274.15,-409.22 269.42,-404.06"/>
</g>
<!-- Node12 -->
<g id="node12" class="node">
<title>Node12</title>
<g id="a_node12"><a xlink:href="sauter__quadrature_8cu_source.html" target="_top" xlink:title=" ">
<polygon fill="none" stroke="black" points="388.5,-346.5 388.5,-376.5 497.5,-376.5 497.5,-346.5 388.5,-346.5"/>
<text text-anchor="start" x="396.5" y="-364.5" font-family="Helvetica,sans-Serif" font-size="10.00">src/quadrature/sauter</text>
<text text-anchor="middle" x="443" y="-353.5" font-family="Helvetica,sans-Serif" font-size="10.00">_quadrature.cu</text>
</a>
</g>
</g>
<!-- Node5&#45;&gt;Node12 -->
<g id="edge16" class="edge">
<title>Node5&#45;&gt;Node12</title>
<path fill="none" stroke="midnightblue" d="M300.96,-410.09C332.27,-399.6 371.64,-386.41 400.99,-376.58"/>
<polygon fill="midnightblue" stroke="midnightblue" points="299.47,-406.9 291.1,-413.4 301.69,-413.54 299.47,-406.9"/>
</g>
<!-- Node6&#45;&gt;Node2 -->
<g id="edge6" class="edge">
<title>Node6&#45;&gt;Node2</title>
<path fill="none" stroke="midnightblue" d="M154.44,-346.25C125.19,-327.02 76.76,-289.73 57,-243 49.73,-225.81 48.18,-217.45 57,-201 65.76,-184.66 82.39,-172.71 97.86,-164.55"/>
<polygon fill="midnightblue" stroke="midnightblue" points="152.89,-349.42 163.2,-351.85 156.66,-343.52 152.89,-349.42"/>
</g>
<!-- Node7 -->
<g id="node7" class="node">
<title>Node7</title>
<g id="a_node7"><a xlink:href="operator__preconditioner_8h.html" target="_top" xlink:title=" ">
<polygon fill="none" stroke="black" points="136.5,-279.5 136.5,-309.5 265.5,-309.5 265.5,-279.5 136.5,-279.5"/>
<text text-anchor="start" x="144.5" y="-297.5" font-family="Helvetica,sans-Serif" font-size="10.00">include/preconditioners</text>
<text text-anchor="middle" x="201" y="-286.5" font-family="Helvetica,sans-Serif" font-size="10.00">/operator_preconditioner.h</text>
</a>
</g>
</g>
<!-- Node6&#45;&gt;Node7 -->
<g id="edge7" class="edge">
<title>Node6&#45;&gt;Node7</title>
<path fill="none" stroke="midnightblue" d="M184.52,-342.06C188.17,-331.75 192.65,-319.1 196.01,-309.59"/>
<polygon fill="midnightblue" stroke="midnightblue" points="181.14,-341.14 181.1,-351.73 187.74,-343.47 181.14,-341.14"/>
</g>
<!-- Node8 -->
<g id="node8" class="node">
<title>Node8</title>
<g id="a_node8"><a xlink:href="preconditioner__for__laplace__dirichlet_8h.html" target="_top" xlink:title=" ">
<polygon fill="none" stroke="black" points="66.5,-201.5 66.5,-242.5 199.5,-242.5 199.5,-201.5 66.5,-201.5"/>
<text text-anchor="start" x="74.5" y="-230.5" font-family="Helvetica,sans-Serif" font-size="10.00">include/preconditioners</text>
<text text-anchor="start" x="74.5" y="-219.5" font-family="Helvetica,sans-Serif" font-size="10.00">/preconditioner_for_laplace</text>
<text text-anchor="middle" x="133" y="-208.5" font-family="Helvetica,sans-Serif" font-size="10.00">_dirichlet.h</text>
</a>
</g>
</g>
<!-- Node7&#45;&gt;Node8 -->
<g id="edge8" class="edge">
<title>Node7&#45;&gt;Node8</title>
<path fill="none" stroke="midnightblue" d="M180.09,-271.82C171.09,-262.49 160.65,-251.67 151.89,-242.59"/>
<polygon fill="midnightblue" stroke="midnightblue" points="177.78,-274.47 187.24,-279.23 182.82,-269.61 177.78,-274.47"/>
</g>
<!-- Node9 -->
<g id="node9" class="node">
<title>Node9</title>
<g id="a_node9"><a xlink:href="preconditioner__for__laplace__neumann_8h.html" target="_top" xlink:title=" ">
<polygon fill="none" stroke="black" points="217.5,-201.5 217.5,-242.5 350.5,-242.5 350.5,-201.5 217.5,-201.5"/>
<text text-anchor="start" x="225.5" y="-230.5" font-family="Helvetica,sans-Serif" font-size="10.00">include/preconditioners</text>
<text text-anchor="start" x="225.5" y="-219.5" font-family="Helvetica,sans-Serif" font-size="10.00">/preconditioner_for_laplace</text>
<text text-anchor="middle" x="284" y="-208.5" font-family="Helvetica,sans-Serif" font-size="10.00">_neumann.h</text>
</a>
</g>
</g>
<!-- Node7&#45;&gt;Node9 -->
<g id="edge10" class="edge">
<title>Node7&#45;&gt;Node9</title>
<path fill="none" stroke="midnightblue" d="M225.54,-272.66C236.74,-263.15 249.93,-251.94 260.94,-242.59"/>
<polygon fill="midnightblue" stroke="midnightblue" points="223.15,-270.09 217.8,-279.23 227.68,-275.43 223.15,-270.09"/>
</g>
<!-- Node8&#45;&gt;Node2 -->
<g id="edge9" class="edge">
<title>Node8&#45;&gt;Node2</title>
<path fill="none" stroke="midnightblue" d="M133,-191.08C133,-182.01 133,-172.45 133,-164.89"/>
<polygon fill="midnightblue" stroke="midnightblue" points="129.5,-191.36 133,-201.36 136.5,-191.36 129.5,-191.36"/>
</g>
<!-- Node9&#45;&gt;Node2 -->
<g id="edge11" class="edge">
<title>Node9&#45;&gt;Node2</title>
<path fill="none" stroke="midnightblue" d="M232.63,-197.02C209.58,-186.25 183.18,-173.93 163.35,-164.67"/>
<polygon fill="midnightblue" stroke="midnightblue" points="231.4,-200.3 241.94,-201.36 234.36,-193.96 231.4,-200.3"/>
</g>
<!-- Node10&#45;&gt;Node2 -->
<g id="edge13" class="edge">
<title>Node10&#45;&gt;Node2</title>
<path fill="none" stroke="midnightblue" d="M336.62,-337.82C358.95,-304.34 392.33,-241.31 360,-201 339.16,-175.02 250.88,-161.55 190.76,-155.26"/>
<polygon fill="midnightblue" stroke="midnightblue" points="333.47,-336.22 330.68,-346.44 339.23,-340.19 333.47,-336.22"/>
</g>
<!-- Node10&#45;&gt;Node7 -->
<g id="edge14" class="edge">
<title>Node10&#45;&gt;Node7</title>
<path fill="none" stroke="midnightblue" d="M285.35,-341.57C266.63,-331.35 243.91,-318.94 226.77,-309.58"/>
<polygon fill="midnightblue" stroke="midnightblue" points="283.72,-344.67 294.18,-346.4 287.08,-338.53 283.72,-344.67"/>
</g>
<!-- Node11 -->
<g id="node11" class="node">
<title>Node11</title>
<g id="a_node11"><a xlink:href="aca__plus_8cu_source.html" target="_top" xlink:title=" ">
<polygon fill="none" stroke="black" points="407.5,-279.5 407.5,-309.5 514.5,-309.5 514.5,-279.5 407.5,-279.5"/>
<text text-anchor="start" x="415.5" y="-297.5" font-family="Helvetica,sans-Serif" font-size="10.00">src/hmatrix/aca_plus</text>
<text text-anchor="middle" x="461" y="-286.5" font-family="Helvetica,sans-Serif" font-size="10.00">/aca_plus.cu</text>
</a>
</g>
</g>
<!-- Node10&#45;&gt;Node11 -->
<g id="edge15" class="edge">
<title>Node10&#45;&gt;Node11</title>
<path fill="none" stroke="midnightblue" d="M359.85,-342.13C382.25,-331.8 409.78,-319.11 430.46,-309.58"/>
<polygon fill="midnightblue" stroke="midnightblue" points="358.21,-339.03 350.59,-346.4 361.14,-345.39 358.21,-339.03"/>
</g>
</g>
</svg>
