<?xml version="1.0" encoding="UTF-8" standalone="no"?>
<!DOCTYPE svg PUBLIC "-//W3C//DTD SVG 1.1//EN"
 "http://www.w3.org/Graphics/SVG/1.1/DTD/svg11.dtd">
<!-- Generated by graphviz version 2.43.0 (0)
 -->
<!-- Title: include/linear_algebra/cu_tensor.hcu Pages: 1 -->
<svg width="389pt" height="162pt"
 viewBox="0.00 0.00 389.00 162.00" xmlns="http://www.w3.org/2000/svg" xmlns:xlink="http://www.w3.org/1999/xlink">
<g id="graph0" class="graph" transform="scale(1 1) rotate(0) translate(4 158)">
<title>include/linear_algebra/cu_tensor.hcu</title>
<!-- Node1 -->
<g id="node1" class="node">
<title>Node1</title>
<g id="a_node1"><a xlink:title="Introduction of cu_tensor.hcu.">
<polygon fill="#bfbfbf" stroke="black" points="129,-123.5 129,-153.5 239,-153.5 239,-123.5 129,-123.5"/>
<text text-anchor="start" x="137" y="-141.5" font-family="Helvetica,sans-Serif" font-size="10.00">include/linear_algebra</text>
<text text-anchor="middle" x="184" y="-130.5" font-family="Helvetica,sans-Serif" font-size="10.00">/cu_tensor.hcu</text>
</a>
</g>
</g>
<!-- Node2 -->
<g id="node2" class="node">
<title>Node2</title>
<g id="a_node2"><a xlink:title=" ">
<polygon fill="none" stroke="#bfbfbf" points="0,-0.5 0,-30.5 108,-30.5 108,-0.5 0,-0.5"/>
<text text-anchor="start" x="8" y="-18.5" font-family="Helvetica,sans-Serif" font-size="10.00">deal.II/base/template</text>
<text text-anchor="middle" x="54" y="-7.5" font-family="Helvetica,sans-Serif" font-size="10.00">_constraints.h</text>
</a>
</g>
</g>
<!-- Node1&#45;&gt;Node2 -->
<g id="edge1" class="edge">
<title>Node1&#45;&gt;Node2</title>
<path fill="none" stroke="midnightblue" d="M157.38,-123.5C141.46,-114.37 121.39,-101.48 106,-87 90.96,-72.85 77.24,-53.87 67.67,-39.17"/>
<polygon fill="midnightblue" stroke="midnightblue" points="70.59,-37.23 62.28,-30.65 64.67,-40.97 70.59,-37.23"/>
</g>
<!-- Node3 -->
<g id="node3" class="node">
<title>Node3</title>
<g id="a_node3"><a xlink:title=" ">
<polygon fill="none" stroke="#bfbfbf" points="126,-6 126,-25 232,-25 232,-6 126,-6"/>
<text text-anchor="middle" x="179" y="-13" font-family="Helvetica,sans-Serif" font-size="10.00">deal.II/base/tensor.h</text>
</a>
</g>
</g>
<!-- Node1&#45;&gt;Node3 -->
<g id="edge2" class="edge">
<title>Node1&#45;&gt;Node3</title>
<path fill="none" stroke="midnightblue" d="M151.41,-123.44C136.53,-115.16 120.38,-103.12 112,-87 99.9,-63.72 127.16,-42.73 150.47,-29.83"/>
<polygon fill="midnightblue" stroke="midnightblue" points="152.21,-32.87 159.44,-25.13 148.96,-26.67 152.21,-32.87"/>
</g>
<!-- Node4 -->
<g id="node4" class="node">
<title>Node4</title>
<g id="a_node4"><a xlink:href="config_8h.html" target="_top" xlink:title="Configurations for building the project.">
<polygon fill="none" stroke="black" points="250.5,-6 250.5,-25 301.5,-25 301.5,-6 250.5,-6"/>
<text text-anchor="middle" x="276" y="-13" font-family="Helvetica,sans-Serif" font-size="10.00">config.h</text>
</a>
</g>
</g>
<!-- Node1&#45;&gt;Node4 -->
<g id="edge3" class="edge">
<title>Node1&#45;&gt;Node4</title>
<path fill="none" stroke="midnightblue" d="M212.11,-123.44C226.81,-114.78 244,-102.38 255,-87 266.01,-71.61 271.31,-50.4 273.82,-35.28"/>
<polygon fill="midnightblue" stroke="midnightblue" points="277.33,-35.49 275.25,-25.1 270.4,-34.52 277.33,-35.49"/>
</g>
<!-- Node5 -->
<g id="node5" class="node">
<title>Node5</title>
<g id="a_node5"><a xlink:href="cu__vector_8hcu.html" target="_top" xlink:title="Introduction of cu_vector.hcu.">
<polygon fill="none" stroke="black" points="303,-67.5 303,-86.5 381,-86.5 381,-67.5 303,-67.5"/>
<text text-anchor="middle" x="342" y="-74.5" font-family="Helvetica,sans-Serif" font-size="10.00">cu_vector.hcu</text>
</a>
</g>
</g>
<!-- Node1&#45;&gt;Node5 -->
<g id="edge4" class="edge">
<title>Node1&#45;&gt;Node5</title>
<path fill="none" stroke="midnightblue" d="M221.44,-123.4C248.19,-113.33 283.82,-99.91 309.4,-90.28"/>
<polygon fill="midnightblue" stroke="midnightblue" points="310.88,-93.46 319.01,-86.66 308.42,-86.91 310.88,-93.46"/>
</g>
<!-- Node7 -->
<g id="node7" class="node">
<title>Node7</title>
<g id="a_node7"><a xlink:href="tensor_8h.html" target="_top" xlink:title="Introduction of tensor.h.">
<polygon fill="none" stroke="black" points="121.5,-67.5 121.5,-86.5 246.5,-86.5 246.5,-67.5 121.5,-67.5"/>
<text text-anchor="middle" x="184" y="-74.5" font-family="Helvetica,sans-Serif" font-size="10.00">platform_shared/tensor.h</text>
</a>
</g>
</g>
<!-- Node1&#45;&gt;Node7 -->
<g id="edge7" class="edge">
<title>Node1&#45;&gt;Node7</title>
<path fill="none" stroke="midnightblue" d="M184,-123.4C184,-115.47 184,-105.46 184,-96.86"/>
<polygon fill="midnightblue" stroke="midnightblue" points="187.5,-96.66 184,-86.66 180.5,-96.66 187.5,-96.66"/>
</g>
<!-- Node5&#45;&gt;Node4 -->
<g id="edge6" class="edge">
<title>Node5&#45;&gt;Node4</title>
<path fill="none" stroke="midnightblue" d="M332.54,-67.48C322.25,-58.2 305.58,-43.17 293.01,-31.83"/>
<polygon fill="midnightblue" stroke="midnightblue" points="295.21,-29.11 285.44,-25.01 290.52,-34.3 295.21,-29.11"/>
</g>
<!-- Node6 -->
<g id="node6" class="node">
<title>Node6</title>
<g id="a_node6"><a xlink:title=" ">
<polygon fill="none" stroke="#bfbfbf" points="320,-6 320,-25 372,-25 372,-6 320,-6"/>
<text text-anchor="middle" x="346" y="-13" font-family="Helvetica,sans-Serif" font-size="10.00">assert.h</text>
</a>
</g>
</g>
<!-- Node5&#45;&gt;Node6 -->
<g id="edge5" class="edge">
<title>Node5&#45;&gt;Node6</title>
<path fill="none" stroke="midnightblue" d="M342.57,-67.48C343.14,-59.08 344.02,-45.98 344.75,-35.16"/>
<polygon fill="midnightblue" stroke="midnightblue" points="348.25,-35.22 345.43,-25.01 341.26,-34.75 348.25,-35.22"/>
</g>
<!-- Node7&#45;&gt;Node2 -->
<g id="edge8" class="edge">
<title>Node7&#45;&gt;Node2</title>
<path fill="none" stroke="midnightblue" d="M165.37,-67.48C146.78,-58.96 117.62,-45.62 93.8,-34.72"/>
<polygon fill="midnightblue" stroke="midnightblue" points="95.19,-31.5 84.64,-30.52 92.27,-37.87 95.19,-31.5"/>
</g>
<!-- Node7&#45;&gt;Node3 -->
<g id="edge9" class="edge">
<title>Node7&#45;&gt;Node3</title>
<path fill="none" stroke="midnightblue" d="M183.28,-67.48C182.58,-59.08 181.48,-45.98 180.57,-35.16"/>
<polygon fill="midnightblue" stroke="midnightblue" points="184.04,-34.68 179.72,-25.01 177.06,-35.27 184.04,-34.68"/>
</g>
<!-- Node7&#45;&gt;Node4 -->
<g id="edge10" class="edge">
<title>Node7&#45;&gt;Node4</title>
<path fill="none" stroke="midnightblue" d="M197.18,-67.48C212.07,-57.84 236.54,-42.02 254.27,-30.55"/>
<polygon fill="midnightblue" stroke="midnightblue" points="256.35,-33.38 262.84,-25.01 252.55,-27.5 256.35,-33.38"/>
</g>
</g>
</svg>
