<?xml version="1.0" encoding="UTF-8" standalone="no"?>
<!DOCTYPE svg PUBLIC "-//W3C//DTD SVG 1.1//EN"
 "http://www.w3.org/Graphics/SVG/1.1/DTD/svg11.dtd">
<!-- Generated by graphviz version 2.43.0 (0)
 -->
<!-- Title: include/utilities/cu_profile.hcu Pages: 1 -->
<svg width="1274pt" height="608pt"
 viewBox="0.00 0.00 1274.00 608.00" xmlns="http://www.w3.org/2000/svg" xmlns:xlink="http://www.w3.org/1999/xlink">
<g id="graph0" class="graph" transform="scale(1 1) rotate(0) translate(4 604)">
<title>include/utilities/cu_profile.hcu</title>
<!-- Node1 -->
<g id="node1" class="node">
<title>Node1</title>
<g id="a_node1"><a xlink:title="CUDA performance profiling.">
<polygon fill="#bfbfbf" stroke="black" points="511.5,-569.5 511.5,-599.5 606.5,-599.5 606.5,-569.5 511.5,-569.5"/>
<text text-anchor="start" x="519.5" y="-587.5" font-family="Helvetica,sans-Serif" font-size="10.00">include/utilities/cu</text>
<text text-anchor="middle" x="559" y="-576.5" font-family="Helvetica,sans-Serif" font-size="10.00">_profile.hcu</text>
</a>
</g>
</g>
<!-- Node2 -->
<g id="node2" class="node">
<title>Node2</title>
<g id="a_node2"><a xlink:href="helmholtz__acoustic__bem_8priv_8hcu_source.html" target="_top" xlink:title=" ">
<polygon fill="none" stroke="black" points="728.5,-134.5 728.5,-164.5 865.5,-164.5 865.5,-134.5 728.5,-134.5"/>
<text text-anchor="start" x="736.5" y="-152.5" font-family="Helvetica,sans-Serif" font-size="10.00">include/helmholtz/helmholtz</text>
<text text-anchor="middle" x="797" y="-141.5" font-family="Helvetica,sans-Serif" font-size="10.00">_acoustic_bem.priv.hcu</text>
</a>
</g>
</g>
<!-- Node1&#45;&gt;Node2 -->
<g id="edge1" class="edge">
<title>Node1&#45;&gt;Node2</title>
<path fill="none" stroke="midnightblue" d="M616.96,-578.79C785.9,-564.31 1266,-517.35 1266,-451.5 1266,-451.5 1266,-451.5 1266,-299 1266,-216.05 995.97,-173.48 865.7,-157.77"/>
<polygon fill="midnightblue" stroke="midnightblue" points="616.43,-575.33 606.76,-579.66 617.02,-582.3 616.43,-575.33"/>
</g>
<!-- Node5 -->
<g id="node5" class="node">
<title>Node5</title>
<g id="a_node5"><a xlink:href="laplace__bem_8priv_8hcu_source.html" target="_top" xlink:title=" ">
<polygon fill="none" stroke="black" points="66.5,-134.5 66.5,-164.5 181.5,-164.5 181.5,-134.5 66.5,-134.5"/>
<text text-anchor="start" x="74.5" y="-152.5" font-family="Helvetica,sans-Serif" font-size="10.00">include/laplace/laplace</text>
<text text-anchor="middle" x="124" y="-141.5" font-family="Helvetica,sans-Serif" font-size="10.00">_bem.priv.hcu</text>
</a>
</g>
</g>
<!-- Node1&#45;&gt;Node5 -->
<g id="edge4" class="edge">
<title>Node1&#45;&gt;Node5</title>
<path fill="none" stroke="midnightblue" d="M501.02,-582.03C358.02,-576.84 0,-553.65 0,-451.5 0,-451.5 0,-451.5 0,-299 0,-251.96 9.39,-236.72 40,-201 53.51,-185.24 73.22,-173.03 90.15,-164.57"/>
<polygon fill="midnightblue" stroke="midnightblue" points="501.23,-585.54 511.34,-582.39 501.47,-578.54 501.23,-585.54"/>
</g>
<!-- Node8 -->
<g id="node8" class="node">
<title>Node8</title>
<g id="a_node8"><a xlink:href="sauter__quadrature_8hcu_source.html" target="_top" xlink:title=" ">
<polygon fill="none" stroke="black" points="501,-502.5 501,-532.5 617,-532.5 617,-502.5 501,-502.5"/>
<text text-anchor="start" x="509" y="-520.5" font-family="Helvetica,sans-Serif" font-size="10.00">include/quadrature</text>
<text text-anchor="middle" x="559" y="-509.5" font-family="Helvetica,sans-Serif" font-size="10.00">/sauter_quadrature.hcu</text>
</a>
</g>
</g>
<!-- Node1&#45;&gt;Node8 -->
<g id="edge7" class="edge">
<title>Node1&#45;&gt;Node8</title>
<path fill="none" stroke="midnightblue" d="M559,-559.11C559,-550.15 559,-540.32 559,-532.58"/>
<polygon fill="midnightblue" stroke="midnightblue" points="555.5,-559.4 559,-569.4 562.5,-559.4 555.5,-559.4"/>
</g>
<!-- Node3 -->
<g id="node3" class="node">
<title>Node3</title>
<g id="a_node3"><a xlink:href="helmholtz__acoustic__bem_8impl_8hcu.html" target="_top" xlink:title="Call member functions of pimpl from HelmholtzAcousticBEM.">
<polygon fill="none" stroke="black" points="728.5,-67.5 728.5,-97.5 865.5,-97.5 865.5,-67.5 728.5,-67.5"/>
<text text-anchor="start" x="736.5" y="-85.5" font-family="Helvetica,sans-Serif" font-size="10.00">include/helmholtz/helmholtz</text>
<text text-anchor="middle" x="797" y="-74.5" font-family="Helvetica,sans-Serif" font-size="10.00">_acoustic_bem.impl.hcu</text>
</a>
</g>
</g>
<!-- Node2&#45;&gt;Node3 -->
<g id="edge2" class="edge">
<title>Node2&#45;&gt;Node3</title>
<path fill="none" stroke="midnightblue" d="M797,-124.11C797,-115.15 797,-105.32 797,-97.58"/>
<polygon fill="midnightblue" stroke="midnightblue" points="793.5,-124.4 797,-134.4 800.5,-124.4 793.5,-124.4"/>
</g>
<!-- Node4 -->
<g id="node4" class="node">
<title>Node4</title>
<g id="a_node4"><a xlink:href="helmholtz__acoustic__bem_8cu_source.html" target="_top" xlink:title=" ">
<polygon fill="none" stroke="black" points="737,-0.5 737,-30.5 857,-30.5 857,-0.5 737,-0.5"/>
<text text-anchor="start" x="745" y="-18.5" font-family="Helvetica,sans-Serif" font-size="10.00">src/helmholtz/helmholtz</text>
<text text-anchor="middle" x="797" y="-7.5" font-family="Helvetica,sans-Serif" font-size="10.00">_acoustic_bem.cu</text>
</a>
</g>
</g>
<!-- Node3&#45;&gt;Node4 -->
<g id="edge3" class="edge">
<title>Node3&#45;&gt;Node4</title>
<path fill="none" stroke="midnightblue" d="M797,-57.11C797,-48.15 797,-38.32 797,-30.58"/>
<polygon fill="midnightblue" stroke="midnightblue" points="793.5,-57.4 797,-67.4 800.5,-57.4 793.5,-57.4"/>
</g>
<!-- Node6 -->
<g id="node6" class="node">
<title>Node6</title>
<g id="a_node6"><a xlink:href="laplace__bem_8impl_8hcu.html" target="_top" xlink:title="Implementation of pimpl member functions to be called by LaplaceBEM.">
<polygon fill="none" stroke="black" points="66.5,-67.5 66.5,-97.5 181.5,-97.5 181.5,-67.5 66.5,-67.5"/>
<text text-anchor="start" x="74.5" y="-85.5" font-family="Helvetica,sans-Serif" font-size="10.00">include/laplace/laplace</text>
<text text-anchor="middle" x="124" y="-74.5" font-family="Helvetica,sans-Serif" font-size="10.00">_bem.impl.hcu</text>
</a>
</g>
</g>
<!-- Node5&#45;&gt;Node6 -->
<g id="edge5" class="edge">
<title>Node5&#45;&gt;Node6</title>
<path fill="none" stroke="midnightblue" d="M124,-124.11C124,-115.15 124,-105.32 124,-97.58"/>
<polygon fill="midnightblue" stroke="midnightblue" points="120.5,-124.4 124,-134.4 127.5,-124.4 120.5,-124.4"/>
</g>
<!-- Node7 -->
<g id="node7" class="node">
<title>Node7</title>
<g id="a_node7"><a xlink:href="laplace__bem_8cu_source.html" target="_top" xlink:title=" ">
<polygon fill="none" stroke="black" points="75,-0.5 75,-30.5 173,-30.5 173,-0.5 75,-0.5"/>
<text text-anchor="start" x="83" y="-18.5" font-family="Helvetica,sans-Serif" font-size="10.00">src/laplace/laplace</text>
<text text-anchor="middle" x="124" y="-7.5" font-family="Helvetica,sans-Serif" font-size="10.00">_bem.cu</text>
</a>
</g>
</g>
<!-- Node6&#45;&gt;Node7 -->
<g id="edge6" class="edge">
<title>Node6&#45;&gt;Node7</title>
<path fill="none" stroke="midnightblue" d="M124,-57.11C124,-48.15 124,-38.32 124,-30.58"/>
<polygon fill="midnightblue" stroke="midnightblue" points="120.5,-57.4 124,-67.4 127.5,-57.4 120.5,-57.4"/>
</g>
<!-- Node9 -->
<g id="node9" class="node">
<title>Node9</title>
<g id="a_node9"><a xlink:href="bem__general_8hcu_source.html" target="_top" xlink:title=" ">
<polygon fill="none" stroke="black" points="559,-441 559,-460 705,-460 705,-441 559,-441"/>
<text text-anchor="middle" x="632" y="-448" font-family="Helvetica,sans-Serif" font-size="10.00">include/bem/bem_general.hcu</text>
</a>
</g>
</g>
<!-- Node8&#45;&gt;Node9 -->
<g id="edge8" class="edge">
<title>Node8&#45;&gt;Node9</title>
<path fill="none" stroke="midnightblue" d="M582.39,-495.67C595.87,-483.67 612.1,-469.22 622.24,-460.19"/>
<polygon fill="midnightblue" stroke="midnightblue" points="579.98,-493.13 574.84,-502.4 584.64,-498.36 579.98,-493.13"/>
</g>
<!-- Node17 -->
<g id="node17" class="node">
<title>Node17</title>
<g id="a_node17"><a xlink:href="aca__plus_8hcu.html" target="_top" xlink:title="Implement the ACA+ method proposed in Grasedyck, L. 2005. “Adaptive Recompression of &#45;Matrices for BE...">
<polygon fill="none" stroke="black" points="763.5,-435.5 763.5,-465.5 864.5,-465.5 864.5,-435.5 763.5,-435.5"/>
<text text-anchor="start" x="771.5" y="-453.5" font-family="Helvetica,sans-Serif" font-size="10.00">include/hmatrix/aca</text>
<text text-anchor="middle" x="814" y="-442.5" font-family="Helvetica,sans-Serif" font-size="10.00">_plus/aca_plus.hcu</text>
</a>
</g>
</g>
<!-- Node8&#45;&gt;Node17 -->
<g id="edge26" class="edge">
<title>Node8&#45;&gt;Node17</title>
<path fill="none" stroke="midnightblue" d="M623.9,-499.96C667.23,-488.91 723.39,-474.6 763.41,-464.39"/>
<polygon fill="midnightblue" stroke="midnightblue" points="622.84,-496.61 614.02,-502.48 624.57,-503.4 622.84,-496.61"/>
</g>
<!-- Node22 -->
<g id="node22" class="node">
<title>Node22</title>
<g id="a_node22"><a xlink:href="cu__related_8cu_source.html" target="_top" xlink:title=" ">
<polygon fill="none" stroke="black" points="306.5,-435.5 306.5,-465.5 413.5,-465.5 413.5,-435.5 306.5,-435.5"/>
<text text-anchor="start" x="314.5" y="-453.5" font-family="Helvetica,sans-Serif" font-size="10.00">src/hbem_laplace/cu</text>
<text text-anchor="middle" x="360" y="-442.5" font-family="Helvetica,sans-Serif" font-size="10.00">_related.cu</text>
</a>
</g>
</g>
<!-- Node8&#45;&gt;Node22 -->
<g id="edge36" class="edge">
<title>Node8&#45;&gt;Node22</title>
<path fill="none" stroke="midnightblue" d="M506.12,-499.23C473.93,-488.71 433.33,-475.45 403.1,-465.58"/>
<polygon fill="midnightblue" stroke="midnightblue" points="505.23,-502.62 515.82,-502.4 507.4,-495.96 505.23,-502.62"/>
</g>
<!-- Node23 -->
<g id="node23" class="node">
<title>Node23</title>
<g id="a_node23"><a xlink:href="sauter__quadrature_8cu.html" target="_top" xlink:title="Implementation of functions in include/quadrature/sauter_quadrature.hcu.">
<polygon fill="none" stroke="black" points="431.5,-435.5 431.5,-465.5 540.5,-465.5 540.5,-435.5 431.5,-435.5"/>
<text text-anchor="start" x="439.5" y="-453.5" font-family="Helvetica,sans-Serif" font-size="10.00">src/quadrature/sauter</text>
<text text-anchor="middle" x="486" y="-442.5" font-family="Helvetica,sans-Serif" font-size="10.00">_quadrature.cu</text>
</a>
</g>
</g>
<!-- Node8&#45;&gt;Node23 -->
<g id="edge37" class="edge">
<title>Node8&#45;&gt;Node23</title>
<path fill="none" stroke="midnightblue" d="M535.53,-495.6C524.5,-485.78 511.66,-474.34 501.81,-465.58"/>
<polygon fill="midnightblue" stroke="midnightblue" points="533.36,-498.36 543.16,-502.4 538.02,-493.13 533.36,-498.36"/>
</g>
<!-- Node9&#45;&gt;Node2 -->
<g id="edge9" class="edge">
<title>Node9&#45;&gt;Node2</title>
<path fill="none" stroke="midnightblue" d="M641.77,-431.79C671.75,-377.47 762.01,-213.91 789.18,-164.67"/>
<polygon fill="midnightblue" stroke="midnightblue" points="638.53,-430.43 636.76,-440.87 644.66,-433.81 638.53,-430.43"/>
</g>
<!-- Node9&#45;&gt;Node5 -->
<g id="edge10" class="edge">
<title>Node9&#45;&gt;Node5</title>
<path fill="none" stroke="midnightblue" d="M578.26,-439.19C568.86,-437.62 559.17,-436.15 550,-435 496.05,-428.26 99,-438.83 62,-399 2.11,-334.53 24.23,-280.48 62,-201 69.39,-185.45 84.17,-173.12 97.44,-164.53"/>
<polygon fill="midnightblue" stroke="midnightblue" points="577.84,-442.67 588.29,-440.92 579.03,-435.78 577.84,-442.67"/>
</g>
<!-- Node10 -->
<g id="node10" class="node">
<title>Node10</title>
<g id="a_node10"><a xlink:href="operator__preconditioner_8h.html" target="_top" xlink:title="Definition of the abstract class for dual mesh operator preconditioner.">
<polygon fill="none" stroke="black" points="444.5,-363 444.5,-393 573.5,-393 573.5,-363 444.5,-363"/>
<text text-anchor="start" x="452.5" y="-381" font-family="Helvetica,sans-Serif" font-size="10.00">include/preconditioners</text>
<text text-anchor="middle" x="509" y="-370" font-family="Helvetica,sans-Serif" font-size="10.00">/operator_preconditioner.h</text>
</a>
</g>
</g>
<!-- Node9&#45;&gt;Node10 -->
<g id="edge11" class="edge">
<title>Node9&#45;&gt;Node10</title>
<path fill="none" stroke="midnightblue" d="M608.1,-435.8C586.63,-423.49 555.23,-405.5 533.56,-393.08"/>
<polygon fill="midnightblue" stroke="midnightblue" points="606.5,-438.92 616.92,-440.86 609.98,-432.85 606.5,-438.92"/>
</g>
<!-- Node11 -->
<g id="node11" class="node">
<title>Node11</title>
<g id="a_node11"><a xlink:href="preconditioner__for__helmholtz__acoustic__hyper__singular__bio_8h.html" target="_top" xlink:title="Dual mesh operator preconditioner for the hyper singular boundary integral operator in the Helmholtz ...">
<polygon fill="none" stroke="black" points="569.5,-201.5 569.5,-242.5 722.5,-242.5 722.5,-201.5 569.5,-201.5"/>
<text text-anchor="start" x="577.5" y="-230.5" font-family="Helvetica,sans-Serif" font-size="10.00">include/preconditioners</text>
<text text-anchor="start" x="577.5" y="-219.5" font-family="Helvetica,sans-Serif" font-size="10.00">/preconditioner_for_helmholtz</text>
<text text-anchor="middle" x="646" y="-208.5" font-family="Helvetica,sans-Serif" font-size="10.00">_acoustic_hyper_singular_bio.h</text>
</a>
</g>
</g>
<!-- Node10&#45;&gt;Node11 -->
<g id="edge12" class="edge">
<title>Node10&#45;&gt;Node11</title>
<path fill="none" stroke="midnightblue" d="M573.34,-359.17C593.27,-350.66 613.5,-338.4 627,-321 644.52,-298.4 647.35,-264.22 647.15,-242.78"/>
<polygon fill="midnightblue" stroke="midnightblue" points="571.91,-355.98 563.93,-362.94 574.51,-362.48 571.91,-355.98"/>
</g>
<!-- Node12 -->
<g id="node12" class="node">
<title>Node12</title>
<g id="a_node12"><a xlink:href="preconditioner__for__helmholtz__acoustic__single__layer__bio_8h_source.html" target="_top" xlink:title=" ">
<polygon fill="none" stroke="black" points="256,-201.5 256,-242.5 400,-242.5 400,-201.5 256,-201.5"/>
<text text-anchor="start" x="264" y="-230.5" font-family="Helvetica,sans-Serif" font-size="10.00">include/preconditioners</text>
<text text-anchor="start" x="264" y="-219.5" font-family="Helvetica,sans-Serif" font-size="10.00">/preconditioner_for_helmholtz</text>
<text text-anchor="middle" x="328" y="-208.5" font-family="Helvetica,sans-Serif" font-size="10.00">_acoustic_single_layer_bio.h</text>
</a>
</g>
</g>
<!-- Node10&#45;&gt;Node12 -->
<g id="edge14" class="edge">
<title>Node10&#45;&gt;Node12</title>
<path fill="none" stroke="midnightblue" d="M486.99,-356.04C465.5,-335.82 431.64,-304.58 401,-279 386.04,-266.51 368.76,-253.21 354.77,-242.7"/>
<polygon fill="midnightblue" stroke="midnightblue" points="484.65,-358.65 494.32,-362.97 489.45,-353.56 484.65,-358.65"/>
</g>
<!-- Node13 -->
<g id="node13" class="node">
<title>Node13</title>
<g id="a_node13"><a xlink:href="preconditioner__for__hyper__singular__bio_8h.html" target="_top" xlink:title="Dual mesh operator preconditioner for the hyper singular boundary integral operator.">
<polygon fill="none" stroke="black" points="492,-279.5 492,-320.5 618,-320.5 618,-279.5 492,-279.5"/>
<text text-anchor="start" x="500" y="-308.5" font-family="Helvetica,sans-Serif" font-size="10.00">include/preconditioners</text>
<text text-anchor="start" x="500" y="-297.5" font-family="Helvetica,sans-Serif" font-size="10.00">/preconditioner_for_hyper</text>
<text text-anchor="middle" x="555" y="-286.5" font-family="Helvetica,sans-Serif" font-size="10.00">_singular_bio.h</text>
</a>
</g>
</g>
<!-- Node10&#45;&gt;Node13 -->
<g id="edge16" class="edge">
<title>Node10&#45;&gt;Node13</title>
<path fill="none" stroke="midnightblue" d="M522.95,-353.95C529.38,-343.33 536.93,-330.85 543.09,-320.68"/>
<polygon fill="midnightblue" stroke="midnightblue" points="519.84,-352.34 517.65,-362.7 525.82,-355.96 519.84,-352.34"/>
</g>
<!-- Node14 -->
<g id="node14" class="node">
<title>Node14</title>
<g id="a_node14"><a xlink:href="preconditioner__for__laplace__hyper__singular__bio_8h.html" target="_top" xlink:title="Dual mesh operator preconditioner for the hyper singular boundary integral operator in the Laplace eq...">
<polygon fill="none" stroke="black" points="418.5,-201.5 418.5,-242.5 551.5,-242.5 551.5,-201.5 418.5,-201.5"/>
<text text-anchor="start" x="426.5" y="-230.5" font-family="Helvetica,sans-Serif" font-size="10.00">include/preconditioners</text>
<text text-anchor="start" x="426.5" y="-219.5" font-family="Helvetica,sans-Serif" font-size="10.00">/preconditioner_for_laplace</text>
<text text-anchor="middle" x="485" y="-208.5" font-family="Helvetica,sans-Serif" font-size="10.00">_hyper_singular_bio.h</text>
</a>
</g>
</g>
<!-- Node10&#45;&gt;Node14 -->
<g id="edge20" class="edge">
<title>Node10&#45;&gt;Node14</title>
<path fill="none" stroke="midnightblue" d="M495.48,-353.83C490.51,-344.04 485.5,-332.3 483,-321 477.13,-294.41 479.38,-262.78 481.89,-242.79"/>
<polygon fill="midnightblue" stroke="midnightblue" points="492.52,-355.72 500.34,-362.88 498.69,-352.41 492.52,-355.72"/>
</g>
<!-- Node15 -->
<g id="node15" class="node">
<title>Node15</title>
<g id="a_node15"><a xlink:href="preconditioner__for__laplace__single__layer__bio_8h.html" target="_top" xlink:title="Dual mesh operator preconditioner for the single layer potential boundary integral operator in the La...">
<polygon fill="none" stroke="black" points="104.5,-201.5 104.5,-242.5 237.5,-242.5 237.5,-201.5 104.5,-201.5"/>
<text text-anchor="start" x="112.5" y="-230.5" font-family="Helvetica,sans-Serif" font-size="10.00">include/preconditioners</text>
<text text-anchor="start" x="112.5" y="-219.5" font-family="Helvetica,sans-Serif" font-size="10.00">/preconditioner_for_laplace</text>
<text text-anchor="middle" x="171" y="-208.5" font-family="Helvetica,sans-Serif" font-size="10.00">_single_layer_bio.h</text>
</a>
</g>
</g>
<!-- Node10&#45;&gt;Node15 -->
<g id="edge21" class="edge">
<title>Node10&#45;&gt;Node15</title>
<path fill="none" stroke="midnightblue" d="M434.26,-373.04C381.05,-367.36 309.59,-353.69 255,-321 222.51,-301.54 196.31,-265.07 182.25,-242.52"/>
<polygon fill="midnightblue" stroke="midnightblue" points="434.01,-376.54 444.31,-374.05 434.71,-369.57 434.01,-376.54"/>
</g>
<!-- Node16 -->
<g id="node16" class="node">
<title>Node16</title>
<g id="a_node16"><a xlink:href="preconditioner__for__single__layer__bio_8h.html" target="_top" xlink:title="Dual mesh operator preconditioner for the single layer potential boundary integral operator.">
<polygon fill="none" stroke="black" points="264,-279.5 264,-320.5 392,-320.5 392,-279.5 264,-279.5"/>
<text text-anchor="start" x="272" y="-308.5" font-family="Helvetica,sans-Serif" font-size="10.00">include/preconditioners</text>
<text text-anchor="start" x="272" y="-297.5" font-family="Helvetica,sans-Serif" font-size="10.00">/preconditioner_for_single</text>
<text text-anchor="middle" x="328" y="-286.5" font-family="Helvetica,sans-Serif" font-size="10.00">_layer_bio.h</text>
</a>
</g>
</g>
<!-- Node10&#45;&gt;Node16 -->
<g id="edge23" class="edge">
<title>Node10&#45;&gt;Node16</title>
<path fill="none" stroke="midnightblue" d="M466.03,-358.96C438.55,-347.42 402.92,-332.46 374.75,-320.63"/>
<polygon fill="midnightblue" stroke="midnightblue" points="464.8,-362.24 475.38,-362.88 467.51,-355.78 464.8,-362.24"/>
</g>
<!-- Node11&#45;&gt;Node2 -->
<g id="edge13" class="edge">
<title>Node11&#45;&gt;Node2</title>
<path fill="none" stroke="midnightblue" d="M697.37,-197.02C720.42,-186.25 746.82,-173.93 766.65,-164.67"/>
<polygon fill="midnightblue" stroke="midnightblue" points="695.64,-193.96 688.06,-201.36 698.6,-200.3 695.64,-193.96"/>
</g>
<!-- Node12&#45;&gt;Node2 -->
<g id="edge15" class="edge">
<title>Node12&#45;&gt;Node2</title>
<path fill="none" stroke="midnightblue" d="M410.17,-200.88C527.09,-179.32 652.59,-164.86 728.3,-157.08"/>
<polygon fill="midnightblue" stroke="midnightblue" points="409.52,-197.44 400.34,-202.71 410.81,-204.32 409.52,-197.44"/>
</g>
<!-- Node13&#45;&gt;Node11 -->
<g id="edge17" class="edge">
<title>Node13&#45;&gt;Node11</title>
<path fill="none" stroke="midnightblue" d="M586.4,-272.78C598.29,-262.84 611.62,-251.72 622.64,-242.51"/>
<polygon fill="midnightblue" stroke="midnightblue" points="583.87,-270.33 578.43,-279.43 588.35,-275.7 583.87,-270.33"/>
</g>
<!-- Node13&#45;&gt;Node14 -->
<g id="edge18" class="edge">
<title>Node13&#45;&gt;Node14</title>
<path fill="none" stroke="midnightblue" d="M530.05,-271.92C521.11,-262.2 511.2,-251.45 502.97,-242.51"/>
<polygon fill="midnightblue" stroke="midnightblue" points="527.62,-274.44 536.97,-279.43 532.77,-269.7 527.62,-274.44"/>
</g>
<!-- Node14&#45;&gt;Node5 -->
<g id="edge19" class="edge">
<title>Node14&#45;&gt;Node5</title>
<path fill="none" stroke="midnightblue" d="M408.32,-200.94C323.81,-182.63 237.15,-168.08 181.59,-159.28"/>
<polygon fill="midnightblue" stroke="midnightblue" points="407.83,-204.41 418.35,-203.13 409.33,-197.57 407.83,-204.41"/>
</g>
<!-- Node15&#45;&gt;Node5 -->
<g id="edge22" class="edge">
<title>Node15&#45;&gt;Node5</title>
<path fill="none" stroke="midnightblue" d="M152.23,-192.85C145.84,-183.26 138.96,-172.94 133.59,-164.89"/>
<polygon fill="midnightblue" stroke="midnightblue" points="149.45,-194.98 157.91,-201.36 155.27,-191.1 149.45,-194.98"/>
</g>
<!-- Node16&#45;&gt;Node12 -->
<g id="edge24" class="edge">
<title>Node16&#45;&gt;Node12</title>
<path fill="none" stroke="midnightblue" d="M328,-269.3C328,-260.3 328,-250.65 328,-242.51"/>
<polygon fill="midnightblue" stroke="midnightblue" points="324.5,-269.43 328,-279.43 331.5,-269.43 324.5,-269.43"/>
</g>
<!-- Node16&#45;&gt;Node15 -->
<g id="edge25" class="edge">
<title>Node16&#45;&gt;Node15</title>
<path fill="none" stroke="midnightblue" d="M278.52,-275.05C256.87,-264.57 231.78,-252.42 211.29,-242.51"/>
<polygon fill="midnightblue" stroke="midnightblue" points="277.04,-278.22 287.57,-279.43 280.09,-271.92 277.04,-278.22"/>
</g>
<!-- Node17&#45;&gt;Node2 -->
<g id="edge32" class="edge">
<title>Node17&#45;&gt;Node2</title>
<path fill="none" stroke="midnightblue" d="M874.17,-432.88C890.56,-425.3 906.42,-414.44 916,-399 962.41,-324.23 964.57,-274.38 916,-201 904.36,-183.41 885.22,-171.93 865.66,-164.44"/>
<polygon fill="midnightblue" stroke="midnightblue" points="872.34,-429.86 864.5,-436.98 875.07,-436.3 872.34,-429.86"/>
</g>
<!-- Node17&#45;&gt;Node5 -->
<g id="edge33" class="edge">
<title>Node17&#45;&gt;Node5</title>
<path fill="none" stroke="midnightblue" d="M753.2,-440.53C740.27,-438.66 726.69,-436.74 714,-435 484.32,-403.53 411.49,-426.38 205,-321 151.62,-293.76 122.52,-296.24 95,-243 81.48,-216.84 99.99,-183.22 113.07,-164.56"/>
<polygon fill="midnightblue" stroke="midnightblue" points="753.01,-444.04 763.41,-442.01 754.01,-437.11 753.01,-444.04"/>
</g>
<!-- Node17&#45;&gt;Node10 -->
<g id="edge34" class="edge">
<title>Node17&#45;&gt;Node10</title>
<path fill="none" stroke="midnightblue" d="M753.31,-435.47C700.08,-423.17 623.08,-405.37 569.81,-393.06"/>
<polygon fill="midnightblue" stroke="midnightblue" points="752.76,-438.94 763.29,-437.78 754.34,-432.12 752.76,-438.94"/>
</g>
<!-- Node18 -->
<g id="node18" class="node">
<title>Node18</title>
<g id="a_node18"><a xlink:href="build-hmatrix-on-subdomain_8cu.html" target="_top" xlink:title="Example for building an H&#45;matrix on a subdomain which is specified by a set of material ids.">
<polygon fill="none" stroke="black" points="963.5,-357.5 963.5,-398.5 1102.5,-398.5 1102.5,-357.5 963.5,-357.5"/>
<text text-anchor="start" x="971.5" y="-386.5" font-family="Helvetica,sans-Serif" font-size="10.00">examples/build&#45;hmatrix</text>
<text text-anchor="start" x="971.5" y="-375.5" font-family="Helvetica,sans-Serif" font-size="10.00">&#45;on&#45;subdomain/build&#45;hmatrix</text>
<text text-anchor="middle" x="1033" y="-364.5" font-family="Helvetica,sans-Serif" font-size="10.00">&#45;on&#45;subdomain.cu</text>
</a>
</g>
</g>
<!-- Node17&#45;&gt;Node18 -->
<g id="edge27" class="edge">
<title>Node17&#45;&gt;Node18</title>
<path fill="none" stroke="midnightblue" d="M867.07,-432.42C898.77,-422.21 939.15,-409.21 972.14,-398.59"/>
<polygon fill="midnightblue" stroke="midnightblue" points="865.98,-429.09 857.53,-435.49 868.12,-435.75 865.98,-429.09"/>
</g>
<!-- Node19 -->
<g id="node19" class="node">
<title>Node19</title>
<g id="a_node19"><a xlink:href="build-hmatrix_8cu.html" target="_top" xlink:title="Example for building an H&#45;matrix.">
<polygon fill="none" stroke="black" points="1120.5,-363 1120.5,-393 1237.5,-393 1237.5,-363 1120.5,-363"/>
<text text-anchor="start" x="1128.5" y="-381" font-family="Helvetica,sans-Serif" font-size="10.00">examples/build&#45;hmatrix</text>
<text text-anchor="middle" x="1179" y="-370" font-family="Helvetica,sans-Serif" font-size="10.00">/build&#45;hmatrix.cu</text>
</a>
</g>
</g>
<!-- Node17&#45;&gt;Node19 -->
<g id="edge28" class="edge">
<title>Node17&#45;&gt;Node19</title>
<path fill="none" stroke="midnightblue" d="M874.88,-441.41C935.41,-432.84 1030.72,-417.94 1112,-399 1119.45,-397.26 1127.29,-395.17 1134.88,-393"/>
<polygon fill="midnightblue" stroke="midnightblue" points="874.15,-437.98 864.73,-442.83 875.12,-444.91 874.15,-437.98"/>
</g>
<!-- Node20 -->
<g id="node20" class="node">
<title>Node20</title>
<g id="a_node20"><a xlink:href="bem__bilinear__form_8h.html" target="_top" xlink:title="Definition of a class for BEM bilinear form.">
<polygon fill="none" stroke="black" points="779.5,-207 779.5,-237 906.5,-237 906.5,-207 779.5,-207"/>
<text text-anchor="start" x="787.5" y="-225" font-family="Helvetica,sans-Serif" font-size="10.00">include/bem/bem_bilinear</text>
<text text-anchor="middle" x="843" y="-214" font-family="Helvetica,sans-Serif" font-size="10.00">_form.h</text>
</a>
</g>
</g>
<!-- Node17&#45;&gt;Node20 -->
<g id="edge29" class="edge">
<title>Node17&#45;&gt;Node20</title>
<path fill="none" stroke="midnightblue" d="M800.96,-426.38C796.94,-418.02 793.03,-408.34 791,-399 787.04,-380.76 787.56,-375.35 791,-357 799.54,-311.38 823.12,-261.31 835.38,-237.34"/>
<polygon fill="midnightblue" stroke="midnightblue" points="797.96,-428.19 805.64,-435.48 804.18,-424.99 797.96,-428.19"/>
</g>
<!-- Node21 -->
<g id="node21" class="node">
<title>Node21</title>
<g id="a_node21"><a xlink:href="aca__plus_8cu_source.html" target="_top" xlink:title=" ">
<polygon fill="none" stroke="black" points="799.5,-363 799.5,-393 906.5,-393 906.5,-363 799.5,-363"/>
<text text-anchor="start" x="807.5" y="-381" font-family="Helvetica,sans-Serif" font-size="10.00">src/hmatrix/aca_plus</text>
<text text-anchor="middle" x="853" y="-370" font-family="Helvetica,sans-Serif" font-size="10.00">/aca_plus.cu</text>
</a>
</g>
</g>
<!-- Node17&#45;&gt;Node21 -->
<g id="edge35" class="edge">
<title>Node17&#45;&gt;Node21</title>
<path fill="none" stroke="midnightblue" d="M826.87,-426.23C832.9,-415.33 839.89,-402.7 845.12,-393.25"/>
<polygon fill="midnightblue" stroke="midnightblue" points="823.67,-424.79 821.89,-435.23 829.8,-428.18 823.67,-424.79"/>
</g>
<!-- Node20&#45;&gt;Node2 -->
<g id="edge30" class="edge">
<title>Node20&#45;&gt;Node2</title>
<path fill="none" stroke="midnightblue" d="M828.03,-198.06C820.87,-187.09 812.53,-174.3 806.29,-164.75"/>
<polygon fill="midnightblue" stroke="midnightblue" points="825.3,-200.27 833.69,-206.73 831.16,-196.45 825.3,-200.27"/>
</g>
<!-- Node20&#45;&gt;Node5 -->
<g id="edge31" class="edge">
<title>Node20&#45;&gt;Node5</title>
<path fill="none" stroke="midnightblue" d="M769.55,-206.75C757.05,-204.62 744.18,-202.6 732,-201 530.63,-174.56 289.81,-159.39 181.62,-153.45"/>
<polygon fill="midnightblue" stroke="midnightblue" points="769.02,-210.21 779.48,-208.48 770.23,-203.31 769.02,-210.21"/>
</g>
</g>
</svg>
