<?xml version="1.0" encoding="UTF-8" standalone="no"?>
<!DOCTYPE svg PUBLIC "-//W3C//DTD SVG 1.1//EN"
 "http://www.w3.org/Graphics/SVG/1.1/DTD/svg11.dtd">
<!-- Generated by graphviz version 2.43.0 (0)
 -->
<!-- Title: include/linear_algebra/cu_tensor.hcu Pages: 1 -->
<svg width="524pt" height="575pt"
 viewBox="0.00 0.00 523.50 575.00" xmlns="http://www.w3.org/2000/svg" xmlns:xlink="http://www.w3.org/1999/xlink">
<g id="graph0" class="graph" transform="scale(1 1) rotate(0) translate(4 571)">
<title>include/linear_algebra/cu_tensor.hcu</title>
<!-- Node1 -->
<g id="node1" class="node">
<title>Node1</title>
<g id="a_node1"><a xlink:title="Introduction of cu_tensor.hcu.">
<polygon fill="#bfbfbf" stroke="black" points="162,-536.5 162,-566.5 272,-566.5 272,-536.5 162,-536.5"/>
<text text-anchor="start" x="170" y="-554.5" font-family="Helvetica,sans-Serif" font-size="10.00">include/linear_algebra</text>
<text text-anchor="middle" x="217" y="-543.5" font-family="Helvetica,sans-Serif" font-size="10.00">/cu_tensor.hcu</text>
</a>
</g>
</g>
<!-- Node2 -->
<g id="node2" class="node">
<title>Node2</title>
<g id="a_node2"><a xlink:href="bem__kernels_8hcu_source.html" target="_top" xlink:title=" ">
<polygon fill="none" stroke="black" points="144,-480.5 144,-499.5 290,-499.5 290,-480.5 144,-480.5"/>
<text text-anchor="middle" x="217" y="-487.5" font-family="Helvetica,sans-Serif" font-size="10.00">include/bem/bem_kernels.hcu</text>
</a>
</g>
</g>
<!-- Node1&#45;&gt;Node2 -->
<g id="edge1" class="edge">
<title>Node1&#45;&gt;Node2</title>
<path fill="none" stroke="midnightblue" d="M217,-526.29C217,-516.86 217,-506.65 217,-499.66"/>
<polygon fill="midnightblue" stroke="midnightblue" points="213.5,-526.4 217,-536.4 220.5,-526.4 213.5,-526.4"/>
</g>
<!-- Node3 -->
<g id="node3" class="node">
<title>Node3</title>
<g id="a_node3"><a xlink:href="bem__general_8hcu_source.html" target="_top" xlink:title=" ">
<polygon fill="none" stroke="black" points="0,-352 0,-371 146,-371 146,-352 0,-352"/>
<text text-anchor="middle" x="73" y="-359" font-family="Helvetica,sans-Serif" font-size="10.00">include/bem/bem_general.hcu</text>
</a>
</g>
</g>
<!-- Node2&#45;&gt;Node3 -->
<g id="edge2" class="edge">
<title>Node2&#45;&gt;Node3</title>
<path fill="none" stroke="midnightblue" d="M197.21,-474.04C186.09,-465.47 172.07,-454.38 160,-444 130.51,-418.62 97.41,-386.56 81.91,-371.32"/>
<polygon fill="midnightblue" stroke="midnightblue" points="195.35,-477.02 205.42,-480.31 199.6,-471.46 195.35,-477.02"/>
</g>
<!-- Node7 -->
<g id="node7" class="node">
<title>Node7</title>
<g id="a_node7"><a xlink:href="operator__preconditioner_8h.html" target="_top" xlink:title=" ">
<polygon fill="none" stroke="black" points="109.5,-279.5 109.5,-309.5 238.5,-309.5 238.5,-279.5 109.5,-279.5"/>
<text text-anchor="start" x="117.5" y="-297.5" font-family="Helvetica,sans-Serif" font-size="10.00">include/preconditioners</text>
<text text-anchor="middle" x="174" y="-286.5" font-family="Helvetica,sans-Serif" font-size="10.00">/operator_preconditioner.h</text>
</a>
</g>
</g>
<!-- Node2&#45;&gt;Node7 -->
<g id="edge15" class="edge">
<title>Node2&#45;&gt;Node7</title>
<path fill="none" stroke="midnightblue" d="M205.99,-471.91C201.25,-463.77 196.09,-453.7 193,-444 177.84,-396.45 174.73,-336.7 174.13,-309.79"/>
<polygon fill="midnightblue" stroke="midnightblue" points="203.02,-473.75 211.22,-480.46 208.99,-470.1 203.02,-473.75"/>
</g>
<!-- Node10 -->
<g id="node10" class="node">
<title>Node10</title>
<g id="a_node10"><a xlink:href="aca__plus_8hcu.html" target="_top" xlink:title="Implement the ACA+ method proposed in Grasedyck, L. 2005. “Adaptive Recompression of &#45;Matrices for BE...">
<polygon fill="none" stroke="black" points="329.5,-346.5 329.5,-376.5 430.5,-376.5 430.5,-346.5 329.5,-346.5"/>
<text text-anchor="start" x="337.5" y="-364.5" font-family="Helvetica,sans-Serif" font-size="10.00">include/hmatrix/aca</text>
<text text-anchor="middle" x="380" y="-353.5" font-family="Helvetica,sans-Serif" font-size="10.00">_plus/aca_plus.hcu</text>
</a>
</g>
</g>
<!-- Node2&#45;&gt;Node10 -->
<g id="edge11" class="edge">
<title>Node2&#45;&gt;Node10</title>
<path fill="none" stroke="midnightblue" d="M262.17,-477.37C283.47,-470.27 308.27,-459.5 327,-444 349.5,-425.39 365.79,-394.71 373.99,-376.78"/>
<polygon fill="midnightblue" stroke="midnightblue" points="260.83,-474.12 252.34,-480.48 262.93,-480.8 260.83,-474.12"/>
</g>
<!-- Node12 -->
<g id="node12" class="node">
<title>Node12</title>
<g id="a_node12"><a xlink:href="sauter__quadrature_8hcu_source.html" target="_top" xlink:title=" ">
<polygon fill="none" stroke="black" points="202,-413.5 202,-443.5 318,-443.5 318,-413.5 202,-413.5"/>
<text text-anchor="start" x="210" y="-431.5" font-family="Helvetica,sans-Serif" font-size="10.00">include/quadrature</text>
<text text-anchor="middle" x="260" y="-420.5" font-family="Helvetica,sans-Serif" font-size="10.00">/sauter_quadrature.hcu</text>
</a>
</g>
</g>
<!-- Node2&#45;&gt;Node12 -->
<g id="edge16" class="edge">
<title>Node2&#45;&gt;Node12</title>
<path fill="none" stroke="midnightblue" d="M229.11,-472.25C235.66,-463.19 243.65,-452.12 249.87,-443.52"/>
<polygon fill="midnightblue" stroke="midnightblue" points="226.18,-470.32 223.16,-480.48 231.86,-474.42 226.18,-470.32"/>
</g>
<!-- Node4 -->
<g id="node4" class="node">
<title>Node4</title>
<g id="a_node4"><a xlink:href="laplace__bem_8priv_8hcu_source.html" target="_top" xlink:title=" ">
<polygon fill="none" stroke="black" points="151.5,-134.5 151.5,-164.5 266.5,-164.5 266.5,-134.5 151.5,-134.5"/>
<text text-anchor="start" x="159.5" y="-152.5" font-family="Helvetica,sans-Serif" font-size="10.00">include/laplace/laplace</text>
<text text-anchor="middle" x="209" y="-141.5" font-family="Helvetica,sans-Serif" font-size="10.00">_bem.priv.hcu</text>
</a>
</g>
</g>
<!-- Node3&#45;&gt;Node4 -->
<g id="edge3" class="edge">
<title>Node3&#45;&gt;Node4</title>
<path fill="none" stroke="midnightblue" d="M64.27,-342.5C50.24,-310.67 27.19,-243.79 58,-201 79.16,-171.61 118.2,-159.08 151.29,-153.84"/>
<polygon fill="midnightblue" stroke="midnightblue" points="61.22,-344.25 68.59,-351.86 67.58,-341.32 61.22,-344.25"/>
</g>
<!-- Node3&#45;&gt;Node7 -->
<g id="edge6" class="edge">
<title>Node3&#45;&gt;Node7</title>
<path fill="none" stroke="midnightblue" d="M95.29,-346.15C112.2,-335.27 135.3,-320.4 152.11,-309.59"/>
<polygon fill="midnightblue" stroke="midnightblue" points="93.14,-343.38 86.62,-351.73 96.92,-349.27 93.14,-343.38"/>
</g>
<!-- Node5 -->
<g id="node5" class="node">
<title>Node5</title>
<g id="a_node5"><a xlink:href="laplace__bem_8impl_8hcu_source.html" target="_top" xlink:title=" ">
<polygon fill="none" stroke="black" points="151.5,-67.5 151.5,-97.5 266.5,-97.5 266.5,-67.5 151.5,-67.5"/>
<text text-anchor="start" x="159.5" y="-85.5" font-family="Helvetica,sans-Serif" font-size="10.00">include/laplace/laplace</text>
<text text-anchor="middle" x="209" y="-74.5" font-family="Helvetica,sans-Serif" font-size="10.00">_bem.impl.hcu</text>
</a>
</g>
</g>
<!-- Node4&#45;&gt;Node5 -->
<g id="edge4" class="edge">
<title>Node4&#45;&gt;Node5</title>
<path fill="none" stroke="midnightblue" d="M209,-124.11C209,-115.15 209,-105.32 209,-97.58"/>
<polygon fill="midnightblue" stroke="midnightblue" points="205.5,-124.4 209,-134.4 212.5,-124.4 205.5,-124.4"/>
</g>
<!-- Node6 -->
<g id="node6" class="node">
<title>Node6</title>
<g id="a_node6"><a xlink:href="laplace__bem_8cu_source.html" target="_top" xlink:title=" ">
<polygon fill="none" stroke="black" points="160,-0.5 160,-30.5 258,-30.5 258,-0.5 160,-0.5"/>
<text text-anchor="start" x="168" y="-18.5" font-family="Helvetica,sans-Serif" font-size="10.00">src/laplace/laplace</text>
<text text-anchor="middle" x="209" y="-7.5" font-family="Helvetica,sans-Serif" font-size="10.00">_bem.cu</text>
</a>
</g>
</g>
<!-- Node5&#45;&gt;Node6 -->
<g id="edge5" class="edge">
<title>Node5&#45;&gt;Node6</title>
<path fill="none" stroke="midnightblue" d="M209,-57.11C209,-48.15 209,-38.32 209,-30.58"/>
<polygon fill="midnightblue" stroke="midnightblue" points="205.5,-57.4 209,-67.4 212.5,-57.4 205.5,-57.4"/>
</g>
<!-- Node8 -->
<g id="node8" class="node">
<title>Node8</title>
<g id="a_node8"><a xlink:href="preconditioner__for__laplace__dirichlet_8h.html" target="_top" xlink:title=" ">
<polygon fill="none" stroke="black" points="67.5,-201.5 67.5,-242.5 200.5,-242.5 200.5,-201.5 67.5,-201.5"/>
<text text-anchor="start" x="75.5" y="-230.5" font-family="Helvetica,sans-Serif" font-size="10.00">include/preconditioners</text>
<text text-anchor="start" x="75.5" y="-219.5" font-family="Helvetica,sans-Serif" font-size="10.00">/preconditioner_for_laplace</text>
<text text-anchor="middle" x="134" y="-208.5" font-family="Helvetica,sans-Serif" font-size="10.00">_dirichlet.h</text>
</a>
</g>
</g>
<!-- Node7&#45;&gt;Node8 -->
<g id="edge7" class="edge">
<title>Node7&#45;&gt;Node8</title>
<path fill="none" stroke="midnightblue" d="M160.9,-270.41C155.8,-261.42 150.01,-251.22 145.11,-242.59"/>
<polygon fill="midnightblue" stroke="midnightblue" points="157.93,-272.26 165.91,-279.23 164.01,-268.81 157.93,-272.26"/>
</g>
<!-- Node9 -->
<g id="node9" class="node">
<title>Node9</title>
<g id="a_node9"><a xlink:href="preconditioner__for__laplace__neumann_8h.html" target="_top" xlink:title=" ">
<polygon fill="none" stroke="black" points="218.5,-201.5 218.5,-242.5 351.5,-242.5 351.5,-201.5 218.5,-201.5"/>
<text text-anchor="start" x="226.5" y="-230.5" font-family="Helvetica,sans-Serif" font-size="10.00">include/preconditioners</text>
<text text-anchor="start" x="226.5" y="-219.5" font-family="Helvetica,sans-Serif" font-size="10.00">/preconditioner_for_laplace</text>
<text text-anchor="middle" x="285" y="-208.5" font-family="Helvetica,sans-Serif" font-size="10.00">_neumann.h</text>
</a>
</g>
</g>
<!-- Node7&#45;&gt;Node9 -->
<g id="edge9" class="edge">
<title>Node7&#45;&gt;Node9</title>
<path fill="none" stroke="midnightblue" d="M204.81,-273.93C220.15,-264.19 238.65,-252.44 254.01,-242.68"/>
<polygon fill="midnightblue" stroke="midnightblue" points="202.76,-271.09 196.2,-279.4 206.51,-277 202.76,-271.09"/>
</g>
<!-- Node8&#45;&gt;Node4 -->
<g id="edge8" class="edge">
<title>Node8&#45;&gt;Node4</title>
<path fill="none" stroke="midnightblue" d="M162.39,-194.31C173.02,-184.32 184.69,-173.35 193.69,-164.89"/>
<polygon fill="midnightblue" stroke="midnightblue" points="159.78,-191.96 154.89,-201.36 164.58,-197.06 159.78,-191.96"/>
</g>
<!-- Node9&#45;&gt;Node4 -->
<g id="edge10" class="edge">
<title>Node9&#45;&gt;Node4</title>
<path fill="none" stroke="midnightblue" d="M256.23,-194.31C245.46,-184.32 233.64,-173.35 224.51,-164.89"/>
<polygon fill="midnightblue" stroke="midnightblue" points="254.12,-197.13 263.83,-201.36 258.88,-191.99 254.12,-197.13"/>
</g>
<!-- Node10&#45;&gt;Node4 -->
<g id="edge12" class="edge">
<title>Node10&#45;&gt;Node4</title>
<path fill="none" stroke="midnightblue" d="M384.47,-336.2C389.28,-302.01 392.49,-239.61 361,-201 338.15,-172.99 299.31,-160.4 266.61,-154.8"/>
<polygon fill="midnightblue" stroke="midnightblue" points="380.99,-335.81 382.89,-346.24 387.9,-336.9 380.99,-335.81"/>
</g>
<!-- Node10&#45;&gt;Node7 -->
<g id="edge13" class="edge">
<title>Node10&#45;&gt;Node7</title>
<path fill="none" stroke="midnightblue" d="M325.95,-343.44C292.55,-332.91 250.22,-319.55 218.72,-309.61"/>
<polygon fill="midnightblue" stroke="midnightblue" points="324.96,-346.8 335.55,-346.48 327.07,-340.13 324.96,-346.8"/>
</g>
<!-- Node11 -->
<g id="node11" class="node">
<title>Node11</title>
<g id="a_node11"><a xlink:href="aca__plus_8cu_source.html" target="_top" xlink:title=" ">
<polygon fill="none" stroke="black" points="408.5,-279.5 408.5,-309.5 515.5,-309.5 515.5,-279.5 408.5,-279.5"/>
<text text-anchor="start" x="416.5" y="-297.5" font-family="Helvetica,sans-Serif" font-size="10.00">src/hmatrix/aca_plus</text>
<text text-anchor="middle" x="462" y="-286.5" font-family="Helvetica,sans-Serif" font-size="10.00">/aca_plus.cu</text>
</a>
</g>
</g>
<!-- Node10&#45;&gt;Node11 -->
<g id="edge14" class="edge">
<title>Node10&#45;&gt;Node11</title>
<path fill="none" stroke="midnightblue" d="M405.65,-340.17C418.19,-330.23 432.97,-318.51 444.24,-309.58"/>
<polygon fill="midnightblue" stroke="midnightblue" points="403.46,-337.44 397.79,-346.4 407.8,-342.93 403.46,-337.44"/>
</g>
<!-- Node12&#45;&gt;Node3 -->
<g id="edge17" class="edge">
<title>Node12&#45;&gt;Node3</title>
<path fill="none" stroke="midnightblue" d="M209.96,-410.11C173.58,-397.46 125.91,-380.89 97.47,-371.01"/>
<polygon fill="midnightblue" stroke="midnightblue" points="208.83,-413.42 219.42,-413.4 211.13,-406.81 208.83,-413.42"/>
</g>
<!-- Node12&#45;&gt;Node10 -->
<g id="edge18" class="edge">
<title>Node12&#45;&gt;Node10</title>
<path fill="none" stroke="midnightblue" d="M294.94,-408.57C313.82,-398.35 336.73,-385.94 354.01,-376.58"/>
<polygon fill="midnightblue" stroke="midnightblue" points="293.16,-405.56 286.04,-413.4 296.5,-411.71 293.16,-405.56"/>
</g>
<!-- Node13 -->
<g id="node13" class="node">
<title>Node13</title>
<g id="a_node13"><a xlink:href="sauter__quadrature_8cu_source.html" target="_top" xlink:title=" ">
<polygon fill="none" stroke="black" points="202.5,-346.5 202.5,-376.5 311.5,-376.5 311.5,-346.5 202.5,-346.5"/>
<text text-anchor="start" x="210.5" y="-364.5" font-family="Helvetica,sans-Serif" font-size="10.00">src/quadrature/sauter</text>
<text text-anchor="middle" x="257" y="-353.5" font-family="Helvetica,sans-Serif" font-size="10.00">_quadrature.cu</text>
</a>
</g>
</g>
<!-- Node12&#45;&gt;Node13 -->
<g id="edge19" class="edge">
<title>Node12&#45;&gt;Node13</title>
<path fill="none" stroke="midnightblue" d="M258.89,-403.4C258.47,-394.37 258.01,-384.41 257.65,-376.58"/>
<polygon fill="midnightblue" stroke="midnightblue" points="255.39,-403.57 259.35,-413.4 262.38,-403.25 255.39,-403.57"/>
</g>
</g>
</svg>
