<?xml version="1.0" encoding="UTF-8" standalone="no"?>
<!DOCTYPE svg PUBLIC "-//W3C//DTD SVG 1.1//EN"
 "http://www.w3.org/Graphics/SVG/1.1/DTD/svg11.dtd">
<!-- Generated by graphviz version 2.43.0 (0)
 -->
<!-- Title: include/utilities/cu_profile.hcu Pages: 1 -->
<svg width="237pt" height="95pt"
 viewBox="0.00 0.00 237.00 95.00" xmlns="http://www.w3.org/2000/svg" xmlns:xlink="http://www.w3.org/1999/xlink">
<g id="graph0" class="graph" transform="scale(1 1) rotate(0) translate(4 91)">
<title>include/utilities/cu_profile.hcu</title>
<!-- Node1 -->
<g id="node1" class="node">
<title>Node1</title>
<g id="a_node1"><a xlink:title="CUDA performance profiling.">
<polygon fill="#bfbfbf" stroke="black" points="92,-56.5 92,-86.5 187,-86.5 187,-56.5 92,-56.5"/>
<text text-anchor="start" x="100" y="-74.5" font-family="Helvetica,sans-Serif" font-size="10.00">include/utilities/cu</text>
<text text-anchor="middle" x="139.5" y="-63.5" font-family="Helvetica,sans-Serif" font-size="10.00">_profile.hcu</text>
</a>
</g>
</g>
<!-- Node2 -->
<g id="node2" class="node">
<title>Node2</title>
<g id="a_node2"><a xlink:title=" ">
<polygon fill="none" stroke="#bfbfbf" points="0,-0.5 0,-19.5 101,-19.5 101,-0.5 0,-0.5"/>
<text text-anchor="middle" x="50.5" y="-7.5" font-family="Helvetica,sans-Serif" font-size="10.00">nvtx3/nvToolsExt.h</text>
</a>
</g>
</g>
<!-- Node1&#45;&gt;Node2 -->
<g id="edge1" class="edge">
<title>Node1&#45;&gt;Node2</title>
<path fill="none" stroke="midnightblue" d="M118.41,-56.4C104.41,-47.04 86.09,-34.79 72.01,-25.38"/>
<polygon fill="midnightblue" stroke="midnightblue" points="73.71,-22.31 63.45,-19.66 69.82,-28.13 73.71,-22.31"/>
</g>
<!-- Node3 -->
<g id="node3" class="node">
<title>Node3</title>
<g id="a_node3"><a xlink:title=" ">
<polygon fill="none" stroke="#bfbfbf" points="119,-0.5 119,-19.5 160,-19.5 160,-0.5 119,-0.5"/>
<text text-anchor="middle" x="139.5" y="-7.5" font-family="Helvetica,sans-Serif" font-size="10.00">string</text>
</a>
</g>
</g>
<!-- Node1&#45;&gt;Node3 -->
<g id="edge2" class="edge">
<title>Node1&#45;&gt;Node3</title>
<path fill="none" stroke="midnightblue" d="M139.5,-56.4C139.5,-48.47 139.5,-38.46 139.5,-29.86"/>
<polygon fill="midnightblue" stroke="midnightblue" points="143,-29.66 139.5,-19.66 136,-29.66 143,-29.66"/>
</g>
<!-- Node4 -->
<g id="node4" class="node">
<title>Node4</title>
<g id="a_node4"><a xlink:href="config_8h.html" target="_top" xlink:title="Configurations for building the project.">
<polygon fill="none" stroke="black" points="178,-0.5 178,-19.5 229,-19.5 229,-0.5 178,-0.5"/>
<text text-anchor="middle" x="203.5" y="-7.5" font-family="Helvetica,sans-Serif" font-size="10.00">config.h</text>
</a>
</g>
</g>
<!-- Node1&#45;&gt;Node4 -->
<g id="edge3" class="edge">
<title>Node1&#45;&gt;Node4</title>
<path fill="none" stroke="midnightblue" d="M154.67,-56.4C164.25,-47.49 176.66,-35.95 186.57,-26.74"/>
<polygon fill="midnightblue" stroke="midnightblue" points="189.25,-29.03 194.19,-19.66 184.48,-23.9 189.25,-29.03"/>
</g>
</g>
</svg>
