<?xml version="1.0" encoding="UTF-8" standalone="no"?>
<!DOCTYPE svg PUBLIC "-//W3C//DTD SVG 1.1//EN"
 "http://www.w3.org/Graphics/SVG/1.1/DTD/svg11.dtd">
<!-- Generated by graphviz version 2.43.0 (0)
 -->
<!-- Title: include/utilities/debug_tools.h Pages: 1 -->
<svg width="1681pt" height="798pt"
 viewBox="0.00 0.00 1681.00 798.00" xmlns="http://www.w3.org/2000/svg" xmlns:xlink="http://www.w3.org/1999/xlink">
<g id="graph0" class="graph" transform="scale(1 1) rotate(0) translate(4 794)">
<title>include/utilities/debug_tools.h</title>
<!-- Node1 -->
<g id="node1" class="node">
<title>Node1</title>
<g id="a_node1"><a xlink:title="This file includes a bunch of helper functions for printing out and visualizing information about gri...">
<polygon fill="#bfbfbf" stroke="black" points="311,-759.5 311,-789.5 421,-789.5 421,-759.5 311,-759.5"/>
<text text-anchor="start" x="319" y="-777.5" font-family="Helvetica,sans-Serif" font-size="10.00">include/utilities/debug</text>
<text text-anchor="middle" x="366" y="-766.5" font-family="Helvetica,sans-Serif" font-size="10.00">_tools.h</text>
</a>
</g>
</g>
<!-- Node2 -->
<g id="node2" class="node">
<title>Node2</title>
<g id="a_node2"><a xlink:href="block__cluster__tree_8h.html" target="_top" xlink:title="Implementation of the class BlockClusterTree.">
<polygon fill="none" stroke="black" points="365.5,-558.5 365.5,-588.5 472.5,-588.5 472.5,-558.5 365.5,-558.5"/>
<text text-anchor="start" x="373.5" y="-576.5" font-family="Helvetica,sans-Serif" font-size="10.00">include/cluster_tree</text>
<text text-anchor="middle" x="419" y="-565.5" font-family="Helvetica,sans-Serif" font-size="10.00">/block_cluster_tree.h</text>
</a>
</g>
</g>
<!-- Node1&#45;&gt;Node2 -->
<g id="edge1" class="edge">
<title>Node1&#45;&gt;Node2</title>
<path fill="none" stroke="midnightblue" d="M372.45,-749.27C383.63,-707.29 406.26,-622.33 415.22,-588.68"/>
<polygon fill="midnightblue" stroke="midnightblue" points="369,-748.62 369.81,-759.19 375.77,-750.43 369,-748.62"/>
</g>
<!-- Node11 -->
<g id="node11" class="node">
<title>Node11</title>
<g id="a_node11"><a xlink:href="aca__plus_8hcu.html" target="_top" xlink:title="Implement the ACA+ method proposed in Grasedyck, L. 2005. “Adaptive Recompression of &#45;Matrices for BE...">
<polygon fill="none" stroke="black" points="66.5,-363 66.5,-393 167.5,-393 167.5,-363 66.5,-363"/>
<text text-anchor="start" x="74.5" y="-381" font-family="Helvetica,sans-Serif" font-size="10.00">include/hmatrix/aca</text>
<text text-anchor="middle" x="117" y="-370" font-family="Helvetica,sans-Serif" font-size="10.00">_plus/aca_plus.hcu</text>
</a>
</g>
</g>
<!-- Node1&#45;&gt;Node11 -->
<g id="edge48" class="edge">
<title>Node1&#45;&gt;Node11</title>
<path fill="none" stroke="midnightblue" d="M300.62,-771.55C215.09,-765.12 76,-739.57 76,-641.5 76,-641.5 76,-641.5 76,-511 76,-466.37 97.64,-416.91 109.48,-393.2"/>
<polygon fill="midnightblue" stroke="midnightblue" points="300.56,-775.06 310.77,-772.25 301.03,-768.07 300.56,-775.06"/>
</g>
<!-- Node12 -->
<g id="node12" class="node">
<title>Node12</title>
<g id="a_node12"><a xlink:href="laplace__bem_8priv_8hcu_source.html" target="_top" xlink:title=" ">
<polygon fill="none" stroke="black" points="448.5,-134.5 448.5,-164.5 563.5,-164.5 563.5,-134.5 448.5,-134.5"/>
<text text-anchor="start" x="456.5" y="-152.5" font-family="Helvetica,sans-Serif" font-size="10.00">include/laplace/laplace</text>
<text text-anchor="middle" x="506" y="-141.5" font-family="Helvetica,sans-Serif" font-size="10.00">_bem.priv.hcu</text>
</a>
</g>
</g>
<!-- Node1&#45;&gt;Node12 -->
<g id="edge49" class="edge">
<title>Node1&#45;&gt;Node12</title>
<path fill="none" stroke="midnightblue" d="M300.69,-771.9C242.19,-768.15 155.47,-756.71 88,-723 40.31,-699.17 0,-694.81 0,-641.5 0,-641.5 0,-641.5 0,-299 0,-248.16 16.22,-228.46 59,-201 122.17,-160.45 342.56,-152.32 448.4,-150.79"/>
<polygon fill="midnightblue" stroke="midnightblue" points="300.72,-775.41 310.91,-772.5 301.13,-768.42 300.72,-775.41"/>
</g>
<!-- Node15 -->
<g id="node15" class="node">
<title>Node15</title>
<g id="a_node15"><a xlink:href="operator__preconditioner_8h.html" target="_top" xlink:title=" ">
<polygon fill="none" stroke="black" points="422.5,-285 422.5,-315 551.5,-315 551.5,-285 422.5,-285"/>
<text text-anchor="start" x="430.5" y="-303" font-family="Helvetica,sans-Serif" font-size="10.00">include/preconditioners</text>
<text text-anchor="middle" x="487" y="-292" font-family="Helvetica,sans-Serif" font-size="10.00">/operator_preconditioner.h</text>
</a>
</g>
</g>
<!-- Node1&#45;&gt;Node15 -->
<g id="edge50" class="edge">
<title>Node1&#45;&gt;Node15</title>
<path fill="none" stroke="midnightblue" d="M431.13,-766.75C462.69,-760.28 498.87,-747.65 523,-723 544.74,-700.8 538.51,-686.75 543,-656 562.39,-523.26 509.71,-363.09 492.34,-315.19"/>
<polygon fill="midnightblue" stroke="midnightblue" points="430.26,-763.35 421.07,-768.64 431.55,-770.23 430.26,-763.35"/>
</g>
<!-- Node22 -->
<g id="node22" class="node">
<title>Node22</title>
<g id="a_node22"><a xlink:href="sauter__quadrature_8hcu_source.html" target="_top" xlink:title=" ">
<polygon fill="none" stroke="black" points="270,-435.5 270,-465.5 386,-465.5 386,-435.5 270,-435.5"/>
<text text-anchor="start" x="278" y="-453.5" font-family="Helvetica,sans-Serif" font-size="10.00">include/quadrature</text>
<text text-anchor="middle" x="328" y="-442.5" font-family="Helvetica,sans-Serif" font-size="10.00">/sauter_quadrature.hcu</text>
</a>
</g>
</g>
<!-- Node1&#45;&gt;Node22 -->
<g id="edge51" class="edge">
<title>Node1&#45;&gt;Node22</title>
<path fill="none" stroke="midnightblue" d="M354.85,-749.86C343.63,-723.89 328,-680.66 328,-641.5 328,-641.5 328,-641.5 328,-572.5 328,-533.85 328,-488.25 328,-465.66"/>
<polygon fill="midnightblue" stroke="midnightblue" points="351.76,-751.53 359.03,-759.24 358.15,-748.68 351.76,-751.53"/>
</g>
<!-- Node25 -->
<g id="node25" class="node">
<title>Node25</title>
<g id="a_node25"><a xlink:href="cluster__tree_8h_source.html" target="_top" xlink:title=" ">
<polygon fill="none" stroke="black" points="413.5,-692.5 413.5,-722.5 514.5,-722.5 514.5,-692.5 413.5,-692.5"/>
<text text-anchor="start" x="421.5" y="-710.5" font-family="Helvetica,sans-Serif" font-size="10.00">include/cluster_tree</text>
<text text-anchor="middle" x="464" y="-699.5" font-family="Helvetica,sans-Serif" font-size="10.00">/cluster_tree.h</text>
</a>
</g>
</g>
<!-- Node1&#45;&gt;Node25 -->
<g id="edge42" class="edge">
<title>Node1&#45;&gt;Node25</title>
<path fill="none" stroke="midnightblue" d="M395.8,-753.73C410.97,-743.68 429.04,-731.68 442.78,-722.58"/>
<polygon fill="midnightblue" stroke="midnightblue" points="393.66,-750.95 387.26,-759.4 397.53,-756.79 393.66,-750.95"/>
</g>
<!-- Node27 -->
<g id="node27" class="node">
<title>Node27</title>
<g id="a_node27"><a xlink:href="debug__tools_8cc.html" target="_top" xlink:title="Introduction of debug_tools.cc.">
<polygon fill="none" stroke="black" points="628.5,-692.5 628.5,-722.5 721.5,-722.5 721.5,-692.5 628.5,-692.5"/>
<text text-anchor="start" x="636.5" y="-710.5" font-family="Helvetica,sans-Serif" font-size="10.00">src/utilities/debug</text>
<text text-anchor="middle" x="675" y="-699.5" font-family="Helvetica,sans-Serif" font-size="10.00">_tools.cc</text>
</a>
</g>
</g>
<!-- Node1&#45;&gt;Node27 -->
<g id="edge52" class="edge">
<title>Node1&#45;&gt;Node27</title>
<path fill="none" stroke="midnightblue" d="M431.31,-760.8C481.39,-750.92 552.18,-736.64 614,-723 618.68,-721.97 623.55,-720.86 628.41,-719.74"/>
<polygon fill="midnightblue" stroke="midnightblue" points="430.4,-757.41 421.27,-762.78 431.76,-764.28 430.4,-757.41"/>
</g>
<!-- Node3 -->
<g id="node3" class="node">
<title>Node3</title>
<g id="a_node3"><a xlink:href="hmatrix_8h.html" target="_top" xlink:title="Definition of hierarchical matrix.">
<polygon fill="none" stroke="black" points="553,-502.5 553,-521.5 679,-521.5 679,-502.5 553,-502.5"/>
<text text-anchor="middle" x="616" y="-509.5" font-family="Helvetica,sans-Serif" font-size="10.00">include/hmatrix/hmatrix.h</text>
</a>
</g>
</g>
<!-- Node2&#45;&gt;Node3 -->
<g id="edge2" class="edge">
<title>Node2&#45;&gt;Node3</title>
<path fill="none" stroke="midnightblue" d="M475.28,-555.5C512,-544.41 558.38,-530.4 587.62,-521.57"/>
<polygon fill="midnightblue" stroke="midnightblue" points="474.25,-552.16 465.69,-558.4 476.27,-558.86 474.25,-552.16"/>
</g>
<!-- Node2&#45;&gt;Node12 -->
<g id="edge40" class="edge">
<title>Node2&#45;&gt;Node12</title>
<path fill="none" stroke="midnightblue" d="M355.04,-568.55C246.53,-558.02 38,-519.5 38,-379 38,-379 38,-379 38,-299 38,-235.49 84.72,-228.44 142,-201 194.93,-175.64 359.82,-160.65 448.38,-154.22"/>
<polygon fill="midnightblue" stroke="midnightblue" points="354.94,-572.06 365.22,-569.49 355.58,-565.09 354.94,-572.06"/>
</g>
<!-- Node2&#45;&gt;Node15 -->
<g id="edge41" class="edge">
<title>Node2&#45;&gt;Node15</title>
<path fill="none" stroke="midnightblue" d="M426.48,-548.45C436.7,-515.11 455.2,-452.86 468,-399 475.05,-369.32 481.39,-334.13 484.66,-315.04"/>
<polygon fill="midnightblue" stroke="midnightblue" points="423.07,-547.62 423.48,-558.21 429.76,-549.69 423.07,-547.62"/>
</g>
<!-- Node4 -->
<g id="node4" class="node">
<title>Node4</title>
<g id="a_node4"><a xlink:href="ddm__efield_8h.html" target="_top" xlink:title="Introduction of ddm_efield.h.">
<polygon fill="none" stroke="black" points="1393.5,-134.5 1393.5,-164.5 1498.5,-164.5 1498.5,-134.5 1393.5,-134.5"/>
<text text-anchor="start" x="1401.5" y="-152.5" font-family="Helvetica,sans-Serif" font-size="10.00">include/electric_field</text>
<text text-anchor="middle" x="1446" y="-141.5" font-family="Helvetica,sans-Serif" font-size="10.00">/ddm_efield.h</text>
</a>
</g>
</g>
<!-- Node3&#45;&gt;Node4 -->
<g id="edge3" class="edge">
<title>Node3&#45;&gt;Node4</title>
<path fill="none" stroke="midnightblue" d="M689.35,-509.56C928.91,-503.89 1673,-478.3 1673,-379 1673,-379 1673,-379 1673,-299 1673,-250.88 1663.74,-232.07 1627,-201 1591.01,-170.56 1537.98,-158.39 1498.61,-153.57"/>
<polygon fill="midnightblue" stroke="midnightblue" points="689.26,-506.06 679.35,-509.79 689.43,-513.06 689.26,-506.06"/>
</g>
<!-- Node5 -->
<g id="node5" class="node">
<title>Node5</title>
<g id="a_node5"><a xlink:href="subdomain__steklov__poincare__hmatrix_8h.html" target="_top" xlink:title="Introduction of subdomain_steklov_poincare_hmatrix.h.">
<polygon fill="none" stroke="black" points="1185,-357.5 1185,-398.5 1331,-398.5 1331,-357.5 1185,-357.5"/>
<text text-anchor="start" x="1193" y="-386.5" font-family="Helvetica,sans-Serif" font-size="10.00">include/electric_field</text>
<text text-anchor="start" x="1193" y="-375.5" font-family="Helvetica,sans-Serif" font-size="10.00">/subdomain_steklov_poincare</text>
<text text-anchor="middle" x="1258" y="-364.5" font-family="Helvetica,sans-Serif" font-size="10.00">_hmatrix.h</text>
</a>
</g>
</g>
<!-- Node3&#45;&gt;Node5 -->
<g id="edge4" class="edge">
<title>Node3&#45;&gt;Node5</title>
<path fill="none" stroke="midnightblue" d="M689.11,-508.33C832.6,-502.63 1140.96,-488 1184,-466 1213.13,-451.11 1235.45,-419.27 1247.64,-398.52"/>
<polygon fill="midnightblue" stroke="midnightblue" points="688.92,-504.83 679.07,-508.72 689.2,-511.83 688.92,-504.83"/>
</g>
<!-- Node3&#45;&gt;Node11 -->
<g id="edge15" class="edge">
<title>Node3&#45;&gt;Node11</title>
<path fill="none" stroke="midnightblue" d="M542.92,-510.53C469.7,-508.04 354.73,-498.61 261,-466 211.62,-448.82 160.89,-413.13 134.84,-393.22"/>
<polygon fill="midnightblue" stroke="midnightblue" points="542.87,-514.03 552.97,-510.83 543.08,-507.03 542.87,-514.03"/>
</g>
<!-- Node3&#45;&gt;Node12 -->
<g id="edge32" class="edge">
<title>Node3&#45;&gt;Node12</title>
<path fill="none" stroke="midnightblue" d="M612.52,-492.29C608.09,-466.78 601,-419.6 601,-379 601,-379 601,-379 601,-299 601,-254.63 606.61,-237.92 582,-201 571.37,-185.05 553.81,-172.9 538.24,-164.51"/>
<polygon fill="midnightblue" stroke="midnightblue" points="609.12,-493.17 614.34,-502.39 616.01,-491.93 609.12,-493.17"/>
</g>
<!-- Node3&#45;&gt;Node15 -->
<g id="edge33" class="edge">
<title>Node3&#45;&gt;Node15</title>
<path fill="none" stroke="midnightblue" d="M604.09,-493.92C598.57,-485.67 592.12,-475.51 587,-466 561.92,-419.39 568.08,-401.23 539,-357 528.65,-341.26 513.78,-325.75 502.59,-315.06"/>
<polygon fill="midnightblue" stroke="midnightblue" points="601.27,-496 609.8,-502.29 607.05,-492.05 601.27,-496"/>
</g>
<!-- Node19 -->
<g id="node19" class="node">
<title>Node19</title>
<g id="a_node19"><a xlink:href="hblockmatrix__skew__symm_8h.html" target="_top" xlink:title="Introduction of hblockmatrix_skew_symm.h.">
<polygon fill="none" stroke="black" points="629.5,-435.5 629.5,-465.5 770.5,-465.5 770.5,-435.5 629.5,-435.5"/>
<text text-anchor="start" x="637.5" y="-453.5" font-family="Helvetica,sans-Serif" font-size="10.00">include/hmatrix/hblockmatrix</text>
<text text-anchor="middle" x="700" y="-442.5" font-family="Helvetica,sans-Serif" font-size="10.00">_skew_symm.h</text>
</a>
</g>
</g>
<!-- Node3&#45;&gt;Node19 -->
<g id="edge25" class="edge">
<title>Node3&#45;&gt;Node19</title>
<path fill="none" stroke="midnightblue" d="M636.52,-496.47C649.82,-487.05 667.05,-474.84 680.2,-465.52"/>
<polygon fill="midnightblue" stroke="midnightblue" points="634.17,-493.84 628.04,-502.48 638.22,-499.55 634.17,-493.84"/>
</g>
<!-- Node20 -->
<g id="node20" class="node">
<title>Node20</title>
<g id="a_node20"><a xlink:href="hblockmatrix__skew__symm__preconditioner_8h.html" target="_top" xlink:title="Introduction of hblockmatrix_skew_symm_preconditioner.h.">
<polygon fill="none" stroke="black" points="789,-435.5 789,-465.5 999,-465.5 999,-435.5 789,-435.5"/>
<text text-anchor="start" x="797" y="-453.5" font-family="Helvetica,sans-Serif" font-size="10.00">include/hmatrix/preconditioner</text>
<text text-anchor="middle" x="894" y="-442.5" font-family="Helvetica,sans-Serif" font-size="10.00">/hblockmatrix_skew_symm_preconditioner.h</text>
</a>
</g>
</g>
<!-- Node3&#45;&gt;Node20 -->
<g id="edge27" class="edge">
<title>Node3&#45;&gt;Node20</title>
<path fill="none" stroke="midnightblue" d="M665.74,-500.35C711.18,-490.63 778.67,-476.18 828.48,-465.52"/>
<polygon fill="midnightblue" stroke="midnightblue" points="664.88,-496.96 655.83,-502.48 666.34,-503.8 664.88,-496.96"/>
</g>
<!-- Node21 -->
<g id="node21" class="node">
<title>Node21</title>
<g id="a_node21"><a xlink:href="hmatrix__symm__preconditioner_8h.html" target="_top" xlink:title="Symmetric &#45;matrix by inheriting from HMatrix, which is used as the preconditioner for SPD &#45;matrices.">
<polygon fill="none" stroke="black" points="1017,-435.5 1017,-465.5 1175,-465.5 1175,-435.5 1017,-435.5"/>
<text text-anchor="start" x="1025" y="-453.5" font-family="Helvetica,sans-Serif" font-size="10.00">include/hmatrix/preconditioner</text>
<text text-anchor="middle" x="1096" y="-442.5" font-family="Helvetica,sans-Serif" font-size="10.00">/hmatrix_symm_preconditioner.h</text>
</a>
</g>
</g>
<!-- Node3&#45;&gt;Node21 -->
<g id="edge29" class="edge">
<title>Node3&#45;&gt;Node21</title>
<path fill="none" stroke="midnightblue" d="M689.58,-503.64C768.46,-495.5 897.3,-481.47 1008,-466 1010.91,-465.59 1013.88,-465.17 1016.87,-464.73"/>
<polygon fill="midnightblue" stroke="midnightblue" points="688.85,-500.2 679.26,-504.7 689.57,-507.16 688.85,-500.2"/>
</g>
<!-- Node3&#45;&gt;Node22 -->
<g id="edge34" class="edge">
<title>Node3&#45;&gt;Node22</title>
<path fill="none" stroke="midnightblue" d="M564.77,-500.42C514.66,-490.06 438.47,-474.32 386.12,-463.51"/>
<polygon fill="midnightblue" stroke="midnightblue" points="564.24,-503.88 574.74,-502.48 565.65,-497.02 564.24,-503.88"/>
</g>
<!-- Node5&#45;&gt;Node4 -->
<g id="edge5" class="edge">
<title>Node5&#45;&gt;Node4</title>
<path fill="none" stroke="midnightblue" d="M1214.11,-351.1C1204.01,-342.85 1194.6,-332.76 1189,-321 1180.97,-304.15 1180.47,-295.6 1189,-279 1228.11,-202.91 1330.16,-171.1 1393.27,-158.39"/>
<polygon fill="midnightblue" stroke="midnightblue" points="1212.22,-354.06 1222.3,-357.32 1216.45,-348.48 1212.22,-354.06"/>
</g>
<!-- Node6 -->
<g id="node6" class="node">
<title>Node6</title>
<g id="a_node6"><a xlink:href="ddm__efield__matrix_8h.html" target="_top" xlink:title="Introduction of ddm_efield_matrix.h.">
<polygon fill="none" stroke="black" points="1306.5,-207 1306.5,-237 1413.5,-237 1413.5,-207 1306.5,-207"/>
<text text-anchor="start" x="1314.5" y="-225" font-family="Helvetica,sans-Serif" font-size="10.00">include/electric_field</text>
<text text-anchor="middle" x="1360" y="-214" font-family="Helvetica,sans-Serif" font-size="10.00">/ddm_efield_matrix.h</text>
</a>
</g>
</g>
<!-- Node5&#45;&gt;Node6 -->
<g id="edge6" class="edge">
<title>Node5&#45;&gt;Node6</title>
<path fill="none" stroke="midnightblue" d="M1298.34,-351.21C1309.19,-342.68 1320.09,-332.42 1328,-321 1346.24,-294.66 1354.62,-257.24 1358.01,-237.12"/>
<polygon fill="midnightblue" stroke="midnightblue" points="1296.01,-348.58 1290.11,-357.38 1300.21,-354.18 1296.01,-348.58"/>
</g>
<!-- Node7 -->
<g id="node7" class="node">
<title>Node7</title>
<g id="a_node7"><a xlink:href="subdomain__hmatrix__for__charge__neutrality__eqn_8h.html" target="_top" xlink:title="Introduction of subdomain_hmatrix_for_charge_neutrality_eqn.h.">
<polygon fill="none" stroke="black" points="1375.5,-279.5 1375.5,-320.5 1500.5,-320.5 1500.5,-279.5 1375.5,-279.5"/>
<text text-anchor="start" x="1383.5" y="-308.5" font-family="Helvetica,sans-Serif" font-size="10.00">include/electric_field</text>
<text text-anchor="start" x="1383.5" y="-297.5" font-family="Helvetica,sans-Serif" font-size="10.00">/subdomain_hmatrix_for</text>
<text text-anchor="middle" x="1438" y="-286.5" font-family="Helvetica,sans-Serif" font-size="10.00">_charge_neutrality_eqn.h</text>
</a>
</g>
</g>
<!-- Node5&#45;&gt;Node7 -->
<g id="edge8" class="edge">
<title>Node5&#45;&gt;Node7</title>
<path fill="none" stroke="midnightblue" d="M1313.73,-353.47C1338.78,-342.89 1368,-330.56 1391.8,-320.51"/>
<polygon fill="midnightblue" stroke="midnightblue" points="1312.21,-350.31 1304.35,-357.43 1314.93,-356.76 1312.21,-350.31"/>
</g>
<!-- Node8 -->
<g id="node8" class="node">
<title>Node8</title>
<g id="a_node8"><a xlink:href="subdomain__hmatrix__for__global__preconditioning_8h.html" target="_top" xlink:title="Introduction of subdomain_hmatrix_for_global_preconditioning.h.">
<polygon fill="none" stroke="black" points="1519,-279.5 1519,-320.5 1645,-320.5 1645,-279.5 1519,-279.5"/>
<text text-anchor="start" x="1527" y="-308.5" font-family="Helvetica,sans-Serif" font-size="10.00">include/electric_field</text>
<text text-anchor="start" x="1527" y="-297.5" font-family="Helvetica,sans-Serif" font-size="10.00">/subdomain_hmatrix_for</text>
<text text-anchor="middle" x="1582" y="-286.5" font-family="Helvetica,sans-Serif" font-size="10.00">_global_preconditioning.h</text>
</a>
</g>
</g>
<!-- Node5&#45;&gt;Node8 -->
<g id="edge10" class="edge">
<title>Node5&#45;&gt;Node8</title>
<path fill="none" stroke="midnightblue" d="M1340.99,-359.7C1390.26,-349.15 1453.86,-335.02 1510,-321 1512.89,-320.28 1515.85,-319.52 1518.83,-318.75"/>
<polygon fill="midnightblue" stroke="midnightblue" points="1340.07,-356.32 1331.02,-361.83 1341.53,-363.16 1340.07,-356.32"/>
</g>
<!-- Node10 -->
<g id="node10" class="node">
<title>Node10</title>
<g id="a_node10"><a xlink:href="subdomain__hmatrix__for__transmission__eqn_8h.html" target="_top" xlink:title="Introduction of subdomain_hmatrix_for_transmission_eqn.h.">
<polygon fill="none" stroke="black" points="1197.5,-279.5 1197.5,-320.5 1318.5,-320.5 1318.5,-279.5 1197.5,-279.5"/>
<text text-anchor="start" x="1205.5" y="-308.5" font-family="Helvetica,sans-Serif" font-size="10.00">include/electric_field</text>
<text text-anchor="start" x="1205.5" y="-297.5" font-family="Helvetica,sans-Serif" font-size="10.00">/subdomain_hmatrix_for</text>
<text text-anchor="middle" x="1258" y="-286.5" font-family="Helvetica,sans-Serif" font-size="10.00">_transmission_eqn.h</text>
</a>
</g>
</g>
<!-- Node5&#45;&gt;Node10 -->
<g id="edge13" class="edge">
<title>Node5&#45;&gt;Node10</title>
<path fill="none" stroke="midnightblue" d="M1258,-347.3C1258,-338.3 1258,-328.65 1258,-320.51"/>
<polygon fill="midnightblue" stroke="midnightblue" points="1254.5,-347.43 1258,-357.43 1261.5,-347.43 1254.5,-347.43"/>
</g>
<!-- Node6&#45;&gt;Node4 -->
<g id="edge7" class="edge">
<title>Node6&#45;&gt;Node4</title>
<path fill="none" stroke="midnightblue" d="M1385.27,-200.29C1399.32,-188.77 1416.44,-174.73 1428.92,-164.5"/>
<polygon fill="midnightblue" stroke="midnightblue" points="1382.92,-197.69 1377.4,-206.73 1387.36,-203.1 1382.92,-197.69"/>
</g>
<!-- Node7&#45;&gt;Node6 -->
<g id="edge9" class="edge">
<title>Node7&#45;&gt;Node6</title>
<path fill="none" stroke="midnightblue" d="M1410.62,-272.32C1398.49,-260.51 1384.72,-247.08 1374.6,-237.23"/>
<polygon fill="midnightblue" stroke="midnightblue" points="1408.31,-274.96 1417.91,-279.43 1413.19,-269.94 1408.31,-274.96"/>
</g>
<!-- Node9 -->
<g id="node9" class="node">
<title>Node9</title>
<g id="a_node9"><a xlink:href="ddm__efield__global__preconditioner_8h.html" target="_top" xlink:title="Introduction of ddm_efield_global_preconditioner.h.">
<polygon fill="none" stroke="black" points="1446,-207 1446,-237 1618,-237 1618,-207 1446,-207"/>
<text text-anchor="start" x="1454" y="-225" font-family="Helvetica,sans-Serif" font-size="10.00">include/electric_field</text>
<text text-anchor="middle" x="1532" y="-214" font-family="Helvetica,sans-Serif" font-size="10.00">/ddm_efield_global_preconditioner.h</text>
</a>
</g>
</g>
<!-- Node8&#45;&gt;Node9 -->
<g id="edge11" class="edge">
<title>Node8&#45;&gt;Node9</title>
<path fill="none" stroke="midnightblue" d="M1563.57,-270.98C1556.01,-259.5 1547.6,-246.71 1541.36,-237.23"/>
<polygon fill="midnightblue" stroke="midnightblue" points="1560.7,-273 1569.12,-279.43 1566.55,-269.15 1560.7,-273"/>
</g>
<!-- Node9&#45;&gt;Node4 -->
<g id="edge12" class="edge">
<title>Node9&#45;&gt;Node4</title>
<path fill="none" stroke="midnightblue" d="M1506.73,-200.29C1492.68,-188.77 1475.56,-174.73 1463.08,-164.5"/>
<polygon fill="midnightblue" stroke="midnightblue" points="1504.64,-203.1 1514.6,-206.73 1509.08,-197.69 1504.64,-203.1"/>
</g>
<!-- Node10&#45;&gt;Node6 -->
<g id="edge14" class="edge">
<title>Node10&#45;&gt;Node6</title>
<path fill="none" stroke="midnightblue" d="M1292.46,-273.32C1308.64,-261.27 1327.3,-247.36 1340.91,-237.23"/>
<polygon fill="midnightblue" stroke="midnightblue" points="1290.2,-270.65 1284.27,-279.43 1294.38,-276.26 1290.2,-270.65"/>
</g>
<!-- Node11&#45;&gt;Node12 -->
<g id="edge16" class="edge">
<title>Node11&#45;&gt;Node12</title>
<path fill="none" stroke="midnightblue" d="M109.77,-353.05C104.9,-332 101.54,-301.31 115,-279 153.41,-215.34 193.03,-226.14 263,-201 324.43,-178.92 398.26,-165.29 448.29,-157.84"/>
<polygon fill="midnightblue" stroke="midnightblue" points="106.4,-354.01 112.3,-362.81 113.18,-352.26 106.4,-354.01"/>
</g>
<!-- Node11&#45;&gt;Node15 -->
<g id="edge19" class="edge">
<title>Node11&#45;&gt;Node15</title>
<path fill="none" stroke="midnightblue" d="M165.61,-359.89C169.11,-358.85 172.6,-357.88 176,-357 260.07,-335.31 359.04,-319.04 422.37,-309.77"/>
<polygon fill="midnightblue" stroke="midnightblue" points="164.3,-356.63 155.79,-362.94 166.38,-363.32 164.3,-356.63"/>
</g>
<!-- Node18 -->
<g id="node18" class="node">
<title>Node18</title>
<g id="a_node18"><a xlink:href="aca__plus_8cu_source.html" target="_top" xlink:title=" ">
<polygon fill="none" stroke="black" points="124.5,-285 124.5,-315 231.5,-315 231.5,-285 124.5,-285"/>
<text text-anchor="start" x="132.5" y="-303" font-family="Helvetica,sans-Serif" font-size="10.00">src/hmatrix/aca_plus</text>
<text text-anchor="middle" x="178" y="-292" font-family="Helvetica,sans-Serif" font-size="10.00">/aca_plus.cu</text>
</a>
</g>
</g>
<!-- Node11&#45;&gt;Node18 -->
<g id="edge24" class="edge">
<title>Node11&#45;&gt;Node18</title>
<path fill="none" stroke="midnightblue" d="M134.81,-354.81C145.07,-342.03 157.65,-326.36 166.58,-315.23"/>
<polygon fill="midnightblue" stroke="midnightblue" points="132,-352.72 128.47,-362.7 137.46,-357.1 132,-352.72"/>
</g>
<!-- Node13 -->
<g id="node13" class="node">
<title>Node13</title>
<g id="a_node13"><a xlink:href="laplace__bem_8impl_8hcu_source.html" target="_top" xlink:title=" ">
<polygon fill="none" stroke="black" points="448.5,-67.5 448.5,-97.5 563.5,-97.5 563.5,-67.5 448.5,-67.5"/>
<text text-anchor="start" x="456.5" y="-85.5" font-family="Helvetica,sans-Serif" font-size="10.00">include/laplace/laplace</text>
<text text-anchor="middle" x="506" y="-74.5" font-family="Helvetica,sans-Serif" font-size="10.00">_bem.impl.hcu</text>
</a>
</g>
</g>
<!-- Node12&#45;&gt;Node13 -->
<g id="edge17" class="edge">
<title>Node12&#45;&gt;Node13</title>
<path fill="none" stroke="midnightblue" d="M506,-124.11C506,-115.15 506,-105.32 506,-97.58"/>
<polygon fill="midnightblue" stroke="midnightblue" points="502.5,-124.4 506,-134.4 509.5,-124.4 502.5,-124.4"/>
</g>
<!-- Node14 -->
<g id="node14" class="node">
<title>Node14</title>
<g id="a_node14"><a xlink:href="laplace__bem_8cu_source.html" target="_top" xlink:title=" ">
<polygon fill="none" stroke="black" points="457,-0.5 457,-30.5 555,-30.5 555,-0.5 457,-0.5"/>
<text text-anchor="start" x="465" y="-18.5" font-family="Helvetica,sans-Serif" font-size="10.00">src/laplace/laplace</text>
<text text-anchor="middle" x="506" y="-7.5" font-family="Helvetica,sans-Serif" font-size="10.00">_bem.cu</text>
</a>
</g>
</g>
<!-- Node13&#45;&gt;Node14 -->
<g id="edge18" class="edge">
<title>Node13&#45;&gt;Node14</title>
<path fill="none" stroke="midnightblue" d="M506,-57.11C506,-48.15 506,-38.32 506,-30.58"/>
<polygon fill="midnightblue" stroke="midnightblue" points="502.5,-57.4 506,-67.4 509.5,-57.4 502.5,-57.4"/>
</g>
<!-- Node16 -->
<g id="node16" class="node">
<title>Node16</title>
<g id="a_node16"><a xlink:href="preconditioner__for__laplace__dirichlet_8h.html" target="_top" xlink:title=" ">
<polygon fill="none" stroke="black" points="439.5,-201.5 439.5,-242.5 572.5,-242.5 572.5,-201.5 439.5,-201.5"/>
<text text-anchor="start" x="447.5" y="-230.5" font-family="Helvetica,sans-Serif" font-size="10.00">include/preconditioners</text>
<text text-anchor="start" x="447.5" y="-219.5" font-family="Helvetica,sans-Serif" font-size="10.00">/preconditioner_for_laplace</text>
<text text-anchor="middle" x="506" y="-208.5" font-family="Helvetica,sans-Serif" font-size="10.00">_dirichlet.h</text>
</a>
</g>
</g>
<!-- Node15&#45;&gt;Node16 -->
<g id="edge20" class="edge">
<title>Node15&#45;&gt;Node16</title>
<path fill="none" stroke="midnightblue" d="M493,-274.98C495.61,-264.58 498.61,-252.55 501.08,-242.68"/>
<polygon fill="midnightblue" stroke="midnightblue" points="489.6,-274.15 490.57,-284.7 496.39,-275.85 489.6,-274.15"/>
</g>
<!-- Node17 -->
<g id="node17" class="node">
<title>Node17</title>
<g id="a_node17"><a xlink:href="preconditioner__for__laplace__neumann_8h.html" target="_top" xlink:title=" ">
<polygon fill="none" stroke="black" points="288.5,-201.5 288.5,-242.5 421.5,-242.5 421.5,-201.5 288.5,-201.5"/>
<text text-anchor="start" x="296.5" y="-230.5" font-family="Helvetica,sans-Serif" font-size="10.00">include/preconditioners</text>
<text text-anchor="start" x="296.5" y="-219.5" font-family="Helvetica,sans-Serif" font-size="10.00">/preconditioner_for_laplace</text>
<text text-anchor="middle" x="355" y="-208.5" font-family="Helvetica,sans-Serif" font-size="10.00">_neumann.h</text>
</a>
</g>
</g>
<!-- Node15&#45;&gt;Node17 -->
<g id="edge22" class="edge">
<title>Node15&#45;&gt;Node17</title>
<path fill="none" stroke="midnightblue" d="M453.57,-279.75C433.93,-268.44 409.14,-254.17 389.34,-242.77"/>
<polygon fill="midnightblue" stroke="midnightblue" points="452.07,-282.93 462.48,-284.88 455.56,-276.86 452.07,-282.93"/>
</g>
<!-- Node16&#45;&gt;Node12 -->
<g id="edge21" class="edge">
<title>Node16&#45;&gt;Node12</title>
<path fill="none" stroke="midnightblue" d="M506,-191.08C506,-182.01 506,-172.45 506,-164.89"/>
<polygon fill="midnightblue" stroke="midnightblue" points="502.5,-191.36 506,-201.36 509.5,-191.36 502.5,-191.36"/>
</g>
<!-- Node17&#45;&gt;Node12 -->
<g id="edge23" class="edge">
<title>Node17&#45;&gt;Node12</title>
<path fill="none" stroke="midnightblue" d="M406.37,-197.02C429.42,-186.25 455.82,-173.93 475.65,-164.67"/>
<polygon fill="midnightblue" stroke="midnightblue" points="404.64,-193.96 397.06,-201.36 407.6,-200.3 404.64,-193.96"/>
</g>
<!-- Node19&#45;&gt;Node12 -->
<g id="edge26" class="edge">
<title>Node19&#45;&gt;Node12</title>
<path fill="none" stroke="midnightblue" d="M697.98,-425.36C692.73,-376.99 674.6,-267.16 615,-201 599.72,-184.03 577.56,-172.34 557.22,-164.52"/>
<polygon fill="midnightblue" stroke="midnightblue" points="694.52,-425.89 698.99,-435.5 701.48,-425.2 694.52,-425.89"/>
</g>
<!-- Node20&#45;&gt;Node12 -->
<g id="edge28" class="edge">
<title>Node20&#45;&gt;Node12</title>
<path fill="none" stroke="midnightblue" d="M877.05,-427.17C839.72,-379.38 745.52,-266.24 643,-201 617.66,-184.87 586.42,-172.85 560.18,-164.6"/>
<polygon fill="midnightblue" stroke="midnightblue" points="874.46,-429.54 883.35,-435.31 880,-425.26 874.46,-429.54"/>
</g>
<!-- Node21&#45;&gt;Node5 -->
<g id="edge30" class="edge">
<title>Node21&#45;&gt;Node5</title>
<path fill="none" stroke="midnightblue" d="M1137.59,-431.4C1160.7,-421.34 1189.47,-408.83 1213.08,-398.55"/>
<polygon fill="midnightblue" stroke="midnightblue" points="1136.17,-428.2 1128.39,-435.4 1138.96,-434.62 1136.17,-428.2"/>
</g>
<!-- Node21&#45;&gt;Node12 -->
<g id="edge31" class="edge">
<title>Node21&#45;&gt;Node12</title>
<path fill="none" stroke="midnightblue" d="M1068.57,-429.29C1004.51,-382.91 838.78,-267.73 685,-201 645.9,-184.03 599.53,-171.14 563.79,-162.63"/>
<polygon fill="midnightblue" stroke="midnightblue" points="1066.78,-432.31 1076.92,-435.36 1070.9,-426.65 1066.78,-432.31"/>
</g>
<!-- Node22&#45;&gt;Node11 -->
<g id="edge38" class="edge">
<title>Node22&#45;&gt;Node11</title>
<path fill="none" stroke="midnightblue" d="M275.76,-432.23C246.43,-422.51 209.16,-410.13 176,-399 170.26,-397.07 164.2,-395.03 158.25,-393.02"/>
<polygon fill="midnightblue" stroke="midnightblue" points="274.8,-435.6 285.39,-435.42 277,-428.95 274.8,-435.6"/>
</g>
<!-- Node23 -->
<g id="node23" class="node">
<title>Node23</title>
<g id="a_node23"><a xlink:href="bem__general_8hcu_source.html" target="_top" xlink:title=" ">
<polygon fill="none" stroke="black" points="313,-368.5 313,-387.5 459,-387.5 459,-368.5 313,-368.5"/>
<text text-anchor="middle" x="386" y="-375.5" font-family="Helvetica,sans-Serif" font-size="10.00">include/bem/bem_general.hcu</text>
</a>
</g>
</g>
<!-- Node22&#45;&gt;Node23 -->
<g id="edge35" class="edge">
<title>Node22&#45;&gt;Node23</title>
<path fill="none" stroke="midnightblue" d="M346.19,-427.38C357.18,-414.04 370.57,-397.76 378.68,-387.89"/>
<polygon fill="midnightblue" stroke="midnightblue" points="343.39,-425.29 339.74,-435.23 348.79,-429.73 343.39,-425.29"/>
</g>
<!-- Node24 -->
<g id="node24" class="node">
<title>Node24</title>
<g id="a_node24"><a xlink:href="sauter__quadrature_8cu_source.html" target="_top" xlink:title=" ">
<polygon fill="none" stroke="black" points="185.5,-363 185.5,-393 294.5,-393 294.5,-363 185.5,-363"/>
<text text-anchor="start" x="193.5" y="-381" font-family="Helvetica,sans-Serif" font-size="10.00">src/quadrature/sauter</text>
<text text-anchor="middle" x="240" y="-370" font-family="Helvetica,sans-Serif" font-size="10.00">_quadrature.cu</text>
</a>
</g>
</g>
<!-- Node22&#45;&gt;Node24 -->
<g id="edge39" class="edge">
<title>Node22&#45;&gt;Node24</title>
<path fill="none" stroke="midnightblue" d="M302.15,-428.79C287.76,-417.27 270.25,-403.23 257.48,-393"/>
<polygon fill="midnightblue" stroke="midnightblue" points="300.2,-431.71 310.19,-435.23 304.58,-426.25 300.2,-431.71"/>
</g>
<!-- Node23&#45;&gt;Node12 -->
<g id="edge36" class="edge">
<title>Node23&#45;&gt;Node12</title>
<path fill="none" stroke="midnightblue" d="M365.14,-362.46C322.87,-331.25 234.72,-256.21 279,-201 299.84,-175.02 388.12,-161.55 448.24,-155.26"/>
<polygon fill="midnightblue" stroke="midnightblue" points="363.25,-365.41 373.4,-368.43 367.35,-359.74 363.25,-365.41"/>
</g>
<!-- Node23&#45;&gt;Node15 -->
<g id="edge37" class="edge">
<title>Node23&#45;&gt;Node15</title>
<path fill="none" stroke="midnightblue" d="M405.73,-362.15C423.87,-348.5 450.58,-328.4 468.37,-315.02"/>
<polygon fill="midnightblue" stroke="midnightblue" points="403.47,-359.47 397.59,-368.28 407.68,-365.07 403.47,-359.47"/>
</g>
<!-- Node25&#45;&gt;Node2 -->
<g id="edge46" class="edge">
<title>Node25&#45;&gt;Node2</title>
<path fill="none" stroke="midnightblue" d="M441.38,-684.85C434.18,-676.57 427.04,-666.55 423,-656 414.44,-633.64 415.44,-605.28 417.11,-588.59"/>
<polygon fill="midnightblue" stroke="midnightblue" points="438.85,-687.27 448.21,-692.23 443.99,-682.52 438.85,-687.27"/>
</g>
<!-- Node25&#45;&gt;Node12 -->
<g id="edge47" class="edge">
<title>Node25&#45;&gt;Node12</title>
<path fill="none" stroke="midnightblue" d="M524.66,-695.53C683.41,-665.47 1104.34,-576.59 1184,-466 1220.8,-414.92 1184.95,-362.46 741,-201 682.37,-179.68 612.07,-166.04 563.73,-158.38"/>
<polygon fill="midnightblue" stroke="midnightblue" points="523.77,-692.14 514.59,-697.43 525.06,-699.02 523.77,-692.14"/>
</g>
<!-- Node26 -->
<g id="node26" class="node">
<title>Node26</title>
<g id="a_node26"><a xlink:href="block__cluster_8h.html" target="_top" xlink:title="Implementation of the class BlockCluster.">
<polygon fill="none" stroke="black" points="432.5,-625.5 432.5,-655.5 533.5,-655.5 533.5,-625.5 432.5,-625.5"/>
<text text-anchor="start" x="440.5" y="-643.5" font-family="Helvetica,sans-Serif" font-size="10.00">include/cluster_tree</text>
<text text-anchor="middle" x="483" y="-632.5" font-family="Helvetica,sans-Serif" font-size="10.00">/block_cluster.h</text>
</a>
</g>
</g>
<!-- Node25&#45;&gt;Node26 -->
<g id="edge43" class="edge">
<title>Node25&#45;&gt;Node26</title>
<path fill="none" stroke="midnightblue" d="M470.96,-682.7C473.62,-673.59 476.57,-663.49 478.89,-655.58"/>
<polygon fill="midnightblue" stroke="midnightblue" points="467.57,-681.82 468.12,-692.4 474.29,-683.78 467.57,-681.82"/>
</g>
<!-- Node26&#45;&gt;Node2 -->
<g id="edge44" class="edge">
<title>Node26&#45;&gt;Node2</title>
<path fill="none" stroke="midnightblue" d="M461.85,-618.02C452.32,-608.34 441.33,-597.17 432.86,-588.58"/>
<polygon fill="midnightblue" stroke="midnightblue" points="459.6,-620.73 469.11,-625.4 464.59,-615.81 459.6,-620.73"/>
</g>
<!-- Node26&#45;&gt;Node3 -->
<g id="edge45" class="edge">
<title>Node26&#45;&gt;Node3</title>
<path fill="none" stroke="midnightblue" d="M505.12,-618.46C534.73,-590.3 585.91,-541.62 606.76,-521.79"/>
<polygon fill="midnightblue" stroke="midnightblue" points="502.58,-616.05 497.74,-625.48 507.4,-621.12 502.58,-616.05"/>
</g>
</g>
</svg>
