<?xml version="1.0" encoding="UTF-8" standalone="no"?>
<!DOCTYPE svg PUBLIC "-//W3C//DTD SVG 1.1//EN"
 "http://www.w3.org/Graphics/SVG/1.1/DTD/svg11.dtd">
<!-- Generated by graphviz version 2.43.0 (0)
 -->
<!-- Title: include/dofs Pages: 1 -->
<svg width="246pt" height="167pt"
 viewBox="0.00 0.00 246.00 167.00" xmlns="http://www.w3.org/2000/svg" xmlns:xlink="http://www.w3.org/1999/xlink">
<g id="graph0" class="graph" transform="scale(1 1) rotate(0) translate(4 163)">
<title>include/dofs</title>
<g id="clust1" class="cluster">
<title>clusterdir_d44c64559bbebec7f509842c48db8b23</title>
<g id="a_clust1"><a xlink:href="dir_d44c64559bbebec7f509842c48db8b23.html" target="_top" xlink:title="include">
<polygon fill="#edf0f7" stroke="#404040" stroke-dasharray="5,2" points="8,-8 8,-151 230,-151 230,-8 8,-8"/>
<text text-anchor="middle" x="119" y="-139" font-family="Helvetica,sans-Serif" font-size="10.00">include</text>
</a>
</g>
</g>
<!-- dir_42a9eb6f13df650b43af55a829870369 -->
<g id="node1" class="node">
<title>dir_42a9eb6f13df650b43af55a829870369</title>
<g id="a_node1"><a xlink:href="dir_42a9eb6f13df650b43af55a829870369.html" target="_top" xlink:title="mapping">
<polygon fill="#a2b4d6" stroke="#404040" points="70,-52 16,-52 16,-16 70,-16 70,-52"/>
<text text-anchor="middle" x="43" y="-31.5" font-family="Helvetica,sans-Serif" font-size="10.00">mapping</text>
</a>
</g>
</g>
<!-- dir_509f74910bec4b2b67f21f41f4e57f4f -->
<g id="node2" class="node">
<title>dir_509f74910bec4b2b67f21f41f4e57f4f</title>
<g id="a_node2"><a xlink:href="dir_509f74910bec4b2b67f21f41f4e57f4f.html" target="_top" xlink:title="cad_mesh">
<polygon fill="#a2b4d6" stroke="#404040" points="150,-52 88,-52 88,-16 150,-16 150,-52"/>
<text text-anchor="middle" x="119" y="-31.5" font-family="Helvetica,sans-Serif" font-size="10.00">cad_mesh</text>
</a>
</g>
</g>
<!-- dir_578470d43e13ad95c6c96d14923f0ef8 -->
<g id="node3" class="node">
<title>dir_578470d43e13ad95c6c96d14923f0ef8</title>
<g id="a_node3"><a xlink:href="dir_578470d43e13ad95c6c96d14923f0ef8.html" target="_top" xlink:title="bem">
<polygon fill="#a2b4d6" stroke="#404040" points="222,-52 168,-52 168,-16 222,-16 222,-52"/>
<text text-anchor="middle" x="195" y="-31.5" font-family="Helvetica,sans-Serif" font-size="10.00">bem</text>
</a>
</g>
</g>
<!-- dir_bbd6930a6209f6ec6094d0efecdaec40 -->
<g id="node4" class="node">
<title>dir_bbd6930a6209f6ec6094d0efecdaec40</title>
<g id="a_node4"><a xlink:href="dir_bbd6930a6209f6ec6094d0efecdaec40.html" target="_top" xlink:title="dofs">
<polygon fill="#edf0f7" stroke="#404040" stroke-width="2" points="146,-124 92,-124 92,-88 146,-88 146,-124"/>
<text text-anchor="middle" x="119" y="-103.5" font-family="Helvetica,sans-Serif" font-size="10.00">dofs</text>
</a>
</g>
</g>
<!-- dir_bbd6930a6209f6ec6094d0efecdaec40&#45;&gt;dir_42a9eb6f13df650b43af55a829870369 -->
<g id="edge1" class="edge">
<title>dir_bbd6930a6209f6ec6094d0efecdaec40&#45;&gt;dir_42a9eb6f13df650b43af55a829870369</title>
<path fill="none" stroke="black" d="M100.21,-87.7C90.83,-79.05 79.32,-68.45 69.09,-59.03"/>
<polygon fill="black" stroke="black" points="71.3,-56.3 61.57,-52.1 66.55,-61.45 71.3,-56.3"/>
<g id="a_edge1&#45;headlabel"><a xlink:href="dir_000007_000018.html" target="_top" xlink:title="1">
<text text-anchor="middle" x="75.86" y="-54.15" font-family="Helvetica,sans-Serif" font-size="10.00">1</text>
</a>
</g>
</g>
<!-- dir_bbd6930a6209f6ec6094d0efecdaec40&#45;&gt;dir_509f74910bec4b2b67f21f41f4e57f4f -->
<g id="edge2" class="edge">
<title>dir_bbd6930a6209f6ec6094d0efecdaec40&#45;&gt;dir_509f74910bec4b2b67f21f41f4e57f4f</title>
<path fill="none" stroke="black" d="M119,-87.7C119,-79.98 119,-70.71 119,-62.11"/>
<polygon fill="black" stroke="black" points="122.5,-62.1 119,-52.1 115.5,-62.1 122.5,-62.1"/>
<g id="a_edge2&#45;headlabel"><a xlink:href="dir_000007_000004.html" target="_top" xlink:title="1">
<text text-anchor="middle" x="125.34" y="-63.2" font-family="Helvetica,sans-Serif" font-size="10.00">1</text>
</a>
</g>
</g>
<!-- dir_bbd6930a6209f6ec6094d0efecdaec40&#45;&gt;dir_578470d43e13ad95c6c96d14923f0ef8 -->
<g id="edge3" class="edge">
<title>dir_bbd6930a6209f6ec6094d0efecdaec40&#45;&gt;dir_578470d43e13ad95c6c96d14923f0ef8</title>
<path fill="none" stroke="black" d="M137.79,-87.7C147.17,-79.05 158.68,-68.45 168.91,-59.03"/>
<polygon fill="black" stroke="black" points="171.45,-61.45 176.43,-52.1 166.7,-56.3 171.45,-61.45"/>
<g id="a_edge3&#45;headlabel"><a xlink:href="dir_000007_000002.html" target="_top" xlink:title="1">
<text text-anchor="middle" x="170.72" y="-63.48" font-family="Helvetica,sans-Serif" font-size="10.00">1</text>
</a>
</g>
</g>
</g>
</svg>
