<?xml version="1.0" encoding="UTF-8" standalone="no"?>
<!DOCTYPE svg PUBLIC "-//W3C//DTD SVG 1.1//EN"
 "http://www.w3.org/Graphics/SVG/1.1/DTD/svg11.dtd">
<!-- Generated by graphviz version 2.43.0 (0)
 -->
<!-- Title: include/preconditioners Pages: 1 -->
<svg width="732pt" height="167pt"
 viewBox="0.00 0.00 732.00 167.00" xmlns="http://www.w3.org/2000/svg" xmlns:xlink="http://www.w3.org/1999/xlink">
<g id="graph0" class="graph" transform="scale(1 1) rotate(0) translate(4 163)">
<title>include/preconditioners</title>
<g id="clust1" class="cluster">
<title>clusterdir_d44c64559bbebec7f509842c48db8b23</title>
<g id="a_clust1"><a xlink:href="dir_d44c64559bbebec7f509842c48db8b23.html" target="_top" xlink:title="include">
<polygon fill="#edf0f7" stroke="#404040" stroke-dasharray="5,2" points="8,-8 8,-151 716,-151 716,-8 8,-8"/>
<text text-anchor="middle" x="362" y="-139" font-family="Helvetica,sans-Serif" font-size="10.00">include</text>
</a>
</g>
</g>
<!-- dir_1a340114eb71db3602cc17616084b5ee -->
<g id="node1" class="node">
<title>dir_1a340114eb71db3602cc17616084b5ee</title>
<g id="a_node1"><a xlink:href="dir_1a340114eb71db3602cc17616084b5ee.html" target="_top" xlink:title="platform_shared">
<polygon fill="#a2b4d6" stroke="#404040" points="102,-52 16,-52 16,-16 102,-16 102,-52"/>
<text text-anchor="middle" x="59" y="-31.5" font-family="Helvetica,sans-Serif" font-size="10.00">platform_shared</text>
</a>
</g>
</g>
<!-- dir_21460df64e31324d846fd5404a1e25ce -->
<g id="node2" class="node">
<title>dir_21460df64e31324d846fd5404a1e25ce</title>
<g id="a_node2"><a xlink:href="dir_21460df64e31324d846fd5404a1e25ce.html" target="_top" xlink:title="quadrature">
<polygon fill="#a2b4d6" stroke="#404040" points="182,-52 120,-52 120,-16 182,-16 182,-52"/>
<text text-anchor="middle" x="151" y="-31.5" font-family="Helvetica,sans-Serif" font-size="10.00">quadrature</text>
</a>
</g>
</g>
<!-- dir_42a9eb6f13df650b43af55a829870369 -->
<g id="node3" class="node">
<title>dir_42a9eb6f13df650b43af55a829870369</title>
<g id="a_node3"><a xlink:href="dir_42a9eb6f13df650b43af55a829870369.html" target="_top" xlink:title="mapping">
<polygon fill="#a2b4d6" stroke="#404040" points="254,-52 200,-52 200,-16 254,-16 254,-52"/>
<text text-anchor="middle" x="227" y="-31.5" font-family="Helvetica,sans-Serif" font-size="10.00">mapping</text>
</a>
</g>
</g>
<!-- dir_509f74910bec4b2b67f21f41f4e57f4f -->
<g id="node4" class="node">
<title>dir_509f74910bec4b2b67f21f41f4e57f4f</title>
<g id="a_node4"><a xlink:href="dir_509f74910bec4b2b67f21f41f4e57f4f.html" target="_top" xlink:title="cad_mesh">
<polygon fill="#a2b4d6" stroke="#404040" points="334,-52 272,-52 272,-16 334,-16 334,-52"/>
<text text-anchor="middle" x="303" y="-31.5" font-family="Helvetica,sans-Serif" font-size="10.00">cad_mesh</text>
</a>
</g>
</g>
<!-- dir_52b4106b6168f13dcdf82e33b1d195ee -->
<g id="node5" class="node">
<title>dir_52b4106b6168f13dcdf82e33b1d195ee</title>
<g id="a_node5"><a xlink:href="dir_52b4106b6168f13dcdf82e33b1d195ee.html" target="_top" xlink:title="utilities">
<polygon fill="#a2b4d6" stroke="#404040" points="406,-52 352,-52 352,-16 406,-16 406,-52"/>
<text text-anchor="middle" x="379" y="-31.5" font-family="Helvetica,sans-Serif" font-size="10.00">utilities</text>
</a>
</g>
</g>
<!-- dir_73f6c25ff22e453adb4619599a10d18e -->
<g id="node6" class="node">
<title>dir_73f6c25ff22e453adb4619599a10d18e</title>
<g id="a_node6"><a xlink:href="dir_73f6c25ff22e453adb4619599a10d18e.html" target="_top" xlink:title="hmatrix">
<polygon fill="#a2b4d6" stroke="red" points="478,-52 424,-52 424,-16 478,-16 478,-52"/>
<text text-anchor="middle" x="451" y="-31.5" font-family="Helvetica,sans-Serif" font-size="10.00">hmatrix</text>
</a>
</g>
</g>
<!-- dir_949292de90bec6ca0ef87cb838b26113 -->
<g id="node7" class="node">
<title>dir_949292de90bec6ca0ef87cb838b26113</title>
<g id="a_node7"><a xlink:href="dir_949292de90bec6ca0ef87cb838b26113.html" target="_top" xlink:title="solvers">
<polygon fill="#a2b4d6" stroke="#404040" points="550,-52 496,-52 496,-16 550,-16 550,-52"/>
<text text-anchor="middle" x="523" y="-31.5" font-family="Helvetica,sans-Serif" font-size="10.00">solvers</text>
</a>
</g>
</g>
<!-- dir_bbd6930a6209f6ec6094d0efecdaec40 -->
<g id="node8" class="node">
<title>dir_bbd6930a6209f6ec6094d0efecdaec40</title>
<g id="a_node8"><a xlink:href="dir_bbd6930a6209f6ec6094d0efecdaec40.html" target="_top" xlink:title="dofs">
<polygon fill="#a2b4d6" stroke="#404040" points="622,-52 568,-52 568,-16 622,-16 622,-52"/>
<text text-anchor="middle" x="595" y="-31.5" font-family="Helvetica,sans-Serif" font-size="10.00">dofs</text>
</a>
</g>
</g>
<!-- dir_c39a4f2509c0f5c4adeee438ca400d36 -->
<g id="node9" class="node">
<title>dir_c39a4f2509c0f5c4adeee438ca400d36</title>
<g id="a_node9"><a xlink:href="dir_c39a4f2509c0f5c4adeee438ca400d36.html" target="_top" xlink:title="cluster_tree">
<polygon fill="#a2b4d6" stroke="#404040" points="708,-52 640,-52 640,-16 708,-16 708,-52"/>
<text text-anchor="middle" x="674" y="-31.5" font-family="Helvetica,sans-Serif" font-size="10.00">cluster_tree</text>
</a>
</g>
</g>
<!-- dir_ade684d08a0ee44008b558fab42ddda3 -->
<g id="node10" class="node">
<title>dir_ade684d08a0ee44008b558fab42ddda3</title>
<g id="a_node10"><a xlink:href="dir_ade684d08a0ee44008b558fab42ddda3.html" target="_top" xlink:title="preconditioners">
<polygon fill="#edf0f7" stroke="#404040" stroke-width="2" points="420.5,-124 337.5,-124 337.5,-88 420.5,-88 420.5,-124"/>
<text text-anchor="middle" x="379" y="-103.5" font-family="Helvetica,sans-Serif" font-size="10.00">preconditioners</text>
</a>
</g>
</g>
<!-- dir_ade684d08a0ee44008b558fab42ddda3&#45;&gt;dir_1a340114eb71db3602cc17616084b5ee -->
<g id="edge1" class="edge">
<title>dir_ade684d08a0ee44008b558fab42ddda3&#45;&gt;dir_1a340114eb71db3602cc17616084b5ee</title>
<path fill="none" stroke="black" d="M337.33,-98.36C286.29,-89.89 197.09,-73.93 111.85,-52.06"/>
<polygon fill="black" stroke="black" points="112.57,-48.63 102.01,-49.5 110.81,-55.41 112.57,-48.63"/>
<g id="a_edge1&#45;headlabel"><a xlink:href="dir_000035_000032.html" target="_top" xlink:title="4">
<text text-anchor="middle" x="116.76" y="-44.29" font-family="Helvetica,sans-Serif" font-size="10.00">4</text>
</a>
</g>
</g>
<!-- dir_ade684d08a0ee44008b558fab42ddda3&#45;&gt;dir_21460df64e31324d846fd5404a1e25ce -->
<g id="edge2" class="edge">
<title>dir_ade684d08a0ee44008b558fab42ddda3&#45;&gt;dir_21460df64e31324d846fd5404a1e25ce</title>
<path fill="none" stroke="black" d="M337.45,-94.91C301.14,-85.73 246.92,-71.15 191.86,-52.1"/>
<polygon fill="black" stroke="black" points="192.89,-48.75 182.29,-48.75 190.57,-55.36 192.89,-48.75"/>
<g id="a_edge2&#45;headlabel"><a xlink:href="dir_000035_000036.html" target="_top" xlink:title="5">
<text text-anchor="middle" x="197.22" y="-44.76" font-family="Helvetica,sans-Serif" font-size="10.00">5</text>
</a>
</g>
</g>
<!-- dir_ade684d08a0ee44008b558fab42ddda3&#45;&gt;dir_42a9eb6f13df650b43af55a829870369 -->
<g id="edge3" class="edge">
<title>dir_ade684d08a0ee44008b558fab42ddda3&#45;&gt;dir_42a9eb6f13df650b43af55a829870369</title>
<path fill="none" stroke="black" d="M341.33,-87.93C320.65,-78.53 294.35,-66.52 263.41,-52.17"/>
<polygon fill="black" stroke="black" points="264.65,-48.89 254.11,-47.85 261.7,-55.23 264.65,-48.89"/>
<g id="a_edge3&#45;headlabel"><a xlink:href="dir_000035_000031.html" target="_top" xlink:title="5">
<text text-anchor="middle" x="269.11" y="-45.33" font-family="Helvetica,sans-Serif" font-size="10.00">5</text>
</a>
</g>
</g>
<!-- dir_ade684d08a0ee44008b558fab42ddda3&#45;&gt;dir_509f74910bec4b2b67f21f41f4e57f4f -->
<g id="edge4" class="edge">
<title>dir_ade684d08a0ee44008b558fab42ddda3&#45;&gt;dir_509f74910bec4b2b67f21f41f4e57f4f</title>
<path fill="none" stroke="black" d="M360.21,-87.7C350.83,-79.05 339.32,-68.45 329.09,-59.03"/>
<polygon fill="black" stroke="black" points="331.3,-56.3 321.57,-52.1 326.55,-61.45 331.3,-56.3"/>
<g id="a_edge4&#45;headlabel"><a xlink:href="dir_000035_000008.html" target="_top" xlink:title="5">
<text text-anchor="middle" x="335.86" y="-54.15" font-family="Helvetica,sans-Serif" font-size="10.00">5</text>
</a>
</g>
</g>
<!-- dir_ade684d08a0ee44008b558fab42ddda3&#45;&gt;dir_52b4106b6168f13dcdf82e33b1d195ee -->
<g id="edge5" class="edge">
<title>dir_ade684d08a0ee44008b558fab42ddda3&#45;&gt;dir_52b4106b6168f13dcdf82e33b1d195ee</title>
<path fill="none" stroke="black" d="M379,-87.7C379,-79.98 379,-70.71 379,-62.11"/>
<polygon fill="black" stroke="black" points="382.5,-62.1 379,-52.1 375.5,-62.1 382.5,-62.1"/>
<g id="a_edge5&#45;headlabel"><a xlink:href="dir_000035_000041.html" target="_top" xlink:title="7">
<text text-anchor="middle" x="385.34" y="-63.2" font-family="Helvetica,sans-Serif" font-size="10.00">7</text>
</a>
</g>
</g>
<!-- dir_ade684d08a0ee44008b558fab42ddda3&#45;&gt;dir_73f6c25ff22e453adb4619599a10d18e -->
<g id="edge6" class="edge">
<title>dir_ade684d08a0ee44008b558fab42ddda3&#45;&gt;dir_73f6c25ff22e453adb4619599a10d18e</title>
<path fill="none" stroke="black" d="M396.8,-87.7C405.6,-79.14 416.38,-68.66 426,-59.3"/>
<polygon fill="black" stroke="black" points="428.68,-61.58 433.41,-52.1 423.8,-56.57 428.68,-61.58"/>
<g id="a_edge6&#45;headlabel"><a xlink:href="dir_000035_000022.html" target="_top" xlink:title="2">
<text text-anchor="middle" x="428.08" y="-63.63" font-family="Helvetica,sans-Serif" font-size="10.00">2</text>
</a>
</g>
</g>
<!-- dir_ade684d08a0ee44008b558fab42ddda3&#45;&gt;dir_949292de90bec6ca0ef87cb838b26113 -->
<g id="edge7" class="edge">
<title>dir_ade684d08a0ee44008b558fab42ddda3&#45;&gt;dir_949292de90bec6ca0ef87cb838b26113</title>
<path fill="none" stroke="black" d="M414.23,-87.88C436.23,-77.18 464.49,-63.44 486.7,-52.65"/>
<polygon fill="black" stroke="black" points="488.34,-55.74 495.8,-48.22 485.28,-49.44 488.34,-55.74"/>
<g id="a_edge7&#45;headlabel"><a xlink:href="dir_000035_000039.html" target="_top" xlink:title="1">
<text text-anchor="middle" x="486.35" y="-57.36" font-family="Helvetica,sans-Serif" font-size="10.00">1</text>
</a>
</g>
</g>
<!-- dir_ade684d08a0ee44008b558fab42ddda3&#45;&gt;dir_bbd6930a6209f6ec6094d0efecdaec40 -->
<g id="edge8" class="edge">
<title>dir_ade684d08a0ee44008b558fab42ddda3&#45;&gt;dir_bbd6930a6209f6ec6094d0efecdaec40</title>
<path fill="none" stroke="black" d="M420.71,-94.68C455.49,-85.64 506.4,-71.4 558.31,-51.99"/>
<polygon fill="black" stroke="black" points="559.57,-55.26 567.67,-48.44 557.08,-48.72 559.57,-55.26"/>
<g id="a_edge8&#45;headlabel"><a xlink:href="dir_000035_000013.html" target="_top" xlink:title="4">
<text text-anchor="middle" x="557.21" y="-56.69" font-family="Helvetica,sans-Serif" font-size="10.00">4</text>
</a>
</g>
</g>
<!-- dir_ade684d08a0ee44008b558fab42ddda3&#45;&gt;dir_c39a4f2509c0f5c4adeee438ca400d36 -->
<g id="edge9" class="edge">
<title>dir_ade684d08a0ee44008b558fab42ddda3&#45;&gt;dir_c39a4f2509c0f5c4adeee438ca400d36</title>
<path fill="none" stroke="black" d="M420.57,-98.48C469,-90.39 551.45,-75.12 630.32,-51.94"/>
<polygon fill="black" stroke="black" points="631.34,-55.29 639.92,-49.08 629.33,-48.59 631.34,-55.29"/>
<g id="a_edge9&#45;headlabel"><a xlink:href="dir_000035_000009.html" target="_top" xlink:title="1">
<text text-anchor="middle" x="628.7" y="-56.54" font-family="Helvetica,sans-Serif" font-size="10.00">1</text>
</a>
</g>
</g>
</g>
</svg>
