<?xml version="1.0" encoding="UTF-8" standalone="no"?>
<!DOCTYPE svg PUBLIC "-//W3C//DTD SVG 1.1//EN"
 "http://www.w3.org/Graphics/SVG/1.1/DTD/svg11.dtd">
<!-- Generated by graphviz version 2.43.0 (0)
 -->
<!-- Title: include/linear_algebra Pages: 1 -->
<svg width="280pt" height="167pt"
 viewBox="0.00 0.00 280.00 167.00" xmlns="http://www.w3.org/2000/svg" xmlns:xlink="http://www.w3.org/1999/xlink">
<g id="graph0" class="graph" transform="scale(1 1) rotate(0) translate(4 163)">
<title>include/linear_algebra</title>
<g id="clust1" class="cluster">
<title>clusterdir_d44c64559bbebec7f509842c48db8b23</title>
<g id="a_clust1"><a xlink:href="dir_d44c64559bbebec7f509842c48db8b23.html" target="_top" xlink:title="include">
<polygon fill="#edf0f7" stroke="#404040" stroke-dasharray="5,2" points="8,-8 8,-151 264,-151 264,-8 8,-8"/>
<text text-anchor="middle" x="136" y="-139" font-family="Helvetica,sans-Serif" font-size="10.00">include</text>
</a>
</g>
</g>
<!-- dir_06ec884a0825782b323e4577406ae7aa -->
<g id="node1" class="node">
<title>dir_06ec884a0825782b323e4577406ae7aa</title>
<g id="a_node1"><a xlink:href="dir_06ec884a0825782b323e4577406ae7aa.html" target="_top" xlink:title="exceptions">
<polygon fill="#a2b4d6" stroke="#404040" points="80,-52 16,-52 16,-16 80,-16 80,-52"/>
<text text-anchor="middle" x="48" y="-31.5" font-family="Helvetica,sans-Serif" font-size="10.00">exceptions</text>
</a>
</g>
</g>
<!-- dir_1a340114eb71db3602cc17616084b5ee -->
<g id="node2" class="node">
<title>dir_1a340114eb71db3602cc17616084b5ee</title>
<g id="a_node2"><a xlink:href="dir_1a340114eb71db3602cc17616084b5ee.html" target="_top" xlink:title="platform_shared">
<polygon fill="#a2b4d6" stroke="#404040" points="184,-52 98,-52 98,-16 184,-16 184,-52"/>
<text text-anchor="middle" x="141" y="-31.5" font-family="Helvetica,sans-Serif" font-size="10.00">platform_shared</text>
</a>
</g>
</g>
<!-- dir_52b4106b6168f13dcdf82e33b1d195ee -->
<g id="node3" class="node">
<title>dir_52b4106b6168f13dcdf82e33b1d195ee</title>
<g id="a_node3"><a xlink:href="dir_52b4106b6168f13dcdf82e33b1d195ee.html" target="_top" xlink:title="utilities">
<polygon fill="#a2b4d6" stroke="#404040" points="256,-52 202,-52 202,-16 256,-16 256,-52"/>
<text text-anchor="middle" x="229" y="-31.5" font-family="Helvetica,sans-Serif" font-size="10.00">utilities</text>
</a>
</g>
</g>
<!-- dir_08d94101c6095526b8db80c237e9cc42 -->
<g id="node4" class="node">
<title>dir_08d94101c6095526b8db80c237e9cc42</title>
<g id="a_node4"><a xlink:href="dir_08d94101c6095526b8db80c237e9cc42.html" target="_top" xlink:title="linear_algebra">
<polygon fill="#edf0f7" stroke="#404040" stroke-width="2" points="179.5,-124 102.5,-124 102.5,-88 179.5,-88 179.5,-124"/>
<text text-anchor="middle" x="141" y="-103.5" font-family="Helvetica,sans-Serif" font-size="10.00">linear_algebra</text>
</a>
</g>
</g>
<!-- dir_08d94101c6095526b8db80c237e9cc42&#45;&gt;dir_06ec884a0825782b323e4577406ae7aa -->
<g id="edge1" class="edge">
<title>dir_08d94101c6095526b8db80c237e9cc42&#45;&gt;dir_06ec884a0825782b323e4577406ae7aa</title>
<path fill="none" stroke="black" d="M118.01,-87.7C106.19,-78.8 91.61,-67.82 78.82,-58.2"/>
<polygon fill="black" stroke="black" points="80.82,-55.32 70.72,-52.1 76.61,-60.91 80.82,-55.32"/>
<g id="a_edge1&#45;headlabel"><a xlink:href="dir_000017_000010.html" target="_top" xlink:title="1">
<text text-anchor="middle" x="85.4" y="-52.71" font-family="Helvetica,sans-Serif" font-size="10.00">1</text>
</a>
</g>
</g>
<!-- dir_08d94101c6095526b8db80c237e9cc42&#45;&gt;dir_1a340114eb71db3602cc17616084b5ee -->
<g id="edge2" class="edge">
<title>dir_08d94101c6095526b8db80c237e9cc42&#45;&gt;dir_1a340114eb71db3602cc17616084b5ee</title>
<path fill="none" stroke="black" d="M141,-87.7C141,-79.98 141,-70.71 141,-62.11"/>
<polygon fill="black" stroke="black" points="144.5,-62.1 141,-52.1 137.5,-62.1 144.5,-62.1"/>
<g id="a_edge2&#45;headlabel"><a xlink:href="dir_000017_000019.html" target="_top" xlink:title="1">
<text text-anchor="middle" x="147.34" y="-63.2" font-family="Helvetica,sans-Serif" font-size="10.00">1</text>
</a>
</g>
</g>
<!-- dir_08d94101c6095526b8db80c237e9cc42&#45;&gt;dir_52b4106b6168f13dcdf82e33b1d195ee -->
<g id="edge3" class="edge">
<title>dir_08d94101c6095526b8db80c237e9cc42&#45;&gt;dir_52b4106b6168f13dcdf82e33b1d195ee</title>
<path fill="none" stroke="black" d="M162.75,-87.7C173.84,-78.88 187.47,-68.03 199.49,-58.47"/>
<polygon fill="black" stroke="black" points="201.85,-61.07 207.5,-52.1 197.49,-55.59 201.85,-61.07"/>
<g id="a_edge3&#45;headlabel"><a xlink:href="dir_000017_000028.html" target="_top" xlink:title="3">
<text text-anchor="middle" x="200.8" y="-63.03" font-family="Helvetica,sans-Serif" font-size="10.00">3</text>
</a>
</g>
</g>
</g>
</svg>
