<?xml version="1.0" encoding="UTF-8" standalone="no"?>
<!DOCTYPE svg PUBLIC "-//W3C//DTD SVG 1.1//EN"
 "http://www.w3.org/Graphics/SVG/1.1/DTD/svg11.dtd">
<!-- Generated by graphviz version 2.43.0 (0)
 -->
<!-- Title: include/preconditioners Pages: 1 -->
<svg width="804pt" height="167pt"
 viewBox="0.00 0.00 804.00 167.00" xmlns="http://www.w3.org/2000/svg" xmlns:xlink="http://www.w3.org/1999/xlink">
<g id="graph0" class="graph" transform="scale(1 1) rotate(0) translate(4 163)">
<title>include/preconditioners</title>
<g id="clust1" class="cluster">
<title>clusterdir_d44c64559bbebec7f509842c48db8b23</title>
<g id="a_clust1"><a xlink:href="dir_d44c64559bbebec7f509842c48db8b23.html" target="_top" xlink:title="include">
<polygon fill="#edf0f7" stroke="#404040" stroke-dasharray="5,2" points="8,-8 8,-151 788,-151 788,-8 8,-8"/>
<text text-anchor="middle" x="398" y="-139" font-family="Helvetica,sans-Serif" font-size="10.00">include</text>
</a>
</g>
</g>
<!-- dir_1a340114eb71db3602cc17616084b5ee -->
<g id="node1" class="node">
<title>dir_1a340114eb71db3602cc17616084b5ee</title>
<g id="a_node1"><a xlink:href="dir_1a340114eb71db3602cc17616084b5ee.html" target="_top" xlink:title="platform_shared">
<polygon fill="#a2b4d6" stroke="#404040" points="102,-52 16,-52 16,-16 102,-16 102,-52"/>
<text text-anchor="middle" x="59" y="-31.5" font-family="Helvetica,sans-Serif" font-size="10.00">platform_shared</text>
</a>
</g>
</g>
<!-- dir_21460df64e31324d846fd5404a1e25ce -->
<g id="node2" class="node">
<title>dir_21460df64e31324d846fd5404a1e25ce</title>
<g id="a_node2"><a xlink:href="dir_21460df64e31324d846fd5404a1e25ce.html" target="_top" xlink:title="quadrature">
<polygon fill="#a2b4d6" stroke="#404040" points="182,-52 120,-52 120,-16 182,-16 182,-52"/>
<text text-anchor="middle" x="151" y="-31.5" font-family="Helvetica,sans-Serif" font-size="10.00">quadrature</text>
</a>
</g>
</g>
<!-- dir_297c4f5c53925aeda390bf7f96acec86 -->
<g id="node3" class="node">
<title>dir_297c4f5c53925aeda390bf7f96acec86</title>
<g id="a_node3"><a xlink:href="dir_297c4f5c53925aeda390bf7f96acec86.html" target="_top" xlink:title="grid">
<polygon fill="#a2b4d6" stroke="#404040" points="254,-52 200,-52 200,-16 254,-16 254,-52"/>
<text text-anchor="middle" x="227" y="-31.5" font-family="Helvetica,sans-Serif" font-size="10.00">grid</text>
</a>
</g>
</g>
<!-- dir_42a9eb6f13df650b43af55a829870369 -->
<g id="node4" class="node">
<title>dir_42a9eb6f13df650b43af55a829870369</title>
<g id="a_node4"><a xlink:href="dir_42a9eb6f13df650b43af55a829870369.html" target="_top" xlink:title="mapping">
<polygon fill="#a2b4d6" stroke="#404040" points="326,-52 272,-52 272,-16 326,-16 326,-52"/>
<text text-anchor="middle" x="299" y="-31.5" font-family="Helvetica,sans-Serif" font-size="10.00">mapping</text>
</a>
</g>
</g>
<!-- dir_509f74910bec4b2b67f21f41f4e57f4f -->
<g id="node5" class="node">
<title>dir_509f74910bec4b2b67f21f41f4e57f4f</title>
<g id="a_node5"><a xlink:href="dir_509f74910bec4b2b67f21f41f4e57f4f.html" target="_top" xlink:title="cad_mesh">
<polygon fill="#a2b4d6" stroke="#404040" points="406,-52 344,-52 344,-16 406,-16 406,-52"/>
<text text-anchor="middle" x="375" y="-31.5" font-family="Helvetica,sans-Serif" font-size="10.00">cad_mesh</text>
</a>
</g>
</g>
<!-- dir_52b4106b6168f13dcdf82e33b1d195ee -->
<g id="node6" class="node">
<title>dir_52b4106b6168f13dcdf82e33b1d195ee</title>
<g id="a_node6"><a xlink:href="dir_52b4106b6168f13dcdf82e33b1d195ee.html" target="_top" xlink:title="utilities">
<polygon fill="#a2b4d6" stroke="#404040" points="478,-52 424,-52 424,-16 478,-16 478,-52"/>
<text text-anchor="middle" x="451" y="-31.5" font-family="Helvetica,sans-Serif" font-size="10.00">utilities</text>
</a>
</g>
</g>
<!-- dir_73f6c25ff22e453adb4619599a10d18e -->
<g id="node7" class="node">
<title>dir_73f6c25ff22e453adb4619599a10d18e</title>
<g id="a_node7"><a xlink:href="dir_73f6c25ff22e453adb4619599a10d18e.html" target="_top" xlink:title="hmatrix">
<polygon fill="#a2b4d6" stroke="red" points="550,-52 496,-52 496,-16 550,-16 550,-52"/>
<text text-anchor="middle" x="523" y="-31.5" font-family="Helvetica,sans-Serif" font-size="10.00">hmatrix</text>
</a>
</g>
</g>
<!-- dir_949292de90bec6ca0ef87cb838b26113 -->
<g id="node8" class="node">
<title>dir_949292de90bec6ca0ef87cb838b26113</title>
<g id="a_node8"><a xlink:href="dir_949292de90bec6ca0ef87cb838b26113.html" target="_top" xlink:title="solvers">
<polygon fill="#a2b4d6" stroke="#404040" points="622,-52 568,-52 568,-16 622,-16 622,-52"/>
<text text-anchor="middle" x="595" y="-31.5" font-family="Helvetica,sans-Serif" font-size="10.00">solvers</text>
</a>
</g>
</g>
<!-- dir_bbd6930a6209f6ec6094d0efecdaec40 -->
<g id="node9" class="node">
<title>dir_bbd6930a6209f6ec6094d0efecdaec40</title>
<g id="a_node9"><a xlink:href="dir_bbd6930a6209f6ec6094d0efecdaec40.html" target="_top" xlink:title="dofs">
<polygon fill="#a2b4d6" stroke="#404040" points="694,-52 640,-52 640,-16 694,-16 694,-52"/>
<text text-anchor="middle" x="667" y="-31.5" font-family="Helvetica,sans-Serif" font-size="10.00">dofs</text>
</a>
</g>
</g>
<!-- dir_c39a4f2509c0f5c4adeee438ca400d36 -->
<g id="node10" class="node">
<title>dir_c39a4f2509c0f5c4adeee438ca400d36</title>
<g id="a_node10"><a xlink:href="dir_c39a4f2509c0f5c4adeee438ca400d36.html" target="_top" xlink:title="cluster_tree">
<polygon fill="#a2b4d6" stroke="#404040" points="780,-52 712,-52 712,-16 780,-16 780,-52"/>
<text text-anchor="middle" x="746" y="-31.5" font-family="Helvetica,sans-Serif" font-size="10.00">cluster_tree</text>
</a>
</g>
</g>
<!-- dir_ade684d08a0ee44008b558fab42ddda3 -->
<g id="node11" class="node">
<title>dir_ade684d08a0ee44008b558fab42ddda3</title>
<g id="a_node11"><a xlink:href="dir_ade684d08a0ee44008b558fab42ddda3.html" target="_top" xlink:title="preconditioners">
<polygon fill="#edf0f7" stroke="#404040" stroke-width="2" points="454.5,-124 371.5,-124 371.5,-88 454.5,-88 454.5,-124"/>
<text text-anchor="middle" x="413" y="-103.5" font-family="Helvetica,sans-Serif" font-size="10.00">preconditioners</text>
</a>
</g>
</g>
<!-- dir_ade684d08a0ee44008b558fab42ddda3&#45;&gt;dir_1a340114eb71db3602cc17616084b5ee -->
<g id="edge1" class="edge">
<title>dir_ade684d08a0ee44008b558fab42ddda3&#45;&gt;dir_1a340114eb71db3602cc17616084b5ee</title>
<path fill="none" stroke="black" d="M371.08,-99.57C314.3,-91.79 209.69,-75.97 112.01,-52.07"/>
<polygon fill="black" stroke="black" points="112.83,-48.67 102.28,-49.66 111.14,-55.46 112.83,-48.67"/>
<g id="a_edge1&#45;headlabel"><a xlink:href="dir_000022_000019.html" target="_top" xlink:title="2">
<text text-anchor="middle" x="117" y="-44.28" font-family="Helvetica,sans-Serif" font-size="10.00">2</text>
</a>
</g>
</g>
<!-- dir_ade684d08a0ee44008b558fab42ddda3&#45;&gt;dir_21460df64e31324d846fd5404a1e25ce -->
<g id="edge2" class="edge">
<title>dir_ade684d08a0ee44008b558fab42ddda3&#45;&gt;dir_21460df64e31324d846fd5404a1e25ce</title>
<path fill="none" stroke="black" d="M371.1,-97.18C328.14,-88.68 259.36,-73.75 192.15,-52.11"/>
<polygon fill="black" stroke="black" points="192.85,-48.65 182.25,-48.87 190.67,-55.31 192.85,-48.65"/>
<g id="a_edge2&#45;headlabel"><a xlink:href="dir_000022_000023.html" target="_top" xlink:title="1">
<text text-anchor="middle" x="197.14" y="-44.57" font-family="Helvetica,sans-Serif" font-size="10.00">1</text>
</a>
</g>
</g>
<!-- dir_ade684d08a0ee44008b558fab42ddda3&#45;&gt;dir_297c4f5c53925aeda390bf7f96acec86 -->
<g id="edge3" class="edge">
<title>dir_ade684d08a0ee44008b558fab42ddda3&#45;&gt;dir_297c4f5c53925aeda390bf7f96acec86</title>
<path fill="none" stroke="black" d="M371.19,-91.5C342.99,-82.1 304.84,-68.85 263.76,-52.14"/>
<polygon fill="black" stroke="black" points="264.97,-48.85 254.39,-48.28 262.31,-55.32 264.97,-48.85"/>
<g id="a_edge3&#45;headlabel"><a xlink:href="dir_000022_000011.html" target="_top" xlink:title="1">
<text text-anchor="middle" x="269.37" y="-45.09" font-family="Helvetica,sans-Serif" font-size="10.00">1</text>
</a>
</g>
</g>
<!-- dir_ade684d08a0ee44008b558fab42ddda3&#45;&gt;dir_42a9eb6f13df650b43af55a829870369 -->
<g id="edge4" class="edge">
<title>dir_ade684d08a0ee44008b558fab42ddda3&#45;&gt;dir_42a9eb6f13df650b43af55a829870369</title>
<path fill="none" stroke="black" d="M385.11,-87.88C369.98,-78.59 351.12,-67 334.9,-57.04"/>
<polygon fill="black" stroke="black" points="336.56,-53.96 326.21,-51.71 332.9,-59.92 336.56,-53.96"/>
<g id="a_edge4&#45;headlabel"><a xlink:href="dir_000022_000018.html" target="_top" xlink:title="1">
<text text-anchor="middle" x="341.11" y="-50.92" font-family="Helvetica,sans-Serif" font-size="10.00">1</text>
</a>
</g>
</g>
<!-- dir_ade684d08a0ee44008b558fab42ddda3&#45;&gt;dir_509f74910bec4b2b67f21f41f4e57f4f -->
<g id="edge5" class="edge">
<title>dir_ade684d08a0ee44008b558fab42ddda3&#45;&gt;dir_509f74910bec4b2b67f21f41f4e57f4f</title>
<path fill="none" stroke="black" d="M403.61,-87.7C399.24,-79.64 393.94,-69.89 389.1,-60.98"/>
<polygon fill="black" stroke="black" points="392.13,-59.22 384.29,-52.1 385.98,-62.56 392.13,-59.22"/>
<g id="a_edge5&#45;headlabel"><a xlink:href="dir_000022_000004.html" target="_top" xlink:title="1">
<text text-anchor="middle" x="396.34" y="-58.53" font-family="Helvetica,sans-Serif" font-size="10.00">1</text>
</a>
</g>
</g>
<!-- dir_ade684d08a0ee44008b558fab42ddda3&#45;&gt;dir_52b4106b6168f13dcdf82e33b1d195ee -->
<g id="edge6" class="edge">
<title>dir_ade684d08a0ee44008b558fab42ddda3&#45;&gt;dir_52b4106b6168f13dcdf82e33b1d195ee</title>
<path fill="none" stroke="black" d="M422.39,-87.7C426.76,-79.64 432.06,-69.89 436.9,-60.98"/>
<polygon fill="black" stroke="black" points="440.02,-62.56 441.71,-52.1 433.87,-59.22 440.02,-62.56"/>
<g id="a_edge6&#45;headlabel"><a xlink:href="dir_000022_000028.html" target="_top" xlink:title="2">
<text text-anchor="middle" x="440.8" y="-64.58" font-family="Helvetica,sans-Serif" font-size="10.00">2</text>
</a>
</g>
</g>
<!-- dir_ade684d08a0ee44008b558fab42ddda3&#45;&gt;dir_73f6c25ff22e453adb4619599a10d18e -->
<g id="edge7" class="edge">
<title>dir_ade684d08a0ee44008b558fab42ddda3&#45;&gt;dir_73f6c25ff22e453adb4619599a10d18e</title>
<path fill="none" stroke="black" d="M439.91,-87.88C454.16,-78.81 471.85,-67.55 487.24,-57.76"/>
<polygon fill="black" stroke="black" points="489.43,-60.51 495.99,-52.19 485.67,-54.61 489.43,-60.51"/>
<g id="a_edge7&#45;headlabel"><a xlink:href="dir_000022_000012.html" target="_top" xlink:title="2">
<text text-anchor="middle" x="487.92" y="-62.34" font-family="Helvetica,sans-Serif" font-size="10.00">2</text>
</a>
</g>
</g>
<!-- dir_ade684d08a0ee44008b558fab42ddda3&#45;&gt;dir_949292de90bec6ca0ef87cb838b26113 -->
<g id="edge8" class="edge">
<title>dir_ade684d08a0ee44008b558fab42ddda3&#45;&gt;dir_949292de90bec6ca0ef87cb838b26113</title>
<path fill="none" stroke="black" d="M454.61,-91.05C481.92,-81.64 518.52,-68.53 558.57,-52.01"/>
<polygon fill="black" stroke="black" points="560.11,-55.16 567.99,-48.08 557.42,-48.7 560.11,-55.16"/>
<g id="a_edge8&#45;headlabel"><a xlink:href="dir_000022_000026.html" target="_top" xlink:title="1">
<text text-anchor="middle" x="557.88" y="-56.66" font-family="Helvetica,sans-Serif" font-size="10.00">1</text>
</a>
</g>
</g>
<!-- dir_ade684d08a0ee44008b558fab42ddda3&#45;&gt;dir_bbd6930a6209f6ec6094d0efecdaec40 -->
<g id="edge9" class="edge">
<title>dir_ade684d08a0ee44008b558fab42ddda3&#45;&gt;dir_bbd6930a6209f6ec6094d0efecdaec40</title>
<path fill="none" stroke="black" d="M454.71,-97.48C497.05,-89.27 564.45,-74.62 630.06,-51.98"/>
<polygon fill="black" stroke="black" points="631.45,-55.2 639.72,-48.58 629.13,-48.6 631.45,-55.2"/>
<g id="a_edge9&#45;headlabel"><a xlink:href="dir_000022_000007.html" target="_top" xlink:title="2">
<text text-anchor="middle" x="629" y="-56.57" font-family="Helvetica,sans-Serif" font-size="10.00">2</text>
</a>
</g>
</g>
<!-- dir_ade684d08a0ee44008b558fab42ddda3&#45;&gt;dir_c39a4f2509c0f5c4adeee438ca400d36 -->
<g id="edge10" class="edge">
<title>dir_ade684d08a0ee44008b558fab42ddda3&#45;&gt;dir_c39a4f2509c0f5c4adeee438ca400d36</title>
<path fill="none" stroke="black" d="M454.89,-99.97C509.86,-92.79 609.3,-77.84 702.11,-51.95"/>
<polygon fill="black" stroke="black" points="703.28,-55.26 711.94,-49.16 701.37,-48.53 703.28,-55.26"/>
<g id="a_edge10&#45;headlabel"><a xlink:href="dir_000022_000005.html" target="_top" xlink:title="1">
<text text-anchor="middle" x="700.6" y="-56.47" font-family="Helvetica,sans-Serif" font-size="10.00">1</text>
</a>
</g>
</g>
</g>
</svg>
