<?xml version="1.0" encoding="UTF-8" standalone="no"?>
<!DOCTYPE svg PUBLIC "-//W3C//DTD SVG 1.1//EN"
 "http://www.w3.org/Graphics/SVG/1.1/DTD/svg11.dtd">
<!-- Generated by graphviz version 2.43.0 (0)
 -->
<!-- Title: src Pages: 1 -->
<svg width="462pt" height="132pt"
 viewBox="0.00 0.00 462.00 132.00" xmlns="http://www.w3.org/2000/svg" xmlns:xlink="http://www.w3.org/1999/xlink">
<g id="graph0" class="graph" transform="scale(1 1) rotate(0) translate(4 128)">
<title>src</title>
<g id="clust1" class="cluster">
<title>clusterdir_68267d1309a1af8e8297ef4c3efbcdba</title>
<g id="a_clust1"><a xlink:href="dir_68267d1309a1af8e8297ef4c3efbcdba.html" target="_top">
<polygon fill="#edf0f7" stroke="#404040" stroke-width="2" points="8,-64 8,-116 446,-116 446,-64 8,-64"/>
</a>
</g>
</g>
<!-- dir_68267d1309a1af8e8297ef4c3efbcdba -->
<g id="node1" class="node">
<title>dir_68267d1309a1af8e8297ef4c3efbcdba</title>
<text text-anchor="middle" x="411" y="-87.5" font-family="Helvetica,sans-Serif" font-size="10.00">src</text>
</g>
<!-- dir_8b6a60363eaa22d3a44f4480a9a619df -->
<g id="node2" class="node">
<title>dir_8b6a60363eaa22d3a44f4480a9a619df</title>
<g id="a_node2"><a xlink:href="dir_8b6a60363eaa22d3a44f4480a9a619df.html" target="_top" xlink:title="dofs">
<polygon fill="#a2b4d6" stroke="#404040" points="366,-108 312,-108 312,-72 366,-72 366,-108"/>
<text text-anchor="middle" x="339" y="-87.5" font-family="Helvetica,sans-Serif" font-size="10.00">dofs</text>
</a>
</g>
</g>
<!-- dir_d44c64559bbebec7f509842c48db8b23 -->
<g id="node7" class="node">
<title>dir_d44c64559bbebec7f509842c48db8b23</title>
<g id="a_node7"><a xlink:href="dir_d44c64559bbebec7f509842c48db8b23.html" target="_top" xlink:title="include">
<polygon fill="none" stroke="red" points="222,-36 168,-36 168,0 222,0 222,-36"/>
<text text-anchor="middle" x="195" y="-15.5" font-family="Helvetica,sans-Serif" font-size="10.00">include</text>
</a>
</g>
</g>
<!-- dir_8b6a60363eaa22d3a44f4480a9a619df&#45;&gt;dir_d44c64559bbebec7f509842c48db8b23 -->
<g id="edge1" class="edge">
<title>dir_8b6a60363eaa22d3a44f4480a9a619df&#45;&gt;dir_d44c64559bbebec7f509842c48db8b23</title>
<path fill="none" stroke="black" d="M315.83,-71.85C311.66,-69.07 307.27,-66.34 303,-64 280.24,-51.54 253.29,-40.31 232.01,-32.18"/>
<polygon fill="black" stroke="black" points="232.96,-28.8 222.37,-28.56 230.5,-35.35 232.96,-28.8"/>
<g id="a_edge1&#45;headlabel"><a xlink:href="dir_000008_000014.html" target="_top" xlink:title="1">
<text text-anchor="middle" x="237.32" y="-24.9" font-family="Helvetica,sans-Serif" font-size="10.00">1</text>
</a>
</g>
</g>
<!-- dir_dfe1d2e2b8e3dada7c0cd2b98a28bc4b -->
<g id="node3" class="node">
<title>dir_dfe1d2e2b8e3dada7c0cd2b98a28bc4b</title>
<g id="a_node3"><a xlink:href="dir_dfe1d2e2b8e3dada7c0cd2b98a28bc4b.html" target="_top" xlink:title="hmatrix">
<polygon fill="#a2b4d6" stroke="#404040" points="294,-108 240,-108 240,-72 294,-72 294,-108"/>
<text text-anchor="middle" x="267" y="-87.5" font-family="Helvetica,sans-Serif" font-size="10.00">hmatrix</text>
</a>
</g>
</g>
<!-- dir_dfe1d2e2b8e3dada7c0cd2b98a28bc4b&#45;&gt;dir_d44c64559bbebec7f509842c48db8b23 -->
<g id="edge2" class="edge">
<title>dir_dfe1d2e2b8e3dada7c0cd2b98a28bc4b&#45;&gt;dir_d44c64559bbebec7f509842c48db8b23</title>
<path fill="none" stroke="black" d="M249.2,-71.7C240.4,-63.14 229.62,-52.66 220,-43.3"/>
<polygon fill="black" stroke="black" points="222.2,-40.57 212.59,-36.1 217.32,-45.58 222.2,-40.57"/>
<g id="a_edge2&#45;headlabel"><a xlink:href="dir_000013_000014.html" target="_top" xlink:title="3">
<text text-anchor="middle" x="226.76" y="-38.54" font-family="Helvetica,sans-Serif" font-size="10.00">3</text>
</a>
</g>
</g>
<!-- dir_5ddb76c303a924adf658b74e65afb4f0 -->
<g id="node4" class="node">
<title>dir_5ddb76c303a924adf658b74e65afb4f0</title>
<g id="a_node4"><a xlink:href="dir_5ddb76c303a924adf658b74e65afb4f0.html" target="_top" xlink:title="laplace">
<polygon fill="#a2b4d6" stroke="#404040" points="222,-108 168,-108 168,-72 222,-72 222,-108"/>
<text text-anchor="middle" x="195" y="-87.5" font-family="Helvetica,sans-Serif" font-size="10.00">laplace</text>
</a>
</g>
</g>
<!-- dir_5ddb76c303a924adf658b74e65afb4f0&#45;&gt;dir_d44c64559bbebec7f509842c48db8b23 -->
<g id="edge3" class="edge">
<title>dir_5ddb76c303a924adf658b74e65afb4f0&#45;&gt;dir_d44c64559bbebec7f509842c48db8b23</title>
<path fill="none" stroke="black" d="M195,-71.7C195,-63.98 195,-54.71 195,-46.11"/>
<polygon fill="black" stroke="black" points="198.5,-46.1 195,-36.1 191.5,-46.1 198.5,-46.1"/>
<g id="a_edge3&#45;headlabel"><a xlink:href="dir_000016_000014.html" target="_top" xlink:title="1">
<text text-anchor="middle" x="201.34" y="-47.2" font-family="Helvetica,sans-Serif" font-size="10.00">1</text>
</a>
</g>
</g>
<!-- dir_264321be3574e3b1cf375050e213576e -->
<g id="node5" class="node">
<title>dir_264321be3574e3b1cf375050e213576e</title>
<g id="a_node5"><a xlink:href="dir_264321be3574e3b1cf375050e213576e.html" target="_top" xlink:title="quadrature">
<polygon fill="#a2b4d6" stroke="#404040" points="150,-108 88,-108 88,-72 150,-72 150,-108"/>
<text text-anchor="middle" x="119" y="-87.5" font-family="Helvetica,sans-Serif" font-size="10.00">quadrature</text>
</a>
</g>
</g>
<!-- dir_264321be3574e3b1cf375050e213576e&#45;&gt;dir_d44c64559bbebec7f509842c48db8b23 -->
<g id="edge4" class="edge">
<title>dir_264321be3574e3b1cf375050e213576e&#45;&gt;dir_d44c64559bbebec7f509842c48db8b23</title>
<path fill="none" stroke="black" d="M137.79,-71.7C147.17,-63.05 158.68,-52.45 168.91,-43.03"/>
<polygon fill="black" stroke="black" points="171.45,-45.45 176.43,-36.1 166.7,-40.3 171.45,-45.45"/>
<g id="a_edge4&#45;headlabel"><a xlink:href="dir_000024_000014.html" target="_top" xlink:title="1">
<text text-anchor="middle" x="170.72" y="-47.48" font-family="Helvetica,sans-Serif" font-size="10.00">1</text>
</a>
</g>
</g>
<!-- dir_7b5d38f1875f1b693f62ca6a108a1129 -->
<g id="node6" class="node">
<title>dir_7b5d38f1875f1b693f62ca6a108a1129</title>
<g id="a_node6"><a xlink:href="dir_7b5d38f1875f1b693f62ca6a108a1129.html" target="_top" xlink:title="utilities">
<polygon fill="#a2b4d6" stroke="#404040" points="70,-108 16,-108 16,-72 70,-72 70,-108"/>
<text text-anchor="middle" x="43" y="-87.5" font-family="Helvetica,sans-Serif" font-size="10.00">utilities</text>
</a>
</g>
</g>
<!-- dir_7b5d38f1875f1b693f62ca6a108a1129&#45;&gt;dir_d44c64559bbebec7f509842c48db8b23 -->
<g id="edge5" class="edge">
<title>dir_7b5d38f1875f1b693f62ca6a108a1129&#45;&gt;dir_d44c64559bbebec7f509842c48db8b23</title>
<path fill="none" stroke="black" d="M66.12,-71.76C70.3,-68.99 74.7,-66.29 79,-64 104.54,-50.43 135.09,-38.74 158.42,-30.69"/>
<polygon fill="black" stroke="black" points="159.6,-33.98 167.95,-27.46 157.35,-27.35 159.6,-33.98"/>
<g id="a_edge5&#45;headlabel"><a xlink:href="dir_000029_000014.html" target="_top" xlink:title="2">
<text text-anchor="middle" x="157.11" y="-35.33" font-family="Helvetica,sans-Serif" font-size="10.00">2</text>
</a>
</g>
</g>
</g>
</svg>
