<?xml version="1.0" encoding="UTF-8" standalone="no"?>
<!DOCTYPE svg PUBLIC "-//W3C//DTD SVG 1.1//EN"
 "http://www.w3.org/Graphics/SVG/1.1/DTD/svg11.dtd">
<!-- Generated by graphviz version 2.43.0 (0)
 -->
<!-- Title: include/bem Pages: 1 -->
<svg width="598pt" height="167pt"
 viewBox="0.00 0.00 598.00 167.00" xmlns="http://www.w3.org/2000/svg" xmlns:xlink="http://www.w3.org/1999/xlink">
<g id="graph0" class="graph" transform="scale(1 1) rotate(0) translate(4 163)">
<title>include/bem</title>
<g id="clust1" class="cluster">
<title>clusterdir_d44c64559bbebec7f509842c48db8b23</title>
<g id="a_clust1"><a xlink:href="dir_d44c64559bbebec7f509842c48db8b23.html" target="_top" xlink:title="include">
<polygon fill="#edf0f7" stroke="#404040" stroke-dasharray="5,2" points="8,-8 8,-151 582,-151 582,-8 8,-8"/>
<text text-anchor="middle" x="295" y="-139" font-family="Helvetica,sans-Serif" font-size="10.00">include</text>
</a>
</g>
</g>
<!-- dir_08d94101c6095526b8db80c237e9cc42 -->
<g id="node1" class="node">
<title>dir_08d94101c6095526b8db80c237e9cc42</title>
<g id="a_node1"><a xlink:href="dir_08d94101c6095526b8db80c237e9cc42.html" target="_top" xlink:title="linear_algebra">
<polygon fill="#a2b4d6" stroke="#404040" points="93.5,-52 16.5,-52 16.5,-16 93.5,-16 93.5,-52"/>
<text text-anchor="middle" x="55" y="-31.5" font-family="Helvetica,sans-Serif" font-size="10.00">linear_algebra</text>
</a>
</g>
</g>
<!-- dir_1a340114eb71db3602cc17616084b5ee -->
<g id="node2" class="node">
<title>dir_1a340114eb71db3602cc17616084b5ee</title>
<g id="a_node2"><a xlink:href="dir_1a340114eb71db3602cc17616084b5ee.html" target="_top" xlink:title="platform_shared">
<polygon fill="#a2b4d6" stroke="#404040" points="198,-52 112,-52 112,-16 198,-16 198,-52"/>
<text text-anchor="middle" x="155" y="-31.5" font-family="Helvetica,sans-Serif" font-size="10.00">platform_shared</text>
</a>
</g>
</g>
<!-- dir_21460df64e31324d846fd5404a1e25ce -->
<g id="node3" class="node">
<title>dir_21460df64e31324d846fd5404a1e25ce</title>
<g id="a_node3"><a xlink:href="dir_21460df64e31324d846fd5404a1e25ce.html" target="_top" xlink:title="quadrature">
<polygon fill="#a2b4d6" stroke="#404040" points="278,-52 216,-52 216,-16 278,-16 278,-52"/>
<text text-anchor="middle" x="247" y="-31.5" font-family="Helvetica,sans-Serif" font-size="10.00">quadrature</text>
</a>
</g>
</g>
<!-- dir_42a9eb6f13df650b43af55a829870369 -->
<g id="node4" class="node">
<title>dir_42a9eb6f13df650b43af55a829870369</title>
<g id="a_node4"><a xlink:href="dir_42a9eb6f13df650b43af55a829870369.html" target="_top" xlink:title="mapping">
<polygon fill="#a2b4d6" stroke="#404040" points="350,-52 296,-52 296,-16 350,-16 350,-52"/>
<text text-anchor="middle" x="323" y="-31.5" font-family="Helvetica,sans-Serif" font-size="10.00">mapping</text>
</a>
</g>
</g>
<!-- dir_509f74910bec4b2b67f21f41f4e57f4f -->
<g id="node5" class="node">
<title>dir_509f74910bec4b2b67f21f41f4e57f4f</title>
<g id="a_node5"><a xlink:href="dir_509f74910bec4b2b67f21f41f4e57f4f.html" target="_top" xlink:title="cad_mesh">
<polygon fill="#a2b4d6" stroke="#404040" points="430,-52 368,-52 368,-16 430,-16 430,-52"/>
<text text-anchor="middle" x="399" y="-31.5" font-family="Helvetica,sans-Serif" font-size="10.00">cad_mesh</text>
</a>
</g>
</g>
<!-- dir_52b4106b6168f13dcdf82e33b1d195ee -->
<g id="node6" class="node">
<title>dir_52b4106b6168f13dcdf82e33b1d195ee</title>
<g id="a_node6"><a xlink:href="dir_52b4106b6168f13dcdf82e33b1d195ee.html" target="_top" xlink:title="utilities">
<polygon fill="#a2b4d6" stroke="#404040" points="502,-52 448,-52 448,-16 502,-16 502,-52"/>
<text text-anchor="middle" x="475" y="-31.5" font-family="Helvetica,sans-Serif" font-size="10.00">utilities</text>
</a>
</g>
</g>
<!-- dir_bbd6930a6209f6ec6094d0efecdaec40 -->
<g id="node7" class="node">
<title>dir_bbd6930a6209f6ec6094d0efecdaec40</title>
<g id="a_node7"><a xlink:href="dir_bbd6930a6209f6ec6094d0efecdaec40.html" target="_top" xlink:title="dofs">
<polygon fill="#a2b4d6" stroke="#404040" points="574,-52 520,-52 520,-16 574,-16 574,-52"/>
<text text-anchor="middle" x="547" y="-31.5" font-family="Helvetica,sans-Serif" font-size="10.00">dofs</text>
</a>
</g>
</g>
<!-- dir_578470d43e13ad95c6c96d14923f0ef8 -->
<g id="node8" class="node">
<title>dir_578470d43e13ad95c6c96d14923f0ef8</title>
<g id="a_node8"><a xlink:href="dir_578470d43e13ad95c6c96d14923f0ef8.html" target="_top" xlink:title="bem">
<polygon fill="#edf0f7" stroke="#404040" stroke-width="2" points="350,-124 296,-124 296,-88 350,-88 350,-124"/>
<text text-anchor="middle" x="323" y="-103.5" font-family="Helvetica,sans-Serif" font-size="10.00">bem</text>
</a>
</g>
</g>
<!-- dir_578470d43e13ad95c6c96d14923f0ef8&#45;&gt;dir_08d94101c6095526b8db80c237e9cc42 -->
<g id="edge1" class="edge">
<title>dir_578470d43e13ad95c6c96d14923f0ef8&#45;&gt;dir_08d94101c6095526b8db80c237e9cc42</title>
<path fill="none" stroke="black" d="M295.66,-99.37C255.54,-90.91 178.23,-73.81 103.26,-51.92"/>
<polygon fill="black" stroke="black" points="104.24,-48.56 93.66,-49.08 102.26,-55.27 104.24,-48.56"/>
<g id="a_edge1&#45;headlabel"><a xlink:href="dir_000002_000017.html" target="_top" xlink:title="8">
<text text-anchor="middle" x="108.49" y="-44.35" font-family="Helvetica,sans-Serif" font-size="10.00">8</text>
</a>
</g>
</g>
<!-- dir_578470d43e13ad95c6c96d14923f0ef8&#45;&gt;dir_1a340114eb71db3602cc17616084b5ee -->
<g id="edge2" class="edge">
<title>dir_578470d43e13ad95c6c96d14923f0ef8&#45;&gt;dir_1a340114eb71db3602cc17616084b5ee</title>
<path fill="none" stroke="black" d="M295.63,-93.6C271.22,-83.42 234.86,-68.27 205.22,-55.93"/>
<polygon fill="black" stroke="black" points="206.44,-52.64 195.86,-52.03 203.75,-59.1 206.44,-52.64"/>
<g id="a_edge2&#45;headlabel"><a xlink:href="dir_000002_000019.html" target="_top" xlink:title="2">
<text text-anchor="middle" x="210.85" y="-48.9" font-family="Helvetica,sans-Serif" font-size="10.00">2</text>
</a>
</g>
</g>
<!-- dir_578470d43e13ad95c6c96d14923f0ef8&#45;&gt;dir_21460df64e31324d846fd5404a1e25ce -->
<g id="edge3" class="edge">
<title>dir_578470d43e13ad95c6c96d14923f0ef8&#45;&gt;dir_21460df64e31324d846fd5404a1e25ce</title>
<path fill="none" stroke="black" d="M304.21,-87.7C294.83,-79.05 283.32,-68.45 273.09,-59.03"/>
<polygon fill="black" stroke="black" points="275.3,-56.3 265.57,-52.1 270.55,-61.45 275.3,-56.3"/>
<g id="a_edge3&#45;headlabel"><a xlink:href="dir_000002_000023.html" target="_top" xlink:title="1">
<text text-anchor="middle" x="279.86" y="-54.15" font-family="Helvetica,sans-Serif" font-size="10.00">1</text>
</a>
</g>
</g>
<!-- dir_578470d43e13ad95c6c96d14923f0ef8&#45;&gt;dir_42a9eb6f13df650b43af55a829870369 -->
<g id="edge4" class="edge">
<title>dir_578470d43e13ad95c6c96d14923f0ef8&#45;&gt;dir_42a9eb6f13df650b43af55a829870369</title>
<path fill="none" stroke="black" d="M323,-87.7C323,-79.98 323,-70.71 323,-62.11"/>
<polygon fill="black" stroke="black" points="326.5,-62.1 323,-52.1 319.5,-62.1 326.5,-62.1"/>
<g id="a_edge4&#45;headlabel"><a xlink:href="dir_000002_000018.html" target="_top" xlink:title="3">
<text text-anchor="middle" x="329.34" y="-63.2" font-family="Helvetica,sans-Serif" font-size="10.00">3</text>
</a>
</g>
</g>
<!-- dir_578470d43e13ad95c6c96d14923f0ef8&#45;&gt;dir_509f74910bec4b2b67f21f41f4e57f4f -->
<g id="edge5" class="edge">
<title>dir_578470d43e13ad95c6c96d14923f0ef8&#45;&gt;dir_509f74910bec4b2b67f21f41f4e57f4f</title>
<path fill="none" stroke="black" d="M341.79,-87.7C351.17,-79.05 362.68,-68.45 372.91,-59.03"/>
<polygon fill="black" stroke="black" points="375.45,-61.45 380.43,-52.1 370.7,-56.3 375.45,-61.45"/>
<g id="a_edge5&#45;headlabel"><a xlink:href="dir_000002_000004.html" target="_top" xlink:title="2">
<text text-anchor="middle" x="374.72" y="-63.48" font-family="Helvetica,sans-Serif" font-size="10.00">2</text>
</a>
</g>
</g>
<!-- dir_578470d43e13ad95c6c96d14923f0ef8&#45;&gt;dir_52b4106b6168f13dcdf82e33b1d195ee -->
<g id="edge6" class="edge">
<title>dir_578470d43e13ad95c6c96d14923f0ef8&#45;&gt;dir_52b4106b6168f13dcdf82e33b1d195ee</title>
<path fill="none" stroke="black" d="M350.23,-92.67C371.93,-82.83 403.29,-68.54 438.78,-52.08"/>
<polygon fill="black" stroke="black" points="440.3,-55.23 447.89,-47.85 437.35,-48.88 440.3,-55.23"/>
<g id="a_edge6&#45;headlabel"><a xlink:href="dir_000002_000028.html" target="_top" xlink:title="4">
<text text-anchor="middle" x="438.23" y="-56.82" font-family="Helvetica,sans-Serif" font-size="10.00">4</text>
</a>
</g>
</g>
<!-- dir_578470d43e13ad95c6c96d14923f0ef8&#45;&gt;dir_bbd6930a6209f6ec6094d0efecdaec40 -->
<g id="edge7" class="edge">
<title>dir_578470d43e13ad95c6c96d14923f0ef8&#45;&gt;dir_bbd6930a6209f6ec6094d0efecdaec40</title>
<path fill="none" stroke="black" d="M350.23,-98.83C385.4,-90.55 448.54,-74.57 510.2,-52"/>
<polygon fill="black" stroke="black" points="511.53,-55.24 519.69,-48.47 509.09,-48.68 511.53,-55.24"/>
<g id="a_edge7&#45;headlabel"><a xlink:href="dir_000002_000007.html" target="_top" xlink:title="1">
<text text-anchor="middle" x="509.16" y="-56.66" font-family="Helvetica,sans-Serif" font-size="10.00">1</text>
</a>
</g>
</g>
</g>
</svg>
