<?xml version="1.0" encoding="UTF-8" standalone="no"?>
<!DOCTYPE svg PUBLIC "-//W3C//DTD SVG 1.1//EN"
 "http://www.w3.org/Graphics/SVG/1.1/DTD/svg11.dtd">
<!-- Generated by graphviz version 2.43.0 (0)
 -->
<!-- Title: include/electric_field Pages: 1 -->
<svg width="566pt" height="167pt"
 viewBox="0.00 0.00 566.00 167.00" xmlns="http://www.w3.org/2000/svg" xmlns:xlink="http://www.w3.org/1999/xlink">
<g id="graph0" class="graph" transform="scale(1 1) rotate(0) translate(4 163)">
<title>include/electric_field</title>
<g id="clust1" class="cluster">
<title>clusterdir_d44c64559bbebec7f509842c48db8b23</title>
<g id="a_clust1"><a xlink:href="dir_d44c64559bbebec7f509842c48db8b23.html" target="_top" xlink:title="include">
<polygon fill="#edf0f7" stroke="#404040" stroke-dasharray="5,2" points="8,-8 8,-151 550,-151 550,-8 8,-8"/>
<text text-anchor="middle" x="279" y="-139" font-family="Helvetica,sans-Serif" font-size="10.00">include</text>
</a>
</g>
</g>
<!-- dir_1a340114eb71db3602cc17616084b5ee -->
<g id="node1" class="node">
<title>dir_1a340114eb71db3602cc17616084b5ee</title>
<g id="a_node1"><a xlink:href="dir_1a340114eb71db3602cc17616084b5ee.html" target="_top" xlink:title="platform_shared">
<polygon fill="#a2b4d6" stroke="#404040" points="102,-52 16,-52 16,-16 102,-16 102,-52"/>
<text text-anchor="middle" x="59" y="-31.5" font-family="Helvetica,sans-Serif" font-size="10.00">platform_shared</text>
</a>
</g>
</g>
<!-- dir_297c4f5c53925aeda390bf7f96acec86 -->
<g id="node2" class="node">
<title>dir_297c4f5c53925aeda390bf7f96acec86</title>
<g id="a_node2"><a xlink:href="dir_297c4f5c53925aeda390bf7f96acec86.html" target="_top" xlink:title="grid">
<polygon fill="#a2b4d6" stroke="#404040" points="174,-52 120,-52 120,-16 174,-16 174,-52"/>
<text text-anchor="middle" x="147" y="-31.5" font-family="Helvetica,sans-Serif" font-size="10.00">grid</text>
</a>
</g>
</g>
<!-- dir_42a9eb6f13df650b43af55a829870369 -->
<g id="node3" class="node">
<title>dir_42a9eb6f13df650b43af55a829870369</title>
<g id="a_node3"><a xlink:href="dir_42a9eb6f13df650b43af55a829870369.html" target="_top" xlink:title="mapping">
<polygon fill="#a2b4d6" stroke="#404040" points="246,-52 192,-52 192,-16 246,-16 246,-52"/>
<text text-anchor="middle" x="219" y="-31.5" font-family="Helvetica,sans-Serif" font-size="10.00">mapping</text>
</a>
</g>
</g>
<!-- dir_509f74910bec4b2b67f21f41f4e57f4f -->
<g id="node4" class="node">
<title>dir_509f74910bec4b2b67f21f41f4e57f4f</title>
<g id="a_node4"><a xlink:href="dir_509f74910bec4b2b67f21f41f4e57f4f.html" target="_top" xlink:title="cad_mesh">
<polygon fill="#a2b4d6" stroke="#404040" points="326,-52 264,-52 264,-16 326,-16 326,-52"/>
<text text-anchor="middle" x="295" y="-31.5" font-family="Helvetica,sans-Serif" font-size="10.00">cad_mesh</text>
</a>
</g>
</g>
<!-- dir_52b4106b6168f13dcdf82e33b1d195ee -->
<g id="node5" class="node">
<title>dir_52b4106b6168f13dcdf82e33b1d195ee</title>
<g id="a_node5"><a xlink:href="dir_52b4106b6168f13dcdf82e33b1d195ee.html" target="_top" xlink:title="utilities">
<polygon fill="#a2b4d6" stroke="#404040" points="398,-52 344,-52 344,-16 398,-16 398,-52"/>
<text text-anchor="middle" x="371" y="-31.5" font-family="Helvetica,sans-Serif" font-size="10.00">utilities</text>
</a>
</g>
</g>
<!-- dir_73f6c25ff22e453adb4619599a10d18e -->
<g id="node6" class="node">
<title>dir_73f6c25ff22e453adb4619599a10d18e</title>
<g id="a_node6"><a xlink:href="dir_73f6c25ff22e453adb4619599a10d18e.html" target="_top" xlink:title="hmatrix">
<polygon fill="#a2b4d6" stroke="red" points="470,-52 416,-52 416,-16 470,-16 470,-52"/>
<text text-anchor="middle" x="443" y="-31.5" font-family="Helvetica,sans-Serif" font-size="10.00">hmatrix</text>
</a>
</g>
</g>
<!-- dir_bbd6930a6209f6ec6094d0efecdaec40 -->
<g id="node7" class="node">
<title>dir_bbd6930a6209f6ec6094d0efecdaec40</title>
<g id="a_node7"><a xlink:href="dir_bbd6930a6209f6ec6094d0efecdaec40.html" target="_top" xlink:title="dofs">
<polygon fill="#a2b4d6" stroke="#404040" points="542,-52 488,-52 488,-16 542,-16 542,-52"/>
<text text-anchor="middle" x="515" y="-31.5" font-family="Helvetica,sans-Serif" font-size="10.00">dofs</text>
</a>
</g>
</g>
<!-- dir_5ef9570bb0729d04bf3cedafffd0d35d -->
<g id="node8" class="node">
<title>dir_5ef9570bb0729d04bf3cedafffd0d35d</title>
<g id="a_node8"><a xlink:href="dir_5ef9570bb0729d04bf3cedafffd0d35d.html" target="_top" xlink:title="electric_field">
<polygon fill="#edf0f7" stroke="#404040" stroke-width="2" points="330.5,-124 259.5,-124 259.5,-88 330.5,-88 330.5,-124"/>
<text text-anchor="middle" x="295" y="-103.5" font-family="Helvetica,sans-Serif" font-size="10.00">electric_field</text>
</a>
</g>
</g>
<!-- dir_5ef9570bb0729d04bf3cedafffd0d35d&#45;&gt;dir_1a340114eb71db3602cc17616084b5ee -->
<g id="edge1" class="edge">
<title>dir_5ef9570bb0729d04bf3cedafffd0d35d&#45;&gt;dir_1a340114eb71db3602cc17616084b5ee</title>
<path fill="none" stroke="black" d="M259.27,-95.11C224.15,-85.31 168.79,-69.61 111.97,-52.25"/>
<polygon fill="black" stroke="black" points="112.68,-48.81 102.09,-49.22 110.63,-55.5 112.68,-48.81"/>
<g id="a_edge1&#45;headlabel"><a xlink:href="dir_000009_000019.html" target="_top" xlink:title="1">
<text text-anchor="middle" x="116.95" y="-44.65" font-family="Helvetica,sans-Serif" font-size="10.00">1</text>
</a>
</g>
</g>
<!-- dir_5ef9570bb0729d04bf3cedafffd0d35d&#45;&gt;dir_297c4f5c53925aeda390bf7f96acec86 -->
<g id="edge2" class="edge">
<title>dir_5ef9570bb0729d04bf3cedafffd0d35d&#45;&gt;dir_297c4f5c53925aeda390bf7f96acec86</title>
<path fill="none" stroke="black" d="M259.17,-88.05C236.17,-77.17 206.38,-63.08 183.28,-52.16"/>
<polygon fill="black" stroke="black" points="184.69,-48.95 174.15,-47.84 181.69,-55.28 184.69,-48.95"/>
<g id="a_edge2&#45;headlabel"><a xlink:href="dir_000009_000011.html" target="_top" xlink:title="1">
<text text-anchor="middle" x="189.15" y="-45.42" font-family="Helvetica,sans-Serif" font-size="10.00">1</text>
</a>
</g>
</g>
<!-- dir_5ef9570bb0729d04bf3cedafffd0d35d&#45;&gt;dir_42a9eb6f13df650b43af55a829870369 -->
<g id="edge3" class="edge">
<title>dir_5ef9570bb0729d04bf3cedafffd0d35d&#45;&gt;dir_42a9eb6f13df650b43af55a829870369</title>
<path fill="none" stroke="black" d="M276.21,-87.7C266.83,-79.05 255.32,-68.45 245.09,-59.03"/>
<polygon fill="black" stroke="black" points="247.3,-56.3 237.57,-52.1 242.55,-61.45 247.3,-56.3"/>
<g id="a_edge3&#45;headlabel"><a xlink:href="dir_000009_000018.html" target="_top" xlink:title="1">
<text text-anchor="middle" x="251.86" y="-54.15" font-family="Helvetica,sans-Serif" font-size="10.00">1</text>
</a>
</g>
</g>
<!-- dir_5ef9570bb0729d04bf3cedafffd0d35d&#45;&gt;dir_509f74910bec4b2b67f21f41f4e57f4f -->
<g id="edge4" class="edge">
<title>dir_5ef9570bb0729d04bf3cedafffd0d35d&#45;&gt;dir_509f74910bec4b2b67f21f41f4e57f4f</title>
<path fill="none" stroke="black" d="M295,-87.7C295,-79.98 295,-70.71 295,-62.11"/>
<polygon fill="black" stroke="black" points="298.5,-62.1 295,-52.1 291.5,-62.1 298.5,-62.1"/>
<g id="a_edge4&#45;headlabel"><a xlink:href="dir_000009_000004.html" target="_top" xlink:title="1">
<text text-anchor="middle" x="301.34" y="-63.2" font-family="Helvetica,sans-Serif" font-size="10.00">1</text>
</a>
</g>
</g>
<!-- dir_5ef9570bb0729d04bf3cedafffd0d35d&#45;&gt;dir_52b4106b6168f13dcdf82e33b1d195ee -->
<g id="edge5" class="edge">
<title>dir_5ef9570bb0729d04bf3cedafffd0d35d&#45;&gt;dir_52b4106b6168f13dcdf82e33b1d195ee</title>
<path fill="none" stroke="black" d="M313.79,-87.7C323.17,-79.05 334.68,-68.45 344.91,-59.03"/>
<polygon fill="black" stroke="black" points="347.45,-61.45 352.43,-52.1 342.7,-56.3 347.45,-61.45"/>
<g id="a_edge5&#45;headlabel"><a xlink:href="dir_000009_000028.html" target="_top" xlink:title="2">
<text text-anchor="middle" x="346.72" y="-63.48" font-family="Helvetica,sans-Serif" font-size="10.00">2</text>
</a>
</g>
</g>
<!-- dir_5ef9570bb0729d04bf3cedafffd0d35d&#45;&gt;dir_73f6c25ff22e453adb4619599a10d18e -->
<g id="edge6" class="edge">
<title>dir_5ef9570bb0729d04bf3cedafffd0d35d&#45;&gt;dir_73f6c25ff22e453adb4619599a10d18e</title>
<path fill="none" stroke="black" d="M330.83,-88.05C353.83,-77.17 383.62,-63.08 406.72,-52.16"/>
<polygon fill="black" stroke="black" points="408.31,-55.28 415.85,-47.84 405.31,-48.95 408.31,-55.28"/>
<g id="a_edge6&#45;headlabel"><a xlink:href="dir_000009_000012.html" target="_top" xlink:title="3">
<text text-anchor="middle" x="406.27" y="-56.88" font-family="Helvetica,sans-Serif" font-size="10.00">3</text>
</a>
</g>
</g>
<!-- dir_5ef9570bb0729d04bf3cedafffd0d35d&#45;&gt;dir_bbd6930a6209f6ec6094d0efecdaec40 -->
<g id="edge7" class="edge">
<title>dir_5ef9570bb0729d04bf3cedafffd0d35d&#45;&gt;dir_bbd6930a6209f6ec6094d0efecdaec40</title>
<path fill="none" stroke="black" d="M330.83,-96.5C366.26,-87.7 422.09,-72.76 477.98,-52.1"/>
<polygon fill="black" stroke="black" points="479.55,-55.25 487.68,-48.46 477.09,-48.7 479.55,-55.25"/>
<g id="a_edge7&#45;headlabel"><a xlink:href="dir_000009_000007.html" target="_top" xlink:title="1">
<text text-anchor="middle" x="477.18" y="-56.67" font-family="Helvetica,sans-Serif" font-size="10.00">1</text>
</a>
</g>
</g>
</g>
</svg>
