<?xml version="1.0" encoding="UTF-8" standalone="no"?>
<!DOCTYPE svg PUBLIC "-//W3C//DTD SVG 1.1//EN"
 "http://www.w3.org/Graphics/SVG/1.1/DTD/svg11.dtd">
<!-- Generated by graphviz version 2.43.0 (0)
 -->
<!-- Title: include/laplace Pages: 1 -->
<svg width="1074pt" height="167pt"
 viewBox="0.00 0.00 1074.00 167.00" xmlns="http://www.w3.org/2000/svg" xmlns:xlink="http://www.w3.org/1999/xlink">
<g id="graph0" class="graph" transform="scale(1 1) rotate(0) translate(4 163)">
<title>include/laplace</title>
<g id="clust1" class="cluster">
<title>clusterdir_d44c64559bbebec7f509842c48db8b23</title>
<g id="a_clust1"><a xlink:href="dir_d44c64559bbebec7f509842c48db8b23.html" target="_top" xlink:title="include">
<polygon fill="#edf0f7" stroke="#404040" stroke-dasharray="5,2" points="8,-8 8,-151 1058,-151 1058,-8 8,-8"/>
<text text-anchor="middle" x="533" y="-139" font-family="Helvetica,sans-Serif" font-size="10.00">include</text>
</a>
</g>
</g>
<!-- dir_08d94101c6095526b8db80c237e9cc42 -->
<g id="node1" class="node">
<title>dir_08d94101c6095526b8db80c237e9cc42</title>
<g id="a_node1"><a xlink:href="dir_08d94101c6095526b8db80c237e9cc42.html" target="_top" xlink:title="linear_algebra">
<polygon fill="#a2b4d6" stroke="#404040" points="93.5,-52 16.5,-52 16.5,-16 93.5,-16 93.5,-52"/>
<text text-anchor="middle" x="55" y="-31.5" font-family="Helvetica,sans-Serif" font-size="10.00">linear_algebra</text>
</a>
</g>
</g>
<!-- dir_1a340114eb71db3602cc17616084b5ee -->
<g id="node2" class="node">
<title>dir_1a340114eb71db3602cc17616084b5ee</title>
<g id="a_node2"><a xlink:href="dir_1a340114eb71db3602cc17616084b5ee.html" target="_top" xlink:title="platform_shared">
<polygon fill="#a2b4d6" stroke="#404040" points="198,-52 112,-52 112,-16 198,-16 198,-52"/>
<text text-anchor="middle" x="155" y="-31.5" font-family="Helvetica,sans-Serif" font-size="10.00">platform_shared</text>
</a>
</g>
</g>
<!-- dir_21460df64e31324d846fd5404a1e25ce -->
<g id="node3" class="node">
<title>dir_21460df64e31324d846fd5404a1e25ce</title>
<g id="a_node3"><a xlink:href="dir_21460df64e31324d846fd5404a1e25ce.html" target="_top" xlink:title="quadrature">
<polygon fill="#a2b4d6" stroke="#404040" points="278,-52 216,-52 216,-16 278,-16 278,-52"/>
<text text-anchor="middle" x="247" y="-31.5" font-family="Helvetica,sans-Serif" font-size="10.00">quadrature</text>
</a>
</g>
</g>
<!-- dir_297c4f5c53925aeda390bf7f96acec86 -->
<g id="node4" class="node">
<title>dir_297c4f5c53925aeda390bf7f96acec86</title>
<g id="a_node4"><a xlink:href="dir_297c4f5c53925aeda390bf7f96acec86.html" target="_top" xlink:title="grid">
<polygon fill="#a2b4d6" stroke="#404040" points="350,-52 296,-52 296,-16 350,-16 350,-52"/>
<text text-anchor="middle" x="323" y="-31.5" font-family="Helvetica,sans-Serif" font-size="10.00">grid</text>
</a>
</g>
</g>
<!-- dir_42a9eb6f13df650b43af55a829870369 -->
<g id="node5" class="node">
<title>dir_42a9eb6f13df650b43af55a829870369</title>
<g id="a_node5"><a xlink:href="dir_42a9eb6f13df650b43af55a829870369.html" target="_top" xlink:title="mapping">
<polygon fill="#a2b4d6" stroke="#404040" points="422,-52 368,-52 368,-16 422,-16 422,-52"/>
<text text-anchor="middle" x="395" y="-31.5" font-family="Helvetica,sans-Serif" font-size="10.00">mapping</text>
</a>
</g>
</g>
<!-- dir_509f74910bec4b2b67f21f41f4e57f4f -->
<g id="node6" class="node">
<title>dir_509f74910bec4b2b67f21f41f4e57f4f</title>
<g id="a_node6"><a xlink:href="dir_509f74910bec4b2b67f21f41f4e57f4f.html" target="_top" xlink:title="cad_mesh">
<polygon fill="#a2b4d6" stroke="#404040" points="502,-52 440,-52 440,-16 502,-16 502,-52"/>
<text text-anchor="middle" x="471" y="-31.5" font-family="Helvetica,sans-Serif" font-size="10.00">cad_mesh</text>
</a>
</g>
</g>
<!-- dir_52b4106b6168f13dcdf82e33b1d195ee -->
<g id="node7" class="node">
<title>dir_52b4106b6168f13dcdf82e33b1d195ee</title>
<g id="a_node7"><a xlink:href="dir_52b4106b6168f13dcdf82e33b1d195ee.html" target="_top" xlink:title="utilities">
<polygon fill="#a2b4d6" stroke="#404040" points="574,-52 520,-52 520,-16 574,-16 574,-52"/>
<text text-anchor="middle" x="547" y="-31.5" font-family="Helvetica,sans-Serif" font-size="10.00">utilities</text>
</a>
</g>
</g>
<!-- dir_578470d43e13ad95c6c96d14923f0ef8 -->
<g id="node8" class="node">
<title>dir_578470d43e13ad95c6c96d14923f0ef8</title>
<g id="a_node8"><a xlink:href="dir_578470d43e13ad95c6c96d14923f0ef8.html" target="_top" xlink:title="bem">
<polygon fill="#a2b4d6" stroke="#404040" points="646,-52 592,-52 592,-16 646,-16 646,-52"/>
<text text-anchor="middle" x="619" y="-31.5" font-family="Helvetica,sans-Serif" font-size="10.00">bem</text>
</a>
</g>
</g>
<!-- dir_73f6c25ff22e453adb4619599a10d18e -->
<g id="node9" class="node">
<title>dir_73f6c25ff22e453adb4619599a10d18e</title>
<g id="a_node9"><a xlink:href="dir_73f6c25ff22e453adb4619599a10d18e.html" target="_top" xlink:title="hmatrix">
<polygon fill="#a2b4d6" stroke="red" points="718,-52 664,-52 664,-16 718,-16 718,-52"/>
<text text-anchor="middle" x="691" y="-31.5" font-family="Helvetica,sans-Serif" font-size="10.00">hmatrix</text>
</a>
</g>
</g>
<!-- dir_949292de90bec6ca0ef87cb838b26113 -->
<g id="node10" class="node">
<title>dir_949292de90bec6ca0ef87cb838b26113</title>
<g id="a_node10"><a xlink:href="dir_949292de90bec6ca0ef87cb838b26113.html" target="_top" xlink:title="solvers">
<polygon fill="#a2b4d6" stroke="#404040" points="790,-52 736,-52 736,-16 790,-16 790,-52"/>
<text text-anchor="middle" x="763" y="-31.5" font-family="Helvetica,sans-Serif" font-size="10.00">solvers</text>
</a>
</g>
</g>
<!-- dir_ade684d08a0ee44008b558fab42ddda3 -->
<g id="node11" class="node">
<title>dir_ade684d08a0ee44008b558fab42ddda3</title>
<g id="a_node11"><a xlink:href="dir_ade684d08a0ee44008b558fab42ddda3.html" target="_top" xlink:title="preconditioners">
<polygon fill="#a2b4d6" stroke="#404040" points="891.5,-52 808.5,-52 808.5,-16 891.5,-16 891.5,-52"/>
<text text-anchor="middle" x="850" y="-31.5" font-family="Helvetica,sans-Serif" font-size="10.00">preconditioners</text>
</a>
</g>
</g>
<!-- dir_bbd6930a6209f6ec6094d0efecdaec40 -->
<g id="node12" class="node">
<title>dir_bbd6930a6209f6ec6094d0efecdaec40</title>
<g id="a_node12"><a xlink:href="dir_bbd6930a6209f6ec6094d0efecdaec40.html" target="_top" xlink:title="dofs">
<polygon fill="#a2b4d6" stroke="#404040" points="964,-52 910,-52 910,-16 964,-16 964,-52"/>
<text text-anchor="middle" x="937" y="-31.5" font-family="Helvetica,sans-Serif" font-size="10.00">dofs</text>
</a>
</g>
</g>
<!-- dir_c39a4f2509c0f5c4adeee438ca400d36 -->
<g id="node13" class="node">
<title>dir_c39a4f2509c0f5c4adeee438ca400d36</title>
<g id="a_node13"><a xlink:href="dir_c39a4f2509c0f5c4adeee438ca400d36.html" target="_top" xlink:title="cluster_tree">
<polygon fill="#a2b4d6" stroke="#404040" points="1050,-52 982,-52 982,-16 1050,-16 1050,-52"/>
<text text-anchor="middle" x="1016" y="-31.5" font-family="Helvetica,sans-Serif" font-size="10.00">cluster_tree</text>
</a>
</g>
</g>
<!-- dir_a95f09da6b8dec270c8371625d74a745 -->
<g id="node14" class="node">
<title>dir_a95f09da6b8dec270c8371625d74a745</title>
<g id="a_node14"><a xlink:href="dir_a95f09da6b8dec270c8371625d74a745.html" target="_top" xlink:title="laplace">
<polygon fill="#edf0f7" stroke="#404040" stroke-width="2" points="574,-124 520,-124 520,-88 574,-88 574,-124"/>
<text text-anchor="middle" x="547" y="-103.5" font-family="Helvetica,sans-Serif" font-size="10.00">laplace</text>
</a>
</g>
</g>
<!-- dir_a95f09da6b8dec270c8371625d74a745&#45;&gt;dir_08d94101c6095526b8db80c237e9cc42 -->
<g id="edge1" class="edge">
<title>dir_a95f09da6b8dec270c8371625d74a745&#45;&gt;dir_08d94101c6095526b8db80c237e9cc42</title>
<path fill="none" stroke="black" d="M519.86,-103.85C451.36,-100.52 265.97,-88.76 103.71,-51.83"/>
<polygon fill="black" stroke="black" points="104.08,-48.33 93.55,-49.48 102.51,-55.15 104.08,-48.33"/>
<g id="a_edge1&#45;headlabel"><a xlink:href="dir_000015_000017.html" target="_top" xlink:title="1">
<text text-anchor="middle" x="108.23" y="-43.87" font-family="Helvetica,sans-Serif" font-size="10.00">1</text>
</a>
</g>
</g>
<!-- dir_a95f09da6b8dec270c8371625d74a745&#45;&gt;dir_1a340114eb71db3602cc17616084b5ee -->
<g id="edge2" class="edge">
<title>dir_a95f09da6b8dec270c8371625d74a745&#45;&gt;dir_1a340114eb71db3602cc17616084b5ee</title>
<path fill="none" stroke="black" d="M519.83,-102.27C463.33,-96.28 329.07,-80.38 208.06,-52.05"/>
<polygon fill="black" stroke="black" points="208.8,-48.63 198.26,-49.72 207.18,-55.44 208.8,-48.63"/>
<g id="a_edge2&#45;headlabel"><a xlink:href="dir_000015_000019.html" target="_top" xlink:title="1">
<text text-anchor="middle" x="212.95" y="-44.2" font-family="Helvetica,sans-Serif" font-size="10.00">1</text>
</a>
</g>
</g>
<!-- dir_a95f09da6b8dec270c8371625d74a745&#45;&gt;dir_21460df64e31324d846fd5404a1e25ce -->
<g id="edge3" class="edge">
<title>dir_a95f09da6b8dec270c8371625d74a745&#45;&gt;dir_21460df64e31324d846fd5404a1e25ce</title>
<path fill="none" stroke="black" d="M519.98,-101.32C473.91,-94.66 377.25,-79.01 287.95,-51.97"/>
<polygon fill="black" stroke="black" points="288.81,-48.57 278.22,-48.97 286.74,-55.26 288.81,-48.57"/>
<g id="a_edge3&#45;headlabel"><a xlink:href="dir_000015_000023.html" target="_top" xlink:title="3">
<text text-anchor="middle" x="293.08" y="-44.42" font-family="Helvetica,sans-Serif" font-size="10.00">3</text>
</a>
</g>
</g>
<!-- dir_a95f09da6b8dec270c8371625d74a745&#45;&gt;dir_297c4f5c53925aeda390bf7f96acec86 -->
<g id="edge4" class="edge">
<title>dir_a95f09da6b8dec270c8371625d74a745&#45;&gt;dir_297c4f5c53925aeda390bf7f96acec86</title>
<path fill="none" stroke="black" d="M519.77,-98.83C484.6,-90.55 421.46,-74.57 359.8,-52"/>
<polygon fill="black" stroke="black" points="360.91,-48.68 350.31,-48.47 358.47,-55.24 360.91,-48.68"/>
<g id="a_edge4&#45;headlabel"><a xlink:href="dir_000015_000011.html" target="_top" xlink:title="2">
<text text-anchor="middle" x="365.27" y="-44.77" font-family="Helvetica,sans-Serif" font-size="10.00">2</text>
</a>
</g>
</g>
<!-- dir_a95f09da6b8dec270c8371625d74a745&#45;&gt;dir_42a9eb6f13df650b43af55a829870369 -->
<g id="edge5" class="edge">
<title>dir_a95f09da6b8dec270c8371625d74a745&#45;&gt;dir_42a9eb6f13df650b43af55a829870369</title>
<path fill="none" stroke="black" d="M519.77,-92.67C498.07,-82.83 466.71,-68.54 431.22,-52.08"/>
<polygon fill="black" stroke="black" points="432.65,-48.88 422.11,-47.85 429.7,-55.23 432.65,-48.88"/>
<g id="a_edge5&#45;headlabel"><a xlink:href="dir_000015_000018.html" target="_top" xlink:title="3">
<text text-anchor="middle" x="437.11" y="-45.32" font-family="Helvetica,sans-Serif" font-size="10.00">3</text>
</a>
</g>
</g>
<!-- dir_a95f09da6b8dec270c8371625d74a745&#45;&gt;dir_509f74910bec4b2b67f21f41f4e57f4f -->
<g id="edge6" class="edge">
<title>dir_a95f09da6b8dec270c8371625d74a745&#45;&gt;dir_509f74910bec4b2b67f21f41f4e57f4f</title>
<path fill="none" stroke="black" d="M528.21,-87.7C518.83,-79.05 507.32,-68.45 497.09,-59.03"/>
<polygon fill="black" stroke="black" points="499.3,-56.3 489.57,-52.1 494.55,-61.45 499.3,-56.3"/>
<g id="a_edge6&#45;headlabel"><a xlink:href="dir_000015_000004.html" target="_top" xlink:title="6">
<text text-anchor="middle" x="503.86" y="-54.15" font-family="Helvetica,sans-Serif" font-size="10.00">6</text>
</a>
</g>
</g>
<!-- dir_a95f09da6b8dec270c8371625d74a745&#45;&gt;dir_52b4106b6168f13dcdf82e33b1d195ee -->
<g id="edge7" class="edge">
<title>dir_a95f09da6b8dec270c8371625d74a745&#45;&gt;dir_52b4106b6168f13dcdf82e33b1d195ee</title>
<path fill="none" stroke="black" d="M547,-87.7C547,-79.98 547,-70.71 547,-62.11"/>
<polygon fill="black" stroke="black" points="550.5,-62.1 547,-52.1 543.5,-62.1 550.5,-62.1"/>
<g id="a_edge7&#45;headlabel"><a xlink:href="dir_000015_000028.html" target="_top" xlink:title="4">
<text text-anchor="middle" x="553.34" y="-63.2" font-family="Helvetica,sans-Serif" font-size="10.00">4</text>
</a>
</g>
</g>
<!-- dir_a95f09da6b8dec270c8371625d74a745&#45;&gt;dir_578470d43e13ad95c6c96d14923f0ef8 -->
<g id="edge8" class="edge">
<title>dir_a95f09da6b8dec270c8371625d74a745&#45;&gt;dir_578470d43e13ad95c6c96d14923f0ef8</title>
<path fill="none" stroke="black" d="M564.8,-87.7C573.6,-79.14 584.38,-68.66 594,-59.3"/>
<polygon fill="black" stroke="black" points="596.68,-61.58 601.41,-52.1 591.8,-56.57 596.68,-61.58"/>
<g id="a_edge8&#45;headlabel"><a xlink:href="dir_000015_000002.html" target="_top" xlink:title="1">
<text text-anchor="middle" x="596.08" y="-63.63" font-family="Helvetica,sans-Serif" font-size="10.00">1</text>
</a>
</g>
</g>
<!-- dir_a95f09da6b8dec270c8371625d74a745&#45;&gt;dir_73f6c25ff22e453adb4619599a10d18e -->
<g id="edge9" class="edge">
<title>dir_a95f09da6b8dec270c8371625d74a745&#45;&gt;dir_73f6c25ff22e453adb4619599a10d18e</title>
<path fill="none" stroke="black" d="M574.09,-91.83C596.77,-80.81 629.36,-64.97 654.37,-52.81"/>
<polygon fill="black" stroke="black" points="656.08,-55.87 663.55,-48.35 653.02,-49.57 656.08,-55.87"/>
<g id="a_edge9&#45;headlabel"><a xlink:href="dir_000015_000012.html" target="_top" xlink:title="7">
<text text-anchor="middle" x="654.09" y="-57.49" font-family="Helvetica,sans-Serif" font-size="10.00">7</text>
</a>
</g>
</g>
<!-- dir_a95f09da6b8dec270c8371625d74a745&#45;&gt;dir_949292de90bec6ca0ef87cb838b26113 -->
<g id="edge10" class="edge">
<title>dir_a95f09da6b8dec270c8371625d74a745&#45;&gt;dir_949292de90bec6ca0ef87cb838b26113</title>
<path fill="none" stroke="black" d="M574.27,-98.38C608.1,-89.86 667.59,-73.9 726.27,-52"/>
<polygon fill="black" stroke="black" points="727.56,-55.26 735.67,-48.44 725.08,-48.71 727.56,-55.26"/>
<g id="a_edge10&#45;headlabel"><a xlink:href="dir_000015_000026.html" target="_top" xlink:title="2">
<text text-anchor="middle" x="725.21" y="-56.68" font-family="Helvetica,sans-Serif" font-size="10.00">2</text>
</a>
</g>
</g>
<!-- dir_a95f09da6b8dec270c8371625d74a745&#45;&gt;dir_ade684d08a0ee44008b558fab42ddda3 -->
<g id="edge11" class="edge">
<title>dir_a95f09da6b8dec270c8371625d74a745&#45;&gt;dir_ade684d08a0ee44008b558fab42ddda3</title>
<path fill="none" stroke="black" d="M574.09,-100.35C618.84,-92.46 711.11,-75.22 798.56,-51.95"/>
<polygon fill="black" stroke="black" points="799.62,-55.29 808.37,-49.31 797.8,-48.53 799.62,-55.29"/>
<g id="a_edge11&#45;headlabel"><a xlink:href="dir_000015_000022.html" target="_top" xlink:title="4">
<text text-anchor="middle" x="796.89" y="-56.46" font-family="Helvetica,sans-Serif" font-size="10.00">4</text>
</a>
</g>
</g>
<!-- dir_a95f09da6b8dec270c8371625d74a745&#45;&gt;dir_bbd6930a6209f6ec6094d0efecdaec40 -->
<g id="edge12" class="edge">
<title>dir_a95f09da6b8dec270c8371625d74a745&#45;&gt;dir_bbd6930a6209f6ec6094d0efecdaec40</title>
<path fill="none" stroke="black" d="M574.24,-103.63C632.87,-100.12 775.2,-88.55 900.09,-51.77"/>
<polygon fill="black" stroke="black" points="901.24,-55.08 909.81,-48.85 899.23,-48.38 901.24,-55.08"/>
<g id="a_edge12&#45;headlabel"><a xlink:href="dir_000015_000007.html" target="_top" xlink:title="2">
<text text-anchor="middle" x="898.62" y="-56.34" font-family="Helvetica,sans-Serif" font-size="10.00">2</text>
</a>
</g>
</g>
<!-- dir_a95f09da6b8dec270c8371625d74a745&#45;&gt;dir_c39a4f2509c0f5c4adeee438ca400d36 -->
<g id="edge13" class="edge">
<title>dir_a95f09da6b8dec270c8371625d74a745&#45;&gt;dir_c39a4f2509c0f5c4adeee438ca400d36</title>
<path fill="none" stroke="black" d="M574.36,-103.99C641.18,-101.01 817.88,-90.12 971.88,-51.9"/>
<polygon fill="black" stroke="black" points="973.15,-55.19 981.99,-49.34 971.44,-48.4 973.15,-55.19"/>
<g id="a_edge13&#45;headlabel"><a xlink:href="dir_000015_000005.html" target="_top" xlink:title="1">
<text text-anchor="middle" x="970.37" y="-56.32" font-family="Helvetica,sans-Serif" font-size="10.00">1</text>
</a>
</g>
</g>
</g>
</svg>
