<?xml version="1.0" encoding="UTF-8" standalone="no"?>
<!DOCTYPE svg PUBLIC "-//W3C//DTD SVG 1.1//EN"
 "http://www.w3.org/Graphics/SVG/1.1/DTD/svg11.dtd">
<!-- Generated by graphviz version 2.43.0 (0)
 -->
<!-- Title: include/hmatrix/aca_plus Pages: 1 -->
<svg width="302pt" height="151pt"
 viewBox="0.00 0.00 301.50 151.00" xmlns="http://www.w3.org/2000/svg" xmlns:xlink="http://www.w3.org/1999/xlink">
<g id="graph0" class="graph" transform="scale(1 1) rotate(0) translate(4 147)">
<title>include/hmatrix/aca_plus</title>
<g id="clust1" class="cluster">
<title>clusterdir_73f6c25ff22e453adb4619599a10d18e</title>
<g id="a_clust1"><a xlink:href="dir_73f6c25ff22e453adb4619599a10d18e.html" target="_top" xlink:title="hmatrix">
<polygon fill="#edf0f7" stroke="#7f7f7f" stroke-dasharray="5,2" points="122.5,-64 122.5,-135 194.5,-135 194.5,-64 122.5,-64"/>
<text text-anchor="middle" x="158.5" y="-123" font-family="Helvetica,sans-Serif" font-size="10.00">hmatrix</text>
</a>
</g>
</g>
<!-- dir_50db20f72054ade877dc0beccaac909a -->
<g id="node1" class="node">
<title>dir_50db20f72054ade877dc0beccaac909a</title>
<g id="a_node1"><a xlink:href="dir_50db20f72054ade877dc0beccaac909a.html" target="_top" xlink:title="aca_plus">
<polygon fill="#edf0f7" stroke="#404040" stroke-width="2" points="186.5,-108 130.5,-108 130.5,-72 186.5,-72 186.5,-108"/>
<text text-anchor="middle" x="158.5" y="-87.5" font-family="Helvetica,sans-Serif" font-size="10.00">aca_plus</text>
</a>
</g>
</g>
<!-- dir_08d94101c6095526b8db80c237e9cc42 -->
<g id="node2" class="node">
<title>dir_08d94101c6095526b8db80c237e9cc42</title>
<g id="a_node2"><a xlink:href="dir_08d94101c6095526b8db80c237e9cc42.html" target="_top" xlink:title="linear_algebra">
<polygon fill="none" stroke="#7f7f7f" points="77,-36 0,-36 0,0 77,0 77,-36"/>
<text text-anchor="middle" x="38.5" y="-15.5" font-family="Helvetica,sans-Serif" font-size="10.00">linear_algebra</text>
</a>
</g>
</g>
<!-- dir_50db20f72054ade877dc0beccaac909a&#45;&gt;dir_08d94101c6095526b8db80c237e9cc42 -->
<g id="edge1" class="edge">
<title>dir_50db20f72054ade877dc0beccaac909a&#45;&gt;dir_08d94101c6095526b8db80c237e9cc42</title>
<path fill="none" stroke="black" d="M130.37,-72.59C114.32,-63.23 93.99,-51.37 76.54,-41.19"/>
<polygon fill="black" stroke="black" points="78.11,-38.06 67.71,-36.04 74.59,-44.1 78.11,-38.06"/>
<g id="a_edge1&#45;headlabel"><a xlink:href="dir_000000_000017.html" target="_top" xlink:title="1">
<text text-anchor="middle" x="82.65" y="-34.91" font-family="Helvetica,sans-Serif" font-size="10.00">1</text>
</a>
</g>
</g>
<!-- dir_42a9eb6f13df650b43af55a829870369 -->
<g id="node3" class="node">
<title>dir_42a9eb6f13df650b43af55a829870369</title>
<g id="a_node3"><a xlink:href="dir_42a9eb6f13df650b43af55a829870369.html" target="_top" xlink:title="mapping">
<polygon fill="none" stroke="#7f7f7f" points="149.5,-36 95.5,-36 95.5,0 149.5,0 149.5,-36"/>
<text text-anchor="middle" x="122.5" y="-15.5" font-family="Helvetica,sans-Serif" font-size="10.00">mapping</text>
</a>
</g>
</g>
<!-- dir_50db20f72054ade877dc0beccaac909a&#45;&gt;dir_42a9eb6f13df650b43af55a829870369 -->
<g id="edge2" class="edge">
<title>dir_50db20f72054ade877dc0beccaac909a&#45;&gt;dir_42a9eb6f13df650b43af55a829870369</title>
<path fill="none" stroke="black" d="M149.6,-71.7C145.5,-63.73 140.55,-54.1 136.01,-45.26"/>
<polygon fill="black" stroke="black" points="138.98,-43.4 131.3,-36.1 132.76,-46.6 138.98,-43.4"/>
<g id="a_edge2&#45;headlabel"><a xlink:href="dir_000000_000018.html" target="_top" xlink:title="1">
<text text-anchor="middle" x="143.15" y="-42.79" font-family="Helvetica,sans-Serif" font-size="10.00">1</text>
</a>
</g>
</g>
<!-- dir_52b4106b6168f13dcdf82e33b1d195ee -->
<g id="node4" class="node">
<title>dir_52b4106b6168f13dcdf82e33b1d195ee</title>
<g id="a_node4"><a xlink:href="dir_52b4106b6168f13dcdf82e33b1d195ee.html" target="_top" xlink:title="utilities">
<polygon fill="none" stroke="#7f7f7f" points="221.5,-36 167.5,-36 167.5,0 221.5,0 221.5,-36"/>
<text text-anchor="middle" x="194.5" y="-15.5" font-family="Helvetica,sans-Serif" font-size="10.00">utilities</text>
</a>
</g>
</g>
<!-- dir_50db20f72054ade877dc0beccaac909a&#45;&gt;dir_52b4106b6168f13dcdf82e33b1d195ee -->
<g id="edge3" class="edge">
<title>dir_50db20f72054ade877dc0beccaac909a&#45;&gt;dir_52b4106b6168f13dcdf82e33b1d195ee</title>
<path fill="none" stroke="black" d="M167.4,-71.7C171.5,-63.73 176.45,-54.1 180.99,-45.26"/>
<polygon fill="black" stroke="black" points="184.24,-46.6 185.7,-36.1 178.02,-43.4 184.24,-46.6"/>
<g id="a_edge3&#45;headlabel"><a xlink:href="dir_000000_000028.html" target="_top" xlink:title="4">
<text text-anchor="middle" x="185.12" y="-48.59" font-family="Helvetica,sans-Serif" font-size="10.00">4</text>
</a>
</g>
</g>
<!-- dir_578470d43e13ad95c6c96d14923f0ef8 -->
<g id="node5" class="node">
<title>dir_578470d43e13ad95c6c96d14923f0ef8</title>
<g id="a_node5"><a xlink:href="dir_578470d43e13ad95c6c96d14923f0ef8.html" target="_top" xlink:title="bem">
<polygon fill="none" stroke="#7f7f7f" points="293.5,-36 239.5,-36 239.5,0 293.5,0 293.5,-36"/>
<text text-anchor="middle" x="266.5" y="-15.5" font-family="Helvetica,sans-Serif" font-size="10.00">bem</text>
</a>
</g>
</g>
<!-- dir_50db20f72054ade877dc0beccaac909a&#45;&gt;dir_578470d43e13ad95c6c96d14923f0ef8 -->
<g id="edge4" class="edge">
<title>dir_50db20f72054ade877dc0beccaac909a&#45;&gt;dir_578470d43e13ad95c6c96d14923f0ef8</title>
<path fill="none" stroke="black" d="M184.92,-71.88C198.91,-62.81 216.28,-51.55 231.39,-41.76"/>
<polygon fill="black" stroke="black" points="233.49,-44.57 239.98,-36.19 229.68,-38.69 233.49,-44.57"/>
<g id="a_edge4&#45;headlabel"><a xlink:href="dir_000000_000002.html" target="_top" xlink:title="2">
<text text-anchor="middle" x="232.02" y="-46.4" font-family="Helvetica,sans-Serif" font-size="10.00">2</text>
</a>
</g>
</g>
</g>
</svg>
