<?xml version="1.0" encoding="UTF-8" standalone="no"?>
<!DOCTYPE svg PUBLIC "-//W3C//DTD SVG 1.1//EN"
 "http://www.w3.org/Graphics/SVG/1.1/DTD/svg11.dtd">
<!-- Generated by graphviz version 2.43.0 (0)
 -->
<!-- Title: include/utilities Pages: 1 -->
<svg width="174pt" height="167pt"
 viewBox="0.00 0.00 174.00 167.00" xmlns="http://www.w3.org/2000/svg" xmlns:xlink="http://www.w3.org/1999/xlink">
<g id="graph0" class="graph" transform="scale(1 1) rotate(0) translate(4 163)">
<title>include/utilities</title>
<g id="clust1" class="cluster">
<title>clusterdir_d44c64559bbebec7f509842c48db8b23</title>
<g id="a_clust1"><a xlink:href="dir_d44c64559bbebec7f509842c48db8b23.html" target="_top" xlink:title="include">
<polygon fill="#edf0f7" stroke="#404040" stroke-dasharray="5,2" points="8,-8 8,-151 158,-151 158,-8 8,-8"/>
<text text-anchor="middle" x="83" y="-139" font-family="Helvetica,sans-Serif" font-size="10.00">include</text>
</a>
</g>
</g>
<!-- dir_21460df64e31324d846fd5404a1e25ce -->
<g id="node1" class="node">
<title>dir_21460df64e31324d846fd5404a1e25ce</title>
<g id="a_node1"><a xlink:href="dir_21460df64e31324d846fd5404a1e25ce.html" target="_top" xlink:title="quadrature">
<polygon fill="#a2b4d6" stroke="#404040" points="78,-52 16,-52 16,-16 78,-16 78,-52"/>
<text text-anchor="middle" x="47" y="-31.5" font-family="Helvetica,sans-Serif" font-size="10.00">quadrature</text>
</a>
</g>
</g>
<!-- dir_578470d43e13ad95c6c96d14923f0ef8 -->
<g id="node2" class="node">
<title>dir_578470d43e13ad95c6c96d14923f0ef8</title>
<g id="a_node2"><a xlink:href="dir_578470d43e13ad95c6c96d14923f0ef8.html" target="_top" xlink:title="bem">
<polygon fill="#a2b4d6" stroke="#404040" points="150,-52 96,-52 96,-16 150,-16 150,-52"/>
<text text-anchor="middle" x="123" y="-31.5" font-family="Helvetica,sans-Serif" font-size="10.00">bem</text>
</a>
</g>
</g>
<!-- dir_52b4106b6168f13dcdf82e33b1d195ee -->
<g id="node3" class="node">
<title>dir_52b4106b6168f13dcdf82e33b1d195ee</title>
<g id="a_node3"><a xlink:href="dir_52b4106b6168f13dcdf82e33b1d195ee.html" target="_top" xlink:title="utilities">
<polygon fill="#edf0f7" stroke="#404040" stroke-width="2" points="112,-124 58,-124 58,-88 112,-88 112,-124"/>
<text text-anchor="middle" x="85" y="-103.5" font-family="Helvetica,sans-Serif" font-size="10.00">utilities</text>
</a>
</g>
</g>
<!-- dir_52b4106b6168f13dcdf82e33b1d195ee&#45;&gt;dir_21460df64e31324d846fd5404a1e25ce -->
<g id="edge1" class="edge">
<title>dir_52b4106b6168f13dcdf82e33b1d195ee&#45;&gt;dir_21460df64e31324d846fd5404a1e25ce</title>
<path fill="none" stroke="black" d="M75.61,-87.7C71.24,-79.64 65.94,-69.89 61.1,-60.98"/>
<polygon fill="black" stroke="black" points="64.13,-59.22 56.29,-52.1 57.98,-62.56 64.13,-59.22"/>
<g id="a_edge1&#45;headlabel"><a xlink:href="dir_000028_000023.html" target="_top" xlink:title="2">
<text text-anchor="middle" x="68.34" y="-58.53" font-family="Helvetica,sans-Serif" font-size="10.00">2</text>
</a>
</g>
</g>
<!-- dir_52b4106b6168f13dcdf82e33b1d195ee&#45;&gt;dir_578470d43e13ad95c6c96d14923f0ef8 -->
<g id="edge2" class="edge">
<title>dir_52b4106b6168f13dcdf82e33b1d195ee&#45;&gt;dir_578470d43e13ad95c6c96d14923f0ef8</title>
<path fill="none" stroke="black" d="M94.39,-87.7C98.76,-79.64 104.06,-69.89 108.9,-60.98"/>
<polygon fill="black" stroke="black" points="112.02,-62.56 113.71,-52.1 105.87,-59.22 112.02,-62.56"/>
<g id="a_edge2&#45;headlabel"><a xlink:href="dir_000028_000002.html" target="_top" xlink:title="1">
<text text-anchor="middle" x="112.8" y="-64.58" font-family="Helvetica,sans-Serif" font-size="10.00">1</text>
</a>
</g>
</g>
</g>
</svg>
