<?xml version="1.0" encoding="UTF-8" standalone="no"?>
<!DOCTYPE svg PUBLIC "-//W3C//DTD SVG 1.1//EN"
 "http://www.w3.org/Graphics/SVG/1.1/DTD/svg11.dtd">
<!-- Generated by graphviz version 2.43.0 (0)
 -->
<!-- Title: include/quadrature Pages: 1 -->
<svg width="310pt" height="167pt"
 viewBox="0.00 0.00 310.00 167.00" xmlns="http://www.w3.org/2000/svg" xmlns:xlink="http://www.w3.org/1999/xlink">
<g id="graph0" class="graph" transform="scale(1 1) rotate(0) translate(4 163)">
<title>include/quadrature</title>
<g id="clust1" class="cluster">
<title>clusterdir_d44c64559bbebec7f509842c48db8b23</title>
<g id="a_clust1"><a xlink:href="dir_d44c64559bbebec7f509842c48db8b23.html" target="_top" xlink:title="include">
<polygon fill="#edf0f7" stroke="#404040" stroke-dasharray="5,2" points="8,-8 8,-151 294,-151 294,-8 8,-8"/>
<text text-anchor="middle" x="151" y="-139" font-family="Helvetica,sans-Serif" font-size="10.00">include</text>
</a>
</g>
</g>
<!-- dir_42a9eb6f13df650b43af55a829870369 -->
<g id="node1" class="node">
<title>dir_42a9eb6f13df650b43af55a829870369</title>
<g id="a_node1"><a xlink:href="dir_42a9eb6f13df650b43af55a829870369.html" target="_top" xlink:title="mapping">
<polygon fill="#a2b4d6" stroke="#404040" points="70,-52 16,-52 16,-16 70,-16 70,-52"/>
<text text-anchor="middle" x="43" y="-31.5" font-family="Helvetica,sans-Serif" font-size="10.00">mapping</text>
</a>
</g>
</g>
<!-- dir_52b4106b6168f13dcdf82e33b1d195ee -->
<g id="node2" class="node">
<title>dir_52b4106b6168f13dcdf82e33b1d195ee</title>
<g id="a_node2"><a xlink:href="dir_52b4106b6168f13dcdf82e33b1d195ee.html" target="_top" xlink:title="utilities">
<polygon fill="#a2b4d6" stroke="#404040" points="142,-52 88,-52 88,-16 142,-16 142,-52"/>
<text text-anchor="middle" x="115" y="-31.5" font-family="Helvetica,sans-Serif" font-size="10.00">utilities</text>
</a>
</g>
</g>
<!-- dir_578470d43e13ad95c6c96d14923f0ef8 -->
<g id="node3" class="node">
<title>dir_578470d43e13ad95c6c96d14923f0ef8</title>
<g id="a_node3"><a xlink:href="dir_578470d43e13ad95c6c96d14923f0ef8.html" target="_top" xlink:title="bem">
<polygon fill="#a2b4d6" stroke="#404040" points="214,-52 160,-52 160,-16 214,-16 214,-52"/>
<text text-anchor="middle" x="187" y="-31.5" font-family="Helvetica,sans-Serif" font-size="10.00">bem</text>
</a>
</g>
</g>
<!-- dir_73f6c25ff22e453adb4619599a10d18e -->
<g id="node4" class="node">
<title>dir_73f6c25ff22e453adb4619599a10d18e</title>
<g id="a_node4"><a xlink:href="dir_73f6c25ff22e453adb4619599a10d18e.html" target="_top" xlink:title="hmatrix">
<polygon fill="#a2b4d6" stroke="red" points="286,-52 232,-52 232,-16 286,-16 286,-52"/>
<text text-anchor="middle" x="259" y="-31.5" font-family="Helvetica,sans-Serif" font-size="10.00">hmatrix</text>
</a>
</g>
</g>
<!-- dir_21460df64e31324d846fd5404a1e25ce -->
<g id="node5" class="node">
<title>dir_21460df64e31324d846fd5404a1e25ce</title>
<g id="a_node5"><a xlink:href="dir_21460df64e31324d846fd5404a1e25ce.html" target="_top" xlink:title="quadrature">
<polygon fill="#edf0f7" stroke="#404040" stroke-width="2" points="182,-124 120,-124 120,-88 182,-88 182,-124"/>
<text text-anchor="middle" x="151" y="-103.5" font-family="Helvetica,sans-Serif" font-size="10.00">quadrature</text>
</a>
</g>
</g>
<!-- dir_21460df64e31324d846fd5404a1e25ce&#45;&gt;dir_42a9eb6f13df650b43af55a829870369 -->
<g id="edge1" class="edge">
<title>dir_21460df64e31324d846fd5404a1e25ce&#45;&gt;dir_42a9eb6f13df650b43af55a829870369</title>
<path fill="none" stroke="black" d="M124.58,-87.88C110.59,-78.81 93.22,-67.55 78.11,-57.76"/>
<polygon fill="black" stroke="black" points="79.82,-54.69 69.52,-52.19 76.01,-60.57 79.82,-54.69"/>
<g id="a_edge1&#45;headlabel"><a xlink:href="dir_000023_000018.html" target="_top" xlink:title="1">
<text text-anchor="middle" x="84.38" y="-51.76" font-family="Helvetica,sans-Serif" font-size="10.00">1</text>
</a>
</g>
</g>
<!-- dir_21460df64e31324d846fd5404a1e25ce&#45;&gt;dir_52b4106b6168f13dcdf82e33b1d195ee -->
<g id="edge2" class="edge">
<title>dir_21460df64e31324d846fd5404a1e25ce&#45;&gt;dir_52b4106b6168f13dcdf82e33b1d195ee</title>
<path fill="none" stroke="black" d="M142.1,-87.7C138,-79.73 133.05,-70.1 128.51,-61.26"/>
<polygon fill="black" stroke="black" points="131.48,-59.4 123.8,-52.1 125.26,-62.6 131.48,-59.4"/>
<g id="a_edge2&#45;headlabel"><a xlink:href="dir_000023_000028.html" target="_top" xlink:title="3">
<text text-anchor="middle" x="135.65" y="-58.79" font-family="Helvetica,sans-Serif" font-size="10.00">3</text>
</a>
</g>
</g>
<!-- dir_21460df64e31324d846fd5404a1e25ce&#45;&gt;dir_578470d43e13ad95c6c96d14923f0ef8 -->
<g id="edge3" class="edge">
<title>dir_21460df64e31324d846fd5404a1e25ce&#45;&gt;dir_578470d43e13ad95c6c96d14923f0ef8</title>
<path fill="none" stroke="black" d="M159.9,-87.7C164,-79.73 168.95,-70.1 173.49,-61.26"/>
<polygon fill="black" stroke="black" points="176.74,-62.6 178.2,-52.1 170.52,-59.4 176.74,-62.6"/>
<g id="a_edge3&#45;headlabel"><a xlink:href="dir_000023_000002.html" target="_top" xlink:title="2">
<text text-anchor="middle" x="177.62" y="-64.59" font-family="Helvetica,sans-Serif" font-size="10.00">2</text>
</a>
</g>
</g>
<!-- dir_21460df64e31324d846fd5404a1e25ce&#45;&gt;dir_73f6c25ff22e453adb4619599a10d18e -->
<g id="edge4" class="edge">
<title>dir_21460df64e31324d846fd5404a1e25ce&#45;&gt;dir_73f6c25ff22e453adb4619599a10d18e</title>
<path fill="none" stroke="black" d="M177.42,-87.88C191.41,-78.81 208.78,-67.55 223.89,-57.76"/>
<polygon fill="black" stroke="black" points="225.99,-60.57 232.48,-52.19 222.18,-54.69 225.99,-60.57"/>
<g id="a_edge4&#45;headlabel"><a xlink:href="dir_000023_000012.html" target="_top" xlink:title="1">
<text text-anchor="middle" x="224.52" y="-62.4" font-family="Helvetica,sans-Serif" font-size="10.00">1</text>
</a>
</g>
</g>
</g>
</svg>
