<?xml version="1.0" encoding="UTF-8" standalone="no"?>
<!DOCTYPE svg PUBLIC "-//W3C//DTD SVG 1.1//EN"
 "http://www.w3.org/Graphics/SVG/1.1/DTD/svg11.dtd">
<!-- Generated by graphviz version 2.43.0 (0)
 -->
<!-- Title: include/hmatrix Pages: 1 -->
<svg width="420pt" height="175pt"
 viewBox="0.00 0.00 420.00 175.00" xmlns="http://www.w3.org/2000/svg" xmlns:xlink="http://www.w3.org/1999/xlink">
<g id="graph0" class="graph" transform="scale(1 1) rotate(0) translate(4 171)">
<title>include/hmatrix</title>
<g id="clust1" class="cluster">
<title>clusterdir_d44c64559bbebec7f509842c48db8b23</title>
<g id="a_clust1"><a xlink:href="dir_d44c64559bbebec7f509842c48db8b23.html" target="_top" xlink:title="include">
<polygon fill="#edf0f7" stroke="#404040" stroke-dasharray="5,2" points="8,-8 8,-159 404,-159 404,-8 8,-8"/>
<text text-anchor="middle" x="206" y="-147" font-family="Helvetica,sans-Serif" font-size="10.00">include</text>
</a>
</g>
</g>
<g id="clust2" class="cluster">
<title>clusterdir_73f6c25ff22e453adb4619599a10d18e</title>
<g id="a_clust2"><a xlink:href="dir_73f6c25ff22e453adb4619599a10d18e.html" target="_top">
<polygon fill="#edf0f7" stroke="#404040" stroke-width="2" points="93,-80 93,-132 333,-132 333,-80 93,-80"/>
</a>
</g>
</g>
<!-- dir_08d94101c6095526b8db80c237e9cc42 -->
<g id="node1" class="node">
<title>dir_08d94101c6095526b8db80c237e9cc42</title>
<g id="a_node1"><a xlink:href="dir_08d94101c6095526b8db80c237e9cc42.html" target="_top" xlink:title="linear_algebra">
<polygon fill="#a2b4d6" stroke="#404040" points="251.5,-52 174.5,-52 174.5,-16 251.5,-16 251.5,-52"/>
<text text-anchor="middle" x="213" y="-31.5" font-family="Helvetica,sans-Serif" font-size="10.00">linear_algebra</text>
</a>
</g>
</g>
<!-- dir_42a9eb6f13df650b43af55a829870369 -->
<g id="node2" class="node">
<title>dir_42a9eb6f13df650b43af55a829870369</title>
<g id="a_node2"><a xlink:href="dir_42a9eb6f13df650b43af55a829870369.html" target="_top" xlink:title="mapping">
<polygon fill="#a2b4d6" stroke="#404040" points="396,-52 342,-52 342,-16 396,-16 396,-52"/>
<text text-anchor="middle" x="369" y="-31.5" font-family="Helvetica,sans-Serif" font-size="10.00">mapping</text>
</a>
</g>
</g>
<!-- dir_52b4106b6168f13dcdf82e33b1d195ee -->
<g id="node3" class="node">
<title>dir_52b4106b6168f13dcdf82e33b1d195ee</title>
<g id="a_node3"><a xlink:href="dir_52b4106b6168f13dcdf82e33b1d195ee.html" target="_top" xlink:title="utilities">
<polygon fill="#a2b4d6" stroke="#404040" points="156,-52 102,-52 102,-16 156,-16 156,-52"/>
<text text-anchor="middle" x="129" y="-31.5" font-family="Helvetica,sans-Serif" font-size="10.00">utilities</text>
</a>
</g>
</g>
<!-- dir_578470d43e13ad95c6c96d14923f0ef8 -->
<g id="node4" class="node">
<title>dir_578470d43e13ad95c6c96d14923f0ef8</title>
<g id="a_node4"><a xlink:href="dir_578470d43e13ad95c6c96d14923f0ef8.html" target="_top" xlink:title="bem">
<polygon fill="#a2b4d6" stroke="#404040" points="324,-52 270,-52 270,-16 324,-16 324,-52"/>
<text text-anchor="middle" x="297" y="-31.5" font-family="Helvetica,sans-Serif" font-size="10.00">bem</text>
</a>
</g>
</g>
<!-- dir_c39a4f2509c0f5c4adeee438ca400d36 -->
<g id="node5" class="node">
<title>dir_c39a4f2509c0f5c4adeee438ca400d36</title>
<g id="a_node5"><a xlink:href="dir_c39a4f2509c0f5c4adeee438ca400d36.html" target="_top" xlink:title="cluster_tree">
<polygon fill="#a2b4d6" stroke="#404040" points="84,-52 16,-52 16,-16 84,-16 84,-52"/>
<text text-anchor="middle" x="50" y="-31.5" font-family="Helvetica,sans-Serif" font-size="10.00">cluster_tree</text>
</a>
</g>
</g>
<!-- dir_73f6c25ff22e453adb4619599a10d18e -->
<g id="node6" class="node">
<title>dir_73f6c25ff22e453adb4619599a10d18e</title>
<text text-anchor="middle" x="128" y="-103.5" font-family="Helvetica,sans-Serif" font-size="10.00">hmatrix</text>
</g>
<!-- dir_73f6c25ff22e453adb4619599a10d18e&#45;&gt;dir_08d94101c6095526b8db80c237e9cc42 -->
<g id="edge1" class="edge">
<title>dir_73f6c25ff22e453adb4619599a10d18e&#45;&gt;dir_08d94101c6095526b8db80c237e9cc42</title>
<path fill="none" stroke="black" d="M149.01,-87.7C159.72,-78.88 172.89,-68.03 184.5,-58.47"/>
<polygon fill="black" stroke="black" points="186.74,-61.16 192.23,-52.1 182.29,-55.76 186.74,-61.16"/>
<g id="a_edge1&#45;headlabel"><a xlink:href="dir_000012_000017.html" target="_top" xlink:title="3">
<text text-anchor="middle" x="185.77" y="-63.14" font-family="Helvetica,sans-Serif" font-size="10.00">3</text>
</a>
</g>
</g>
<!-- dir_73f6c25ff22e453adb4619599a10d18e&#45;&gt;dir_52b4106b6168f13dcdf82e33b1d195ee -->
<g id="edge2" class="edge">
<title>dir_73f6c25ff22e453adb4619599a10d18e&#45;&gt;dir_52b4106b6168f13dcdf82e33b1d195ee</title>
<path fill="none" stroke="black" d="M128.25,-87.7C128.36,-79.98 128.49,-70.71 128.61,-62.11"/>
<polygon fill="black" stroke="black" points="132.11,-62.15 128.76,-52.1 125.11,-62.05 132.11,-62.15"/>
<g id="a_edge2&#45;headlabel"><a xlink:href="dir_000012_000028.html" target="_top" xlink:title="6">
<text text-anchor="middle" x="134.9" y="-63.29" font-family="Helvetica,sans-Serif" font-size="10.00">6</text>
</a>
</g>
</g>
<!-- dir_73f6c25ff22e453adb4619599a10d18e&#45;&gt;dir_c39a4f2509c0f5c4adeee438ca400d36 -->
<g id="edge3" class="edge">
<title>dir_73f6c25ff22e453adb4619599a10d18e&#45;&gt;dir_c39a4f2509c0f5c4adeee438ca400d36</title>
<path fill="none" stroke="black" d="M108.72,-87.7C99.08,-79.05 87.27,-68.45 76.77,-59.03"/>
<polygon fill="black" stroke="black" points="78.84,-56.18 69.06,-52.1 74.16,-61.39 78.84,-56.18"/>
<g id="a_edge3&#45;headlabel"><a xlink:href="dir_000012_000005.html" target="_top" xlink:title="2">
<text text-anchor="middle" x="83.41" y="-53.97" font-family="Helvetica,sans-Serif" font-size="10.00">2</text>
</a>
</g>
</g>
<!-- dir_50db20f72054ade877dc0beccaac909a -->
<g id="node7" class="node">
<title>dir_50db20f72054ade877dc0beccaac909a</title>
<g id="a_node7"><a xlink:href="dir_50db20f72054ade877dc0beccaac909a.html" target="_top" xlink:title="aca_plus">
<polygon fill="#a2b4d6" stroke="#404040" points="325,-124 269,-124 269,-88 325,-88 325,-124"/>
<text text-anchor="middle" x="297" y="-103.5" font-family="Helvetica,sans-Serif" font-size="10.00">aca_plus</text>
</a>
</g>
</g>
<!-- dir_50db20f72054ade877dc0beccaac909a&#45;&gt;dir_08d94101c6095526b8db80c237e9cc42 -->
<g id="edge4" class="edge">
<title>dir_50db20f72054ade877dc0beccaac909a&#45;&gt;dir_08d94101c6095526b8db80c237e9cc42</title>
<path fill="none" stroke="black" d="M276.24,-87.7C265.76,-78.97 252.89,-68.24 241.5,-58.75"/>
<polygon fill="black" stroke="black" points="243.45,-55.82 233.53,-52.1 238.97,-61.19 243.45,-55.82"/>
<g id="a_edge4&#45;headlabel"><a xlink:href="dir_000000_000017.html" target="_top" xlink:title="1">
<text text-anchor="middle" x="248.03" y="-53.44" font-family="Helvetica,sans-Serif" font-size="10.00">1</text>
</a>
</g>
</g>
<!-- dir_50db20f72054ade877dc0beccaac909a&#45;&gt;dir_42a9eb6f13df650b43af55a829870369 -->
<g id="edge5" class="edge">
<title>dir_50db20f72054ade877dc0beccaac909a&#45;&gt;dir_42a9eb6f13df650b43af55a829870369</title>
<path fill="none" stroke="black" d="M314.8,-87.7C323.6,-79.14 334.38,-68.66 344,-59.3"/>
<polygon fill="black" stroke="black" points="346.68,-61.58 351.41,-52.1 341.8,-56.57 346.68,-61.58"/>
<g id="a_edge5&#45;headlabel"><a xlink:href="dir_000000_000018.html" target="_top" xlink:title="1">
<text text-anchor="middle" x="346.08" y="-63.63" font-family="Helvetica,sans-Serif" font-size="10.00">1</text>
</a>
</g>
</g>
<!-- dir_50db20f72054ade877dc0beccaac909a&#45;&gt;dir_52b4106b6168f13dcdf82e33b1d195ee -->
<g id="edge6" class="edge">
<title>dir_50db20f72054ade877dc0beccaac909a&#45;&gt;dir_52b4106b6168f13dcdf82e33b1d195ee</title>
<path fill="none" stroke="black" d="M273.75,-87.74C269.32,-84.91 264.63,-82.19 260,-80 220.59,-61.36 206.8,-67.36 166,-52 165.9,-51.96 165.8,-51.93 165.7,-51.89"/>
<polygon fill="black" stroke="black" points="166.88,-48.59 156.3,-48.06 164.24,-55.07 166.88,-48.59"/>
<g id="a_edge6&#45;headlabel"><a xlink:href="dir_000000_000028.html" target="_top" xlink:title="4">
<text text-anchor="middle" x="171.28" y="-44.81" font-family="Helvetica,sans-Serif" font-size="10.00">4</text>
</a>
</g>
</g>
<!-- dir_50db20f72054ade877dc0beccaac909a&#45;&gt;dir_578470d43e13ad95c6c96d14923f0ef8 -->
<g id="edge7" class="edge">
<title>dir_50db20f72054ade877dc0beccaac909a&#45;&gt;dir_578470d43e13ad95c6c96d14923f0ef8</title>
<path fill="none" stroke="black" d="M297,-87.7C297,-79.98 297,-70.71 297,-62.11"/>
<polygon fill="black" stroke="black" points="300.5,-62.1 297,-52.1 293.5,-62.1 300.5,-62.1"/>
<g id="a_edge7&#45;headlabel"><a xlink:href="dir_000000_000002.html" target="_top" xlink:title="2">
<text text-anchor="middle" x="303.34" y="-63.2" font-family="Helvetica,sans-Serif" font-size="10.00">2</text>
</a>
</g>
</g>
<!-- dir_8ccf5314bc497f2a16a10c78456a93ea -->
<g id="node8" class="node">
<title>dir_8ccf5314bc497f2a16a10c78456a93ea</title>
<g id="a_node8"><a xlink:href="dir_8ccf5314bc497f2a16a10c78456a93ea.html" target="_top" xlink:title="preconditioner">
<polygon fill="#a2b4d6" stroke="#404040" points="250.5,-124 173.5,-124 173.5,-88 250.5,-88 250.5,-124"/>
<text text-anchor="middle" x="212" y="-103.5" font-family="Helvetica,sans-Serif" font-size="10.00">preconditioner</text>
</a>
</g>
</g>
<!-- dir_8ccf5314bc497f2a16a10c78456a93ea&#45;&gt;dir_08d94101c6095526b8db80c237e9cc42 -->
<g id="edge8" class="edge">
<title>dir_8ccf5314bc497f2a16a10c78456a93ea&#45;&gt;dir_08d94101c6095526b8db80c237e9cc42</title>
<path fill="none" stroke="black" d="M212.25,-87.7C212.36,-79.98 212.49,-70.71 212.61,-62.11"/>
<polygon fill="black" stroke="black" points="216.11,-62.15 212.76,-52.1 209.11,-62.05 216.11,-62.15"/>
<g id="a_edge8&#45;headlabel"><a xlink:href="dir_000021_000017.html" target="_top" xlink:title="1">
<text text-anchor="middle" x="218.9" y="-63.29" font-family="Helvetica,sans-Serif" font-size="10.00">1</text>
</a>
</g>
</g>
</g>
</svg>
