<?xml version="1.0" encoding="UTF-8" standalone="no"?>
<!DOCTYPE svg PUBLIC "-//W3C//DTD SVG 1.1//EN"
 "http://www.w3.org/Graphics/SVG/1.1/DTD/svg11.dtd">
<!-- Generated by graphviz version 2.43.0 (0)
 -->
<!-- Title: include/dofs/dof_tools_ext.h Pages: 1 -->
<svg width="575pt" height="452pt"
 viewBox="0.00 0.00 574.50 452.00" xmlns="http://www.w3.org/2000/svg" xmlns:xlink="http://www.w3.org/1999/xlink">
<g id="graph0" class="graph" transform="scale(1 1) rotate(0) translate(4 448)">
<title>include/dofs/dof_tools_ext.h</title>
<!-- Node1 -->
<g id="node1" class="node">
<title>Node1</title>
<g id="a_node1"><a xlink:title="Introduction of dof_tools_ext.h.">
<polygon fill="#bfbfbf" stroke="black" points="162,-413.5 162,-443.5 274,-443.5 274,-413.5 162,-413.5"/>
<text text-anchor="start" x="170" y="-431.5" font-family="Helvetica,sans-Serif" font-size="10.00">include/dofs/dof_tools</text>
<text text-anchor="middle" x="218" y="-420.5" font-family="Helvetica,sans-Serif" font-size="10.00">_ext.h</text>
</a>
</g>
</g>
<!-- Node2 -->
<g id="node2" class="node">
<title>Node2</title>
<g id="a_node2"><a xlink:href="bem__general_8hcu_source.html" target="_top" xlink:title=" ">
<polygon fill="none" stroke="black" points="145,-352 145,-371 291,-371 291,-352 145,-352"/>
<text text-anchor="middle" x="218" y="-359" font-family="Helvetica,sans-Serif" font-size="10.00">include/bem/bem_general.hcu</text>
</a>
</g>
</g>
<!-- Node1&#45;&gt;Node2 -->
<g id="edge1" class="edge">
<title>Node1&#45;&gt;Node2</title>
<path fill="none" stroke="midnightblue" d="M218,-403.25C218,-392.02 218,-379.38 218,-371.19"/>
<polygon fill="midnightblue" stroke="midnightblue" points="214.5,-403.4 218,-413.4 221.5,-403.4 214.5,-403.4"/>
</g>
<!-- Node4 -->
<g id="node4" class="node">
<title>Node4</title>
<g id="a_node4"><a xlink:href="laplace__bem_8impl_8hcu_source.html" target="_top" xlink:title=" ">
<polygon fill="none" stroke="black" points="212.5,-67.5 212.5,-97.5 327.5,-97.5 327.5,-67.5 212.5,-67.5"/>
<text text-anchor="start" x="220.5" y="-85.5" font-family="Helvetica,sans-Serif" font-size="10.00">include/laplace/laplace</text>
<text text-anchor="middle" x="270" y="-74.5" font-family="Helvetica,sans-Serif" font-size="10.00">_bem.impl.hcu</text>
</a>
</g>
</g>
<!-- Node1&#45;&gt;Node4 -->
<g id="edge14" class="edge">
<title>Node1&#45;&gt;Node4</title>
<path fill="none" stroke="midnightblue" d="M151.78,-416.26C87.64,-401.13 0,-367.32 0,-295.5 0,-295.5 0,-295.5 0,-221 0,-126.45 133.11,-96.88 212.41,-87.66"/>
<polygon fill="midnightblue" stroke="midnightblue" points="151.33,-419.75 161.86,-418.53 152.87,-412.92 151.33,-419.75"/>
</g>
<!-- Node6 -->
<g id="node6" class="node">
<title>Node6</title>
<g id="a_node6"><a xlink:href="operator__preconditioner_8h.html" target="_top" xlink:title=" ">
<polygon fill="none" stroke="black" points="130.5,-279.5 130.5,-309.5 259.5,-309.5 259.5,-279.5 130.5,-279.5"/>
<text text-anchor="start" x="138.5" y="-297.5" font-family="Helvetica,sans-Serif" font-size="10.00">include/preconditioners</text>
<text text-anchor="middle" x="195" y="-286.5" font-family="Helvetica,sans-Serif" font-size="10.00">/operator_preconditioner.h</text>
</a>
</g>
</g>
<!-- Node1&#45;&gt;Node6 -->
<g id="edge15" class="edge">
<title>Node1&#45;&gt;Node6</title>
<path fill="none" stroke="midnightblue" d="M170.05,-408.79C156.62,-401.07 143.62,-390.65 136,-377 129.28,-364.97 130.24,-358.52 136,-346 143.05,-330.69 157.28,-318.29 170,-309.61"/>
<polygon fill="midnightblue" stroke="midnightblue" points="168.41,-411.88 178.88,-413.48 171.69,-405.7 168.41,-411.88"/>
</g>
<!-- Node8 -->
<g id="node8" class="node">
<title>Node8</title>
<g id="a_node8"><a xlink:href="preconditioner__for__laplace__neumann_8h.html" target="_top" xlink:title=" ">
<polygon fill="none" stroke="black" points="28.5,-201.5 28.5,-242.5 161.5,-242.5 161.5,-201.5 28.5,-201.5"/>
<text text-anchor="start" x="36.5" y="-230.5" font-family="Helvetica,sans-Serif" font-size="10.00">include/preconditioners</text>
<text text-anchor="start" x="36.5" y="-219.5" font-family="Helvetica,sans-Serif" font-size="10.00">/preconditioner_for_laplace</text>
<text text-anchor="middle" x="95" y="-208.5" font-family="Helvetica,sans-Serif" font-size="10.00">_neumann.h</text>
</a>
</g>
</g>
<!-- Node1&#45;&gt;Node8 -->
<g id="edge16" class="edge">
<title>Node1&#45;&gt;Node8</title>
<path fill="none" stroke="midnightblue" d="M167.09,-408.96C152.14,-401.21 137.11,-390.74 127,-377 97.05,-336.31 93.68,-274.01 94.11,-242.58"/>
<polygon fill="midnightblue" stroke="midnightblue" points="165.81,-412.23 176.34,-413.44 168.86,-405.93 165.81,-412.23"/>
</g>
<!-- Node9 -->
<g id="node9" class="node">
<title>Node9</title>
<g id="a_node9"><a xlink:href="ddm__efield_8h.html" target="_top" xlink:title="Introduction of ddm_efield.h.">
<polygon fill="none" stroke="black" points="309.5,-346.5 309.5,-376.5 414.5,-376.5 414.5,-346.5 309.5,-346.5"/>
<text text-anchor="start" x="317.5" y="-364.5" font-family="Helvetica,sans-Serif" font-size="10.00">include/electric_field</text>
<text text-anchor="middle" x="362" y="-353.5" font-family="Helvetica,sans-Serif" font-size="10.00">/ddm_efield.h</text>
</a>
</g>
</g>
<!-- Node1&#45;&gt;Node9 -->
<g id="edge10" class="edge">
<title>Node1&#45;&gt;Node9</title>
<path fill="none" stroke="midnightblue" d="M258.39,-409.27C281.32,-398.92 309.6,-386.15 330.82,-376.58"/>
<polygon fill="midnightblue" stroke="midnightblue" points="256.92,-406.09 249.25,-413.4 259.8,-412.47 256.92,-406.09"/>
</g>
<!-- Node10 -->
<g id="node10" class="node">
<title>Node10</title>
<g id="a_node10"><a xlink:href="laplace__bem_8h.html" target="_top" xlink:title="Implementation of BEM involving kernel functions and singular numerical quadratures.">
<polygon fill="none" stroke="black" points="369.5,-207 369.5,-237 484.5,-237 484.5,-207 369.5,-207"/>
<text text-anchor="start" x="377.5" y="-225" font-family="Helvetica,sans-Serif" font-size="10.00">include/laplace/laplace</text>
<text text-anchor="middle" x="427" y="-214" font-family="Helvetica,sans-Serif" font-size="10.00">_bem.h</text>
</a>
</g>
</g>
<!-- Node1&#45;&gt;Node10 -->
<g id="edge11" class="edge">
<title>Node1&#45;&gt;Node10</title>
<path fill="none" stroke="midnightblue" d="M284.25,-420.01C337.64,-412.46 406.57,-398.78 424,-377 456.92,-335.87 440.95,-266.85 431.84,-237.22"/>
<polygon fill="midnightblue" stroke="midnightblue" points="283.58,-416.57 274.15,-421.39 284.53,-423.51 283.58,-416.57"/>
</g>
<!-- Node11 -->
<g id="node11" class="node">
<title>Node11</title>
<g id="a_node11"><a xlink:href="dof__tools__ext_8cc_source.html" target="_top" xlink:title=" ">
<polygon fill="none" stroke="black" points="471.5,-346.5 471.5,-376.5 566.5,-376.5 566.5,-346.5 471.5,-346.5"/>
<text text-anchor="start" x="479.5" y="-364.5" font-family="Helvetica,sans-Serif" font-size="10.00">src/dofs/dof_tools</text>
<text text-anchor="middle" x="519" y="-353.5" font-family="Helvetica,sans-Serif" font-size="10.00">_ext.cc</text>
</a>
</g>
</g>
<!-- Node1&#45;&gt;Node11 -->
<g id="edge17" class="edge">
<title>Node1&#45;&gt;Node11</title>
<path fill="none" stroke="midnightblue" d="M284.05,-413.94C332.08,-403.99 398.64,-389.99 457,-377 461.64,-375.97 466.47,-374.87 471.3,-373.77"/>
<polygon fill="midnightblue" stroke="midnightblue" points="283.17,-410.55 274.09,-416 284.59,-417.4 283.17,-410.55"/>
</g>
<!-- Node3 -->
<g id="node3" class="node">
<title>Node3</title>
<g id="a_node3"><a xlink:href="laplace__bem_8priv_8hcu_source.html" target="_top" xlink:title=" ">
<polygon fill="none" stroke="black" points="212.5,-134.5 212.5,-164.5 327.5,-164.5 327.5,-134.5 212.5,-134.5"/>
<text text-anchor="start" x="220.5" y="-152.5" font-family="Helvetica,sans-Serif" font-size="10.00">include/laplace/laplace</text>
<text text-anchor="middle" x="270" y="-141.5" font-family="Helvetica,sans-Serif" font-size="10.00">_bem.priv.hcu</text>
</a>
</g>
</g>
<!-- Node2&#45;&gt;Node3 -->
<g id="edge2" class="edge">
<title>Node2&#45;&gt;Node3</title>
<path fill="none" stroke="midnightblue" d="M238.59,-345.68C264.21,-325.76 306.47,-287.65 322,-243 328.13,-225.37 329.27,-218.19 322,-201 315.73,-186.16 302.73,-173.54 291.3,-164.62"/>
<polygon fill="midnightblue" stroke="midnightblue" points="236.16,-343.13 230.29,-351.95 240.38,-348.71 236.16,-343.13"/>
</g>
<!-- Node2&#45;&gt;Node6 -->
<g id="edge5" class="edge">
<title>Node2&#45;&gt;Node6</title>
<path fill="none" stroke="midnightblue" d="M211.48,-342.06C207.83,-331.75 203.35,-319.1 199.99,-309.59"/>
<polygon fill="midnightblue" stroke="midnightblue" points="208.26,-343.47 214.9,-351.73 214.86,-341.14 208.26,-343.47"/>
</g>
<!-- Node3&#45;&gt;Node4 -->
<g id="edge3" class="edge">
<title>Node3&#45;&gt;Node4</title>
<path fill="none" stroke="midnightblue" d="M270,-124.11C270,-115.15 270,-105.32 270,-97.58"/>
<polygon fill="midnightblue" stroke="midnightblue" points="266.5,-124.4 270,-134.4 273.5,-124.4 266.5,-124.4"/>
</g>
<!-- Node5 -->
<g id="node5" class="node">
<title>Node5</title>
<g id="a_node5"><a xlink:href="laplace__bem_8cu_source.html" target="_top" xlink:title=" ">
<polygon fill="none" stroke="black" points="221,-0.5 221,-30.5 319,-30.5 319,-0.5 221,-0.5"/>
<text text-anchor="start" x="229" y="-18.5" font-family="Helvetica,sans-Serif" font-size="10.00">src/laplace/laplace</text>
<text text-anchor="middle" x="270" y="-7.5" font-family="Helvetica,sans-Serif" font-size="10.00">_bem.cu</text>
</a>
</g>
</g>
<!-- Node4&#45;&gt;Node5 -->
<g id="edge4" class="edge">
<title>Node4&#45;&gt;Node5</title>
<path fill="none" stroke="midnightblue" d="M270,-57.11C270,-48.15 270,-38.32 270,-30.58"/>
<polygon fill="midnightblue" stroke="midnightblue" points="266.5,-57.4 270,-67.4 273.5,-57.4 266.5,-57.4"/>
</g>
<!-- Node7 -->
<g id="node7" class="node">
<title>Node7</title>
<g id="a_node7"><a xlink:href="preconditioner__for__laplace__dirichlet_8h.html" target="_top" xlink:title=" ">
<polygon fill="none" stroke="black" points="179.5,-201.5 179.5,-242.5 312.5,-242.5 312.5,-201.5 179.5,-201.5"/>
<text text-anchor="start" x="187.5" y="-230.5" font-family="Helvetica,sans-Serif" font-size="10.00">include/preconditioners</text>
<text text-anchor="start" x="187.5" y="-219.5" font-family="Helvetica,sans-Serif" font-size="10.00">/preconditioner_for_laplace</text>
<text text-anchor="middle" x="246" y="-208.5" font-family="Helvetica,sans-Serif" font-size="10.00">_dirichlet.h</text>
</a>
</g>
</g>
<!-- Node6&#45;&gt;Node7 -->
<g id="edge6" class="edge">
<title>Node6&#45;&gt;Node7</title>
<path fill="none" stroke="midnightblue" d="M211.29,-270.98C217.9,-261.85 225.46,-251.4 231.83,-242.59"/>
<polygon fill="midnightblue" stroke="midnightblue" points="208.35,-269.08 205.32,-279.23 214.02,-273.18 208.35,-269.08"/>
</g>
<!-- Node6&#45;&gt;Node8 -->
<g id="edge8" class="edge">
<title>Node6&#45;&gt;Node8</title>
<path fill="none" stroke="midnightblue" d="M166.22,-273.21C152.56,-263.58 136.31,-252.12 122.79,-242.59"/>
<polygon fill="midnightblue" stroke="midnightblue" points="164.57,-276.33 174.76,-279.23 168.61,-270.61 164.57,-276.33"/>
</g>
<!-- Node7&#45;&gt;Node3 -->
<g id="edge7" class="edge">
<title>Node7&#45;&gt;Node3</title>
<path fill="none" stroke="midnightblue" d="M255.98,-191.67C259.13,-182.42 262.47,-172.61 265.1,-164.89"/>
<polygon fill="midnightblue" stroke="midnightblue" points="252.59,-190.77 252.69,-201.36 259.22,-193.02 252.59,-190.77"/>
</g>
<!-- Node8&#45;&gt;Node3 -->
<g id="edge9" class="edge">
<title>Node8&#45;&gt;Node3</title>
<path fill="none" stroke="midnightblue" d="M153.15,-197.57C180.29,-186.64 211.69,-173.99 235.1,-164.56"/>
<polygon fill="midnightblue" stroke="midnightblue" points="151.71,-194.38 143.75,-201.36 154.33,-200.87 151.71,-194.38"/>
</g>
<!-- Node10&#45;&gt;Node3 -->
<g id="edge13" class="edge">
<title>Node10&#45;&gt;Node3</title>
<path fill="none" stroke="midnightblue" d="M386.22,-202.69C359.72,-190.79 325.71,-175.52 301.34,-164.57"/>
<polygon fill="midnightblue" stroke="midnightblue" points="385.05,-206 395.61,-206.9 387.92,-199.61 385.05,-206"/>
</g>
<!-- Node10&#45;&gt;Node4 -->
<g id="edge12" class="edge">
<title>Node10&#45;&gt;Node4</title>
<path fill="none" stroke="midnightblue" d="M406.41,-199.68C388.6,-181.58 361.86,-155.25 337,-134 321.83,-121.04 303.71,-107.48 290.14,-97.69"/>
<polygon fill="midnightblue" stroke="midnightblue" points="403.97,-202.19 413.47,-206.89 408.98,-197.29 403.97,-202.19"/>
</g>
</g>
</svg>
