<?xml version="1.0" encoding="UTF-8" standalone="no"?>
<!DOCTYPE svg PUBLIC "-//W3C//DTD SVG 1.1//EN"
 "http://www.w3.org/Graphics/SVG/1.1/DTD/svg11.dtd">
<!-- Generated by graphviz version 2.43.0 (0)
 -->
<!-- Title: include/utilities/generic_functors.h Pages: 1 -->
<svg width="1321pt" height="106pt"
 viewBox="0.00 0.00 1320.50 106.00" xmlns="http://www.w3.org/2000/svg" xmlns:xlink="http://www.w3.org/1999/xlink">
<g id="graph0" class="graph" transform="scale(1 1) rotate(0) translate(4 102)">
<title>include/utilities/generic_functors.h</title>
<!-- Node1 -->
<g id="node1" class="node">
<title>Node1</title>
<g id="a_node1"><a xlink:title="This header file contains a set of self&#45;defined generic functors.">
<polygon fill="#bfbfbf" stroke="black" points="753,-67.5 753,-97.5 869,-97.5 869,-67.5 753,-67.5"/>
<text text-anchor="start" x="761" y="-85.5" font-family="Helvetica,sans-Serif" font-size="10.00">include/utilities/generic</text>
<text text-anchor="middle" x="811" y="-74.5" font-family="Helvetica,sans-Serif" font-size="10.00">_functors.h</text>
</a>
</g>
</g>
<!-- Node2 -->
<g id="node2" class="node">
<title>Node2</title>
<g id="a_node2"><a xlink:title=" ">
<polygon fill="none" stroke="#bfbfbf" points="0,-6 0,-25 126,-25 126,-6 0,-6"/>
<text text-anchor="middle" x="63" y="-13" font-family="Helvetica,sans-Serif" font-size="10.00">deal.II/base/exceptions.h</text>
</a>
</g>
</g>
<!-- Node1&#45;&gt;Node2 -->
<g id="edge1" class="edge">
<title>Node1&#45;&gt;Node2</title>
<path fill="none" stroke="midnightblue" d="M752.87,-79.59C635.57,-75.2 362.35,-62.26 135,-31 127.18,-29.93 118.94,-28.52 110.93,-27.01"/>
<polygon fill="midnightblue" stroke="midnightblue" points="111.45,-23.55 100.96,-25.06 110.1,-30.42 111.45,-23.55"/>
</g>
<!-- Node3 -->
<g id="node3" class="node">
<title>Node3</title>
<g id="a_node3"><a xlink:title=" ">
<polygon fill="none" stroke="#bfbfbf" points="144,-6 144,-25 244,-25 244,-6 144,-6"/>
<text text-anchor="middle" x="194" y="-13" font-family="Helvetica,sans-Serif" font-size="10.00">deal.II/base/point.h</text>
</a>
</g>
</g>
<!-- Node1&#45;&gt;Node3 -->
<g id="edge2" class="edge">
<title>Node1&#45;&gt;Node3</title>
<path fill="none" stroke="midnightblue" d="M752.8,-79.12C650.9,-74.32 433.85,-61.23 253,-31 247.14,-30.02 240.99,-28.77 234.98,-27.41"/>
<polygon fill="midnightblue" stroke="midnightblue" points="235.59,-23.96 225.05,-25.06 233.97,-30.77 235.59,-23.96"/>
</g>
<!-- Node4 -->
<g id="node4" class="node">
<title>Node4</title>
<g id="a_node4"><a xlink:title=" ">
<polygon fill="none" stroke="#bfbfbf" points="262,-6 262,-25 368,-25 368,-6 262,-6"/>
<text text-anchor="middle" x="315" y="-13" font-family="Helvetica,sans-Serif" font-size="10.00">deal.II/base/tensor.h</text>
</a>
</g>
</g>
<!-- Node1&#45;&gt;Node4 -->
<g id="edge3" class="edge">
<title>Node1&#45;&gt;Node4</title>
<path fill="none" stroke="midnightblue" d="M752.78,-76.85C669.21,-69.69 510.57,-54.31 377,-31 370.85,-29.93 364.4,-28.62 358.08,-27.24"/>
<polygon fill="midnightblue" stroke="midnightblue" points="358.85,-23.83 348.32,-25.03 357.3,-30.65 358.85,-23.83"/>
</g>
<!-- Node5 -->
<g id="node5" class="node">
<title>Node5</title>
<g id="a_node5"><a xlink:title=" ">
<polygon fill="none" stroke="#bfbfbf" points="386.5,-6 386.5,-25 489.5,-25 489.5,-6 386.5,-6"/>
<text text-anchor="middle" x="438" y="-13" font-family="Helvetica,sans-Serif" font-size="10.00">deal.II/base/types.h</text>
</a>
</g>
</g>
<!-- Node1&#45;&gt;Node5 -->
<g id="edge4" class="edge">
<title>Node1&#45;&gt;Node5</title>
<path fill="none" stroke="midnightblue" d="M752.78,-73.48C689.75,-64.47 586.36,-48.78 498,-31 492.55,-29.9 486.85,-28.66 481.21,-27.36"/>
<polygon fill="midnightblue" stroke="midnightblue" points="481.76,-23.9 471.22,-25.01 480.15,-30.71 481.76,-23.9"/>
</g>
<!-- Node6 -->
<g id="node6" class="node">
<title>Node6</title>
<g id="a_node6"><a xlink:title=" ">
<polygon fill="none" stroke="#bfbfbf" points="507.5,-0.5 507.5,-30.5 598.5,-30.5 598.5,-0.5 507.5,-0.5"/>
<text text-anchor="start" x="515.5" y="-18.5" font-family="Helvetica,sans-Serif" font-size="10.00">deal.II/lac/lapack</text>
<text text-anchor="middle" x="553" y="-7.5" font-family="Helvetica,sans-Serif" font-size="10.00">_support.h</text>
</a>
</g>
</g>
<!-- Node1&#45;&gt;Node6 -->
<g id="edge5" class="edge">
<title>Node1&#45;&gt;Node6</title>
<path fill="none" stroke="midnightblue" d="M753.63,-67.46C715.25,-58.01 663.36,-45.13 608.51,-31.11"/>
<polygon fill="midnightblue" stroke="midnightblue" points="609.16,-27.67 598.61,-28.58 607.43,-34.45 609.16,-27.67"/>
</g>
<!-- Node7 -->
<g id="node7" class="node">
<title>Node7</title>
<g id="a_node7"><a xlink:title=" ">
<polygon fill="none" stroke="#bfbfbf" points="617,-6 617,-25 715,-25 715,-6 617,-6"/>
<text text-anchor="middle" x="666" y="-13" font-family="Helvetica,sans-Serif" font-size="10.00">deal.II/lac/vector.h</text>
</a>
</g>
</g>
<!-- Node1&#45;&gt;Node7 -->
<g id="edge6" class="edge">
<title>Node1&#45;&gt;Node7</title>
<path fill="none" stroke="midnightblue" d="M779.54,-67.4C754.1,-55.99 718.6,-40.08 694.1,-29.1"/>
<polygon fill="midnightblue" stroke="midnightblue" points="695.53,-25.9 684.98,-25.01 692.67,-32.29 695.53,-25.9"/>
</g>
<!-- Node8 -->
<g id="node8" class="node">
<title>Node8</title>
<g id="a_node8"><a xlink:title=" ">
<polygon fill="none" stroke="#bfbfbf" points="733,-6 733,-25 771,-25 771,-6 733,-6"/>
<text text-anchor="middle" x="752" y="-13" font-family="Helvetica,sans-Serif" font-size="10.00">array</text>
</a>
</g>
</g>
<!-- Node1&#45;&gt;Node8 -->
<g id="edge7" class="edge">
<title>Node1&#45;&gt;Node8</title>
<path fill="none" stroke="midnightblue" d="M798.2,-67.4C788.91,-57.16 776.32,-43.3 766.63,-32.62"/>
<polygon fill="midnightblue" stroke="midnightblue" points="769.2,-30.25 759.89,-25.19 764.02,-34.95 769.2,-30.25"/>
</g>
<!-- Node9 -->
<g id="node9" class="node">
<title>Node9</title>
<g id="a_node9"><a xlink:title=" ">
<polygon fill="none" stroke="#bfbfbf" points="789,-6 789,-25 833,-25 833,-6 789,-6"/>
<text text-anchor="middle" x="811" y="-13" font-family="Helvetica,sans-Serif" font-size="10.00">cmath</text>
</a>
</g>
</g>
<!-- Node1&#45;&gt;Node9 -->
<g id="edge8" class="edge">
<title>Node1&#45;&gt;Node9</title>
<path fill="none" stroke="midnightblue" d="M811,-67.4C811,-58.06 811,-45.71 811,-35.52"/>
<polygon fill="midnightblue" stroke="midnightblue" points="814.5,-35.19 811,-25.19 807.5,-35.19 814.5,-35.19"/>
</g>
<!-- Node10 -->
<g id="node10" class="node">
<title>Node10</title>
<g id="a_node10"><a xlink:title=" ">
<polygon fill="none" stroke="#bfbfbf" points="851,-6 851,-25 897,-25 897,-6 851,-6"/>
<text text-anchor="middle" x="874" y="-13" font-family="Helvetica,sans-Serif" font-size="10.00">cstring</text>
</a>
</g>
</g>
<!-- Node1&#45;&gt;Node10 -->
<g id="edge9" class="edge">
<title>Node1&#45;&gt;Node10</title>
<path fill="none" stroke="midnightblue" d="M824.67,-67.4C834.59,-57.16 848.03,-43.3 858.37,-32.62"/>
<polygon fill="midnightblue" stroke="midnightblue" points="861.13,-34.81 865.57,-25.19 856.1,-29.94 861.13,-34.81"/>
</g>
<!-- Node11 -->
<g id="node11" class="node">
<title>Node11</title>
<g id="a_node11"><a xlink:title=" ">
<polygon fill="none" stroke="#bfbfbf" points="915.5,-6 915.5,-25 982.5,-25 982.5,-6 915.5,-6"/>
<text text-anchor="middle" x="949" y="-13" font-family="Helvetica,sans-Serif" font-size="10.00">forward_list</text>
</a>
</g>
</g>
<!-- Node1&#45;&gt;Node11 -->
<g id="edge10" class="edge">
<title>Node1&#45;&gt;Node11</title>
<path fill="none" stroke="midnightblue" d="M840.94,-67.4C864.94,-56.09 898.34,-40.36 921.63,-29.39"/>
<polygon fill="midnightblue" stroke="midnightblue" points="923.38,-32.43 930.94,-25.01 920.4,-26.1 923.38,-32.43"/>
</g>
<!-- Node12 -->
<g id="node12" class="node">
<title>Node12</title>
<g id="a_node12"><a xlink:title=" ">
<polygon fill="none" stroke="#bfbfbf" points="1000.5,-6 1000.5,-25 1047.5,-25 1047.5,-6 1000.5,-6"/>
<text text-anchor="middle" x="1024" y="-13" font-family="Helvetica,sans-Serif" font-size="10.00">iterator</text>
</a>
</g>
</g>
<!-- Node1&#45;&gt;Node12 -->
<g id="edge11" class="edge">
<title>Node1&#45;&gt;Node12</title>
<path fill="none" stroke="midnightblue" d="M869.18,-67.69C905.03,-58.58 951.68,-45.66 992,-31 993.62,-30.41 995.26,-29.78 996.92,-29.12"/>
<polygon fill="midnightblue" stroke="midnightblue" points="998.44,-32.27 1006.26,-25.12 995.69,-25.83 998.44,-32.27"/>
</g>
<!-- Node13 -->
<g id="node13" class="node">
<title>Node13</title>
<g id="a_node13"><a xlink:title=" ">
<polygon fill="none" stroke="#bfbfbf" points="1065.5,-6 1065.5,-25 1100.5,-25 1100.5,-6 1065.5,-6"/>
<text text-anchor="middle" x="1083" y="-13" font-family="Helvetica,sans-Serif" font-size="10.00">map</text>
</a>
</g>
</g>
<!-- Node1&#45;&gt;Node13 -->
<g id="edge12" class="edge">
<title>Node1&#45;&gt;Node13</title>
<path fill="none" stroke="midnightblue" d="M869.05,-74.69C919.8,-67.55 994.88,-54.07 1057,-31 1058.04,-30.61 1059.09,-30.19 1060.14,-29.74"/>
<polygon fill="midnightblue" stroke="midnightblue" points="1061.96,-32.74 1069.34,-25.14 1058.83,-26.48 1061.96,-32.74"/>
</g>
<!-- Node14 -->
<g id="node14" class="node">
<title>Node14</title>
<g id="a_node14"><a xlink:title=" ">
<polygon fill="none" stroke="#bfbfbf" points="1119,-6 1119,-25 1181,-25 1181,-6 1119,-6"/>
<text text-anchor="middle" x="1150" y="-13" font-family="Helvetica,sans-Serif" font-size="10.00">type_traits</text>
</a>
</g>
</g>
<!-- Node1&#45;&gt;Node14 -->
<g id="edge13" class="edge">
<title>Node1&#45;&gt;Node14</title>
<path fill="none" stroke="midnightblue" d="M869.26,-74.82C930,-67.13 1027.66,-52.69 1110,-31 1112.98,-30.22 1116.04,-29.3 1119.09,-28.32"/>
<polygon fill="midnightblue" stroke="midnightblue" points="1120.31,-31.61 1128.64,-25.05 1118.04,-24.98 1120.31,-31.61"/>
</g>
<!-- Node15 -->
<g id="node15" class="node">
<title>Node15</title>
<g id="a_node15"><a xlink:title=" ">
<polygon fill="none" stroke="#bfbfbf" points="1199,-6 1199,-25 1243,-25 1243,-6 1199,-6"/>
<text text-anchor="middle" x="1221" y="-13" font-family="Helvetica,sans-Serif" font-size="10.00">vector</text>
</a>
</g>
</g>
<!-- Node1&#45;&gt;Node15 -->
<g id="edge14" class="edge">
<title>Node1&#45;&gt;Node15</title>
<path fill="none" stroke="midnightblue" d="M869.28,-79.23C944.68,-75.07 1079.48,-63.38 1190,-31 1191.88,-30.45 1193.79,-29.8 1195.7,-29.08"/>
<polygon fill="midnightblue" stroke="midnightblue" points="1197.13,-32.28 1204.95,-25.14 1194.38,-25.84 1197.13,-32.28"/>
</g>
<!-- Node16 -->
<g id="node16" class="node">
<title>Node16</title>
<g id="a_node16"><a xlink:href="config_8h.html" target="_top" xlink:title="Configurations for building the project.">
<polygon fill="none" stroke="black" points="1261.5,-6 1261.5,-25 1312.5,-25 1312.5,-6 1261.5,-6"/>
<text text-anchor="middle" x="1287" y="-13" font-family="Helvetica,sans-Serif" font-size="10.00">config.h</text>
</a>
</g>
</g>
<!-- Node1&#45;&gt;Node16 -->
<g id="edge15" class="edge">
<title>Node1&#45;&gt;Node16</title>
<path fill="none" stroke="midnightblue" d="M869.02,-79.98C954.25,-76.61 1117.72,-65.77 1252,-31 1254.51,-30.35 1257.07,-29.56 1259.61,-28.68"/>
<polygon fill="midnightblue" stroke="midnightblue" points="1261.09,-31.87 1269.16,-25.01 1258.57,-25.33 1261.09,-31.87"/>
</g>
</g>
</svg>
