<?xml version="1.0" encoding="UTF-8" standalone="no"?>
<!DOCTYPE svg PUBLIC "-//W3C//DTD SVG 1.1//EN"
 "http://www.w3.org/Graphics/SVG/1.1/DTD/svg11.dtd">
<!-- Generated by graphviz version 2.43.0 (0)
 -->
<!-- Title: include/exceptions/general_exceptions.h Pages: 1 -->
<svg width="204pt" height="95pt"
 viewBox="0.00 0.00 203.50 95.00" xmlns="http://www.w3.org/2000/svg" xmlns:xlink="http://www.w3.org/1999/xlink">
<g id="graph0" class="graph" transform="scale(1 1) rotate(0) translate(4 91)">
<title>include/exceptions/general_exceptions.h</title>
<!-- Node1 -->
<g id="node1" class="node">
<title>Node1</title>
<g id="a_node1"><a xlink:title="Definition of self&#45;defined general exceptions.">
<polygon fill="#bfbfbf" stroke="black" points="60,-56.5 60,-86.5 172,-86.5 172,-56.5 60,-56.5"/>
<text text-anchor="start" x="68" y="-74.5" font-family="Helvetica,sans-Serif" font-size="10.00">include/exceptions</text>
<text text-anchor="middle" x="116" y="-63.5" font-family="Helvetica,sans-Serif" font-size="10.00">/general_exceptions.h</text>
</a>
</g>
</g>
<!-- Node2 -->
<g id="node2" class="node">
<title>Node2</title>
<g id="a_node2"><a xlink:title=" ">
<polygon fill="none" stroke="#bfbfbf" points="0,-0.5 0,-19.5 126,-19.5 126,-0.5 0,-0.5"/>
<text text-anchor="middle" x="63" y="-7.5" font-family="Helvetica,sans-Serif" font-size="10.00">deal.II/base/exceptions.h</text>
</a>
</g>
</g>
<!-- Node1&#45;&gt;Node2 -->
<g id="edge1" class="edge">
<title>Node1&#45;&gt;Node2</title>
<path fill="none" stroke="midnightblue" d="M103.44,-56.4C95.66,-47.66 85.64,-36.41 77.52,-27.3"/>
<polygon fill="midnightblue" stroke="midnightblue" points="79.98,-24.8 70.71,-19.66 74.75,-29.45 79.98,-24.8"/>
</g>
<!-- Node3 -->
<g id="node3" class="node">
<title>Node3</title>
<g id="a_node3"><a xlink:href="config_8h.html" target="_top" xlink:title="Configurations for building the project.">
<polygon fill="none" stroke="black" points="144.5,-0.5 144.5,-19.5 195.5,-19.5 195.5,-0.5 144.5,-0.5"/>
<text text-anchor="middle" x="170" y="-7.5" font-family="Helvetica,sans-Serif" font-size="10.00">config.h</text>
</a>
</g>
</g>
<!-- Node1&#45;&gt;Node3 -->
<g id="edge2" class="edge">
<title>Node1&#45;&gt;Node3</title>
<path fill="none" stroke="midnightblue" d="M128.8,-56.4C136.72,-47.66 146.94,-36.41 155.21,-27.3"/>
<polygon fill="midnightblue" stroke="midnightblue" points="158.01,-29.42 162.14,-19.66 152.83,-24.71 158.01,-29.42"/>
</g>
</g>
</svg>
