<?xml version="1.0" encoding="UTF-8" standalone="no"?>
<!DOCTYPE svg PUBLIC "-//W3C//DTD SVG 1.1//EN"
 "http://www.w3.org/Graphics/SVG/1.1/DTD/svg11.dtd">
<!-- Generated by graphviz version 2.43.0 (0)
 -->
<!-- Title: include/cad_mesh/gmsh_manipulation.h Pages: 1 -->
<svg width="410pt" height="162pt"
 viewBox="0.00 0.00 410.00 162.00" xmlns="http://www.w3.org/2000/svg" xmlns:xlink="http://www.w3.org/1999/xlink">
<g id="graph0" class="graph" transform="scale(1 1) rotate(0) translate(4 158)">
<title>include/cad_mesh/gmsh_manipulation.h</title>
<!-- Node1 -->
<g id="node1" class="node">
<title>Node1</title>
<g id="a_node1"><a xlink:title="Introduction of gmsh_manipulation.h.">
<polygon fill="#bfbfbf" stroke="black" points="103.5,-123.5 103.5,-153.5 225.5,-153.5 225.5,-123.5 103.5,-123.5"/>
<text text-anchor="start" x="111.5" y="-141.5" font-family="Helvetica,sans-Serif" font-size="10.00">include/cad_mesh/gmsh</text>
<text text-anchor="middle" x="164.5" y="-130.5" font-family="Helvetica,sans-Serif" font-size="10.00">_manipulation.h</text>
</a>
</g>
</g>
<!-- Node2 -->
<g id="node2" class="node">
<title>Node2</title>
<g id="a_node2"><a xlink:title=" ">
<polygon fill="none" stroke="#bfbfbf" points="0,-62 0,-81 49,-81 49,-62 0,-62"/>
<text text-anchor="middle" x="24.5" y="-69" font-family="Helvetica,sans-Serif" font-size="10.00">gmsh.h</text>
</a>
</g>
</g>
<!-- Node1&#45;&gt;Node2 -->
<g id="edge1" class="edge">
<title>Node1&#45;&gt;Node2</title>
<path fill="none" stroke="midnightblue" d="M134.12,-123.4C109.67,-112.04 75.59,-96.22 51.95,-85.24"/>
<polygon fill="midnightblue" stroke="midnightblue" points="53.37,-82.04 42.82,-81.01 50.42,-88.39 53.37,-82.04"/>
</g>
<!-- Node3 -->
<g id="node3" class="node">
<title>Node3</title>
<g id="a_node3"><a xlink:title=" ">
<polygon fill="none" stroke="#bfbfbf" points="67.5,-62 67.5,-81 105.5,-81 105.5,-62 67.5,-62"/>
<text text-anchor="middle" x="86.5" y="-69" font-family="Helvetica,sans-Serif" font-size="10.00">array</text>
</a>
</g>
</g>
<!-- Node1&#45;&gt;Node3 -->
<g id="edge2" class="edge">
<title>Node1&#45;&gt;Node3</title>
<path fill="none" stroke="midnightblue" d="M147.58,-123.4C134.93,-112.86 117.67,-98.48 104.73,-87.69"/>
<polygon fill="midnightblue" stroke="midnightblue" points="106.86,-84.91 96.93,-81.19 102.38,-90.29 106.86,-84.91"/>
</g>
<!-- Node4 -->
<g id="node4" class="node">
<title>Node4</title>
<g id="a_node4"><a xlink:title=" ">
<polygon fill="none" stroke="#bfbfbf" points="124,-62 124,-81 159,-81 159,-62 124,-62"/>
<text text-anchor="middle" x="141.5" y="-69" font-family="Helvetica,sans-Serif" font-size="10.00">map</text>
</a>
</g>
</g>
<!-- Node1&#45;&gt;Node4 -->
<g id="edge3" class="edge">
<title>Node1&#45;&gt;Node4</title>
<path fill="none" stroke="midnightblue" d="M159.51,-123.4C156.14,-113.86 151.65,-101.18 148,-90.86"/>
<polygon fill="midnightblue" stroke="midnightblue" points="151.21,-89.45 144.58,-81.19 144.61,-91.79 151.21,-89.45"/>
</g>
<!-- Node5 -->
<g id="node5" class="node">
<title>Node5</title>
<g id="a_node5"><a xlink:title=" ">
<polygon fill="none" stroke="#bfbfbf" points="144.5,-0.5 144.5,-19.5 188.5,-19.5 188.5,-0.5 144.5,-0.5"/>
<text text-anchor="middle" x="166.5" y="-7.5" font-family="Helvetica,sans-Serif" font-size="10.00">vector</text>
</a>
</g>
</g>
<!-- Node1&#45;&gt;Node5 -->
<g id="edge4" class="edge">
<title>Node1&#45;&gt;Node5</title>
<path fill="none" stroke="midnightblue" d="M165.57,-123.36C166.27,-113.24 167.14,-99.29 167.5,-87 167.91,-73.23 167.65,-69.78 167.5,-56 167.4,-47.4 167.21,-37.87 167.01,-29.8"/>
<polygon fill="midnightblue" stroke="midnightblue" points="170.51,-29.53 166.75,-19.63 163.51,-29.71 170.51,-29.53"/>
</g>
<!-- Node6 -->
<g id="node6" class="node">
<title>Node6</title>
<g id="a_node6"><a xlink:href="config_8h.html" target="_top" xlink:title="Configurations for building the project.">
<polygon fill="none" stroke="black" points="351,-0.5 351,-19.5 402,-19.5 402,-0.5 351,-0.5"/>
<text text-anchor="middle" x="376.5" y="-7.5" font-family="Helvetica,sans-Serif" font-size="10.00">config.h</text>
</a>
</g>
</g>
<!-- Node1&#45;&gt;Node6 -->
<g id="edge5" class="edge">
<title>Node1&#45;&gt;Node6</title>
<path fill="none" stroke="midnightblue" d="M225.56,-130.38C259.92,-123.8 301.92,-111.18 332.5,-87 351.42,-72.04 363.75,-46.56 370.42,-29.26"/>
<polygon fill="midnightblue" stroke="midnightblue" points="373.76,-30.31 373.85,-19.72 367.18,-27.95 373.76,-30.31"/>
</g>
<!-- Node7 -->
<g id="node7" class="node">
<title>Node7</title>
<g id="a_node7"><a xlink:href="vector__arithmetic_8h.html" target="_top" xlink:title="Introduction of vector_arithmetic.h.">
<polygon fill="none" stroke="black" points="216,-56.5 216,-86.5 323,-86.5 323,-56.5 216,-56.5"/>
<text text-anchor="start" x="224" y="-74.5" font-family="Helvetica,sans-Serif" font-size="10.00">linear_algebra/vector</text>
<text text-anchor="middle" x="269.5" y="-63.5" font-family="Helvetica,sans-Serif" font-size="10.00">_arithmetic.h</text>
</a>
</g>
</g>
<!-- Node1&#45;&gt;Node7 -->
<g id="edge6" class="edge">
<title>Node1&#45;&gt;Node7</title>
<path fill="none" stroke="midnightblue" d="M187.28,-123.4C202.14,-114.2 221.74,-102.07 238.07,-91.95"/>
<polygon fill="midnightblue" stroke="midnightblue" points="240.1,-94.82 246.76,-86.58 236.42,-88.86 240.1,-94.82"/>
</g>
<!-- Node7&#45;&gt;Node5 -->
<g id="edge8" class="edge">
<title>Node7&#45;&gt;Node5</title>
<path fill="none" stroke="midnightblue" d="M245.09,-56.4C228.58,-46.86 206.88,-34.32 190.46,-24.84"/>
<polygon fill="midnightblue" stroke="midnightblue" points="191.9,-21.63 181.49,-19.66 188.4,-27.69 191.9,-21.63"/>
</g>
<!-- Node7&#45;&gt;Node6 -->
<g id="edge9" class="edge">
<title>Node7&#45;&gt;Node6</title>
<path fill="none" stroke="midnightblue" d="M294.86,-56.4C312.17,-46.77 334.98,-34.09 352.08,-24.58"/>
<polygon fill="midnightblue" stroke="midnightblue" points="353.89,-27.58 360.93,-19.66 350.49,-21.46 353.89,-27.58"/>
</g>
<!-- Node8 -->
<g id="node8" class="node">
<title>Node8</title>
<g id="a_node8"><a xlink:title=" ">
<polygon fill="none" stroke="#bfbfbf" points="206.5,-0.5 206.5,-19.5 332.5,-19.5 332.5,-0.5 206.5,-0.5"/>
<text text-anchor="middle" x="269.5" y="-7.5" font-family="Helvetica,sans-Serif" font-size="10.00">deal.II/base/exceptions.h</text>
</a>
</g>
</g>
<!-- Node7&#45;&gt;Node8 -->
<g id="edge7" class="edge">
<title>Node7&#45;&gt;Node8</title>
<path fill="none" stroke="midnightblue" d="M269.5,-56.4C269.5,-48.47 269.5,-38.46 269.5,-29.86"/>
<polygon fill="midnightblue" stroke="midnightblue" points="273,-29.66 269.5,-19.66 266,-29.66 273,-29.66"/>
</g>
</g>
</svg>
