<?xml version="1.0" encoding="UTF-8" standalone="no"?>
<!DOCTYPE svg PUBLIC "-//W3C//DTD SVG 1.1//EN"
 "http://www.w3.org/Graphics/SVG/1.1/DTD/svg11.dtd">
<!-- Generated by graphviz version 2.43.0 (0)
 -->
<!-- Title: include/cad_mesh/gmsh_manipulation.h Pages: 1 -->
<svg width="811pt" height="519pt"
 viewBox="0.00 0.00 811.02 519.00" xmlns="http://www.w3.org/2000/svg" xmlns:xlink="http://www.w3.org/1999/xlink">
<g id="graph0" class="graph" transform="scale(1 1) rotate(0) translate(4 515)">
<title>include/cad_mesh/gmsh_manipulation.h</title>
<!-- Node1 -->
<g id="node1" class="node">
<title>Node1</title>
<g id="a_node1"><a xlink:title="Introduction of gmsh_manipulation.h.">
<polygon fill="#bfbfbf" stroke="black" points="204,-480.5 204,-510.5 326,-510.5 326,-480.5 204,-480.5"/>
<text text-anchor="start" x="212" y="-498.5" font-family="Helvetica,sans-Serif" font-size="10.00">include/cad_mesh/gmsh</text>
<text text-anchor="middle" x="265" y="-487.5" font-family="Helvetica,sans-Serif" font-size="10.00">_manipulation.h</text>
</a>
</g>
</g>
<!-- Node2 -->
<g id="node2" class="node">
<title>Node2</title>
<g id="a_node2"><a xlink:href="bem__general_8hcu_source.html" target="_top" xlink:title=" ">
<polygon fill="none" stroke="black" points="142,-352 142,-371 288,-371 288,-352 142,-352"/>
<text text-anchor="middle" x="215" y="-359" font-family="Helvetica,sans-Serif" font-size="10.00">include/bem/bem_general.hcu</text>
</a>
</g>
</g>
<!-- Node1&#45;&gt;Node2 -->
<g id="edge1" class="edge">
<title>Node1&#45;&gt;Node2</title>
<path fill="none" stroke="midnightblue" d="M248.83,-471.67C243.48,-463.28 237.9,-453.5 234,-444 223.62,-418.73 218.24,-386.62 216.11,-371.35"/>
<polygon fill="midnightblue" stroke="midnightblue" points="246.01,-473.75 254.46,-480.14 251.84,-469.88 246.01,-473.75"/>
</g>
<!-- Node3 -->
<g id="node3" class="node">
<title>Node3</title>
<g id="a_node3"><a xlink:href="laplace__bem_8priv_8hcu_source.html" target="_top" xlink:title=" ">
<polygon fill="none" stroke="black" points="204.5,-134.5 204.5,-164.5 319.5,-164.5 319.5,-134.5 204.5,-134.5"/>
<text text-anchor="start" x="212.5" y="-152.5" font-family="Helvetica,sans-Serif" font-size="10.00">include/laplace/laplace</text>
<text text-anchor="middle" x="262" y="-141.5" font-family="Helvetica,sans-Serif" font-size="10.00">_bem.priv.hcu</text>
</a>
</g>
</g>
<!-- Node1&#45;&gt;Node3 -->
<g id="edge29" class="edge">
<title>Node1&#45;&gt;Node3</title>
<path fill="none" stroke="midnightblue" d="M223.96,-475.64C187.79,-456.51 137.47,-423.14 115,-377 79.84,-304.79 98.67,-257.25 156,-201 172.81,-184.51 196.02,-172.62 216.45,-164.54"/>
<polygon fill="midnightblue" stroke="midnightblue" points="222.79,-478.97 233.28,-480.43 225.98,-472.75 222.79,-478.97"/>
</g>
<!-- Node4 -->
<g id="node4" class="node">
<title>Node4</title>
<g id="a_node4"><a xlink:href="laplace__bem_8impl_8hcu_source.html" target="_top" xlink:title=" ">
<polygon fill="none" stroke="black" points="204.5,-67.5 204.5,-97.5 319.5,-97.5 319.5,-67.5 204.5,-67.5"/>
<text text-anchor="start" x="212.5" y="-85.5" font-family="Helvetica,sans-Serif" font-size="10.00">include/laplace/laplace</text>
<text text-anchor="middle" x="262" y="-74.5" font-family="Helvetica,sans-Serif" font-size="10.00">_bem.impl.hcu</text>
</a>
</g>
</g>
<!-- Node1&#45;&gt;Node4 -->
<g id="edge28" class="edge">
<title>Node1&#45;&gt;Node4</title>
<path fill="none" stroke="midnightblue" d="M193.53,-489.16C115.05,-478.95 0,-449.2 0,-362.5 0,-362.5 0,-362.5 0,-221 0,-129.43 127.02,-98.72 204.18,-88.51"/>
<polygon fill="midnightblue" stroke="midnightblue" points="193.52,-492.69 203.87,-490.43 194.37,-485.74 193.52,-492.69"/>
</g>
<!-- Node9 -->
<g id="node9" class="node">
<title>Node9</title>
<g id="a_node9"><a xlink:href="subdomain__topology_8h.html" target="_top" xlink:title="Introduction of subdomain_topology.h.">
<polygon fill="none" stroke="black" points="243,-413.5 243,-443.5 389,-443.5 389,-413.5 243,-413.5"/>
<text text-anchor="start" x="251" y="-431.5" font-family="Helvetica,sans-Serif" font-size="10.00">include/cad_mesh/subdomain</text>
<text text-anchor="middle" x="316" y="-420.5" font-family="Helvetica,sans-Serif" font-size="10.00">_topology.h</text>
</a>
</g>
</g>
<!-- Node1&#45;&gt;Node9 -->
<g id="edge10" class="edge">
<title>Node1&#45;&gt;Node9</title>
<path fill="none" stroke="midnightblue" d="M282.3,-472.45C289.79,-462.9 298.34,-452 304.96,-443.58"/>
<polygon fill="midnightblue" stroke="midnightblue" points="279.49,-470.37 276.07,-480.4 284.99,-474.69 279.49,-470.37"/>
</g>
<!-- Node11 -->
<g id="node11" class="node">
<title>Node11</title>
<g id="a_node11"><a xlink:href="laplace__bem_8h.html" target="_top" xlink:title="Implementation of BEM involving kernel functions and singular numerical quadratures.">
<polygon fill="none" stroke="black" points="544.5,-346.5 544.5,-376.5 659.5,-376.5 659.5,-346.5 544.5,-346.5"/>
<text text-anchor="start" x="552.5" y="-364.5" font-family="Helvetica,sans-Serif" font-size="10.00">include/laplace/laplace</text>
<text text-anchor="middle" x="602" y="-353.5" font-family="Helvetica,sans-Serif" font-size="10.00">_bem.h</text>
</a>
</g>
</g>
<!-- Node1&#45;&gt;Node11 -->
<g id="edge27" class="edge">
<title>Node1&#45;&gt;Node11</title>
<path fill="none" stroke="midnightblue" d="M336.19,-488.78C409.78,-481.7 518.62,-467.6 553,-444 576.96,-427.56 591.13,-395.2 597.65,-376.59"/>
<polygon fill="midnightblue" stroke="midnightblue" points="335.68,-485.32 326.05,-489.74 336.33,-492.29 335.68,-485.32"/>
</g>
<!-- Node12 -->
<g id="node12" class="node">
<title>Node12</title>
<g id="a_node12"><a xlink:href="dof__tools__ext_8h.html" target="_top" xlink:title="Introduction of dof_tools_ext.h.">
<polygon fill="none" stroke="black" points="432,-413.5 432,-443.5 544,-443.5 544,-413.5 432,-413.5"/>
<text text-anchor="start" x="440" y="-431.5" font-family="Helvetica,sans-Serif" font-size="10.00">include/dofs/dof_tools</text>
<text text-anchor="middle" x="488" y="-420.5" font-family="Helvetica,sans-Serif" font-size="10.00">_ext.h</text>
</a>
</g>
</g>
<!-- Node1&#45;&gt;Node12 -->
<g id="edge19" class="edge">
<title>Node1&#45;&gt;Node12</title>
<path fill="none" stroke="midnightblue" d="M323.05,-477.58C359.27,-467.02 405.35,-453.59 439.59,-443.61"/>
<polygon fill="midnightblue" stroke="midnightblue" points="321.73,-474.32 313.11,-480.48 323.69,-481.04 321.73,-474.32"/>
</g>
<!-- Node2&#45;&gt;Node3 -->
<g id="edge2" class="edge">
<title>Node2&#45;&gt;Node3</title>
<path fill="none" stroke="midnightblue" d="M215.16,-341.61C215.9,-311.26 219.4,-250.07 235,-201 239.1,-188.11 246.46,-174.67 252.46,-164.89"/>
<polygon fill="midnightblue" stroke="midnightblue" points="211.65,-341.91 214.99,-351.97 218.65,-342.02 211.65,-341.91"/>
</g>
<!-- Node6 -->
<g id="node6" class="node">
<title>Node6</title>
<g id="a_node6"><a xlink:href="operator__preconditioner_8h.html" target="_top" xlink:title=" ">
<polygon fill="none" stroke="black" points="251.5,-279.5 251.5,-309.5 380.5,-309.5 380.5,-279.5 251.5,-279.5"/>
<text text-anchor="start" x="259.5" y="-297.5" font-family="Helvetica,sans-Serif" font-size="10.00">include/preconditioners</text>
<text text-anchor="middle" x="316" y="-286.5" font-family="Helvetica,sans-Serif" font-size="10.00">/operator_preconditioner.h</text>
</a>
</g>
</g>
<!-- Node2&#45;&gt;Node6 -->
<g id="edge5" class="edge">
<title>Node2&#45;&gt;Node6</title>
<path fill="none" stroke="midnightblue" d="M237.29,-346.15C254.2,-335.27 277.3,-320.4 294.11,-309.59"/>
<polygon fill="midnightblue" stroke="midnightblue" points="235.14,-343.38 228.62,-351.73 238.92,-349.27 235.14,-343.38"/>
</g>
<!-- Node3&#45;&gt;Node4 -->
<g id="edge3" class="edge">
<title>Node3&#45;&gt;Node4</title>
<path fill="none" stroke="midnightblue" d="M262,-124.11C262,-115.15 262,-105.32 262,-97.58"/>
<polygon fill="midnightblue" stroke="midnightblue" points="258.5,-124.4 262,-134.4 265.5,-124.4 258.5,-124.4"/>
</g>
<!-- Node5 -->
<g id="node5" class="node">
<title>Node5</title>
<g id="a_node5"><a xlink:href="laplace__bem_8cu_source.html" target="_top" xlink:title=" ">
<polygon fill="none" stroke="black" points="213,-0.5 213,-30.5 311,-30.5 311,-0.5 213,-0.5"/>
<text text-anchor="start" x="221" y="-18.5" font-family="Helvetica,sans-Serif" font-size="10.00">src/laplace/laplace</text>
<text text-anchor="middle" x="262" y="-7.5" font-family="Helvetica,sans-Serif" font-size="10.00">_bem.cu</text>
</a>
</g>
</g>
<!-- Node4&#45;&gt;Node5 -->
<g id="edge4" class="edge">
<title>Node4&#45;&gt;Node5</title>
<path fill="none" stroke="midnightblue" d="M262,-57.11C262,-48.15 262,-38.32 262,-30.58"/>
<polygon fill="midnightblue" stroke="midnightblue" points="258.5,-57.4 262,-67.4 265.5,-57.4 258.5,-57.4"/>
</g>
<!-- Node7 -->
<g id="node7" class="node">
<title>Node7</title>
<g id="a_node7"><a xlink:href="preconditioner__for__laplace__dirichlet_8h.html" target="_top" xlink:title=" ">
<polygon fill="none" stroke="black" points="243.5,-201.5 243.5,-242.5 376.5,-242.5 376.5,-201.5 243.5,-201.5"/>
<text text-anchor="start" x="251.5" y="-230.5" font-family="Helvetica,sans-Serif" font-size="10.00">include/preconditioners</text>
<text text-anchor="start" x="251.5" y="-219.5" font-family="Helvetica,sans-Serif" font-size="10.00">/preconditioner_for_laplace</text>
<text text-anchor="middle" x="310" y="-208.5" font-family="Helvetica,sans-Serif" font-size="10.00">_dirichlet.h</text>
</a>
</g>
</g>
<!-- Node6&#45;&gt;Node7 -->
<g id="edge6" class="edge">
<title>Node6&#45;&gt;Node7</title>
<path fill="none" stroke="midnightblue" d="M313.94,-269.27C313.2,-260.56 312.37,-250.85 311.67,-242.59"/>
<polygon fill="midnightblue" stroke="midnightblue" points="310.45,-269.57 314.79,-279.23 317.43,-268.97 310.45,-269.57"/>
</g>
<!-- Node8 -->
<g id="node8" class="node">
<title>Node8</title>
<g id="a_node8"><a xlink:href="preconditioner__for__laplace__neumann_8h.html" target="_top" xlink:title=" ">
<polygon fill="none" stroke="black" points="394.5,-201.5 394.5,-242.5 527.5,-242.5 527.5,-201.5 394.5,-201.5"/>
<text text-anchor="start" x="402.5" y="-230.5" font-family="Helvetica,sans-Serif" font-size="10.00">include/preconditioners</text>
<text text-anchor="start" x="402.5" y="-219.5" font-family="Helvetica,sans-Serif" font-size="10.00">/preconditioner_for_laplace</text>
<text text-anchor="middle" x="461" y="-208.5" font-family="Helvetica,sans-Serif" font-size="10.00">_neumann.h</text>
</a>
</g>
</g>
<!-- Node6&#45;&gt;Node8 -->
<g id="edge8" class="edge">
<title>Node6&#45;&gt;Node8</title>
<path fill="none" stroke="midnightblue" d="M354.06,-275C374.6,-265.01 399.94,-252.69 420.8,-242.55"/>
<polygon fill="midnightblue" stroke="midnightblue" points="352.46,-271.88 344.99,-279.4 355.52,-278.18 352.46,-271.88"/>
</g>
<!-- Node7&#45;&gt;Node3 -->
<g id="edge7" class="edge">
<title>Node7&#45;&gt;Node3</title>
<path fill="none" stroke="midnightblue" d="M290.83,-192.85C284.31,-183.26 277.28,-172.94 271.8,-164.89"/>
<polygon fill="midnightblue" stroke="midnightblue" points="288.11,-195.07 296.63,-201.36 293.89,-191.13 288.11,-195.07"/>
</g>
<!-- Node8&#45;&gt;Node3 -->
<g id="edge9" class="edge">
<title>Node8&#45;&gt;Node3</title>
<path fill="none" stroke="midnightblue" d="M396.35,-198.1C365.19,-187.06 328.83,-174.17 301.79,-164.6"/>
<polygon fill="midnightblue" stroke="midnightblue" points="395.24,-201.42 405.83,-201.46 397.57,-194.82 395.24,-201.42"/>
</g>
<!-- Node9&#45;&gt;Node2 -->
<g id="edge11" class="edge">
<title>Node9&#45;&gt;Node2</title>
<path fill="none" stroke="midnightblue" d="M285.66,-407.97C266.51,-395.65 242.73,-380.35 228.22,-371.01"/>
<polygon fill="midnightblue" stroke="midnightblue" points="283.78,-410.93 294.08,-413.4 287.57,-405.04 283.78,-410.93"/>
</g>
<!-- Node9&#45;&gt;Node3 -->
<g id="edge17" class="edge">
<title>Node9&#45;&gt;Node3</title>
<path fill="none" stroke="midnightblue" d="M232.46,-414.51C190.37,-406.08 145.62,-393.57 133,-377 76.53,-302.83 194.47,-201.36 242.7,-164.56"/>
<polygon fill="midnightblue" stroke="midnightblue" points="232.03,-417.99 242.51,-416.46 233.36,-411.12 232.03,-417.99"/>
</g>
<!-- Node9&#45;&gt;Node4 -->
<g id="edge16" class="edge">
<title>Node9&#45;&gt;Node4</title>
<path fill="none" stroke="midnightblue" d="M232.93,-417.02C184.4,-409 129.85,-396.05 115,-377 44.99,-287.23 120.26,-218.99 196,-134 208.67,-119.78 225.82,-106.8 239.47,-97.56"/>
<polygon fill="midnightblue" stroke="midnightblue" points="232.44,-420.49 242.86,-418.61 233.54,-413.57 232.44,-420.49"/>
</g>
<!-- Node9&#45;&gt;Node6 -->
<g id="edge18" class="edge">
<title>Node9&#45;&gt;Node6</title>
<path fill="none" stroke="midnightblue" d="M316,-403.02C316,-375.51 316,-331.79 316,-309.52"/>
<polygon fill="midnightblue" stroke="midnightblue" points="312.5,-403.37 316,-413.37 319.5,-403.37 312.5,-403.37"/>
</g>
<!-- Node10 -->
<g id="node10" class="node">
<title>Node10</title>
<g id="a_node10"><a xlink:href="ddm__efield_8h.html" target="_top" xlink:title="Introduction of ddm_efield.h.">
<polygon fill="none" stroke="black" points="344.5,-346.5 344.5,-376.5 449.5,-376.5 449.5,-346.5 344.5,-346.5"/>
<text text-anchor="start" x="352.5" y="-364.5" font-family="Helvetica,sans-Serif" font-size="10.00">include/electric_field</text>
<text text-anchor="middle" x="397" y="-353.5" font-family="Helvetica,sans-Serif" font-size="10.00">/ddm_efield.h</text>
</a>
</g>
</g>
<!-- Node9&#45;&gt;Node10 -->
<g id="edge12" class="edge">
<title>Node9&#45;&gt;Node10</title>
<path fill="none" stroke="midnightblue" d="M341.69,-406.88C354,-397.01 368.43,-385.43 379.46,-376.58"/>
<polygon fill="midnightblue" stroke="midnightblue" points="339.18,-404.41 333.58,-413.4 343.57,-409.87 339.18,-404.41"/>
</g>
<!-- Node9&#45;&gt;Node11 -->
<g id="edge13" class="edge">
<title>Node9&#45;&gt;Node11</title>
<path fill="none" stroke="midnightblue" d="M387.49,-411.25C435.92,-400.25 499.08,-385.89 544.3,-375.61"/>
<polygon fill="midnightblue" stroke="midnightblue" points="386.68,-407.85 377.71,-413.48 388.23,-414.67 386.68,-407.85"/>
</g>
<!-- Node11&#45;&gt;Node3 -->
<g id="edge15" class="edge">
<title>Node11&#45;&gt;Node3</title>
<path fill="none" stroke="midnightblue" d="M593.75,-336.77C578.88,-294.57 548.09,-210.02 537,-201 504.42,-174.51 390.29,-160.76 319.7,-154.63"/>
<polygon fill="midnightblue" stroke="midnightblue" points="590.48,-338 597.09,-346.28 597.08,-335.68 590.48,-338"/>
</g>
<!-- Node11&#45;&gt;Node4 -->
<g id="edge14" class="edge">
<title>Node11&#45;&gt;Node4</title>
<path fill="none" stroke="midnightblue" d="M602.61,-336.35C602.14,-301.84 596.12,-238.45 561,-201 496.53,-132.24 386.87,-103.06 319.79,-91.16"/>
<polygon fill="midnightblue" stroke="midnightblue" points="599.11,-336.47 602.6,-346.47 606.11,-336.48 599.11,-336.47"/>
</g>
<!-- Node12&#45;&gt;Node2 -->
<g id="edge20" class="edge">
<title>Node12&#45;&gt;Node2</title>
<path fill="none" stroke="midnightblue" d="M421.96,-411.78C368.12,-398.96 294.13,-381.34 250.75,-371.01"/>
<polygon fill="midnightblue" stroke="midnightblue" points="421.23,-415.2 431.77,-414.11 422.85,-408.39 421.23,-415.2"/>
</g>
<!-- Node12&#45;&gt;Node4 -->
<g id="edge23" class="edge">
<title>Node12&#45;&gt;Node4</title>
<path fill="none" stroke="midnightblue" d="M554.25,-424.46C630.67,-419.57 749.95,-407.22 782,-377 809.06,-351.49 801,-332.69 801,-295.5 801,-295.5 801,-295.5 801,-221 801,-122.5 458.73,-93.67 319.68,-86.02"/>
<polygon fill="midnightblue" stroke="midnightblue" points="553.99,-420.97 544.23,-425.08 554.42,-427.96 553.99,-420.97"/>
</g>
<!-- Node12&#45;&gt;Node6 -->
<g id="edge24" class="edge">
<title>Node12&#45;&gt;Node6</title>
<path fill="none" stroke="midnightblue" d="M485.05,-403.41C481.65,-385.41 474.39,-361.36 459,-346 438.03,-325.08 407.88,-312.79 380.66,-305.59"/>
<polygon fill="midnightblue" stroke="midnightblue" points="481.62,-404.14 486.67,-413.45 488.53,-403.02 481.62,-404.14"/>
</g>
<!-- Node12&#45;&gt;Node8 -->
<g id="edge25" class="edge">
<title>Node12&#45;&gt;Node8</title>
<path fill="none" stroke="midnightblue" d="M486.81,-403.08C485.87,-386.86 484.33,-365.11 482,-346 477.52,-309.23 469.65,-266.7 464.93,-242.51"/>
<polygon fill="midnightblue" stroke="midnightblue" points="483.33,-403.53 487.37,-413.33 490.32,-403.15 483.33,-403.53"/>
</g>
<!-- Node12&#45;&gt;Node10 -->
<g id="edge21" class="edge">
<title>Node12&#45;&gt;Node10</title>
<path fill="none" stroke="midnightblue" d="M459.93,-407.45C445.93,-397.45 429.34,-385.6 416.71,-376.58"/>
<polygon fill="midnightblue" stroke="midnightblue" points="458.08,-410.43 468.25,-413.4 462.15,-404.74 458.08,-410.43"/>
</g>
<!-- Node12&#45;&gt;Node11 -->
<g id="edge22" class="edge">
<title>Node12&#45;&gt;Node11</title>
<path fill="none" stroke="midnightblue" d="M521.68,-408.3C539.52,-398.12 561.04,-385.85 577.31,-376.58"/>
<polygon fill="midnightblue" stroke="midnightblue" points="519.69,-405.4 512.74,-413.4 523.16,-411.48 519.69,-405.4"/>
</g>
<!-- Node13 -->
<g id="node13" class="node">
<title>Node13</title>
<g id="a_node13"><a xlink:href="dof__tools__ext_8cc_source.html" target="_top" xlink:title=" ">
<polygon fill="none" stroke="black" points="677.5,-346.5 677.5,-376.5 772.5,-376.5 772.5,-346.5 677.5,-346.5"/>
<text text-anchor="start" x="685.5" y="-364.5" font-family="Helvetica,sans-Serif" font-size="10.00">src/dofs/dof_tools</text>
<text text-anchor="middle" x="725" y="-353.5" font-family="Helvetica,sans-Serif" font-size="10.00">_ext.cc</text>
</a>
</g>
</g>
<!-- Node12&#45;&gt;Node13 -->
<g id="edge26" class="edge">
<title>Node12&#45;&gt;Node13</title>
<path fill="none" stroke="midnightblue" d="M549.01,-410.77C588.9,-399.83 640.26,-385.74 677.19,-375.61"/>
<polygon fill="midnightblue" stroke="midnightblue" points="547.85,-407.46 539.13,-413.48 549.7,-414.21 547.85,-407.46"/>
</g>
</g>
</svg>
