<?xml version="1.0" encoding="UTF-8" standalone="no"?>
<!DOCTYPE svg PUBLIC "-//W3C//DTD SVG 1.1//EN"
 "http://www.w3.org/Graphics/SVG/1.1/DTD/svg11.dtd">
<!-- Generated by graphviz version 2.43.0 (0)
 -->
<!-- Title: include/grid/grid_in_ext.h Pages: 1 -->
<svg width="921pt" height="95pt"
 viewBox="0.00 0.00 920.50 95.00" xmlns="http://www.w3.org/2000/svg" xmlns:xlink="http://www.w3.org/1999/xlink">
<g id="graph0" class="graph" transform="scale(1 1) rotate(0) translate(4 91)">
<title>include/grid/grid_in_ext.h</title>
<!-- Node1 -->
<g id="node1" class="node">
<title>Node1</title>
<g id="a_node1"><a xlink:title="Introduction of grid_in_ext.h.">
<polygon fill="#bfbfbf" stroke="black" points="465,-56.5 465,-86.5 563,-86.5 563,-56.5 465,-56.5"/>
<text text-anchor="start" x="473" y="-74.5" font-family="Helvetica,sans-Serif" font-size="10.00">include/grid/grid_in</text>
<text text-anchor="middle" x="514" y="-63.5" font-family="Helvetica,sans-Serif" font-size="10.00">_ext.h</text>
</a>
</g>
</g>
<!-- Node2 -->
<g id="node2" class="node">
<title>Node2</title>
<g id="a_node2"><a xlink:title=" ">
<polygon fill="none" stroke="#bfbfbf" points="0,-0.5 0,-19.5 126,-19.5 126,-0.5 0,-0.5"/>
<text text-anchor="middle" x="63" y="-7.5" font-family="Helvetica,sans-Serif" font-size="10.00">deal.II/base/exceptions.h</text>
</a>
</g>
</g>
<!-- Node1&#45;&gt;Node2 -->
<g id="edge1" class="edge">
<title>Node1&#45;&gt;Node2</title>
<path fill="none" stroke="midnightblue" d="M464.88,-64.02C385.55,-53.55 228.8,-32.87 136.25,-20.66"/>
<polygon fill="midnightblue" stroke="midnightblue" points="136.49,-17.17 126.12,-19.33 135.57,-24.11 136.49,-17.17"/>
</g>
<!-- Node3 -->
<g id="node3" class="node">
<title>Node3</title>
<g id="a_node3"><a xlink:title=" ">
<polygon fill="none" stroke="#bfbfbf" points="144,-0.5 144,-19.5 258,-19.5 258,-0.5 144,-0.5"/>
<text text-anchor="middle" x="201" y="-7.5" font-family="Helvetica,sans-Serif" font-size="10.00">deal.II/base/patterns.h</text>
</a>
</g>
</g>
<!-- Node1&#45;&gt;Node3 -->
<g id="edge2" class="edge">
<title>Node1&#45;&gt;Node3</title>
<path fill="none" stroke="midnightblue" d="M464.75,-61.14C407.95,-50.34 314.84,-32.64 255.8,-21.42"/>
<polygon fill="midnightblue" stroke="midnightblue" points="256.38,-17.97 245.91,-19.54 255.08,-24.84 256.38,-17.97"/>
</g>
<!-- Node4 -->
<g id="node4" class="node">
<title>Node4</title>
<g id="a_node4"><a xlink:title=" ">
<polygon fill="none" stroke="#bfbfbf" points="276,-0.5 276,-19.5 378,-19.5 378,-0.5 276,-0.5"/>
<text text-anchor="middle" x="327" y="-7.5" font-family="Helvetica,sans-Serif" font-size="10.00">deal.II/grid/grid_in.h</text>
</a>
</g>
</g>
<!-- Node1&#45;&gt;Node4 -->
<g id="edge3" class="edge">
<title>Node1&#45;&gt;Node4</title>
<path fill="none" stroke="midnightblue" d="M469.68,-56.4C437.37,-46.12 394.1,-32.35 363.71,-22.68"/>
<polygon fill="midnightblue" stroke="midnightblue" points="364.53,-19.27 353.94,-19.57 362.41,-25.94 364.53,-19.27"/>
</g>
<!-- Node5 -->
<g id="node5" class="node">
<title>Node5</title>
<g id="a_node5"><a xlink:title=" ">
<polygon fill="none" stroke="#bfbfbf" points="396,-0.5 396,-19.5 512,-19.5 512,-0.5 396,-0.5"/>
<text text-anchor="middle" x="454" y="-7.5" font-family="Helvetica,sans-Serif" font-size="10.00">deal.II/grid/grid_tools.h</text>
</a>
</g>
</g>
<!-- Node1&#45;&gt;Node5 -->
<g id="edge4" class="edge">
<title>Node1&#45;&gt;Node5</title>
<path fill="none" stroke="midnightblue" d="M499.78,-56.4C490.79,-47.49 479.16,-35.95 469.87,-26.74"/>
<polygon fill="midnightblue" stroke="midnightblue" points="472.3,-24.21 462.73,-19.66 467.37,-29.18 472.3,-24.21"/>
</g>
<!-- Node6 -->
<g id="node6" class="node">
<title>Node6</title>
<g id="a_node6"><a xlink:title=" ">
<polygon fill="none" stroke="#bfbfbf" points="530.5,-0.5 530.5,-19.5 617.5,-19.5 617.5,-0.5 530.5,-0.5"/>
<text text-anchor="middle" x="574" y="-7.5" font-family="Helvetica,sans-Serif" font-size="10.00">deal.II/grid/tria.h</text>
</a>
</g>
</g>
<!-- Node1&#45;&gt;Node6 -->
<g id="edge5" class="edge">
<title>Node1&#45;&gt;Node6</title>
<path fill="none" stroke="midnightblue" d="M528.22,-56.4C537.21,-47.49 548.84,-35.95 558.13,-26.74"/>
<polygon fill="midnightblue" stroke="midnightblue" points="560.63,-29.18 565.27,-19.66 555.7,-24.21 560.63,-29.18"/>
</g>
<!-- Node7 -->
<g id="node7" class="node">
<title>Node7</title>
<g id="a_node7"><a xlink:title=" ">
<polygon fill="none" stroke="#bfbfbf" points="636,-0.5 636,-19.5 776,-19.5 776,-0.5 636,-0.5"/>
<text text-anchor="middle" x="706" y="-7.5" font-family="Helvetica,sans-Serif" font-size="10.00">deal.II/grid/tria_description.h</text>
</a>
</g>
</g>
<!-- Node1&#45;&gt;Node7 -->
<g id="edge6" class="edge">
<title>Node1&#45;&gt;Node7</title>
<path fill="none" stroke="midnightblue" d="M559.5,-56.4C592.82,-46.07 637.49,-32.23 668.71,-22.56"/>
<polygon fill="midnightblue" stroke="midnightblue" points="669.83,-25.87 678.34,-19.57 667.75,-19.19 669.83,-25.87"/>
</g>
<!-- Node8 -->
<g id="node8" class="node">
<title>Node8</title>
<g id="a_node8"><a xlink:title=" ">
<polygon fill="none" stroke="#bfbfbf" points="794.5,-0.5 794.5,-19.5 843.5,-19.5 843.5,-0.5 794.5,-0.5"/>
<text text-anchor="middle" x="819" y="-7.5" font-family="Helvetica,sans-Serif" font-size="10.00">gmsh.h</text>
</a>
</g>
</g>
<!-- Node1&#45;&gt;Node8 -->
<g id="edge7" class="edge">
<title>Node1&#45;&gt;Node8</title>
<path fill="none" stroke="midnightblue" d="M563.18,-62.47C615.58,-53.66 701.14,-38.55 784.3,-20.02"/>
<polygon fill="midnightblue" stroke="midnightblue" points="785.18,-23.41 794.17,-17.8 783.65,-16.58 785.18,-23.41"/>
</g>
<!-- Node9 -->
<g id="node9" class="node">
<title>Node9</title>
<g id="a_node9"><a xlink:href="config_8h.html" target="_top" xlink:title="Configurations for building the project.">
<polygon fill="none" stroke="black" points="861.5,-0.5 861.5,-19.5 912.5,-19.5 912.5,-0.5 861.5,-0.5"/>
<text text-anchor="middle" x="887" y="-7.5" font-family="Helvetica,sans-Serif" font-size="10.00">config.h</text>
</a>
</g>
</g>
<!-- Node1&#45;&gt;Node9 -->
<g id="edge8" class="edge">
<title>Node1&#45;&gt;Node9</title>
<path fill="none" stroke="midnightblue" d="M563.14,-64.92C627.35,-57.24 743.42,-42.04 851.37,-20.16"/>
<polygon fill="midnightblue" stroke="midnightblue" points="852.36,-23.53 861.45,-18.09 850.95,-16.67 852.36,-23.53"/>
</g>
</g>
</svg>
