<?xml version="1.0" encoding="UTF-8" standalone="no"?>
<!DOCTYPE svg PUBLIC "-//W3C//DTD SVG 1.1//EN"
 "http://www.w3.org/Graphics/SVG/1.1/DTD/svg11.dtd">
<!-- Generated by graphviz version 2.43.0 (0)
 -->
<!-- Title: include/grid/grid_out_ext.h Pages: 1 -->
<svg width="747pt" height="95pt"
 viewBox="0.00 0.00 746.50 95.00" xmlns="http://www.w3.org/2000/svg" xmlns:xlink="http://www.w3.org/1999/xlink">
<g id="graph0" class="graph" transform="scale(1 1) rotate(0) translate(4 91)">
<title>include/grid/grid_out_ext.h</title>
<!-- Node1 -->
<g id="node1" class="node">
<title>Node1</title>
<g id="a_node1"><a xlink:title="Introduction of grid_out_ext.h.">
<polygon fill="#bfbfbf" stroke="black" points="423,-56.5 423,-86.5 527,-86.5 527,-56.5 423,-56.5"/>
<text text-anchor="start" x="431" y="-74.5" font-family="Helvetica,sans-Serif" font-size="10.00">include/grid/grid_out</text>
<text text-anchor="middle" x="475" y="-63.5" font-family="Helvetica,sans-Serif" font-size="10.00">_ext.h</text>
</a>
</g>
</g>
<!-- Node2 -->
<g id="node2" class="node">
<title>Node2</title>
<g id="a_node2"><a xlink:title=" ">
<polygon fill="none" stroke="#bfbfbf" points="0,-0.5 0,-19.5 126,-19.5 126,-0.5 0,-0.5"/>
<text text-anchor="middle" x="63" y="-7.5" font-family="Helvetica,sans-Serif" font-size="10.00">deal.II/base/exceptions.h</text>
</a>
</g>
</g>
<!-- Node1&#45;&gt;Node2 -->
<g id="edge1" class="edge">
<title>Node1&#45;&gt;Node2</title>
<path fill="none" stroke="midnightblue" d="M422.82,-62.96C349.03,-52.31 214.06,-32.82 132.04,-20.97"/>
<polygon fill="midnightblue" stroke="midnightblue" points="132.46,-17.5 122.07,-19.53 131.46,-24.42 132.46,-17.5"/>
</g>
<!-- Node3 -->
<g id="node3" class="node">
<title>Node3</title>
<g id="a_node3"><a xlink:title=" ">
<polygon fill="none" stroke="#bfbfbf" points="144,-0.5 144,-19.5 244,-19.5 244,-0.5 144,-0.5"/>
<text text-anchor="middle" x="194" y="-7.5" font-family="Helvetica,sans-Serif" font-size="10.00">deal.II/base/point.h</text>
</a>
</g>
</g>
<!-- Node1&#45;&gt;Node3 -->
<g id="edge2" class="edge">
<title>Node1&#45;&gt;Node3</title>
<path fill="none" stroke="midnightblue" d="M422.8,-59.45C371.87,-48.66 294.91,-32.37 244.55,-21.7"/>
<polygon fill="midnightblue" stroke="midnightblue" points="245.04,-18.23 234.54,-19.58 243.59,-25.08 245.04,-18.23"/>
</g>
<!-- Node4 -->
<g id="node4" class="node">
<title>Node4</title>
<g id="a_node4"><a xlink:title=" ">
<polygon fill="none" stroke="#bfbfbf" points="262,-0.5 262,-19.5 370,-19.5 370,-0.5 262,-0.5"/>
<text text-anchor="middle" x="316" y="-7.5" font-family="Helvetica,sans-Serif" font-size="10.00">deal.II/grid/grid_out.h</text>
</a>
</g>
</g>
<!-- Node1&#45;&gt;Node4 -->
<g id="edge3" class="edge">
<title>Node1&#45;&gt;Node4</title>
<path fill="none" stroke="midnightblue" d="M437.32,-56.4C410.4,-46.33 374.55,-32.91 348.81,-23.28"/>
<polygon fill="midnightblue" stroke="midnightblue" points="349.73,-19.88 339.14,-19.66 347.27,-26.44 349.73,-19.88"/>
</g>
<!-- Node5 -->
<g id="node5" class="node">
<title>Node5</title>
<g id="a_node5"><a xlink:title=" ">
<polygon fill="none" stroke="#bfbfbf" points="388.5,-0.5 388.5,-19.5 475.5,-19.5 475.5,-0.5 388.5,-0.5"/>
<text text-anchor="middle" x="432" y="-7.5" font-family="Helvetica,sans-Serif" font-size="10.00">deal.II/grid/tria.h</text>
</a>
</g>
</g>
<!-- Node1&#45;&gt;Node5 -->
<g id="edge4" class="edge">
<title>Node1&#45;&gt;Node5</title>
<path fill="none" stroke="midnightblue" d="M464.81,-56.4C458.63,-47.84 450.7,-36.87 444.18,-27.86"/>
<polygon fill="midnightblue" stroke="midnightblue" points="446.95,-25.71 438.26,-19.66 441.28,-29.81 446.95,-25.71"/>
</g>
<!-- Node6 -->
<g id="node6" class="node">
<title>Node6</title>
<g id="a_node6"><a xlink:title=" ">
<polygon fill="none" stroke="#bfbfbf" points="494,-0.5 494,-19.5 544,-19.5 544,-0.5 494,-0.5"/>
<text text-anchor="middle" x="519" y="-7.5" font-family="Helvetica,sans-Serif" font-size="10.00">fstream</text>
</a>
</g>
</g>
<!-- Node1&#45;&gt;Node6 -->
<g id="edge5" class="edge">
<title>Node1&#45;&gt;Node6</title>
<path fill="none" stroke="midnightblue" d="M485.43,-56.4C491.76,-47.84 499.87,-36.87 506.53,-27.86"/>
<polygon fill="midnightblue" stroke="midnightblue" points="509.47,-29.78 512.6,-19.66 503.84,-25.62 509.47,-29.78"/>
</g>
<!-- Node7 -->
<g id="node7" class="node">
<title>Node7</title>
<g id="a_node7"><a xlink:title=" ">
<polygon fill="none" stroke="#bfbfbf" points="562,-0.5 562,-19.5 616,-19.5 616,-0.5 562,-0.5"/>
<text text-anchor="middle" x="589" y="-7.5" font-family="Helvetica,sans-Serif" font-size="10.00">iostream</text>
</a>
</g>
</g>
<!-- Node1&#45;&gt;Node7 -->
<g id="edge6" class="edge">
<title>Node1&#45;&gt;Node7</title>
<path fill="none" stroke="midnightblue" d="M502.02,-56.4C520.63,-46.68 545.21,-33.86 563.49,-24.31"/>
<polygon fill="midnightblue" stroke="midnightblue" points="565.17,-27.39 572.41,-19.66 561.93,-21.18 565.17,-27.39"/>
</g>
<!-- Node8 -->
<g id="node8" class="node">
<title>Node8</title>
<g id="a_node8"><a xlink:title=" ">
<polygon fill="none" stroke="#bfbfbf" points="634.5,-0.5 634.5,-19.5 669.5,-19.5 669.5,-0.5 634.5,-0.5"/>
<text text-anchor="middle" x="652" y="-7.5" font-family="Helvetica,sans-Serif" font-size="10.00">map</text>
</a>
</g>
</g>
<!-- Node1&#45;&gt;Node8 -->
<g id="edge7" class="edge">
<title>Node1&#45;&gt;Node8</title>
<path fill="none" stroke="midnightblue" d="M516.95,-56.4C550.27,-45.2 595.9,-29.86 624.67,-20.19"/>
<polygon fill="midnightblue" stroke="midnightblue" points="626.08,-23.41 634.45,-16.9 623.85,-16.77 626.08,-23.41"/>
</g>
<!-- Node9 -->
<g id="node9" class="node">
<title>Node9</title>
<g id="a_node9"><a xlink:href="config_8h.html" target="_top" xlink:title="Configurations for building the project.">
<polygon fill="none" stroke="black" points="687.5,-0.5 687.5,-19.5 738.5,-19.5 738.5,-0.5 687.5,-0.5"/>
<text text-anchor="middle" x="713" y="-7.5" font-family="Helvetica,sans-Serif" font-size="10.00">config.h</text>
</a>
</g>
</g>
<!-- Node1&#45;&gt;Node9 -->
<g id="edge8" class="edge">
<title>Node1&#45;&gt;Node9</title>
<path fill="none" stroke="midnightblue" d="M527.04,-57.86C566.04,-48.33 620.99,-34.8 677.56,-20.34"/>
<polygon fill="midnightblue" stroke="midnightblue" points="678.57,-23.7 687.39,-17.83 676.84,-16.92 678.57,-23.7"/>
</g>
</g>
</svg>
