<?xml version="1.0" encoding="UTF-8" standalone="no"?>
<!DOCTYPE svg PUBLIC "-//W3C//DTD SVG 1.1//EN"
 "http://www.w3.org/Graphics/SVG/1.1/DTD/svg11.dtd">
<!-- Generated by graphviz version 2.43.0 (0)
 -->
<!-- Title: include/grid/grid_out_ext.h Pages: 1 -->
<svg width="454pt" height="385pt"
 viewBox="0.00 0.00 454.00 385.00" xmlns="http://www.w3.org/2000/svg" xmlns:xlink="http://www.w3.org/1999/xlink">
<g id="graph0" class="graph" transform="scale(1 1) rotate(0) translate(4 381)">
<title>include/grid/grid_out_ext.h</title>
<!-- Node1 -->
<g id="node1" class="node">
<title>Node1</title>
<g id="a_node1"><a xlink:title="Introduction of grid_out_ext.h.">
<polygon fill="#bfbfbf" stroke="black" points="81.5,-346.5 81.5,-376.5 185.5,-376.5 185.5,-346.5 81.5,-346.5"/>
<text text-anchor="start" x="89.5" y="-364.5" font-family="Helvetica,sans-Serif" font-size="10.00">include/grid/grid_out</text>
<text text-anchor="middle" x="133.5" y="-353.5" font-family="Helvetica,sans-Serif" font-size="10.00">_ext.h</text>
</a>
</g>
</g>
<!-- Node2 -->
<g id="node2" class="node">
<title>Node2</title>
<g id="a_node2"><a xlink:href="ddm__efield_8h.html" target="_top" xlink:title="Introduction of ddm_efield.h.">
<polygon fill="none" stroke="black" points="0,-279.5 0,-309.5 105,-309.5 105,-279.5 0,-279.5"/>
<text text-anchor="start" x="8" y="-297.5" font-family="Helvetica,sans-Serif" font-size="10.00">include/electric_field</text>
<text text-anchor="middle" x="52.5" y="-286.5" font-family="Helvetica,sans-Serif" font-size="10.00">/ddm_efield.h</text>
</a>
</g>
</g>
<!-- Node1&#45;&gt;Node2 -->
<g id="edge1" class="edge">
<title>Node1&#45;&gt;Node2</title>
<path fill="none" stroke="midnightblue" d="M107.81,-339.88C95.5,-330.01 81.07,-318.43 70.04,-309.58"/>
<polygon fill="midnightblue" stroke="midnightblue" points="105.93,-342.87 115.92,-346.4 110.32,-337.41 105.93,-342.87"/>
</g>
<!-- Node3 -->
<g id="node3" class="node">
<title>Node3</title>
<g id="a_node3"><a xlink:href="laplace__bem_8priv_8hcu_source.html" target="_top" xlink:title=" ">
<polygon fill="none" stroke="black" points="171,-134.5 171,-164.5 286,-164.5 286,-134.5 171,-134.5"/>
<text text-anchor="start" x="179" y="-152.5" font-family="Helvetica,sans-Serif" font-size="10.00">include/laplace/laplace</text>
<text text-anchor="middle" x="228.5" y="-141.5" font-family="Helvetica,sans-Serif" font-size="10.00">_bem.priv.hcu</text>
</a>
</g>
</g>
<!-- Node1&#45;&gt;Node3 -->
<g id="edge2" class="edge">
<title>Node1&#45;&gt;Node3</title>
<path fill="none" stroke="midnightblue" d="M130.42,-336.31C127.46,-303.19 126.64,-243.04 152.5,-201 162.38,-184.94 179.49,-172.9 194.98,-164.61"/>
<polygon fill="midnightblue" stroke="midnightblue" points="126.96,-336.86 131.48,-346.45 133.92,-336.14 126.96,-336.86"/>
</g>
<!-- Node6 -->
<g id="node6" class="node">
<title>Node6</title>
<g id="a_node6"><a xlink:href="operator__preconditioner_8h.html" target="_top" xlink:title=" ">
<polygon fill="none" stroke="black" points="164,-279.5 164,-309.5 293,-309.5 293,-279.5 164,-279.5"/>
<text text-anchor="start" x="172" y="-297.5" font-family="Helvetica,sans-Serif" font-size="10.00">include/preconditioners</text>
<text text-anchor="middle" x="228.5" y="-286.5" font-family="Helvetica,sans-Serif" font-size="10.00">/operator_preconditioner.h</text>
</a>
</g>
</g>
<!-- Node1&#45;&gt;Node6 -->
<g id="edge5" class="edge">
<title>Node1&#45;&gt;Node6</title>
<path fill="none" stroke="midnightblue" d="M162.39,-340.73C177.09,-330.68 194.61,-318.68 207.93,-309.58"/>
<polygon fill="midnightblue" stroke="midnightblue" points="160.39,-337.86 154.11,-346.4 164.34,-343.64 160.39,-337.86"/>
</g>
<!-- Node4 -->
<g id="node4" class="node">
<title>Node4</title>
<g id="a_node4"><a xlink:href="laplace__bem_8impl_8hcu_source.html" target="_top" xlink:title=" ">
<polygon fill="none" stroke="black" points="171,-67.5 171,-97.5 286,-97.5 286,-67.5 171,-67.5"/>
<text text-anchor="start" x="179" y="-85.5" font-family="Helvetica,sans-Serif" font-size="10.00">include/laplace/laplace</text>
<text text-anchor="middle" x="228.5" y="-74.5" font-family="Helvetica,sans-Serif" font-size="10.00">_bem.impl.hcu</text>
</a>
</g>
</g>
<!-- Node3&#45;&gt;Node4 -->
<g id="edge3" class="edge">
<title>Node3&#45;&gt;Node4</title>
<path fill="none" stroke="midnightblue" d="M228.5,-124.11C228.5,-115.15 228.5,-105.32 228.5,-97.58"/>
<polygon fill="midnightblue" stroke="midnightblue" points="225,-124.4 228.5,-134.4 232,-124.4 225,-124.4"/>
</g>
<!-- Node5 -->
<g id="node5" class="node">
<title>Node5</title>
<g id="a_node5"><a xlink:href="laplace__bem_8cu_source.html" target="_top" xlink:title=" ">
<polygon fill="none" stroke="black" points="179.5,-0.5 179.5,-30.5 277.5,-30.5 277.5,-0.5 179.5,-0.5"/>
<text text-anchor="start" x="187.5" y="-18.5" font-family="Helvetica,sans-Serif" font-size="10.00">src/laplace/laplace</text>
<text text-anchor="middle" x="228.5" y="-7.5" font-family="Helvetica,sans-Serif" font-size="10.00">_bem.cu</text>
</a>
</g>
</g>
<!-- Node4&#45;&gt;Node5 -->
<g id="edge4" class="edge">
<title>Node4&#45;&gt;Node5</title>
<path fill="none" stroke="midnightblue" d="M228.5,-57.11C228.5,-48.15 228.5,-38.32 228.5,-30.58"/>
<polygon fill="midnightblue" stroke="midnightblue" points="225,-57.4 228.5,-67.4 232,-57.4 225,-57.4"/>
</g>
<!-- Node7 -->
<g id="node7" class="node">
<title>Node7</title>
<g id="a_node7"><a xlink:href="preconditioner__for__laplace__dirichlet_8h.html" target="_top" xlink:title=" ">
<polygon fill="none" stroke="black" points="162,-201.5 162,-242.5 295,-242.5 295,-201.5 162,-201.5"/>
<text text-anchor="start" x="170" y="-230.5" font-family="Helvetica,sans-Serif" font-size="10.00">include/preconditioners</text>
<text text-anchor="start" x="170" y="-219.5" font-family="Helvetica,sans-Serif" font-size="10.00">/preconditioner_for_laplace</text>
<text text-anchor="middle" x="228.5" y="-208.5" font-family="Helvetica,sans-Serif" font-size="10.00">_dirichlet.h</text>
</a>
</g>
</g>
<!-- Node6&#45;&gt;Node7 -->
<g id="edge6" class="edge">
<title>Node6&#45;&gt;Node7</title>
<path fill="none" stroke="midnightblue" d="M228.5,-268.98C228.5,-260.35 228.5,-250.76 228.5,-242.59"/>
<polygon fill="midnightblue" stroke="midnightblue" points="225,-269.23 228.5,-279.23 232,-269.23 225,-269.23"/>
</g>
<!-- Node8 -->
<g id="node8" class="node">
<title>Node8</title>
<g id="a_node8"><a xlink:href="preconditioner__for__laplace__neumann_8h.html" target="_top" xlink:title=" ">
<polygon fill="none" stroke="black" points="313,-201.5 313,-242.5 446,-242.5 446,-201.5 313,-201.5"/>
<text text-anchor="start" x="321" y="-230.5" font-family="Helvetica,sans-Serif" font-size="10.00">include/preconditioners</text>
<text text-anchor="start" x="321" y="-219.5" font-family="Helvetica,sans-Serif" font-size="10.00">/preconditioner_for_laplace</text>
<text text-anchor="middle" x="379.5" y="-208.5" font-family="Helvetica,sans-Serif" font-size="10.00">_neumann.h</text>
</a>
</g>
</g>
<!-- Node6&#45;&gt;Node8 -->
<g id="edge8" class="edge">
<title>Node6&#45;&gt;Node8</title>
<path fill="none" stroke="midnightblue" d="M267.85,-275.13C289.28,-265.12 315.82,-252.73 337.63,-242.55"/>
<polygon fill="midnightblue" stroke="midnightblue" points="266.27,-272 258.69,-279.4 269.24,-278.34 266.27,-272"/>
</g>
<!-- Node7&#45;&gt;Node3 -->
<g id="edge7" class="edge">
<title>Node7&#45;&gt;Node3</title>
<path fill="none" stroke="midnightblue" d="M228.5,-191.08C228.5,-182.01 228.5,-172.45 228.5,-164.89"/>
<polygon fill="midnightblue" stroke="midnightblue" points="225,-191.36 228.5,-201.36 232,-191.36 225,-191.36"/>
</g>
<!-- Node8&#45;&gt;Node3 -->
<g id="edge9" class="edge">
<title>Node8&#45;&gt;Node3</title>
<path fill="none" stroke="midnightblue" d="M328.13,-197.02C305.08,-186.25 278.68,-173.93 258.85,-164.67"/>
<polygon fill="midnightblue" stroke="midnightblue" points="326.9,-200.3 337.44,-201.36 329.86,-193.96 326.9,-200.3"/>
</g>
</g>
</svg>
