<?xml version="1.0" encoding="UTF-8" standalone="no"?>
<!DOCTYPE svg PUBLIC "-//W3C//DTD SVG 1.1//EN"
 "http://www.w3.org/Graphics/SVG/1.1/DTD/svg11.dtd">
<!-- Generated by graphviz version 2.43.0 (0)
 -->
<!-- Title: include/hmatrix/hmatrix_support.h Pages: 1 -->
<svg width="1304pt" height="664pt"
 viewBox="0.00 0.00 1304.00 664.00" xmlns="http://www.w3.org/2000/svg" xmlns:xlink="http://www.w3.org/1999/xlink">
<g id="graph0" class="graph" transform="scale(1 1) rotate(0) translate(4 660)">
<title>include/hmatrix/hmatrix_support.h</title>
<!-- Node1 -->
<g id="node1" class="node">
<title>Node1</title>
<g id="a_node1"><a xlink:title="Adapted from deal.ii/lac/lapack_support.h and define some features for an &#45;matrix.">
<polygon fill="#bfbfbf" stroke="black" points="917.5,-625.5 917.5,-655.5 1035.5,-655.5 1035.5,-625.5 917.5,-625.5"/>
<text text-anchor="start" x="925.5" y="-643.5" font-family="Helvetica,sans-Serif" font-size="10.00">include/hmatrix/hmatrix</text>
<text text-anchor="middle" x="976.5" y="-632.5" font-family="Helvetica,sans-Serif" font-size="10.00">_support.h</text>
</a>
</g>
</g>
<!-- Node2 -->
<g id="node2" class="node">
<title>Node2</title>
<g id="a_node2"><a xlink:href="hmatrix_8h.html" target="_top" xlink:title="Definition of hierarchical matrix.">
<polygon fill="none" stroke="black" points="628.5,-502.5 628.5,-521.5 754.5,-521.5 754.5,-502.5 628.5,-502.5"/>
<text text-anchor="middle" x="691.5" y="-509.5" font-family="Helvetica,sans-Serif" font-size="10.00">include/hmatrix/hmatrix.h</text>
</a>
</g>
</g>
<!-- Node1&#45;&gt;Node2 -->
<g id="edge1" class="edge">
<title>Node1&#45;&gt;Node2</title>
<path fill="none" stroke="midnightblue" d="M935.77,-621.42C873.49,-593.78 756.99,-542.07 710.94,-521.63"/>
<polygon fill="midnightblue" stroke="midnightblue" points="934.35,-624.62 944.91,-625.48 937.19,-618.22 934.35,-624.62"/>
</g>
<!-- Node24 -->
<g id="node24" class="node">
<title>Node24</title>
<g id="a_node24"><a xlink:href="hmatrix__vmult__strategy_8h.html" target="_top" xlink:title="Strategies for top level H&#45;matrix/vector multiplications, namely, vmult , Tvmult ,...">
<polygon fill="none" stroke="black" points="917.5,-558.5 917.5,-588.5 1035.5,-588.5 1035.5,-558.5 917.5,-558.5"/>
<text text-anchor="start" x="925.5" y="-576.5" font-family="Helvetica,sans-Serif" font-size="10.00">include/hmatrix/hmatrix</text>
<text text-anchor="middle" x="976.5" y="-565.5" font-family="Helvetica,sans-Serif" font-size="10.00">_vmult_strategy.h</text>
</a>
</g>
</g>
<!-- Node1&#45;&gt;Node24 -->
<g id="edge39" class="edge">
<title>Node1&#45;&gt;Node24</title>
<path fill="none" stroke="midnightblue" d="M976.5,-615.11C976.5,-606.15 976.5,-596.32 976.5,-588.58"/>
<polygon fill="midnightblue" stroke="midnightblue" points="973,-615.4 976.5,-625.4 980,-615.4 973,-615.4"/>
</g>
<!-- Node26 -->
<g id="node26" class="node">
<title>Node26</title>
<g id="a_node26"><a xlink:href="hmatrix__support_8cc.html" target="_top" xlink:title="Implementation of helper functions declared in hmatrix_support.h.">
<polygon fill="none" stroke="black" points="1054,-558.5 1054,-588.5 1155,-588.5 1155,-558.5 1054,-558.5"/>
<text text-anchor="start" x="1062" y="-576.5" font-family="Helvetica,sans-Serif" font-size="10.00">src/hmatrix/hmatrix</text>
<text text-anchor="middle" x="1104.5" y="-565.5" font-family="Helvetica,sans-Serif" font-size="10.00">_support.cc</text>
</a>
</g>
</g>
<!-- Node1&#45;&gt;Node26 -->
<g id="edge45" class="edge">
<title>Node1&#45;&gt;Node26</title>
<path fill="none" stroke="midnightblue" d="M1013.22,-620.85C1033.46,-610.58 1058.17,-598.03 1076.78,-588.58"/>
<polygon fill="midnightblue" stroke="midnightblue" points="1011.61,-617.75 1004.27,-625.4 1014.78,-623.99 1011.61,-617.75"/>
</g>
<!-- Node3 -->
<g id="node3" class="node">
<title>Node3</title>
<g id="a_node3"><a xlink:href="ddm__efield_8h.html" target="_top" xlink:title="Introduction of ddm_efield.h.">
<polygon fill="none" stroke="black" points="987,-134.5 987,-164.5 1092,-164.5 1092,-134.5 987,-134.5"/>
<text text-anchor="start" x="995" y="-152.5" font-family="Helvetica,sans-Serif" font-size="10.00">include/electric_field</text>
<text text-anchor="middle" x="1039.5" y="-141.5" font-family="Helvetica,sans-Serif" font-size="10.00">/ddm_efield.h</text>
</a>
</g>
</g>
<!-- Node2&#45;&gt;Node3 -->
<g id="edge2" class="edge">
<title>Node2&#45;&gt;Node3</title>
<path fill="none" stroke="midnightblue" d="M764.6,-510.44C821.7,-507.36 901.64,-497.09 964.5,-466 1048.76,-424.32 1081.22,-407.3 1118.5,-321 1124.84,-306.32 1127.7,-219.48 1117.5,-201 1108.45,-184.62 1091.59,-172.71 1075.85,-164.59"/>
<polygon fill="midnightblue" stroke="midnightblue" points="764.39,-506.94 754.57,-510.92 764.72,-513.93 764.39,-506.94"/>
</g>
<!-- Node4 -->
<g id="node4" class="node">
<title>Node4</title>
<g id="a_node4"><a xlink:href="subdomain__steklov__poincare__hmatrix_8h.html" target="_top" xlink:title="Introduction of subdomain_steklov_poincare_hmatrix.h.">
<polygon fill="none" stroke="black" points="808.5,-357.5 808.5,-398.5 954.5,-398.5 954.5,-357.5 808.5,-357.5"/>
<text text-anchor="start" x="816.5" y="-386.5" font-family="Helvetica,sans-Serif" font-size="10.00">include/electric_field</text>
<text text-anchor="start" x="816.5" y="-375.5" font-family="Helvetica,sans-Serif" font-size="10.00">/subdomain_steklov_poincare</text>
<text text-anchor="middle" x="881.5" y="-364.5" font-family="Helvetica,sans-Serif" font-size="10.00">_hmatrix.h</text>
</a>
</g>
</g>
<!-- Node2&#45;&gt;Node4 -->
<g id="edge3" class="edge">
<title>Node2&#45;&gt;Node4</title>
<path fill="none" stroke="midnightblue" d="M764.77,-508.3C832,-504.1 924.52,-493.37 947.5,-466 966.27,-443.64 938.58,-416.7 913.52,-398.78"/>
<polygon fill="midnightblue" stroke="midnightblue" points="764.41,-504.81 754.63,-508.9 764.82,-511.8 764.41,-504.81"/>
</g>
<!-- Node10 -->
<g id="node10" class="node">
<title>Node10</title>
<g id="a_node10"><a xlink:href="aca__plus_8hcu.html" target="_top" xlink:title="Implement the ACA+ method proposed in Grasedyck, L. 2005. “Adaptive Recompression of &#45;Matrices for BE...">
<polygon fill="none" stroke="black" points="0,-363 0,-393 101,-393 101,-363 0,-363"/>
<text text-anchor="start" x="8" y="-381" font-family="Helvetica,sans-Serif" font-size="10.00">include/hmatrix/aca</text>
<text text-anchor="middle" x="50.5" y="-370" font-family="Helvetica,sans-Serif" font-size="10.00">_plus/aca_plus.hcu</text>
</a>
</g>
</g>
<!-- Node2&#45;&gt;Node10 -->
<g id="edge14" class="edge">
<title>Node2&#45;&gt;Node10</title>
<path fill="none" stroke="midnightblue" d="M618.33,-508.65C473.07,-503.48 158.53,-489.71 115.5,-466 85.77,-449.62 65.72,-413.27 56.43,-393.12"/>
<polygon fill="midnightblue" stroke="midnightblue" points="618.38,-512.15 628.49,-509 618.62,-505.15 618.38,-512.15"/>
</g>
<!-- Node11 -->
<g id="node11" class="node">
<title>Node11</title>
<g id="a_node11"><a xlink:href="laplace__bem_8priv_8hcu_source.html" target="_top" xlink:title=" ">
<polygon fill="none" stroke="black" points="440,-134.5 440,-164.5 555,-164.5 555,-134.5 440,-134.5"/>
<text text-anchor="start" x="448" y="-152.5" font-family="Helvetica,sans-Serif" font-size="10.00">include/laplace/laplace</text>
<text text-anchor="middle" x="497.5" y="-141.5" font-family="Helvetica,sans-Serif" font-size="10.00">_bem.priv.hcu</text>
</a>
</g>
</g>
<!-- Node2&#45;&gt;Node11 -->
<g id="edge31" class="edge">
<title>Node2&#45;&gt;Node11</title>
<path fill="none" stroke="midnightblue" d="M618.3,-510.89C537,-509.02 413.24,-500.4 383.5,-466 374.49,-455.58 376.9,-447.09 383.5,-435 397.68,-409.03 422.44,-423.18 439.5,-399 466.95,-360.08 489.2,-211.26 495.63,-164.59"/>
<polygon fill="midnightblue" stroke="midnightblue" points="618.42,-514.39 628.49,-511.09 618.56,-507.39 618.42,-514.39"/>
</g>
<!-- Node14 -->
<g id="node14" class="node">
<title>Node14</title>
<g id="a_node14"><a xlink:href="operator__preconditioner_8h.html" target="_top" xlink:title=" ">
<polygon fill="none" stroke="black" points="144,-285 144,-315 273,-315 273,-285 144,-285"/>
<text text-anchor="start" x="152" y="-303" font-family="Helvetica,sans-Serif" font-size="10.00">include/preconditioners</text>
<text text-anchor="middle" x="208.5" y="-292" font-family="Helvetica,sans-Serif" font-size="10.00">/operator_preconditioner.h</text>
</a>
</g>
</g>
<!-- Node2&#45;&gt;Node14 -->
<g id="edge32" class="edge">
<title>Node2&#45;&gt;Node14</title>
<path fill="none" stroke="midnightblue" d="M618.03,-508.15C486.91,-502.53 222.96,-488.54 187.5,-466 144.08,-438.39 127.99,-404.19 148.5,-357 156.11,-339.49 172.19,-324.97 185.79,-315.1"/>
<polygon fill="midnightblue" stroke="midnightblue" points="618.24,-511.66 628.38,-508.59 618.54,-504.67 618.24,-511.66"/>
</g>
<!-- Node18 -->
<g id="node18" class="node">
<title>Node18</title>
<g id="a_node18"><a xlink:href="hblockmatrix__skew__symm_8h.html" target="_top" xlink:title="Introduction of hblockmatrix_skew_symm.h.">
<polygon fill="none" stroke="black" points="621,-435.5 621,-465.5 762,-465.5 762,-435.5 621,-435.5"/>
<text text-anchor="start" x="629" y="-453.5" font-family="Helvetica,sans-Serif" font-size="10.00">include/hmatrix/hblockmatrix</text>
<text text-anchor="middle" x="691.5" y="-442.5" font-family="Helvetica,sans-Serif" font-size="10.00">_skew_symm.h</text>
</a>
</g>
</g>
<!-- Node2&#45;&gt;Node18 -->
<g id="edge24" class="edge">
<title>Node2&#45;&gt;Node18</title>
<path fill="none" stroke="midnightblue" d="M691.5,-492.23C691.5,-483.59 691.5,-473.5 691.5,-465.52"/>
<polygon fill="midnightblue" stroke="midnightblue" points="688,-492.48 691.5,-502.48 695,-492.48 688,-492.48"/>
</g>
<!-- Node19 -->
<g id="node19" class="node">
<title>Node19</title>
<g id="a_node19"><a xlink:href="hblockmatrix__skew__symm__preconditioner_8h.html" target="_top" xlink:title="Introduction of hblockmatrix_skew_symm_preconditioner.h.">
<polygon fill="none" stroke="black" points="392.5,-435.5 392.5,-465.5 602.5,-465.5 602.5,-435.5 392.5,-435.5"/>
<text text-anchor="start" x="400.5" y="-453.5" font-family="Helvetica,sans-Serif" font-size="10.00">include/hmatrix/preconditioner</text>
<text text-anchor="middle" x="497.5" y="-442.5" font-family="Helvetica,sans-Serif" font-size="10.00">/hblockmatrix_skew_symm_preconditioner.h</text>
</a>
</g>
</g>
<!-- Node2&#45;&gt;Node19 -->
<g id="edge26" class="edge">
<title>Node2&#45;&gt;Node19</title>
<path fill="none" stroke="midnightblue" d="M653.95,-499.48C622.32,-489.78 576.96,-475.87 543.22,-465.52"/>
<polygon fill="midnightblue" stroke="midnightblue" points="653.12,-502.89 663.7,-502.48 655.17,-496.2 653.12,-502.89"/>
</g>
<!-- Node20 -->
<g id="node20" class="node">
<title>Node20</title>
<g id="a_node20"><a xlink:href="hmatrix__symm__preconditioner_8h.html" target="_top" xlink:title="Symmetric &#45;matrix by inheriting from HMatrix, which is used as the preconditioner for SPD &#45;matrices.">
<polygon fill="none" stroke="black" points="780.5,-435.5 780.5,-465.5 938.5,-465.5 938.5,-435.5 780.5,-435.5"/>
<text text-anchor="start" x="788.5" y="-453.5" font-family="Helvetica,sans-Serif" font-size="10.00">include/hmatrix/preconditioner</text>
<text text-anchor="middle" x="859.5" y="-442.5" font-family="Helvetica,sans-Serif" font-size="10.00">/hmatrix_symm_preconditioner.h</text>
</a>
</g>
</g>
<!-- Node2&#45;&gt;Node20 -->
<g id="edge28" class="edge">
<title>Node2&#45;&gt;Node20</title>
<path fill="none" stroke="midnightblue" d="M725.09,-499.1C752.43,-489.42 791.07,-475.74 819.91,-465.52"/>
<polygon fill="midnightblue" stroke="midnightblue" points="723.83,-495.84 715.57,-502.48 726.17,-502.44 723.83,-495.84"/>
</g>
<!-- Node21 -->
<g id="node21" class="node">
<title>Node21</title>
<g id="a_node21"><a xlink:href="sauter__quadrature_8hcu_source.html" target="_top" xlink:title=" ">
<polygon fill="none" stroke="black" points="196.5,-435.5 196.5,-465.5 312.5,-465.5 312.5,-435.5 196.5,-435.5"/>
<text text-anchor="start" x="204.5" y="-453.5" font-family="Helvetica,sans-Serif" font-size="10.00">include/quadrature</text>
<text text-anchor="middle" x="254.5" y="-442.5" font-family="Helvetica,sans-Serif" font-size="10.00">/sauter_quadrature.hcu</text>
</a>
</g>
</g>
<!-- Node2&#45;&gt;Node21 -->
<g id="edge33" class="edge">
<title>Node2&#45;&gt;Node21</title>
<path fill="none" stroke="midnightblue" d="M617.95,-501.7C548.85,-492.86 442.59,-479.03 350.5,-466 338.23,-464.26 325.1,-462.33 312.6,-460.45"/>
<polygon fill="midnightblue" stroke="midnightblue" points="617.93,-505.22 628.29,-503.02 618.81,-498.28 617.93,-505.22"/>
</g>
<!-- Node4&#45;&gt;Node3 -->
<g id="edge4" class="edge">
<title>Node4&#45;&gt;Node3</title>
<path fill="none" stroke="midnightblue" d="M964.74,-365.8C1017.67,-356.78 1079.21,-342.1 1095.5,-321 1128.09,-278.78 1117.17,-249.73 1095.5,-201 1088.8,-185.93 1075.13,-173.46 1062.97,-164.68"/>
<polygon fill="midnightblue" stroke="midnightblue" points="963.93,-362.39 954.63,-367.48 965.07,-369.3 963.93,-362.39"/>
</g>
<!-- Node5 -->
<g id="node5" class="node">
<title>Node5</title>
<g id="a_node5"><a xlink:href="ddm__efield__matrix_8h.html" target="_top" xlink:title="Introduction of ddm_efield_matrix.h.">
<polygon fill="none" stroke="black" points="738,-207 738,-237 845,-237 845,-207 738,-207"/>
<text text-anchor="start" x="746" y="-225" font-family="Helvetica,sans-Serif" font-size="10.00">include/electric_field</text>
<text text-anchor="middle" x="791.5" y="-214" font-family="Helvetica,sans-Serif" font-size="10.00">/ddm_efield_matrix.h</text>
</a>
</g>
</g>
<!-- Node4&#45;&gt;Node5 -->
<g id="edge5" class="edge">
<title>Node4&#45;&gt;Node5</title>
<path fill="none" stroke="midnightblue" d="M798.49,-365.6C746.17,-356.53 685.57,-341.86 669.5,-321 658.11,-306.21 659.42,-294.71 669.5,-279 684.66,-255.36 712.58,-241.57 737.89,-233.59"/>
<polygon fill="midnightblue" stroke="midnightblue" points="798.05,-369.08 808.49,-367.29 799.21,-362.18 798.05,-369.08"/>
</g>
<!-- Node6 -->
<g id="node6" class="node">
<title>Node6</title>
<g id="a_node6"><a xlink:href="subdomain__hmatrix__for__charge__neutrality__eqn_8h.html" target="_top" xlink:title="Introduction of subdomain_hmatrix_for_charge_neutrality_eqn.h.">
<polygon fill="none" stroke="black" points="678,-279.5 678,-320.5 803,-320.5 803,-279.5 678,-279.5"/>
<text text-anchor="start" x="686" y="-308.5" font-family="Helvetica,sans-Serif" font-size="10.00">include/electric_field</text>
<text text-anchor="start" x="686" y="-297.5" font-family="Helvetica,sans-Serif" font-size="10.00">/subdomain_hmatrix_for</text>
<text text-anchor="middle" x="740.5" y="-286.5" font-family="Helvetica,sans-Serif" font-size="10.00">_charge_neutrality_eqn.h</text>
</a>
</g>
</g>
<!-- Node4&#45;&gt;Node6 -->
<g id="edge7" class="edge">
<title>Node4&#45;&gt;Node6</title>
<path fill="none" stroke="midnightblue" d="M836.28,-352.63C817.01,-342.24 794.84,-330.29 776.69,-320.51"/>
<polygon fill="midnightblue" stroke="midnightblue" points="834.73,-355.76 845.19,-357.43 838.05,-349.6 834.73,-355.76"/>
</g>
<!-- Node7 -->
<g id="node7" class="node">
<title>Node7</title>
<g id="a_node7"><a xlink:href="subdomain__hmatrix__for__global__preconditioning_8h.html" target="_top" xlink:title="Introduction of subdomain_hmatrix_for_global_preconditioning.h.">
<polygon fill="none" stroke="black" points="960.5,-279.5 960.5,-320.5 1086.5,-320.5 1086.5,-279.5 960.5,-279.5"/>
<text text-anchor="start" x="968.5" y="-308.5" font-family="Helvetica,sans-Serif" font-size="10.00">include/electric_field</text>
<text text-anchor="start" x="968.5" y="-297.5" font-family="Helvetica,sans-Serif" font-size="10.00">/subdomain_hmatrix_for</text>
<text text-anchor="middle" x="1023.5" y="-286.5" font-family="Helvetica,sans-Serif" font-size="10.00">_global_preconditioning.h</text>
</a>
</g>
</g>
<!-- Node4&#45;&gt;Node7 -->
<g id="edge9" class="edge">
<title>Node4&#45;&gt;Node7</title>
<path fill="none" stroke="midnightblue" d="M927.04,-352.63C946.44,-342.24 968.77,-330.29 987.06,-320.51"/>
<polygon fill="midnightblue" stroke="midnightblue" points="925.23,-349.62 918.07,-357.43 928.54,-355.8 925.23,-349.62"/>
</g>
<!-- Node9 -->
<g id="node9" class="node">
<title>Node9</title>
<g id="a_node9"><a xlink:href="subdomain__hmatrix__for__transmission__eqn_8h.html" target="_top" xlink:title="Introduction of subdomain_hmatrix_for_transmission_eqn.h.">
<polygon fill="none" stroke="black" points="821,-279.5 821,-320.5 942,-320.5 942,-279.5 821,-279.5"/>
<text text-anchor="start" x="829" y="-308.5" font-family="Helvetica,sans-Serif" font-size="10.00">include/electric_field</text>
<text text-anchor="start" x="829" y="-297.5" font-family="Helvetica,sans-Serif" font-size="10.00">/subdomain_hmatrix_for</text>
<text text-anchor="middle" x="881.5" y="-286.5" font-family="Helvetica,sans-Serif" font-size="10.00">_transmission_eqn.h</text>
</a>
</g>
</g>
<!-- Node4&#45;&gt;Node9 -->
<g id="edge12" class="edge">
<title>Node4&#45;&gt;Node9</title>
<path fill="none" stroke="midnightblue" d="M881.5,-347.3C881.5,-338.3 881.5,-328.65 881.5,-320.51"/>
<polygon fill="midnightblue" stroke="midnightblue" points="878,-347.43 881.5,-357.43 885,-347.43 878,-347.43"/>
</g>
<!-- Node5&#45;&gt;Node3 -->
<g id="edge6" class="edge">
<title>Node5&#45;&gt;Node3</title>
<path fill="none" stroke="midnightblue" d="M850.45,-204.24C892.96,-192.16 949.68,-176.03 989.88,-164.61"/>
<polygon fill="midnightblue" stroke="midnightblue" points="849.46,-200.89 840.79,-206.99 851.37,-207.62 849.46,-200.89"/>
</g>
<!-- Node6&#45;&gt;Node5 -->
<g id="edge8" class="edge">
<title>Node6&#45;&gt;Node5</title>
<path fill="none" stroke="midnightblue" d="M759.3,-270.98C767.01,-259.5 775.59,-246.71 781.95,-237.23"/>
<polygon fill="midnightblue" stroke="midnightblue" points="756.3,-269.17 753.63,-279.43 762.11,-273.07 756.3,-269.17"/>
</g>
<!-- Node8 -->
<g id="node8" class="node">
<title>Node8</title>
<g id="a_node8"><a xlink:href="ddm__efield__global__preconditioner_8h.html" target="_top" xlink:title="Introduction of ddm_efield_global_preconditioner.h.">
<polygon fill="none" stroke="black" points="914.5,-207 914.5,-237 1086.5,-237 1086.5,-207 914.5,-207"/>
<text text-anchor="start" x="922.5" y="-225" font-family="Helvetica,sans-Serif" font-size="10.00">include/electric_field</text>
<text text-anchor="middle" x="1000.5" y="-214" font-family="Helvetica,sans-Serif" font-size="10.00">/ddm_efield_global_preconditioner.h</text>
</a>
</g>
</g>
<!-- Node7&#45;&gt;Node8 -->
<g id="edge10" class="edge">
<title>Node7&#45;&gt;Node8</title>
<path fill="none" stroke="midnightblue" d="M1014.61,-269.62C1011.24,-258.5 1007.56,-246.34 1004.81,-237.23"/>
<polygon fill="midnightblue" stroke="midnightblue" points="1011.33,-270.87 1017.58,-279.43 1018.03,-268.84 1011.33,-270.87"/>
</g>
<!-- Node8&#45;&gt;Node3 -->
<g id="edge11" class="edge">
<title>Node8&#45;&gt;Node3</title>
<path fill="none" stroke="midnightblue" d="M1013.37,-197.73C1019.4,-186.83 1026.39,-174.2 1031.62,-164.75"/>
<polygon fill="midnightblue" stroke="midnightblue" points="1010.17,-196.29 1008.39,-206.73 1016.3,-199.68 1010.17,-196.29"/>
</g>
<!-- Node9&#45;&gt;Node5 -->
<g id="edge13" class="edge">
<title>Node9&#45;&gt;Node5</title>
<path fill="none" stroke="midnightblue" d="M850.31,-272.66C836.22,-260.76 820.13,-247.18 808.35,-237.23"/>
<polygon fill="midnightblue" stroke="midnightblue" points="848.42,-275.65 858.32,-279.43 852.94,-270.3 848.42,-275.65"/>
</g>
<!-- Node10&#45;&gt;Node11 -->
<g id="edge15" class="edge">
<title>Node10&#45;&gt;Node11</title>
<path fill="none" stroke="midnightblue" d="M29.35,-354.97C21.51,-345.33 13.55,-333.4 9.5,-321 3.7,-303.26 1.75,-295.98 9.5,-279 31.49,-230.85 51.17,-222.59 99.5,-201 159.04,-174.4 344.41,-159.7 439.69,-153.72"/>
<polygon fill="midnightblue" stroke="midnightblue" points="26.92,-357.51 36.1,-362.8 32.23,-352.94 26.92,-357.51"/>
</g>
<!-- Node10&#45;&gt;Node14 -->
<g id="edge18" class="edge">
<title>Node10&#45;&gt;Node14</title>
<path fill="none" stroke="midnightblue" d="M88.91,-358.52C116.76,-345.13 153.86,-327.28 179.31,-315.04"/>
<polygon fill="midnightblue" stroke="midnightblue" points="87.34,-355.39 79.85,-362.88 90.38,-361.7 87.34,-355.39"/>
</g>
<!-- Node17 -->
<g id="node17" class="node">
<title>Node17</title>
<g id="a_node17"><a xlink:href="aca__plus_8cu_source.html" target="_top" xlink:title=" ">
<polygon fill="none" stroke="black" points="19,-285 19,-315 126,-315 126,-285 19,-285"/>
<text text-anchor="start" x="27" y="-303" font-family="Helvetica,sans-Serif" font-size="10.00">src/hmatrix/aca_plus</text>
<text text-anchor="middle" x="72.5" y="-292" font-family="Helvetica,sans-Serif" font-size="10.00">/aca_plus.cu</text>
</a>
</g>
</g>
<!-- Node10&#45;&gt;Node17 -->
<g id="edge23" class="edge">
<title>Node10&#45;&gt;Node17</title>
<path fill="none" stroke="midnightblue" d="M57.46,-352.96C61.05,-340.55 65.31,-325.83 68.38,-315.23"/>
<polygon fill="midnightblue" stroke="midnightblue" points="54.06,-352.13 54.64,-362.7 60.78,-354.07 54.06,-352.13"/>
</g>
<!-- Node12 -->
<g id="node12" class="node">
<title>Node12</title>
<g id="a_node12"><a xlink:href="laplace__bem_8impl_8hcu_source.html" target="_top" xlink:title=" ">
<polygon fill="none" stroke="black" points="732,-67.5 732,-97.5 847,-97.5 847,-67.5 732,-67.5"/>
<text text-anchor="start" x="740" y="-85.5" font-family="Helvetica,sans-Serif" font-size="10.00">include/laplace/laplace</text>
<text text-anchor="middle" x="789.5" y="-74.5" font-family="Helvetica,sans-Serif" font-size="10.00">_bem.impl.hcu</text>
</a>
</g>
</g>
<!-- Node11&#45;&gt;Node12 -->
<g id="edge16" class="edge">
<title>Node11&#45;&gt;Node12</title>
<path fill="none" stroke="midnightblue" d="M565.05,-133.46C615.59,-122.21 683.97,-106.99 731.93,-96.32"/>
<polygon fill="midnightblue" stroke="midnightblue" points="564.19,-130.07 555.19,-135.66 565.71,-136.9 564.19,-130.07"/>
</g>
<!-- Node13 -->
<g id="node13" class="node">
<title>Node13</title>
<g id="a_node13"><a xlink:href="laplace__bem_8cu_source.html" target="_top" xlink:title=" ">
<polygon fill="none" stroke="black" points="740.5,-0.5 740.5,-30.5 838.5,-30.5 838.5,-0.5 740.5,-0.5"/>
<text text-anchor="start" x="748.5" y="-18.5" font-family="Helvetica,sans-Serif" font-size="10.00">src/laplace/laplace</text>
<text text-anchor="middle" x="789.5" y="-7.5" font-family="Helvetica,sans-Serif" font-size="10.00">_bem.cu</text>
</a>
</g>
</g>
<!-- Node12&#45;&gt;Node13 -->
<g id="edge17" class="edge">
<title>Node12&#45;&gt;Node13</title>
<path fill="none" stroke="midnightblue" d="M789.5,-57.11C789.5,-48.15 789.5,-38.32 789.5,-30.58"/>
<polygon fill="midnightblue" stroke="midnightblue" points="786,-57.4 789.5,-67.4 793,-57.4 786,-57.4"/>
</g>
<!-- Node15 -->
<g id="node15" class="node">
<title>Node15</title>
<g id="a_node15"><a xlink:href="preconditioner__for__laplace__dirichlet_8h.html" target="_top" xlink:title=" ">
<polygon fill="none" stroke="black" points="260,-201.5 260,-242.5 393,-242.5 393,-201.5 260,-201.5"/>
<text text-anchor="start" x="268" y="-230.5" font-family="Helvetica,sans-Serif" font-size="10.00">include/preconditioners</text>
<text text-anchor="start" x="268" y="-219.5" font-family="Helvetica,sans-Serif" font-size="10.00">/preconditioner_for_laplace</text>
<text text-anchor="middle" x="326.5" y="-208.5" font-family="Helvetica,sans-Serif" font-size="10.00">_dirichlet.h</text>
</a>
</g>
</g>
<!-- Node14&#45;&gt;Node15 -->
<g id="edge19" class="edge">
<title>Node14&#45;&gt;Node15</title>
<path fill="none" stroke="midnightblue" d="M239.1,-279.29C256.54,-268.06 278.34,-254.02 295.8,-242.77"/>
<polygon fill="midnightblue" stroke="midnightblue" points="236.93,-276.53 230.42,-284.88 240.72,-282.41 236.93,-276.53"/>
</g>
<!-- Node16 -->
<g id="node16" class="node">
<title>Node16</title>
<g id="a_node16"><a xlink:href="preconditioner__for__laplace__neumann_8h.html" target="_top" xlink:title=" ">
<polygon fill="none" stroke="black" points="109,-201.5 109,-242.5 242,-242.5 242,-201.5 109,-201.5"/>
<text text-anchor="start" x="117" y="-230.5" font-family="Helvetica,sans-Serif" font-size="10.00">include/preconditioners</text>
<text text-anchor="start" x="117" y="-219.5" font-family="Helvetica,sans-Serif" font-size="10.00">/preconditioner_for_laplace</text>
<text text-anchor="middle" x="175.5" y="-208.5" font-family="Helvetica,sans-Serif" font-size="10.00">_neumann.h</text>
</a>
</g>
</g>
<!-- Node14&#45;&gt;Node16 -->
<g id="edge21" class="edge">
<title>Node14&#45;&gt;Node16</title>
<path fill="none" stroke="midnightblue" d="M198.21,-275.31C193.66,-264.83 188.37,-252.65 184.05,-242.68"/>
<polygon fill="midnightblue" stroke="midnightblue" points="195.1,-276.93 202.29,-284.7 201.52,-274.14 195.1,-276.93"/>
</g>
<!-- Node15&#45;&gt;Node11 -->
<g id="edge20" class="edge">
<title>Node15&#45;&gt;Node11</title>
<path fill="none" stroke="midnightblue" d="M383.67,-197.43C410.11,-186.53 440.62,-173.95 463.4,-164.56"/>
<polygon fill="midnightblue" stroke="midnightblue" points="382.04,-194.31 374.13,-201.36 384.71,-200.79 382.04,-194.31"/>
</g>
<!-- Node16&#45;&gt;Node11 -->
<g id="edge22" class="edge">
<title>Node16&#45;&gt;Node11</title>
<path fill="none" stroke="midnightblue" d="M251.94,-200.72C321.7,-184.48 391.96,-170.48 439.89,-161.28"/>
<polygon fill="midnightblue" stroke="midnightblue" points="251.04,-197.33 242.1,-203.02 252.64,-204.15 251.04,-197.33"/>
</g>
<!-- Node18&#45;&gt;Node11 -->
<g id="edge25" class="edge">
<title>Node18&#45;&gt;Node11</title>
<path fill="none" stroke="midnightblue" d="M611.4,-432.76C592.11,-425.29 573.15,-414.51 559.5,-399 499.68,-331.02 534.26,-288.64 511.5,-201 508.3,-188.67 504.41,-174.72 501.55,-164.62"/>
<polygon fill="midnightblue" stroke="midnightblue" points="610.28,-436.07 620.87,-436.16 612.65,-429.49 610.28,-436.07"/>
</g>
<!-- Node19&#45;&gt;Node11 -->
<g id="edge27" class="edge">
<title>Node19&#45;&gt;Node11</title>
<path fill="none" stroke="midnightblue" d="M497.5,-425.11C497.5,-365.23 497.5,-212.38 497.5,-164.84"/>
<polygon fill="midnightblue" stroke="midnightblue" points="494,-425.48 497.5,-435.48 501,-425.48 494,-425.48"/>
</g>
<!-- Node20&#45;&gt;Node4 -->
<g id="edge29" class="edge">
<title>Node20&#45;&gt;Node4</title>
<path fill="none" stroke="midnightblue" d="M866.97,-425.56C869.71,-416.77 872.78,-406.94 875.39,-398.59"/>
<polygon fill="midnightblue" stroke="midnightblue" points="863.59,-424.64 863.95,-435.23 870.27,-426.73 863.59,-424.64"/>
</g>
<!-- Node20&#45;&gt;Node11 -->
<g id="edge30" class="edge">
<title>Node20&#45;&gt;Node11</title>
<path fill="none" stroke="midnightblue" d="M771.62,-433C742.13,-425.26 709.81,-414.28 682.5,-399 585.45,-344.69 586.69,-296.38 529.5,-201 522.03,-188.54 513.16,-174.6 506.65,-164.53"/>
<polygon fill="midnightblue" stroke="midnightblue" points="770.95,-436.44 781.51,-435.5 772.67,-429.65 770.95,-436.44"/>
</g>
<!-- Node21&#45;&gt;Node10 -->
<g id="edge37" class="edge">
<title>Node21&#45;&gt;Node10</title>
<path fill="none" stroke="midnightblue" d="M204.21,-432.12C169.42,-420.1 123.72,-404.31 91.22,-393.07"/>
<polygon fill="midnightblue" stroke="midnightblue" points="203.11,-435.44 213.71,-435.4 205.4,-428.83 203.11,-435.44"/>
</g>
<!-- Node22 -->
<g id="node22" class="node">
<title>Node22</title>
<g id="a_node22"><a xlink:href="bem__general_8hcu_source.html" target="_top" xlink:title=" ">
<polygon fill="none" stroke="black" points="157.5,-368.5 157.5,-387.5 303.5,-387.5 303.5,-368.5 157.5,-368.5"/>
<text text-anchor="middle" x="230.5" y="-375.5" font-family="Helvetica,sans-Serif" font-size="10.00">include/bem/bem_general.hcu</text>
</a>
</g>
</g>
<!-- Node21&#45;&gt;Node22 -->
<g id="edge34" class="edge">
<title>Node21&#45;&gt;Node22</title>
<path fill="none" stroke="midnightblue" d="M246.32,-425.48C241.91,-412.51 236.73,-397.29 233.53,-387.89"/>
<polygon fill="midnightblue" stroke="midnightblue" points="243.11,-426.89 249.64,-435.23 249.73,-424.64 243.11,-426.89"/>
</g>
<!-- Node23 -->
<g id="node23" class="node">
<title>Node23</title>
<g id="a_node23"><a xlink:href="sauter__quadrature_8cu_source.html" target="_top" xlink:title=" ">
<polygon fill="none" stroke="black" points="322,-363 322,-393 431,-393 431,-363 322,-363"/>
<text text-anchor="start" x="330" y="-381" font-family="Helvetica,sans-Serif" font-size="10.00">src/quadrature/sauter</text>
<text text-anchor="middle" x="376.5" y="-370" font-family="Helvetica,sans-Serif" font-size="10.00">_quadrature.cu</text>
</a>
</g>
</g>
<!-- Node21&#45;&gt;Node23 -->
<g id="edge38" class="edge">
<title>Node21&#45;&gt;Node23</title>
<path fill="none" stroke="midnightblue" d="M287.55,-430.4C307.93,-418.62 333.62,-403.78 352.15,-393.07"/>
<polygon fill="midnightblue" stroke="midnightblue" points="285.8,-427.37 278.9,-435.4 289.3,-433.43 285.8,-427.37"/>
</g>
<!-- Node22&#45;&gt;Node11 -->
<g id="edge35" class="edge">
<title>Node22&#45;&gt;Node11</title>
<path fill="none" stroke="midnightblue" d="M250.7,-362.22C283.25,-338.18 348.95,-288.7 401.5,-243 405.67,-239.37 457.06,-189.67 482.88,-164.66"/>
<polygon fill="midnightblue" stroke="midnightblue" points="248.42,-359.56 242.44,-368.3 252.57,-365.19 248.42,-359.56"/>
</g>
<!-- Node22&#45;&gt;Node14 -->
<g id="edge36" class="edge">
<title>Node22&#45;&gt;Node14</title>
<path fill="none" stroke="midnightblue" d="M225.08,-358.28C221.21,-344.9 216.08,-327.19 212.56,-315.02"/>
<polygon fill="midnightblue" stroke="midnightblue" points="221.83,-359.65 227.98,-368.28 228.56,-357.7 221.83,-359.65"/>
</g>
<!-- Node24&#45;&gt;Node2 -->
<g id="edge40" class="edge">
<title>Node24&#45;&gt;Node2</title>
<path fill="none" stroke="midnightblue" d="M907.48,-558.09C852.78,-546.67 778.2,-531.1 732.53,-521.56"/>
<polygon fill="midnightblue" stroke="midnightblue" points="906.94,-561.55 917.45,-560.17 908.37,-554.7 906.94,-561.55"/>
</g>
<!-- Node24&#45;&gt;Node11 -->
<g id="edge44" class="edge">
<title>Node24&#45;&gt;Node11</title>
<path fill="none" stroke="midnightblue" d="M978.6,-547.95C979.79,-517.31 976.84,-465.26 947.5,-435 900.37,-386.4 862.64,-423.42 799.5,-399 731.98,-372.89 712.66,-366.68 656.5,-321 602.2,-276.83 603.48,-251 554.5,-201 541.82,-188.06 526.39,-174.51 514.78,-164.7"/>
<polygon fill="midnightblue" stroke="midnightblue" points="975.09,-548.01 978.02,-558.19 982.08,-548.41 975.09,-548.01"/>
</g>
<!-- Node25 -->
<g id="node25" class="node">
<title>Node25</title>
<g id="a_node25"><a xlink:href="laplace__bem_8h.html" target="_top" xlink:title="Implementation of BEM involving kernel functions and singular numerical quadratures.">
<polygon fill="none" stroke="black" points="1181,-207 1181,-237 1296,-237 1296,-207 1181,-207"/>
<text text-anchor="start" x="1189" y="-225" font-family="Helvetica,sans-Serif" font-size="10.00">include/laplace/laplace</text>
<text text-anchor="middle" x="1238.5" y="-214" font-family="Helvetica,sans-Serif" font-size="10.00">_bem.h</text>
</a>
</g>
</g>
<!-- Node24&#45;&gt;Node25 -->
<g id="edge41" class="edge">
<title>Node24&#45;&gt;Node25</title>
<path fill="none" stroke="midnightblue" d="M1034.62,-555.46C1105.07,-533.04 1214.5,-491.73 1214.5,-451.5 1214.5,-451.5 1214.5,-451.5 1214.5,-377 1214.5,-325.05 1228,-264.4 1234.75,-237.32"/>
<polygon fill="midnightblue" stroke="midnightblue" points="1033.44,-552.16 1024.95,-558.5 1035.54,-558.84 1033.44,-552.16"/>
</g>
<!-- Node25&#45;&gt;Node11 -->
<g id="edge43" class="edge">
<title>Node25&#45;&gt;Node11</title>
<path fill="none" stroke="midnightblue" d="M1170.85,-210.77C1147.07,-207.37 1120.13,-203.76 1095.5,-201 897.74,-178.84 662.19,-161.63 555.33,-154.33"/>
<polygon fill="midnightblue" stroke="midnightblue" points="1170.44,-214.24 1180.84,-212.2 1171.44,-207.31 1170.44,-214.24"/>
</g>
<!-- Node25&#45;&gt;Node12 -->
<g id="edge42" class="edge">
<title>Node25&#45;&gt;Node12</title>
<path fill="none" stroke="midnightblue" d="M1213.68,-200.8C1187.44,-180.56 1144.04,-150.16 1101.5,-134 1016.61,-101.74 911.08,-90.09 847.08,-85.88"/>
<polygon fill="midnightblue" stroke="midnightblue" points="1211.54,-203.57 1221.57,-206.98 1215.85,-198.06 1211.54,-203.57"/>
</g>
</g>
</svg>
