<?xml version="1.0" encoding="UTF-8" standalone="no"?>
<!DOCTYPE svg PUBLIC "-//W3C//DTD SVG 1.1//EN"
 "http://www.w3.org/Graphics/SVG/1.1/DTD/svg11.dtd">
<!-- Generated by graphviz version 2.43.0 (0)
 -->
<!-- Title: include/hmatrix/preconditioner/hmatrix_symm_preconditioner.h Pages: 1 -->
<svg width="584pt" height="329pt"
 viewBox="0.00 0.00 584.14 329.00" xmlns="http://www.w3.org/2000/svg" xmlns:xlink="http://www.w3.org/1999/xlink">
<g id="graph0" class="graph" transform="scale(1 1) rotate(0) translate(4 325)">
<title>include/hmatrix/preconditioner/hmatrix_symm_preconditioner.h</title>
<!-- Node1 -->
<g id="node1" class="node">
<title>Node1</title>
<g id="a_node1"><a xlink:title="Symmetric &#45;matrix by inheriting from HMatrix, which is used as the preconditioner for SPD &#45;matrices.">
<polygon fill="#bfbfbf" stroke="black" points="161.64,-290.5 161.64,-320.5 319.64,-320.5 319.64,-290.5 161.64,-290.5"/>
<text text-anchor="start" x="169.64" y="-308.5" font-family="Helvetica,sans-Serif" font-size="10.00">include/hmatrix/preconditioner</text>
<text text-anchor="middle" x="240.64" y="-297.5" font-family="Helvetica,sans-Serif" font-size="10.00">/hmatrix_symm_preconditioner.h</text>
</a>
</g>
</g>
<!-- Node2 -->
<g id="node2" class="node">
<title>Node2</title>
<g id="a_node2"><a xlink:href="subdomain__steklov__poincare__hmatrix_8h.html" target="_top" xlink:title="Introduction of subdomain_steklov_poincare_hmatrix.h.">
<polygon fill="none" stroke="black" points="93.64,-212.5 93.64,-253.5 239.64,-253.5 239.64,-212.5 93.64,-212.5"/>
<text text-anchor="start" x="101.64" y="-241.5" font-family="Helvetica,sans-Serif" font-size="10.00">include/electric_field</text>
<text text-anchor="start" x="101.64" y="-230.5" font-family="Helvetica,sans-Serif" font-size="10.00">/subdomain_steklov_poincare</text>
<text text-anchor="middle" x="166.64" y="-219.5" font-family="Helvetica,sans-Serif" font-size="10.00">_hmatrix.h</text>
</a>
</g>
</g>
<!-- Node1&#45;&gt;Node2 -->
<g id="edge1" class="edge">
<title>Node1&#45;&gt;Node2</title>
<path fill="none" stroke="midnightblue" d="M218.18,-283.1C208.33,-273.71 196.83,-262.76 187.2,-253.59"/>
<polygon fill="midnightblue" stroke="midnightblue" points="216.01,-285.87 225.67,-290.23 220.84,-280.8 216.01,-285.87"/>
</g>
<!-- Node9 -->
<g id="node9" class="node">
<title>Node9</title>
<g id="a_node9"><a xlink:href="laplace__bem_8priv_8hcu_source.html" target="_top" xlink:title=" ">
<polygon fill="none" stroke="black" points="359.14,-218 359.14,-248 474.14,-248 474.14,-218 359.14,-218"/>
<text text-anchor="start" x="367.14" y="-236" font-family="Helvetica,sans-Serif" font-size="10.00">include/laplace/laplace</text>
<text text-anchor="middle" x="416.64" y="-225" font-family="Helvetica,sans-Serif" font-size="10.00">_bem.priv.hcu</text>
</a>
</g>
</g>
<!-- Node1&#45;&gt;Node9 -->
<g id="edge12" class="edge">
<title>Node1&#45;&gt;Node9</title>
<path fill="none" stroke="midnightblue" d="M285.19,-286.65C315.05,-274.69 353.83,-259.16 381.51,-248.07"/>
<polygon fill="midnightblue" stroke="midnightblue" points="283.82,-283.44 275.84,-290.4 286.42,-289.93 283.82,-283.44"/>
</g>
<!-- Node3 -->
<g id="node3" class="node">
<title>Node3</title>
<g id="a_node3"><a xlink:href="ddm__efield_8h.html" target="_top" xlink:title="Introduction of ddm_efield.h.">
<polygon fill="none" stroke="black" points="44.14,-0.5 44.14,-30.5 149.14,-30.5 149.14,-0.5 44.14,-0.5"/>
<text text-anchor="start" x="52.14" y="-18.5" font-family="Helvetica,sans-Serif" font-size="10.00">include/electric_field</text>
<text text-anchor="middle" x="96.64" y="-7.5" font-family="Helvetica,sans-Serif" font-size="10.00">/ddm_efield.h</text>
</a>
</g>
</g>
<!-- Node2&#45;&gt;Node3 -->
<g id="edge2" class="edge">
<title>Node2&#45;&gt;Node3</title>
<path fill="none" stroke="midnightblue" d="M83.65,-220.83C56.84,-212.85 29.88,-199.23 13.64,-176 -14.57,-135.63 6.13,-107.86 33.64,-67 43.66,-52.12 59.41,-39.49 72.66,-30.59"/>
<polygon fill="midnightblue" stroke="midnightblue" points="82.93,-224.27 93.5,-223.53 84.77,-217.51 82.93,-224.27"/>
</g>
<!-- Node4 -->
<g id="node4" class="node">
<title>Node4</title>
<g id="a_node4"><a xlink:href="ddm__efield__matrix_8h.html" target="_top" xlink:title="Introduction of ddm_efield_matrix.h.">
<polygon fill="none" stroke="black" points="43.14,-67.5 43.14,-97.5 150.14,-97.5 150.14,-67.5 43.14,-67.5"/>
<text text-anchor="start" x="51.14" y="-85.5" font-family="Helvetica,sans-Serif" font-size="10.00">include/electric_field</text>
<text text-anchor="middle" x="96.64" y="-74.5" font-family="Helvetica,sans-Serif" font-size="10.00">/ddm_efield_matrix.h</text>
</a>
</g>
</g>
<!-- Node2&#45;&gt;Node4 -->
<g id="edge3" class="edge">
<title>Node2&#45;&gt;Node4</title>
<path fill="none" stroke="midnightblue" d="M83.91,-217.51C60.91,-209.26 38.47,-196.31 24.64,-176 14.14,-160.57 16.03,-150.56 24.64,-134 33.03,-117.88 49.17,-105.84 64.05,-97.56"/>
<polygon fill="midnightblue" stroke="midnightblue" points="82.83,-220.84 93.43,-220.66 85.03,-214.19 82.83,-220.84"/>
</g>
<!-- Node5 -->
<g id="node5" class="node">
<title>Node5</title>
<g id="a_node5"><a xlink:href="subdomain__hmatrix__for__charge__neutrality__eqn_8h.html" target="_top" xlink:title="Introduction of subdomain_hmatrix_for_charge_neutrality_eqn.h.">
<polygon fill="none" stroke="black" points="34.14,-134.5 34.14,-175.5 159.14,-175.5 159.14,-134.5 34.14,-134.5"/>
<text text-anchor="start" x="42.14" y="-163.5" font-family="Helvetica,sans-Serif" font-size="10.00">include/electric_field</text>
<text text-anchor="start" x="42.14" y="-152.5" font-family="Helvetica,sans-Serif" font-size="10.00">/subdomain_hmatrix_for</text>
<text text-anchor="middle" x="96.64" y="-141.5" font-family="Helvetica,sans-Serif" font-size="10.00">_charge_neutrality_eqn.h</text>
</a>
</g>
</g>
<!-- Node2&#45;&gt;Node5 -->
<g id="edge5" class="edge">
<title>Node2&#45;&gt;Node5</title>
<path fill="none" stroke="midnightblue" d="M141.7,-204.92C132.75,-195.2 122.85,-184.45 114.61,-175.51"/>
<polygon fill="midnightblue" stroke="midnightblue" points="139.27,-207.44 148.62,-212.43 144.42,-202.7 139.27,-207.44"/>
</g>
<!-- Node6 -->
<g id="node6" class="node">
<title>Node6</title>
<g id="a_node6"><a xlink:href="subdomain__hmatrix__for__global__preconditioning_8h.html" target="_top" xlink:title="Introduction of subdomain_hmatrix_for_global_preconditioning.h.">
<polygon fill="none" stroke="black" points="316.64,-134.5 316.64,-175.5 442.64,-175.5 442.64,-134.5 316.64,-134.5"/>
<text text-anchor="start" x="324.64" y="-163.5" font-family="Helvetica,sans-Serif" font-size="10.00">include/electric_field</text>
<text text-anchor="start" x="324.64" y="-152.5" font-family="Helvetica,sans-Serif" font-size="10.00">/subdomain_hmatrix_for</text>
<text text-anchor="middle" x="379.64" y="-141.5" font-family="Helvetica,sans-Serif" font-size="10.00">_global_preconditioning.h</text>
</a>
</g>
</g>
<!-- Node2&#45;&gt;Node6 -->
<g id="edge7" class="edge">
<title>Node2&#45;&gt;Node6</title>
<path fill="none" stroke="midnightblue" d="M231.03,-209.03C261.01,-198.33 296.31,-185.73 324.98,-175.51"/>
<polygon fill="midnightblue" stroke="midnightblue" points="229.74,-205.77 221.5,-212.43 232.09,-212.36 229.74,-205.77"/>
</g>
<!-- Node8 -->
<g id="node8" class="node">
<title>Node8</title>
<g id="a_node8"><a xlink:href="subdomain__hmatrix__for__transmission__eqn_8h.html" target="_top" xlink:title="Introduction of subdomain_hmatrix_for_transmission_eqn.h.">
<polygon fill="none" stroke="black" points="177.14,-134.5 177.14,-175.5 298.14,-175.5 298.14,-134.5 177.14,-134.5"/>
<text text-anchor="start" x="185.14" y="-163.5" font-family="Helvetica,sans-Serif" font-size="10.00">include/electric_field</text>
<text text-anchor="start" x="185.14" y="-152.5" font-family="Helvetica,sans-Serif" font-size="10.00">/subdomain_hmatrix_for</text>
<text text-anchor="middle" x="237.64" y="-141.5" font-family="Helvetica,sans-Serif" font-size="10.00">_transmission_eqn.h</text>
</a>
</g>
</g>
<!-- Node2&#45;&gt;Node8 -->
<g id="edge10" class="edge">
<title>Node2&#45;&gt;Node8</title>
<path fill="none" stroke="midnightblue" d="M191.95,-204.92C201.02,-195.2 211.06,-184.45 219.42,-175.51"/>
<polygon fill="midnightblue" stroke="midnightblue" points="189.2,-202.73 184.93,-212.43 194.31,-207.51 189.2,-202.73"/>
</g>
<!-- Node4&#45;&gt;Node3 -->
<g id="edge4" class="edge">
<title>Node4&#45;&gt;Node3</title>
<path fill="none" stroke="midnightblue" d="M96.64,-57.11C96.64,-48.15 96.64,-38.32 96.64,-30.58"/>
<polygon fill="midnightblue" stroke="midnightblue" points="93.14,-57.4 96.64,-67.4 100.14,-57.4 93.14,-57.4"/>
</g>
<!-- Node5&#45;&gt;Node4 -->
<g id="edge6" class="edge">
<title>Node5&#45;&gt;Node4</title>
<path fill="none" stroke="midnightblue" d="M96.64,-124.08C96.64,-115.01 96.64,-105.45 96.64,-97.89"/>
<polygon fill="midnightblue" stroke="midnightblue" points="93.14,-124.36 96.64,-134.36 100.14,-124.36 93.14,-124.36"/>
</g>
<!-- Node7 -->
<g id="node7" class="node">
<title>Node7</title>
<g id="a_node7"><a xlink:href="ddm__efield__global__preconditioner_8h.html" target="_top" xlink:title="Introduction of ddm_efield_global_preconditioner.h.">
<polygon fill="none" stroke="black" points="224.64,-67.5 224.64,-97.5 396.64,-97.5 396.64,-67.5 224.64,-67.5"/>
<text text-anchor="start" x="232.64" y="-85.5" font-family="Helvetica,sans-Serif" font-size="10.00">include/electric_field</text>
<text text-anchor="middle" x="310.64" y="-74.5" font-family="Helvetica,sans-Serif" font-size="10.00">/ddm_efield_global_preconditioner.h</text>
</a>
</g>
</g>
<!-- Node6&#45;&gt;Node7 -->
<g id="edge8" class="edge">
<title>Node6&#45;&gt;Node7</title>
<path fill="none" stroke="midnightblue" d="M353.24,-127.02C343.54,-117.11 332.93,-106.27 324.73,-97.89"/>
<polygon fill="midnightblue" stroke="midnightblue" points="350.93,-129.66 360.42,-134.36 355.93,-124.77 350.93,-129.66"/>
</g>
<!-- Node7&#45;&gt;Node3 -->
<g id="edge9" class="edge">
<title>Node7&#45;&gt;Node3</title>
<path fill="none" stroke="midnightblue" d="M254.49,-64.44C219.8,-53.91 175.82,-40.55 143.1,-30.61"/>
<polygon fill="midnightblue" stroke="midnightblue" points="253.89,-67.92 264.47,-67.48 255.92,-61.22 253.89,-67.92"/>
</g>
<!-- Node8&#45;&gt;Node4 -->
<g id="edge11" class="edge">
<title>Node8&#45;&gt;Node4</title>
<path fill="none" stroke="midnightblue" d="M189.39,-129.87C167.93,-119.15 143.42,-106.89 124.98,-97.67"/>
<polygon fill="midnightblue" stroke="midnightblue" points="187.86,-133.02 198.37,-134.36 190.99,-126.76 187.86,-133.02"/>
</g>
<!-- Node10 -->
<g id="node10" class="node">
<title>Node10</title>
<g id="a_node10"><a xlink:href="laplace__bem_8impl_8hcu_source.html" target="_top" xlink:title=" ">
<polygon fill="none" stroke="black" points="461.14,-140 461.14,-170 576.14,-170 576.14,-140 461.14,-140"/>
<text text-anchor="start" x="469.14" y="-158" font-family="Helvetica,sans-Serif" font-size="10.00">include/laplace/laplace</text>
<text text-anchor="middle" x="518.64" y="-147" font-family="Helvetica,sans-Serif" font-size="10.00">_bem.impl.hcu</text>
</a>
</g>
</g>
<!-- Node9&#45;&gt;Node10 -->
<g id="edge13" class="edge">
<title>Node9&#45;&gt;Node10</title>
<path fill="none" stroke="midnightblue" d="M444.01,-211.61C461.56,-198.54 483.9,-181.89 499.54,-170.23"/>
<polygon fill="midnightblue" stroke="midnightblue" points="441.76,-208.92 435.83,-217.7 445.94,-214.54 441.76,-208.92"/>
</g>
<!-- Node11 -->
<g id="node11" class="node">
<title>Node11</title>
<g id="a_node11"><a xlink:href="laplace__bem_8cu_source.html" target="_top" xlink:title=" ">
<polygon fill="none" stroke="black" points="469.64,-67.5 469.64,-97.5 567.64,-97.5 567.64,-67.5 469.64,-67.5"/>
<text text-anchor="start" x="477.64" y="-85.5" font-family="Helvetica,sans-Serif" font-size="10.00">src/laplace/laplace</text>
<text text-anchor="middle" x="518.64" y="-74.5" font-family="Helvetica,sans-Serif" font-size="10.00">_bem.cu</text>
</a>
</g>
</g>
<!-- Node10&#45;&gt;Node11 -->
<g id="edge14" class="edge">
<title>Node10&#45;&gt;Node11</title>
<path fill="none" stroke="midnightblue" d="M518.64,-129.73C518.64,-119.07 518.64,-106.91 518.64,-97.75"/>
<polygon fill="midnightblue" stroke="midnightblue" points="515.14,-129.73 518.64,-139.73 522.14,-129.73 515.14,-129.73"/>
</g>
</g>
</svg>
