<?xml version="1.0" encoding="UTF-8" standalone="no"?>
<!DOCTYPE svg PUBLIC "-//W3C//DTD SVG 1.1//EN"
 "http://www.w3.org/Graphics/SVG/1.1/DTD/svg11.dtd">
<!-- Generated by graphviz version 2.43.0 (0)
 -->
<!-- Title: src/hmatrix/hmatrix_support.cc Pages: 1 -->
<svg width="319pt" height="151pt"
 viewBox="0.00 0.00 318.50 151.00" xmlns="http://www.w3.org/2000/svg" xmlns:xlink="http://www.w3.org/1999/xlink">
<g id="graph0" class="graph" transform="scale(1 1) rotate(0) translate(4 147)">
<title>src/hmatrix/hmatrix_support.cc</title>
<!-- Node1 -->
<g id="node1" class="node">
<title>Node1</title>
<g id="a_node1"><a xlink:title="Implementation of helper functions declared in hmatrix_support.h.">
<polygon fill="#bfbfbf" stroke="black" points="141.5,-112.5 141.5,-142.5 242.5,-142.5 242.5,-112.5 141.5,-112.5"/>
<text text-anchor="start" x="149.5" y="-130.5" font-family="Helvetica,sans-Serif" font-size="10.00">src/hmatrix/hmatrix</text>
<text text-anchor="middle" x="192" y="-119.5" font-family="Helvetica,sans-Serif" font-size="10.00">_support.cc</text>
</a>
</g>
</g>
<!-- Node2 -->
<g id="node2" class="node">
<title>Node2</title>
<g id="a_node2"><a xlink:href="hmatrix__support_8h.html" target="_top" xlink:title="Adapted from deal.ii/lac/lapack_support.h and define some features for an &#45;matrix.">
<polygon fill="none" stroke="black" points="127,-56.5 127,-75.5 257,-75.5 257,-56.5 127,-56.5"/>
<text text-anchor="middle" x="192" y="-63.5" font-family="Helvetica,sans-Serif" font-size="10.00">hmatrix/hmatrix_support.h</text>
</a>
</g>
</g>
<!-- Node1&#45;&gt;Node2 -->
<g id="edge1" class="edge">
<title>Node1&#45;&gt;Node2</title>
<path fill="none" stroke="midnightblue" d="M192,-112.4C192,-104.47 192,-94.46 192,-85.86"/>
<polygon fill="midnightblue" stroke="midnightblue" points="195.5,-85.66 192,-75.66 188.5,-85.66 195.5,-85.66"/>
</g>
<!-- Node3 -->
<g id="node3" class="node">
<title>Node3</title>
<g id="a_node3"><a xlink:title=" ">
<polygon fill="none" stroke="#bfbfbf" points="0,-0.5 0,-19.5 126,-19.5 126,-0.5 0,-0.5"/>
<text text-anchor="middle" x="63" y="-7.5" font-family="Helvetica,sans-Serif" font-size="10.00">deal.II/base/exceptions.h</text>
</a>
</g>
</g>
<!-- Node2&#45;&gt;Node3 -->
<g id="edge2" class="edge">
<title>Node2&#45;&gt;Node3</title>
<path fill="none" stroke="midnightblue" d="M171.56,-56.44C150.33,-47.56 116.9,-33.56 92.75,-23.45"/>
<polygon fill="midnightblue" stroke="midnightblue" points="93.92,-20.15 83.34,-19.52 91.22,-26.61 93.92,-20.15"/>
</g>
<!-- Node4 -->
<g id="node4" class="node">
<title>Node4</title>
<g id="a_node4"><a xlink:title=" ">
<polygon fill="none" stroke="#bfbfbf" points="144,-0.5 144,-19.5 182,-19.5 182,-0.5 144,-0.5"/>
<text text-anchor="middle" x="163" y="-7.5" font-family="Helvetica,sans-Serif" font-size="10.00">array</text>
</a>
</g>
</g>
<!-- Node2&#45;&gt;Node4 -->
<g id="edge3" class="edge">
<title>Node2&#45;&gt;Node4</title>
<path fill="none" stroke="midnightblue" d="M187.21,-56.08C183.24,-48.69 177.47,-37.95 172.57,-28.81"/>
<polygon fill="midnightblue" stroke="midnightblue" points="175.51,-26.91 167.7,-19.75 169.35,-30.22 175.51,-26.91"/>
</g>
<!-- Node5 -->
<g id="node5" class="node">
<title>Node5</title>
<g id="a_node5"><a xlink:title=" ">
<polygon fill="none" stroke="#bfbfbf" points="200.5,-0.5 200.5,-19.5 241.5,-19.5 241.5,-0.5 200.5,-0.5"/>
<text text-anchor="middle" x="221" y="-7.5" font-family="Helvetica,sans-Serif" font-size="10.00">string</text>
</a>
</g>
</g>
<!-- Node2&#45;&gt;Node5 -->
<g id="edge4" class="edge">
<title>Node2&#45;&gt;Node5</title>
<path fill="none" stroke="midnightblue" d="M196.79,-56.08C200.76,-48.69 206.53,-37.95 211.43,-28.81"/>
<polygon fill="midnightblue" stroke="midnightblue" points="214.65,-30.22 216.3,-19.75 208.49,-26.91 214.65,-30.22"/>
</g>
<!-- Node6 -->
<g id="node6" class="node">
<title>Node6</title>
<g id="a_node6"><a xlink:href="config_8h.html" target="_top" xlink:title="Configurations for building the project.">
<polygon fill="none" stroke="black" points="259.5,-0.5 259.5,-19.5 310.5,-19.5 310.5,-0.5 259.5,-0.5"/>
<text text-anchor="middle" x="285" y="-7.5" font-family="Helvetica,sans-Serif" font-size="10.00">config.h</text>
</a>
</g>
</g>
<!-- Node2&#45;&gt;Node6 -->
<g id="edge5" class="edge">
<title>Node2&#45;&gt;Node6</title>
<path fill="none" stroke="midnightblue" d="M206.94,-56.32C221.59,-47.82 244.13,-34.73 261.24,-24.8"/>
<polygon fill="midnightblue" stroke="midnightblue" points="263.2,-27.7 270.1,-19.65 259.69,-21.65 263.2,-27.7"/>
</g>
</g>
</svg>
