<?xml version="1.0" encoding="UTF-8" standalone="no"?>
<!DOCTYPE svg PUBLIC "-//W3C//DTD SVG 1.1//EN"
 "http://www.w3.org/Graphics/SVG/1.1/DTD/svg11.dtd">
<!-- Generated by graphviz version 2.43.0 (0)
 -->
<!-- Title: include/hmatrix/hmatrix_vmult_strategy.h Pages: 1 -->
<svg width="1295pt" height="597pt"
 viewBox="0.00 0.00 1294.50 597.00" xmlns="http://www.w3.org/2000/svg" xmlns:xlink="http://www.w3.org/1999/xlink">
<g id="graph0" class="graph" transform="scale(1 1) rotate(0) translate(4 593)">
<title>include/hmatrix/hmatrix_vmult_strategy.h</title>
<!-- Node1 -->
<g id="node1" class="node">
<title>Node1</title>
<g id="a_node1"><a xlink:title="Strategies for top level H&#45;matrix/vector multiplications, namely, vmult , Tvmult ,...">
<polygon fill="#bfbfbf" stroke="black" points="702.5,-558.5 702.5,-588.5 820.5,-588.5 820.5,-558.5 702.5,-558.5"/>
<text text-anchor="start" x="710.5" y="-576.5" font-family="Helvetica,sans-Serif" font-size="10.00">include/hmatrix/hmatrix</text>
<text text-anchor="middle" x="761.5" y="-565.5" font-family="Helvetica,sans-Serif" font-size="10.00">_vmult_strategy.h</text>
</a>
</g>
</g>
<!-- Node2 -->
<g id="node2" class="node">
<title>Node2</title>
<g id="a_node2"><a xlink:href="hmatrix_8h.html" target="_top" xlink:title="Definition of hierarchical matrix.">
<polygon fill="none" stroke="black" points="698.5,-502.5 698.5,-521.5 824.5,-521.5 824.5,-502.5 698.5,-502.5"/>
<text text-anchor="middle" x="761.5" y="-509.5" font-family="Helvetica,sans-Serif" font-size="10.00">include/hmatrix/hmatrix.h</text>
</a>
</g>
</g>
<!-- Node1&#45;&gt;Node2 -->
<g id="edge1" class="edge">
<title>Node1&#45;&gt;Node2</title>
<path fill="none" stroke="midnightblue" d="M761.5,-548.29C761.5,-538.86 761.5,-528.65 761.5,-521.66"/>
<polygon fill="midnightblue" stroke="midnightblue" points="758,-548.4 761.5,-558.4 765,-548.4 758,-548.4"/>
</g>
<!-- Node11 -->
<g id="node11" class="node">
<title>Node11</title>
<g id="a_node11"><a xlink:href="laplace__bem_8priv_8hcu_source.html" target="_top" xlink:title=" ">
<polygon fill="none" stroke="black" points="742,-134.5 742,-164.5 857,-164.5 857,-134.5 742,-134.5"/>
<text text-anchor="start" x="750" y="-152.5" font-family="Helvetica,sans-Serif" font-size="10.00">include/laplace/laplace</text>
<text text-anchor="middle" x="799.5" y="-141.5" font-family="Helvetica,sans-Serif" font-size="10.00">_bem.priv.hcu</text>
</a>
</g>
</g>
<!-- Node1&#45;&gt;Node11 -->
<g id="edge42" class="edge">
<title>Node1&#45;&gt;Node11</title>
<path fill="none" stroke="midnightblue" d="M831.09,-570.91C973.85,-565.74 1286.5,-543.89 1286.5,-451.5 1286.5,-451.5 1286.5,-451.5 1286.5,-299 1286.5,-241.34 1252.35,-228.17 1201.5,-201 1143.18,-169.84 953.72,-157.21 857.18,-152.7"/>
<polygon fill="midnightblue" stroke="midnightblue" points="830.58,-567.42 820.7,-571.26 830.82,-574.42 830.58,-567.42"/>
</g>
<!-- Node24 -->
<g id="node24" class="node">
<title>Node24</title>
<g id="a_node24"><a xlink:href="laplace__bem_8h.html" target="_top" xlink:title="Implementation of BEM involving kernel functions and singular numerical quadratures.">
<polygon fill="none" stroke="black" points="0,-207 0,-237 115,-237 115,-207 0,-207"/>
<text text-anchor="start" x="8" y="-225" font-family="Helvetica,sans-Serif" font-size="10.00">include/laplace/laplace</text>
<text text-anchor="middle" x="57.5" y="-214" font-family="Helvetica,sans-Serif" font-size="10.00">_bem.h</text>
</a>
</g>
</g>
<!-- Node1&#45;&gt;Node24 -->
<g id="edge39" class="edge">
<title>Node1&#45;&gt;Node24</title>
<path fill="none" stroke="midnightblue" d="M692.32,-567.41C519.29,-553.74 81.5,-513.08 81.5,-451.5 81.5,-451.5 81.5,-451.5 81.5,-377 81.5,-325.05 68,-264.4 61.25,-237.32"/>
<polygon fill="midnightblue" stroke="midnightblue" points="692.1,-570.9 702.34,-568.19 692.65,-563.92 692.1,-570.9"/>
</g>
<!-- Node3 -->
<g id="node3" class="node">
<title>Node3</title>
<g id="a_node3"><a xlink:href="ddm__efield_8h.html" target="_top" xlink:title="Introduction of ddm_efield.h.">
<polygon fill="none" stroke="black" points="196,-134.5 196,-164.5 301,-164.5 301,-134.5 196,-134.5"/>
<text text-anchor="start" x="204" y="-152.5" font-family="Helvetica,sans-Serif" font-size="10.00">include/electric_field</text>
<text text-anchor="middle" x="248.5" y="-141.5" font-family="Helvetica,sans-Serif" font-size="10.00">/ddm_efield.h</text>
</a>
</g>
</g>
<!-- Node2&#45;&gt;Node3 -->
<g id="edge2" class="edge">
<title>Node2&#45;&gt;Node3</title>
<path fill="none" stroke="midnightblue" d="M687.79,-510.6C523.87,-507.72 143.5,-489.17 143.5,-379 143.5,-379 143.5,-379 143.5,-299 143.5,-240.27 198.93,-188.49 229.24,-164.56"/>
<polygon fill="midnightblue" stroke="midnightblue" points="688.21,-514.11 698.27,-510.77 688.32,-507.11 688.21,-514.11"/>
</g>
<!-- Node4 -->
<g id="node4" class="node">
<title>Node4</title>
<g id="a_node4"><a xlink:href="subdomain__steklov__poincare__hmatrix_8h.html" target="_top" xlink:title="Introduction of subdomain_steklov_poincare_hmatrix.h.">
<polygon fill="none" stroke="black" points="286.5,-357.5 286.5,-398.5 432.5,-398.5 432.5,-357.5 286.5,-357.5"/>
<text text-anchor="start" x="294.5" y="-386.5" font-family="Helvetica,sans-Serif" font-size="10.00">include/electric_field</text>
<text text-anchor="start" x="294.5" y="-375.5" font-family="Helvetica,sans-Serif" font-size="10.00">/subdomain_steklov_poincare</text>
<text text-anchor="middle" x="359.5" y="-364.5" font-family="Helvetica,sans-Serif" font-size="10.00">_hmatrix.h</text>
</a>
</g>
</g>
<!-- Node2&#45;&gt;Node4 -->
<g id="edge3" class="edge">
<title>Node2&#45;&gt;Node4</title>
<path fill="none" stroke="midnightblue" d="M687.93,-508.94C566.79,-504.78 336.23,-493.33 311.5,-466 293.21,-445.79 315.78,-417.39 335.74,-398.6"/>
<polygon fill="midnightblue" stroke="midnightblue" points="688.12,-512.45 698.23,-509.28 688.35,-505.45 688.12,-512.45"/>
</g>
<!-- Node10 -->
<g id="node10" class="node">
<title>Node10</title>
<g id="a_node10"><a xlink:href="aca__plus_8hcu.html" target="_top" xlink:title="Implement the ACA+ method proposed in Grasedyck, L. 2005. “Adaptive Recompression of &#45;Matrices for BE...">
<polygon fill="none" stroke="black" points="1119,-363 1119,-393 1220,-393 1220,-363 1119,-363"/>
<text text-anchor="start" x="1127" y="-381" font-family="Helvetica,sans-Serif" font-size="10.00">include/hmatrix/aca</text>
<text text-anchor="middle" x="1169.5" y="-370" font-family="Helvetica,sans-Serif" font-size="10.00">_plus/aca_plus.hcu</text>
</a>
</g>
</g>
<!-- Node2&#45;&gt;Node10 -->
<g id="edge14" class="edge">
<title>Node2&#45;&gt;Node10</title>
<path fill="none" stroke="midnightblue" d="M834.67,-505.98C915.1,-499.53 1038.51,-486.65 1080.5,-466 1115.21,-448.93 1144.89,-413.2 1159.61,-393.24"/>
<polygon fill="midnightblue" stroke="midnightblue" points="834.29,-502.5 824.59,-506.77 834.84,-509.48 834.29,-502.5"/>
</g>
<!-- Node2&#45;&gt;Node11 -->
<g id="edge31" class="edge">
<title>Node2&#45;&gt;Node11</title>
<path fill="none" stroke="midnightblue" d="M835.16,-510.11C907.93,-507.27 1021.52,-497.55 1114.5,-466 1181.74,-443.18 1248.5,-450.01 1248.5,-379 1248.5,-379 1248.5,-379 1248.5,-299 1248.5,-237.4 1205.58,-228.57 1150.5,-201 1100.27,-175.85 943.27,-160.89 857.26,-154.38"/>
<polygon fill="midnightblue" stroke="midnightblue" points="834.6,-506.62 824.73,-510.48 834.85,-513.62 834.6,-506.62"/>
</g>
<!-- Node14 -->
<g id="node14" class="node">
<title>Node14</title>
<g id="a_node14"><a xlink:href="operator__preconditioner_8h.html" target="_top" xlink:title=" ">
<polygon fill="none" stroke="black" points="836,-285 836,-315 965,-315 965,-285 836,-285"/>
<text text-anchor="start" x="844" y="-303" font-family="Helvetica,sans-Serif" font-size="10.00">include/preconditioners</text>
<text text-anchor="middle" x="900.5" y="-292" font-family="Helvetica,sans-Serif" font-size="10.00">/operator_preconditioner.h</text>
</a>
</g>
</g>
<!-- Node2&#45;&gt;Node14 -->
<g id="edge32" class="edge">
<title>Node2&#45;&gt;Node14</title>
<path fill="none" stroke="midnightblue" d="M827.87,-499.36C846.35,-492.73 864.39,-482.33 875.5,-466 883.25,-454.61 882.15,-447.07 875.5,-435 861.04,-408.76 832.96,-425.24 818.5,-399 809.49,-382.65 809.78,-373.51 818.5,-357 828.56,-337.94 848.35,-324.15 865.96,-315.01"/>
<polygon fill="midnightblue" stroke="midnightblue" points="826.63,-496.08 818.19,-502.5 828.79,-502.74 826.63,-496.08"/>
</g>
<!-- Node18 -->
<g id="node18" class="node">
<title>Node18</title>
<g id="a_node18"><a xlink:href="hblockmatrix__skew__symm_8h.html" target="_top" xlink:title="Introduction of hblockmatrix_skew_symm.h.">
<polygon fill="none" stroke="black" points="497,-435.5 497,-465.5 638,-465.5 638,-435.5 497,-435.5"/>
<text text-anchor="start" x="505" y="-453.5" font-family="Helvetica,sans-Serif" font-size="10.00">include/hmatrix/hblockmatrix</text>
<text text-anchor="middle" x="567.5" y="-442.5" font-family="Helvetica,sans-Serif" font-size="10.00">_skew_symm.h</text>
</a>
</g>
</g>
<!-- Node2&#45;&gt;Node18 -->
<g id="edge24" class="edge">
<title>Node2&#45;&gt;Node18</title>
<path fill="none" stroke="midnightblue" d="M723.95,-499.48C692.32,-489.78 646.96,-475.87 613.22,-465.52"/>
<polygon fill="midnightblue" stroke="midnightblue" points="723.12,-502.89 733.7,-502.48 725.17,-496.2 723.12,-502.89"/>
</g>
<!-- Node19 -->
<g id="node19" class="node">
<title>Node19</title>
<g id="a_node19"><a xlink:href="hblockmatrix__skew__symm__preconditioner_8h.html" target="_top" xlink:title="Introduction of hblockmatrix_skew_symm_preconditioner.h.">
<polygon fill="none" stroke="black" points="656.5,-435.5 656.5,-465.5 866.5,-465.5 866.5,-435.5 656.5,-435.5"/>
<text text-anchor="start" x="664.5" y="-453.5" font-family="Helvetica,sans-Serif" font-size="10.00">include/hmatrix/preconditioner</text>
<text text-anchor="middle" x="761.5" y="-442.5" font-family="Helvetica,sans-Serif" font-size="10.00">/hblockmatrix_skew_symm_preconditioner.h</text>
</a>
</g>
</g>
<!-- Node2&#45;&gt;Node19 -->
<g id="edge26" class="edge">
<title>Node2&#45;&gt;Node19</title>
<path fill="none" stroke="midnightblue" d="M761.5,-492.23C761.5,-483.59 761.5,-473.5 761.5,-465.52"/>
<polygon fill="midnightblue" stroke="midnightblue" points="758,-492.48 761.5,-502.48 765,-492.48 758,-492.48"/>
</g>
<!-- Node20 -->
<g id="node20" class="node">
<title>Node20</title>
<g id="a_node20"><a xlink:href="hmatrix__symm__preconditioner_8h.html" target="_top" xlink:title="Symmetric &#45;matrix by inheriting from HMatrix, which is used as the preconditioner for SPD &#45;matrices.">
<polygon fill="none" stroke="black" points="320.5,-435.5 320.5,-465.5 478.5,-465.5 478.5,-435.5 320.5,-435.5"/>
<text text-anchor="start" x="328.5" y="-453.5" font-family="Helvetica,sans-Serif" font-size="10.00">include/hmatrix/preconditioner</text>
<text text-anchor="middle" x="399.5" y="-442.5" font-family="Helvetica,sans-Serif" font-size="10.00">/hmatrix_symm_preconditioner.h</text>
</a>
</g>
</g>
<!-- Node2&#45;&gt;Node20 -->
<g id="edge28" class="edge">
<title>Node2&#45;&gt;Node20</title>
<path fill="none" stroke="midnightblue" d="M699.45,-500.82C643.91,-491.7 560.27,-477.97 487.5,-466 484.6,-465.52 481.64,-465.04 478.65,-464.54"/>
<polygon fill="midnightblue" stroke="midnightblue" points="699.05,-504.3 709.48,-502.47 700.18,-497.39 699.05,-504.3"/>
</g>
<!-- Node21 -->
<g id="node21" class="node">
<title>Node21</title>
<g id="a_node21"><a xlink:href="sauter__quadrature_8hcu_source.html" target="_top" xlink:title=" ">
<polygon fill="none" stroke="black" points="955.5,-435.5 955.5,-465.5 1071.5,-465.5 1071.5,-435.5 955.5,-435.5"/>
<text text-anchor="start" x="963.5" y="-453.5" font-family="Helvetica,sans-Serif" font-size="10.00">include/quadrature</text>
<text text-anchor="middle" x="1013.5" y="-442.5" font-family="Helvetica,sans-Serif" font-size="10.00">/sauter_quadrature.hcu</text>
</a>
</g>
</g>
<!-- Node2&#45;&gt;Node21 -->
<g id="edge33" class="edge">
<title>Node2&#45;&gt;Node21</title>
<path fill="none" stroke="midnightblue" d="M807.44,-500.15C848.91,-490.36 910.14,-475.9 955.08,-465.29"/>
<polygon fill="midnightblue" stroke="midnightblue" points="806.53,-496.77 797.61,-502.48 808.14,-503.58 806.53,-496.77"/>
</g>
<!-- Node4&#45;&gt;Node3 -->
<g id="edge4" class="edge">
<title>Node4&#45;&gt;Node3</title>
<path fill="none" stroke="midnightblue" d="M276.69,-367.54C247.75,-359.8 218.12,-345.89 200.5,-321 165.14,-271.06 213.76,-195.73 237.16,-164.67"/>
<polygon fill="midnightblue" stroke="midnightblue" points="275.91,-370.95 286.45,-369.93 277.58,-364.15 275.91,-370.95"/>
</g>
<!-- Node5 -->
<g id="node5" class="node">
<title>Node5</title>
<g id="a_node5"><a xlink:href="ddm__efield__matrix_8h.html" target="_top" xlink:title="Introduction of ddm_efield_matrix.h.">
<polygon fill="none" stroke="black" points="262,-207 262,-237 369,-237 369,-207 262,-207"/>
<text text-anchor="start" x="270" y="-225" font-family="Helvetica,sans-Serif" font-size="10.00">include/electric_field</text>
<text text-anchor="middle" x="315.5" y="-214" font-family="Helvetica,sans-Serif" font-size="10.00">/ddm_efield_matrix.h</text>
</a>
</g>
</g>
<!-- Node4&#45;&gt;Node5 -->
<g id="edge5" class="edge">
<title>Node4&#45;&gt;Node5</title>
<path fill="none" stroke="midnightblue" d="M355.06,-347.28C351.72,-327.64 346.53,-301.48 339.5,-279 334.95,-264.46 327.93,-248.56 322.65,-237.43"/>
<polygon fill="midnightblue" stroke="midnightblue" points="351.61,-347.87 356.67,-357.18 358.51,-346.75 351.61,-347.87"/>
</g>
<!-- Node6 -->
<g id="node6" class="node">
<title>Node6</title>
<g id="a_node6"><a xlink:href="subdomain__hmatrix__for__charge__neutrality__eqn_8h.html" target="_top" xlink:title="Introduction of subdomain_hmatrix_for_charge_neutrality_eqn.h.">
<polygon fill="none" stroke="black" points="388,-279.5 388,-320.5 513,-320.5 513,-279.5 388,-279.5"/>
<text text-anchor="start" x="396" y="-308.5" font-family="Helvetica,sans-Serif" font-size="10.00">include/electric_field</text>
<text text-anchor="start" x="396" y="-297.5" font-family="Helvetica,sans-Serif" font-size="10.00">/subdomain_hmatrix_for</text>
<text text-anchor="middle" x="450.5" y="-286.5" font-family="Helvetica,sans-Serif" font-size="10.00">_charge_neutrality_eqn.h</text>
</a>
</g>
</g>
<!-- Node4&#45;&gt;Node6 -->
<g id="edge7" class="edge">
<title>Node4&#45;&gt;Node6</title>
<path fill="none" stroke="midnightblue" d="M390.9,-350.78C402.79,-340.84 416.12,-329.72 427.14,-320.51"/>
<polygon fill="midnightblue" stroke="midnightblue" points="388.37,-348.33 382.93,-357.43 392.85,-353.7 388.37,-348.33"/>
</g>
<!-- Node7 -->
<g id="node7" class="node">
<title>Node7</title>
<g id="a_node7"><a xlink:href="subdomain__hmatrix__for__global__preconditioning_8h.html" target="_top" xlink:title="Introduction of subdomain_hmatrix_for_global_preconditioning.h.">
<polygon fill="none" stroke="black" points="531.5,-279.5 531.5,-320.5 657.5,-320.5 657.5,-279.5 531.5,-279.5"/>
<text text-anchor="start" x="539.5" y="-308.5" font-family="Helvetica,sans-Serif" font-size="10.00">include/electric_field</text>
<text text-anchor="start" x="539.5" y="-297.5" font-family="Helvetica,sans-Serif" font-size="10.00">/subdomain_hmatrix_for</text>
<text text-anchor="middle" x="594.5" y="-286.5" font-family="Helvetica,sans-Serif" font-size="10.00">_global_preconditioning.h</text>
</a>
</g>
</g>
<!-- Node4&#45;&gt;Node7 -->
<g id="edge9" class="edge">
<title>Node4&#45;&gt;Node7</title>
<path fill="none" stroke="midnightblue" d="M429.68,-354.3C462.94,-343.55 502.28,-330.82 534.19,-320.51"/>
<polygon fill="midnightblue" stroke="midnightblue" points="428.46,-351.02 420.02,-357.43 430.61,-357.68 428.46,-351.02"/>
</g>
<!-- Node9 -->
<g id="node9" class="node">
<title>Node9</title>
<g id="a_node9"><a xlink:href="subdomain__hmatrix__for__transmission__eqn_8h.html" target="_top" xlink:title="Introduction of subdomain_hmatrix_for_transmission_eqn.h.">
<polygon fill="none" stroke="black" points="210,-279.5 210,-320.5 331,-320.5 331,-279.5 210,-279.5"/>
<text text-anchor="start" x="218" y="-308.5" font-family="Helvetica,sans-Serif" font-size="10.00">include/electric_field</text>
<text text-anchor="start" x="218" y="-297.5" font-family="Helvetica,sans-Serif" font-size="10.00">/subdomain_hmatrix_for</text>
<text text-anchor="middle" x="270.5" y="-286.5" font-family="Helvetica,sans-Serif" font-size="10.00">_transmission_eqn.h</text>
</a>
</g>
</g>
<!-- Node4&#45;&gt;Node9 -->
<g id="edge12" class="edge">
<title>Node4&#45;&gt;Node9</title>
<path fill="none" stroke="midnightblue" d="M328.79,-350.78C317.16,-340.84 304.13,-329.72 293.34,-320.51"/>
<polygon fill="midnightblue" stroke="midnightblue" points="326.7,-353.6 336.58,-357.43 331.25,-348.27 326.7,-353.6"/>
</g>
<!-- Node5&#45;&gt;Node3 -->
<g id="edge6" class="edge">
<title>Node5&#45;&gt;Node3</title>
<path fill="none" stroke="midnightblue" d="M294.94,-199.36C284.25,-188.11 271.48,-174.68 262.04,-164.75"/>
<polygon fill="midnightblue" stroke="midnightblue" points="292.52,-201.9 301.94,-206.73 297.59,-197.07 292.52,-201.9"/>
</g>
<!-- Node6&#45;&gt;Node5 -->
<g id="edge8" class="edge">
<title>Node6&#45;&gt;Node5</title>
<path fill="none" stroke="midnightblue" d="M406.94,-274.48C385.07,-262.17 359.35,-247.69 340.77,-237.23"/>
<polygon fill="midnightblue" stroke="midnightblue" points="405.3,-277.57 415.73,-279.43 408.74,-271.47 405.3,-277.57"/>
</g>
<!-- Node8 -->
<g id="node8" class="node">
<title>Node8</title>
<g id="a_node8"><a xlink:href="ddm__efield__global__preconditioner_8h.html" target="_top" xlink:title="Introduction of ddm_efield_global_preconditioner.h.">
<polygon fill="none" stroke="black" points="436.5,-207 436.5,-237 608.5,-237 608.5,-207 436.5,-207"/>
<text text-anchor="start" x="444.5" y="-225" font-family="Helvetica,sans-Serif" font-size="10.00">include/electric_field</text>
<text text-anchor="middle" x="522.5" y="-214" font-family="Helvetica,sans-Serif" font-size="10.00">/ddm_efield_global_preconditioner.h</text>
</a>
</g>
</g>
<!-- Node7&#45;&gt;Node8 -->
<g id="edge10" class="edge">
<title>Node7&#45;&gt;Node8</title>
<path fill="none" stroke="midnightblue" d="M568.91,-271.99C557.79,-260.25 545.23,-246.99 535.98,-237.23"/>
<polygon fill="midnightblue" stroke="midnightblue" points="566.54,-274.58 575.96,-279.43 571.62,-269.76 566.54,-274.58"/>
</g>
<!-- Node8&#45;&gt;Node3 -->
<g id="edge11" class="edge">
<title>Node8&#45;&gt;Node3</title>
<path fill="none" stroke="midnightblue" d="M458.12,-204.44C410.42,-192.16 346.2,-175.64 301.46,-164.13"/>
<polygon fill="midnightblue" stroke="midnightblue" points="457.48,-207.88 468.04,-206.99 459.23,-201.11 457.48,-207.88"/>
</g>
<!-- Node9&#45;&gt;Node5 -->
<g id="edge13" class="edge">
<title>Node9&#45;&gt;Node5</title>
<path fill="none" stroke="midnightblue" d="M287.29,-270.64C294.04,-259.25 301.52,-246.62 307.08,-237.23"/>
<polygon fill="midnightblue" stroke="midnightblue" points="284.17,-269.04 282.09,-279.43 290.2,-272.61 284.17,-269.04"/>
</g>
<!-- Node10&#45;&gt;Node11 -->
<g id="edge15" class="edge">
<title>Node10&#45;&gt;Node11</title>
<path fill="none" stroke="midnightblue" d="M1170.94,-352.59C1171.74,-313.66 1166.92,-238.12 1121.5,-201 1082.01,-168.73 938.5,-156.87 857.02,-152.67"/>
<polygon fill="midnightblue" stroke="midnightblue" points="1167.43,-352.86 1170.57,-362.98 1174.42,-353.11 1167.43,-352.86"/>
</g>
<!-- Node10&#45;&gt;Node14 -->
<g id="edge18" class="edge">
<title>Node10&#45;&gt;Node14</title>
<path fill="none" stroke="midnightblue" d="M1119.55,-359.81C1116.49,-358.84 1113.46,-357.89 1110.5,-357 1059.03,-341.43 999.8,-325.85 957.38,-315.08"/>
<polygon fill="midnightblue" stroke="midnightblue" points="1118.72,-363.22 1129.31,-362.98 1120.88,-356.56 1118.72,-363.22"/>
</g>
<!-- Node17 -->
<g id="node17" class="node">
<title>Node17</title>
<g id="a_node17"><a xlink:href="aca__plus_8cu_source.html" target="_top" xlink:title=" ">
<polygon fill="none" stroke="black" points="1034,-285 1034,-315 1141,-315 1141,-285 1034,-285"/>
<text text-anchor="start" x="1042" y="-303" font-family="Helvetica,sans-Serif" font-size="10.00">src/hmatrix/aca_plus</text>
<text text-anchor="middle" x="1087.5" y="-292" font-family="Helvetica,sans-Serif" font-size="10.00">/aca_plus.cu</text>
</a>
</g>
</g>
<!-- Node10&#45;&gt;Node17 -->
<g id="edge23" class="edge">
<title>Node10&#45;&gt;Node17</title>
<path fill="none" stroke="midnightblue" d="M1146.73,-355.89C1132.74,-342.93 1115.2,-326.68 1102.85,-315.23"/>
<polygon fill="midnightblue" stroke="midnightblue" points="1144.36,-358.47 1154.08,-362.7 1149.12,-353.34 1144.36,-358.47"/>
</g>
<!-- Node12 -->
<g id="node12" class="node">
<title>Node12</title>
<g id="a_node12"><a xlink:href="laplace__bem_8impl_8hcu_source.html" target="_top" xlink:title=" ">
<polygon fill="none" stroke="black" points="438,-67.5 438,-97.5 553,-97.5 553,-67.5 438,-67.5"/>
<text text-anchor="start" x="446" y="-85.5" font-family="Helvetica,sans-Serif" font-size="10.00">include/laplace/laplace</text>
<text text-anchor="middle" x="495.5" y="-74.5" font-family="Helvetica,sans-Serif" font-size="10.00">_bem.impl.hcu</text>
</a>
</g>
</g>
<!-- Node11&#45;&gt;Node12 -->
<g id="edge16" class="edge">
<title>Node11&#45;&gt;Node12</title>
<path fill="none" stroke="midnightblue" d="M731.85,-134.04C678.16,-122.56 603.93,-106.68 553.06,-95.81"/>
<polygon fill="midnightblue" stroke="midnightblue" points="731.45,-137.53 741.96,-136.2 732.92,-130.68 731.45,-137.53"/>
</g>
<!-- Node13 -->
<g id="node13" class="node">
<title>Node13</title>
<g id="a_node13"><a xlink:href="laplace__bem_8cu_source.html" target="_top" xlink:title=" ">
<polygon fill="none" stroke="black" points="446.5,-0.5 446.5,-30.5 544.5,-30.5 544.5,-0.5 446.5,-0.5"/>
<text text-anchor="start" x="454.5" y="-18.5" font-family="Helvetica,sans-Serif" font-size="10.00">src/laplace/laplace</text>
<text text-anchor="middle" x="495.5" y="-7.5" font-family="Helvetica,sans-Serif" font-size="10.00">_bem.cu</text>
</a>
</g>
</g>
<!-- Node12&#45;&gt;Node13 -->
<g id="edge17" class="edge">
<title>Node12&#45;&gt;Node13</title>
<path fill="none" stroke="midnightblue" d="M495.5,-57.11C495.5,-48.15 495.5,-38.32 495.5,-30.58"/>
<polygon fill="midnightblue" stroke="midnightblue" points="492,-57.4 495.5,-67.4 499,-57.4 492,-57.4"/>
</g>
<!-- Node15 -->
<g id="node15" class="node">
<title>Node15</title>
<g id="a_node15"><a xlink:href="preconditioner__for__laplace__dirichlet_8h.html" target="_top" xlink:title=" ">
<polygon fill="none" stroke="black" points="979,-201.5 979,-242.5 1112,-242.5 1112,-201.5 979,-201.5"/>
<text text-anchor="start" x="987" y="-230.5" font-family="Helvetica,sans-Serif" font-size="10.00">include/preconditioners</text>
<text text-anchor="start" x="987" y="-219.5" font-family="Helvetica,sans-Serif" font-size="10.00">/preconditioner_for_laplace</text>
<text text-anchor="middle" x="1045.5" y="-208.5" font-family="Helvetica,sans-Serif" font-size="10.00">_dirichlet.h</text>
</a>
</g>
</g>
<!-- Node14&#45;&gt;Node15 -->
<g id="edge19" class="edge">
<title>Node14&#45;&gt;Node15</title>
<path fill="none" stroke="midnightblue" d="M936.38,-280.2C958.18,-268.77 985.97,-254.2 1008.05,-242.63"/>
<polygon fill="midnightblue" stroke="midnightblue" points="934.67,-277.14 927.43,-284.88 937.92,-283.34 934.67,-277.14"/>
</g>
<!-- Node16 -->
<g id="node16" class="node">
<title>Node16</title>
<g id="a_node16"><a xlink:href="preconditioner__for__laplace__neumann_8h.html" target="_top" xlink:title=" ">
<polygon fill="none" stroke="black" points="828,-201.5 828,-242.5 961,-242.5 961,-201.5 828,-201.5"/>
<text text-anchor="start" x="836" y="-230.5" font-family="Helvetica,sans-Serif" font-size="10.00">include/preconditioners</text>
<text text-anchor="start" x="836" y="-219.5" font-family="Helvetica,sans-Serif" font-size="10.00">/preconditioner_for_laplace</text>
<text text-anchor="middle" x="894.5" y="-208.5" font-family="Helvetica,sans-Serif" font-size="10.00">_neumann.h</text>
</a>
</g>
</g>
<!-- Node14&#45;&gt;Node16 -->
<g id="edge21" class="edge">
<title>Node14&#45;&gt;Node16</title>
<path fill="none" stroke="midnightblue" d="M898.58,-274.66C897.76,-264.33 896.82,-252.44 896.05,-242.68"/>
<polygon fill="midnightblue" stroke="midnightblue" points="895.1,-275.01 899.37,-284.7 902.07,-274.46 895.1,-275.01"/>
</g>
<!-- Node15&#45;&gt;Node11 -->
<g id="edge20" class="edge">
<title>Node15&#45;&gt;Node11</title>
<path fill="none" stroke="midnightblue" d="M969.11,-199.11C929.79,-187.84 883.02,-174.44 848.56,-164.56"/>
<polygon fill="midnightblue" stroke="midnightblue" points="968.35,-202.53 978.93,-201.92 970.28,-195.8 968.35,-202.53"/>
</g>
<!-- Node16&#45;&gt;Node11 -->
<g id="edge22" class="edge">
<title>Node16&#45;&gt;Node11</title>
<path fill="none" stroke="midnightblue" d="M859.65,-195.14C845.77,-184.84 830.35,-173.39 818.59,-164.67"/>
<polygon fill="midnightblue" stroke="midnightblue" points="857.92,-198.21 868.04,-201.36 862.09,-192.59 857.92,-198.21"/>
</g>
<!-- Node18&#45;&gt;Node11 -->
<g id="edge25" class="edge">
<title>Node18&#45;&gt;Node11</title>
<path fill="none" stroke="midnightblue" d="M644.09,-432.15C664.07,-424.64 684.24,-414 699.5,-399 717.49,-381.31 776.83,-215.06 794.5,-164.81"/>
<polygon fill="midnightblue" stroke="midnightblue" points="642.9,-428.86 634.64,-435.48 645.23,-435.46 642.9,-428.86"/>
</g>
<!-- Node19&#45;&gt;Node11 -->
<g id="edge27" class="edge">
<title>Node19&#45;&gt;Node11</title>
<path fill="none" stroke="midnightblue" d="M764.55,-425.49C772.13,-365.87 791.62,-212.48 797.68,-164.84"/>
<polygon fill="midnightblue" stroke="midnightblue" points="761.07,-425.12 763.28,-435.48 768.01,-426 761.07,-425.12"/>
</g>
<!-- Node20&#45;&gt;Node4 -->
<g id="edge29" class="edge">
<title>Node20&#45;&gt;Node4</title>
<path fill="none" stroke="midnightblue" d="M386.4,-426.41C381.3,-417.42 375.51,-407.22 370.61,-398.59"/>
<polygon fill="midnightblue" stroke="midnightblue" points="383.43,-428.26 391.41,-435.23 389.51,-424.81 383.43,-428.26"/>
</g>
<!-- Node20&#45;&gt;Node11 -->
<g id="edge30" class="edge">
<title>Node20&#45;&gt;Node11</title>
<path fill="none" stroke="midnightblue" d="M453.2,-431.98C510.22,-411.58 601,-373.8 666.5,-321 681.74,-308.72 760.38,-203.34 789.04,-164.66"/>
<polygon fill="midnightblue" stroke="midnightblue" points="451.92,-428.72 443.65,-435.35 454.24,-435.32 451.92,-428.72"/>
</g>
<!-- Node21&#45;&gt;Node10 -->
<g id="edge37" class="edge">
<title>Node21&#45;&gt;Node10</title>
<path fill="none" stroke="midnightblue" d="M1054.02,-431.19C1080.35,-419.29 1114.14,-404.02 1138.36,-393.07"/>
<polygon fill="midnightblue" stroke="midnightblue" points="1052.37,-428.1 1044.69,-435.4 1055.25,-434.47 1052.37,-428.1"/>
</g>
<!-- Node22 -->
<g id="node22" class="node">
<title>Node22</title>
<g id="a_node22"><a xlink:href="bem__general_8hcu_source.html" target="_top" xlink:title=" ">
<polygon fill="none" stroke="black" points="827.5,-368.5 827.5,-387.5 973.5,-387.5 973.5,-368.5 827.5,-368.5"/>
<text text-anchor="middle" x="900.5" y="-375.5" font-family="Helvetica,sans-Serif" font-size="10.00">include/bem/bem_general.hcu</text>
</a>
</g>
</g>
<!-- Node21&#45;&gt;Node22 -->
<g id="edge34" class="edge">
<title>Node21&#45;&gt;Node22</title>
<path fill="none" stroke="midnightblue" d="M982.4,-430.1C960.05,-416.15 930.99,-398.02 914.18,-387.53"/>
<polygon fill="midnightblue" stroke="midnightblue" points="980.57,-433.08 990.9,-435.4 984.27,-427.14 980.57,-433.08"/>
</g>
<!-- Node23 -->
<g id="node23" class="node">
<title>Node23</title>
<g id="a_node23"><a xlink:href="sauter__quadrature_8cu_source.html" target="_top" xlink:title=" ">
<polygon fill="none" stroke="black" points="992,-363 992,-393 1101,-393 1101,-363 992,-363"/>
<text text-anchor="start" x="1000" y="-381" font-family="Helvetica,sans-Serif" font-size="10.00">src/quadrature/sauter</text>
<text text-anchor="middle" x="1046.5" y="-370" font-family="Helvetica,sans-Serif" font-size="10.00">_quadrature.cu</text>
</a>
</g>
</g>
<!-- Node21&#45;&gt;Node23 -->
<g id="edge38" class="edge">
<title>Node21&#45;&gt;Node23</title>
<path fill="none" stroke="midnightblue" d="M1024.55,-425.9C1029.61,-415.08 1035.45,-402.61 1039.83,-393.25"/>
<polygon fill="midnightblue" stroke="midnightblue" points="1021.25,-424.69 1020.18,-435.23 1027.59,-427.66 1021.25,-424.69"/>
</g>
<!-- Node22&#45;&gt;Node11 -->
<g id="edge35" class="edge">
<title>Node22&#45;&gt;Node11</title>
<path fill="none" stroke="midnightblue" d="M873.67,-363.24C857.67,-353.61 838.41,-339.21 827.5,-321 796.98,-270.04 796.92,-195.92 798.46,-164.94"/>
<polygon fill="midnightblue" stroke="midnightblue" points="872.2,-366.44 882.62,-368.36 875.67,-360.36 872.2,-366.44"/>
</g>
<!-- Node22&#45;&gt;Node14 -->
<g id="edge36" class="edge">
<title>Node22&#45;&gt;Node14</title>
<path fill="none" stroke="midnightblue" d="M900.5,-358.28C900.5,-344.9 900.5,-327.19 900.5,-315.02"/>
<polygon fill="midnightblue" stroke="midnightblue" points="897,-358.28 900.5,-368.28 904,-358.28 897,-358.28"/>
</g>
<!-- Node24&#45;&gt;Node11 -->
<g id="edge41" class="edge">
<title>Node24&#45;&gt;Node11</title>
<path fill="none" stroke="midnightblue" d="M125.37,-213.87C162.85,-209.97 210.24,-205.12 252.5,-201 430.95,-183.61 642.3,-164.53 741.99,-155.62"/>
<polygon fill="midnightblue" stroke="midnightblue" points="124.66,-210.42 115.08,-214.94 125.39,-217.39 124.66,-210.42"/>
</g>
<!-- Node24&#45;&gt;Node12 -->
<g id="edge40" class="edge">
<title>Node24&#45;&gt;Node12</title>
<path fill="none" stroke="midnightblue" d="M80.99,-200.51C105.56,-180.25 146.12,-150.02 186.5,-134 269.87,-100.93 374.14,-89.51 437.73,-85.57"/>
<polygon fill="midnightblue" stroke="midnightblue" points="78.71,-197.85 73.29,-206.96 83.2,-203.22 78.71,-197.85"/>
</g>
</g>
</svg>
