<?xml version="1.0" encoding="UTF-8" standalone="no"?>
<!DOCTYPE svg PUBLIC "-//W3C//DTD SVG 1.1//EN"
 "http://www.w3.org/Graphics/SVG/1.1/DTD/svg11.dtd">
<!-- Generated by graphviz version 2.43.0 (0)
 -->
<!-- Title: include/hmatrix/hmatrix_support.h Pages: 1 -->
<svg width="319pt" height="95pt"
 viewBox="0.00 0.00 318.50 95.00" xmlns="http://www.w3.org/2000/svg" xmlns:xlink="http://www.w3.org/1999/xlink">
<g id="graph0" class="graph" transform="scale(1 1) rotate(0) translate(4 91)">
<title>include/hmatrix/hmatrix_support.h</title>
<!-- Node1 -->
<g id="node1" class="node">
<title>Node1</title>
<g id="a_node1"><a xlink:title="Adapted from deal.ii/lac/lapack_support.h and define some features for an &#45;matrix.">
<polygon fill="#bfbfbf" stroke="black" points="133,-56.5 133,-86.5 251,-86.5 251,-56.5 133,-56.5"/>
<text text-anchor="start" x="141" y="-74.5" font-family="Helvetica,sans-Serif" font-size="10.00">include/hmatrix/hmatrix</text>
<text text-anchor="middle" x="192" y="-63.5" font-family="Helvetica,sans-Serif" font-size="10.00">_support.h</text>
</a>
</g>
</g>
<!-- Node2 -->
<g id="node2" class="node">
<title>Node2</title>
<g id="a_node2"><a xlink:title=" ">
<polygon fill="none" stroke="#bfbfbf" points="0,-0.5 0,-19.5 126,-19.5 126,-0.5 0,-0.5"/>
<text text-anchor="middle" x="63" y="-7.5" font-family="Helvetica,sans-Serif" font-size="10.00">deal.II/base/exceptions.h</text>
</a>
</g>
</g>
<!-- Node1&#45;&gt;Node2 -->
<g id="edge1" class="edge">
<title>Node1&#45;&gt;Node2</title>
<path fill="none" stroke="midnightblue" d="M161.43,-56.4C140.07,-46.55 111.78,-33.5 91.02,-23.92"/>
<polygon fill="midnightblue" stroke="midnightblue" points="92.32,-20.67 81.77,-19.66 89.39,-27.02 92.32,-20.67"/>
</g>
<!-- Node3 -->
<g id="node3" class="node">
<title>Node3</title>
<g id="a_node3"><a xlink:title=" ">
<polygon fill="none" stroke="#bfbfbf" points="144,-0.5 144,-19.5 182,-19.5 182,-0.5 144,-0.5"/>
<text text-anchor="middle" x="163" y="-7.5" font-family="Helvetica,sans-Serif" font-size="10.00">array</text>
</a>
</g>
</g>
<!-- Node1&#45;&gt;Node3 -->
<g id="edge2" class="edge">
<title>Node1&#45;&gt;Node3</title>
<path fill="none" stroke="midnightblue" d="M185.13,-56.4C181.09,-48.11 175.94,-37.55 171.63,-28.71"/>
<polygon fill="midnightblue" stroke="midnightblue" points="174.75,-27.11 167.22,-19.66 168.45,-30.18 174.75,-27.11"/>
</g>
<!-- Node4 -->
<g id="node4" class="node">
<title>Node4</title>
<g id="a_node4"><a xlink:title=" ">
<polygon fill="none" stroke="#bfbfbf" points="200.5,-0.5 200.5,-19.5 241.5,-19.5 241.5,-0.5 200.5,-0.5"/>
<text text-anchor="middle" x="221" y="-7.5" font-family="Helvetica,sans-Serif" font-size="10.00">string</text>
</a>
</g>
</g>
<!-- Node1&#45;&gt;Node4 -->
<g id="edge3" class="edge">
<title>Node1&#45;&gt;Node4</title>
<path fill="none" stroke="midnightblue" d="M198.87,-56.4C202.91,-48.11 208.06,-37.55 212.37,-28.71"/>
<polygon fill="midnightblue" stroke="midnightblue" points="215.55,-30.18 216.78,-19.66 209.25,-27.11 215.55,-30.18"/>
</g>
<!-- Node5 -->
<g id="node5" class="node">
<title>Node5</title>
<g id="a_node5"><a xlink:href="config_8h.html" target="_top" xlink:title="Configurations for building the project.">
<polygon fill="none" stroke="black" points="259.5,-0.5 259.5,-19.5 310.5,-19.5 310.5,-0.5 259.5,-0.5"/>
<text text-anchor="middle" x="285" y="-7.5" font-family="Helvetica,sans-Serif" font-size="10.00">config.h</text>
</a>
</g>
</g>
<!-- Node1&#45;&gt;Node5 -->
<g id="edge4" class="edge">
<title>Node1&#45;&gt;Node5</title>
<path fill="none" stroke="midnightblue" d="M214.04,-56.4C228.81,-46.95 248.18,-34.56 262.95,-25.11"/>
<polygon fill="midnightblue" stroke="midnightblue" points="264.93,-28 271.47,-19.66 261.16,-22.1 264.93,-28"/>
</g>
</g>
</svg>
