<?xml version="1.0" encoding="UTF-8" standalone="no"?>
<!DOCTYPE svg PUBLIC "-//W3C//DTD SVG 1.1//EN"
 "http://www.w3.org/Graphics/SVG/1.1/DTD/svg11.dtd">
<!-- Generated by graphviz version 2.43.0 (0)
 -->
<!-- Title: include/hmatrix/hmatrix_vmult_strategy.h Pages: 1 -->
<svg width="688pt" height="151pt"
 viewBox="0.00 0.00 688.00 151.00" xmlns="http://www.w3.org/2000/svg" xmlns:xlink="http://www.w3.org/1999/xlink">
<g id="graph0" class="graph" transform="scale(1 1) rotate(0) translate(4 147)">
<title>include/hmatrix/hmatrix_vmult_strategy.h</title>
<!-- Node1 -->
<g id="node1" class="node">
<title>Node1</title>
<g id="a_node1"><a xlink:title="Strategies for top level H&#45;matrix/vector multiplications, namely, vmult , Tvmult ,...">
<polygon fill="#bfbfbf" stroke="black" points="305,-112.5 305,-142.5 423,-142.5 423,-112.5 305,-112.5"/>
<text text-anchor="start" x="313" y="-130.5" font-family="Helvetica,sans-Serif" font-size="10.00">include/hmatrix/hmatrix</text>
<text text-anchor="middle" x="364" y="-119.5" font-family="Helvetica,sans-Serif" font-size="10.00">_vmult_strategy.h</text>
</a>
</g>
</g>
<!-- Node2 -->
<g id="node2" class="node">
<title>Node2</title>
<g id="a_node2"><a xlink:title=" ">
<polygon fill="none" stroke="#bfbfbf" points="0,-0.5 0,-19.5 126,-19.5 126,-0.5 0,-0.5"/>
<text text-anchor="middle" x="63" y="-7.5" font-family="Helvetica,sans-Serif" font-size="10.00">deal.II/base/exceptions.h</text>
</a>
</g>
</g>
<!-- Node1&#45;&gt;Node2 -->
<g id="edge1" class="edge">
<title>Node1&#45;&gt;Node2</title>
<path fill="none" stroke="midnightblue" d="M304.82,-120.96C258.09,-114.78 192.29,-102 140,-76 115.42,-63.78 92.04,-42.11 77.62,-27.18"/>
<polygon fill="midnightblue" stroke="midnightblue" points="79.98,-24.57 70.59,-19.67 74.87,-29.36 79.98,-24.57"/>
</g>
<!-- Node3 -->
<g id="node3" class="node">
<title>Node3</title>
<g id="a_node3"><a xlink:title=" ">
<polygon fill="none" stroke="#bfbfbf" points="306,-56.5 306,-75.5 422,-75.5 422,-56.5 306,-56.5"/>
<text text-anchor="middle" x="364" y="-63.5" font-family="Helvetica,sans-Serif" font-size="10.00">deal.II/base/numbers.h</text>
</a>
</g>
</g>
<!-- Node1&#45;&gt;Node3 -->
<g id="edge2" class="edge">
<title>Node1&#45;&gt;Node3</title>
<path fill="none" stroke="midnightblue" d="M364,-112.4C364,-104.47 364,-94.46 364,-85.86"/>
<polygon fill="midnightblue" stroke="midnightblue" points="367.5,-85.66 364,-75.66 360.5,-85.66 367.5,-85.66"/>
</g>
<!-- Node4 -->
<g id="node4" class="node">
<title>Node4</title>
<g id="a_node4"><a xlink:title=" ">
<polygon fill="none" stroke="#bfbfbf" points="440,-56.5 440,-75.5 538,-75.5 538,-56.5 440,-56.5"/>
<text text-anchor="middle" x="489" y="-63.5" font-family="Helvetica,sans-Serif" font-size="10.00">deal.II/lac/vector.h</text>
</a>
</g>
</g>
<!-- Node1&#45;&gt;Node4 -->
<g id="edge3" class="edge">
<title>Node1&#45;&gt;Node4</title>
<path fill="none" stroke="midnightblue" d="M393.62,-112.4C414.22,-102.59 441.48,-89.62 461.58,-80.05"/>
<polygon fill="midnightblue" stroke="midnightblue" points="463.29,-83.12 470.81,-75.66 460.28,-76.8 463.29,-83.12"/>
</g>
<!-- Node5 -->
<g id="node5" class="node">
<title>Node5</title>
<g id="a_node5"><a xlink:title=" ">
<polygon fill="none" stroke="#bfbfbf" points="556.5,-56.5 556.5,-75.5 609.5,-75.5 609.5,-56.5 556.5,-56.5"/>
<text text-anchor="middle" x="583" y="-63.5" font-family="Helvetica,sans-Serif" font-size="10.00">complex</text>
</a>
</g>
</g>
<!-- Node1&#45;&gt;Node5 -->
<g id="edge4" class="edge">
<title>Node1&#45;&gt;Node5</title>
<path fill="none" stroke="midnightblue" d="M415.62,-112.47C455.79,-101.56 510.54,-86.69 546.32,-76.97"/>
<polygon fill="midnightblue" stroke="midnightblue" points="547.6,-80.25 556.33,-74.25 545.76,-73.49 547.6,-80.25"/>
</g>
<!-- Node6 -->
<g id="node6" class="node">
<title>Node6</title>
<g id="a_node6"><a xlink:title=" ">
<polygon fill="none" stroke="#bfbfbf" points="628,-56.5 628,-75.5 680,-75.5 680,-56.5 628,-56.5"/>
<text text-anchor="middle" x="654" y="-63.5" font-family="Helvetica,sans-Serif" font-size="10.00">memory</text>
</a>
</g>
</g>
<!-- Node1&#45;&gt;Node6 -->
<g id="edge5" class="edge">
<title>Node1&#45;&gt;Node6</title>
<path fill="none" stroke="midnightblue" d="M423.2,-115.75C472.68,-106.55 545.33,-92.52 617.49,-76.25"/>
<polygon fill="midnightblue" stroke="midnightblue" points="618.69,-79.57 627.67,-73.94 617.14,-72.74 618.69,-79.57"/>
</g>
<!-- Node7 -->
<g id="node7" class="node">
<title>Node7</title>
<g id="a_node7"><a xlink:href="config_8h.html" target="_top" xlink:title="Configurations for building the project.">
<polygon fill="none" stroke="black" points="144.5,-0.5 144.5,-19.5 195.5,-19.5 195.5,-0.5 144.5,-0.5"/>
<text text-anchor="middle" x="170" y="-7.5" font-family="Helvetica,sans-Serif" font-size="10.00">config.h</text>
</a>
</g>
</g>
<!-- Node1&#45;&gt;Node7 -->
<g id="edge6" class="edge">
<title>Node1&#45;&gt;Node7</title>
<path fill="none" stroke="midnightblue" d="M304.81,-120.76C248.02,-113.89 168.14,-100.15 149,-76 138,-62.12 146.98,-42.32 156.37,-28.23"/>
<polygon fill="midnightblue" stroke="midnightblue" points="159.36,-30.07 162.39,-19.91 153.69,-25.96 159.36,-30.07"/>
</g>
<!-- Node8 -->
<g id="node8" class="node">
<title>Node8</title>
<g id="a_node8"><a xlink:href="hmatrix__support_8h.html" target="_top" xlink:title="Adapted from deal.ii/lac/lapack_support.h and define some features for an &#45;matrix.">
<polygon fill="none" stroke="black" points="158,-56.5 158,-75.5 288,-75.5 288,-56.5 158,-56.5"/>
<text text-anchor="middle" x="223" y="-63.5" font-family="Helvetica,sans-Serif" font-size="10.00">hmatrix/hmatrix_support.h</text>
</a>
</g>
</g>
<!-- Node1&#45;&gt;Node8 -->
<g id="edge7" class="edge">
<title>Node1&#45;&gt;Node8</title>
<path fill="none" stroke="midnightblue" d="M330.58,-112.4C307.03,-102.46 275.76,-89.26 253.01,-79.66"/>
<polygon fill="midnightblue" stroke="midnightblue" points="254.09,-76.32 243.52,-75.66 251.37,-82.77 254.09,-76.32"/>
</g>
<!-- Node8&#45;&gt;Node2 -->
<g id="edge8" class="edge">
<title>Node8&#45;&gt;Node2</title>
<path fill="none" stroke="midnightblue" d="M197.65,-56.44C170.73,-47.36 128,-32.94 97.91,-22.78"/>
<polygon fill="midnightblue" stroke="midnightblue" points="98.83,-19.4 88.23,-19.52 96.59,-26.03 98.83,-19.4"/>
</g>
<!-- Node8&#45;&gt;Node7 -->
<g id="edge11" class="edge">
<title>Node8&#45;&gt;Node7</title>
<path fill="none" stroke="midnightblue" d="M214.25,-56.08C206.53,-48.22 195.1,-36.57 185.78,-27.08"/>
<polygon fill="midnightblue" stroke="midnightblue" points="188.09,-24.44 178.59,-19.75 183.1,-29.34 188.09,-24.44"/>
</g>
<!-- Node9 -->
<g id="node9" class="node">
<title>Node9</title>
<g id="a_node9"><a xlink:title=" ">
<polygon fill="none" stroke="#bfbfbf" points="214,-0.5 214,-19.5 252,-19.5 252,-0.5 214,-0.5"/>
<text text-anchor="middle" x="233" y="-7.5" font-family="Helvetica,sans-Serif" font-size="10.00">array</text>
</a>
</g>
</g>
<!-- Node8&#45;&gt;Node9 -->
<g id="edge9" class="edge">
<title>Node8&#45;&gt;Node9</title>
<path fill="none" stroke="midnightblue" d="M224.65,-56.08C225.98,-48.93 227.88,-38.64 229.54,-29.69"/>
<polygon fill="midnightblue" stroke="midnightblue" points="233,-30.22 231.38,-19.75 226.12,-28.95 233,-30.22"/>
</g>
<!-- Node10 -->
<g id="node10" class="node">
<title>Node10</title>
<g id="a_node10"><a xlink:title=" ">
<polygon fill="none" stroke="#bfbfbf" points="270.5,-0.5 270.5,-19.5 311.5,-19.5 311.5,-0.5 270.5,-0.5"/>
<text text-anchor="middle" x="291" y="-7.5" font-family="Helvetica,sans-Serif" font-size="10.00">string</text>
</a>
</g>
</g>
<!-- Node8&#45;&gt;Node10 -->
<g id="edge10" class="edge">
<title>Node8&#45;&gt;Node10</title>
<path fill="none" stroke="midnightblue" d="M233.93,-56.32C244.17,-48.18 259.72,-35.84 272,-26.09"/>
<polygon fill="midnightblue" stroke="midnightblue" points="274.22,-28.79 279.88,-19.83 269.87,-23.31 274.22,-28.79"/>
</g>
</g>
</svg>
