<?xml version="1.0" encoding="UTF-8" standalone="no"?>
<!DOCTYPE svg PUBLIC "-//W3C//DTD SVG 1.1//EN"
 "http://www.w3.org/Graphics/SVG/1.1/DTD/svg11.dtd">
<!-- Generated by graphviz version 2.43.0 (0)
 -->
<!-- Title: Graphical Class Hierarchy Pages: 1 -->
<svg width="275pt" height="104pt"
 viewBox="0.00 0.00 275.00 104.00" xmlns="http://www.w3.org/2000/svg" xmlns:xlink="http://www.w3.org/1999/xlink">
<g id="graph0" class="graph" transform="scale(1 1) rotate(0) translate(4 100)">
<title>Graphical Class Hierarchy</title>
<!-- Node0 -->
<g id="node1" class="node">
<title>Node0</title>
<g id="a_node1"><a xlink:href="classdetail_1_1file__base.html" target="_top" xlink:title=" ">
<polygon fill="none" stroke="black" points="0,-38.5 0,-57.5 109,-57.5 109,-38.5 0,-38.5"/>
<text text-anchor="middle" x="54.5" y="-45.5" font-family="Helvetica,sans-Serif" font-size="10.00">detail::file_base&lt; F &gt;</text>
</a>
</g>
</g>
<!-- Node1 -->
<g id="node2" class="node">
<title>Node1</title>
<g id="a_node2"><a xlink:href="classdetail_1_1apple__file.html" target="_top" xlink:title=" ">
<polygon fill="none" stroke="black" points="150.5,-76.5 150.5,-95.5 261.5,-95.5 261.5,-76.5 150.5,-76.5"/>
<text text-anchor="middle" x="206" y="-83.5" font-family="Helvetica,sans-Serif" font-size="10.00">detail::apple_file&lt; F &gt;</text>
</a>
</g>
</g>
<!-- Node0&#45;&gt;Node1 -->
<g id="edge1" class="edge">
<title>Node0&#45;&gt;Node1</title>
<path fill="none" stroke="midnightblue" d="M103.15,-60.11C123.97,-65.4 148.04,-71.52 167.55,-76.48"/>
<polygon fill="midnightblue" stroke="midnightblue" points="103.78,-56.66 93.23,-57.59 102.05,-63.44 103.78,-56.66"/>
</g>
<!-- Node2 -->
<g id="node3" class="node">
<title>Node2</title>
<g id="a_node3"><a xlink:href="classdetail_1_1fallback__file.html" target="_top" xlink:title=" ">
<polygon fill="none" stroke="black" points="145,-38.5 145,-57.5 267,-57.5 267,-38.5 145,-38.5"/>
<text text-anchor="middle" x="206" y="-45.5" font-family="Helvetica,sans-Serif" font-size="10.00">detail::fallback_file&lt; F &gt;</text>
</a>
</g>
</g>
<!-- Node0&#45;&gt;Node2 -->
<g id="edge2" class="edge">
<title>Node0&#45;&gt;Node2</title>
<path fill="none" stroke="midnightblue" d="M119.31,-48C127.82,-48 136.52,-48 144.97,-48"/>
<polygon fill="midnightblue" stroke="midnightblue" points="119.05,-44.5 109.05,-48 119.05,-51.5 119.05,-44.5"/>
</g>
<!-- Node3 -->
<g id="node4" class="node">
<title>Node3</title>
<g id="a_node4"><a xlink:href="classdetail_1_1glibc__file.html" target="_top" xlink:title=" ">
<polygon fill="none" stroke="black" points="152,-0.5 152,-19.5 260,-19.5 260,-0.5 152,-0.5"/>
<text text-anchor="middle" x="206" y="-7.5" font-family="Helvetica,sans-Serif" font-size="10.00">detail::glibc_file&lt; F &gt;</text>
</a>
</g>
</g>
<!-- Node0&#45;&gt;Node3 -->
<g id="edge3" class="edge">
<title>Node0&#45;&gt;Node3</title>
<path fill="none" stroke="midnightblue" d="M103.15,-35.89C123.97,-30.6 148.04,-24.48 167.55,-19.52"/>
<polygon fill="midnightblue" stroke="midnightblue" points="102.05,-32.56 93.23,-38.41 103.78,-39.34 102.05,-32.56"/>
</g>
</g>
</svg>
