<?xml version="1.0" encoding="UTF-8" standalone="no"?>
<!DOCTYPE svg PUBLIC "-//W3C//DTD SVG 1.1//EN"
 "http://www.w3.org/Graphics/SVG/1.1/DTD/svg11.dtd">
<!-- Generated by graphviz version 2.43.0 (0)
 -->
<!-- Title: Graphical Class Hierarchy Pages: 1 -->
<svg width="279pt" height="263pt"
 viewBox="0.00 0.00 279.00 263.00" xmlns="http://www.w3.org/2000/svg" xmlns:xlink="http://www.w3.org/1999/xlink">
<g id="graph0" class="graph" transform="scale(1 1) rotate(0) translate(4 259)">
<title>Graphical Class Hierarchy</title>
<!-- Node0 -->
<g id="node1" class="node">
<title>Node0</title>
<g id="a_node1"><a xlink:title=" ">
<polygon fill="none" stroke="#bfbfbf" points="0,-118 0,-137 110,-137 110,-118 0,-118"/>
<text text-anchor="middle" x="55" y="-125" font-family="Helvetica,sans-Serif" font-size="10.00">std::integral_constant</text>
</a>
</g>
</g>
<!-- Node1 -->
<g id="node2" class="node">
<title>Node1</title>
<g id="a_node2"><a xlink:href="structtype__rank_3_01complex_3_01double_01_4_01_4.html" target="_top" xlink:title=" ">
<polygon fill="none" stroke="black" points="156,-224.5 156,-254.5 261,-254.5 261,-224.5 156,-224.5"/>
<text text-anchor="start" x="164" y="-242.5" font-family="Helvetica,sans-Serif" font-size="10.00">type_rank&lt; complex</text>
<text text-anchor="middle" x="208.5" y="-231.5" font-family="Helvetica,sans-Serif" font-size="10.00">&lt; double &gt; &gt;</text>
</a>
</g>
</g>
<!-- Node0&#45;&gt;Node1 -->
<g id="edge1" class="edge">
<title>Node0&#45;&gt;Node1</title>
<path fill="none" stroke="midnightblue" d="M70.14,-145.06C86.6,-164.53 115.45,-195.78 146,-215.5 151.1,-218.79 156.73,-221.75 162.44,-224.37"/>
<polygon fill="midnightblue" stroke="midnightblue" points="72.75,-142.73 63.68,-137.26 67.36,-147.19 72.75,-142.73"/>
</g>
<!-- Node2 -->
<g id="node3" class="node">
<title>Node2</title>
<g id="a_node3"><a xlink:href="structtype__rank_3_01complex_3_01float_01_4_01_4.html" target="_top" xlink:title=" ">
<polygon fill="none" stroke="black" points="156,-175.5 156,-205.5 261,-205.5 261,-175.5 156,-175.5"/>
<text text-anchor="start" x="164" y="-193.5" font-family="Helvetica,sans-Serif" font-size="10.00">type_rank&lt; complex</text>
<text text-anchor="middle" x="208.5" y="-182.5" font-family="Helvetica,sans-Serif" font-size="10.00">&lt; float &gt; &gt;</text>
</a>
</g>
</g>
<!-- Node0&#45;&gt;Node2 -->
<g id="edge2" class="edge">
<title>Node0&#45;&gt;Node2</title>
<path fill="none" stroke="midnightblue" d="M88.08,-141.17C105.24,-148.45 126.75,-157.52 146,-165.5 153.77,-168.72 162.11,-172.14 170.07,-175.38"/>
<polygon fill="midnightblue" stroke="midnightblue" points="89.1,-137.8 78.53,-137.11 86.36,-144.24 89.1,-137.8"/>
</g>
<!-- Node3 -->
<g id="node4" class="node">
<title>Node3</title>
<g id="a_node4"><a xlink:href="structtype__rank_3_01double_01_4.html" target="_top" xlink:title=" ">
<polygon fill="none" stroke="black" points="155.5,-137 155.5,-156 261.5,-156 261.5,-137 155.5,-137"/>
<text text-anchor="middle" x="208.5" y="-144" font-family="Helvetica,sans-Serif" font-size="10.00">type_rank&lt; double &gt;</text>
</a>
</g>
</g>
<!-- Node0&#45;&gt;Node3 -->
<g id="edge3" class="edge">
<title>Node0&#45;&gt;Node3</title>
<path fill="none" stroke="midnightblue" d="M120.4,-135.58C132.08,-137.04 144.12,-138.55 155.39,-139.96"/>
<polygon fill="midnightblue" stroke="midnightblue" points="120.62,-132.08 110.27,-134.31 119.75,-139.02 120.62,-132.08"/>
</g>
<!-- Node4 -->
<g id="node5" class="node">
<title>Node4</title>
<g id="a_node5"><a xlink:href="structtype__rank_3_01float_01_4.html" target="_top" xlink:title=" ">
<polygon fill="none" stroke="black" points="160.5,-99 160.5,-118 256.5,-118 256.5,-99 160.5,-99"/>
<text text-anchor="middle" x="208.5" y="-106" font-family="Helvetica,sans-Serif" font-size="10.00">type_rank&lt; float &gt;</text>
</a>
</g>
</g>
<!-- Node0&#45;&gt;Node4 -->
<g id="edge4" class="edge">
<title>Node0&#45;&gt;Node4</title>
<path fill="none" stroke="midnightblue" d="M120.35,-119.43C133.7,-117.76 147.53,-116.02 160.14,-114.44"/>
<polygon fill="midnightblue" stroke="midnightblue" points="119.75,-115.98 110.27,-120.69 120.62,-122.92 119.75,-115.98"/>
</g>
<!-- Node5 -->
<g id="node6" class="node">
<title>Node5</title>
<g id="a_node6"><a xlink:href="structtype__rank_3_01std_1_1complex_3_01double_01_4_01_4.html" target="_top" xlink:title=" ">
<polygon fill="none" stroke="black" points="146,-49.5 146,-79.5 271,-79.5 271,-49.5 146,-49.5"/>
<text text-anchor="start" x="154" y="-67.5" font-family="Helvetica,sans-Serif" font-size="10.00">type_rank&lt; std::complex</text>
<text text-anchor="middle" x="208.5" y="-56.5" font-family="Helvetica,sans-Serif" font-size="10.00">&lt; double &gt; &gt;</text>
</a>
</g>
</g>
<!-- Node0&#45;&gt;Node5 -->
<g id="edge5" class="edge">
<title>Node0&#45;&gt;Node5</title>
<path fill="none" stroke="midnightblue" d="M88.08,-113.83C105.24,-106.55 126.75,-97.48 146,-89.5 153.77,-86.28 162.11,-82.86 170.07,-79.62"/>
<polygon fill="midnightblue" stroke="midnightblue" points="86.36,-110.76 78.53,-117.89 89.1,-117.2 86.36,-110.76"/>
</g>
<!-- Node6 -->
<g id="node7" class="node">
<title>Node6</title>
<g id="a_node7"><a xlink:href="structtype__rank_3_01std_1_1complex_3_01float_01_4_01_4.html" target="_top" xlink:title=" ">
<polygon fill="none" stroke="black" points="146,-0.5 146,-30.5 271,-30.5 271,-0.5 146,-0.5"/>
<text text-anchor="start" x="154" y="-18.5" font-family="Helvetica,sans-Serif" font-size="10.00">type_rank&lt; std::complex</text>
<text text-anchor="middle" x="208.5" y="-7.5" font-family="Helvetica,sans-Serif" font-size="10.00">&lt; float &gt; &gt;</text>
</a>
</g>
</g>
<!-- Node0&#45;&gt;Node6 -->
<g id="edge6" class="edge">
<title>Node0&#45;&gt;Node6</title>
<path fill="none" stroke="midnightblue" d="M70.23,-110.23C86.77,-91.06 115.7,-60.23 146,-40.5 151.7,-36.79 158.04,-33.46 164.42,-30.54"/>
<polygon fill="midnightblue" stroke="midnightblue" points="67.52,-108.01 63.73,-117.9 72.87,-112.53 67.52,-108.01"/>
</g>
</g>
</svg>
