<?xml version="1.0" encoding="UTF-8" standalone="no"?>
<!DOCTYPE svg PUBLIC "-//W3C//DTD SVG 1.1//EN"
 "http://www.w3.org/Graphics/SVG/1.1/DTD/svg11.dtd">
<!-- Generated by graphviz version 2.43.0 (0)
 -->
<!-- Title: Graphical Class Hierarchy Pages: 1 -->
<svg width="270pt" height="110pt"
 viewBox="0.00 0.00 270.00 110.00" xmlns="http://www.w3.org/2000/svg" xmlns:xlink="http://www.w3.org/1999/xlink">
<g id="graph0" class="graph" transform="scale(1 1) rotate(0) translate(4 106)">
<title>Graphical Class Hierarchy</title>
<!-- Node0 -->
<g id="node1" class="node">
<title>Node0</title>
<g id="a_node1"><a xlink:href="structformatter.html" target="_top" xlink:title=" ">
<polygon fill="none" stroke="black" points="0,-47 0,-66 105,-66 105,-47 0,-47"/>
<text text-anchor="middle" x="52.5" y="-54" font-family="Helvetica,sans-Serif" font-size="10.00">formatter&lt; T, Char &gt;</text>
</a>
</g>
</g>
<!-- Node1 -->
<g id="node2" class="node">
<title>Node1</title>
<g id="a_node2"><a xlink:href="structformatter_3_01detail_1_1styled__arg_3_01T_01_4_00_01Char_01_4.html" target="_top" xlink:title=" ">
<polygon fill="none" stroke="black" points="141,-71.5 141,-101.5 262,-101.5 262,-71.5 141,-71.5"/>
<text text-anchor="start" x="149" y="-89.5" font-family="Helvetica,sans-Serif" font-size="10.00">formatter&lt; detail::</text>
<text text-anchor="middle" x="201.5" y="-78.5" font-family="Helvetica,sans-Serif" font-size="10.00">styled_arg&lt; T &gt;, Char &gt;</text>
</a>
</g>
</g>
<!-- Node0&#45;&gt;Node1 -->
<g id="edge1" class="edge">
<title>Node0&#45;&gt;Node1</title>
<path fill="none" stroke="midnightblue" d="M110.26,-68.08C120.29,-70.13 130.75,-72.26 140.85,-74.33"/>
<polygon fill="midnightblue" stroke="midnightblue" points="110.91,-64.65 100.42,-66.07 109.51,-71.5 110.91,-64.65"/>
</g>
<!-- Node2 -->
<g id="node3" class="node">
<title>Node2</title>
<g id="a_node3"><a xlink:href="structformatter_3_01std_1_1atomic_3_01T_01_4_00_01Char_00_01enable__if__t_3_01is__formattable_3_257bcb557ea9fb22d1a05bf1854906f1.html" target="_top" xlink:title=" ">
<polygon fill="none" stroke="black" points="145,-0.5 145,-52.5 258,-52.5 258,-0.5 145,-0.5"/>
<text text-anchor="start" x="153" y="-40.5" font-family="Helvetica,sans-Serif" font-size="10.00">formatter&lt; std::atomic</text>
<text text-anchor="start" x="153" y="-29.5" font-family="Helvetica,sans-Serif" font-size="10.00">&lt; T &gt;, Char, enable_if</text>
<text text-anchor="start" x="153" y="-18.5" font-family="Helvetica,sans-Serif" font-size="10.00">_t&lt; is_formattable&lt; T,</text>
<text text-anchor="middle" x="201.5" y="-7.5" font-family="Helvetica,sans-Serif" font-size="10.00"> Char &gt;::value &gt; &gt;</text>
</a>
</g>
</g>
<!-- Node0&#45;&gt;Node2 -->
<g id="edge2" class="edge">
<title>Node0&#45;&gt;Node2</title>
<path fill="none" stroke="midnightblue" d="M110.21,-44.93C121.56,-42.61 133.47,-40.18 144.79,-37.87"/>
<polygon fill="midnightblue" stroke="midnightblue" points="109.51,-41.5 100.42,-46.93 110.91,-48.35 109.51,-41.5"/>
</g>
</g>
</svg>
