<?xml version="1.0" encoding="UTF-8" standalone="no"?>
<!DOCTYPE svg PUBLIC "-//W3C//DTD SVG 1.1//EN"
 "http://www.w3.org/Graphics/SVG/1.1/DTD/svg11.dtd">
<!-- Generated by graphviz version 2.43.0 (0)
 -->
<!-- Title: Graphical Class Hierarchy Pages: 1 -->
<svg width="433pt" height="181pt"
 viewBox="0.00 0.00 433.00 181.00" xmlns="http://www.w3.org/2000/svg" xmlns:xlink="http://www.w3.org/1999/xlink">
<g id="graph0" class="graph" transform="scale(1 1) rotate(0) translate(4 177)">
<title>Graphical Class Hierarchy</title>
<!-- Node0 -->
<g id="node1" class="node">
<title>Node0</title>
<g id="a_node1"><a xlink:href="structformatter.html" target="_top" xlink:title=" ">
<polygon fill="none" stroke="black" points="0,-61 0,-91 117,-91 117,-61 0,-61"/>
<text text-anchor="start" x="8" y="-79" font-family="Helvetica,sans-Serif" font-size="10.00">formatter&lt; basic_string</text>
<text text-anchor="middle" x="58.5" y="-68" font-family="Helvetica,sans-Serif" font-size="10.00">_view&lt; Char &gt;, Char &gt;</text>
</a>
</g>
</g>
<!-- Node1 -->
<g id="node2" class="node">
<title>Node1</title>
<g id="a_node2"><a xlink:href="structbasic__ostream__formatter.html" target="_top" xlink:title=" ">
<polygon fill="none" stroke="black" points="153,-110 153,-140 278,-140 278,-110 153,-110"/>
<text text-anchor="start" x="161" y="-128" font-family="Helvetica,sans-Serif" font-size="10.00">basic_ostream_formatter</text>
<text text-anchor="middle" x="215.5" y="-117" font-family="Helvetica,sans-Serif" font-size="10.00">&lt; Char &gt;</text>
</a>
</g>
</g>
<!-- Node0&#45;&gt;Node1 -->
<g id="edge1" class="edge">
<title>Node0&#45;&gt;Node1</title>
<path fill="none" stroke="midnightblue" d="M117.26,-94.26C133.61,-99.43 151.21,-104.99 166.89,-109.95"/>
<polygon fill="midnightblue" stroke="midnightblue" points="117.86,-90.78 107.27,-91.1 115.75,-97.45 117.86,-90.78"/>
</g>
<!-- Node4 -->
<g id="node5" class="node">
<title>Node4</title>
<g id="a_node5"><a xlink:href="structformatter_3_01Char_0fN_0e_00_01Char_01_4.html" target="_top" xlink:title=" ">
<polygon fill="none" stroke="black" points="164.5,-61 164.5,-91 266.5,-91 266.5,-61 164.5,-61"/>
<text text-anchor="start" x="172.5" y="-79" font-family="Helvetica,sans-Serif" font-size="10.00">formatter&lt; Char[N],</text>
<text text-anchor="middle" x="215.5" y="-68" font-family="Helvetica,sans-Serif" font-size="10.00"> Char &gt;</text>
</a>
</g>
</g>
<!-- Node0&#45;&gt;Node4 -->
<g id="edge4" class="edge">
<title>Node0&#45;&gt;Node4</title>
<path fill="none" stroke="midnightblue" d="M127.52,-76C139.91,-76 152.62,-76 164.38,-76"/>
<polygon fill="midnightblue" stroke="midnightblue" points="127.22,-72.5 117.22,-76 127.22,-79.5 127.22,-72.5"/>
</g>
<!-- Node5 -->
<g id="node6" class="node">
<title>Node5</title>
<g id="a_node6"><a xlink:href="classformatter_3_01std_1_1basic__string_3_01Char_00_01Traits_00_01Allocator_01_4_00_01Char_01_4.html" target="_top" xlink:title=" ">
<polygon fill="none" stroke="black" points="161,-0.5 161,-41.5 270,-41.5 270,-0.5 161,-0.5"/>
<text text-anchor="start" x="169" y="-29.5" font-family="Helvetica,sans-Serif" font-size="10.00">formatter&lt; std::basic</text>
<text text-anchor="start" x="169" y="-18.5" font-family="Helvetica,sans-Serif" font-size="10.00">_string&lt; Char, Traits,</text>
<text text-anchor="middle" x="215.5" y="-7.5" font-family="Helvetica,sans-Serif" font-size="10.00"> Allocator &gt;, Char &gt;</text>
</a>
</g>
</g>
<!-- Node0&#45;&gt;Node5 -->
<g id="edge5" class="edge">
<title>Node0&#45;&gt;Node5</title>
<path fill="none" stroke="midnightblue" d="M111.5,-57.55C127.37,-51.92 144.84,-45.72 160.82,-40.05"/>
<polygon fill="midnightblue" stroke="midnightblue" points="110.11,-54.33 101.85,-60.97 112.45,-60.93 110.11,-54.33"/>
</g>
<!-- Node2 -->
<g id="node3" class="node">
<title>Node2</title>
<g id="a_node3"><a xlink:href="structformatter_3_01detail_1_1streamed__view_3_01T_01_4_00_01Char_01_4.html" target="_top" xlink:title=" ">
<polygon fill="none" stroke="black" points="315,-131.5 315,-172.5 424,-172.5 424,-131.5 315,-131.5"/>
<text text-anchor="start" x="323" y="-160.5" font-family="Helvetica,sans-Serif" font-size="10.00">formatter&lt; detail::</text>
<text text-anchor="start" x="323" y="-149.5" font-family="Helvetica,sans-Serif" font-size="10.00">streamed_view&lt; T &gt;,</text>
<text text-anchor="middle" x="369.5" y="-138.5" font-family="Helvetica,sans-Serif" font-size="10.00"> Char &gt;</text>
</a>
</g>
</g>
<!-- Node1&#45;&gt;Node2 -->
<g id="edge2" class="edge">
<title>Node1&#45;&gt;Node2</title>
<path fill="none" stroke="midnightblue" d="M288.25,-137.75C297.1,-139.32 306.02,-140.9 314.54,-142.41"/>
<polygon fill="midnightblue" stroke="midnightblue" points="288.78,-134.28 278.32,-135.98 287.56,-141.18 288.78,-134.28"/>
</g>
<!-- Node3 -->
<g id="node4" class="node">
<title>Node3</title>
<g id="a_node4"><a xlink:href="structformatter_3_01std_1_1thread_1_1id_00_01Char_01_4.html" target="_top" xlink:title=" ">
<polygon fill="none" stroke="black" points="314,-82 314,-112 425,-112 425,-82 314,-82"/>
<text text-anchor="start" x="322" y="-100" font-family="Helvetica,sans-Serif" font-size="10.00">formatter&lt; std::thread</text>
<text text-anchor="middle" x="369.5" y="-89" font-family="Helvetica,sans-Serif" font-size="10.00">::id, Char &gt;</text>
</a>
</g>
</g>
<!-- Node1&#45;&gt;Node3 -->
<g id="edge3" class="edge">
<title>Node1&#45;&gt;Node3</title>
<path fill="none" stroke="midnightblue" d="M288.26,-111.78C296.77,-110.21 305.35,-108.63 313.57,-107.12"/>
<polygon fill="midnightblue" stroke="midnightblue" points="287.52,-108.36 278.32,-113.61 288.79,-115.24 287.52,-108.36"/>
</g>
</g>
</svg>
