<?xml version="1.0" encoding="UTF-8" standalone="no"?>
<!DOCTYPE svg PUBLIC "-//W3C//DTD SVG 1.1//EN"
 "http://www.w3.org/Graphics/SVG/1.1/DTD/svg11.dtd">
<!-- Generated by graphviz version 2.43.0 (0)
 -->
<!-- Title: Graphical Class Hierarchy Pages: 1 -->
<svg width="244pt" height="166pt"
 viewBox="0.00 0.00 244.00 165.50" xmlns="http://www.w3.org/2000/svg" xmlns:xlink="http://www.w3.org/1999/xlink">
<g id="graph0" class="graph" transform="scale(1 1) rotate(0) translate(4 161.5)">
<title>Graphical Class Hierarchy</title>
<!-- Node0 -->
<g id="node1" class="node">
<title>Node0</title>
<g id="a_node1"><a xlink:href="structdetail_1_1view.html" target="_top" xlink:title=" ">
<polygon fill="none" stroke="black" points="0,-66.5 0,-85.5 66,-85.5 66,-66.5 0,-66.5"/>
<text text-anchor="middle" x="33" y="-73.5" font-family="Helvetica,sans-Serif" font-size="10.00">detail::view</text>
</a>
</g>
</g>
<!-- Node1 -->
<g id="node2" class="node">
<title>Node1</title>
<g id="a_node2"><a xlink:href="structdetail_1_1named__arg.html" target="_top" xlink:title=" ">
<polygon fill="none" stroke="black" points="119,-127 119,-157 219,-157 219,-127 119,-127"/>
<text text-anchor="start" x="127" y="-145" font-family="Helvetica,sans-Serif" font-size="10.00">detail::named_arg&lt;</text>
<text text-anchor="middle" x="169" y="-134" font-family="Helvetica,sans-Serif" font-size="10.00"> Char, T &gt;</text>
</a>
</g>
</g>
<!-- Node0&#45;&gt;Node1 -->
<g id="edge1" class="edge">
<title>Node0&#45;&gt;Node1</title>
<path fill="none" stroke="midnightblue" d="M56.86,-91.2C69.78,-99.43 86.44,-109.44 102,-117 109.27,-120.53 117.18,-123.91 124.92,-126.97"/>
<polygon fill="midnightblue" stroke="midnightblue" points="58.46,-88.07 48.17,-85.58 54.66,-93.95 58.46,-88.07"/>
</g>
<!-- Node2 -->
<g id="node3" class="node">
<title>Node2</title>
<g id="a_node3"><a xlink:href="structdetail_1_1styled__arg.html" target="_top" xlink:title=" ">
<polygon fill="none" stroke="black" points="112,-88.5 112,-107.5 226,-107.5 226,-88.5 112,-88.5"/>
<text text-anchor="middle" x="169" y="-95.5" font-family="Helvetica,sans-Serif" font-size="10.00">detail::styled_arg&lt; T &gt;</text>
</a>
</g>
</g>
<!-- Node0&#45;&gt;Node2 -->
<g id="edge2" class="edge">
<title>Node0&#45;&gt;Node2</title>
<path fill="none" stroke="midnightblue" d="M76.13,-82.92C87.45,-84.78 99.87,-86.81 111.81,-88.78"/>
<polygon fill="midnightblue" stroke="midnightblue" points="76.53,-79.44 66.1,-81.27 75.4,-86.34 76.53,-79.44"/>
</g>
<!-- Node3 -->
<g id="node4" class="node">
<title>Node3</title>
<g id="a_node4"><a xlink:href="structjoin__view.html" target="_top" xlink:title=" ">
<polygon fill="none" stroke="black" points="111,-39 111,-69 227,-69 227,-39 111,-39"/>
<text text-anchor="start" x="119" y="-57" font-family="Helvetica,sans-Serif" font-size="10.00">join_view&lt; It, Sentinel,</text>
<text text-anchor="middle" x="169" y="-46" font-family="Helvetica,sans-Serif" font-size="10.00"> Char &gt;</text>
</a>
</g>
</g>
<!-- Node0&#45;&gt;Node3 -->
<g id="edge3" class="edge">
<title>Node0&#45;&gt;Node3</title>
<path fill="none" stroke="midnightblue" d="M76.24,-69.07C87.19,-67.27 99.17,-65.3 110.75,-63.4"/>
<polygon fill="midnightblue" stroke="midnightblue" points="75.4,-65.66 66.1,-70.73 76.53,-72.56 75.4,-65.66"/>
</g>
<!-- Node4 -->
<g id="node5" class="node">
<title>Node4</title>
<g id="a_node5"><a xlink:href="structtuple__join__view.html" target="_top" xlink:title=" ">
<polygon fill="none" stroke="black" points="102,-0.5 102,-19.5 236,-19.5 236,-0.5 102,-0.5"/>
<text text-anchor="middle" x="169" y="-7.5" font-family="Helvetica,sans-Serif" font-size="10.00">tuple_join_view&lt; Char, T &gt;</text>
</a>
</g>
</g>
<!-- Node0&#45;&gt;Node4 -->
<g id="edge4" class="edge">
<title>Node0&#45;&gt;Node4</title>
<path fill="none" stroke="midnightblue" d="M54.08,-60.05C67.13,-50.29 84.85,-38.17 102,-30 110.65,-25.88 120.34,-22.38 129.57,-19.52"/>
<polygon fill="midnightblue" stroke="midnightblue" points="51.67,-57.48 45.86,-66.34 55.93,-63.04 51.67,-57.48"/>
</g>
</g>
</svg>
