<?xml version="1.0" encoding="UTF-8" standalone="no"?>
<!DOCTYPE svg PUBLIC "-//W3C//DTD SVG 1.1//EN"
 "http://www.w3.org/Graphics/SVG/1.1/DTD/svg11.dtd">
<!-- Generated by graphviz version 2.43.0 (0)
 -->
<!-- Title: Graphical Class Hierarchy Pages: 1 -->
<svg width="881pt" height="356pt"
 viewBox="0.00 0.00 881.00 355.50" xmlns="http://www.w3.org/2000/svg" xmlns:xlink="http://www.w3.org/1999/xlink">
<g id="graph0" class="graph" transform="scale(1 1) rotate(0) translate(4 351.5)">
<title>Graphical Class Hierarchy</title>
<!-- Node0 -->
<g id="node1" class="node">
<title>Node0</title>
<g id="a_node1"><a xlink:title=" ">
<polygon fill="none" stroke="#bfbfbf" points="0,-154 0,-173 78,-173 78,-154 0,-154"/>
<text text-anchor="middle" x="39" y="-161" font-family="Helvetica,sans-Serif" font-size="10.00">std::exception</text>
</a>
</g>
</g>
<!-- Node1 -->
<g id="node2" class="node">
<title>Node1</title>
<g id="a_node2"><a xlink:href="classcpptrace_1_1exception.html" target="_top" xlink:title=" ">
<polygon fill="none" stroke="black" points="114,-154 114,-173 216,-173 216,-154 114,-154"/>
<text text-anchor="middle" x="165" y="-161" font-family="Helvetica,sans-Serif" font-size="10.00">cpptrace::exception</text>
</a>
</g>
</g>
<!-- Node0&#45;&gt;Node1 -->
<g id="edge1" class="edge">
<title>Node0&#45;&gt;Node1</title>
<path fill="none" stroke="midnightblue" d="M88.23,-163.5C96.62,-163.5 105.36,-163.5 113.81,-163.5"/>
<polygon fill="midnightblue" stroke="midnightblue" points="88.22,-160 78.22,-163.5 88.22,-167 88.22,-160"/>
</g>
<!-- Node2 -->
<g id="node3" class="node">
<title>Node2</title>
<g id="a_node3"><a xlink:href="classcpptrace_1_1lazy__exception.html" target="_top" xlink:title=" ">
<polygon fill="none" stroke="black" points="252,-154 252,-173 377,-173 377,-154 252,-154"/>
<text text-anchor="middle" x="314.5" y="-161" font-family="Helvetica,sans-Serif" font-size="10.00">cpptrace::lazy_exception</text>
</a>
</g>
</g>
<!-- Node1&#45;&gt;Node2 -->
<g id="edge2" class="edge">
<title>Node1&#45;&gt;Node2</title>
<path fill="none" stroke="midnightblue" d="M226.44,-163.5C234.84,-163.5 243.48,-163.5 251.89,-163.5"/>
<polygon fill="midnightblue" stroke="midnightblue" points="226.35,-160 216.35,-163.5 226.35,-167 226.35,-160"/>
</g>
<!-- Node3 -->
<g id="node4" class="node">
<title>Node3</title>
<g id="a_node4"><a xlink:href="classcpptrace_1_1exception__with__message.html" target="_top" xlink:title=" ">
<polygon fill="none" stroke="black" points="430.5,-170.5 430.5,-200.5 532.5,-200.5 532.5,-170.5 430.5,-170.5"/>
<text text-anchor="start" x="438.5" y="-188.5" font-family="Helvetica,sans-Serif" font-size="10.00">cpptrace::exception</text>
<text text-anchor="middle" x="481.5" y="-177.5" font-family="Helvetica,sans-Serif" font-size="10.00">_with_message</text>
</a>
</g>
</g>
<!-- Node2&#45;&gt;Node3 -->
<g id="edge3" class="edge">
<title>Node2&#45;&gt;Node3</title>
<path fill="none" stroke="midnightblue" d="M387.35,-173.08C401.84,-175.01 416.78,-177 430.34,-178.81"/>
<polygon fill="midnightblue" stroke="midnightblue" points="387.78,-169.61 377.41,-171.75 386.86,-176.55 387.78,-169.61"/>
</g>
<!-- Node14 -->
<g id="node15" class="node">
<title>Node14</title>
<g id="a_node15"><a xlink:href="classcpptrace_1_1nested__exception.html" target="_top" xlink:title=" ">
<polygon fill="none" stroke="black" points="413,-132 413,-151 550,-151 550,-132 413,-132"/>
<text text-anchor="middle" x="481.5" y="-139" font-family="Helvetica,sans-Serif" font-size="10.00">cpptrace::nested_exception</text>
</a>
</g>
</g>
<!-- Node2&#45;&gt;Node14 -->
<g id="edge14" class="edge">
<title>Node2&#45;&gt;Node14</title>
<path fill="none" stroke="midnightblue" d="M387.32,-153.92C395.85,-152.79 404.53,-151.63 412.99,-150.5"/>
<polygon fill="midnightblue" stroke="midnightblue" points="386.86,-150.45 377.41,-155.25 387.78,-157.39 386.86,-150.45"/>
</g>
<!-- Node4 -->
<g id="node5" class="node">
<title>Node4</title>
<g id="a_node5"><a xlink:href="classcpptrace_1_1domain__error.html" target="_top" xlink:title=" ">
<polygon fill="none" stroke="black" points="595,-328 595,-347 711,-347 711,-328 595,-328"/>
<text text-anchor="middle" x="653" y="-335" font-family="Helvetica,sans-Serif" font-size="10.00">cpptrace::domain_error</text>
</a>
</g>
</g>
<!-- Node3&#45;&gt;Node4 -->
<g id="edge4" class="edge">
<title>Node3&#45;&gt;Node4</title>
<path fill="none" stroke="midnightblue" d="M495.05,-209.77C511.8,-239.75 544.24,-290.24 586,-318.5 591.73,-322.38 598.25,-325.47 604.91,-327.94"/>
<polygon fill="midnightblue" stroke="midnightblue" points="498.03,-207.92 490.18,-200.81 491.88,-211.27 498.03,-207.92"/>
</g>
<!-- Node5 -->
<g id="node6" class="node">
<title>Node5</title>
<g id="a_node6"><a xlink:href="classcpptrace_1_1invalid__argument.html" target="_top" xlink:title=" ">
<polygon fill="none" stroke="black" points="586,-290 586,-309 720,-309 720,-290 586,-290"/>
<text text-anchor="middle" x="653" y="-297" font-family="Helvetica,sans-Serif" font-size="10.00">cpptrace::invalid_argument</text>
</a>
</g>
</g>
<!-- Node3&#45;&gt;Node5 -->
<g id="edge5" class="edge">
<title>Node3&#45;&gt;Node5</title>
<path fill="none" stroke="midnightblue" d="M501.68,-208.38C520.91,-229.94 552.43,-261.66 586,-280.5 592.76,-284.29 600.34,-287.39 607.89,-289.89"/>
<polygon fill="midnightblue" stroke="midnightblue" points="504.14,-205.89 494.93,-200.67 498.88,-210.5 504.14,-205.89"/>
</g>
<!-- Node6 -->
<g id="node7" class="node">
<title>Node6</title>
<g id="a_node7"><a xlink:href="classcpptrace_1_1length__error.html" target="_top" xlink:title=" ">
<polygon fill="none" stroke="black" points="597.5,-252 597.5,-271 708.5,-271 708.5,-252 597.5,-252"/>
<text text-anchor="middle" x="653" y="-259" font-family="Helvetica,sans-Serif" font-size="10.00">cpptrace::length_error</text>
</a>
</g>
</g>
<!-- Node3&#45;&gt;Node6 -->
<g id="edge6" class="edge">
<title>Node3&#45;&gt;Node6</title>
<path fill="none" stroke="midnightblue" d="M515.09,-205.91C535.02,-217.76 561.34,-232.31 586,-242.5 594.71,-246.1 604.32,-249.28 613.46,-251.97"/>
<polygon fill="midnightblue" stroke="midnightblue" points="516.78,-202.84 506.41,-200.68 513.17,-208.84 516.78,-202.84"/>
</g>
<!-- Node7 -->
<g id="node8" class="node">
<title>Node7</title>
<g id="a_node8"><a xlink:href="classcpptrace_1_1logic__error.html" target="_top" xlink:title=" ">
<polygon fill="none" stroke="black" points="600.5,-214 600.5,-233 705.5,-233 705.5,-214 600.5,-214"/>
<text text-anchor="middle" x="653" y="-221" font-family="Helvetica,sans-Serif" font-size="10.00">cpptrace::logic_error</text>
</a>
</g>
</g>
<!-- Node3&#45;&gt;Node7 -->
<g id="edge7" class="edge">
<title>Node3&#45;&gt;Node7</title>
<path fill="none" stroke="midnightblue" d="M542.83,-199.03C564.89,-203.97 589.35,-209.45 609.52,-213.98"/>
<polygon fill="midnightblue" stroke="midnightblue" points="543.42,-195.57 532.9,-196.8 541.89,-202.4 543.42,-195.57"/>
</g>
<!-- Node8 -->
<g id="node9" class="node">
<title>Node8</title>
<g id="a_node9"><a xlink:href="classcpptrace_1_1out__of__range.html" target="_top" xlink:title=" ">
<polygon fill="none" stroke="black" points="595,-176 595,-195 711,-195 711,-176 595,-176"/>
<text text-anchor="middle" x="653" y="-183" font-family="Helvetica,sans-Serif" font-size="10.00">cpptrace::out_of_range</text>
</a>
</g>
</g>
<!-- Node3&#45;&gt;Node8 -->
<g id="edge8" class="edge">
<title>Node3&#45;&gt;Node8</title>
<path fill="none" stroke="midnightblue" d="M543.19,-185.5C560.06,-185.5 578.31,-185.5 594.96,-185.5"/>
<polygon fill="midnightblue" stroke="midnightblue" points="542.9,-182 532.9,-185.5 542.9,-189 542.9,-182"/>
</g>
<!-- Node9 -->
<g id="node10" class="node">
<title>Node9</title>
<g id="a_node10"><a xlink:href="classcpptrace_1_1overflow__error.html" target="_top" xlink:title=" ">
<polygon fill="none" stroke="black" points="604.5,-126.5 604.5,-156.5 701.5,-156.5 701.5,-126.5 604.5,-126.5"/>
<text text-anchor="start" x="612.5" y="-144.5" font-family="Helvetica,sans-Serif" font-size="10.00">cpptrace::overflow</text>
<text text-anchor="middle" x="653" y="-133.5" font-family="Helvetica,sans-Serif" font-size="10.00">_error</text>
</a>
</g>
</g>
<!-- Node3&#45;&gt;Node9 -->
<g id="edge9" class="edge">
<title>Node3&#45;&gt;Node9</title>
<path fill="none" stroke="midnightblue" d="M542.66,-169.88C562.93,-164.62 585.25,-158.83 604.41,-153.85"/>
<polygon fill="midnightblue" stroke="midnightblue" points="541.7,-166.52 532.9,-172.42 543.46,-173.29 541.7,-166.52"/>
</g>
<!-- Node10 -->
<g id="node11" class="node">
<title>Node10</title>
<g id="a_node11"><a xlink:href="classcpptrace_1_1range__error.html" target="_top" xlink:title=" ">
<polygon fill="none" stroke="black" points="598.5,-88 598.5,-107 707.5,-107 707.5,-88 598.5,-88"/>
<text text-anchor="middle" x="653" y="-95" font-family="Helvetica,sans-Serif" font-size="10.00">cpptrace::range_error</text>
</a>
</g>
</g>
<!-- Node3&#45;&gt;Node10 -->
<g id="edge10" class="edge">
<title>Node3&#45;&gt;Node10</title>
<path fill="none" stroke="midnightblue" d="M541.45,-165.85C544.42,-164.19 547.29,-162.41 550,-160.5 570.37,-146.14 565.21,-131.24 586,-117.5 592.49,-113.21 599.94,-109.81 607.45,-107.12"/>
<polygon fill="midnightblue" stroke="midnightblue" points="539.65,-162.84 532.31,-170.47 542.81,-169.09 539.65,-162.84"/>
</g>
<!-- Node11 -->
<g id="node12" class="node">
<title>Node11</title>
<g id="a_node12"><a xlink:href="classcpptrace_1_1runtime__error.html" target="_top" xlink:title=" ">
<polygon fill="none" stroke="black" points="594.5,-50 594.5,-69 711.5,-69 711.5,-50 594.5,-50"/>
<text text-anchor="middle" x="653" y="-57" font-family="Helvetica,sans-Serif" font-size="10.00">cpptrace::runtime_error</text>
</a>
</g>
</g>
<!-- Node3&#45;&gt;Node11 -->
<g id="edge11" class="edge">
<title>Node3&#45;&gt;Node11</title>
<path fill="none" stroke="midnightblue" d="M541.58,-167.12C544.59,-165.13 547.42,-162.93 550,-160.5 578.96,-133.2 556.04,-104.71 586,-78.5 590.4,-74.65 595.53,-71.58 600.95,-69.13"/>
<polygon fill="midnightblue" stroke="midnightblue" points="539.68,-164.18 532.74,-172.19 543.16,-170.25 539.68,-164.18"/>
</g>
<!-- Node13 -->
<g id="node14" class="node">
<title>Node13</title>
<g id="a_node14"><a xlink:href="classcpptrace_1_1underflow__error.html" target="_top" xlink:title=" ">
<polygon fill="none" stroke="black" points="602,-0.5 602,-30.5 704,-30.5 704,-0.5 602,-0.5"/>
<text text-anchor="start" x="610" y="-18.5" font-family="Helvetica,sans-Serif" font-size="10.00">cpptrace::underflow</text>
<text text-anchor="middle" x="653" y="-7.5" font-family="Helvetica,sans-Serif" font-size="10.00">_error</text>
</a>
</g>
</g>
<!-- Node3&#45;&gt;Node13 -->
<g id="edge13" class="edge">
<title>Node3&#45;&gt;Node13</title>
<path fill="none" stroke="midnightblue" d="M541.35,-167.9C544.49,-165.72 547.41,-163.26 550,-160.5 588.11,-119.9 548.04,-81.24 586,-40.5 590.51,-35.66 596.05,-31.75 602,-28.59"/>
<polygon fill="midnightblue" stroke="midnightblue" points="539.43,-164.97 532.61,-173.08 543,-170.99 539.43,-164.97"/>
</g>
<!-- Node12 -->
<g id="node13" class="node">
<title>Node12</title>
<g id="a_node13"><a xlink:href="classcpptrace_1_1system__error.html" target="_top" xlink:title=" ">
<polygon fill="none" stroke="black" points="756,-50 756,-69 873,-69 873,-50 756,-50"/>
<text text-anchor="middle" x="814.5" y="-57" font-family="Helvetica,sans-Serif" font-size="10.00">cpptrace::system_error</text>
</a>
</g>
</g>
<!-- Node11&#45;&gt;Node12 -->
<g id="edge12" class="edge">
<title>Node11&#45;&gt;Node12</title>
<path fill="none" stroke="midnightblue" d="M721.83,-59.5C733.12,-59.5 744.73,-59.5 755.73,-59.5"/>
<polygon fill="midnightblue" stroke="midnightblue" points="721.58,-56 711.58,-59.5 721.58,-63 721.58,-56"/>
</g>
</g>
</svg>
