<?xml version="1.0" encoding="UTF-8" standalone="no"?>
<!DOCTYPE svg PUBLIC "-//W3C//DTD SVG 1.1//EN"
 "http://www.w3.org/Graphics/SVG/1.1/DTD/svg11.dtd">
<!-- Generated by graphviz version 2.43.0 (0)
 -->
<!-- Title: Graphical Class Hierarchy Pages: 1 -->
<svg width="280pt" height="985pt"
 viewBox="0.00 0.00 280.00 984.50" xmlns="http://www.w3.org/2000/svg" xmlns:xlink="http://www.w3.org/1999/xlink">
<g id="graph0" class="graph" transform="scale(1 1) rotate(0) translate(4 980.5)">
<title>Graphical Class Hierarchy</title>
<!-- Node0 -->
<g id="node1" class="node">
<title>Node0</title>
<g id="a_node1"><a xlink:title=" ">
<polygon fill="none" stroke="#bfbfbf" points="0,-461.5 0,-480.5 81,-480.5 81,-461.5 0,-461.5"/>
<text text-anchor="middle" x="40.5" y="-468.5" font-family="Helvetica,sans-Serif" font-size="10.00">std::false_type</text>
</a>
</g>
</g>
<!-- Node1 -->
<g id="node2" class="node">
<title>Node1</title>
<g id="a_node2"><a xlink:href="structdetail_1_1has__const__begin__end.html" target="_top" xlink:title=" ">
<polygon fill="none" stroke="black" points="135,-946 135,-976 254,-976 254,-946 135,-946"/>
<text text-anchor="start" x="143" y="-964" font-family="Helvetica,sans-Serif" font-size="10.00">detail::has_const_begin</text>
<text text-anchor="middle" x="194.5" y="-953" font-family="Helvetica,sans-Serif" font-size="10.00">_end&lt; T, Enable &gt;</text>
</a>
</g>
</g>
<!-- Node0&#45;&gt;Node1 -->
<g id="edge1" class="edge">
<title>Node0&#45;&gt;Node1</title>
<path fill="none" stroke="midnightblue" d="M42.02,-490.78C44.51,-570.66 57.68,-868.5 117,-937 121.92,-942.68 128.17,-947.03 134.97,-950.37"/>
<polygon fill="midnightblue" stroke="midnightblue" points="45.51,-490.52 41.73,-480.62 38.52,-490.72 45.51,-490.52"/>
</g>
<!-- Node2 -->
<g id="node3" class="node">
<title>Node2</title>
<g id="a_node3"><a xlink:href="structdetail_1_1has__flip.html" target="_top" xlink:title=" ">
<polygon fill="none" stroke="black" points="146.5,-897 146.5,-927 242.5,-927 242.5,-897 146.5,-897"/>
<text text-anchor="start" x="154.5" y="-915" font-family="Helvetica,sans-Serif" font-size="10.00">detail::has_flip&lt; T,</text>
<text text-anchor="middle" x="194.5" y="-904" font-family="Helvetica,sans-Serif" font-size="10.00"> Enable &gt;</text>
</a>
</g>
</g>
<!-- Node0&#45;&gt;Node2 -->
<g id="edge2" class="edge">
<title>Node0&#45;&gt;Node2</title>
<path fill="none" stroke="midnightblue" d="M42.45,-491.04C46.37,-565.86 63.75,-827.65 117,-888 124.64,-896.66 135.37,-902.23 146.38,-905.8"/>
<polygon fill="midnightblue" stroke="midnightblue" points="45.92,-490.51 41.93,-480.7 38.93,-490.86 45.92,-490.51"/>
</g>
<!-- Node3 -->
<g id="node4" class="node">
<title>Node3</title>
<g id="a_node4"><a xlink:href="structdetail_1_1has__flockfile.html" target="_top" xlink:title=" ">
<polygon fill="none" stroke="black" points="144,-848 144,-878 245,-878 245,-848 144,-848"/>
<text text-anchor="start" x="152" y="-866" font-family="Helvetica,sans-Serif" font-size="10.00">detail::has_flockfile</text>
<text text-anchor="middle" x="194.5" y="-855" font-family="Helvetica,sans-Serif" font-size="10.00">&lt; F, Enable &gt;</text>
</a>
</g>
</g>
<!-- Node0&#45;&gt;Node3 -->
<g id="edge3" class="edge">
<title>Node0&#45;&gt;Node3</title>
<path fill="none" stroke="midnightblue" d="M42.96,-490.86C48.4,-559.68 69.68,-786.61 117,-839 124.09,-846.85 133.71,-852.16 143.74,-855.73"/>
<polygon fill="midnightblue" stroke="midnightblue" points="46.42,-490.27 42.17,-480.57 39.45,-490.81 46.42,-490.27"/>
</g>
<!-- Node4 -->
<g id="node5" class="node">
<title>Node4</title>
<g id="a_node5"><a xlink:href="structdetail_1_1has__isfinite.html" target="_top" xlink:title=" ">
<polygon fill="none" stroke="black" points="147,-799 147,-829 242,-829 242,-799 147,-799"/>
<text text-anchor="start" x="155" y="-817" font-family="Helvetica,sans-Serif" font-size="10.00">detail::has_isfinite</text>
<text text-anchor="middle" x="194.5" y="-806" font-family="Helvetica,sans-Serif" font-size="10.00">&lt; T, Enable &gt;</text>
</a>
</g>
</g>
<!-- Node0&#45;&gt;Node4 -->
<g id="edge4" class="edge">
<title>Node0&#45;&gt;Node4</title>
<path fill="none" stroke="midnightblue" d="M43.69,-490.94C50.93,-553.51 76.03,-744.49 117,-789 124.85,-797.53 135.66,-803.16 146.67,-806.87"/>
<polygon fill="midnightblue" stroke="midnightblue" points="47.14,-490.36 42.54,-480.81 40.19,-491.14 47.14,-490.36"/>
</g>
<!-- Node5 -->
<g id="node6" class="node">
<title>Node5</title>
<g id="a_node6"><a xlink:href="structdetail_1_1has__member__data__tm__gmtoff.html" target="_top" xlink:title=" ">
<polygon fill="none" stroke="black" points="141.5,-738.5 141.5,-779.5 247.5,-779.5 247.5,-738.5 141.5,-738.5"/>
<text text-anchor="start" x="149.5" y="-767.5" font-family="Helvetica,sans-Serif" font-size="10.00">detail::has_member</text>
<text text-anchor="start" x="149.5" y="-756.5" font-family="Helvetica,sans-Serif" font-size="10.00">_data_tm_gmtoff&lt; T,</text>
<text text-anchor="middle" x="194.5" y="-745.5" font-family="Helvetica,sans-Serif" font-size="10.00"> typename &gt;</text>
</a>
</g>
</g>
<!-- Node0&#45;&gt;Node5 -->
<g id="edge5" class="edge">
<title>Node0&#45;&gt;Node5</title>
<path fill="none" stroke="midnightblue" d="M41.65,-490.76C43.07,-538.09 53.13,-659.17 117,-729 123.64,-736.26 132.26,-741.79 141.31,-745.99"/>
<polygon fill="midnightblue" stroke="midnightblue" points="45.15,-490.56 41.45,-480.63 38.15,-490.7 45.15,-490.56"/>
</g>
<!-- Node6 -->
<g id="node7" class="node">
<title>Node6</title>
<g id="a_node7"><a xlink:href="structdetail_1_1has__member__data__tm__zone.html" target="_top" xlink:title=" ">
<polygon fill="none" stroke="black" points="117,-689 117,-719 272,-719 272,-689 117,-689"/>
<text text-anchor="start" x="125" y="-707" font-family="Helvetica,sans-Serif" font-size="10.00">detail::has_member</text>
<text text-anchor="middle" x="194.5" y="-696" font-family="Helvetica,sans-Serif" font-size="10.00">_data_tm_zone&lt; T, typename &gt;</text>
</a>
</g>
</g>
<!-- Node0&#45;&gt;Node6 -->
<g id="edge6" class="edge">
<title>Node0&#45;&gt;Node6</title>
<path fill="none" stroke="midnightblue" d="M43.05,-490.96C47.3,-532.02 62.76,-626.49 117,-679 121.02,-682.89 125.64,-686.17 130.6,-688.94"/>
<polygon fill="midnightblue" stroke="midnightblue" points="46.52,-490.51 42.12,-480.88 39.55,-491.15 46.52,-490.51"/>
</g>
<!-- Node7 -->
<g id="node8" class="node">
<title>Node7</title>
<g id="a_node8"><a xlink:href="structdetail_1_1has__member__fn__begin__end__t.html" target="_top" xlink:title=" ">
<polygon fill="none" stroke="black" points="142.5,-628.5 142.5,-669.5 246.5,-669.5 246.5,-628.5 142.5,-628.5"/>
<text text-anchor="start" x="150.5" y="-657.5" font-family="Helvetica,sans-Serif" font-size="10.00">detail::has_member</text>
<text text-anchor="start" x="150.5" y="-646.5" font-family="Helvetica,sans-Serif" font-size="10.00">_fn_begin_end_t&lt; T,</text>
<text text-anchor="middle" x="194.5" y="-635.5" font-family="Helvetica,sans-Serif" font-size="10.00"> Enable &gt;</text>
</a>
</g>
</g>
<!-- Node0&#45;&gt;Node7 -->
<g id="edge7" class="edge">
<title>Node0&#45;&gt;Node7</title>
<path fill="none" stroke="midnightblue" d="M46.55,-490.48C55.6,-521.72 77.43,-583.13 117,-619 124.29,-625.61 133.21,-630.84 142.35,-634.95"/>
<polygon fill="midnightblue" stroke="midnightblue" points="49.91,-489.49 43.88,-480.78 43.16,-491.35 49.91,-489.49"/>
</g>
<!-- Node8 -->
<g id="node9" class="node">
<title>Node8</title>
<g id="a_node9"><a xlink:href="structdetail_1_1has__mutable__begin__end.html" target="_top" xlink:title=" ">
<polygon fill="none" stroke="black" points="132,-579 132,-609 257,-609 257,-579 132,-579"/>
<text text-anchor="start" x="140" y="-597" font-family="Helvetica,sans-Serif" font-size="10.00">detail::has_mutable</text>
<text text-anchor="middle" x="194.5" y="-586" font-family="Helvetica,sans-Serif" font-size="10.00">_begin_end&lt; T, Enable &gt;</text>
</a>
</g>
</g>
<!-- Node0&#45;&gt;Node8 -->
<g id="edge8" class="edge">
<title>Node0&#45;&gt;Node8</title>
<path fill="none" stroke="midnightblue" d="M50.99,-489.58C63.29,-511.85 86.79,-548.81 117,-570 121.9,-573.44 127.31,-576.4 132.93,-578.94"/>
<polygon fill="midnightblue" stroke="midnightblue" points="54.08,-487.93 46.28,-480.76 47.9,-491.23 54.08,-487.93"/>
</g>
<!-- Node9 -->
<g id="node10" class="node">
<title>Node9</title>
<g id="a_node10"><a xlink:href="structdetail_1_1has__to__string__view.html" target="_top" xlink:title=" ">
<polygon fill="none" stroke="black" points="142.5,-530 142.5,-560 246.5,-560 246.5,-530 142.5,-530"/>
<text text-anchor="start" x="150.5" y="-548" font-family="Helvetica,sans-Serif" font-size="10.00">detail::has_to_string</text>
<text text-anchor="middle" x="194.5" y="-537" font-family="Helvetica,sans-Serif" font-size="10.00">_view&lt; T, Enable &gt;</text>
</a>
</g>
</g>
<!-- Node0&#45;&gt;Node9 -->
<g id="edge9" class="edge">
<title>Node0&#45;&gt;Node9</title>
<path fill="none" stroke="midnightblue" d="M61.99,-486.87C76.67,-497.65 97.25,-511.6 117,-521 124.92,-524.77 133.57,-528.14 142.12,-531.07"/>
<polygon fill="midnightblue" stroke="midnightblue" points="63.78,-483.83 53.68,-480.64 59.58,-489.43 63.78,-483.83"/>
</g>
<!-- Node10 -->
<g id="node11" class="node">
<title>Node10</title>
<g id="a_node11"><a xlink:href="structdetail_1_1is__back__insert__iterator.html" target="_top" xlink:title=" ">
<polygon fill="none" stroke="black" points="138.5,-481 138.5,-511 250.5,-511 250.5,-481 138.5,-481"/>
<text text-anchor="start" x="146.5" y="-499" font-family="Helvetica,sans-Serif" font-size="10.00">detail::is_back_insert</text>
<text text-anchor="middle" x="194.5" y="-488" font-family="Helvetica,sans-Serif" font-size="10.00">_iterator&lt; It, Enable &gt;</text>
</a>
</g>
</g>
<!-- Node0&#45;&gt;Node10 -->
<g id="edge10" class="edge">
<title>Node0&#45;&gt;Node10</title>
<path fill="none" stroke="midnightblue" d="M91.21,-479.18C106.31,-481.66 122.99,-484.4 138.43,-486.94"/>
<polygon fill="midnightblue" stroke="midnightblue" points="91.47,-475.67 81.04,-477.5 90.34,-482.58 91.47,-475.67"/>
</g>
<!-- Node11 -->
<g id="node12" class="node">
<title>Node11</title>
<g id="a_node12"><a xlink:href="structdetail_1_1is__buffer__appender.html" target="_top" xlink:title=" ">
<polygon fill="none" stroke="black" points="130.5,-432 130.5,-462 258.5,-462 258.5,-432 130.5,-432"/>
<text text-anchor="start" x="138.5" y="-450" font-family="Helvetica,sans-Serif" font-size="10.00">detail::is_buffer_appender</text>
<text text-anchor="middle" x="194.5" y="-439" font-family="Helvetica,sans-Serif" font-size="10.00">&lt; It, Enable &gt;</text>
</a>
</g>
</g>
<!-- Node0&#45;&gt;Node11 -->
<g id="edge11" class="edge">
<title>Node0&#45;&gt;Node11</title>
<path fill="none" stroke="midnightblue" d="M91.23,-463.15C103.71,-461.18 117.27,-459.04 130.31,-456.98"/>
<polygon fill="midnightblue" stroke="midnightblue" points="90.37,-459.74 81.04,-464.76 91.46,-466.65 90.37,-459.74"/>
</g>
<!-- Node12 -->
<g id="node13" class="node">
<title>Node12</title>
<g id="a_node13"><a xlink:href="structdetail_1_1is__named__arg.html" target="_top" xlink:title=" ">
<polygon fill="none" stroke="black" points="129.5,-393.5 129.5,-412.5 259.5,-412.5 259.5,-393.5 129.5,-393.5"/>
<text text-anchor="middle" x="194.5" y="-400.5" font-family="Helvetica,sans-Serif" font-size="10.00">detail::is_named_arg&lt; T &gt;</text>
</a>
</g>
</g>
<!-- Node0&#45;&gt;Node12 -->
<g id="edge12" class="edge">
<title>Node0&#45;&gt;Node12</title>
<path fill="none" stroke="midnightblue" d="M62.22,-455.33C76.86,-444.9 97.31,-431.58 117,-423 126.56,-418.83 137.19,-415.38 147.41,-412.58"/>
<polygon fill="midnightblue" stroke="midnightblue" points="59.93,-452.67 53.91,-461.39 64.05,-458.33 59.93,-452.67"/>
</g>
<!-- Node13 -->
<g id="node14" class="node">
<title>Node13</title>
<g id="a_node14"><a xlink:href="structdetail_1_1is__output__iterator.html" target="_top" xlink:title=" ">
<polygon fill="none" stroke="black" points="134,-344 134,-374 255,-374 255,-344 134,-344"/>
<text text-anchor="start" x="142" y="-362" font-family="Helvetica,sans-Serif" font-size="10.00">detail::is_output_iterator</text>
<text text-anchor="middle" x="194.5" y="-351" font-family="Helvetica,sans-Serif" font-size="10.00">&lt; It, T, Enable &gt;</text>
</a>
</g>
</g>
<!-- Node0&#45;&gt;Node13 -->
<g id="edge13" class="edge">
<title>Node0&#45;&gt;Node13</title>
<path fill="none" stroke="midnightblue" d="M52.92,-452.75C66.09,-433.11 89.51,-402.25 117,-384 122.82,-380.14 129.29,-376.83 135.92,-374.01"/>
<polygon fill="midnightblue" stroke="midnightblue" points="49.82,-451.1 47.3,-461.39 55.69,-454.91 49.82,-451.1"/>
</g>
<!-- Node14 -->
<g id="node15" class="node">
<title>Node14</title>
<g id="a_node15"><a xlink:href="structdetail_1_1is__range__.html" target="_top" xlink:title=" ">
<polygon fill="none" stroke="black" points="147.5,-295 147.5,-325 241.5,-325 241.5,-295 147.5,-295"/>
<text text-anchor="start" x="155.5" y="-313" font-family="Helvetica,sans-Serif" font-size="10.00">detail::is_range_&lt;</text>
<text text-anchor="middle" x="194.5" y="-302" font-family="Helvetica,sans-Serif" font-size="10.00"> T, _ &gt;</text>
</a>
</g>
</g>
<!-- Node0&#45;&gt;Node14 -->
<g id="edge14" class="edge">
<title>Node0&#45;&gt;Node14</title>
<path fill="none" stroke="midnightblue" d="M47.18,-451.6C56.78,-422.18 78.97,-366.38 117,-335 125.73,-327.8 136.59,-322.65 147.37,-318.98"/>
<polygon fill="midnightblue" stroke="midnightblue" points="43.84,-450.56 44.21,-461.15 50.52,-452.64 43.84,-450.56"/>
</g>
<!-- Node15 -->
<g id="node16" class="node">
<title>Node15</title>
<g id="a_node16"><a xlink:href="structdetail_1_1is__reference__wrapper.html" target="_top" xlink:title=" ">
<polygon fill="none" stroke="black" points="145,-246 145,-276 244,-276 244,-246 145,-246"/>
<text text-anchor="start" x="153" y="-264" font-family="Helvetica,sans-Serif" font-size="10.00">detail::is_reference</text>
<text text-anchor="middle" x="194.5" y="-253" font-family="Helvetica,sans-Serif" font-size="10.00">_wrapper&lt; T &gt;</text>
</a>
</g>
</g>
<!-- Node0&#45;&gt;Node15 -->
<g id="edge15" class="edge">
<title>Node0&#45;&gt;Node15</title>
<path fill="none" stroke="midnightblue" d="M44.06,-451.21C49.96,-413.63 67.99,-331.62 117,-286 124.77,-278.76 134.67,-273.62 144.75,-269.97"/>
<polygon fill="midnightblue" stroke="midnightblue" points="40.56,-450.96 42.6,-461.36 47.49,-451.96 40.56,-450.96"/>
</g>
<!-- Node16 -->
<g id="node17" class="node">
<title>Node16</title>
<g id="a_node17"><a xlink:href="structdetail_1_1is__statically__named__arg.html" target="_top" xlink:title=" ">
<polygon fill="none" stroke="black" points="145.5,-197 145.5,-227 243.5,-227 243.5,-197 145.5,-197"/>
<text text-anchor="start" x="153.5" y="-215" font-family="Helvetica,sans-Serif" font-size="10.00">detail::is_statically</text>
<text text-anchor="middle" x="194.5" y="-204" font-family="Helvetica,sans-Serif" font-size="10.00">_named_arg&lt; T &gt;</text>
</a>
</g>
</g>
<!-- Node0&#45;&gt;Node16 -->
<g id="edge16" class="edge">
<title>Node0&#45;&gt;Node16</title>
<path fill="none" stroke="midnightblue" d="M42.09,-451.35C44.49,-406.87 56.58,-297.65 117,-237 124.69,-229.28 134.8,-223.94 145.13,-220.25"/>
<polygon fill="midnightblue" stroke="midnightblue" points="38.59,-451.28 41.66,-461.42 45.58,-451.58 38.59,-451.28"/>
</g>
<!-- Node17 -->
<g id="node18" class="node">
<title>Node17</title>
<g id="a_node18"><a xlink:href="structdetail_1_1is__std__string__like.html" target="_top" xlink:title=" ">
<polygon fill="none" stroke="black" points="144,-148 144,-178 245,-178 245,-148 144,-148"/>
<text text-anchor="start" x="152" y="-166" font-family="Helvetica,sans-Serif" font-size="10.00">detail::is_std_string</text>
<text text-anchor="middle" x="194.5" y="-155" font-family="Helvetica,sans-Serif" font-size="10.00">_like&lt; T, Enable &gt;</text>
</a>
</g>
</g>
<!-- Node0&#45;&gt;Node17 -->
<g id="edge17" class="edge">
<title>Node0&#45;&gt;Node17</title>
<path fill="none" stroke="midnightblue" d="M40.77,-451.16C40.01,-400.3 45.18,-263.9 117,-188 124.2,-180.39 133.75,-175.09 143.65,-171.41"/>
<polygon fill="midnightblue" stroke="midnightblue" points="37.28,-451.51 41.03,-461.42 44.28,-451.34 37.28,-451.51"/>
</g>
<!-- Node18 -->
<g id="node19" class="node">
<title>Node18</title>
<g id="a_node19"><a xlink:href="structdetail_1_1locking_3_01T_00_01void__t_3_01typename_01formatter_3_01remove__cvref__t_3_01T_061b149d32699cfa3269082373d3ca90f.html" target="_top" xlink:title=" ">
<polygon fill="none" stroke="black" points="124.5,-77 124.5,-129 264.5,-129 264.5,-77 124.5,-77"/>
<text text-anchor="start" x="132.5" y="-117" font-family="Helvetica,sans-Serif" font-size="10.00">detail::locking&lt; T,</text>
<text text-anchor="start" x="132.5" y="-106" font-family="Helvetica,sans-Serif" font-size="10.00"> void_t&lt; typename formatter</text>
<text text-anchor="start" x="132.5" y="-95" font-family="Helvetica,sans-Serif" font-size="10.00">&lt; remove_cvref_t&lt; T &gt; &gt;::</text>
<text text-anchor="middle" x="194.5" y="-84" font-family="Helvetica,sans-Serif" font-size="10.00">nonlocking &gt; &gt;</text>
</a>
</g>
</g>
<!-- Node0&#45;&gt;Node18 -->
<g id="edge18" class="edge">
<title>Node0&#45;&gt;Node18</title>
<path fill="none" stroke="midnightblue" d="M43.71,-451.23C51.2,-387.44 77.34,-188.32 117,-139 119.94,-135.34 123.35,-132.03 127.05,-129.05"/>
<polygon fill="midnightblue" stroke="midnightblue" points="40.23,-450.86 42.57,-461.2 47.19,-451.66 40.23,-450.86"/>
</g>
<!-- Node19 -->
<g id="node20" class="node">
<title>Node19</title>
<g id="a_node20"><a xlink:href="structis__char.html" target="_top" xlink:title="Specifies if T is a character type. Can be specialized by users.">
<polygon fill="none" stroke="black" points="159,-38.5 159,-57.5 230,-57.5 230,-38.5 159,-38.5"/>
<text text-anchor="middle" x="194.5" y="-45.5" font-family="Helvetica,sans-Serif" font-size="10.00">is_char&lt; T &gt;</text>
</a>
</g>
</g>
<!-- Node0&#45;&gt;Node19 -->
<g id="edge19" class="edge">
<title>Node0&#45;&gt;Node19</title>
<path fill="none" stroke="midnightblue" d="M42.48,-451.07C46.5,-377.83 64.03,-124.85 117,-68 127.67,-56.55 144.01,-51.33 158.85,-49.07"/>
<polygon fill="midnightblue" stroke="midnightblue" points="38.98,-451.06 41.95,-461.23 45.97,-451.42 38.98,-451.06"/>
</g>
<!-- Node20 -->
<g id="node21" class="node">
<title>Node20</title>
<g id="a_node21"><a xlink:href="structis__contiguous.html" target="_top" xlink:title=" ">
<polygon fill="none" stroke="black" points="144.5,-0.5 144.5,-19.5 244.5,-19.5 244.5,-0.5 144.5,-0.5"/>
<text text-anchor="middle" x="194.5" y="-7.5" font-family="Helvetica,sans-Serif" font-size="10.00">is_contiguous&lt; T &gt;</text>
</a>
</g>
</g>
<!-- Node0&#45;&gt;Node20 -->
<g id="edge20" class="edge">
<title>Node0&#45;&gt;Node20</title>
<path fill="none" stroke="midnightblue" d="M42.1,-451.17C44.83,-373.58 58.69,-91.81 117,-29 124.17,-21.28 133.95,-16.48 144.11,-13.55"/>
<polygon fill="midnightblue" stroke="midnightblue" points="38.59,-451.33 41.76,-461.44 45.58,-451.56 38.59,-451.33"/>
</g>
</g>
</svg>
