<?xml version="1.0" encoding="UTF-8" standalone="no"?>
<!DOCTYPE svg PUBLIC "-//W3C//DTD SVG 1.1//EN"
 "http://www.w3.org/Graphics/SVG/1.1/DTD/svg11.dtd">
<!-- Generated by graphviz version 2.43.0 (0)
 -->
<!-- Title: Graphical Class Hierarchy Pages: 1 -->
<svg width="270pt" height="275pt"
 viewBox="0.00 0.00 270.00 274.50" xmlns="http://www.w3.org/2000/svg" xmlns:xlink="http://www.w3.org/1999/xlink">
<g id="graph0" class="graph" transform="scale(1 1) rotate(0) translate(4 270.5)">
<title>Graphical Class Hierarchy</title>
<!-- Node0 -->
<g id="node1" class="node">
<title>Node0</title>
<g id="a_node1"><a xlink:href="structformatter_3_01std_1_1tm_00_01Char_01_4.html" target="_top" xlink:title=" ">
<polygon fill="none" stroke="black" points="0,-118.5 0,-148.5 98,-148.5 98,-118.5 0,-118.5"/>
<text text-anchor="start" x="8" y="-136.5" font-family="Helvetica,sans-Serif" font-size="10.00">formatter&lt; std::tm,</text>
<text text-anchor="middle" x="49" y="-125.5" font-family="Helvetica,sans-Serif" font-size="10.00"> Char &gt;</text>
</a>
</g>
</g>
<!-- Node1 -->
<g id="node2" class="node">
<title>Node1</title>
<g id="a_node2"><a xlink:href="structformatter_3_01day_00_01Char_01_4.html" target="_top" xlink:title=" ">
<polygon fill="none" stroke="black" points="140,-247 140,-266 256,-266 256,-247 140,-247"/>
<text text-anchor="middle" x="198" y="-254" font-family="Helvetica,sans-Serif" font-size="10.00">formatter&lt; day, Char &gt;</text>
</a>
</g>
</g>
<!-- Node0&#45;&gt;Node1 -->
<g id="edge1" class="edge">
<title>Node0&#45;&gt;Node1</title>
<path fill="none" stroke="#8b1a1a" d="M63.4,-157.36C77.87,-181.03 103.06,-216.69 134,-237.5 139.78,-241.39 146.39,-244.5 153.09,-246.99"/>
<polygon fill="#8b1a1a" stroke="#8b1a1a" points="66.33,-155.45 58.21,-148.64 60.31,-159.02 66.33,-155.45"/>
</g>
<!-- Node2 -->
<g id="node3" class="node">
<title>Node2</title>
<g id="a_node3"><a xlink:href="structformatter_3_01month_00_01Char_01_4.html" target="_top" xlink:title=" ">
<polygon fill="none" stroke="black" points="134,-209 134,-228 262,-228 262,-209 134,-209"/>
<text text-anchor="middle" x="198" y="-216" font-family="Helvetica,sans-Serif" font-size="10.00">formatter&lt; month, Char &gt;</text>
</a>
</g>
</g>
<!-- Node0&#45;&gt;Node2 -->
<g id="edge2" class="edge">
<title>Node0&#45;&gt;Node2</title>
<path fill="none" stroke="#8b1a1a" d="M73.23,-155.66C89.23,-169.9 111.58,-187.84 134,-199.5 141.2,-203.24 149.25,-206.37 157.12,-208.94"/>
<polygon fill="#8b1a1a" stroke="#8b1a1a" points="75.22,-152.75 65.47,-148.61 70.51,-157.93 75.22,-152.75"/>
</g>
<!-- Node3 -->
<g id="node4" class="node">
<title>Node3</title>
<g id="a_node4"><a xlink:href="structformatter_3_01std_1_1chrono_1_1time__point_3_01std_1_1chrono_1_1system__clock_00_01Duration_01_4_00_01Char_01_4.html" target="_top" xlink:title=" ">
<polygon fill="none" stroke="black" points="135,-137.5 135,-189.5 261,-189.5 261,-137.5 135,-137.5"/>
<text text-anchor="start" x="143" y="-177.5" font-family="Helvetica,sans-Serif" font-size="10.00">formatter&lt; std::chrono</text>
<text text-anchor="start" x="143" y="-166.5" font-family="Helvetica,sans-Serif" font-size="10.00">::time_point&lt; std::chrono</text>
<text text-anchor="start" x="143" y="-155.5" font-family="Helvetica,sans-Serif" font-size="10.00">::system_clock, Duration</text>
<text text-anchor="middle" x="198" y="-144.5" font-family="Helvetica,sans-Serif" font-size="10.00"> &gt;, Char &gt;</text>
</a>
</g>
</g>
<!-- Node0&#45;&gt;Node3 -->
<g id="edge3" class="edge">
<title>Node0&#45;&gt;Node3</title>
<path fill="none" stroke="midnightblue" d="M107.94,-145.32C116.77,-147.13 125.92,-148.99 134.83,-150.81"/>
<polygon fill="midnightblue" stroke="midnightblue" points="108.63,-141.89 98.13,-143.32 107.23,-148.75 108.63,-141.89"/>
</g>
<!-- Node4 -->
<g id="node5" class="node">
<title>Node4</title>
<g id="a_node5"><a xlink:href="structformatter_3_01weekday_00_01Char_01_4.html" target="_top" xlink:title=" ">
<polygon fill="none" stroke="black" points="145,-88.5 145,-118.5 251,-118.5 251,-88.5 145,-88.5"/>
<text text-anchor="start" x="153" y="-106.5" font-family="Helvetica,sans-Serif" font-size="10.00">formatter&lt; weekday,</text>
<text text-anchor="middle" x="198" y="-95.5" font-family="Helvetica,sans-Serif" font-size="10.00"> Char &gt;</text>
</a>
</g>
</g>
<!-- Node0&#45;&gt;Node4 -->
<g id="edge4" class="edge">
<title>Node0&#45;&gt;Node4</title>
<path fill="none" stroke="#8b1a1a" d="M108.17,-121.63C120.32,-119.15 133.05,-116.55 144.96,-114.12"/>
<polygon fill="#8b1a1a" stroke="#8b1a1a" points="107.23,-118.25 98.13,-123.68 108.63,-125.11 107.23,-118.25"/>
</g>
<!-- Node5 -->
<g id="node6" class="node">
<title>Node5</title>
<g id="a_node6"><a xlink:href="structformatter_3_01year_00_01Char_01_4.html" target="_top" xlink:title=" ">
<polygon fill="none" stroke="black" points="138.5,-50 138.5,-69 257.5,-69 257.5,-50 138.5,-50"/>
<text text-anchor="middle" x="198" y="-57" font-family="Helvetica,sans-Serif" font-size="10.00">formatter&lt; year, Char &gt;</text>
</a>
</g>
</g>
<!-- Node0&#45;&gt;Node5 -->
<g id="edge5" class="edge">
<title>Node0&#45;&gt;Node5</title>
<path fill="none" stroke="#8b1a1a" d="M78.44,-112.54C94.22,-101.61 114.54,-88.65 134,-79.5 142.62,-75.45 152.27,-71.92 161.38,-69.01"/>
<polygon fill="#8b1a1a" stroke="#8b1a1a" points="76.33,-109.74 70.17,-118.36 80.36,-115.46 76.33,-109.74"/>
</g>
<!-- Node6 -->
<g id="node7" class="node">
<title>Node6</title>
<g id="a_node7"><a xlink:href="structformatter_3_01year__month__day_00_01Char_01_4.html" target="_top" xlink:title=" ">
<polygon fill="none" stroke="black" points="140,-0.5 140,-30.5 256,-30.5 256,-0.5 140,-0.5"/>
<text text-anchor="start" x="148" y="-18.5" font-family="Helvetica,sans-Serif" font-size="10.00">formatter&lt; year_month</text>
<text text-anchor="middle" x="198" y="-7.5" font-family="Helvetica,sans-Serif" font-size="10.00">_day, Char &gt;</text>
</a>
</g>
</g>
<!-- Node0&#45;&gt;Node6 -->
<g id="edge6" class="edge">
<title>Node0&#45;&gt;Node6</title>
<path fill="none" stroke="#8b1a1a" d="M66.27,-110.08C81.67,-89.38 106.48,-59.61 134,-40.5 139.41,-36.74 145.47,-33.43 151.64,-30.55"/>
<polygon fill="#8b1a1a" stroke="#8b1a1a" points="63.32,-108.18 60.27,-118.33 68.98,-112.3 63.32,-108.18"/>
</g>
</g>
</svg>
