<?xml version="1.0" encoding="UTF-8" standalone="no"?>
<!DOCTYPE svg PUBLIC "-//W3C//DTD SVG 1.1//EN"
 "http://www.w3.org/Graphics/SVG/1.1/DTD/svg11.dtd">
<!-- Generated by graphviz version 2.43.0 (0)
 -->
<!-- Title: Graphical Class Hierarchy Pages: 1 -->
<svg width="336pt" height="137pt"
 viewBox="0.00 0.00 336.00 137.00" xmlns="http://www.w3.org/2000/svg" xmlns:xlink="http://www.w3.org/1999/xlink">
<g id="graph0" class="graph" transform="scale(1 1) rotate(0) translate(4 133)">
<title>Graphical Class Hierarchy</title>
<!-- Node0 -->
<g id="node1" class="node">
<title>Node0</title>
<g id="a_node1"><a xlink:href="classHMatrixVmultStrategy_3_01spacedim_00_01std_1_1complex_3_01T_01_4_01_4.html" target="_top" xlink:title=" ">
<polygon fill="none" stroke="black" points="0,-44 0,-85 130,-85 130,-44 0,-44"/>
<text text-anchor="start" x="8" y="-73" font-family="Helvetica,sans-Serif" font-size="10.00">HMatrixVmultStrategy</text>
<text text-anchor="start" x="8" y="-62" font-family="Helvetica,sans-Serif" font-size="10.00">&lt; spacedim, std::complex</text>
<text text-anchor="middle" x="65" y="-51" font-family="Helvetica,sans-Serif" font-size="10.00">&lt; T &gt; &gt;</text>
</a>
</g>
</g>
<!-- Node1 -->
<g id="node2" class="node">
<title>Node1</title>
<g id="a_node2"><a xlink:href="classHMatrixVmultSerialIterative_3_01spacedim_00_01std_1_1complex_3_01T_01_4_01_4.html" target="_top" xlink:title=" ">
<polygon fill="none" stroke="black" points="166,-98.5 166,-128.5 328,-128.5 328,-98.5 166,-98.5"/>
<text text-anchor="start" x="174" y="-116.5" font-family="Helvetica,sans-Serif" font-size="10.00">HMatrixVmultSerialIterative</text>
<text text-anchor="middle" x="247" y="-105.5" font-family="Helvetica,sans-Serif" font-size="10.00">&lt; spacedim, std::complex&lt; T &gt; &gt;</text>
</a>
</g>
</g>
<!-- Node0&#45;&gt;Node1 -->
<g id="edge1" class="edge">
<title>Node0&#45;&gt;Node1</title>
<path fill="none" stroke="midnightblue" d="M140.09,-84.67C157.03,-89.28 174.75,-94.11 190.75,-98.46"/>
<polygon fill="midnightblue" stroke="midnightblue" points="140.79,-81.23 130.22,-81.98 138.95,-87.99 140.79,-81.23"/>
</g>
<!-- Node2 -->
<g id="node3" class="node">
<title>Node2</title>
<g id="a_node3"><a xlink:href="classHMatrixVmultSerialRecursive_3_01spacedim_00_01std_1_1complex_3_01T_01_4_01_4.html" target="_top" xlink:title=" ">
<polygon fill="none" stroke="black" points="166,-49.5 166,-79.5 328,-79.5 328,-49.5 166,-49.5"/>
<text text-anchor="start" x="174" y="-67.5" font-family="Helvetica,sans-Serif" font-size="10.00">HMatrixVmultSerialRecursive</text>
<text text-anchor="middle" x="247" y="-56.5" font-family="Helvetica,sans-Serif" font-size="10.00">&lt; spacedim, std::complex&lt; T &gt; &gt;</text>
</a>
</g>
</g>
<!-- Node0&#45;&gt;Node2 -->
<g id="edge2" class="edge">
<title>Node0&#45;&gt;Node2</title>
<path fill="none" stroke="midnightblue" d="M140.34,-64.5C148.72,-64.5 157.29,-64.5 165.75,-64.5"/>
<polygon fill="midnightblue" stroke="midnightblue" points="140.22,-61 130.22,-64.5 140.22,-68 140.22,-61"/>
</g>
<!-- Node3 -->
<g id="node4" class="node">
<title>Node3</title>
<g id="a_node4"><a xlink:href="classHMatrixVmultTaskParallel_3_01spacedim_00_01std_1_1complex_3_01T_01_4_01_4.html" target="_top" xlink:title=" ">
<polygon fill="none" stroke="black" points="166,-0.5 166,-30.5 328,-30.5 328,-0.5 166,-0.5"/>
<text text-anchor="start" x="174" y="-18.5" font-family="Helvetica,sans-Serif" font-size="10.00">HMatrixVmultTaskParallel</text>
<text text-anchor="middle" x="247" y="-7.5" font-family="Helvetica,sans-Serif" font-size="10.00">&lt; spacedim, std::complex&lt; T &gt; &gt;</text>
</a>
</g>
</g>
<!-- Node0&#45;&gt;Node3 -->
<g id="edge3" class="edge">
<title>Node0&#45;&gt;Node3</title>
<path fill="none" stroke="midnightblue" d="M140.09,-44.33C157.03,-39.72 174.75,-34.89 190.75,-30.54"/>
<polygon fill="midnightblue" stroke="midnightblue" points="138.95,-41.01 130.22,-47.02 140.79,-47.77 138.95,-41.01"/>
</g>
</g>
</svg>
