<?xml version="1.0" encoding="UTF-8" standalone="no"?>
<!DOCTYPE svg PUBLIC "-//W3C//DTD SVG 1.1//EN"
 "http://www.w3.org/Graphics/SVG/1.1/DTD/svg11.dtd">
<!-- Generated by graphviz version 2.43.0 (0)
 -->
<!-- Title: Graphical Class Hierarchy Pages: 1 -->
<svg width="261pt" height="137pt"
 viewBox="0.00 0.00 261.00 137.00" xmlns="http://www.w3.org/2000/svg" xmlns:xlink="http://www.w3.org/1999/xlink">
<g id="graph0" class="graph" transform="scale(1 1) rotate(0) translate(4 133)">
<title>Graphical Class Hierarchy</title>
<!-- Node0 -->
<g id="node1" class="node">
<title>Node0</title>
<g id="a_node1"><a xlink:title=" ">
<polygon fill="none" stroke="#bfbfbf" points="0,-55 0,-74 98,-74 98,-55 0,-55"/>
<text text-anchor="middle" x="49" y="-62" font-family="Helvetica,sans-Serif" font-size="10.00">LAPACKFullMatrix</text>
</a>
</g>
</g>
<!-- Node1 -->
<g id="node2" class="node">
<title>Node1</title>
<g id="a_node2"><a xlink:href="classLAPACKFullMatrixExt.html" target="_top" xlink:title=" ">
<polygon fill="none" stroke="black" points="137,-98.5 137,-128.5 250,-128.5 250,-98.5 137,-98.5"/>
<text text-anchor="start" x="145" y="-116.5" font-family="Helvetica,sans-Serif" font-size="10.00">LAPACKFullMatrixExt</text>
<text text-anchor="middle" x="193.5" y="-105.5" font-family="Helvetica,sans-Serif" font-size="10.00">&lt; double &gt;</text>
</a>
</g>
</g>
<!-- Node0&#45;&gt;Node1 -->
<g id="edge1" class="edge">
<title>Node0&#45;&gt;Node1</title>
<path fill="none" stroke="midnightblue" d="M87.51,-77.4C106.31,-83.86 129.18,-91.73 148.77,-98.46"/>
<polygon fill="midnightblue" stroke="midnightblue" points="88.41,-74.01 77.81,-74.06 86.13,-80.63 88.41,-74.01"/>
</g>
<!-- Node2 -->
<g id="node3" class="node">
<title>Node2</title>
<g id="a_node3"><a xlink:href="classLAPACKFullMatrixExt.html" target="_top" xlink:title=" ">
<polygon fill="none" stroke="black" points="134,-49.5 134,-79.5 253,-79.5 253,-49.5 134,-49.5"/>
<text text-anchor="start" x="142" y="-67.5" font-family="Helvetica,sans-Serif" font-size="10.00">LAPACKFullMatrixExt</text>
<text text-anchor="middle" x="193.5" y="-56.5" font-family="Helvetica,sans-Serif" font-size="10.00">&lt; RangeNumberType &gt;</text>
</a>
</g>
</g>
<!-- Node0&#45;&gt;Node2 -->
<g id="edge2" class="edge">
<title>Node0&#45;&gt;Node2</title>
<path fill="none" stroke="midnightblue" d="M108.38,-64.5C116.81,-64.5 125.5,-64.5 133.94,-64.5"/>
<polygon fill="midnightblue" stroke="midnightblue" points="108.24,-61 98.24,-64.5 108.24,-68 108.24,-61"/>
</g>
<!-- Node3 -->
<g id="node4" class="node">
<title>Node3</title>
<g id="a_node4"><a xlink:href="classLAPACKFullMatrixExt.html" target="_top" xlink:title=" ">
<polygon fill="none" stroke="black" points="137,-0.5 137,-30.5 250,-30.5 250,-0.5 137,-0.5"/>
<text text-anchor="start" x="145" y="-18.5" font-family="Helvetica,sans-Serif" font-size="10.00">LAPACKFullMatrixExt</text>
<text text-anchor="middle" x="193.5" y="-7.5" font-family="Helvetica,sans-Serif" font-size="10.00">&lt; Number &gt;</text>
</a>
</g>
</g>
<!-- Node0&#45;&gt;Node3 -->
<g id="edge3" class="edge">
<title>Node0&#45;&gt;Node3</title>
<path fill="none" stroke="midnightblue" d="M87.51,-51.6C106.31,-45.14 129.18,-37.27 148.77,-30.54"/>
<polygon fill="midnightblue" stroke="midnightblue" points="86.13,-48.37 77.81,-54.94 88.41,-54.99 86.13,-48.37"/>
</g>
</g>
</svg>
