<?xml version="1.0" encoding="UTF-8" standalone="no"?>
<!DOCTYPE svg PUBLIC "-//W3C//DTD SVG 1.1//EN"
 "http://www.w3.org/Graphics/SVG/1.1/DTD/svg11.dtd">
<!-- Generated by graphviz version 2.43.0 (0)
 -->
<!-- Title: Graphical Class Hierarchy Pages: 1 -->
<svg width="307pt" height="137pt"
 viewBox="0.00 0.00 307.00 137.00" xmlns="http://www.w3.org/2000/svg" xmlns:xlink="http://www.w3.org/1999/xlink">
<g id="graph0" class="graph" transform="scale(1 1) rotate(0) translate(4 133)">
<title>Graphical Class Hierarchy</title>
<!-- Node0 -->
<g id="node1" class="node">
<title>Node0</title>
<g id="a_node1"><a xlink:href="classHMatrixVmultStrategy.html" target="_top" xlink:title=" ">
<polygon fill="none" stroke="black" points="0,-49.5 0,-79.5 117,-79.5 117,-49.5 0,-49.5"/>
<text text-anchor="start" x="8" y="-67.5" font-family="Helvetica,sans-Serif" font-size="10.00">HMatrixVmultStrategy</text>
<text text-anchor="middle" x="58.5" y="-56.5" font-family="Helvetica,sans-Serif" font-size="10.00">&lt; spacedim, Number &gt;</text>
</a>
</g>
</g>
<!-- Node1 -->
<g id="node2" class="node">
<title>Node1</title>
<g id="a_node2"><a xlink:href="classHMatrixVmultSerialIterative.html" target="_top" xlink:title=" ">
<polygon fill="none" stroke="black" points="157.5,-98.5 157.5,-128.5 294.5,-128.5 294.5,-98.5 157.5,-98.5"/>
<text text-anchor="start" x="165.5" y="-116.5" font-family="Helvetica,sans-Serif" font-size="10.00">HMatrixVmultSerialIterative</text>
<text text-anchor="middle" x="226" y="-105.5" font-family="Helvetica,sans-Serif" font-size="10.00">&lt; spacedim, Number &gt;</text>
</a>
</g>
</g>
<!-- Node0&#45;&gt;Node1 -->
<g id="edge1" class="edge">
<title>Node0&#45;&gt;Node1</title>
<path fill="none" stroke="midnightblue" d="M120.18,-82.47C137.92,-87.72 157.11,-93.4 174.16,-98.45"/>
<polygon fill="midnightblue" stroke="midnightblue" points="121.09,-79.08 110.51,-79.6 119.1,-85.8 121.09,-79.08"/>
</g>
<!-- Node2 -->
<g id="node3" class="node">
<title>Node2</title>
<g id="a_node3"><a xlink:href="classHMatrixVmultSerialRecursive.html" target="_top" xlink:title=" ">
<polygon fill="none" stroke="black" points="153,-49.5 153,-79.5 299,-79.5 299,-49.5 153,-49.5"/>
<text text-anchor="start" x="161" y="-67.5" font-family="Helvetica,sans-Serif" font-size="10.00">HMatrixVmultSerialRecursive</text>
<text text-anchor="middle" x="226" y="-56.5" font-family="Helvetica,sans-Serif" font-size="10.00">&lt; spacedim, Number &gt;</text>
</a>
</g>
</g>
<!-- Node0&#45;&gt;Node2 -->
<g id="edge2" class="edge">
<title>Node0&#45;&gt;Node2</title>
<path fill="none" stroke="midnightblue" d="M127.48,-64.5C135.86,-64.5 144.45,-64.5 152.89,-64.5"/>
<polygon fill="midnightblue" stroke="midnightblue" points="127.38,-61 117.38,-64.5 127.38,-68 127.38,-61"/>
</g>
<!-- Node3 -->
<g id="node4" class="node">
<title>Node3</title>
<g id="a_node4"><a xlink:href="classHMatrixVmultTaskParallel.html" target="_top" xlink:title=" ">
<polygon fill="none" stroke="black" points="161,-0.5 161,-30.5 291,-30.5 291,-0.5 161,-0.5"/>
<text text-anchor="start" x="169" y="-18.5" font-family="Helvetica,sans-Serif" font-size="10.00">HMatrixVmultTaskParallel</text>
<text text-anchor="middle" x="226" y="-7.5" font-family="Helvetica,sans-Serif" font-size="10.00">&lt; spacedim, Number &gt;</text>
</a>
</g>
</g>
<!-- Node0&#45;&gt;Node3 -->
<g id="edge3" class="edge">
<title>Node0&#45;&gt;Node3</title>
<path fill="none" stroke="midnightblue" d="M120.18,-46.53C137.92,-41.28 157.11,-35.6 174.16,-30.55"/>
<polygon fill="midnightblue" stroke="midnightblue" points="119.1,-43.2 110.51,-49.4 121.09,-49.92 119.1,-43.2"/>
</g>
</g>
</svg>
