<?xml version="1.0" encoding="UTF-8" standalone="no"?>
<!DOCTYPE svg PUBLIC "-//W3C//DTD SVG 1.1//EN"
 "http://www.w3.org/Graphics/SVG/1.1/DTD/svg11.dtd">
<!-- Generated by graphviz version 2.43.0 (0)
 -->
<!-- Title: Graphical Class Hierarchy Pages: 1 -->
<svg width="278pt" height="78pt"
 viewBox="0.00 0.00 278.00 77.50" xmlns="http://www.w3.org/2000/svg" xmlns:xlink="http://www.w3.org/1999/xlink">
<g id="graph0" class="graph" transform="scale(1 1) rotate(0) translate(4 73.5)">
<title>Graphical Class Hierarchy</title>
<!-- Node0 -->
<g id="node1" class="node">
<title>Node0</title>
<g id="a_node1"><a xlink:href="structdetail_1_1unformattable.html" target="_top" xlink:title=" ">
<polygon fill="none" stroke="black" points="0,-28 0,-47 105,-47 105,-28 0,-28"/>
<text text-anchor="middle" x="52.5" y="-35" font-family="Helvetica,sans-Serif" font-size="10.00">detail::unformattable</text>
</a>
</g>
</g>
<!-- Node1 -->
<g id="node2" class="node">
<title>Node1</title>
<g id="a_node2"><a xlink:href="structdetail_1_1unformattable__char.html" target="_top" xlink:title=" ">
<polygon fill="none" stroke="black" points="141,-50 141,-69 270,-69 270,-50 141,-50"/>
<text text-anchor="middle" x="205.5" y="-57" font-family="Helvetica,sans-Serif" font-size="10.00">detail::unformattable_char</text>
</a>
</g>
</g>
<!-- Node0&#45;&gt;Node1 -->
<g id="edge1" class="edge">
<title>Node0&#45;&gt;Node1</title>
<path fill="none" stroke="midnightblue" d="M114.94,-46.45C123.5,-47.7 132.31,-48.98 140.9,-50.23"/>
<polygon fill="midnightblue" stroke="midnightblue" points="115.44,-42.99 105.04,-45.01 114.43,-49.91 115.44,-42.99"/>
</g>
<!-- Node2 -->
<g id="node3" class="node">
<title>Node2</title>
<g id="a_node3"><a xlink:href="structdetail_1_1unformattable__pointer.html" target="_top" xlink:title=" ">
<polygon fill="none" stroke="black" points="153,-0.5 153,-30.5 258,-30.5 258,-0.5 153,-0.5"/>
<text text-anchor="start" x="161" y="-18.5" font-family="Helvetica,sans-Serif" font-size="10.00">detail::unformattable</text>
<text text-anchor="middle" x="205.5" y="-7.5" font-family="Helvetica,sans-Serif" font-size="10.00">_pointer</text>
</a>
</g>
</g>
<!-- Node0&#45;&gt;Node2 -->
<g id="edge2" class="edge">
<title>Node0&#45;&gt;Node2</title>
<path fill="none" stroke="midnightblue" d="M115,-28.54C127.6,-26.7 140.73,-24.79 152.93,-23.01"/>
<polygon fill="midnightblue" stroke="midnightblue" points="114.43,-25.09 105.04,-29.99 115.44,-32.01 114.43,-25.09"/>
</g>
</g>
</svg>
