<?xml version="1.0" encoding="UTF-8" standalone="no"?>
<!DOCTYPE svg PUBLIC "-//W3C//DTD SVG 1.1//EN"
 "http://www.w3.org/Graphics/SVG/1.1/DTD/svg11.dtd">
<!-- Generated by graphviz version 2.43.0 (0)
 -->
<!-- Title: Graphical Class Hierarchy Pages: 1 -->
<svg width="285pt" height="459pt"
 viewBox="0.00 0.00 285.00 459.00" xmlns="http://www.w3.org/2000/svg" xmlns:xlink="http://www.w3.org/1999/xlink">
<g id="graph0" class="graph" transform="scale(1 1) rotate(0) translate(4 455)">
<title>Graphical Class Hierarchy</title>
<!-- Node0 -->
<g id="node1" class="node">
<title>Node0</title>
<g id="a_node1"><a xlink:title=" ">
<polygon fill="none" stroke="#bfbfbf" points="0,-205 0,-224 110,-224 110,-205 0,-205"/>
<text text-anchor="middle" x="55" y="-212" font-family="Helvetica,sans-Serif" font-size="10.00">std::integral_constant</text>
</a>
</g>
</g>
<!-- Node1 -->
<g id="node2" class="node">
<title>Node1</title>
<g id="a_node2"><a xlink:href="structdetail_1_1is__range___3_01T_00_01void_01_4.html" target="_top" xlink:title=" ">
<polygon fill="none" stroke="black" points="164.5,-420.5 164.5,-450.5 258.5,-450.5 258.5,-420.5 164.5,-420.5"/>
<text text-anchor="start" x="172.5" y="-438.5" font-family="Helvetica,sans-Serif" font-size="10.00">detail::is_range_&lt;</text>
<text text-anchor="middle" x="211.5" y="-427.5" font-family="Helvetica,sans-Serif" font-size="10.00"> T, void &gt;</text>
</a>
</g>
</g>
<!-- Node0&#45;&gt;Node1 -->
<g id="edge1" class="edge">
<title>Node0&#45;&gt;Node1</title>
<path fill="none" stroke="midnightblue" d="M59.73,-234.1C68.15,-273.23 92.26,-361.51 146,-411.5 151.25,-416.38 157.58,-420.29 164.2,-423.42"/>
<polygon fill="midnightblue" stroke="midnightblue" points="63.14,-233.34 57.71,-224.24 56.28,-234.74 63.14,-233.34"/>
</g>
<!-- Node2 -->
<g id="node3" class="node">
<title>Node2</title>
<g id="a_node3"><a xlink:href="structdetail_1_1is__same__arithmetic__type.html" target="_top" xlink:title=" ">
<polygon fill="none" stroke="black" points="146,-371.5 146,-401.5 277,-401.5 277,-371.5 146,-371.5"/>
<text text-anchor="start" x="154" y="-389.5" font-family="Helvetica,sans-Serif" font-size="10.00">detail::is_same_arithmetic</text>
<text text-anchor="middle" x="211.5" y="-378.5" font-family="Helvetica,sans-Serif" font-size="10.00">_type&lt; Rep1, Rep2 &gt;</text>
</a>
</g>
</g>
<!-- Node0&#45;&gt;Node2 -->
<g id="edge2" class="edge">
<title>Node0&#45;&gt;Node2</title>
<path fill="none" stroke="midnightblue" d="M63,-234.08C75.15,-265.45 103.07,-327.04 146,-362.5 150.15,-365.92 154.83,-368.89 159.73,-371.44"/>
<polygon fill="midnightblue" stroke="midnightblue" points="66.13,-232.48 59.35,-224.33 59.58,-234.93 66.13,-232.48"/>
</g>
<!-- Node3 -->
<g id="node4" class="node">
<title>Node3</title>
<g id="a_node4"><a xlink:href="structdetail_1_1range__format__kind__.html" target="_top" xlink:title=" ">
<polygon fill="none" stroke="black" points="160,-322.5 160,-352.5 263,-352.5 263,-322.5 160,-322.5"/>
<text text-anchor="start" x="168" y="-340.5" font-family="Helvetica,sans-Serif" font-size="10.00">detail::range_format</text>
<text text-anchor="middle" x="211.5" y="-329.5" font-family="Helvetica,sans-Serif" font-size="10.00">_kind_&lt; T &gt;</text>
</a>
</g>
</g>
<!-- Node0&#45;&gt;Node3 -->
<g id="edge3" class="edge">
<title>Node0&#45;&gt;Node3</title>
<path fill="none" stroke="midnightblue" d="M68.16,-232.44C83.82,-254.34 113,-291.18 146,-313.5 150.95,-316.85 156.42,-319.8 162.03,-322.39"/>
<polygon fill="midnightblue" stroke="midnightblue" points="70.9,-230.25 62.3,-224.06 65.16,-234.26 70.9,-230.25"/>
</g>
<!-- Node4 -->
<g id="node5" class="node">
<title>Node4</title>
<g id="a_node5"><a xlink:href="structdetail_1_1type__constant.html" target="_top" xlink:title=" ">
<polygon fill="none" stroke="black" points="158,-273.5 158,-303.5 265,-303.5 265,-273.5 158,-273.5"/>
<text text-anchor="start" x="166" y="-291.5" font-family="Helvetica,sans-Serif" font-size="10.00">detail::type_constant</text>
<text text-anchor="middle" x="211.5" y="-280.5" font-family="Helvetica,sans-Serif" font-size="10.00">&lt; T, Char &gt;</text>
</a>
</g>
</g>
<!-- Node0&#45;&gt;Node4 -->
<g id="edge4" class="edge">
<title>Node0&#45;&gt;Node4</title>
<path fill="none" stroke="midnightblue" d="M80.17,-229.24C98,-239.79 123.05,-253.93 146,-264.5 152.73,-267.6 159.98,-270.61 167.11,-273.38"/>
<polygon fill="midnightblue" stroke="midnightblue" points="81.94,-226.22 71.56,-224.09 78.35,-232.23 81.94,-226.22"/>
</g>
<!-- Node5 -->
<g id="node6" class="node">
<title>Node5</title>
<g id="a_node6"><a xlink:href="structtype__rank_3_01complex_3_01double_01_4_01_4.html" target="_top" xlink:title=" ">
<polygon fill="none" stroke="black" points="159,-224.5 159,-254.5 264,-254.5 264,-224.5 159,-224.5"/>
<text text-anchor="start" x="167" y="-242.5" font-family="Helvetica,sans-Serif" font-size="10.00">type_rank&lt; complex</text>
<text text-anchor="middle" x="211.5" y="-231.5" font-family="Helvetica,sans-Serif" font-size="10.00">&lt; double &gt; &gt;</text>
</a>
</g>
</g>
<!-- Node0&#45;&gt;Node5 -->
<g id="edge5" class="edge">
<title>Node0&#45;&gt;Node5</title>
<path fill="none" stroke="midnightblue" d="M120.22,-224.89C133.09,-226.97 146.46,-229.14 158.83,-231.14"/>
<polygon fill="midnightblue" stroke="midnightblue" points="120.47,-221.39 110.04,-223.24 119.35,-228.3 120.47,-221.39"/>
</g>
<!-- Node6 -->
<g id="node7" class="node">
<title>Node6</title>
<g id="a_node7"><a xlink:href="structtype__rank_3_01complex_3_01float_01_4_01_4.html" target="_top" xlink:title=" ">
<polygon fill="none" stroke="black" points="159,-175.5 159,-205.5 264,-205.5 264,-175.5 159,-175.5"/>
<text text-anchor="start" x="167" y="-193.5" font-family="Helvetica,sans-Serif" font-size="10.00">type_rank&lt; complex</text>
<text text-anchor="middle" x="211.5" y="-182.5" font-family="Helvetica,sans-Serif" font-size="10.00">&lt; float &gt; &gt;</text>
</a>
</g>
</g>
<!-- Node0&#45;&gt;Node6 -->
<g id="edge6" class="edge">
<title>Node0&#45;&gt;Node6</title>
<path fill="none" stroke="midnightblue" d="M120.22,-204.52C133.09,-202.52 146.46,-200.45 158.83,-198.53"/>
<polygon fill="midnightblue" stroke="midnightblue" points="119.38,-201.11 110.04,-206.11 120.46,-208.03 119.38,-201.11"/>
</g>
<!-- Node7 -->
<g id="node8" class="node">
<title>Node7</title>
<g id="a_node8"><a xlink:href="structtype__rank_3_01double_01_4.html" target="_top" xlink:title=" ">
<polygon fill="none" stroke="black" points="158.5,-137 158.5,-156 264.5,-156 264.5,-137 158.5,-137"/>
<text text-anchor="middle" x="211.5" y="-144" font-family="Helvetica,sans-Serif" font-size="10.00">type_rank&lt; double &gt;</text>
</a>
</g>
</g>
<!-- Node0&#45;&gt;Node7 -->
<g id="edge7" class="edge">
<title>Node0&#45;&gt;Node7</title>
<path fill="none" stroke="midnightblue" d="M80.9,-199.57C98.63,-189.36 123.25,-175.99 146,-166.5 155.41,-162.57 165.88,-159 175.59,-156"/>
<polygon fill="midnightblue" stroke="midnightblue" points="78.68,-196.82 71.81,-204.88 82.21,-202.86 78.68,-196.82"/>
</g>
<!-- Node8 -->
<g id="node9" class="node">
<title>Node8</title>
<g id="a_node9"><a xlink:href="structtype__rank_3_01float_01_4.html" target="_top" xlink:title=" ">
<polygon fill="none" stroke="black" points="163.5,-99 163.5,-118 259.5,-118 259.5,-99 163.5,-99"/>
<text text-anchor="middle" x="211.5" y="-106" font-family="Helvetica,sans-Serif" font-size="10.00">type_rank&lt; float &gt;</text>
</a>
</g>
</g>
<!-- Node0&#45;&gt;Node8 -->
<g id="edge8" class="edge">
<title>Node0&#45;&gt;Node8</title>
<path fill="none" stroke="midnightblue" d="M69.63,-196.98C85.81,-177.32 114.59,-145.79 146,-127.5 152.56,-123.68 159.94,-120.58 167.31,-118.07"/>
<polygon fill="midnightblue" stroke="midnightblue" points="66.84,-194.86 63.3,-204.84 72.3,-199.24 66.84,-194.86"/>
</g>
<!-- Node9 -->
<g id="node10" class="node">
<title>Node9</title>
<g id="a_node10"><a xlink:href="structtype__rank_3_01std_1_1complex_3_01double_01_4_01_4.html" target="_top" xlink:title=" ">
<polygon fill="none" stroke="black" points="149,-49.5 149,-79.5 274,-79.5 274,-49.5 149,-49.5"/>
<text text-anchor="start" x="157" y="-67.5" font-family="Helvetica,sans-Serif" font-size="10.00">type_rank&lt; std::complex</text>
<text text-anchor="middle" x="211.5" y="-56.5" font-family="Helvetica,sans-Serif" font-size="10.00">&lt; double &gt; &gt;</text>
</a>
</g>
</g>
<!-- Node0&#45;&gt;Node9 -->
<g id="edge9" class="edge">
<title>Node0&#45;&gt;Node9</title>
<path fill="none" stroke="midnightblue" d="M65.02,-195.78C78.9,-168.78 107.92,-118.95 146,-89.5 150.94,-85.68 156.53,-82.38 162.31,-79.55"/>
<polygon fill="midnightblue" stroke="midnightblue" points="61.79,-194.41 60.45,-204.92 68.05,-197.53 61.79,-194.41"/>
</g>
<!-- Node10 -->
<g id="node11" class="node">
<title>Node10</title>
<g id="a_node11"><a xlink:href="structtype__rank_3_01std_1_1complex_3_01float_01_4_01_4.html" target="_top" xlink:title=" ">
<polygon fill="none" stroke="black" points="149,-0.5 149,-30.5 274,-30.5 274,-0.5 149,-0.5"/>
<text text-anchor="start" x="157" y="-18.5" font-family="Helvetica,sans-Serif" font-size="10.00">type_rank&lt; std::complex</text>
<text text-anchor="middle" x="211.5" y="-7.5" font-family="Helvetica,sans-Serif" font-size="10.00">&lt; float &gt; &gt;</text>
</a>
</g>
</g>
<!-- Node0&#45;&gt;Node10 -->
<g id="edge10" class="edge">
<title>Node0&#45;&gt;Node10</title>
<path fill="none" stroke="midnightblue" d="M61.08,-195.06C71.3,-159.57 97.61,-83.95 146,-40.5 150.29,-36.65 155.24,-33.36 160.45,-30.57"/>
<polygon fill="midnightblue" stroke="midnightblue" points="57.7,-194.13 58.42,-204.7 64.45,-196 57.7,-194.13"/>
</g>
</g>
</svg>
