<?xml version="1.0" encoding="UTF-8" standalone="no"?>
<!DOCTYPE svg PUBLIC "-//W3C//DTD SVG 1.1//EN"
 "http://www.w3.org/Graphics/SVG/1.1/DTD/svg11.dtd">
<!-- Generated by graphviz version 2.43.0 (0)
 -->
<!-- Title: Graphical Class Hierarchy Pages: 1 -->
<svg width="288pt" height="1692pt"
 viewBox="0.00 0.00 288.00 1692.00" xmlns="http://www.w3.org/2000/svg" xmlns:xlink="http://www.w3.org/1999/xlink">
<g id="graph0" class="graph" transform="scale(1 1) rotate(0) translate(4 1688)">
<title>Graphical Class Hierarchy</title>
<!-- Node0 -->
<g id="node1" class="node">
<title>Node0</title>
<g id="a_node1"><a xlink:title=" ">
<polygon fill="none" stroke="#bfbfbf" points="0,-666.5 0,-685.5 77,-685.5 77,-666.5 0,-666.5"/>
<text text-anchor="middle" x="38.5" y="-673.5" font-family="Helvetica,sans-Serif" font-size="10.00">std::true_type</text>
</a>
</g>
</g>
<!-- Node1 -->
<g id="node2" class="node">
<title>Node1</title>
<g id="a_node2"><a xlink:href="structconjunction.html" target="_top" xlink:title=" ">
<polygon fill="none" stroke="black" points="151.5,-1664.5 151.5,-1683.5 241.5,-1683.5 241.5,-1664.5 151.5,-1664.5"/>
<text text-anchor="middle" x="196.5" y="-1671.5" font-family="Helvetica,sans-Serif" font-size="10.00">conjunction&lt;... &gt;</text>
</a>
</g>
</g>
<!-- Node0&#45;&gt;Node1 -->
<g id="edge1" class="edge">
<title>Node0&#45;&gt;Node1</title>
<path fill="none" stroke="midnightblue" d="M39.6,-696.1C40.48,-829.12 48.25,-1579.62 113,-1655 122.48,-1666.04 136.97,-1671.38 151.17,-1673.78"/>
<polygon fill="midnightblue" stroke="midnightblue" points="43.1,-695.76 39.54,-685.78 36.1,-695.8 43.1,-695.76"/>
</g>
<!-- Node2 -->
<g id="node3" class="node">
<title>Node2</title>
<g id="a_node3"><a xlink:href="structdetail_1_1has__const__begin__end_3_01T_00_01void__t_3_01decltype_07_5detail_1_1range__begi3fdea6fe0a6f04ac399accc34a656190.html" target="_top" xlink:title=" ">
<polygon fill="none" stroke="black" points="118.5,-1560.5 118.5,-1645.5 274.5,-1645.5 274.5,-1560.5 118.5,-1560.5"/>
<text text-anchor="start" x="126.5" y="-1633.5" font-family="Helvetica,sans-Serif" font-size="10.00">detail::has_const_begin</text>
<text text-anchor="start" x="126.5" y="-1622.5" font-family="Helvetica,sans-Serif" font-size="10.00">_end&lt; T, void_t&lt; decltype</text>
<text text-anchor="start" x="126.5" y="-1611.5" font-family="Helvetica,sans-Serif" font-size="10.00">(*detail::range_begin(std</text>
<text text-anchor="start" x="126.5" y="-1600.5" font-family="Helvetica,sans-Serif" font-size="10.00">::declval&lt; const remove_cvref</text>
<text text-anchor="start" x="126.5" y="-1589.5" font-family="Helvetica,sans-Serif" font-size="10.00">_t&lt; T &gt; &amp; &gt;())), decltype(detail</text>
<text text-anchor="start" x="126.5" y="-1578.5" font-family="Helvetica,sans-Serif" font-size="10.00">::range_end(std::declval&lt; const</text>
<text text-anchor="middle" x="196.5" y="-1567.5" font-family="Helvetica,sans-Serif" font-size="10.00"> remove_cvref_t&lt; T &gt; &amp; &gt;()))&gt; &gt;</text>
</a>
</g>
</g>
<!-- Node0&#45;&gt;Node2 -->
<g id="edge2" class="edge">
<title>Node0&#45;&gt;Node2</title>
<path fill="none" stroke="midnightblue" d="M40.12,-696C44.07,-819.49 67.12,-1475.52 113,-1551 115.02,-1554.33 117.35,-1557.48 119.9,-1560.45"/>
<polygon fill="midnightblue" stroke="midnightblue" points="43.61,-695.63 39.79,-685.75 36.61,-695.85 43.61,-695.63"/>
</g>
<!-- Node3 -->
<g id="node4" class="node">
<title>Node3</title>
<g id="a_node4"><a xlink:href="structdetail_1_1has__flip_3_01T_00_01void__t_3_01decltype_07std_1_1declval_3_01T_01_4_07_08_8flip_07_08_08_4_01_4.html" target="_top" xlink:title=" ">
<polygon fill="none" stroke="black" points="135.5,-1500.5 135.5,-1541.5 257.5,-1541.5 257.5,-1500.5 135.5,-1500.5"/>
<text text-anchor="start" x="143.5" y="-1529.5" font-family="Helvetica,sans-Serif" font-size="10.00">detail::has_flip&lt; T,</text>
<text text-anchor="start" x="143.5" y="-1518.5" font-family="Helvetica,sans-Serif" font-size="10.00"> void_t&lt; decltype(std</text>
<text text-anchor="middle" x="196.5" y="-1507.5" font-family="Helvetica,sans-Serif" font-size="10.00">::declval&lt; T &gt;().flip())&gt; &gt;</text>
</a>
</g>
</g>
<!-- Node0&#45;&gt;Node3 -->
<g id="edge3" class="edge">
<title>Node0&#45;&gt;Node3</title>
<path fill="none" stroke="midnightblue" d="M40.03,-695.85C43.37,-814.41 62.95,-1425.97 113,-1491 118.76,-1498.49 126.57,-1504.11 135.1,-1508.33"/>
<polygon fill="midnightblue" stroke="midnightblue" points="43.53,-695.59 39.75,-685.69 36.53,-695.78 43.53,-695.59"/>
</g>
<!-- Node4 -->
<g id="node5" class="node">
<title>Node4</title>
<g id="a_node5"><a xlink:href="structdetail_1_1has__flockfile_3_01F_00_01void__t_3_01decltype_07flockfile_07_6std_1_1declval_3_2e2b51a4aaf5493302ae205fa6db8123.html" target="_top" xlink:title=" ">
<polygon fill="none" stroke="black" points="140,-1429 140,-1481 253,-1481 253,-1429 140,-1429"/>
<text text-anchor="start" x="148" y="-1469" font-family="Helvetica,sans-Serif" font-size="10.00">detail::has_flockfile</text>
<text text-anchor="start" x="148" y="-1458" font-family="Helvetica,sans-Serif" font-size="10.00">&lt; F, void_t&lt; decltype</text>
<text text-anchor="start" x="148" y="-1447" font-family="Helvetica,sans-Serif" font-size="10.00">(flockfile(&amp;std::declval</text>
<text text-anchor="middle" x="196.5" y="-1436" font-family="Helvetica,sans-Serif" font-size="10.00">&lt; F &amp; &gt;()))&gt; &gt;</text>
</a>
</g>
</g>
<!-- Node0&#45;&gt;Node4 -->
<g id="edge4" class="edge">
<title>Node0&#45;&gt;Node4</title>
<path fill="none" stroke="midnightblue" d="M40.27,-695.77C44.79,-807.66 69.18,-1358.77 113,-1419 119.71,-1428.22 129.3,-1435.12 139.59,-1440.25"/>
<polygon fill="midnightblue" stroke="midnightblue" points="43.76,-695.43 39.87,-685.58 36.77,-695.71 43.76,-695.43"/>
</g>
<!-- Node5 -->
<g id="node6" class="node">
<title>Node5</title>
<g id="a_node6"><a xlink:href="structdetail_1_1has__isfinite_3_01T_00_01enable__if__t_3_01sizeof_07std_1_1isfinite_07T_07_08_08_08_01_9_0a0_01_4_01_4.html" target="_top" xlink:title=" ">
<polygon fill="none" stroke="black" points="134.5,-1368.5 134.5,-1409.5 258.5,-1409.5 258.5,-1368.5 134.5,-1368.5"/>
<text text-anchor="start" x="142.5" y="-1397.5" font-family="Helvetica,sans-Serif" font-size="10.00">detail::has_isfinite</text>
<text text-anchor="start" x="142.5" y="-1386.5" font-family="Helvetica,sans-Serif" font-size="10.00">&lt; T, enable_if_t&lt; sizeof</text>
<text text-anchor="middle" x="196.5" y="-1375.5" font-family="Helvetica,sans-Serif" font-size="10.00">(std::isfinite(T())) !=0 &gt; &gt;</text>
</a>
</g>
</g>
<!-- Node0&#45;&gt;Node5 -->
<g id="edge5" class="edge">
<title>Node0&#45;&gt;Node5</title>
<path fill="none" stroke="midnightblue" d="M40.4,-695.86C45.38,-802.6 70.95,-1305.33 113,-1359 118.64,-1366.2 126.17,-1371.67 134.39,-1375.83"/>
<polygon fill="midnightblue" stroke="midnightblue" points="43.89,-695.64 39.93,-685.81 36.9,-695.96 43.89,-695.64"/>
</g>
<!-- Node6 -->
<g id="node7" class="node">
<title>Node6</title>
<g id="a_node7"><a xlink:href="structdetail_1_1has__member__data__tm__gmtoff_3_01T_00_01void__t_3_01decltype_07T_1_1tm__gmtoff_08_4_01_4.html" target="_top" xlink:title=" ">
<polygon fill="none" stroke="black" points="143.5,-1297 143.5,-1349 249.5,-1349 249.5,-1297 143.5,-1297"/>
<text text-anchor="start" x="151.5" y="-1337" font-family="Helvetica,sans-Serif" font-size="10.00">detail::has_member</text>
<text text-anchor="start" x="151.5" y="-1326" font-family="Helvetica,sans-Serif" font-size="10.00">_data_tm_gmtoff&lt; T,</text>
<text text-anchor="start" x="151.5" y="-1315" font-family="Helvetica,sans-Serif" font-size="10.00"> void_t&lt; decltype(T::</text>
<text text-anchor="middle" x="196.5" y="-1304" font-family="Helvetica,sans-Serif" font-size="10.00">tm_gmtoff)&gt; &gt;</text>
</a>
</g>
</g>
<!-- Node0&#45;&gt;Node6 -->
<g id="edge6" class="edge">
<title>Node0&#45;&gt;Node6</title>
<path fill="none" stroke="midnightblue" d="M39.32,-695.72C38.84,-789.56 41.08,-1190.3 113,-1287 120.55,-1297.16 131.59,-1304.49 143.14,-1309.77"/>
<polygon fill="midnightblue" stroke="midnightblue" points="42.82,-695.65 39.39,-685.63 35.82,-695.6 42.82,-695.65"/>
</g>
<!-- Node7 -->
<g id="node8" class="node">
<title>Node7</title>
<g id="a_node8"><a xlink:href="structdetail_1_1has__member__data__tm__zone_3_01T_00_01void__t_3_01decltype_07T_1_1tm__zone_08_4_01_4.html" target="_top" xlink:title=" ">
<polygon fill="none" stroke="black" points="126.5,-1236.5 126.5,-1277.5 266.5,-1277.5 266.5,-1236.5 126.5,-1236.5"/>
<text text-anchor="start" x="134.5" y="-1265.5" font-family="Helvetica,sans-Serif" font-size="10.00">detail::has_member</text>
<text text-anchor="start" x="134.5" y="-1254.5" font-family="Helvetica,sans-Serif" font-size="10.00">_data_tm_zone&lt; T, void</text>
<text text-anchor="middle" x="196.5" y="-1243.5" font-family="Helvetica,sans-Serif" font-size="10.00">_t&lt; decltype(T::tm_zone)&gt; &gt;</text>
</a>
</g>
</g>
<!-- Node0&#45;&gt;Node7 -->
<g id="edge7" class="edge">
<title>Node0&#45;&gt;Node7</title>
<path fill="none" stroke="midnightblue" d="M39.46,-695.85C39.65,-784.55 44.71,-1144 113,-1228 116.73,-1232.59 121.25,-1236.46 126.21,-1239.72"/>
<polygon fill="midnightblue" stroke="midnightblue" points="42.96,-695.58 39.45,-685.58 35.96,-695.59 42.96,-695.58"/>
</g>
<!-- Node8 -->
<g id="node9" class="node">
<title>Node8</title>
<g id="a_node9"><a xlink:href="structdetail_1_1has__member__fn__begin__end__t_3_01T_00_01void__t_3_01decltype_07_5std_1_1declva3d7d5769f495ccd114248c30bf219d62.html" target="_top" xlink:title=" ">
<polygon fill="none" stroke="black" points="135.5,-1144 135.5,-1218 257.5,-1218 257.5,-1144 135.5,-1144"/>
<text text-anchor="start" x="143.5" y="-1206" font-family="Helvetica,sans-Serif" font-size="10.00">detail::has_member</text>
<text text-anchor="start" x="143.5" y="-1195" font-family="Helvetica,sans-Serif" font-size="10.00">_fn_begin_end_t&lt; T,</text>
<text text-anchor="start" x="143.5" y="-1184" font-family="Helvetica,sans-Serif" font-size="10.00"> void_t&lt; decltype(*std</text>
<text text-anchor="start" x="143.5" y="-1173" font-family="Helvetica,sans-Serif" font-size="10.00">::declval&lt; T &gt;().begin</text>
<text text-anchor="start" x="143.5" y="-1162" font-family="Helvetica,sans-Serif" font-size="10.00">()), decltype(std::declval</text>
<text text-anchor="middle" x="196.5" y="-1151" font-family="Helvetica,sans-Serif" font-size="10.00">&lt; T &gt;().end())&gt; &gt;</text>
</a>
</g>
</g>
<!-- Node0&#45;&gt;Node8 -->
<g id="edge8" class="edge">
<title>Node0&#45;&gt;Node8</title>
<path fill="none" stroke="midnightblue" d="M40.45,-696.09C44.49,-774.77 62.5,-1061.13 113,-1134 118.82,-1142.4 126.66,-1149.49 135.2,-1155.41"/>
<polygon fill="midnightblue" stroke="midnightblue" points="43.92,-695.49 39.93,-685.68 36.93,-695.84 43.92,-695.49"/>
</g>
<!-- Node9 -->
<g id="node10" class="node">
<title>Node9</title>
<g id="a_node10"><a xlink:href="structdetail_1_1has__mutable__begin__end_3_01T_00_01void__t_3_01decltype_07_5detail_1_1range__be7f2bf1942599b08adc3d302a1be62e3f.html" target="_top" xlink:title=" ">
<polygon fill="none" stroke="black" points="129,-1039.5 129,-1124.5 264,-1124.5 264,-1039.5 129,-1039.5"/>
<text text-anchor="start" x="137" y="-1112.5" font-family="Helvetica,sans-Serif" font-size="10.00">detail::has_mutable</text>
<text text-anchor="start" x="137" y="-1101.5" font-family="Helvetica,sans-Serif" font-size="10.00">_begin_end&lt; T, void</text>
<text text-anchor="start" x="137" y="-1090.5" font-family="Helvetica,sans-Serif" font-size="10.00">_t&lt; decltype(*detail</text>
<text text-anchor="start" x="137" y="-1079.5" font-family="Helvetica,sans-Serif" font-size="10.00">::range_begin(std::declval</text>
<text text-anchor="start" x="137" y="-1068.5" font-family="Helvetica,sans-Serif" font-size="10.00">&lt; T &amp; &gt;())), decltype(detail</text>
<text text-anchor="start" x="137" y="-1057.5" font-family="Helvetica,sans-Serif" font-size="10.00">::range_end(std::declval&lt; T</text>
<text text-anchor="middle" x="196.5" y="-1046.5" font-family="Helvetica,sans-Serif" font-size="10.00"> &amp; &gt;())), int &gt; &gt;</text>
</a>
</g>
</g>
<!-- Node0&#45;&gt;Node9 -->
<g id="edge9" class="edge">
<title>Node0&#45;&gt;Node9</title>
<path fill="none" stroke="midnightblue" d="M41.58,-695.99C48.82,-762.38 74.52,-974.54 113,-1030 117.44,-1036.4 122.95,-1042.18 129,-1047.35"/>
<polygon fill="midnightblue" stroke="midnightblue" points="45.02,-695.24 40.48,-685.67 38.06,-695.98 45.02,-695.24"/>
</g>
<!-- Node10 -->
<g id="node11" class="node">
<title>Node10</title>
<g id="a_node11"><a xlink:href="structdetail_1_1has__to__string__view_3_01T_00_01void__t_3_01decltype_07detail_1_1to__string__via2b2866f7fc9fb7752b163dce36cc145.html" target="_top" xlink:title=" ">
<polygon fill="none" stroke="black" points="129.5,-968 129.5,-1020 263.5,-1020 263.5,-968 129.5,-968"/>
<text text-anchor="start" x="137.5" y="-1008" font-family="Helvetica,sans-Serif" font-size="10.00">detail::has_to_string</text>
<text text-anchor="start" x="137.5" y="-997" font-family="Helvetica,sans-Serif" font-size="10.00">_view&lt; T, void_t&lt; decltype</text>
<text text-anchor="start" x="137.5" y="-986" font-family="Helvetica,sans-Serif" font-size="10.00">(detail::to_string_view(std</text>
<text text-anchor="middle" x="196.5" y="-975" font-family="Helvetica,sans-Serif" font-size="10.00">::declval&lt; T &gt;()))&gt; &gt;</text>
</a>
</g>
</g>
<!-- Node0&#45;&gt;Node10 -->
<g id="edge10" class="edge">
<title>Node0&#45;&gt;Node10</title>
<path fill="none" stroke="midnightblue" d="M39,-695.82C38.78,-746.09 45.01,-880.2 113,-959 117.68,-964.42 123.33,-969.02 129.47,-972.92"/>
<polygon fill="midnightblue" stroke="midnightblue" points="42.5,-695.71 39.14,-685.66 35.5,-695.61 42.5,-695.71"/>
</g>
<!-- Node11 -->
<g id="node12" class="node">
<title>Node11</title>
<g id="a_node12"><a xlink:href="structdetail_1_1is__back__insert__iterator_3_01It_00_01bool__constant_3_01std_1_1is__same_3_01de2e5d6fff63151d2f6c9d619c9ef6d40a.html" target="_top" xlink:title=" ">
<polygon fill="none" stroke="black" points="113,-875 113,-949 280,-949 280,-875 113,-875"/>
<text text-anchor="start" x="121" y="-937" font-family="Helvetica,sans-Serif" font-size="10.00">detail::is_back_insert</text>
<text text-anchor="start" x="121" y="-926" font-family="Helvetica,sans-Serif" font-size="10.00">_iterator&lt; It, bool_constant</text>
<text text-anchor="start" x="121" y="-915" font-family="Helvetica,sans-Serif" font-size="10.00">&lt; std::is_same&lt; decltype(adl</text>
<text text-anchor="start" x="121" y="-904" font-family="Helvetica,sans-Serif" font-size="10.00">::invoke_back_inserter&lt; typename</text>
<text text-anchor="start" x="121" y="-893" font-family="Helvetica,sans-Serif" font-size="10.00"> It::container_type &gt;()), It &gt;</text>
<text text-anchor="middle" x="196.5" y="-882" font-family="Helvetica,sans-Serif" font-size="10.00">::value &gt; &gt;</text>
</a>
</g>
</g>
<!-- Node0&#45;&gt;Node11 -->
<g id="edge11" class="edge">
<title>Node0&#45;&gt;Node11</title>
<path fill="none" stroke="midnightblue" d="M42.69,-695.86C49.55,-732.99 68.81,-813.79 113,-865 116.02,-868.49 119.36,-871.79 122.92,-874.88"/>
<polygon fill="midnightblue" stroke="midnightblue" points="46.11,-695.08 40.95,-685.82 39.21,-696.27 46.11,-695.08"/>
</g>
<!-- Node12 -->
<g id="node13" class="node">
<title>Node12</title>
<g id="a_node13"><a xlink:href="structdetail_1_1is__back__insert__iterator_3_01basic__appender_3_01T_01_4_01_4.html" target="_top" xlink:title=" ">
<polygon fill="none" stroke="black" points="132,-814.5 132,-855.5 261,-855.5 261,-814.5 132,-814.5"/>
<text text-anchor="start" x="140" y="-843.5" font-family="Helvetica,sans-Serif" font-size="10.00">detail::is_back_insert</text>
<text text-anchor="start" x="140" y="-832.5" font-family="Helvetica,sans-Serif" font-size="10.00">_iterator&lt; basic_appender</text>
<text text-anchor="middle" x="196.5" y="-821.5" font-family="Helvetica,sans-Serif" font-size="10.00">&lt; T &gt; &gt;</text>
</a>
</g>
</g>
<!-- Node0&#45;&gt;Node12 -->
<g id="edge12" class="edge">
<title>Node0&#45;&gt;Node12</title>
<path fill="none" stroke="midnightblue" d="M45.7,-695.4C55.58,-723.41 77.52,-775.07 113,-805 118.59,-809.72 124.99,-813.72 131.69,-817.11"/>
<polygon fill="midnightblue" stroke="midnightblue" points="48.9,-693.96 42.39,-685.61 42.27,-696.2 48.9,-693.96"/>
</g>
<!-- Node13 -->
<g id="node14" class="node">
<title>Node13</title>
<g id="a_node14"><a xlink:href="structdetail_1_1is__buffer__appender_3_01It_00_01bool__constant_3_01is__back__insert__iterator_31014ad756ec92630ad9dc2a85ea12ced.html" target="_top" xlink:title=" ">
<polygon fill="none" stroke="black" points="116,-710.5 116,-795.5 277,-795.5 277,-710.5 116,-710.5"/>
<text text-anchor="start" x="124" y="-783.5" font-family="Helvetica,sans-Serif" font-size="10.00">detail::is_buffer_appender</text>
<text text-anchor="start" x="124" y="-772.5" font-family="Helvetica,sans-Serif" font-size="10.00">&lt; It, bool_constant&lt; is</text>
<text text-anchor="start" x="124" y="-761.5" font-family="Helvetica,sans-Serif" font-size="10.00">_back_insert_iterator&lt; It</text>
<text text-anchor="start" x="124" y="-750.5" font-family="Helvetica,sans-Serif" font-size="10.00"> &gt;::value &amp;&amp;std::is_base_of</text>
<text text-anchor="start" x="124" y="-739.5" font-family="Helvetica,sans-Serif" font-size="10.00">&lt; buffer&lt; typename It::container</text>
<text text-anchor="start" x="124" y="-728.5" font-family="Helvetica,sans-Serif" font-size="10.00">_type::value_type &gt;, typename It</text>
<text text-anchor="middle" x="196.5" y="-717.5" font-family="Helvetica,sans-Serif" font-size="10.00">::container_type &gt;::value &gt; &gt;</text>
</a>
</g>
</g>
<!-- Node0&#45;&gt;Node13 -->
<g id="edge13" class="edge">
<title>Node0&#45;&gt;Node13</title>
<path fill="none" stroke="midnightblue" d="M68.2,-690.17C81.81,-696.88 98.8,-705.27 115.9,-713.71"/>
<polygon fill="midnightblue" stroke="midnightblue" points="69.46,-686.88 58.94,-685.6 66.36,-693.16 69.46,-686.88"/>
</g>
<!-- Node14 -->
<g id="node15" class="node">
<title>Node14</title>
<g id="a_node15"><a xlink:href="structdetail_1_1is__integral_3_01int128__opt_01_4.html" target="_top" xlink:title=" ">
<polygon fill="none" stroke="black" points="151.5,-661 151.5,-691 241.5,-691 241.5,-661 151.5,-661"/>
<text text-anchor="start" x="159.5" y="-679" font-family="Helvetica,sans-Serif" font-size="10.00">detail::is_integral</text>
<text text-anchor="middle" x="196.5" y="-668" font-family="Helvetica,sans-Serif" font-size="10.00">&lt; int128_opt &gt;</text>
</a>
</g>
</g>
<!-- Node0&#45;&gt;Node14 -->
<g id="edge14" class="edge">
<title>Node0&#45;&gt;Node14</title>
<path fill="none" stroke="midnightblue" d="M87.31,-676C107.74,-676 131.45,-676 151.45,-676"/>
<polygon fill="midnightblue" stroke="midnightblue" points="87.26,-672.5 77.26,-676 87.26,-679.5 87.26,-672.5"/>
</g>
<!-- Node15 -->
<g id="node16" class="node">
<title>Node15</title>
<g id="a_node16"><a xlink:href="structdetail_1_1is__integral_3_01uint128__t_01_4.html" target="_top" xlink:title=" ">
<polygon fill="none" stroke="black" points="151.5,-612 151.5,-642 241.5,-642 241.5,-612 151.5,-612"/>
<text text-anchor="start" x="159.5" y="-630" font-family="Helvetica,sans-Serif" font-size="10.00">detail::is_integral</text>
<text text-anchor="middle" x="196.5" y="-619" font-family="Helvetica,sans-Serif" font-size="10.00">&lt; uint128_t &gt;</text>
</a>
</g>
</g>
<!-- Node0&#45;&gt;Node15 -->
<g id="edge15" class="edge">
<title>Node0&#45;&gt;Node15</title>
<path fill="none" stroke="midnightblue" d="M78,-663.26C89.26,-659.58 101.61,-655.58 113,-652 125.42,-648.09 138.93,-643.95 151.35,-640.19"/>
<polygon fill="midnightblue" stroke="midnightblue" points="76.84,-659.95 68.43,-666.4 79.02,-666.61 76.84,-659.95"/>
</g>
<!-- Node16 -->
<g id="node17" class="node">
<title>Node16</title>
<g id="a_node17"><a xlink:href="structdetail_1_1is__named__arg_3_01named__arg_3_01Char_00_01T_01_4_01_4.html" target="_top" xlink:title=" ">
<polygon fill="none" stroke="black" points="130,-563 130,-593 263,-593 263,-563 130,-563"/>
<text text-anchor="start" x="138" y="-581" font-family="Helvetica,sans-Serif" font-size="10.00">detail::is_named_arg</text>
<text text-anchor="middle" x="196.5" y="-570" font-family="Helvetica,sans-Serif" font-size="10.00">&lt; named_arg&lt; Char, T &gt; &gt;</text>
</a>
</g>
</g>
<!-- Node0&#45;&gt;Node16 -->
<g id="edge16" class="edge">
<title>Node0&#45;&gt;Node16</title>
<path fill="none" stroke="midnightblue" d="M53.11,-658.16C66.62,-641.63 88.76,-617.47 113,-603 119.43,-599.16 126.49,-595.87 133.69,-593.06"/>
<polygon fill="midnightblue" stroke="midnightblue" points="50.01,-656.45 46.54,-666.46 55.49,-660.8 50.01,-656.45"/>
</g>
<!-- Node17 -->
<g id="node18" class="node">
<title>Node17</title>
<g id="a_node18"><a xlink:href="structdetail_1_1is__output__iterator_3_01It_00_01T_00_01void__t_3_01decltype_07_5std_1_1declval_dd541b606aadb2a92c3d38266db7be49.html" target="_top" xlink:title=" ">
<polygon fill="none" stroke="black" points="133.5,-492 133.5,-544 259.5,-544 259.5,-492 133.5,-492"/>
<text text-anchor="start" x="141.5" y="-532" font-family="Helvetica,sans-Serif" font-size="10.00">detail::is_output_iterator</text>
<text text-anchor="start" x="141.5" y="-521" font-family="Helvetica,sans-Serif" font-size="10.00">&lt; It, T, void_t&lt; decltype</text>
<text text-anchor="start" x="141.5" y="-510" font-family="Helvetica,sans-Serif" font-size="10.00">(*std::declval&lt; It &amp; &gt;()+</text>
<text text-anchor="middle" x="196.5" y="-499" font-family="Helvetica,sans-Serif" font-size="10.00">+=std::declval&lt; T &gt;())&gt; &gt;</text>
</a>
</g>
</g>
<!-- Node0&#45;&gt;Node17 -->
<g id="edge17" class="edge">
<title>Node0&#45;&gt;Node17</title>
<path fill="none" stroke="midnightblue" d="M46.68,-656.8C57.42,-630.42 80,-582.95 113,-554 119.11,-548.64 126.14,-543.97 133.47,-539.94"/>
<polygon fill="midnightblue" stroke="midnightblue" points="43.31,-655.81 42.92,-666.4 49.83,-658.37 43.31,-655.81"/>
</g>
<!-- Node18 -->
<g id="node19" class="node">
<title>Node18</title>
<g id="a_node19"><a xlink:href="structdetail_1_1is__output__iterator_3_01appender_00_01char_01_4.html" target="_top" xlink:title=" ">
<polygon fill="none" stroke="black" points="136,-443 136,-473 257,-473 257,-443 136,-443"/>
<text text-anchor="start" x="144" y="-461" font-family="Helvetica,sans-Serif" font-size="10.00">detail::is_output_iterator</text>
<text text-anchor="middle" x="196.5" y="-450" font-family="Helvetica,sans-Serif" font-size="10.00">&lt; appender, char &gt;</text>
</a>
</g>
</g>
<!-- Node0&#45;&gt;Node18 -->
<g id="edge18" class="edge">
<title>Node0&#45;&gt;Node18</title>
<path fill="none" stroke="midnightblue" d="M41.34,-656.34C46.02,-617.51 61.93,-530.63 113,-483 119.46,-476.98 127.32,-472.4 135.6,-468.93"/>
<polygon fill="midnightblue" stroke="midnightblue" points="37.85,-656.03 40.25,-666.35 44.81,-656.78 37.85,-656.03"/>
</g>
<!-- Node19 -->
<g id="node20" class="node">
<title>Node19</title>
<g id="a_node20"><a xlink:href="structdetail_1_1is__reference__wrapper_3_01std_1_1reference__wrapper_3_01T_01_4_01_4.html" target="_top" xlink:title=" ">
<polygon fill="none" stroke="black" points="134,-382.5 134,-423.5 259,-423.5 259,-382.5 134,-382.5"/>
<text text-anchor="start" x="142" y="-411.5" font-family="Helvetica,sans-Serif" font-size="10.00">detail::is_reference</text>
<text text-anchor="start" x="142" y="-400.5" font-family="Helvetica,sans-Serif" font-size="10.00">_wrapper&lt; std::reference</text>
<text text-anchor="middle" x="196.5" y="-389.5" font-family="Helvetica,sans-Serif" font-size="10.00">_wrapper&lt; T &gt; &gt;</text>
</a>
</g>
</g>
<!-- Node0&#45;&gt;Node19 -->
<g id="edge19" class="edge">
<title>Node0&#45;&gt;Node19</title>
<path fill="none" stroke="midnightblue" d="M39.86,-656.18C41.76,-610.82 52.65,-498.38 113,-434 118.86,-427.75 126.1,-422.75 133.85,-418.75"/>
<polygon fill="midnightblue" stroke="midnightblue" points="36.36,-656.1 39.55,-666.2 43.36,-656.32 36.36,-656.1"/>
</g>
<!-- Node20 -->
<g id="node21" class="node">
<title>Node20</title>
<g id="a_node21"><a xlink:href="structdetail_1_1locking.html" target="_top" xlink:title=" ">
<polygon fill="none" stroke="black" points="150,-333 150,-363 243,-363 243,-333 150,-333"/>
<text text-anchor="start" x="158" y="-351" font-family="Helvetica,sans-Serif" font-size="10.00">detail::locking&lt; T,</text>
<text text-anchor="middle" x="196.5" y="-340" font-family="Helvetica,sans-Serif" font-size="10.00"> Enable &gt;</text>
</a>
</g>
</g>
<!-- Node0&#45;&gt;Node20 -->
<g id="edge20" class="edge">
<title>Node0&#45;&gt;Node20</title>
<path fill="none" stroke="midnightblue" d="M41.74,-656.19C48.97,-595.67 73.53,-414.76 113,-373 122.66,-362.78 136.35,-356.69 149.81,-353.08"/>
<polygon fill="midnightblue" stroke="midnightblue" points="38.24,-655.99 40.56,-666.32 45.2,-656.8 38.24,-655.99"/>
</g>
<!-- Node21 -->
<g id="node22" class="node">
<title>Node21</title>
<g id="a_node22"><a xlink:href="structis__char_3_01char_01_4.html" target="_top" xlink:title=" ">
<polygon fill="none" stroke="black" points="154,-294.5 154,-313.5 239,-313.5 239,-294.5 154,-294.5"/>
<text text-anchor="middle" x="196.5" y="-301.5" font-family="Helvetica,sans-Serif" font-size="10.00">is_char&lt; char &gt;</text>
</a>
</g>
</g>
<!-- Node0&#45;&gt;Node21 -->
<g id="edge21" class="edge">
<title>Node0&#45;&gt;Node21</title>
<path fill="none" stroke="midnightblue" d="M40.89,-656.46C46.02,-589.74 66.09,-372.43 113,-324 123.56,-313.1 138.98,-307.73 153.64,-305.21"/>
<polygon fill="midnightblue" stroke="midnightblue" points="37.39,-656.23 40.14,-666.46 44.37,-656.75 37.39,-656.23"/>
</g>
<!-- Node22 -->
<g id="node23" class="node">
<title>Node22</title>
<g id="a_node23"><a xlink:href="structis__char_3_01char16__t_01_4.html" target="_top" xlink:title=" ">
<polygon fill="none" stroke="black" points="144.5,-256.5 144.5,-275.5 248.5,-275.5 248.5,-256.5 144.5,-256.5"/>
<text text-anchor="middle" x="196.5" y="-263.5" font-family="Helvetica,sans-Serif" font-size="10.00">is_char&lt; char16_t &gt;</text>
</a>
</g>
</g>
<!-- Node0&#45;&gt;Node22 -->
<g id="edge22" class="edge">
<title>Node0&#45;&gt;Node22</title>
<path fill="none" stroke="midnightblue" d="M40.44,-656.17C44.24,-584.37 60.88,-339.27 113,-285 121.25,-276.41 132.53,-271.36 144.11,-268.46"/>
<polygon fill="midnightblue" stroke="midnightblue" points="36.93,-656.33 39.92,-666.49 43.92,-656.68 36.93,-656.33"/>
</g>
<!-- Node23 -->
<g id="node24" class="node">
<title>Node23</title>
<g id="a_node24"><a xlink:href="structis__char_3_01char32__t_01_4.html" target="_top" xlink:title=" ">
<polygon fill="none" stroke="black" points="144.5,-218.5 144.5,-237.5 248.5,-237.5 248.5,-218.5 144.5,-218.5"/>
<text text-anchor="middle" x="196.5" y="-225.5" font-family="Helvetica,sans-Serif" font-size="10.00">is_char&lt; char32_t &gt;</text>
</a>
</g>
</g>
<!-- Node0&#45;&gt;Node23 -->
<g id="edge23" class="edge">
<title>Node0&#45;&gt;Node23</title>
<path fill="none" stroke="midnightblue" d="M40.07,-656.23C42.7,-580.13 55.99,-307.34 113,-247 121.28,-238.24 132.72,-233.14 144.44,-230.26"/>
<polygon fill="midnightblue" stroke="midnightblue" points="36.57,-656.23 39.75,-666.34 43.57,-656.46 36.57,-656.23"/>
</g>
<!-- Node24 -->
<g id="node25" class="node">
<title>Node24</title>
<g id="a_node25"><a xlink:href="structis__char_3_01wchar__t_01_4.html" target="_top" xlink:title=" ">
<polygon fill="none" stroke="black" points="146,-180.5 146,-199.5 247,-199.5 247,-180.5 146,-180.5"/>
<text text-anchor="middle" x="196.5" y="-187.5" font-family="Helvetica,sans-Serif" font-size="10.00">is_char&lt; wchar_t &gt;</text>
</a>
</g>
</g>
<!-- Node0&#45;&gt;Node24 -->
<g id="edge24" class="edge">
<title>Node0&#45;&gt;Node24</title>
<path fill="none" stroke="midnightblue" d="M39.78,-656.06C41.3,-575.51 51.13,-275.38 113,-209 121.52,-199.86 133.48,-194.7 145.65,-191.87"/>
<polygon fill="midnightblue" stroke="midnightblue" points="36.27,-656.24 39.61,-666.29 43.27,-656.35 36.27,-656.24"/>
</g>
<!-- Node25 -->
<g id="node26" class="node">
<title>Node25</title>
<g id="a_node26"><a xlink:href="structis__contiguous_3_01basic__memory__buffer_3_01T_00_01SIZE_00_01Allocator_01_4_01_4.html" target="_top" xlink:title=" ">
<polygon fill="none" stroke="black" points="131,-120.5 131,-161.5 262,-161.5 262,-120.5 131,-120.5"/>
<text text-anchor="start" x="139" y="-149.5" font-family="Helvetica,sans-Serif" font-size="10.00">is_contiguous&lt; basic</text>
<text text-anchor="start" x="139" y="-138.5" font-family="Helvetica,sans-Serif" font-size="10.00">_memory_buffer&lt; T, SIZE,</text>
<text text-anchor="middle" x="196.5" y="-127.5" font-family="Helvetica,sans-Serif" font-size="10.00"> Allocator &gt; &gt;</text>
</a>
</g>
</g>
<!-- Node0&#45;&gt;Node25 -->
<g id="edge25" class="edge">
<title>Node0&#45;&gt;Node25</title>
<path fill="none" stroke="midnightblue" d="M39.75,-656.28C41.19,-572.58 50.76,-247.45 113,-171 117.91,-164.97 124.13,-160.16 130.96,-156.31"/>
<polygon fill="midnightblue" stroke="midnightblue" points="36.25,-656.39 39.6,-666.44 43.25,-656.5 36.25,-656.39"/>
</g>
<!-- Node26 -->
<g id="node27" class="node">
<title>Node26</title>
<g id="a_node27"><a xlink:href="structis__contiguous_3_01std_1_1basic__string_3_01Char_00_01Traits_00_01Allocator_01_4_01_4.html" target="_top" xlink:title=" ">
<polygon fill="none" stroke="black" points="142.5,-60.5 142.5,-101.5 250.5,-101.5 250.5,-60.5 142.5,-60.5"/>
<text text-anchor="start" x="150.5" y="-89.5" font-family="Helvetica,sans-Serif" font-size="10.00">is_contiguous&lt; std</text>
<text text-anchor="start" x="150.5" y="-78.5" font-family="Helvetica,sans-Serif" font-size="10.00">::basic_string&lt; Char,</text>
<text text-anchor="middle" x="196.5" y="-67.5" font-family="Helvetica,sans-Serif" font-size="10.00"> Traits, Allocator &gt; &gt;</text>
</a>
</g>
</g>
<!-- Node0&#45;&gt;Node26 -->
<g id="edge26" class="edge">
<title>Node0&#45;&gt;Node26</title>
<path fill="none" stroke="midnightblue" d="M39.41,-655.99C39.4,-565.76 43.66,-197.51 113,-111 120.43,-101.72 131,-95.32 142.09,-90.89"/>
<polygon fill="midnightblue" stroke="midnightblue" points="35.91,-656.21 39.43,-666.2 42.91,-656.19 35.91,-656.21"/>
</g>
<!-- Node27 -->
<g id="node28" class="node">
<title>Node27</title>
<g id="a_node28"><a xlink:href="structnumbers_1_1is__cuda__compatible_3_01HierBEM_1_1complex_3_01Number_01_4_00_01void_01_4.html" target="_top" xlink:title=" ">
<polygon fill="none" stroke="black" points="120.5,-0.5 120.5,-41.5 272.5,-41.5 272.5,-0.5 120.5,-0.5"/>
<text text-anchor="start" x="128.5" y="-29.5" font-family="Helvetica,sans-Serif" font-size="10.00">numbers::is_cuda_compatible</text>
<text text-anchor="start" x="128.5" y="-18.5" font-family="Helvetica,sans-Serif" font-size="10.00">&lt; HierBEM::complex&lt; Number</text>
<text text-anchor="middle" x="196.5" y="-7.5" font-family="Helvetica,sans-Serif" font-size="10.00"> &gt;, void &gt;</text>
</a>
</g>
</g>
<!-- Node0&#45;&gt;Node27 -->
<g id="edge27" class="edge">
<title>Node0&#45;&gt;Node27</title>
<path fill="none" stroke="midnightblue" d="M39.13,-656.02C37.76,-560.13 36.44,-147.73 113,-51 115.74,-47.53 118.92,-44.47 122.41,-41.76"/>
<polygon fill="midnightblue" stroke="midnightblue" points="35.63,-656.16 39.29,-666.1 42.63,-656.05 35.63,-656.16"/>
</g>
</g>
</svg>
