<?xml version="1.0" encoding="UTF-8" standalone="no"?>
<!DOCTYPE svg PUBLIC "-//W3C//DTD SVG 1.1//EN"
 "http://www.w3.org/Graphics/SVG/1.1/DTD/svg11.dtd">
<!-- Generated by graphviz version 2.43.0 (0)
 -->
<!-- Title: Graphical Class Hierarchy Pages: 1 -->
<svg width="306pt" height="132pt"
 viewBox="0.00 0.00 306.00 132.00" xmlns="http://www.w3.org/2000/svg" xmlns:xlink="http://www.w3.org/1999/xlink">
<g id="graph0" class="graph" transform="scale(1 1) rotate(0) translate(4 128)">
<title>Graphical Class Hierarchy</title>
<!-- Node0 -->
<g id="node1" class="node">
<title>Node0</title>
<g id="a_node1"><a xlink:title=" ">
<polygon fill="none" stroke="#bfbfbf" points="0,-52 0,-71 66,-71 66,-52 0,-52"/>
<text text-anchor="middle" x="33" y="-59" font-family="Helvetica,sans-Serif" font-size="10.00">Subscriptor</text>
</a>
</g>
</g>
<!-- Node1 -->
<g id="node2" class="node">
<title>Node1</title>
<g id="a_node2"><a xlink:href="classOperatorPreconditioner_1_1MassMatrixTransposeTriple.html" target="_top" xlink:title="This class encapsulates the transpose of the product of three matrices: , which is actually .">
<polygon fill="none" stroke="black" points="102,-71.5 102,-123.5 298,-123.5 298,-71.5 102,-71.5"/>
<text text-anchor="start" x="110" y="-111.5" font-family="Helvetica,sans-Serif" font-size="10.00">OperatorPreconditioner</text>
<text text-anchor="start" x="110" y="-100.5" font-family="Helvetica,sans-Serif" font-size="10.00">&lt; dim, spacedim, KernelFunction</text>
<text text-anchor="start" x="110" y="-89.5" font-family="Helvetica,sans-Serif" font-size="10.00">Type, RangeNumberType, KernelNumber</text>
<text text-anchor="middle" x="200" y="-78.5" font-family="Helvetica,sans-Serif" font-size="10.00">Type &gt;::MassMatrixTransposeTriple</text>
</a>
</g>
</g>
<!-- Node0&#45;&gt;Node1 -->
<g id="edge1" class="edge">
<title>Node0&#45;&gt;Node1</title>
<path fill="none" stroke="midnightblue" d="M75.99,-70.66C84.03,-72.42 92.76,-74.32 101.72,-76.28"/>
<polygon fill="midnightblue" stroke="midnightblue" points="76.72,-67.24 66.21,-68.53 75.23,-74.08 76.72,-67.24"/>
</g>
<!-- Node2 -->
<g id="node3" class="node">
<title>Node2</title>
<g id="a_node3"><a xlink:href="classOperatorPreconditioner_1_1MassMatrixTriple.html" target="_top" xlink:title="This class encapsulates the product of three matrices: .">
<polygon fill="none" stroke="black" points="102,-0.5 102,-52.5 298,-52.5 298,-0.5 102,-0.5"/>
<text text-anchor="start" x="110" y="-40.5" font-family="Helvetica,sans-Serif" font-size="10.00">OperatorPreconditioner</text>
<text text-anchor="start" x="110" y="-29.5" font-family="Helvetica,sans-Serif" font-size="10.00">&lt; dim, spacedim, KernelFunction</text>
<text text-anchor="start" x="110" y="-18.5" font-family="Helvetica,sans-Serif" font-size="10.00">Type, RangeNumberType, KernelNumber</text>
<text text-anchor="middle" x="200" y="-7.5" font-family="Helvetica,sans-Serif" font-size="10.00">Type &gt;::MassMatrixTriple</text>
</a>
</g>
</g>
<!-- Node0&#45;&gt;Node2 -->
<g id="edge2" class="edge">
<title>Node0&#45;&gt;Node2</title>
<path fill="none" stroke="midnightblue" d="M75.99,-52.59C84.03,-50.89 92.76,-49.04 101.72,-47.13"/>
<polygon fill="midnightblue" stroke="midnightblue" points="75.26,-49.17 66.21,-54.67 76.71,-56.02 75.26,-49.17"/>
</g>
</g>
</svg>
