<?xml version="1.0" encoding="UTF-8" standalone="no"?>
<!DOCTYPE svg PUBLIC "-//W3C//DTD SVG 1.1//EN"
 "http://www.w3.org/Graphics/SVG/1.1/DTD/svg11.dtd">
<!-- Generated by graphviz version 2.43.0 (0)
 -->
<!-- Title: Graphical Class Hierarchy Pages: 1 -->
<svg width="236pt" height="88pt"
 viewBox="0.00 0.00 236.00 88.00" xmlns="http://www.w3.org/2000/svg" xmlns:xlink="http://www.w3.org/1999/xlink">
<g id="graph0" class="graph" transform="scale(1 1) rotate(0) translate(4 84)">
<title>Graphical Class Hierarchy</title>
<!-- Node0 -->
<g id="node1" class="node">
<title>Node0</title>
<g id="a_node1"><a xlink:href="structformat__specs.html" target="_top" xlink:title=" ">
<polygon fill="none" stroke="black" points="0,-30 0,-49 76,-49 76,-30 0,-30"/>
<text text-anchor="middle" x="38" y="-37" font-family="Helvetica,sans-Serif" font-size="10.00">format_specs</text>
</a>
</g>
</g>
<!-- Node1 -->
<g id="node2" class="node">
<title>Node1</title>
<g id="a_node2"><a xlink:href="structdetail_1_1dynamic__format__specs.html" target="_top" xlink:title=" ">
<polygon fill="none" stroke="black" points="112,-49.5 112,-79.5 228,-79.5 228,-49.5 112,-49.5"/>
<text text-anchor="start" x="120" y="-67.5" font-family="Helvetica,sans-Serif" font-size="10.00">detail::dynamic_format</text>
<text text-anchor="middle" x="170" y="-56.5" font-family="Helvetica,sans-Serif" font-size="10.00">_specs&lt; Char &gt;</text>
</a>
</g>
</g>
<!-- Node0&#45;&gt;Node1 -->
<g id="edge1" class="edge">
<title>Node0&#45;&gt;Node1</title>
<path fill="none" stroke="midnightblue" d="M86.17,-48.57C94.51,-50.18 103.28,-51.86 111.86,-53.51"/>
<polygon fill="midnightblue" stroke="midnightblue" points="86.73,-45.12 76.25,-46.66 85.41,-51.99 86.73,-45.12"/>
</g>
<!-- Node2 -->
<g id="node3" class="node">
<title>Node2</title>
<g id="a_node3"><a xlink:href="structdetail_1_1dynamic__format__specs.html" target="_top" xlink:title=" ">
<polygon fill="none" stroke="black" points="112,-0.5 112,-30.5 228,-30.5 228,-0.5 112,-0.5"/>
<text text-anchor="start" x="120" y="-18.5" font-family="Helvetica,sans-Serif" font-size="10.00">detail::dynamic_format</text>
<text text-anchor="middle" x="170" y="-7.5" font-family="Helvetica,sans-Serif" font-size="10.00">_specs&lt; Char &gt;</text>
</a>
</g>
</g>
<!-- Node0&#45;&gt;Node2 -->
<g id="edge2" class="edge">
<title>Node0&#45;&gt;Node2</title>
<path fill="none" stroke="midnightblue" d="M86.17,-30.79C94.51,-29.25 103.28,-27.63 111.86,-26.05"/>
<polygon fill="midnightblue" stroke="midnightblue" points="85.45,-27.37 76.25,-32.62 86.72,-34.25 85.45,-27.37"/>
</g>
</g>
</svg>
