<?xml version="1.0" encoding="UTF-8" standalone="no"?>
<!DOCTYPE svg PUBLIC "-//W3C//DTD SVG 1.1//EN"
 "http://www.w3.org/Graphics/SVG/1.1/DTD/svg11.dtd">
<!-- Generated by graphviz version 2.43.0 (0)
 -->
<!-- Title: include/linear_algebra/lapack_helpers.h Pages: 1 -->
<svg width="1446pt" height="173pt"
 viewBox="0.00 0.00 1446.00 173.00" xmlns="http://www.w3.org/2000/svg" xmlns:xlink="http://www.w3.org/1999/xlink">
<g id="graph0" class="graph" transform="scale(1 1) rotate(0) translate(4 169)">
<title>include/linear_algebra/lapack_helpers.h</title>
<!-- Node1 -->
<g id="node1" class="node">
<title>Node1</title>
<g id="a_node1"><a xlink:title="Exposes LAPACK helper functions defined in lapack_full_matrix.cc and define new ones by following the...">
<polygon fill="#bfbfbf" stroke="black" points="705,-134.5 705,-164.5 815,-164.5 815,-134.5 705,-134.5"/>
<text text-anchor="start" x="713" y="-152.5" font-family="Helvetica,sans-Serif" font-size="10.00">include/linear_algebra</text>
<text text-anchor="middle" x="760" y="-141.5" font-family="Helvetica,sans-Serif" font-size="10.00">/lapack_helpers.h</text>
</a>
</g>
</g>
<!-- Node2 -->
<g id="node2" class="node">
<title>Node2</title>
<g id="a_node2"><a xlink:title=" ">
<polygon fill="none" stroke="#bfbfbf" points="0,-73 0,-92 116,-92 116,-73 0,-73"/>
<text text-anchor="middle" x="58" y="-80" font-family="Helvetica,sans-Serif" font-size="10.00">deal.II/base/numbers.h</text>
</a>
</g>
</g>
<!-- Node1&#45;&gt;Node2 -->
<g id="edge1" class="edge">
<title>Node1&#45;&gt;Node2</title>
<path fill="none" stroke="midnightblue" d="M704.94,-146.6C594.45,-142.24 338.08,-129.39 125,-98 118.04,-96.97 110.72,-95.65 103.58,-94.22"/>
<polygon fill="midnightblue" stroke="midnightblue" points="103.81,-90.69 93.31,-92.07 102.38,-97.54 103.81,-90.69"/>
</g>
<!-- Node3 -->
<g id="node3" class="node">
<title>Node3</title>
<g id="a_node3"><a xlink:title=" ">
<polygon fill="none" stroke="#bfbfbf" points="134,-67.5 134,-97.5 262,-97.5 262,-67.5 134,-67.5"/>
<text text-anchor="start" x="142" y="-85.5" font-family="Helvetica,sans-Serif" font-size="10.00">deal.II/lac/blas_extension</text>
<text text-anchor="middle" x="198" y="-74.5" font-family="Helvetica,sans-Serif" font-size="10.00">_templates.h</text>
</a>
</g>
</g>
<!-- Node1&#45;&gt;Node3 -->
<g id="edge2" class="edge">
<title>Node1&#45;&gt;Node3</title>
<path fill="none" stroke="midnightblue" d="M704.79,-144.48C615.84,-137.65 435.16,-122.23 272.24,-98.1"/>
<polygon fill="midnightblue" stroke="midnightblue" points="272.44,-94.59 262.03,-96.57 271.41,-101.51 272.44,-94.59"/>
</g>
<!-- Node4 -->
<g id="node4" class="node">
<title>Node4</title>
<g id="a_node4"><a xlink:title=" ">
<polygon fill="none" stroke="#bfbfbf" points="280,-73 280,-92 406,-92 406,-73 280,-73"/>
<text text-anchor="middle" x="343" y="-80" font-family="Helvetica,sans-Serif" font-size="10.00">deal.II/lac/block_vector.h</text>
</a>
</g>
</g>
<!-- Node1&#45;&gt;Node4 -->
<g id="edge3" class="edge">
<title>Node1&#45;&gt;Node4</title>
<path fill="none" stroke="midnightblue" d="M704.88,-141.36C636.66,-132.3 516.99,-115.72 415,-98 407.92,-96.77 400.46,-95.38 393.14,-93.96"/>
<polygon fill="midnightblue" stroke="midnightblue" points="393.78,-90.51 383.29,-92.01 392.43,-97.38 393.78,-90.51"/>
</g>
<!-- Node5 -->
<g id="node5" class="node">
<title>Node5</title>
<g id="a_node5"><a xlink:title=" ">
<polygon fill="none" stroke="#bfbfbf" points="424,-73 424,-92 540,-92 540,-73 424,-73"/>
<text text-anchor="middle" x="482" y="-80" font-family="Helvetica,sans-Serif" font-size="10.00">deal.II/lac/full_matrix.h</text>
</a>
</g>
</g>
<!-- Node1&#45;&gt;Node5 -->
<g id="edge4" class="edge">
<title>Node1&#45;&gt;Node5</title>
<path fill="none" stroke="midnightblue" d="M704.74,-135.58C653.15,-123.52 577.02,-105.72 528.47,-94.37"/>
<polygon fill="midnightblue" stroke="midnightblue" points="529.08,-90.91 518.55,-92.05 527.49,-97.73 529.08,-90.91"/>
</g>
<!-- Node6 -->
<g id="node6" class="node">
<title>Node6</title>
<g id="a_node6"><a xlink:title=" ">
<polygon fill="none" stroke="#bfbfbf" points="558.5,-67.5 558.5,-97.5 649.5,-97.5 649.5,-67.5 558.5,-67.5"/>
<text text-anchor="start" x="566.5" y="-85.5" font-family="Helvetica,sans-Serif" font-size="10.00">deal.II/lac/lapack</text>
<text text-anchor="middle" x="604" y="-74.5" font-family="Helvetica,sans-Serif" font-size="10.00">_full_matrix.h</text>
</a>
</g>
</g>
<!-- Node1&#45;&gt;Node6 -->
<g id="edge5" class="edge">
<title>Node1&#45;&gt;Node6</title>
<path fill="none" stroke="midnightblue" d="M726.15,-134.4C702.95,-124.73 671.97,-111.82 647.02,-101.43"/>
<polygon fill="midnightblue" stroke="midnightblue" points="648.36,-98.19 637.78,-97.58 645.67,-104.65 648.36,-98.19"/>
</g>
<!-- Node7 -->
<g id="node7" class="node">
<title>Node7</title>
<g id="a_node7"><a xlink:title=" ">
<polygon fill="none" stroke="#bfbfbf" points="580.5,-0.5 580.5,-30.5 671.5,-30.5 671.5,-0.5 580.5,-0.5"/>
<text text-anchor="start" x="588.5" y="-18.5" font-family="Helvetica,sans-Serif" font-size="10.00">deal.II/lac/lapack</text>
<text text-anchor="middle" x="626" y="-7.5" font-family="Helvetica,sans-Serif" font-size="10.00">_support.h</text>
</a>
</g>
</g>
<!-- Node1&#45;&gt;Node7 -->
<g id="edge6" class="edge">
<title>Node1&#45;&gt;Node7</title>
<path fill="none" stroke="midnightblue" d="M745.66,-134.37C722.08,-111.15 675.01,-64.78 647.46,-37.64"/>
<polygon fill="midnightblue" stroke="midnightblue" points="649.82,-35.05 640.24,-30.52 644.91,-40.04 649.82,-35.05"/>
</g>
<!-- Node8 -->
<g id="node8" class="node">
<title>Node8</title>
<g id="a_node8"><a xlink:title=" ">
<polygon fill="none" stroke="#bfbfbf" points="920.5,-67.5 920.5,-97.5 1011.5,-97.5 1011.5,-67.5 920.5,-67.5"/>
<text text-anchor="start" x="928.5" y="-85.5" font-family="Helvetica,sans-Serif" font-size="10.00">deal.II/lac/lapack</text>
<text text-anchor="middle" x="966" y="-74.5" font-family="Helvetica,sans-Serif" font-size="10.00">_templates.h</text>
</a>
</g>
</g>
<!-- Node1&#45;&gt;Node8 -->
<g id="edge7" class="edge">
<title>Node1&#45;&gt;Node8</title>
<path fill="none" stroke="midnightblue" d="M804.45,-134.48C835.88,-124.56 878.21,-111.2 911.65,-100.65"/>
<polygon fill="midnightblue" stroke="midnightblue" points="912.8,-103.96 921.28,-97.61 910.69,-97.28 912.8,-103.96"/>
</g>
<!-- Node9 -->
<g id="node9" class="node">
<title>Node9</title>
<g id="a_node9"><a xlink:title=" ">
<polygon fill="none" stroke="#bfbfbf" points="1030,-67.5 1030,-97.5 1122,-97.5 1122,-67.5 1030,-67.5"/>
<text text-anchor="start" x="1038" y="-85.5" font-family="Helvetica,sans-Serif" font-size="10.00">deal.II/lac/sparse</text>
<text text-anchor="middle" x="1076" y="-74.5" font-family="Helvetica,sans-Serif" font-size="10.00">_matrix.h</text>
</a>
</g>
</g>
<!-- Node1&#45;&gt;Node9 -->
<g id="edge8" class="edge">
<title>Node1&#45;&gt;Node9</title>
<path fill="none" stroke="midnightblue" d="M815.22,-138.92C866.02,-129.85 943.67,-115.38 1020.05,-98.13"/>
<polygon fill="midnightblue" stroke="midnightblue" points="1020.87,-101.54 1029.84,-95.91 1019.31,-94.71 1020.87,-101.54"/>
</g>
<!-- Node10 -->
<g id="node10" class="node">
<title>Node10</title>
<g id="a_node10"><a xlink:title=" ">
<polygon fill="none" stroke="#bfbfbf" points="1140.5,-73 1140.5,-92 1241.5,-92 1241.5,-73 1140.5,-73"/>
<text text-anchor="middle" x="1191" y="-80" font-family="Helvetica,sans-Serif" font-size="10.00">deal.II/lac/utilities.h</text>
</a>
</g>
</g>
<!-- Node1&#45;&gt;Node10 -->
<g id="edge9" class="edge">
<title>Node1&#45;&gt;Node10</title>
<path fill="none" stroke="midnightblue" d="M815.28,-142.75C888.02,-134.79 1019.69,-118.97 1131,-98 1136.73,-96.92 1142.74,-95.64 1148.65,-94.3"/>
<polygon fill="midnightblue" stroke="midnightblue" points="1149.5,-97.7 1158.43,-92.01 1147.9,-90.88 1149.5,-97.7"/>
</g>
<!-- Node11 -->
<g id="node11" class="node">
<title>Node11</title>
<g id="a_node11"><a xlink:title=" ">
<polygon fill="none" stroke="#bfbfbf" points="1260,-73 1260,-92 1358,-92 1358,-73 1260,-73"/>
<text text-anchor="middle" x="1309" y="-80" font-family="Helvetica,sans-Serif" font-size="10.00">deal.II/lac/vector.h</text>
</a>
</g>
</g>
<!-- Node1&#45;&gt;Node11 -->
<g id="edge10" class="edge">
<title>Node1&#45;&gt;Node11</title>
<path fill="none" stroke="midnightblue" d="M815.21,-145.39C906.46,-139.69 1094.22,-125.52 1251,-98 1256.56,-97.02 1262.37,-95.81 1268.08,-94.5"/>
<polygon fill="midnightblue" stroke="midnightblue" points="1269.27,-97.81 1278.17,-92.07 1267.63,-91.01 1269.27,-97.81"/>
</g>
<!-- Node12 -->
<g id="node12" class="node">
<title>Node12</title>
<g id="a_node12"><a xlink:title=" ">
<polygon fill="none" stroke="#bfbfbf" points="689.5,-6 689.5,-25 742.5,-25 742.5,-6 689.5,-6"/>
<text text-anchor="middle" x="716" y="-13" font-family="Helvetica,sans-Serif" font-size="10.00">complex</text>
</a>
</g>
</g>
<!-- Node1&#45;&gt;Node12 -->
<g id="edge11" class="edge">
<title>Node1&#45;&gt;Node12</title>
<path fill="none" stroke="midnightblue" d="M751.87,-134.3C746.47,-124.39 739.56,-110.71 735,-98 727.51,-77.11 722.19,-52.13 719.12,-35.38"/>
<polygon fill="midnightblue" stroke="midnightblue" points="722.52,-34.5 717.36,-25.25 715.63,-35.71 722.52,-34.5"/>
</g>
<!-- Node13 -->
<g id="node13" class="node">
<title>Node13</title>
<g id="a_node13"><a xlink:title=" ">
<polygon fill="none" stroke="#bfbfbf" points="1376,-73 1376,-92 1438,-92 1438,-73 1376,-73"/>
<text text-anchor="middle" x="1407" y="-80" font-family="Helvetica,sans-Serif" font-size="10.00">type_traits</text>
</a>
</g>
</g>
<!-- Node1&#45;&gt;Node13 -->
<g id="edge12" class="edge">
<title>Node1&#45;&gt;Node13</title>
<path fill="none" stroke="midnightblue" d="M815.13,-148.76C922.6,-148.21 1167.11,-141.73 1367,-98 1370.25,-97.29 1373.59,-96.38 1376.89,-95.37"/>
<polygon fill="midnightblue" stroke="midnightblue" points="1378.2,-98.62 1386.55,-92.09 1375.95,-91.99 1378.2,-98.62"/>
</g>
<!-- Node14 -->
<g id="node14" class="node">
<title>Node14</title>
<g id="a_node14"><a xlink:href="config_8h.html" target="_top" xlink:title="Configurations for building the project.">
<polygon fill="none" stroke="black" points="883.5,-6 883.5,-25 934.5,-25 934.5,-6 883.5,-6"/>
<text text-anchor="middle" x="909" y="-13" font-family="Helvetica,sans-Serif" font-size="10.00">config.h</text>
</a>
</g>
</g>
<!-- Node1&#45;&gt;Node14 -->
<g id="edge13" class="edge">
<title>Node1&#45;&gt;Node14</title>
<path fill="none" stroke="midnightblue" d="M811.78,-134.41C832.9,-126.54 856.25,-114.83 873,-98 890.35,-80.57 900.04,-53.35 904.89,-35.23"/>
<polygon fill="midnightblue" stroke="midnightblue" points="908.34,-35.83 907.3,-25.29 901.54,-34.18 908.34,-35.83"/>
</g>
<!-- Node15 -->
<g id="node15" class="node">
<title>Node15</title>
<g id="a_node15"><a xlink:href="lapack__templates__ext_8h.html" target="_top" xlink:title="Append more template based LAPACK functions to those existing in deal.ii.">
<polygon fill="none" stroke="black" points="744,-73 744,-92 864,-92 864,-73 744,-73"/>
<text text-anchor="middle" x="804" y="-80" font-family="Helvetica,sans-Serif" font-size="10.00">lapack_templates_ext.h</text>
</a>
</g>
</g>
<!-- Node1&#45;&gt;Node15 -->
<g id="edge14" class="edge">
<title>Node1&#45;&gt;Node15</title>
<path fill="none" stroke="midnightblue" d="M769.55,-134.4C776.27,-124.46 785.31,-111.11 792.44,-100.57"/>
<polygon fill="midnightblue" stroke="midnightblue" points="795.41,-102.44 798.11,-92.19 789.61,-98.51 795.41,-102.44"/>
</g>
<!-- Node15&#45;&gt;Node7 -->
<g id="edge16" class="edge">
<title>Node15&#45;&gt;Node7</title>
<path fill="none" stroke="midnightblue" d="M780.36,-72.87C753.31,-62.99 708.29,-46.55 673.83,-33.97"/>
<polygon fill="midnightblue" stroke="midnightblue" points="675.01,-30.67 664.42,-30.53 672.61,-37.25 675.01,-30.67"/>
</g>
<!-- Node15&#45;&gt;Node12 -->
<g id="edge17" class="edge">
<title>Node15&#45;&gt;Node12</title>
<path fill="none" stroke="midnightblue" d="M792.13,-72.73C777.75,-62.11 753.3,-44.05 735.99,-31.26"/>
<polygon fill="midnightblue" stroke="midnightblue" points="737.8,-28.25 727.68,-25.13 733.64,-33.88 737.8,-28.25"/>
</g>
<!-- Node15&#45;&gt;Node14 -->
<g id="edge18" class="edge">
<title>Node15&#45;&gt;Node14</title>
<path fill="none" stroke="midnightblue" d="M818.16,-72.73C835.71,-61.87 865.84,-43.22 886.56,-30.39"/>
<polygon fill="midnightblue" stroke="midnightblue" points="888.4,-33.37 895.06,-25.13 884.72,-27.41 888.4,-33.37"/>
</g>
<!-- Node16 -->
<g id="node16" class="node">
<title>Node16</title>
<g id="a_node16"><a xlink:title=" ">
<polygon fill="none" stroke="#bfbfbf" points="760.5,-6 760.5,-25 865.5,-25 865.5,-6 760.5,-6"/>
<text text-anchor="middle" x="813" y="-13" font-family="Helvetica,sans-Serif" font-size="10.00">deal.II/base/config.h</text>
</a>
</g>
</g>
<!-- Node15&#45;&gt;Node16 -->
<g id="edge15" class="edge">
<title>Node15&#45;&gt;Node16</title>
<path fill="none" stroke="midnightblue" d="M805.21,-72.73C806.54,-63.18 808.69,-47.62 810.4,-35.28"/>
<polygon fill="midnightblue" stroke="midnightblue" points="813.9,-35.51 811.81,-25.13 806.97,-34.55 813.9,-35.51"/>
</g>
</g>
</svg>
