<?xml version="1.0" encoding="UTF-8" standalone="no"?>
<!DOCTYPE svg PUBLIC "-//W3C//DTD SVG 1.1//EN"
 "http://www.w3.org/Graphics/SVG/1.1/DTD/svg11.dtd">
<!-- Generated by graphviz version 2.43.0 (0)
 -->
<!-- Title: include/linear_algebra/lapack_templates_ext.h Pages: 1 -->
<svg width="362pt" height="106pt"
 viewBox="0.00 0.00 362.00 106.00" xmlns="http://www.w3.org/2000/svg" xmlns:xlink="http://www.w3.org/1999/xlink">
<g id="graph0" class="graph" transform="scale(1 1) rotate(0) translate(4 102)">
<title>include/linear_algebra/lapack_templates_ext.h</title>
<!-- Node1 -->
<g id="node1" class="node">
<title>Node1</title>
<g id="a_node1"><a xlink:title="Append more template based LAPACK functions to those existing in deal.ii.">
<polygon fill="#bfbfbf" stroke="black" points="152,-67.5 152,-97.5 275,-97.5 275,-67.5 152,-67.5"/>
<text text-anchor="start" x="160" y="-85.5" font-family="Helvetica,sans-Serif" font-size="10.00">include/linear_algebra</text>
<text text-anchor="middle" x="213.5" y="-74.5" font-family="Helvetica,sans-Serif" font-size="10.00">/lapack_templates_ext.h</text>
</a>
</g>
</g>
<!-- Node2 -->
<g id="node2" class="node">
<title>Node2</title>
<g id="a_node2"><a xlink:title=" ">
<polygon fill="none" stroke="#bfbfbf" points="0,-6 0,-25 105,-25 105,-6 0,-6"/>
<text text-anchor="middle" x="52.5" y="-13" font-family="Helvetica,sans-Serif" font-size="10.00">deal.II/base/config.h</text>
</a>
</g>
</g>
<!-- Node1&#45;&gt;Node2 -->
<g id="edge1" class="edge">
<title>Node1&#45;&gt;Node2</title>
<path fill="none" stroke="midnightblue" d="M178.57,-67.4C150.07,-55.89 110.21,-39.8 82.98,-28.81"/>
<polygon fill="midnightblue" stroke="midnightblue" points="84.15,-25.51 73.57,-25.01 81.53,-32 84.15,-25.51"/>
</g>
<!-- Node3 -->
<g id="node3" class="node">
<title>Node3</title>
<g id="a_node3"><a xlink:title=" ">
<polygon fill="none" stroke="#bfbfbf" points="123,-0.5 123,-30.5 214,-30.5 214,-0.5 123,-0.5"/>
<text text-anchor="start" x="131" y="-18.5" font-family="Helvetica,sans-Serif" font-size="10.00">deal.II/lac/lapack</text>
<text text-anchor="middle" x="168.5" y="-7.5" font-family="Helvetica,sans-Serif" font-size="10.00">_support.h</text>
</a>
</g>
</g>
<!-- Node1&#45;&gt;Node3 -->
<g id="edge2" class="edge">
<title>Node1&#45;&gt;Node3</title>
<path fill="none" stroke="midnightblue" d="M203.74,-67.4C197.96,-59.05 190.51,-48.29 183.95,-38.81"/>
<polygon fill="midnightblue" stroke="midnightblue" points="186.82,-36.81 178.25,-30.58 181.06,-40.79 186.82,-36.81"/>
</g>
<!-- Node4 -->
<g id="node4" class="node">
<title>Node4</title>
<g id="a_node4"><a xlink:title=" ">
<polygon fill="none" stroke="#bfbfbf" points="232,-6 232,-25 285,-25 285,-6 232,-6"/>
<text text-anchor="middle" x="258.5" y="-13" font-family="Helvetica,sans-Serif" font-size="10.00">complex</text>
</a>
</g>
</g>
<!-- Node1&#45;&gt;Node4 -->
<g id="edge3" class="edge">
<title>Node1&#45;&gt;Node4</title>
<path fill="none" stroke="midnightblue" d="M223.26,-67.4C230.14,-57.46 239.39,-44.11 246.68,-33.57"/>
<polygon fill="midnightblue" stroke="midnightblue" points="249.67,-35.41 252.48,-25.19 243.91,-31.42 249.67,-35.41"/>
</g>
<!-- Node5 -->
<g id="node5" class="node">
<title>Node5</title>
<g id="a_node5"><a xlink:href="config_8h.html" target="_top" xlink:title="Configurations for building the project.">
<polygon fill="none" stroke="black" points="303,-6 303,-25 354,-25 354,-6 303,-6"/>
<text text-anchor="middle" x="328.5" y="-13" font-family="Helvetica,sans-Serif" font-size="10.00">config.h</text>
</a>
</g>
</g>
<!-- Node1&#45;&gt;Node5 -->
<g id="edge4" class="edge">
<title>Node1&#45;&gt;Node5</title>
<path fill="none" stroke="midnightblue" d="M238.45,-67.4C258.1,-56.29 285.29,-40.92 304.65,-29.98"/>
<polygon fill="midnightblue" stroke="midnightblue" points="306.47,-32.97 313.45,-25.01 303.02,-26.88 306.47,-32.97"/>
</g>
</g>
</svg>
