<?xml version="1.0" encoding="UTF-8" standalone="no"?>
<!DOCTYPE svg PUBLIC "-//W3C//DTD SVG 1.1//EN"
 "http://www.w3.org/Graphics/SVG/1.1/DTD/svg11.dtd">
<!-- Generated by graphviz version 2.43.0 (0)
 -->
<!-- Title: include/linear_algebra/lapack_helpers.h Pages: 1 -->
<svg width="1335pt" height="173pt"
 viewBox="0.00 0.00 1335.00 173.00" xmlns="http://www.w3.org/2000/svg" xmlns:xlink="http://www.w3.org/1999/xlink">
<g id="graph0" class="graph" transform="scale(1 1) rotate(0) translate(4 169)">
<title>include/linear_algebra/lapack_helpers.h</title>
<!-- Node1 -->
<g id="node1" class="node">
<title>Node1</title>
<g id="a_node1"><a xlink:title="Exposes LAPACK helper functions defined in lapack_full_matrix.cc and define new ones by following the...">
<polygon fill="#bfbfbf" stroke="black" points="661,-134.5 661,-164.5 771,-164.5 771,-134.5 661,-134.5"/>
<text text-anchor="start" x="669" y="-152.5" font-family="Helvetica,sans-Serif" font-size="10.00">include/linear_algebra</text>
<text text-anchor="middle" x="716" y="-141.5" font-family="Helvetica,sans-Serif" font-size="10.00">/lapack_helpers.h</text>
</a>
</g>
</g>
<!-- Node2 -->
<g id="node2" class="node">
<title>Node2</title>
<g id="a_node2"><a xlink:title=" ">
<polygon fill="none" stroke="#bfbfbf" points="0,-73 0,-92 116,-92 116,-73 0,-73"/>
<text text-anchor="middle" x="58" y="-80" font-family="Helvetica,sans-Serif" font-size="10.00">deal.II/base/numbers.h</text>
</a>
</g>
</g>
<!-- Node1&#45;&gt;Node2 -->
<g id="edge1" class="edge">
<title>Node1&#45;&gt;Node2</title>
<path fill="none" stroke="midnightblue" d="M660.73,-146.14C555.81,-141.14 320.78,-127.43 125,-98 118.04,-96.95 110.72,-95.62 103.58,-94.18"/>
<polygon fill="midnightblue" stroke="midnightblue" points="103.82,-90.65 93.31,-92.03 102.38,-97.51 103.82,-90.65"/>
</g>
<!-- Node3 -->
<g id="node3" class="node">
<title>Node3</title>
<g id="a_node3"><a xlink:title=" ">
<polygon fill="none" stroke="#bfbfbf" points="134,-67.5 134,-97.5 262,-97.5 262,-67.5 134,-67.5"/>
<text text-anchor="start" x="142" y="-85.5" font-family="Helvetica,sans-Serif" font-size="10.00">deal.II/lac/blas_extension</text>
<text text-anchor="middle" x="198" y="-74.5" font-family="Helvetica,sans-Serif" font-size="10.00">_templates.h</text>
</a>
</g>
</g>
<!-- Node1&#45;&gt;Node3 -->
<g id="edge2" class="edge">
<title>Node1&#45;&gt;Node3</title>
<path fill="none" stroke="midnightblue" d="M661,-143.74C578.65,-136.29 418.24,-120.51 272.09,-98.09"/>
<polygon fill="midnightblue" stroke="midnightblue" points="272.46,-94.6 262.04,-96.53 271.39,-101.52 272.46,-94.6"/>
</g>
<!-- Node4 -->
<g id="node4" class="node">
<title>Node4</title>
<g id="a_node4"><a xlink:title=" ">
<polygon fill="none" stroke="#bfbfbf" points="280,-73 280,-92 406,-92 406,-73 280,-73"/>
<text text-anchor="middle" x="343" y="-80" font-family="Helvetica,sans-Serif" font-size="10.00">deal.II/lac/block_vector.h</text>
</a>
</g>
</g>
<!-- Node1&#45;&gt;Node4 -->
<g id="edge3" class="edge">
<title>Node1&#45;&gt;Node4</title>
<path fill="none" stroke="midnightblue" d="M660.98,-139.82C600.56,-130.16 500.72,-113.82 415,-98 408.26,-96.76 401.18,-95.4 394.19,-94.02"/>
<polygon fill="midnightblue" stroke="midnightblue" points="394.57,-90.53 384.08,-92.01 393.2,-97.39 394.57,-90.53"/>
</g>
<!-- Node5 -->
<g id="node5" class="node">
<title>Node5</title>
<g id="a_node5"><a xlink:title=" ">
<polygon fill="none" stroke="#bfbfbf" points="424,-73 424,-92 540,-92 540,-73 424,-73"/>
<text text-anchor="middle" x="482" y="-80" font-family="Helvetica,sans-Serif" font-size="10.00">deal.II/lac/full_matrix.h</text>
</a>
</g>
</g>
<!-- Node1&#45;&gt;Node5 -->
<g id="edge4" class="edge">
<title>Node1&#45;&gt;Node5</title>
<path fill="none" stroke="midnightblue" d="M665.51,-134.48C622.75,-122.6 562.23,-105.79 522.56,-94.77"/>
<polygon fill="midnightblue" stroke="midnightblue" points="523.28,-91.33 512.7,-92.03 521.4,-98.08 523.28,-91.33"/>
</g>
<!-- Node6 -->
<g id="node6" class="node">
<title>Node6</title>
<g id="a_node6"><a xlink:title=" ">
<polygon fill="none" stroke="#bfbfbf" points="558.5,-67.5 558.5,-97.5 649.5,-97.5 649.5,-67.5 558.5,-67.5"/>
<text text-anchor="start" x="566.5" y="-85.5" font-family="Helvetica,sans-Serif" font-size="10.00">deal.II/lac/lapack</text>
<text text-anchor="middle" x="604" y="-74.5" font-family="Helvetica,sans-Serif" font-size="10.00">_full_matrix.h</text>
</a>
</g>
</g>
<!-- Node1&#45;&gt;Node6 -->
<g id="edge5" class="edge">
<title>Node1&#45;&gt;Node6</title>
<path fill="none" stroke="midnightblue" d="M691.7,-134.4C675.7,-125.11 654.56,-112.84 637.04,-102.67"/>
<polygon fill="midnightblue" stroke="midnightblue" points="638.66,-99.57 628.25,-97.58 635.15,-105.62 638.66,-99.57"/>
</g>
<!-- Node7 -->
<g id="node7" class="node">
<title>Node7</title>
<g id="a_node7"><a xlink:title=" ">
<polygon fill="none" stroke="#bfbfbf" points="580.5,-0.5 580.5,-30.5 671.5,-30.5 671.5,-0.5 580.5,-0.5"/>
<text text-anchor="start" x="588.5" y="-18.5" font-family="Helvetica,sans-Serif" font-size="10.00">deal.II/lac/lapack</text>
<text text-anchor="middle" x="626" y="-7.5" font-family="Helvetica,sans-Serif" font-size="10.00">_support.h</text>
</a>
</g>
</g>
<!-- Node1&#45;&gt;Node7 -->
<g id="edge6" class="edge">
<title>Node1&#45;&gt;Node7</title>
<path fill="none" stroke="midnightblue" d="M706.37,-134.37C690.81,-111.55 659.99,-66.36 641.37,-39.04"/>
<polygon fill="midnightblue" stroke="midnightblue" points="644.09,-36.82 635.56,-30.52 638.3,-40.76 644.09,-36.82"/>
</g>
<!-- Node8 -->
<g id="node8" class="node">
<title>Node8</title>
<g id="a_node8"><a xlink:title=" ">
<polygon fill="none" stroke="#bfbfbf" points="920.5,-67.5 920.5,-97.5 1011.5,-97.5 1011.5,-67.5 920.5,-67.5"/>
<text text-anchor="start" x="928.5" y="-85.5" font-family="Helvetica,sans-Serif" font-size="10.00">deal.II/lac/lapack</text>
<text text-anchor="middle" x="966" y="-74.5" font-family="Helvetica,sans-Serif" font-size="10.00">_templates.h</text>
</a>
</g>
</g>
<!-- Node1&#45;&gt;Node8 -->
<g id="edge7" class="edge">
<title>Node1&#45;&gt;Node8</title>
<path fill="none" stroke="midnightblue" d="M769.94,-134.48C811.4,-123.7 868.48,-108.86 910.36,-97.97"/>
<polygon fill="midnightblue" stroke="midnightblue" points="911.33,-101.33 920.12,-95.43 909.56,-94.56 911.33,-101.33"/>
</g>
<!-- Node9 -->
<g id="node9" class="node">
<title>Node9</title>
<g id="a_node9"><a xlink:title=" ">
<polygon fill="none" stroke="#bfbfbf" points="1029.5,-73 1029.5,-92 1130.5,-92 1130.5,-73 1029.5,-73"/>
<text text-anchor="middle" x="1080" y="-80" font-family="Helvetica,sans-Serif" font-size="10.00">deal.II/lac/utilities.h</text>
</a>
</g>
</g>
<!-- Node1&#45;&gt;Node9 -->
<g id="edge8" class="edge">
<title>Node1&#45;&gt;Node9</title>
<path fill="none" stroke="midnightblue" d="M771.06,-140.69C832.32,-131.69 934.12,-115.84 1021,-98 1026.36,-96.9 1031.97,-95.65 1037.51,-94.36"/>
<polygon fill="midnightblue" stroke="midnightblue" points="1038.42,-97.74 1047.33,-92 1036.79,-90.93 1038.42,-97.74"/>
</g>
<!-- Node10 -->
<g id="node10" class="node">
<title>Node10</title>
<g id="a_node10"><a xlink:title=" ">
<polygon fill="none" stroke="#bfbfbf" points="1149,-73 1149,-92 1247,-92 1247,-73 1149,-73"/>
<text text-anchor="middle" x="1198" y="-80" font-family="Helvetica,sans-Serif" font-size="10.00">deal.II/lac/vector.h</text>
</a>
</g>
</g>
<!-- Node1&#45;&gt;Node10 -->
<g id="edge9" class="edge">
<title>Node1&#45;&gt;Node10</title>
<path fill="none" stroke="midnightblue" d="M771.22,-144.17C852.46,-137.29 1008.76,-122.12 1140,-98 1145.49,-96.99 1151.23,-95.77 1156.87,-94.46"/>
<polygon fill="midnightblue" stroke="midnightblue" points="1157.95,-97.8 1166.85,-92.06 1156.31,-91 1157.95,-97.8"/>
</g>
<!-- Node11 -->
<g id="node11" class="node">
<title>Node11</title>
<g id="a_node11"><a xlink:title=" ">
<polygon fill="none" stroke="#bfbfbf" points="689.5,-6 689.5,-25 742.5,-25 742.5,-6 689.5,-6"/>
<text text-anchor="middle" x="716" y="-13" font-family="Helvetica,sans-Serif" font-size="10.00">complex</text>
</a>
</g>
</g>
<!-- Node1&#45;&gt;Node11 -->
<g id="edge10" class="edge">
<title>Node1&#45;&gt;Node11</title>
<path fill="none" stroke="midnightblue" d="M716,-134.37C716,-110.5 716,-62.18 716,-35.41"/>
<polygon fill="midnightblue" stroke="midnightblue" points="719.5,-35.1 716,-25.1 712.5,-35.1 719.5,-35.1"/>
</g>
<!-- Node12 -->
<g id="node12" class="node">
<title>Node12</title>
<g id="a_node12"><a xlink:title=" ">
<polygon fill="none" stroke="#bfbfbf" points="1265,-73 1265,-92 1327,-92 1327,-73 1265,-73"/>
<text text-anchor="middle" x="1296" y="-80" font-family="Helvetica,sans-Serif" font-size="10.00">type_traits</text>
</a>
</g>
</g>
<!-- Node1&#45;&gt;Node12 -->
<g id="edge11" class="edge">
<title>Node1&#45;&gt;Node12</title>
<path fill="none" stroke="midnightblue" d="M771.14,-147.95C869.65,-145.95 1081.89,-137.03 1256,-98 1259.24,-97.27 1262.58,-96.35 1265.88,-95.33"/>
<polygon fill="midnightblue" stroke="midnightblue" points="1267.2,-98.58 1275.54,-92.05 1264.94,-91.95 1267.2,-98.58"/>
</g>
<!-- Node13 -->
<g id="node13" class="node">
<title>Node13</title>
<g id="a_node13"><a xlink:href="config_8h.html" target="_top" xlink:title="Configurations for building the project.">
<polygon fill="none" stroke="black" points="883.5,-6 883.5,-25 934.5,-25 934.5,-6 883.5,-6"/>
<text text-anchor="middle" x="909" y="-13" font-family="Helvetica,sans-Serif" font-size="10.00">config.h</text>
</a>
</g>
</g>
<!-- Node1&#45;&gt;Node13 -->
<g id="edge12" class="edge">
<title>Node1&#45;&gt;Node13</title>
<path fill="none" stroke="midnightblue" d="M771.05,-142.23C804.05,-135.93 844.91,-123.29 873,-98 891.46,-81.38 900.93,-53.54 905.42,-35.1"/>
<polygon fill="midnightblue" stroke="midnightblue" points="908.85,-35.76 907.56,-25.25 902.02,-34.27 908.85,-35.76"/>
</g>
<!-- Node14 -->
<g id="node14" class="node">
<title>Node14</title>
<g id="a_node14"><a xlink:href="lapack__templates__ext_8h.html" target="_top" xlink:title="Append more template based LAPACK functions to those existing in deal.ii.">
<polygon fill="none" stroke="black" points="744,-73 744,-92 864,-92 864,-73 744,-73"/>
<text text-anchor="middle" x="804" y="-80" font-family="Helvetica,sans-Serif" font-size="10.00">lapack_templates_ext.h</text>
</a>
</g>
</g>
<!-- Node1&#45;&gt;Node14 -->
<g id="edge13" class="edge">
<title>Node1&#45;&gt;Node14</title>
<path fill="none" stroke="midnightblue" d="M735.09,-134.4C749.58,-123.7 769.43,-109.03 784.11,-98.19"/>
<polygon fill="midnightblue" stroke="midnightblue" points="786.52,-100.76 792.48,-92.01 782.36,-95.13 786.52,-100.76"/>
</g>
<!-- Node14&#45;&gt;Node7 -->
<g id="edge15" class="edge">
<title>Node14&#45;&gt;Node7</title>
<path fill="none" stroke="midnightblue" d="M780.36,-72.87C753.31,-62.99 708.29,-46.55 673.83,-33.97"/>
<polygon fill="midnightblue" stroke="midnightblue" points="675.01,-30.67 664.42,-30.53 672.61,-37.25 675.01,-30.67"/>
</g>
<!-- Node14&#45;&gt;Node11 -->
<g id="edge16" class="edge">
<title>Node14&#45;&gt;Node11</title>
<path fill="none" stroke="midnightblue" d="M792.13,-72.73C777.75,-62.11 753.3,-44.05 735.99,-31.26"/>
<polygon fill="midnightblue" stroke="midnightblue" points="737.8,-28.25 727.68,-25.13 733.64,-33.88 737.8,-28.25"/>
</g>
<!-- Node14&#45;&gt;Node13 -->
<g id="edge17" class="edge">
<title>Node14&#45;&gt;Node13</title>
<path fill="none" stroke="midnightblue" d="M818.16,-72.73C835.71,-61.87 865.84,-43.22 886.56,-30.39"/>
<polygon fill="midnightblue" stroke="midnightblue" points="888.4,-33.37 895.06,-25.13 884.72,-27.41 888.4,-33.37"/>
</g>
<!-- Node15 -->
<g id="node15" class="node">
<title>Node15</title>
<g id="a_node15"><a xlink:title=" ">
<polygon fill="none" stroke="#bfbfbf" points="760.5,-6 760.5,-25 865.5,-25 865.5,-6 760.5,-6"/>
<text text-anchor="middle" x="813" y="-13" font-family="Helvetica,sans-Serif" font-size="10.00">deal.II/base/config.h</text>
</a>
</g>
</g>
<!-- Node14&#45;&gt;Node15 -->
<g id="edge14" class="edge">
<title>Node14&#45;&gt;Node15</title>
<path fill="none" stroke="midnightblue" d="M805.21,-72.73C806.54,-63.18 808.69,-47.62 810.4,-35.28"/>
<polygon fill="midnightblue" stroke="midnightblue" points="813.9,-35.51 811.81,-25.13 806.97,-34.55 813.9,-35.51"/>
</g>
</g>
</svg>
