<?xml version="1.0" encoding="UTF-8" standalone="no"?>
<!DOCTYPE svg PUBLIC "-//W3C//DTD SVG 1.1//EN"
 "http://www.w3.org/Graphics/SVG/1.1/DTD/svg11.dtd">
<!-- Generated by graphviz version 2.43.0 (0)
 -->
<!-- Title: include/platform_shared/laplace_kernels.h Pages: 1 -->
<svg width="678pt" height="162pt"
 viewBox="0.00 0.00 678.00 162.00" xmlns="http://www.w3.org/2000/svg" xmlns:xlink="http://www.w3.org/1999/xlink">
<g id="graph0" class="graph" transform="scale(1 1) rotate(0) translate(4 158)">
<title>include/platform_shared/laplace_kernels.h</title>
<!-- Node1 -->
<g id="node1" class="node">
<title>Node1</title>
<g id="a_node1"><a xlink:title="Introduction of laplace_kernels.h.">
<polygon fill="#bfbfbf" stroke="black" points="256,-123.5 256,-153.5 376,-153.5 376,-123.5 256,-123.5"/>
<text text-anchor="start" x="264" y="-141.5" font-family="Helvetica,sans-Serif" font-size="10.00">include/platform_shared</text>
<text text-anchor="middle" x="316" y="-130.5" font-family="Helvetica,sans-Serif" font-size="10.00">/laplace_kernels.h</text>
</a>
</g>
</g>
<!-- Node2 -->
<g id="node2" class="node">
<title>Node2</title>
<g id="a_node2"><a xlink:title=" ">
<polygon fill="none" stroke="#bfbfbf" points="0,-67.5 0,-86.5 116,-86.5 116,-67.5 0,-67.5"/>
<text text-anchor="middle" x="58" y="-74.5" font-family="Helvetica,sans-Serif" font-size="10.00">deal.II/base/numbers.h</text>
</a>
</g>
</g>
<!-- Node1&#45;&gt;Node2 -->
<g id="edge1" class="edge">
<title>Node1&#45;&gt;Node2</title>
<path fill="none" stroke="midnightblue" d="M255.84,-123.62C209.79,-113.01 147.21,-98.57 104.85,-88.81"/>
<polygon fill="midnightblue" stroke="midnightblue" points="105.61,-85.39 95.08,-86.55 104.03,-92.21 105.61,-85.39"/>
</g>
<!-- Node3 -->
<g id="node3" class="node">
<title>Node3</title>
<g id="a_node3"><a xlink:title=" ">
<polygon fill="none" stroke="#bfbfbf" points="134,-67.5 134,-86.5 234,-86.5 234,-67.5 134,-67.5"/>
<text text-anchor="middle" x="184" y="-74.5" font-family="Helvetica,sans-Serif" font-size="10.00">deal.II/base/point.h</text>
</a>
</g>
</g>
<!-- Node1&#45;&gt;Node3 -->
<g id="edge2" class="edge">
<title>Node1&#45;&gt;Node3</title>
<path fill="none" stroke="midnightblue" d="M284.72,-123.4C262.77,-113.51 233.66,-100.38 212.38,-90.79"/>
<polygon fill="midnightblue" stroke="midnightblue" points="213.76,-87.58 203.21,-86.66 210.89,-93.96 213.76,-87.58"/>
</g>
<!-- Node4 -->
<g id="node4" class="node">
<title>Node4</title>
<g id="a_node4"><a xlink:title=" ">
<polygon fill="none" stroke="#bfbfbf" points="227,-6 227,-25 333,-25 333,-6 227,-6"/>
<text text-anchor="middle" x="280" y="-13" font-family="Helvetica,sans-Serif" font-size="10.00">deal.II/base/tensor.h</text>
</a>
</g>
</g>
<!-- Node1&#45;&gt;Node4 -->
<g id="edge3" class="edge">
<title>Node1&#45;&gt;Node4</title>
<path fill="none" stroke="midnightblue" d="M302.7,-123.3C294.75,-113.81 285.36,-100.61 281,-87 275.58,-70.08 275.98,-49.67 277.35,-35.18"/>
<polygon fill="midnightblue" stroke="midnightblue" points="280.86,-35.35 278.56,-25 273.9,-34.52 280.86,-35.35"/>
</g>
<!-- Node5 -->
<g id="node5" class="node">
<title>Node5</title>
<g id="a_node5"><a xlink:title=" ">
<polygon fill="none" stroke="#bfbfbf" points="290,-67.5 290,-86.5 342,-86.5 342,-67.5 290,-67.5"/>
<text text-anchor="middle" x="316" y="-74.5" font-family="Helvetica,sans-Serif" font-size="10.00">assert.h</text>
</a>
</g>
</g>
<!-- Node1&#45;&gt;Node5 -->
<g id="edge4" class="edge">
<title>Node1&#45;&gt;Node5</title>
<path fill="none" stroke="midnightblue" d="M316,-123.4C316,-115.47 316,-105.46 316,-96.86"/>
<polygon fill="midnightblue" stroke="midnightblue" points="319.5,-96.66 316,-86.66 312.5,-96.66 319.5,-96.66"/>
</g>
<!-- Node6 -->
<g id="node6" class="node">
<title>Node6</title>
<g id="a_node6"><a xlink:href="config_8h.html" target="_top" xlink:title="Configurations for building the project.">
<polygon fill="none" stroke="black" points="491.5,-6 491.5,-25 542.5,-25 542.5,-6 491.5,-6"/>
<text text-anchor="middle" x="517" y="-13" font-family="Helvetica,sans-Serif" font-size="10.00">config.h</text>
</a>
</g>
</g>
<!-- Node1&#45;&gt;Node6 -->
<g id="edge5" class="edge">
<title>Node1&#45;&gt;Node6</title>
<path fill="none" stroke="midnightblue" d="M376.34,-134.52C414.6,-129.55 462.63,-117.17 494,-87 508.04,-73.5 513.52,-51.33 515.65,-35.46"/>
<polygon fill="midnightblue" stroke="midnightblue" points="519.16,-35.53 516.69,-25.23 512.2,-34.82 519.16,-35.53"/>
</g>
<!-- Node7 -->
<g id="node7" class="node">
<title>Node7</title>
<g id="a_node7"><a xlink:href="tensor_8h.html" target="_top" xlink:title="Introduction of tensor.h.">
<polygon fill="none" stroke="black" points="360.5,-67.5 360.5,-86.5 485.5,-86.5 485.5,-67.5 360.5,-67.5"/>
<text text-anchor="middle" x="423" y="-74.5" font-family="Helvetica,sans-Serif" font-size="10.00">platform_shared/tensor.h</text>
</a>
</g>
</g>
<!-- Node1&#45;&gt;Node7 -->
<g id="edge6" class="edge">
<title>Node1&#45;&gt;Node7</title>
<path fill="none" stroke="midnightblue" d="M341.36,-123.4C358.67,-113.77 381.48,-101.09 398.58,-91.58"/>
<polygon fill="midnightblue" stroke="midnightblue" points="400.39,-94.58 407.43,-86.66 396.99,-88.46 400.39,-94.58"/>
</g>
<!-- Node9 -->
<g id="node9" class="node">
<title>Node9</title>
<g id="a_node9"><a xlink:href="utilities_8h.html" target="_top" xlink:title="Introduction of utilities.h.">
<polygon fill="none" stroke="black" points="542,-67.5 542,-86.5 670,-86.5 670,-67.5 542,-67.5"/>
<text text-anchor="middle" x="606" y="-74.5" font-family="Helvetica,sans-Serif" font-size="10.00">platform_shared/utilities.h</text>
</a>
</g>
</g>
<!-- Node1&#45;&gt;Node9 -->
<g id="edge10" class="edge">
<title>Node1&#45;&gt;Node9</title>
<path fill="none" stroke="midnightblue" d="M376.09,-125.17C428.7,-114.38 504.35,-98.86 554.31,-88.61"/>
<polygon fill="midnightblue" stroke="midnightblue" points="555.16,-92 564.25,-86.56 553.76,-85.15 555.16,-92"/>
</g>
<!-- Node7&#45;&gt;Node4 -->
<g id="edge8" class="edge">
<title>Node7&#45;&gt;Node4</title>
<path fill="none" stroke="midnightblue" d="M402.51,-67.48C378.19,-57.36 337.45,-40.4 309.68,-28.85"/>
<polygon fill="midnightblue" stroke="midnightblue" points="311.03,-25.62 300.45,-25.01 308.34,-32.08 311.03,-25.62"/>
</g>
<!-- Node7&#45;&gt;Node6 -->
<g id="edge9" class="edge">
<title>Node7&#45;&gt;Node6</title>
<path fill="none" stroke="midnightblue" d="M436.47,-67.48C451.68,-57.84 476.69,-42.02 494.8,-30.55"/>
<polygon fill="midnightblue" stroke="midnightblue" points="496.98,-33.31 503.56,-25.01 493.24,-27.4 496.98,-33.31"/>
</g>
<!-- Node8 -->
<g id="node8" class="node">
<title>Node8</title>
<g id="a_node8"><a xlink:title=" ">
<polygon fill="none" stroke="#bfbfbf" points="365,-0.5 365,-30.5 473,-30.5 473,-0.5 365,-0.5"/>
<text text-anchor="start" x="373" y="-18.5" font-family="Helvetica,sans-Serif" font-size="10.00">deal.II/base/template</text>
<text text-anchor="middle" x="419" y="-7.5" font-family="Helvetica,sans-Serif" font-size="10.00">_constraints.h</text>
</a>
</g>
</g>
<!-- Node7&#45;&gt;Node8 -->
<g id="edge7" class="edge">
<title>Node7&#45;&gt;Node8</title>
<path fill="none" stroke="midnightblue" d="M422.43,-67.48C421.96,-60.47 421.27,-50.19 420.63,-40.7"/>
<polygon fill="midnightblue" stroke="midnightblue" points="424.11,-40.27 419.94,-30.52 417.12,-40.74 424.11,-40.27"/>
</g>
<!-- Node9&#45;&gt;Node6 -->
<g id="edge11" class="edge">
<title>Node9&#45;&gt;Node6</title>
<path fill="none" stroke="midnightblue" d="M593.25,-67.48C578.97,-57.93 555.6,-42.31 538.49,-30.87"/>
<polygon fill="midnightblue" stroke="midnightblue" points="539.99,-27.66 529.73,-25.01 536.1,-33.48 539.99,-27.66"/>
</g>
</g>
</svg>
