<?xml version="1.0" encoding="UTF-8" standalone="no"?>
<!DOCTYPE svg PUBLIC "-//W3C//DTD SVG 1.1//EN"
 "http://www.w3.org/Graphics/SVG/1.1/DTD/svg11.dtd">
<!-- Generated by graphviz version 2.43.0 (0)
 -->
<!-- Title: include/platform_shared/laplace_kernels.h Pages: 1 -->
<svg width="702pt" height="586pt"
 viewBox="0.00 0.00 702.00 586.00" xmlns="http://www.w3.org/2000/svg" xmlns:xlink="http://www.w3.org/1999/xlink">
<g id="graph0" class="graph" transform="scale(1 1) rotate(0) translate(4 582)">
<title>include/platform_shared/laplace_kernels.h</title>
<!-- Node1 -->
<g id="node1" class="node">
<title>Node1</title>
<g id="a_node1"><a xlink:title="Introduction of laplace_kernels.h.">
<polygon fill="#bfbfbf" stroke="black" points="436.5,-547.5 436.5,-577.5 556.5,-577.5 556.5,-547.5 436.5,-547.5"/>
<text text-anchor="start" x="444.5" y="-565.5" font-family="Helvetica,sans-Serif" font-size="10.00">include/platform_shared</text>
<text text-anchor="middle" x="496.5" y="-554.5" font-family="Helvetica,sans-Serif" font-size="10.00">/laplace_kernels.h</text>
</a>
</g>
</g>
<!-- Node2 -->
<g id="node2" class="node">
<title>Node2</title>
<g id="a_node2"><a xlink:href="bem__kernels_8hcu_source.html" target="_top" xlink:title=" ">
<polygon fill="none" stroke="black" points="246.5,-486 246.5,-505 392.5,-505 392.5,-486 246.5,-486"/>
<text text-anchor="middle" x="319.5" y="-493" font-family="Helvetica,sans-Serif" font-size="10.00">include/bem/bem_kernels.hcu</text>
</a>
</g>
</g>
<!-- Node1&#45;&gt;Node2 -->
<g id="edge1" class="edge">
<title>Node1&#45;&gt;Node2</title>
<path fill="none" stroke="midnightblue" d="M448.7,-543.95C414.32,-531.32 369.47,-514.85 342.67,-505.01"/>
<polygon fill="midnightblue" stroke="midnightblue" points="447.5,-547.23 458.09,-547.4 449.91,-540.66 447.5,-547.23"/>
</g>
<!-- Node4 -->
<g id="node4" class="node">
<title>Node4</title>
<g id="a_node4"><a xlink:href="laplace__bem_8priv_8hcu_source.html" target="_top" xlink:title=" ">
<polygon fill="none" stroke="black" points="257,-134.5 257,-164.5 372,-164.5 372,-134.5 257,-134.5"/>
<text text-anchor="start" x="265" y="-152.5" font-family="Helvetica,sans-Serif" font-size="10.00">include/laplace/laplace</text>
<text text-anchor="middle" x="314.5" y="-141.5" font-family="Helvetica,sans-Serif" font-size="10.00">_bem.priv.hcu</text>
</a>
</g>
</g>
<!-- Node1&#45;&gt;Node4 -->
<g id="edge21" class="edge">
<title>Node1&#45;&gt;Node4</title>
<path fill="none" stroke="midnightblue" d="M515.15,-539.06C534.04,-514 560.5,-471.42 560.5,-429.5 560.5,-429.5 560.5,-429.5 560.5,-293.5 560.5,-251.53 570.93,-230.92 541.5,-201 518.25,-177.36 431.39,-163.27 372.11,-156.2"/>
<polygon fill="midnightblue" stroke="midnightblue" points="512.22,-537.13 508.84,-547.17 517.75,-541.43 512.22,-537.13"/>
</g>
<!-- Node8 -->
<g id="node8" class="node">
<title>Node8</title>
<g id="a_node8"><a xlink:href="preconditioner__for__laplace__dirichlet_8h.html" target="_top" xlink:title=" ">
<polygon fill="none" stroke="black" points="248,-201.5 248,-242.5 381,-242.5 381,-201.5 248,-201.5"/>
<text text-anchor="start" x="256" y="-230.5" font-family="Helvetica,sans-Serif" font-size="10.00">include/preconditioners</text>
<text text-anchor="start" x="256" y="-219.5" font-family="Helvetica,sans-Serif" font-size="10.00">/preconditioner_for_laplace</text>
<text text-anchor="middle" x="314.5" y="-208.5" font-family="Helvetica,sans-Serif" font-size="10.00">_dirichlet.h</text>
</a>
</g>
</g>
<!-- Node1&#45;&gt;Node8 -->
<g id="edge22" class="edge">
<title>Node1&#45;&gt;Node8</title>
<path fill="none" stroke="midnightblue" d="M485.35,-537.86C474.13,-511.89 458.5,-468.66 458.5,-429.5 458.5,-429.5 458.5,-429.5 458.5,-360.5 458.5,-304.67 401.19,-264.56 358.88,-242.56"/>
<polygon fill="midnightblue" stroke="midnightblue" points="482.26,-539.53 489.53,-547.24 488.65,-536.68 482.26,-539.53"/>
</g>
<!-- Node9 -->
<g id="node9" class="node">
<title>Node9</title>
<g id="a_node9"><a xlink:href="preconditioner__for__laplace__neumann_8h.html" target="_top" xlink:title=" ">
<polygon fill="none" stroke="black" points="399,-201.5 399,-242.5 532,-242.5 532,-201.5 399,-201.5"/>
<text text-anchor="start" x="407" y="-230.5" font-family="Helvetica,sans-Serif" font-size="10.00">include/preconditioners</text>
<text text-anchor="start" x="407" y="-219.5" font-family="Helvetica,sans-Serif" font-size="10.00">/preconditioner_for_laplace</text>
<text text-anchor="middle" x="465.5" y="-208.5" font-family="Helvetica,sans-Serif" font-size="10.00">_neumann.h</text>
</a>
</g>
</g>
<!-- Node1&#45;&gt;Node9 -->
<g id="edge23" class="edge">
<title>Node1&#45;&gt;Node9</title>
<path fill="none" stroke="midnightblue" d="M496.5,-536.99C496.5,-510.49 496.5,-467 496.5,-429.5 496.5,-429.5 496.5,-429.5 496.5,-360.5 496.5,-317.68 482.01,-269.15 472.85,-242.72"/>
<polygon fill="midnightblue" stroke="midnightblue" points="493,-537.24 496.5,-547.24 500,-537.24 493,-537.24"/>
</g>
<!-- Node14 -->
<g id="node14" class="node">
<title>Node14</title>
<g id="a_node14"><a xlink:href="ddm__efield_8h.html" target="_top" xlink:title="Introduction of ddm_efield.h.">
<polygon fill="none" stroke="black" points="589,-480.5 589,-510.5 694,-510.5 694,-480.5 589,-480.5"/>
<text text-anchor="start" x="597" y="-498.5" font-family="Helvetica,sans-Serif" font-size="10.00">include/electric_field</text>
<text text-anchor="middle" x="641.5" y="-487.5" font-family="Helvetica,sans-Serif" font-size="10.00">/ddm_efield.h</text>
</a>
</g>
</g>
<!-- Node1&#45;&gt;Node14 -->
<g id="edge20" class="edge">
<title>Node1&#45;&gt;Node14</title>
<path fill="none" stroke="midnightblue" d="M537.17,-543.27C560.26,-532.92 588.74,-520.15 610.1,-510.58"/>
<polygon fill="midnightblue" stroke="midnightblue" points="535.66,-540.11 527.96,-547.4 538.52,-546.5 535.66,-540.11"/>
</g>
<!-- Node3 -->
<g id="node3" class="node">
<title>Node3</title>
<g id="a_node3"><a xlink:href="bem__general_8hcu_source.html" target="_top" xlink:title=" ">
<polygon fill="none" stroke="black" points="246.5,-352 246.5,-371 392.5,-371 392.5,-352 246.5,-352"/>
<text text-anchor="middle" x="319.5" y="-359" font-family="Helvetica,sans-Serif" font-size="10.00">include/bem/bem_general.hcu</text>
</a>
</g>
</g>
<!-- Node2&#45;&gt;Node3 -->
<g id="edge2" class="edge">
<title>Node2&#45;&gt;Node3</title>
<path fill="none" stroke="midnightblue" d="M319.5,-475.78C319.5,-446.75 319.5,-392.04 319.5,-371.02"/>
<polygon fill="midnightblue" stroke="midnightblue" points="316,-475.84 319.5,-485.84 323,-475.84 316,-475.84"/>
</g>
<!-- Node7 -->
<g id="node7" class="node">
<title>Node7</title>
<g id="a_node7"><a xlink:href="operator__preconditioner_8h.html" target="_top" xlink:title=" ">
<polygon fill="none" stroke="black" points="255,-279.5 255,-309.5 384,-309.5 384,-279.5 255,-279.5"/>
<text text-anchor="start" x="263" y="-297.5" font-family="Helvetica,sans-Serif" font-size="10.00">include/preconditioners</text>
<text text-anchor="middle" x="319.5" y="-286.5" font-family="Helvetica,sans-Serif" font-size="10.00">/operator_preconditioner.h</text>
</a>
</g>
</g>
<!-- Node2&#45;&gt;Node7 -->
<g id="edge15" class="edge">
<title>Node2&#45;&gt;Node7</title>
<path fill="none" stroke="midnightblue" d="M335.69,-478.41C355.67,-457.29 388.59,-418.06 401.5,-377 405.63,-363.86 408.22,-358.03 401.5,-346 392.21,-329.36 374.93,-317.53 358.62,-309.52"/>
<polygon fill="midnightblue" stroke="midnightblue" points="332.95,-476.21 328.49,-485.83 337.97,-481.09 332.95,-476.21"/>
</g>
<!-- Node10 -->
<g id="node10" class="node">
<title>Node10</title>
<g id="a_node10"><a xlink:href="aca__plus_8hcu.html" target="_top" xlink:title="Implement the ACA+ method proposed in Grasedyck, L. 2005. “Adaptive Recompression of &#45;Matrices for BE...">
<polygon fill="none" stroke="black" points="0,-346.5 0,-376.5 101,-376.5 101,-346.5 0,-346.5"/>
<text text-anchor="start" x="8" y="-364.5" font-family="Helvetica,sans-Serif" font-size="10.00">include/hmatrix/aca</text>
<text text-anchor="middle" x="50.5" y="-353.5" font-family="Helvetica,sans-Serif" font-size="10.00">_plus/aca_plus.hcu</text>
</a>
</g>
</g>
<!-- Node2&#45;&gt;Node10 -->
<g id="edge11" class="edge">
<title>Node2&#45;&gt;Node10</title>
<path fill="none" stroke="midnightblue" d="M257.04,-483.81C221.9,-476.08 178.08,-463.5 142.5,-444 109.94,-426.15 79.14,-394.92 62.75,-376.74"/>
<polygon fill="midnightblue" stroke="midnightblue" points="256.67,-487.31 267.18,-485.96 258.12,-480.46 256.67,-487.31"/>
</g>
<!-- Node12 -->
<g id="node12" class="node">
<title>Node12</title>
<g id="a_node12"><a xlink:href="sauter__quadrature_8hcu_source.html" target="_top" xlink:title=" ">
<polygon fill="none" stroke="black" points="151.5,-413.5 151.5,-443.5 267.5,-443.5 267.5,-413.5 151.5,-413.5"/>
<text text-anchor="start" x="159.5" y="-431.5" font-family="Helvetica,sans-Serif" font-size="10.00">include/quadrature</text>
<text text-anchor="middle" x="209.5" y="-420.5" font-family="Helvetica,sans-Serif" font-size="10.00">/sauter_quadrature.hcu</text>
</a>
</g>
</g>
<!-- Node2&#45;&gt;Node12 -->
<g id="edge16" class="edge">
<title>Node2&#45;&gt;Node12</title>
<path fill="none" stroke="midnightblue" d="M295.98,-480.6C277.51,-469.69 251.9,-454.55 233.34,-443.59"/>
<polygon fill="midnightblue" stroke="midnightblue" points="294.28,-483.66 304.66,-485.73 297.84,-477.63 294.28,-483.66"/>
</g>
<!-- Node3&#45;&gt;Node4 -->
<g id="edge3" class="edge">
<title>Node3&#45;&gt;Node4</title>
<path fill="none" stroke="midnightblue" d="M289.14,-347.22C273.73,-338.85 256.26,-326.47 246.5,-310 231.24,-284.24 241.06,-272.9 239.5,-243 238.53,-224.36 230.73,-217.48 239.5,-201 248.13,-184.79 264.54,-172.85 279.81,-164.66"/>
<polygon fill="midnightblue" stroke="midnightblue" points="287.88,-350.51 298.38,-351.92 291.05,-344.27 287.88,-350.51"/>
</g>
<!-- Node3&#45;&gt;Node7 -->
<g id="edge6" class="edge">
<title>Node3&#45;&gt;Node7</title>
<path fill="none" stroke="midnightblue" d="M319.5,-341.41C319.5,-331.22 319.5,-318.9 319.5,-309.59"/>
<polygon fill="midnightblue" stroke="midnightblue" points="316,-341.73 319.5,-351.73 323,-341.73 316,-341.73"/>
</g>
<!-- Node5 -->
<g id="node5" class="node">
<title>Node5</title>
<g id="a_node5"><a xlink:href="laplace__bem_8impl_8hcu_source.html" target="_top" xlink:title=" ">
<polygon fill="none" stroke="black" points="257,-67.5 257,-97.5 372,-97.5 372,-67.5 257,-67.5"/>
<text text-anchor="start" x="265" y="-85.5" font-family="Helvetica,sans-Serif" font-size="10.00">include/laplace/laplace</text>
<text text-anchor="middle" x="314.5" y="-74.5" font-family="Helvetica,sans-Serif" font-size="10.00">_bem.impl.hcu</text>
</a>
</g>
</g>
<!-- Node4&#45;&gt;Node5 -->
<g id="edge4" class="edge">
<title>Node4&#45;&gt;Node5</title>
<path fill="none" stroke="midnightblue" d="M314.5,-124.11C314.5,-115.15 314.5,-105.32 314.5,-97.58"/>
<polygon fill="midnightblue" stroke="midnightblue" points="311,-124.4 314.5,-134.4 318,-124.4 311,-124.4"/>
</g>
<!-- Node6 -->
<g id="node6" class="node">
<title>Node6</title>
<g id="a_node6"><a xlink:href="laplace__bem_8cu_source.html" target="_top" xlink:title=" ">
<polygon fill="none" stroke="black" points="265.5,-0.5 265.5,-30.5 363.5,-30.5 363.5,-0.5 265.5,-0.5"/>
<text text-anchor="start" x="273.5" y="-18.5" font-family="Helvetica,sans-Serif" font-size="10.00">src/laplace/laplace</text>
<text text-anchor="middle" x="314.5" y="-7.5" font-family="Helvetica,sans-Serif" font-size="10.00">_bem.cu</text>
</a>
</g>
</g>
<!-- Node5&#45;&gt;Node6 -->
<g id="edge5" class="edge">
<title>Node5&#45;&gt;Node6</title>
<path fill="none" stroke="midnightblue" d="M314.5,-57.11C314.5,-48.15 314.5,-38.32 314.5,-30.58"/>
<polygon fill="midnightblue" stroke="midnightblue" points="311,-57.4 314.5,-67.4 318,-57.4 311,-57.4"/>
</g>
<!-- Node7&#45;&gt;Node8 -->
<g id="edge7" class="edge">
<title>Node7&#45;&gt;Node8</title>
<path fill="none" stroke="midnightblue" d="M317.76,-268.98C317.15,-260.35 316.47,-250.76 315.89,-242.59"/>
<polygon fill="midnightblue" stroke="midnightblue" points="314.29,-269.51 318.49,-279.23 321.27,-269.01 314.29,-269.51"/>
</g>
<!-- Node7&#45;&gt;Node9 -->
<g id="edge9" class="edge">
<title>Node7&#45;&gt;Node9</title>
<path fill="none" stroke="midnightblue" d="M357.82,-275C378.5,-265.01 404.02,-252.69 425.02,-242.55"/>
<polygon fill="midnightblue" stroke="midnightblue" points="356.18,-271.9 348.69,-279.4 359.22,-278.21 356.18,-271.9"/>
</g>
<!-- Node8&#45;&gt;Node4 -->
<g id="edge8" class="edge">
<title>Node8&#45;&gt;Node4</title>
<path fill="none" stroke="midnightblue" d="M314.5,-191.08C314.5,-182.01 314.5,-172.45 314.5,-164.89"/>
<polygon fill="midnightblue" stroke="midnightblue" points="311,-191.36 314.5,-201.36 318,-191.36 311,-191.36"/>
</g>
<!-- Node9&#45;&gt;Node4 -->
<g id="edge10" class="edge">
<title>Node9&#45;&gt;Node4</title>
<path fill="none" stroke="midnightblue" d="M414.13,-197.02C391.08,-186.25 364.68,-173.93 344.85,-164.67"/>
<polygon fill="midnightblue" stroke="midnightblue" points="412.9,-200.3 423.44,-201.36 415.86,-193.96 412.9,-200.3"/>
</g>
<!-- Node10&#45;&gt;Node4 -->
<g id="edge12" class="edge">
<title>Node10&#45;&gt;Node4</title>
<path fill="none" stroke="midnightblue" d="M51.27,-336.27C52.97,-318.74 57.72,-295.35 70.5,-279 118.7,-217.32 204.86,-182.01 260.83,-164.55"/>
<polygon fill="midnightblue" stroke="midnightblue" points="47.78,-336.09 50.56,-346.31 54.76,-336.58 47.78,-336.09"/>
</g>
<!-- Node10&#45;&gt;Node7 -->
<g id="edge13" class="edge">
<title>Node10&#45;&gt;Node7</title>
<path fill="none" stroke="midnightblue" d="M111,-345.88C155.91,-335.03 216.8,-320.32 261.18,-309.59"/>
<polygon fill="midnightblue" stroke="midnightblue" points="110,-342.52 101.1,-348.27 111.64,-349.33 110,-342.52"/>
</g>
<!-- Node11 -->
<g id="node11" class="node">
<title>Node11</title>
<g id="a_node11"><a xlink:href="aca__plus_8cu_source.html" target="_top" xlink:title=" ">
<polygon fill="none" stroke="black" points="79,-279.5 79,-309.5 186,-309.5 186,-279.5 79,-279.5"/>
<text text-anchor="start" x="87" y="-297.5" font-family="Helvetica,sans-Serif" font-size="10.00">src/hmatrix/aca_plus</text>
<text text-anchor="middle" x="132.5" y="-286.5" font-family="Helvetica,sans-Serif" font-size="10.00">/aca_plus.cu</text>
</a>
</g>
</g>
<!-- Node10&#45;&gt;Node11 -->
<g id="edge14" class="edge">
<title>Node10&#45;&gt;Node11</title>
<path fill="none" stroke="midnightblue" d="M76.15,-340.17C88.69,-330.23 103.47,-318.51 114.74,-309.58"/>
<polygon fill="midnightblue" stroke="midnightblue" points="73.96,-337.44 68.29,-346.4 78.3,-342.93 73.96,-337.44"/>
</g>
<!-- Node12&#45;&gt;Node3 -->
<g id="edge17" class="edge">
<title>Node12&#45;&gt;Node3</title>
<path fill="none" stroke="midnightblue" d="M241.98,-408.31C262.93,-395.93 289.16,-380.43 305.1,-371.01"/>
<polygon fill="midnightblue" stroke="midnightblue" points="240.2,-405.3 233.37,-413.4 243.76,-411.32 240.2,-405.3"/>
</g>
<!-- Node12&#45;&gt;Node10 -->
<g id="edge18" class="edge">
<title>Node12&#45;&gt;Node10</title>
<path fill="none" stroke="midnightblue" d="M165.58,-409.54C140.13,-399.14 108.57,-386.24 84.93,-376.58"/>
<polygon fill="midnightblue" stroke="midnightblue" points="164.42,-412.85 175,-413.4 167.07,-406.37 164.42,-412.85"/>
</g>
<!-- Node13 -->
<g id="node13" class="node">
<title>Node13</title>
<g id="a_node13"><a xlink:href="sauter__quadrature_8cu_source.html" target="_top" xlink:title=" ">
<polygon fill="none" stroke="black" points="119,-346.5 119,-376.5 228,-376.5 228,-346.5 119,-346.5"/>
<text text-anchor="start" x="127" y="-364.5" font-family="Helvetica,sans-Serif" font-size="10.00">src/quadrature/sauter</text>
<text text-anchor="middle" x="173.5" y="-353.5" font-family="Helvetica,sans-Serif" font-size="10.00">_quadrature.cu</text>
</a>
</g>
</g>
<!-- Node12&#45;&gt;Node13 -->
<g id="edge19" class="edge">
<title>Node12&#45;&gt;Node13</title>
<path fill="none" stroke="midnightblue" d="M196.8,-404.58C191.63,-395.24 185.82,-384.75 181.3,-376.58"/>
<polygon fill="midnightblue" stroke="midnightblue" points="193.78,-406.34 201.69,-413.4 199.91,-402.95 193.78,-406.34"/>
</g>
</g>
</svg>
