<?xml version="1.0" encoding="UTF-8" standalone="no"?>
<!DOCTYPE svg PUBLIC "-//W3C//DTD SVG 1.1//EN"
 "http://www.w3.org/Graphics/SVG/1.1/DTD/svg11.dtd">
<!-- Generated by graphviz version 2.43.0 (0)
 -->
<!-- Title: include/platform_shared/laplace_kernels.h Pages: 1 -->
<svg width="809pt" height="218pt"
 viewBox="0.00 0.00 808.66 218.00" xmlns="http://www.w3.org/2000/svg" xmlns:xlink="http://www.w3.org/1999/xlink">
<g id="graph0" class="graph" transform="scale(1 1) rotate(0) translate(4 214)">
<title>include/platform_shared/laplace_kernels.h</title>
<!-- Node1 -->
<g id="node1" class="node">
<title>Node1</title>
<g id="a_node1"><a xlink:title="Introduction of laplace_kernels.h.">
<polygon fill="#bfbfbf" stroke="black" points="187.66,-179.5 187.66,-209.5 307.66,-209.5 307.66,-179.5 187.66,-179.5"/>
<text text-anchor="start" x="195.66" y="-197.5" font-family="Helvetica,sans-Serif" font-size="10.00">include/platform_shared</text>
<text text-anchor="middle" x="247.66" y="-186.5" font-family="Helvetica,sans-Serif" font-size="10.00">/laplace_kernels.h</text>
</a>
</g>
</g>
<!-- Node2 -->
<g id="node2" class="node">
<title>Node2</title>
<g id="a_node2"><a xlink:title=" ">
<polygon fill="none" stroke="#bfbfbf" points="684.66,-0.5 684.66,-19.5 800.66,-19.5 800.66,-0.5 684.66,-0.5"/>
<text text-anchor="middle" x="742.66" y="-7.5" font-family="Helvetica,sans-Serif" font-size="10.00">deal.II/base/numbers.h</text>
</a>
</g>
</g>
<!-- Node1&#45;&gt;Node2 -->
<g id="edge1" class="edge">
<title>Node1&#45;&gt;Node2</title>
<path fill="none" stroke="midnightblue" d="M307.8,-189.81C377.34,-184.37 494.68,-171.57 591.66,-143 649.28,-126.03 673.8,-131.02 714.66,-87 729.43,-71.09 736.57,-46.73 739.91,-29.9"/>
<polygon fill="midnightblue" stroke="midnightblue" points="743.43,-30.09 741.67,-19.65 736.53,-28.91 743.43,-30.09"/>
</g>
<!-- Node3 -->
<g id="node3" class="node">
<title>Node3</title>
<g id="a_node3"><a xlink:title=" ">
<polygon fill="none" stroke="#bfbfbf" points="12.66,-123.5 12.66,-142.5 112.66,-142.5 112.66,-123.5 12.66,-123.5"/>
<text text-anchor="middle" x="62.66" y="-130.5" font-family="Helvetica,sans-Serif" font-size="10.00">deal.II/base/point.h</text>
</a>
</g>
</g>
<!-- Node1&#45;&gt;Node3 -->
<g id="edge2" class="edge">
<title>Node1&#45;&gt;Node3</title>
<path fill="none" stroke="midnightblue" d="M203.82,-179.4C171.85,-169.12 129.05,-155.35 98.99,-145.68"/>
<polygon fill="midnightblue" stroke="midnightblue" points="99.9,-142.3 89.31,-142.57 97.76,-148.96 99.9,-142.3"/>
</g>
<!-- Node4 -->
<g id="node4" class="node">
<title>Node4</title>
<g id="a_node4"><a xlink:title=" ">
<polygon fill="none" stroke="#bfbfbf" points="80.66,-62 80.66,-81 186.66,-81 186.66,-62 80.66,-62"/>
<text text-anchor="middle" x="133.66" y="-69" font-family="Helvetica,sans-Serif" font-size="10.00">deal.II/base/tensor.h</text>
</a>
</g>
</g>
<!-- Node1&#45;&gt;Node4 -->
<g id="edge3" class="edge">
<title>Node1&#45;&gt;Node4</title>
<path fill="none" stroke="midnightblue" d="M210.65,-179.35C193.16,-171.05 173.19,-159.01 159.66,-143 147.06,-128.09 140.31,-106.51 136.87,-91.16"/>
<polygon fill="midnightblue" stroke="midnightblue" points="140.29,-90.41 134.92,-81.27 133.42,-91.76 140.29,-90.41"/>
</g>
<!-- Node5 -->
<g id="node5" class="node">
<title>Node5</title>
<g id="a_node5"><a xlink:title=" ">
<polygon fill="none" stroke="#bfbfbf" points="168.66,-123.5 168.66,-142.5 220.66,-142.5 220.66,-123.5 168.66,-123.5"/>
<text text-anchor="middle" x="194.66" y="-130.5" font-family="Helvetica,sans-Serif" font-size="10.00">assert.h</text>
</a>
</g>
</g>
<!-- Node1&#45;&gt;Node5 -->
<g id="edge4" class="edge">
<title>Node1&#45;&gt;Node5</title>
<path fill="none" stroke="midnightblue" d="M235.1,-179.4C227.32,-170.66 217.3,-159.41 209.18,-150.3"/>
<polygon fill="midnightblue" stroke="midnightblue" points="211.64,-147.8 202.38,-142.66 206.41,-152.45 211.64,-147.8"/>
</g>
<!-- Node6 -->
<g id="node6" class="node">
<title>Node6</title>
<g id="a_node6"><a xlink:href="types_8h.html" target="_top" xlink:title="Definition of kernel function types of boundary integral operators in BEM.">
<polygon fill="none" stroke="black" points="369.16,-62 369.16,-81 440.16,-81 440.16,-62 369.16,-62"/>
<text text-anchor="middle" x="404.66" y="-69" font-family="Helvetica,sans-Serif" font-size="10.00">bem/types.h</text>
</a>
</g>
</g>
<!-- Node1&#45;&gt;Node6 -->
<g id="edge5" class="edge">
<title>Node1&#45;&gt;Node6</title>
<path fill="none" stroke="midnightblue" d="M307.67,-179.49C330.25,-171.78 354.76,-160.17 372.66,-143 387.34,-128.93 395.85,-106.87 400.35,-91.17"/>
<polygon fill="midnightblue" stroke="midnightblue" points="403.85,-91.64 402.95,-81.08 397.07,-89.89 403.85,-91.64"/>
</g>
<!-- Node7 -->
<g id="node7" class="node">
<title>Node7</title>
<g id="a_node7"><a xlink:href="config_8h.html" target="_top" xlink:title="Configurations for building the project.">
<polygon fill="none" stroke="black" points="348.16,-0.5 348.16,-19.5 399.16,-19.5 399.16,-0.5 348.16,-0.5"/>
<text text-anchor="middle" x="373.66" y="-7.5" font-family="Helvetica,sans-Serif" font-size="10.00">config.h</text>
</a>
</g>
</g>
<!-- Node1&#45;&gt;Node7 -->
<g id="edge7" class="edge">
<title>Node1&#45;&gt;Node7</title>
<path fill="none" stroke="midnightblue" d="M187.39,-189.54C122.78,-183.89 26.4,-170.93 3.66,-143 -1.95,-136.11 0.23,-131.2 3.66,-123 20.05,-83.86 33.7,-74.95 71.66,-56 117.79,-32.98 268.18,-18.96 337.75,-13.56"/>
<polygon fill="midnightblue" stroke="midnightblue" points="338.1,-17.04 347.8,-12.79 337.57,-10.06 338.1,-17.04"/>
</g>
<!-- Node8 -->
<g id="node8" class="node">
<title>Node8</title>
<g id="a_node8"><a xlink:href="tensor_8h.html" target="_top" xlink:title="Introduction of tensor.h.">
<polygon fill="none" stroke="black" points="239.16,-123.5 239.16,-142.5 364.16,-142.5 364.16,-123.5 239.16,-123.5"/>
<text text-anchor="middle" x="301.66" y="-130.5" font-family="Helvetica,sans-Serif" font-size="10.00">platform_shared/tensor.h</text>
</a>
</g>
</g>
<!-- Node1&#45;&gt;Node8 -->
<g id="edge8" class="edge">
<title>Node1&#45;&gt;Node8</title>
<path fill="none" stroke="midnightblue" d="M260.46,-179.4C268.39,-170.66 278.6,-159.41 286.87,-150.3"/>
<polygon fill="midnightblue" stroke="midnightblue" points="289.68,-152.42 293.81,-142.66 284.49,-147.71 289.68,-152.42"/>
</g>
<!-- Node10 -->
<g id="node10" class="node">
<title>Node10</title>
<g id="a_node10"><a xlink:href="utilities_8h.html" target="_top" xlink:title="Introduction of utilities.h.">
<polygon fill="none" stroke="black" points="454.66,-123.5 454.66,-142.5 582.66,-142.5 582.66,-123.5 454.66,-123.5"/>
<text text-anchor="middle" x="518.66" y="-130.5" font-family="Helvetica,sans-Serif" font-size="10.00">platform_shared/utilities.h</text>
</a>
</g>
</g>
<!-- Node1&#45;&gt;Node10 -->
<g id="edge12" class="edge">
<title>Node1&#45;&gt;Node10</title>
<path fill="none" stroke="midnightblue" d="M307.81,-180.3C356.52,-169.6 424.28,-154.72 469.71,-144.75"/>
<polygon fill="midnightblue" stroke="midnightblue" points="470.6,-148.14 479.62,-142.57 469.1,-141.3 470.6,-148.14"/>
</g>
<!-- Node6&#45;&gt;Node7 -->
<g id="edge6" class="edge">
<title>Node6&#45;&gt;Node7</title>
<path fill="none" stroke="midnightblue" d="M400.22,-61.98C395.71,-53.32 388.59,-39.65 382.86,-28.65"/>
<polygon fill="midnightblue" stroke="midnightblue" points="385.82,-26.76 378.1,-19.51 379.61,-29.99 385.82,-26.76"/>
</g>
<!-- Node8&#45;&gt;Node4 -->
<g id="edge10" class="edge">
<title>Node8&#45;&gt;Node4</title>
<path fill="none" stroke="midnightblue" d="M277.59,-123.48C248.65,-113.22 199.9,-95.96 167.26,-84.4"/>
<polygon fill="midnightblue" stroke="midnightblue" points="168.28,-81.05 157.69,-81.01 165.95,-87.65 168.28,-81.05"/>
</g>
<!-- Node8&#45;&gt;Node7 -->
<g id="edge11" class="edge">
<title>Node8&#45;&gt;Node7</title>
<path fill="none" stroke="midnightblue" d="M278.21,-123.41C262.5,-116.28 243.05,-104.46 233.66,-87 227.14,-74.86 225.55,-67.13 233.66,-56 257.34,-23.52 304.86,-13.97 337.93,-11.43"/>
<polygon fill="midnightblue" stroke="midnightblue" points="338.33,-14.91 348.11,-10.83 337.92,-7.92 338.33,-14.91"/>
</g>
<!-- Node9 -->
<g id="node9" class="node">
<title>Node9</title>
<g id="a_node9"><a xlink:title=" ">
<polygon fill="none" stroke="#bfbfbf" points="242.66,-56.5 242.66,-86.5 350.66,-86.5 350.66,-56.5 242.66,-56.5"/>
<text text-anchor="start" x="250.66" y="-74.5" font-family="Helvetica,sans-Serif" font-size="10.00">deal.II/base/template</text>
<text text-anchor="middle" x="296.66" y="-63.5" font-family="Helvetica,sans-Serif" font-size="10.00">_constraints.h</text>
</a>
</g>
</g>
<!-- Node8&#45;&gt;Node9 -->
<g id="edge9" class="edge">
<title>Node8&#45;&gt;Node9</title>
<path fill="none" stroke="midnightblue" d="M300.95,-123.48C300.36,-116.47 299.5,-106.19 298.7,-96.7"/>
<polygon fill="midnightblue" stroke="midnightblue" points="302.17,-96.19 297.84,-86.52 295.19,-96.78 302.17,-96.19"/>
</g>
<!-- Node10&#45;&gt;Node2 -->
<g id="edge13" class="edge">
<title>Node10&#45;&gt;Node2</title>
<path fill="none" stroke="midnightblue" d="M582.69,-124.88C615.66,-118.82 655.21,-107.63 685.66,-87 707.58,-72.16 724.42,-46.05 733.94,-28.64"/>
<polygon fill="midnightblue" stroke="midnightblue" points="737.16,-30.03 738.67,-19.55 730.95,-26.8 737.16,-30.03"/>
</g>
<!-- Node10&#45;&gt;Node7 -->
<g id="edge15" class="edge">
<title>Node10&#45;&gt;Node7</title>
<path fill="none" stroke="midnightblue" d="M512.01,-123.27C500.31,-108.3 474.81,-77.3 448.66,-56 433.69,-43.81 415.09,-32.63 400.16,-24.46"/>
<polygon fill="midnightblue" stroke="midnightblue" points="401.42,-21.17 390.95,-19.55 398.13,-27.34 401.42,-21.17"/>
</g>
<!-- Node11 -->
<g id="node11" class="node">
<title>Node11</title>
<g id="a_node11"><a xlink:title=" ">
<polygon fill="none" stroke="#bfbfbf" points="496.66,-62 496.66,-81 540.66,-81 540.66,-62 496.66,-62"/>
<text text-anchor="middle" x="518.66" y="-69" font-family="Helvetica,sans-Serif" font-size="10.00">cmath</text>
</a>
</g>
</g>
<!-- Node10&#45;&gt;Node11 -->
<g id="edge14" class="edge">
<title>Node10&#45;&gt;Node11</title>
<path fill="none" stroke="midnightblue" d="M518.66,-123.48C518.66,-115.08 518.66,-101.98 518.66,-91.16"/>
<polygon fill="midnightblue" stroke="midnightblue" points="522.16,-91.01 518.66,-81.01 515.16,-91.01 522.16,-91.01"/>
</g>
<!-- Node12 -->
<g id="node12" class="node">
<title>Node12</title>
<g id="a_node12"><a xlink:href="number__traits_8h.html" target="_top" xlink:title="Definition of ranks for different types of numbers.">
<polygon fill="none" stroke="black" points="558.66,-62 558.66,-81 676.66,-81 676.66,-62 558.66,-62"/>
<text text-anchor="middle" x="617.66" y="-69" font-family="Helvetica,sans-Serif" font-size="10.00">utilities/number_traits.h</text>
</a>
</g>
</g>
<!-- Node10&#45;&gt;Node12 -->
<g id="edge16" class="edge">
<title>Node10&#45;&gt;Node12</title>
<path fill="none" stroke="midnightblue" d="M532.85,-123.48C549.02,-113.75 575.69,-97.73 594.81,-86.24"/>
<polygon fill="midnightblue" stroke="midnightblue" points="596.74,-89.16 603.51,-81.01 593.13,-83.16 596.74,-89.16"/>
</g>
<!-- Node12&#45;&gt;Node2 -->
<g id="edge17" class="edge">
<title>Node12&#45;&gt;Node2</title>
<path fill="none" stroke="midnightblue" d="M635.57,-61.98C656.55,-51.99 691.51,-35.35 715.76,-23.81"/>
<polygon fill="midnightblue" stroke="midnightblue" points="717.26,-26.97 724.79,-19.51 714.25,-20.65 717.26,-26.97"/>
</g>
<!-- Node12&#45;&gt;Node7 -->
<g id="edge20" class="edge">
<title>Node12&#45;&gt;Node7</title>
<path fill="none" stroke="midnightblue" d="M581.18,-61.99C541.21,-52.61 474.96,-36.9 408.99,-20.3"/>
<polygon fill="midnightblue" stroke="midnightblue" points="409.82,-16.9 399.27,-17.84 408.11,-23.68 409.82,-16.9"/>
</g>
<!-- Node13 -->
<g id="node13" class="node">
<title>Node13</title>
<g id="a_node13"><a xlink:title=" ">
<polygon fill="none" stroke="#bfbfbf" points="417.16,-0.5 417.16,-19.5 470.16,-19.5 470.16,-0.5 417.16,-0.5"/>
<text text-anchor="middle" x="443.66" y="-7.5" font-family="Helvetica,sans-Serif" font-size="10.00">complex</text>
</a>
</g>
</g>
<!-- Node12&#45;&gt;Node13 -->
<g id="edge18" class="edge">
<title>Node12&#45;&gt;Node13</title>
<path fill="none" stroke="midnightblue" d="M592.73,-61.98C562.63,-51.68 511.83,-34.31 478.03,-22.75"/>
<polygon fill="midnightblue" stroke="midnightblue" points="479.14,-19.43 468.55,-19.51 476.88,-26.06 479.14,-19.43"/>
</g>
<!-- Node14 -->
<g id="node14" class="node">
<title>Node14</title>
<g id="a_node14"><a xlink:title=" ">
<polygon fill="none" stroke="#bfbfbf" points="488.66,-0.5 488.66,-19.5 550.66,-19.5 550.66,-0.5 488.66,-0.5"/>
<text text-anchor="middle" x="519.66" y="-7.5" font-family="Helvetica,sans-Serif" font-size="10.00">type_traits</text>
</a>
</g>
</g>
<!-- Node12&#45;&gt;Node14 -->
<g id="edge19" class="edge">
<title>Node12&#45;&gt;Node14</title>
<path fill="none" stroke="midnightblue" d="M603.62,-61.98C587.61,-52.25 561.21,-36.23 542.29,-24.74"/>
<polygon fill="midnightblue" stroke="midnightblue" points="544.04,-21.71 533.68,-19.51 540.41,-27.69 544.04,-21.71"/>
</g>
<!-- Node15 -->
<g id="node15" class="node">
<title>Node15</title>
<g id="a_node15"><a xlink:title=" ">
<polygon fill="none" stroke="#bfbfbf" points="568.66,-0.5 568.66,-19.5 666.66,-19.5 666.66,-0.5 568.66,-0.5"/>
<text text-anchor="middle" x="617.66" y="-7.5" font-family="Helvetica,sans-Serif" font-size="10.00">cuda_complex.hcu</text>
</a>
</g>
</g>
<!-- Node12&#45;&gt;Node15 -->
<g id="edge21" class="edge">
<title>Node12&#45;&gt;Node15</title>
<path fill="none" stroke="midnightblue" d="M617.66,-61.98C617.66,-53.58 617.66,-40.48 617.66,-29.66"/>
<polygon fill="midnightblue" stroke="midnightblue" points="621.16,-29.51 617.66,-19.51 614.16,-29.51 621.16,-29.51"/>
</g>
</g>
</svg>
