<?xml version="1.0" encoding="UTF-8" standalone="no"?>
<!DOCTYPE svg PUBLIC "-//W3C//DTD SVG 1.1//EN"
 "http://www.w3.org/Graphics/SVG/1.1/DTD/svg11.dtd">
<!-- Generated by graphviz version 2.43.0 (0)
 -->
<!-- Title: include/linear_algebra/linalg.h Pages: 1 -->
<svg width="959pt" height="452pt"
 viewBox="0.00 0.00 959.01 452.00" xmlns="http://www.w3.org/2000/svg" xmlns:xlink="http://www.w3.org/1999/xlink">
<g id="graph0" class="graph" transform="scale(1 1) rotate(0) translate(4 448)">
<title>include/linear_algebra/linalg.h</title>
<!-- Node1 -->
<g id="node1" class="node">
<title>Node1</title>
<g id="a_node1"><a xlink:title=" ">
<polygon fill="#bfbfbf" stroke="black" points="386.51,-413.5 386.51,-443.5 496.51,-443.5 496.51,-413.5 386.51,-413.5"/>
<text text-anchor="start" x="394.51" y="-431.5" font-family="Helvetica,sans-Serif" font-size="10.00">include/linear_algebra</text>
<text text-anchor="middle" x="441.51" y="-420.5" font-family="Helvetica,sans-Serif" font-size="10.00">/linalg.h</text>
</a>
</g>
</g>
<!-- Node2 -->
<g id="node2" class="node">
<title>Node2</title>
<g id="a_node2"><a xlink:href="bem__general_8hcu_source.html" target="_top" xlink:title=" ">
<polygon fill="none" stroke="black" points="58.51,-352 58.51,-371 204.51,-371 204.51,-352 58.51,-352"/>
<text text-anchor="middle" x="131.51" y="-359" font-family="Helvetica,sans-Serif" font-size="10.00">include/bem/bem_general.hcu</text>
</a>
</g>
</g>
<!-- Node1&#45;&gt;Node2 -->
<g id="edge1" class="edge">
<title>Node1&#45;&gt;Node2</title>
<path fill="none" stroke="midnightblue" d="M376.43,-413.86C314.82,-400.94 224.22,-381.94 172.22,-371.04"/>
<polygon fill="midnightblue" stroke="midnightblue" points="375.94,-417.33 386.44,-415.95 377.37,-410.48 375.94,-417.33"/>
</g>
<!-- Node3 -->
<g id="node3" class="node">
<title>Node3</title>
<g id="a_node3"><a xlink:href="laplace__bem_8priv_8hcu_source.html" target="_top" xlink:title=" ">
<polygon fill="none" stroke="black" points="371.01,-134.5 371.01,-164.5 486.01,-164.5 486.01,-134.5 371.01,-134.5"/>
<text text-anchor="start" x="379.01" y="-152.5" font-family="Helvetica,sans-Serif" font-size="10.00">include/laplace/laplace</text>
<text text-anchor="middle" x="428.51" y="-141.5" font-family="Helvetica,sans-Serif" font-size="10.00">_bem.priv.hcu</text>
</a>
</g>
</g>
<!-- Node1&#45;&gt;Node3 -->
<g id="edge18" class="edge">
<title>Node1&#45;&gt;Node3</title>
<path fill="none" stroke="midnightblue" d="M376.08,-423.72C270.14,-416.94 70.69,-401.09 49.51,-377 17.17,-340.24 -52.33,-323.38 70.51,-201 111.64,-160.02 280.28,-151.9 370.66,-150.54"/>
<polygon fill="midnightblue" stroke="midnightblue" points="376.14,-427.23 386.34,-424.37 376.58,-420.25 376.14,-427.23"/>
</g>
<!-- Node9 -->
<g id="node9" class="node">
<title>Node9</title>
<g id="a_node9"><a xlink:href="aca__plus_8hcu.html" target="_top" xlink:title="Implement the ACA+ method proposed in Grasedyck, L. 2005. “Adaptive Recompression of &#45;Matrices for BE...">
<polygon fill="none" stroke="black" points="352.01,-346.5 352.01,-376.5 453.01,-376.5 453.01,-346.5 352.01,-346.5"/>
<text text-anchor="start" x="360.01" y="-364.5" font-family="Helvetica,sans-Serif" font-size="10.00">include/hmatrix/aca</text>
<text text-anchor="middle" x="402.51" y="-353.5" font-family="Helvetica,sans-Serif" font-size="10.00">_plus/aca_plus.hcu</text>
</a>
</g>
</g>
<!-- Node1&#45;&gt;Node9 -->
<g id="edge10" class="edge">
<title>Node1&#45;&gt;Node9</title>
<path fill="none" stroke="midnightblue" d="M427.75,-404.58C422.15,-395.24 415.86,-384.75 410.95,-376.58"/>
<polygon fill="midnightblue" stroke="midnightblue" points="424.9,-406.62 433.04,-413.4 430.9,-403.02 424.9,-406.62"/>
</g>
<!-- Node11 -->
<g id="node11" class="node">
<title>Node11</title>
<g id="a_node11"><a xlink:href="hblockmatrix__skew__symm_8h.html" target="_top" xlink:title="Introduction of hblockmatrix_skew_symm.h.">
<polygon fill="none" stroke="black" points="434.01,-279.5 434.01,-309.5 575.01,-309.5 575.01,-279.5 434.01,-279.5"/>
<text text-anchor="start" x="442.01" y="-297.5" font-family="Helvetica,sans-Serif" font-size="10.00">include/hmatrix/hblockmatrix</text>
<text text-anchor="middle" x="504.51" y="-286.5" font-family="Helvetica,sans-Serif" font-size="10.00">_skew_symm.h</text>
</a>
</g>
</g>
<!-- Node1&#45;&gt;Node11 -->
<g id="edge14" class="edge">
<title>Node1&#45;&gt;Node11</title>
<path fill="none" stroke="midnightblue" d="M452.67,-404.12C465.76,-376.68 487.04,-332.09 497.81,-309.52"/>
<polygon fill="midnightblue" stroke="midnightblue" points="449.4,-402.84 448.25,-413.37 455.71,-405.86 449.4,-402.84"/>
</g>
<!-- Node12 -->
<g id="node12" class="node">
<title>Node12</title>
<g id="a_node12"><a xlink:href="hblockmatrix__skew__symm__preconditioner_8h.html" target="_top" xlink:title="Introduction of hblockmatrix_skew_symm_preconditioner.h.">
<polygon fill="none" stroke="black" points="475.51,-207 475.51,-237 685.51,-237 685.51,-207 475.51,-207"/>
<text text-anchor="start" x="483.51" y="-225" font-family="Helvetica,sans-Serif" font-size="10.00">include/hmatrix/preconditioner</text>
<text text-anchor="middle" x="580.51" y="-214" font-family="Helvetica,sans-Serif" font-size="10.00">/hblockmatrix_skew_symm_preconditioner.h</text>
</a>
</g>
</g>
<!-- Node1&#45;&gt;Node12 -->
<g id="edge16" class="edge">
<title>Node1&#45;&gt;Node12</title>
<path fill="none" stroke="midnightblue" d="M480.08,-408.49C514.64,-389.06 563.08,-355.34 584.51,-310 595.68,-286.35 589.93,-254.93 585.02,-237.05"/>
<polygon fill="midnightblue" stroke="midnightblue" points="478.27,-405.48 471.18,-413.35 481.63,-411.63 478.27,-405.48"/>
</g>
<!-- Node13 -->
<g id="node13" class="node">
<title>Node13</title>
<g id="a_node13"><a xlink:href="data__out__ext_8h_source.html" target="_top" xlink:title=" ">
<polygon fill="none" stroke="black" points="631.51,-279.5 631.51,-309.5 747.51,-309.5 747.51,-279.5 631.51,-279.5"/>
<text text-anchor="start" x="639.51" y="-297.5" font-family="Helvetica,sans-Serif" font-size="10.00">include/postprocessing</text>
<text text-anchor="middle" x="689.51" y="-286.5" font-family="Helvetica,sans-Serif" font-size="10.00">/data_out_ext.h</text>
</a>
</g>
</g>
<!-- Node1&#45;&gt;Node13 -->
<g id="edge19" class="edge">
<title>Node1&#45;&gt;Node13</title>
<path fill="none" stroke="midnightblue" d="M506.85,-417.9C541.68,-410.6 584.12,-398.09 617.51,-377 645.44,-359.36 668.83,-327.75 680.83,-309.52"/>
<polygon fill="midnightblue" stroke="midnightblue" points="505.89,-414.52 496.77,-419.91 507.26,-421.38 505.89,-414.52"/>
</g>
<!-- Node14 -->
<g id="node14" class="node">
<title>Node14</title>
<g id="a_node14"><a xlink:href="solver__cg__general_8h.html" target="_top" xlink:title="CG solver which can handle complex values.">
<polygon fill="none" stroke="black" points="739.01,-346.5 739.01,-376.5 850.01,-376.5 850.01,-346.5 739.01,-346.5"/>
<text text-anchor="start" x="747.01" y="-364.5" font-family="Helvetica,sans-Serif" font-size="10.00">include/solvers/solver</text>
<text text-anchor="middle" x="794.51" y="-353.5" font-family="Helvetica,sans-Serif" font-size="10.00">_cg_general.h</text>
</a>
</g>
</g>
<!-- Node1&#45;&gt;Node14 -->
<g id="edge21" class="edge">
<title>Node1&#45;&gt;Node14</title>
<path fill="none" stroke="midnightblue" d="M506.64,-415.51C573.32,-403.23 675.86,-384.35 738.86,-372.75"/>
<polygon fill="midnightblue" stroke="midnightblue" points="505.86,-412.09 496.66,-417.34 507.13,-418.97 505.86,-412.09"/>
</g>
<!-- Node17 -->
<g id="node17" class="node">
<title>Node17</title>
<g id="a_node17"><a xlink:href="solver__gmres__general_8h.html" target="_top" xlink:title="GMRES solver which can handle complex values.">
<polygon fill="none" stroke="black" points="223.01,-346.5 223.01,-376.5 334.01,-376.5 334.01,-346.5 223.01,-346.5"/>
<text text-anchor="start" x="231.01" y="-364.5" font-family="Helvetica,sans-Serif" font-size="10.00">include/solvers/solver</text>
<text text-anchor="middle" x="278.51" y="-353.5" font-family="Helvetica,sans-Serif" font-size="10.00">_gmres_general.h</text>
</a>
</g>
</g>
<!-- Node1&#45;&gt;Node17 -->
<g id="edge27" class="edge">
<title>Node1&#45;&gt;Node17</title>
<path fill="none" stroke="midnightblue" d="M396.82,-409.68C370.68,-399.26 338.14,-386.28 313.81,-376.58"/>
<polygon fill="midnightblue" stroke="midnightblue" points="395.55,-412.94 406.14,-413.4 398.15,-406.44 395.55,-412.94"/>
</g>
<!-- Node2&#45;&gt;Node3 -->
<g id="edge2" class="edge">
<title>Node2&#45;&gt;Node3</title>
<path fill="none" stroke="midnightblue" d="M118.06,-343.42C94.73,-311.6 52.54,-242.71 88.51,-201 124.26,-159.54 283.45,-151.57 370.75,-150.38"/>
<polygon fill="midnightblue" stroke="midnightblue" points="115.5,-345.83 124.32,-351.7 121.08,-341.61 115.5,-345.83"/>
</g>
<!-- Node6 -->
<g id="node6" class="node">
<title>Node6</title>
<g id="a_node6"><a xlink:href="operator__preconditioner_8h.html" target="_top" xlink:title=" ">
<polygon fill="none" stroke="black" points="123.01,-279.5 123.01,-309.5 252.01,-309.5 252.01,-279.5 123.01,-279.5"/>
<text text-anchor="start" x="131.01" y="-297.5" font-family="Helvetica,sans-Serif" font-size="10.00">include/preconditioners</text>
<text text-anchor="middle" x="187.51" y="-286.5" font-family="Helvetica,sans-Serif" font-size="10.00">/operator_preconditioner.h</text>
</a>
</g>
</g>
<!-- Node2&#45;&gt;Node6 -->
<g id="edge5" class="edge">
<title>Node2&#45;&gt;Node6</title>
<path fill="none" stroke="midnightblue" d="M145.73,-343.99C154.88,-333.36 166.66,-319.7 175.37,-309.59"/>
<polygon fill="midnightblue" stroke="midnightblue" points="142.93,-341.87 139.06,-351.73 148.24,-346.44 142.93,-341.87"/>
</g>
<!-- Node4 -->
<g id="node4" class="node">
<title>Node4</title>
<g id="a_node4"><a xlink:href="laplace__bem_8impl_8hcu_source.html" target="_top" xlink:title=" ">
<polygon fill="none" stroke="black" points="371.01,-67.5 371.01,-97.5 486.01,-97.5 486.01,-67.5 371.01,-67.5"/>
<text text-anchor="start" x="379.01" y="-85.5" font-family="Helvetica,sans-Serif" font-size="10.00">include/laplace/laplace</text>
<text text-anchor="middle" x="428.51" y="-74.5" font-family="Helvetica,sans-Serif" font-size="10.00">_bem.impl.hcu</text>
</a>
</g>
</g>
<!-- Node3&#45;&gt;Node4 -->
<g id="edge3" class="edge">
<title>Node3&#45;&gt;Node4</title>
<path fill="none" stroke="midnightblue" d="M428.51,-124.11C428.51,-115.15 428.51,-105.32 428.51,-97.58"/>
<polygon fill="midnightblue" stroke="midnightblue" points="425.01,-124.4 428.51,-134.4 432.01,-124.4 425.01,-124.4"/>
</g>
<!-- Node5 -->
<g id="node5" class="node">
<title>Node5</title>
<g id="a_node5"><a xlink:href="laplace__bem_8cu_source.html" target="_top" xlink:title=" ">
<polygon fill="none" stroke="black" points="379.51,-0.5 379.51,-30.5 477.51,-30.5 477.51,-0.5 379.51,-0.5"/>
<text text-anchor="start" x="387.51" y="-18.5" font-family="Helvetica,sans-Serif" font-size="10.00">src/laplace/laplace</text>
<text text-anchor="middle" x="428.51" y="-7.5" font-family="Helvetica,sans-Serif" font-size="10.00">_bem.cu</text>
</a>
</g>
</g>
<!-- Node4&#45;&gt;Node5 -->
<g id="edge4" class="edge">
<title>Node4&#45;&gt;Node5</title>
<path fill="none" stroke="midnightblue" d="M428.51,-57.11C428.51,-48.15 428.51,-38.32 428.51,-30.58"/>
<polygon fill="midnightblue" stroke="midnightblue" points="425.01,-57.4 428.51,-67.4 432.01,-57.4 425.01,-57.4"/>
</g>
<!-- Node7 -->
<g id="node7" class="node">
<title>Node7</title>
<g id="a_node7"><a xlink:href="preconditioner__for__laplace__dirichlet_8h.html" target="_top" xlink:title=" ">
<polygon fill="none" stroke="black" points="97.01,-201.5 97.01,-242.5 230.01,-242.5 230.01,-201.5 97.01,-201.5"/>
<text text-anchor="start" x="105.01" y="-230.5" font-family="Helvetica,sans-Serif" font-size="10.00">include/preconditioners</text>
<text text-anchor="start" x="105.01" y="-219.5" font-family="Helvetica,sans-Serif" font-size="10.00">/preconditioner_for_laplace</text>
<text text-anchor="middle" x="163.51" y="-208.5" font-family="Helvetica,sans-Serif" font-size="10.00">_dirichlet.h</text>
</a>
</g>
</g>
<!-- Node6&#45;&gt;Node7 -->
<g id="edge6" class="edge">
<title>Node6&#45;&gt;Node7</title>
<path fill="none" stroke="midnightblue" d="M179.35,-269.56C176.37,-260.77 173.02,-250.94 170.17,-242.59"/>
<polygon fill="midnightblue" stroke="midnightblue" points="176.11,-270.89 182.65,-279.23 182.74,-268.64 176.11,-270.89"/>
</g>
<!-- Node8 -->
<g id="node8" class="node">
<title>Node8</title>
<g id="a_node8"><a xlink:href="preconditioner__for__laplace__neumann_8h.html" target="_top" xlink:title=" ">
<polygon fill="none" stroke="black" points="248.01,-201.5 248.01,-242.5 381.01,-242.5 381.01,-201.5 248.01,-201.5"/>
<text text-anchor="start" x="256.01" y="-230.5" font-family="Helvetica,sans-Serif" font-size="10.00">include/preconditioners</text>
<text text-anchor="start" x="256.01" y="-219.5" font-family="Helvetica,sans-Serif" font-size="10.00">/preconditioner_for_laplace</text>
<text text-anchor="middle" x="314.51" y="-208.5" font-family="Helvetica,sans-Serif" font-size="10.00">_neumann.h</text>
</a>
</g>
</g>
<!-- Node6&#45;&gt;Node8 -->
<g id="edge8" class="edge">
<title>Node6&#45;&gt;Node8</title>
<path fill="none" stroke="midnightblue" d="M221.78,-274.47C239.52,-264.63 261.15,-252.62 279.05,-242.68"/>
<polygon fill="midnightblue" stroke="midnightblue" points="219.95,-271.49 212.9,-279.4 223.34,-277.61 219.95,-271.49"/>
</g>
<!-- Node7&#45;&gt;Node3 -->
<g id="edge7" class="edge">
<title>Node7&#45;&gt;Node3</title>
<path fill="none" stroke="midnightblue" d="M239.74,-200.72C283.29,-189.13 336.8,-174.9 375.72,-164.54"/>
<polygon fill="midnightblue" stroke="midnightblue" points="238.8,-197.35 230.03,-203.3 240.6,-204.11 238.8,-197.35"/>
</g>
<!-- Node8&#45;&gt;Node3 -->
<g id="edge9" class="edge">
<title>Node8&#45;&gt;Node3</title>
<path fill="none" stroke="midnightblue" d="M354.92,-196.01C371.93,-185.49 391.09,-173.64 405.59,-164.67"/>
<polygon fill="midnightblue" stroke="midnightblue" points="352.93,-193.13 346.26,-201.36 356.61,-199.08 352.93,-193.13"/>
</g>
<!-- Node9&#45;&gt;Node3 -->
<g id="edge11" class="edge">
<title>Node9&#45;&gt;Node3</title>
<path fill="none" stroke="midnightblue" d="M342.34,-343.88C325.95,-336.3 310.09,-325.44 300.51,-310 293.24,-298.29 292.78,-290.41 300.51,-279 324.66,-243.33 359.9,-273.32 390.51,-243 412.58,-221.13 422.36,-184.62 426.25,-164.63"/>
<polygon fill="midnightblue" stroke="midnightblue" points="341.43,-347.3 352.01,-347.98 344.16,-340.86 341.43,-347.3"/>
</g>
<!-- Node9&#45;&gt;Node6 -->
<g id="edge12" class="edge">
<title>Node9&#45;&gt;Node6</title>
<path fill="none" stroke="midnightblue" d="M346.54,-343.58C311.62,-333.02 267.2,-319.59 234.18,-309.61"/>
<polygon fill="midnightblue" stroke="midnightblue" points="345.53,-346.93 356.12,-346.48 347.56,-340.23 345.53,-346.93"/>
</g>
<!-- Node10 -->
<g id="node10" class="node">
<title>Node10</title>
<g id="a_node10"><a xlink:href="aca__plus_8cu_source.html" target="_top" xlink:title=" ">
<polygon fill="none" stroke="black" points="309.01,-279.5 309.01,-309.5 416.01,-309.5 416.01,-279.5 309.01,-279.5"/>
<text text-anchor="start" x="317.01" y="-297.5" font-family="Helvetica,sans-Serif" font-size="10.00">src/hmatrix/aca_plus</text>
<text text-anchor="middle" x="362.51" y="-286.5" font-family="Helvetica,sans-Serif" font-size="10.00">/aca_plus.cu</text>
</a>
</g>
</g>
<!-- Node9&#45;&gt;Node10 -->
<g id="edge13" class="edge">
<title>Node9&#45;&gt;Node10</title>
<path fill="none" stroke="midnightblue" d="M388.58,-337.87C382.79,-328.46 376.25,-317.83 371.17,-309.58"/>
<polygon fill="midnightblue" stroke="midnightblue" points="385.6,-339.71 393.83,-346.4 391.57,-336.05 385.6,-339.71"/>
</g>
<!-- Node11&#45;&gt;Node3 -->
<g id="edge15" class="edge">
<title>Node11&#45;&gt;Node3</title>
<path fill="none" stroke="midnightblue" d="M485.81,-271.22C479.2,-262.72 472.04,-252.73 466.51,-243 451.56,-216.75 439.38,-183.45 433.11,-164.81"/>
<polygon fill="midnightblue" stroke="midnightblue" points="483.17,-273.53 492.15,-279.16 488.64,-269.17 483.17,-273.53"/>
</g>
<!-- Node12&#45;&gt;Node3 -->
<g id="edge17" class="edge">
<title>Node12&#45;&gt;Node3</title>
<path fill="none" stroke="midnightblue" d="M541.02,-202.69C515.37,-190.79 482.44,-175.52 458.85,-164.57"/>
<polygon fill="midnightblue" stroke="midnightblue" points="539.57,-205.87 550.11,-206.9 542.51,-199.52 539.57,-205.87"/>
</g>
<!-- Node13&#45;&gt;Node3 -->
<g id="edge20" class="edge">
<title>Node13&#45;&gt;Node3</title>
<path fill="none" stroke="midnightblue" d="M698.89,-269.88C705.34,-249.34 710.21,-219.97 694.51,-201 668.57,-169.68 556.21,-157.63 486.08,-153.11"/>
<polygon fill="midnightblue" stroke="midnightblue" points="695.54,-268.85 695.57,-279.45 702.16,-271.14 695.54,-268.85"/>
</g>
<!-- Node14&#45;&gt;Node3 -->
<g id="edge22" class="edge">
<title>Node14&#45;&gt;Node3</title>
<path fill="none" stroke="midnightblue" d="M789.53,-336.02C780.84,-300.09 759.28,-233.76 713.51,-201 677.9,-175.52 558.73,-161.33 486.24,-154.87"/>
<polygon fill="midnightblue" stroke="midnightblue" points="786.2,-337.16 791.83,-346.13 793.02,-335.6 786.2,-337.16"/>
</g>
<!-- Node15 -->
<g id="node15" class="node">
<title>Node15</title>
<g id="a_node15"><a xlink:href="schur__complement_8h_source.html" target="_top" xlink:title=" ">
<polygon fill="none" stroke="black" points="842.01,-279.5 842.01,-309.5 951.01,-309.5 951.01,-279.5 842.01,-279.5"/>
<text text-anchor="start" x="850.01" y="-297.5" font-family="Helvetica,sans-Serif" font-size="10.00">include/solvers/schur</text>
<text text-anchor="middle" x="896.51" y="-286.5" font-family="Helvetica,sans-Serif" font-size="10.00">_complement.h</text>
</a>
</g>
</g>
<!-- Node14&#45;&gt;Node15 -->
<g id="edge23" class="edge">
<title>Node14&#45;&gt;Node15</title>
<path fill="none" stroke="midnightblue" d="M825.08,-341.02C840.96,-330.9 859.99,-318.77 874.42,-309.58"/>
<polygon fill="midnightblue" stroke="midnightblue" points="823.19,-338.07 816.64,-346.4 826.95,-343.97 823.19,-338.07"/>
</g>
<!-- Node16 -->
<g id="node16" class="node">
<title>Node16</title>
<g id="a_node16"><a xlink:href="solve__hblockmatrix__skew__symm_8h_source.html" target="_top" xlink:title=" ">
<polygon fill="none" stroke="black" points="803.51,-207 803.51,-237 949.51,-237 949.51,-207 803.51,-207"/>
<text text-anchor="start" x="811.51" y="-225" font-family="Helvetica,sans-Serif" font-size="10.00">include/solvers/solve</text>
<text text-anchor="middle" x="876.51" y="-214" font-family="Helvetica,sans-Serif" font-size="10.00">_hblockmatrix_skew_symm.h</text>
</a>
</g>
</g>
<!-- Node14&#45;&gt;Node16 -->
<g id="edge26" class="edge">
<title>Node14&#45;&gt;Node16</title>
<path fill="none" stroke="midnightblue" d="M804.2,-336.97C811.44,-320.32 822.02,-297.71 833.51,-279 842.74,-263.96 855.19,-248.12 864.32,-237.14"/>
<polygon fill="midnightblue" stroke="midnightblue" points="800.85,-335.92 800.15,-346.49 807.29,-338.66 800.85,-335.92"/>
</g>
<!-- Node15&#45;&gt;Node16 -->
<g id="edge24" class="edge">
<title>Node15&#45;&gt;Node16</title>
<path fill="none" stroke="midnightblue" d="M889.72,-269.56C886.67,-258.82 883.18,-246.51 880.55,-237.25"/>
<polygon fill="midnightblue" stroke="midnightblue" points="886.36,-270.57 892.46,-279.23 893.1,-268.66 886.36,-270.57"/>
</g>
<!-- Node16&#45;&gt;Node3 -->
<g id="edge25" class="edge">
<title>Node16&#45;&gt;Node3</title>
<path fill="none" stroke="midnightblue" d="M808.56,-204.78C802.13,-203.43 795.71,-202.14 789.51,-201 683.09,-181.36 557.77,-165.43 486.28,-157.01"/>
<polygon fill="midnightblue" stroke="midnightblue" points="808.11,-208.27 818.62,-206.96 809.59,-201.42 808.11,-208.27"/>
</g>
<!-- Node17&#45;&gt;Node6 -->
<g id="edge28" class="edge">
<title>Node17&#45;&gt;Node6</title>
<path fill="none" stroke="midnightblue" d="M250.44,-340.45C236.44,-330.45 219.85,-318.6 207.21,-309.58"/>
<polygon fill="midnightblue" stroke="midnightblue" points="248.59,-343.43 258.76,-346.4 252.66,-337.74 248.59,-343.43"/>
</g>
</g>
</svg>
