<?xml version="1.0" encoding="UTF-8" standalone="no"?>
<!DOCTYPE svg PUBLIC "-//W3C//DTD SVG 1.1//EN"
 "http://www.w3.org/Graphics/SVG/1.1/DTD/svg11.dtd">
<!-- Generated by graphviz version 2.43.0 (0)
 -->
<!-- Title: include/mapping/mapping_info.h Pages: 1 -->
<svg width="1068pt" height="709pt"
 viewBox="0.00 0.00 1067.87 709.00" xmlns="http://www.w3.org/2000/svg" xmlns:xlink="http://www.w3.org/1999/xlink">
<g id="graph0" class="graph" transform="scale(1 1) rotate(0) translate(4 705)">
<title>include/mapping/mapping_info.h</title>
<!-- Node1 -->
<g id="node1" class="node">
<title>Node1</title>
<g id="a_node1"><a xlink:title="Introduction of mapping_info.h.">
<polygon fill="#bfbfbf" stroke="black" points="480.5,-670.5 480.5,-700.5 607.5,-700.5 607.5,-670.5 480.5,-670.5"/>
<text text-anchor="start" x="488.5" y="-688.5" font-family="Helvetica,sans-Serif" font-size="10.00">include/mapping/mapping</text>
<text text-anchor="middle" x="544" y="-677.5" font-family="Helvetica,sans-Serif" font-size="10.00">_info.h</text>
</a>
</g>
</g>
<!-- Node2 -->
<g id="node2" class="node">
<title>Node2</title>
<g id="a_node2"><a xlink:href="bem__general_8hcu_source.html" target="_top" xlink:title=" ">
<polygon fill="none" stroke="black" points="509,-352 509,-371 655,-371 655,-352 509,-352"/>
<text text-anchor="middle" x="582" y="-359" font-family="Helvetica,sans-Serif" font-size="10.00">include/bem/bem_general.hcu</text>
</a>
</g>
</g>
<!-- Node1&#45;&gt;Node2 -->
<g id="edge1" class="edge">
<title>Node1&#45;&gt;Node2</title>
<path fill="none" stroke="midnightblue" d="M567.71,-663.3C590.01,-640.92 620,-603.39 620,-563.5 620,-563.5 620,-563.5 620,-494.5 620,-446.33 596.34,-391.99 586.36,-371.21"/>
<polygon fill="midnightblue" stroke="midnightblue" points="565.23,-660.82 560.49,-670.3 570.11,-665.85 565.23,-660.82"/>
</g>
<!-- Node3 -->
<g id="node3" class="node">
<title>Node3</title>
<g id="a_node3"><a xlink:href="laplace__bem_8priv_8hcu_source.html" target="_top" xlink:title=" ">
<polygon fill="none" stroke="black" points="470.5,-134.5 470.5,-164.5 585.5,-164.5 585.5,-134.5 470.5,-134.5"/>
<text text-anchor="start" x="478.5" y="-152.5" font-family="Helvetica,sans-Serif" font-size="10.00">include/laplace/laplace</text>
<text text-anchor="middle" x="528" y="-141.5" font-family="Helvetica,sans-Serif" font-size="10.00">_bem.priv.hcu</text>
</a>
</g>
</g>
<!-- Node1&#45;&gt;Node3 -->
<g id="edge45" class="edge">
<title>Node1&#45;&gt;Node3</title>
<path fill="none" stroke="midnightblue" d="M470.18,-682.1C329.74,-675.52 38,-651.29 38,-563.5 38,-563.5 38,-563.5 38,-293.5 38,-238.85 70.71,-226.58 119,-201 178.59,-169.43 372.17,-156.97 470.12,-152.6"/>
<polygon fill="midnightblue" stroke="midnightblue" points="470.28,-685.61 480.43,-682.56 470.59,-678.62 470.28,-685.61"/>
</g>
<!-- Node4 -->
<g id="node4" class="node">
<title>Node4</title>
<g id="a_node4"><a xlink:href="laplace__bem_8impl_8hcu_source.html" target="_top" xlink:title=" ">
<polygon fill="none" stroke="black" points="633.5,-67.5 633.5,-97.5 748.5,-97.5 748.5,-67.5 633.5,-67.5"/>
<text text-anchor="start" x="641.5" y="-85.5" font-family="Helvetica,sans-Serif" font-size="10.00">include/laplace/laplace</text>
<text text-anchor="middle" x="691" y="-74.5" font-family="Helvetica,sans-Serif" font-size="10.00">_bem.impl.hcu</text>
</a>
</g>
</g>
<!-- Node1&#45;&gt;Node4 -->
<g id="edge44" class="edge">
<title>Node1&#45;&gt;Node4</title>
<path fill="none" stroke="midnightblue" d="M470.09,-682.09C356.59,-677.46 145.35,-664.89 77,-634 34.72,-614.89 0,-609.9 0,-563.5 0,-563.5 0,-563.5 0,-221 0,-92.26 467.2,-82.27 633.27,-82.79"/>
<polygon fill="midnightblue" stroke="midnightblue" points="469.96,-685.59 480.09,-682.49 470.23,-678.6 469.96,-685.59"/>
</g>
<!-- Node6 -->
<g id="node6" class="node">
<title>Node6</title>
<g id="a_node6"><a xlink:href="operator__preconditioner_8h.html" target="_top" xlink:title=" ">
<polygon fill="none" stroke="black" points="416.5,-279.5 416.5,-309.5 545.5,-309.5 545.5,-279.5 416.5,-279.5"/>
<text text-anchor="start" x="424.5" y="-297.5" font-family="Helvetica,sans-Serif" font-size="10.00">include/preconditioners</text>
<text text-anchor="middle" x="481" y="-286.5" font-family="Helvetica,sans-Serif" font-size="10.00">/operator_preconditioner.h</text>
</a>
</g>
</g>
<!-- Node1&#45;&gt;Node6 -->
<g id="edge46" class="edge">
<title>Node1&#45;&gt;Node6</title>
<path fill="none" stroke="midnightblue" d="M542.86,-659.76C540.83,-621.16 535.74,-544.34 525,-480 517.24,-433.54 510.9,-422.83 500,-377 494.38,-353.4 488.01,-325.91 484.26,-309.64"/>
<polygon fill="midnightblue" stroke="midnightblue" points="539.38,-660.21 543.38,-670.03 546.37,-659.86 539.38,-660.21"/>
</g>
<!-- Node9 -->
<g id="node9" class="node">
<title>Node9</title>
<g id="a_node9"><a xlink:href="bem__values_8hcu_source.html" target="_top" xlink:title=" ">
<polygon fill="none" stroke="black" points="282.5,-614.5 282.5,-633.5 425.5,-633.5 425.5,-614.5 282.5,-614.5"/>
<text text-anchor="middle" x="354" y="-621.5" font-family="Helvetica,sans-Serif" font-size="10.00">include/bem/bem_values.hcu</text>
</a>
</g>
</g>
<!-- Node1&#45;&gt;Node9 -->
<g id="edge10" class="edge">
<title>Node1&#45;&gt;Node9</title>
<path fill="none" stroke="midnightblue" d="M489.27,-667.36C453.92,-656.29 409.46,-642.37 381.37,-633.57"/>
<polygon fill="midnightblue" stroke="midnightblue" points="488.38,-670.75 498.97,-670.4 490.48,-664.07 488.38,-670.75"/>
</g>
<!-- Node11 -->
<g id="node11" class="node">
<title>Node11</title>
<g id="a_node11"><a xlink:href="aca__plus_8hcu.html" target="_top" xlink:title="Implement the ACA+ method proposed in Grasedyck, L. 2005. “Adaptive Recompression of &#45;Matrices for BE...">
<polygon fill="none" stroke="black" points="186.5,-346.5 186.5,-376.5 287.5,-376.5 287.5,-346.5 186.5,-346.5"/>
<text text-anchor="start" x="194.5" y="-364.5" font-family="Helvetica,sans-Serif" font-size="10.00">include/hmatrix/aca</text>
<text text-anchor="middle" x="237" y="-353.5" font-family="Helvetica,sans-Serif" font-size="10.00">_plus/aca_plus.hcu</text>
</a>
</g>
</g>
<!-- Node1&#45;&gt;Node11 -->
<g id="edge42" class="edge">
<title>Node1&#45;&gt;Node11</title>
<path fill="none" stroke="midnightblue" d="M469.99,-678.94C347.02,-667.63 114,-636.57 114,-563.5 114,-563.5 114,-563.5 114,-494.5 114,-439.06 172.8,-397.18 209.09,-376.61"/>
<polygon fill="midnightblue" stroke="midnightblue" points="469.82,-682.43 480.09,-679.84 470.44,-675.46 469.82,-682.43"/>
</g>
<!-- Node17 -->
<g id="node17" class="node">
<title>Node17</title>
<g id="a_node17"><a xlink:href="dof__tools__ext_8h.html" target="_top" xlink:title="Introduction of dof_tools_ext.h.">
<polygon fill="none" stroke="black" points="684,-413.5 684,-443.5 796,-443.5 796,-413.5 684,-413.5"/>
<text text-anchor="start" x="692" y="-431.5" font-family="Helvetica,sans-Serif" font-size="10.00">include/dofs/dof_tools</text>
<text text-anchor="middle" x="740" y="-420.5" font-family="Helvetica,sans-Serif" font-size="10.00">_ext.h</text>
</a>
</g>
</g>
<!-- Node1&#45;&gt;Node17 -->
<g id="edge31" class="edge">
<title>Node1&#45;&gt;Node17</title>
<path fill="none" stroke="midnightblue" d="M588.73,-665.92C604.43,-657.82 621.3,-647.13 634,-634 691,-575.08 724.68,-479.39 735.84,-443.6"/>
<polygon fill="midnightblue" stroke="midnightblue" points="587.09,-662.83 579.67,-670.39 590.19,-669.1 587.09,-662.83"/>
</g>
<!-- Node18 -->
<g id="node18" class="node">
<title>Node18</title>
<g id="a_node18"><a xlink:href="ddm__efield_8h.html" target="_top" xlink:title="Introduction of ddm_efield.h.">
<polygon fill="none" stroke="black" points="939.5,-346.5 939.5,-376.5 1044.5,-376.5 1044.5,-346.5 939.5,-346.5"/>
<text text-anchor="start" x="947.5" y="-364.5" font-family="Helvetica,sans-Serif" font-size="10.00">include/electric_field</text>
<text text-anchor="middle" x="992" y="-353.5" font-family="Helvetica,sans-Serif" font-size="10.00">/ddm_efield.h</text>
</a>
</g>
</g>
<!-- Node1&#45;&gt;Node18 -->
<g id="edge41" class="edge">
<title>Node1&#45;&gt;Node18</title>
<path fill="none" stroke="midnightblue" d="M617.7,-681.56C754.74,-674.08 1035,-648.4 1035,-563.5 1035,-563.5 1035,-563.5 1035,-494.5 1035,-449.67 1012.3,-400.3 999.89,-376.66"/>
<polygon fill="midnightblue" stroke="midnightblue" points="617.49,-678.07 607.69,-682.09 617.86,-685.06 617.49,-678.07"/>
</g>
<!-- Node19 -->
<g id="node19" class="node">
<title>Node19</title>
<g id="a_node19"><a xlink:href="laplace__bem_8h.html" target="_top" xlink:title="Implementation of BEM involving kernel functions and singular numerical quadratures.">
<polygon fill="none" stroke="black" points="749.5,-279.5 749.5,-309.5 864.5,-309.5 864.5,-279.5 749.5,-279.5"/>
<text text-anchor="start" x="757.5" y="-297.5" font-family="Helvetica,sans-Serif" font-size="10.00">include/laplace/laplace</text>
<text text-anchor="middle" x="807" y="-286.5" font-family="Helvetica,sans-Serif" font-size="10.00">_bem.h</text>
</a>
</g>
</g>
<!-- Node1&#45;&gt;Node19 -->
<g id="edge43" class="edge">
<title>Node1&#45;&gt;Node19</title>
<path fill="none" stroke="midnightblue" d="M610.86,-667.71C726.47,-634.62 960.32,-548.77 1054,-377 1060.6,-364.9 1062.71,-356.67 1054,-346 1030.54,-317.26 929.87,-304.44 864.51,-299.06"/>
<polygon fill="midnightblue" stroke="midnightblue" points="609.73,-664.39 601.06,-670.47 611.63,-671.13 609.73,-664.39"/>
</g>
<!-- Node2&#45;&gt;Node3 -->
<g id="edge2" class="edge">
<title>Node2&#45;&gt;Node3</title>
<path fill="none" stroke="midnightblue" d="M581.26,-341.54C579.57,-311.1 574.17,-249.78 557,-201 552.44,-188.03 544.54,-174.59 538.13,-164.84"/>
<polygon fill="midnightblue" stroke="midnightblue" points="577.78,-342.11 581.75,-351.93 584.77,-341.78 577.78,-342.11"/>
</g>
<!-- Node2&#45;&gt;Node6 -->
<g id="edge5" class="edge">
<title>Node2&#45;&gt;Node6</title>
<path fill="none" stroke="midnightblue" d="M559.71,-346.15C542.8,-335.27 519.7,-320.4 502.89,-309.59"/>
<polygon fill="midnightblue" stroke="midnightblue" points="558.08,-349.27 568.38,-351.73 561.86,-343.38 558.08,-349.27"/>
</g>
<!-- Node3&#45;&gt;Node4 -->
<g id="edge3" class="edge">
<title>Node3&#45;&gt;Node4</title>
<path fill="none" stroke="midnightblue" d="M572.68,-130.68C598.83,-120.26 631.37,-107.28 655.7,-97.58"/>
<polygon fill="midnightblue" stroke="midnightblue" points="571.36,-127.44 563.37,-134.4 573.95,-133.94 571.36,-127.44"/>
</g>
<!-- Node5 -->
<g id="node5" class="node">
<title>Node5</title>
<g id="a_node5"><a xlink:href="laplace__bem_8cu_source.html" target="_top" xlink:title=" ">
<polygon fill="none" stroke="black" points="642,-0.5 642,-30.5 740,-30.5 740,-0.5 642,-0.5"/>
<text text-anchor="start" x="650" y="-18.5" font-family="Helvetica,sans-Serif" font-size="10.00">src/laplace/laplace</text>
<text text-anchor="middle" x="691" y="-7.5" font-family="Helvetica,sans-Serif" font-size="10.00">_bem.cu</text>
</a>
</g>
</g>
<!-- Node4&#45;&gt;Node5 -->
<g id="edge4" class="edge">
<title>Node4&#45;&gt;Node5</title>
<path fill="none" stroke="midnightblue" d="M691,-57.11C691,-48.15 691,-38.32 691,-30.58"/>
<polygon fill="midnightblue" stroke="midnightblue" points="687.5,-57.4 691,-67.4 694.5,-57.4 687.5,-57.4"/>
</g>
<!-- Node7 -->
<g id="node7" class="node">
<title>Node7</title>
<g id="a_node7"><a xlink:href="preconditioner__for__laplace__dirichlet_8h.html" target="_top" xlink:title=" ">
<polygon fill="none" stroke="black" points="414.5,-201.5 414.5,-242.5 547.5,-242.5 547.5,-201.5 414.5,-201.5"/>
<text text-anchor="start" x="422.5" y="-230.5" font-family="Helvetica,sans-Serif" font-size="10.00">include/preconditioners</text>
<text text-anchor="start" x="422.5" y="-219.5" font-family="Helvetica,sans-Serif" font-size="10.00">/preconditioner_for_laplace</text>
<text text-anchor="middle" x="481" y="-208.5" font-family="Helvetica,sans-Serif" font-size="10.00">_dirichlet.h</text>
</a>
</g>
</g>
<!-- Node6&#45;&gt;Node7 -->
<g id="edge6" class="edge">
<title>Node6&#45;&gt;Node7</title>
<path fill="none" stroke="midnightblue" d="M481,-268.98C481,-260.35 481,-250.76 481,-242.59"/>
<polygon fill="midnightblue" stroke="midnightblue" points="477.5,-269.23 481,-279.23 484.5,-269.23 477.5,-269.23"/>
</g>
<!-- Node8 -->
<g id="node8" class="node">
<title>Node8</title>
<g id="a_node8"><a xlink:href="preconditioner__for__laplace__neumann_8h.html" target="_top" xlink:title=" ">
<polygon fill="none" stroke="black" points="604.5,-201.5 604.5,-242.5 737.5,-242.5 737.5,-201.5 604.5,-201.5"/>
<text text-anchor="start" x="612.5" y="-230.5" font-family="Helvetica,sans-Serif" font-size="10.00">include/preconditioners</text>
<text text-anchor="start" x="612.5" y="-219.5" font-family="Helvetica,sans-Serif" font-size="10.00">/preconditioner_for_laplace</text>
<text text-anchor="middle" x="671" y="-208.5" font-family="Helvetica,sans-Serif" font-size="10.00">_neumann.h</text>
</a>
</g>
</g>
<!-- Node6&#45;&gt;Node8 -->
<g id="edge8" class="edge">
<title>Node6&#45;&gt;Node8</title>
<path fill="none" stroke="midnightblue" d="M528.7,-275.8C555.98,-265.68 590.25,-252.96 618.32,-242.55"/>
<polygon fill="midnightblue" stroke="midnightblue" points="527.15,-272.64 518.99,-279.4 529.59,-279.21 527.15,-272.64"/>
</g>
<!-- Node7&#45;&gt;Node3 -->
<g id="edge7" class="edge">
<title>Node7&#45;&gt;Node3</title>
<path fill="none" stroke="midnightblue" d="M499.77,-192.85C506.16,-183.26 513.04,-172.94 518.41,-164.89"/>
<polygon fill="midnightblue" stroke="midnightblue" points="496.73,-191.1 494.09,-201.36 502.55,-194.98 496.73,-191.1"/>
</g>
<!-- Node8&#45;&gt;Node3 -->
<g id="edge9" class="edge">
<title>Node8&#45;&gt;Node3</title>
<path fill="none" stroke="midnightblue" d="M622.06,-196.87C600.3,-186.15 575.44,-173.89 556.74,-164.67"/>
<polygon fill="midnightblue" stroke="midnightblue" points="620.65,-200.08 631.17,-201.36 623.74,-193.8 620.65,-200.08"/>
</g>
<!-- Node9&#45;&gt;Node2 -->
<g id="edge11" class="edge">
<title>Node9&#45;&gt;Node2</title>
<path fill="none" stroke="midnightblue" d="M384.39,-610.26C422.23,-592.97 486.55,-558.67 525,-511 561.23,-466.08 576.3,-395.53 580.61,-371.14"/>
<polygon fill="midnightblue" stroke="midnightblue" points="382.63,-607.21 374.92,-614.48 385.48,-613.61 382.63,-607.21"/>
</g>
<!-- Node9&#45;&gt;Node3 -->
<g id="edge28" class="edge">
<title>Node9&#45;&gt;Node3</title>
<path fill="none" stroke="midnightblue" d="M278.94,-612.35C249.53,-605.73 216.56,-595.07 190,-578 120,-533.02 76,-512.71 76,-429.5 76,-429.5 76,-429.5 76,-293.5 76,-211.71 348.44,-170.72 470.29,-156.48"/>
<polygon fill="midnightblue" stroke="midnightblue" points="278.25,-615.79 288.76,-614.45 279.71,-608.94 278.25,-615.79"/>
</g>
<!-- Node10 -->
<g id="node10" class="node">
<title>Node10</title>
<g id="a_node10"><a xlink:href="bem__kernels_8hcu_source.html" target="_top" xlink:title=" ">
<polygon fill="none" stroke="black" points="370,-486 370,-505 516,-505 516,-486 370,-486"/>
<text text-anchor="middle" x="443" y="-493" font-family="Helvetica,sans-Serif" font-size="10.00">include/bem/bem_kernels.hcu</text>
</a>
</g>
</g>
<!-- Node9&#45;&gt;Node10 -->
<g id="edge12" class="edge">
<title>Node9&#45;&gt;Node10</title>
<path fill="none" stroke="midnightblue" d="M365.88,-606.12C385.06,-578.86 422.19,-526.08 436.84,-505.26"/>
<polygon fill="midnightblue" stroke="midnightblue" points="363.01,-604.11 360.12,-614.31 368.73,-608.14 363.01,-604.11"/>
</g>
<!-- Node13 -->
<g id="node13" class="node">
<title>Node13</title>
<g id="a_node13"><a xlink:href="sauter__quadrature_8hcu_source.html" target="_top" xlink:title=" ">
<polygon fill="none" stroke="black" points="300,-413.5 300,-443.5 416,-443.5 416,-413.5 300,-413.5"/>
<text text-anchor="start" x="308" y="-431.5" font-family="Helvetica,sans-Serif" font-size="10.00">include/quadrature</text>
<text text-anchor="middle" x="358" y="-420.5" font-family="Helvetica,sans-Serif" font-size="10.00">/sauter_quadrature.hcu</text>
</a>
</g>
</g>
<!-- Node9&#45;&gt;Node13 -->
<g id="edge29" class="edge">
<title>Node9&#45;&gt;Node13</title>
<path fill="none" stroke="midnightblue" d="M354.39,-604.11C355.19,-565.41 357,-477.89 357.71,-443.63"/>
<polygon fill="midnightblue" stroke="midnightblue" points="350.88,-604.37 354.18,-614.44 357.88,-604.51 350.88,-604.37"/>
</g>
<!-- Node15 -->
<g id="node15" class="node">
<title>Node15</title>
<g id="a_node15"><a xlink:href="cu__bem__values_8hcu.html" target="_top" xlink:title="Introduction of cu_bem_values.hcu.">
<polygon fill="none" stroke="black" points="218.5,-547.5 218.5,-577.5 325.5,-577.5 325.5,-547.5 218.5,-547.5"/>
<text text-anchor="start" x="226.5" y="-565.5" font-family="Helvetica,sans-Serif" font-size="10.00">include/bem/cu_bem</text>
<text text-anchor="middle" x="272" y="-554.5" font-family="Helvetica,sans-Serif" font-size="10.00">_values.hcu</text>
</a>
</g>
</g>
<!-- Node9&#45;&gt;Node15 -->
<g id="edge23" class="edge">
<title>Node9&#45;&gt;Node15</title>
<path fill="none" stroke="midnightblue" d="M333.97,-608.47C320.99,-599.05 304.17,-586.84 291.33,-577.52"/>
<polygon fill="midnightblue" stroke="midnightblue" points="332.1,-611.43 342.25,-614.48 336.21,-605.77 332.1,-611.43"/>
</g>
<!-- Node16 -->
<g id="node16" class="node">
<title>Node16</title>
<g id="a_node16"><a xlink:href="cu__debug__tools_8hcu_source.html" target="_top" xlink:title=" ">
<polygon fill="none" stroke="black" points="142.5,-480.5 142.5,-510.5 237.5,-510.5 237.5,-480.5 142.5,-480.5"/>
<text text-anchor="start" x="150.5" y="-498.5" font-family="Helvetica,sans-Serif" font-size="10.00">include/utilities/cu</text>
<text text-anchor="middle" x="190" y="-487.5" font-family="Helvetica,sans-Serif" font-size="10.00">_debug_tools.hcu</text>
</a>
</g>
</g>
<!-- Node9&#45;&gt;Node16 -->
<g id="edge30" class="edge">
<title>Node9&#45;&gt;Node16</title>
<path fill="none" stroke="midnightblue" d="M272.65,-612.85C249.68,-606.28 226.48,-595.54 210,-578 192.64,-559.53 189.64,-528.51 189.5,-510.54"/>
<polygon fill="midnightblue" stroke="midnightblue" points="271.9,-616.27 282.46,-615.42 273.67,-609.5 271.9,-616.27"/>
</g>
<!-- Node10&#45;&gt;Node2 -->
<g id="edge13" class="edge">
<title>Node10&#45;&gt;Node2</title>
<path fill="none" stroke="midnightblue" d="M459.58,-478.76C489.16,-450.66 550.11,-392.78 573.03,-371.02"/>
<polygon fill="midnightblue" stroke="midnightblue" points="456.96,-476.41 452.12,-485.84 461.78,-481.49 456.96,-476.41"/>
</g>
<!-- Node10&#45;&gt;Node6 -->
<g id="edge18" class="edge">
<title>Node10&#45;&gt;Node6</title>
<path fill="none" stroke="midnightblue" d="M445.37,-475.65C449.08,-447.32 456.9,-392.19 467,-346 469.72,-333.56 473.65,-319.62 476.66,-309.55"/>
<polygon fill="midnightblue" stroke="midnightblue" points="441.88,-475.37 444.07,-485.73 448.82,-476.26 441.88,-475.37"/>
</g>
<!-- Node10&#45;&gt;Node11 -->
<g id="edge14" class="edge">
<title>Node10&#45;&gt;Node11</title>
<path fill="none" stroke="midnightblue" d="M380.6,-483.62C351.21,-476.16 316.99,-463.89 291,-444 267.55,-426.05 251.03,-394.85 242.85,-376.7"/>
<polygon fill="midnightblue" stroke="midnightblue" points="379.82,-487.04 390.36,-485.97 381.46,-480.23 379.82,-487.04"/>
</g>
<!-- Node10&#45;&gt;Node13 -->
<g id="edge19" class="edge">
<title>Node10&#45;&gt;Node13</title>
<path fill="none" stroke="midnightblue" d="M423.44,-479.54C409.29,-468.73 390.3,-454.2 376.42,-443.59"/>
<polygon fill="midnightblue" stroke="midnightblue" points="421.47,-482.44 431.54,-485.73 425.72,-476.88 421.47,-482.44"/>
</g>
<!-- Node11&#45;&gt;Node3 -->
<g id="edge15" class="edge">
<title>Node11&#45;&gt;Node3</title>
<path fill="none" stroke="midnightblue" d="M263.64,-340.33C275.1,-331.36 288.48,-320.47 300,-310 350.01,-264.56 350.07,-238.93 406,-201 429.24,-185.24 458.17,-173 482.03,-164.52"/>
<polygon fill="midnightblue" stroke="midnightblue" points="261.45,-337.6 255.69,-346.49 265.74,-343.13 261.45,-337.6"/>
</g>
<!-- Node11&#45;&gt;Node6 -->
<g id="edge16" class="edge">
<title>Node11&#45;&gt;Node6</title>
<path fill="none" stroke="midnightblue" d="M297.24,-344.45C337.47,-333.74 389.86,-319.78 428.4,-309.51"/>
<polygon fill="midnightblue" stroke="midnightblue" points="296.32,-341.08 287.56,-347.03 298.12,-347.84 296.32,-341.08"/>
</g>
<!-- Node12 -->
<g id="node12" class="node">
<title>Node12</title>
<g id="a_node12"><a xlink:href="aca__plus_8cu_source.html" target="_top" xlink:title=" ">
<polygon fill="none" stroke="black" points="183.5,-279.5 183.5,-309.5 290.5,-309.5 290.5,-279.5 183.5,-279.5"/>
<text text-anchor="start" x="191.5" y="-297.5" font-family="Helvetica,sans-Serif" font-size="10.00">src/hmatrix/aca_plus</text>
<text text-anchor="middle" x="237" y="-286.5" font-family="Helvetica,sans-Serif" font-size="10.00">/aca_plus.cu</text>
</a>
</g>
</g>
<!-- Node11&#45;&gt;Node12 -->
<g id="edge17" class="edge">
<title>Node11&#45;&gt;Node12</title>
<path fill="none" stroke="midnightblue" d="M237,-336.11C237,-327.15 237,-317.32 237,-309.58"/>
<polygon fill="midnightblue" stroke="midnightblue" points="233.5,-336.4 237,-346.4 240.5,-336.4 233.5,-336.4"/>
</g>
<!-- Node13&#45;&gt;Node2 -->
<g id="edge20" class="edge">
<title>Node13&#45;&gt;Node2</title>
<path fill="none" stroke="midnightblue" d="M416,-410.67C459.78,-397.97 518.03,-381.06 552.61,-371.03"/>
<polygon fill="midnightblue" stroke="midnightblue" points="414.96,-407.33 406.33,-413.48 416.91,-414.05 414.96,-407.33"/>
</g>
<!-- Node13&#45;&gt;Node11 -->
<g id="edge21" class="edge">
<title>Node13&#45;&gt;Node11</title>
<path fill="none" stroke="midnightblue" d="M322.77,-408.57C303.74,-398.35 280.63,-385.94 263.2,-376.58"/>
<polygon fill="midnightblue" stroke="midnightblue" points="321.28,-411.75 331.74,-413.4 324.59,-405.58 321.28,-411.75"/>
</g>
<!-- Node14 -->
<g id="node14" class="node">
<title>Node14</title>
<g id="a_node14"><a xlink:href="sauter__quadrature_8cu_source.html" target="_top" xlink:title=" ">
<polygon fill="none" stroke="black" points="305.5,-346.5 305.5,-376.5 414.5,-376.5 414.5,-346.5 305.5,-346.5"/>
<text text-anchor="start" x="313.5" y="-364.5" font-family="Helvetica,sans-Serif" font-size="10.00">src/quadrature/sauter</text>
<text text-anchor="middle" x="360" y="-353.5" font-family="Helvetica,sans-Serif" font-size="10.00">_quadrature.cu</text>
</a>
</g>
</g>
<!-- Node13&#45;&gt;Node14 -->
<g id="edge22" class="edge">
<title>Node13&#45;&gt;Node14</title>
<path fill="none" stroke="midnightblue" d="M358.75,-403.11C359.03,-394.15 359.33,-384.32 359.57,-376.58"/>
<polygon fill="midnightblue" stroke="midnightblue" points="355.24,-403.29 358.43,-413.4 362.24,-403.51 355.24,-403.29"/>
</g>
<!-- Node15&#45;&gt;Node10 -->
<g id="edge24" class="edge">
<title>Node15&#45;&gt;Node10</title>
<path fill="none" stroke="midnightblue" d="M318.61,-543.78C351.76,-531.18 394.84,-514.81 420.62,-505.01"/>
<polygon fill="midnightblue" stroke="midnightblue" points="317.21,-540.57 309.1,-547.4 319.7,-547.11 317.21,-540.57"/>
</g>
<!-- Node15&#45;&gt;Node11 -->
<g id="edge25" class="edge">
<title>Node15&#45;&gt;Node11</title>
<path fill="none" stroke="midnightblue" d="M267.74,-537.27C260.36,-495.29 245.41,-410.33 239.49,-376.68"/>
<polygon fill="midnightblue" stroke="midnightblue" points="264.3,-537.95 269.48,-547.19 271.2,-536.73 264.3,-537.95"/>
</g>
<!-- Node15&#45;&gt;Node13 -->
<g id="edge26" class="edge">
<title>Node15&#45;&gt;Node13</title>
<path fill="none" stroke="midnightblue" d="M286.77,-538.83C304.6,-511.47 334.03,-466.28 348.86,-443.52"/>
<polygon fill="midnightblue" stroke="midnightblue" points="283.73,-537.08 281.2,-547.37 289.59,-540.91 283.73,-537.08"/>
</g>
<!-- Node15&#45;&gt;Node16 -->
<g id="edge27" class="edge">
<title>Node15&#45;&gt;Node16</title>
<path fill="none" stroke="midnightblue" d="M246.35,-541.17C233.81,-531.23 219.03,-519.51 207.76,-510.58"/>
<polygon fill="midnightblue" stroke="midnightblue" points="244.2,-543.93 254.21,-547.4 248.54,-538.44 244.2,-543.93"/>
</g>
<!-- Node17&#45;&gt;Node2 -->
<g id="edge32" class="edge">
<title>Node17&#45;&gt;Node2</title>
<path fill="none" stroke="midnightblue" d="M696.15,-409.46C665.62,-396.9 626.3,-380.72 602.68,-371.01"/>
<polygon fill="midnightblue" stroke="midnightblue" points="695.14,-412.83 705.72,-413.4 697.8,-406.35 695.14,-412.83"/>
</g>
<!-- Node17&#45;&gt;Node4 -->
<g id="edge37" class="edge">
<title>Node17&#45;&gt;Node4</title>
<path fill="none" stroke="midnightblue" d="M806.19,-420.3C836.3,-413.7 870.03,-401.09 892,-377 917.07,-349.52 911,-332.69 911,-295.5 911,-295.5 911,-295.5 911,-221 911,-144.32 813.7,-108.82 748.52,-93.64"/>
<polygon fill="midnightblue" stroke="midnightblue" points="805.26,-416.92 796.14,-422.32 806.63,-423.78 805.26,-416.92"/>
</g>
<!-- Node17&#45;&gt;Node6 -->
<g id="edge38" class="edge">
<title>Node17&#45;&gt;Node6</title>
<path fill="none" stroke="midnightblue" d="M724.76,-405.28C710.96,-386.8 689,-361.15 664,-346 628.06,-324.22 582.53,-311.61 545.87,-304.44"/>
<polygon fill="midnightblue" stroke="midnightblue" points="721.98,-407.41 730.69,-413.46 727.65,-403.3 721.98,-407.41"/>
</g>
<!-- Node17&#45;&gt;Node8 -->
<g id="edge39" class="edge">
<title>Node17&#45;&gt;Node8</title>
<path fill="none" stroke="midnightblue" d="M732.01,-403.82C718.27,-363.08 690.41,-280.51 677.65,-242.71"/>
<polygon fill="midnightblue" stroke="midnightblue" points="728.74,-405.09 735.26,-413.44 735.38,-402.85 728.74,-405.09"/>
</g>
<!-- Node17&#45;&gt;Node18 -->
<g id="edge33" class="edge">
<title>Node17&#45;&gt;Node18</title>
<path fill="none" stroke="midnightblue" d="M804.2,-410.94C846.1,-400.13 900.11,-386.2 939.45,-376.05"/>
<polygon fill="midnightblue" stroke="midnightblue" points="803.18,-407.59 794.37,-413.48 804.93,-414.37 803.18,-407.59"/>
</g>
<!-- Node17&#45;&gt;Node19 -->
<g id="edge34" class="edge">
<title>Node17&#45;&gt;Node19</title>
<path fill="none" stroke="midnightblue" d="M750.84,-403.88C758.47,-387.51 769.05,-365.28 779,-346 785.43,-333.53 793.21,-319.59 798.93,-309.53"/>
<polygon fill="midnightblue" stroke="midnightblue" points="747.54,-402.69 746.51,-413.24 753.89,-405.64 747.54,-402.69"/>
</g>
<!-- Node20 -->
<g id="node20" class="node">
<title>Node20</title>
<g id="a_node20"><a xlink:href="dof__tools__ext_8cc_source.html" target="_top" xlink:title=" ">
<polygon fill="none" stroke="black" points="787.5,-346.5 787.5,-376.5 882.5,-376.5 882.5,-346.5 787.5,-346.5"/>
<text text-anchor="start" x="795.5" y="-364.5" font-family="Helvetica,sans-Serif" font-size="10.00">src/dofs/dof_tools</text>
<text text-anchor="middle" x="835" y="-353.5" font-family="Helvetica,sans-Serif" font-size="10.00">_ext.cc</text>
</a>
</g>
</g>
<!-- Node17&#45;&gt;Node20 -->
<g id="edge40" class="edge">
<title>Node17&#45;&gt;Node20</title>
<path fill="none" stroke="midnightblue" d="M768.89,-407.73C783.59,-397.68 801.11,-385.68 814.43,-376.58"/>
<polygon fill="midnightblue" stroke="midnightblue" points="766.89,-404.86 760.61,-413.4 770.84,-410.64 766.89,-404.86"/>
</g>
<!-- Node19&#45;&gt;Node3 -->
<g id="edge36" class="edge">
<title>Node19&#45;&gt;Node3</title>
<path fill="none" stroke="midnightblue" d="M797.93,-270.13C788.44,-248.83 771.5,-218.16 747,-201 699.38,-167.65 633,-156.01 585.84,-152.11"/>
<polygon fill="midnightblue" stroke="midnightblue" points="794.75,-271.61 801.88,-279.45 801.2,-268.88 794.75,-271.61"/>
</g>
<!-- Node19&#45;&gt;Node4 -->
<g id="edge35" class="edge">
<title>Node19&#45;&gt;Node4</title>
<path fill="none" stroke="midnightblue" d="M801.87,-269.72C797.18,-250.52 789.27,-223.15 778,-201 757.28,-160.28 722.69,-118.73 703.97,-97.65"/>
<polygon fill="midnightblue" stroke="midnightblue" points="798.46,-270.52 804.14,-279.46 805.28,-268.93 798.46,-270.52"/>
</g>
</g>
</svg>
