<?xml version="1.0" encoding="UTF-8" standalone="no"?>
<!DOCTYPE svg PUBLIC "-//W3C//DTD SVG 1.1//EN"
 "http://www.w3.org/Graphics/SVG/1.1/DTD/svg11.dtd">
<!-- Generated by graphviz version 2.43.0 (0)
 -->
<!-- Title: include/mapping/mapping_q_ext.h Pages: 1 -->
<svg width="1195pt" height="832pt"
 viewBox="0.00 0.00 1195.00 832.00" xmlns="http://www.w3.org/2000/svg" xmlns:xlink="http://www.w3.org/1999/xlink">
<g id="graph0" class="graph" transform="scale(1 1) rotate(0) translate(4 828)">
<title>include/mapping/mapping_q_ext.h</title>
<!-- Node1 -->
<g id="node1" class="node">
<title>Node1</title>
<g id="a_node1"><a xlink:title="Extend the class MappingQ.">
<polygon fill="#bfbfbf" stroke="black" points="308.5,-793.5 308.5,-823.5 435.5,-823.5 435.5,-793.5 308.5,-793.5"/>
<text text-anchor="start" x="316.5" y="-811.5" font-family="Helvetica,sans-Serif" font-size="10.00">include/mapping/mapping</text>
<text text-anchor="middle" x="372" y="-800.5" font-family="Helvetica,sans-Serif" font-size="10.00">_q_ext.h</text>
</a>
</g>
</g>
<!-- Node2 -->
<g id="node2" class="node">
<title>Node2</title>
<g id="a_node2"><a xlink:href="bem__tools_8h.html" target="_top" xlink:title="Introduction of bem_tools.h.">
<polygon fill="none" stroke="black" points="309.5,-737.5 309.5,-756.5 434.5,-756.5 434.5,-737.5 309.5,-737.5"/>
<text text-anchor="middle" x="372" y="-744.5" font-family="Helvetica,sans-Serif" font-size="10.00">include/bem/bem_tools.h</text>
</a>
</g>
</g>
<!-- Node1&#45;&gt;Node2 -->
<g id="edge1" class="edge">
<title>Node1&#45;&gt;Node2</title>
<path fill="none" stroke="midnightblue" d="M372,-783.29C372,-773.86 372,-763.65 372,-756.66"/>
<polygon fill="midnightblue" stroke="midnightblue" points="368.5,-783.4 372,-793.4 375.5,-783.4 368.5,-783.4"/>
</g>
<!-- Node14 -->
<g id="node14" class="node">
<title>Node14</title>
<g id="a_node14"><a xlink:href="sauter__quadrature_8hcu_source.html" target="_top" xlink:title=" ">
<polygon fill="none" stroke="black" points="229,-413.5 229,-443.5 345,-443.5 345,-413.5 229,-413.5"/>
<text text-anchor="start" x="237" y="-431.5" font-family="Helvetica,sans-Serif" font-size="10.00">include/quadrature</text>
<text text-anchor="middle" x="287" y="-420.5" font-family="Helvetica,sans-Serif" font-size="10.00">/sauter_quadrature.hcu</text>
</a>
</g>
</g>
<!-- Node1&#45;&gt;Node14 -->
<g id="edge56" class="edge">
<title>Node1&#45;&gt;Node14</title>
<path fill="none" stroke="midnightblue" d="M298.16,-803.53C221.92,-794.98 114,-768.41 114,-686.5 114,-686.5 114,-686.5 114,-561.5 114,-498.6 187.18,-461.68 238.35,-443.56"/>
<polygon fill="midnightblue" stroke="midnightblue" points="297.92,-807.03 308.22,-804.58 298.64,-800.07 297.92,-807.03"/>
</g>
<!-- Node22 -->
<g id="node22" class="node">
<title>Node22</title>
<g id="a_node22"><a xlink:href="mapping__info_8h.html" target="_top" xlink:title="Introduction of mapping_info.h.">
<polygon fill="none" stroke="black" points="724.5,-670.5 724.5,-700.5 851.5,-700.5 851.5,-670.5 724.5,-670.5"/>
<text text-anchor="start" x="732.5" y="-688.5" font-family="Helvetica,sans-Serif" font-size="10.00">include/mapping/mapping</text>
<text text-anchor="middle" x="788" y="-677.5" font-family="Helvetica,sans-Serif" font-size="10.00">_info.h</text>
</a>
</g>
</g>
<!-- Node1&#45;&gt;Node22 -->
<g id="edge55" class="edge">
<title>Node1&#45;&gt;Node22</title>
<path fill="none" stroke="midnightblue" d="M430.28,-790.55C513,-766.49 662.94,-722.87 739.77,-700.53"/>
<polygon fill="midnightblue" stroke="midnightblue" points="429.16,-787.23 420.53,-793.38 431.11,-793.95 429.16,-787.23"/>
</g>
<!-- Node3 -->
<g id="node3" class="node">
<title>Node3</title>
<g id="a_node3"><a xlink:href="bem__general_8hcu_source.html" target="_top" xlink:title=" ">
<polygon fill="none" stroke="black" points="509,-352 509,-371 655,-371 655,-352 509,-352"/>
<text text-anchor="middle" x="582" y="-359" font-family="Helvetica,sans-Serif" font-size="10.00">include/bem/bem_general.hcu</text>
</a>
</g>
</g>
<!-- Node2&#45;&gt;Node3 -->
<g id="edge2" class="edge">
<title>Node2&#45;&gt;Node3</title>
<path fill="none" stroke="midnightblue" d="M391.08,-730.79C432.87,-696.38 532.72,-608.01 583,-511 603.31,-471.82 606.13,-456.55 599,-413 596.52,-397.85 590.11,-381.11 585.91,-371.22"/>
<polygon fill="midnightblue" stroke="midnightblue" points="388.86,-728.09 383.31,-737.11 393.28,-733.52 388.86,-728.09"/>
</g>
<!-- Node4 -->
<g id="node4" class="node">
<title>Node4</title>
<g id="a_node4"><a xlink:href="laplace__bem_8priv_8hcu_source.html" target="_top" xlink:title=" ">
<polygon fill="none" stroke="black" points="619.5,-134.5 619.5,-164.5 734.5,-164.5 734.5,-134.5 619.5,-134.5"/>
<text text-anchor="start" x="627.5" y="-152.5" font-family="Helvetica,sans-Serif" font-size="10.00">include/laplace/laplace</text>
<text text-anchor="middle" x="677" y="-141.5" font-family="Helvetica,sans-Serif" font-size="10.00">_bem.priv.hcu</text>
</a>
</g>
</g>
<!-- Node2&#45;&gt;Node4 -->
<g id="edge43" class="edge">
<title>Node2&#45;&gt;Node4</title>
<path fill="none" stroke="midnightblue" d="M298.92,-740.14C224.22,-733.22 113.93,-720.18 76,-701 33.37,-679.45 0,-672.77 0,-625 0,-625 0,-625 0,-293.5 0,-228.25 53.54,-225.54 114,-201 204.48,-164.28 494.49,-154.13 619.15,-151.43"/>
<polygon fill="midnightblue" stroke="midnightblue" points="298.94,-743.65 309.22,-741.07 299.57,-736.68 298.94,-743.65"/>
</g>
<!-- Node10 -->
<g id="node10" class="node">
<title>Node10</title>
<g id="a_node10"><a xlink:href="bem__values_8hcu_source.html" target="_top" xlink:title=" ">
<polygon fill="none" stroke="black" points="300.5,-614.5 300.5,-633.5 443.5,-633.5 443.5,-614.5 300.5,-614.5"/>
<text text-anchor="middle" x="372" y="-621.5" font-family="Helvetica,sans-Serif" font-size="10.00">include/bem/bem_values.hcu</text>
</a>
</g>
</g>
<!-- Node2&#45;&gt;Node10 -->
<g id="edge11" class="edge">
<title>Node2&#45;&gt;Node10</title>
<path fill="none" stroke="midnightblue" d="M372,-726.99C372,-700.35 372,-653 372,-633.62"/>
<polygon fill="midnightblue" stroke="midnightblue" points="368.5,-727.3 372,-737.3 375.5,-727.3 368.5,-727.3"/>
</g>
<!-- Node12 -->
<g id="node12" class="node">
<title>Node12</title>
<g id="a_node12"><a xlink:href="aca__plus_8hcu.html" target="_top" xlink:title="Implement the ACA+ method proposed in Grasedyck, L. 2005. “Adaptive Recompression of &#45;Matrices for BE...">
<polygon fill="none" stroke="black" points="351.5,-346.5 351.5,-376.5 452.5,-376.5 452.5,-346.5 351.5,-346.5"/>
<text text-anchor="start" x="359.5" y="-364.5" font-family="Helvetica,sans-Serif" font-size="10.00">include/hmatrix/aca</text>
<text text-anchor="middle" x="402" y="-353.5" font-family="Helvetica,sans-Serif" font-size="10.00">_plus/aca_plus.hcu</text>
</a>
</g>
</g>
<!-- Node2&#45;&gt;Node12 -->
<g id="edge42" class="edge">
<title>Node2&#45;&gt;Node12</title>
<path fill="none" stroke="midnightblue" d="M305.28,-735.73C207.82,-718.83 38,-681.29 38,-625 38,-625 38,-625 38,-561.5 38,-457.1 123.44,-452.69 220,-413 243.66,-403.28 306.07,-386.65 351.21,-375.15"/>
<polygon fill="midnightblue" stroke="midnightblue" points="304.9,-739.22 315.34,-737.45 306.07,-732.32 304.9,-739.22"/>
</g>
<!-- Node2&#45;&gt;Node14 -->
<g id="edge54" class="edge">
<title>Node2&#45;&gt;Node14</title>
<path fill="none" stroke="midnightblue" d="M299.15,-736.5C235.1,-723.57 152,-693.58 152,-625 152,-625 152,-625 152,-561.5 152,-504.14 215.09,-463.52 255.01,-443.55"/>
<polygon fill="midnightblue" stroke="midnightblue" points="298.77,-739.99 309.25,-738.43 300.09,-733.11 298.77,-739.99"/>
</g>
<!-- Node18 -->
<g id="node18" class="node">
<title>Node18</title>
<g id="a_node18"><a xlink:href="dof__tools__ext_8h.html" target="_top" xlink:title="Introduction of dof_tools_ext.h.">
<polygon fill="none" stroke="black" points="800,-413.5 800,-443.5 912,-443.5 912,-413.5 800,-413.5"/>
<text text-anchor="start" x="808" y="-431.5" font-family="Helvetica,sans-Serif" font-size="10.00">include/dofs/dof_tools</text>
<text text-anchor="middle" x="856" y="-420.5" font-family="Helvetica,sans-Serif" font-size="10.00">_ext.h</text>
</a>
</g>
</g>
<!-- Node2&#45;&gt;Node18 -->
<g id="edge32" class="edge">
<title>Node2&#45;&gt;Node18</title>
<path fill="none" stroke="midnightblue" d="M444.68,-739.27C510.77,-732.12 602.63,-719.31 634,-701 671.65,-679.03 696,-668.59 696,-625 696,-625 696,-625 696,-561.5 696,-500.46 766.14,-462.38 813.54,-443.62"/>
<polygon fill="midnightblue" stroke="midnightblue" points="444.29,-735.79 434.71,-740.32 445.03,-742.75 444.29,-735.79"/>
</g>
<!-- Node2&#45;&gt;Node22 -->
<g id="edge44" class="edge">
<title>Node2&#45;&gt;Node22</title>
<path fill="none" stroke="midnightblue" d="M445.01,-737.38C513.57,-729.03 618.95,-715.51 710,-701 714.62,-700.26 719.4,-699.47 724.2,-698.64"/>
<polygon fill="midnightblue" stroke="midnightblue" points="444.25,-733.95 434.75,-738.63 445.1,-740.9 444.25,-733.95"/>
</g>
<!-- Node3&#45;&gt;Node4 -->
<g id="edge3" class="edge">
<title>Node3&#45;&gt;Node4</title>
<path fill="none" stroke="midnightblue" d="M579.62,-341.69C576.59,-310.09 574.65,-245.46 602,-201 611.87,-184.96 628.97,-172.86 644.35,-164.53"/>
<polygon fill="midnightblue" stroke="midnightblue" points="576.15,-342.18 580.73,-351.74 583.11,-341.41 576.15,-342.18"/>
</g>
<!-- Node7 -->
<g id="node7" class="node">
<title>Node7</title>
<g id="a_node7"><a xlink:href="operator__preconditioner_8h.html" target="_top" xlink:title=" ">
<polygon fill="none" stroke="black" points="612.5,-279.5 612.5,-309.5 741.5,-309.5 741.5,-279.5 612.5,-279.5"/>
<text text-anchor="start" x="620.5" y="-297.5" font-family="Helvetica,sans-Serif" font-size="10.00">include/preconditioners</text>
<text text-anchor="middle" x="677" y="-286.5" font-family="Helvetica,sans-Serif" font-size="10.00">/operator_preconditioner.h</text>
</a>
</g>
</g>
<!-- Node3&#45;&gt;Node7 -->
<g id="edge6" class="edge">
<title>Node3&#45;&gt;Node7</title>
<path fill="none" stroke="midnightblue" d="M603.41,-345.85C619.27,-335 640.75,-320.3 656.41,-309.59"/>
<polygon fill="midnightblue" stroke="midnightblue" points="601.09,-343.2 594.81,-351.73 605.04,-348.98 601.09,-343.2"/>
</g>
<!-- Node5 -->
<g id="node5" class="node">
<title>Node5</title>
<g id="a_node5"><a xlink:href="laplace__bem_8impl_8hcu_source.html" target="_top" xlink:title=" ">
<polygon fill="none" stroke="black" points="1006.5,-67.5 1006.5,-97.5 1121.5,-97.5 1121.5,-67.5 1006.5,-67.5"/>
<text text-anchor="start" x="1014.5" y="-85.5" font-family="Helvetica,sans-Serif" font-size="10.00">include/laplace/laplace</text>
<text text-anchor="middle" x="1064" y="-74.5" font-family="Helvetica,sans-Serif" font-size="10.00">_bem.impl.hcu</text>
</a>
</g>
</g>
<!-- Node4&#45;&gt;Node5 -->
<g id="edge4" class="edge">
<title>Node4&#45;&gt;Node5</title>
<path fill="none" stroke="midnightblue" d="M744.69,-137.13C818.87,-124.67 936.6,-104.9 1006.48,-93.16"/>
<polygon fill="midnightblue" stroke="midnightblue" points="743.8,-133.73 734.52,-138.84 744.96,-140.63 743.8,-133.73"/>
</g>
<!-- Node6 -->
<g id="node6" class="node">
<title>Node6</title>
<g id="a_node6"><a xlink:href="laplace__bem_8cu_source.html" target="_top" xlink:title=" ">
<polygon fill="none" stroke="black" points="1015,-0.5 1015,-30.5 1113,-30.5 1113,-0.5 1015,-0.5"/>
<text text-anchor="start" x="1023" y="-18.5" font-family="Helvetica,sans-Serif" font-size="10.00">src/laplace/laplace</text>
<text text-anchor="middle" x="1064" y="-7.5" font-family="Helvetica,sans-Serif" font-size="10.00">_bem.cu</text>
</a>
</g>
</g>
<!-- Node5&#45;&gt;Node6 -->
<g id="edge5" class="edge">
<title>Node5&#45;&gt;Node6</title>
<path fill="none" stroke="midnightblue" d="M1064,-57.11C1064,-48.15 1064,-38.32 1064,-30.58"/>
<polygon fill="midnightblue" stroke="midnightblue" points="1060.5,-57.4 1064,-67.4 1067.5,-57.4 1060.5,-57.4"/>
</g>
<!-- Node8 -->
<g id="node8" class="node">
<title>Node8</title>
<g id="a_node8"><a xlink:href="preconditioner__for__laplace__dirichlet_8h.html" target="_top" xlink:title=" ">
<polygon fill="none" stroke="black" points="610.5,-201.5 610.5,-242.5 743.5,-242.5 743.5,-201.5 610.5,-201.5"/>
<text text-anchor="start" x="618.5" y="-230.5" font-family="Helvetica,sans-Serif" font-size="10.00">include/preconditioners</text>
<text text-anchor="start" x="618.5" y="-219.5" font-family="Helvetica,sans-Serif" font-size="10.00">/preconditioner_for_laplace</text>
<text text-anchor="middle" x="677" y="-208.5" font-family="Helvetica,sans-Serif" font-size="10.00">_dirichlet.h</text>
</a>
</g>
</g>
<!-- Node7&#45;&gt;Node8 -->
<g id="edge7" class="edge">
<title>Node7&#45;&gt;Node8</title>
<path fill="none" stroke="midnightblue" d="M677,-268.98C677,-260.35 677,-250.76 677,-242.59"/>
<polygon fill="midnightblue" stroke="midnightblue" points="673.5,-269.23 677,-279.23 680.5,-269.23 673.5,-269.23"/>
</g>
<!-- Node9 -->
<g id="node9" class="node">
<title>Node9</title>
<g id="a_node9"><a xlink:href="preconditioner__for__laplace__neumann_8h.html" target="_top" xlink:title=" ">
<polygon fill="none" stroke="black" points="761.5,-201.5 761.5,-242.5 894.5,-242.5 894.5,-201.5 761.5,-201.5"/>
<text text-anchor="start" x="769.5" y="-230.5" font-family="Helvetica,sans-Serif" font-size="10.00">include/preconditioners</text>
<text text-anchor="start" x="769.5" y="-219.5" font-family="Helvetica,sans-Serif" font-size="10.00">/preconditioner_for_laplace</text>
<text text-anchor="middle" x="828" y="-208.5" font-family="Helvetica,sans-Serif" font-size="10.00">_neumann.h</text>
</a>
</g>
</g>
<!-- Node7&#45;&gt;Node9 -->
<g id="edge9" class="edge">
<title>Node7&#45;&gt;Node9</title>
<path fill="none" stroke="midnightblue" d="M716.35,-275.13C737.78,-265.12 764.32,-252.73 786.13,-242.55"/>
<polygon fill="midnightblue" stroke="midnightblue" points="714.77,-272 707.19,-279.4 717.74,-278.34 714.77,-272"/>
</g>
<!-- Node8&#45;&gt;Node4 -->
<g id="edge8" class="edge">
<title>Node8&#45;&gt;Node4</title>
<path fill="none" stroke="midnightblue" d="M677,-191.08C677,-182.01 677,-172.45 677,-164.89"/>
<polygon fill="midnightblue" stroke="midnightblue" points="673.5,-191.36 677,-201.36 680.5,-191.36 673.5,-191.36"/>
</g>
<!-- Node9&#45;&gt;Node4 -->
<g id="edge10" class="edge">
<title>Node9&#45;&gt;Node4</title>
<path fill="none" stroke="midnightblue" d="M776.63,-197.02C753.58,-186.25 727.18,-173.93 707.35,-164.67"/>
<polygon fill="midnightblue" stroke="midnightblue" points="775.4,-200.3 785.94,-201.36 778.36,-193.96 775.4,-200.3"/>
</g>
<!-- Node10&#45;&gt;Node3 -->
<g id="edge12" class="edge">
<title>Node10&#45;&gt;Node3</title>
<path fill="none" stroke="midnightblue" d="M413.26,-611.33C458.4,-596.19 528.86,-565.1 563,-511 591.99,-465.06 586.31,-395.15 583.25,-371.03"/>
<polygon fill="midnightblue" stroke="midnightblue" points="411.92,-608.08 403.48,-614.49 414.07,-614.74 411.92,-608.08"/>
</g>
<!-- Node10&#45;&gt;Node4 -->
<g id="edge29" class="edge">
<title>Node10&#45;&gt;Node4</title>
<path fill="none" stroke="midnightblue" d="M313.87,-612.26C227.66,-592.59 76,-542 76,-429.5 76,-429.5 76,-429.5 76,-293.5 76,-182.49 468.95,-157.51 619.37,-152.01"/>
<polygon fill="midnightblue" stroke="midnightblue" points="313.26,-615.71 323.78,-614.45 314.77,-608.87 313.26,-615.71"/>
</g>
<!-- Node11 -->
<g id="node11" class="node">
<title>Node11</title>
<g id="a_node11"><a xlink:href="bem__kernels_8hcu_source.html" target="_top" xlink:title=" ">
<polygon fill="none" stroke="black" points="408,-486 408,-505 554,-505 554,-486 408,-486"/>
<text text-anchor="middle" x="481" y="-493" font-family="Helvetica,sans-Serif" font-size="10.00">include/bem/bem_kernels.hcu</text>
</a>
</g>
</g>
<!-- Node10&#45;&gt;Node11 -->
<g id="edge13" class="edge">
<title>Node10&#45;&gt;Node11</title>
<path fill="none" stroke="midnightblue" d="M396.36,-609.16C408.94,-601.18 423.94,-590.31 435,-578 455.75,-554.92 471.14,-520.91 477.62,-505.13"/>
<polygon fill="midnightblue" stroke="midnightblue" points="394.43,-606.24 387.71,-614.44 398.07,-612.22 394.43,-606.24"/>
</g>
<!-- Node10&#45;&gt;Node14 -->
<g id="edge30" class="edge">
<title>Node10&#45;&gt;Node14</title>
<path fill="none" stroke="midnightblue" d="M335.64,-610.94C295.28,-595.25 232.69,-563.47 209,-511 203.33,-498.44 202.42,-492.1 209,-480 217.94,-463.56 234.79,-451.65 250.55,-443.54"/>
<polygon fill="midnightblue" stroke="midnightblue" points="334.54,-614.27 345.14,-614.5 337,-607.71 334.54,-614.27"/>
</g>
<!-- Node16 -->
<g id="node16" class="node">
<title>Node16</title>
<g id="a_node16"><a xlink:href="cu__bem__values_8hcu.html" target="_top" xlink:title="Introduction of cu_bem_values.hcu.">
<polygon fill="none" stroke="black" points="318.5,-547.5 318.5,-577.5 425.5,-577.5 425.5,-547.5 318.5,-547.5"/>
<text text-anchor="start" x="326.5" y="-565.5" font-family="Helvetica,sans-Serif" font-size="10.00">include/bem/cu_bem</text>
<text text-anchor="middle" x="372" y="-554.5" font-family="Helvetica,sans-Serif" font-size="10.00">_values.hcu</text>
</a>
</g>
</g>
<!-- Node10&#45;&gt;Node16 -->
<g id="edge24" class="edge">
<title>Node10&#45;&gt;Node16</title>
<path fill="none" stroke="midnightblue" d="M372,-604.23C372,-595.59 372,-585.5 372,-577.52"/>
<polygon fill="midnightblue" stroke="midnightblue" points="368.5,-604.48 372,-614.48 375.5,-604.48 368.5,-604.48"/>
</g>
<!-- Node17 -->
<g id="node17" class="node">
<title>Node17</title>
<g id="a_node17"><a xlink:href="cu__debug__tools_8hcu_source.html" target="_top" xlink:title=" ">
<polygon fill="none" stroke="black" points="218.5,-480.5 218.5,-510.5 313.5,-510.5 313.5,-480.5 218.5,-480.5"/>
<text text-anchor="start" x="226.5" y="-498.5" font-family="Helvetica,sans-Serif" font-size="10.00">include/utilities/cu</text>
<text text-anchor="middle" x="266" y="-487.5" font-family="Helvetica,sans-Serif" font-size="10.00">_debug_tools.hcu</text>
</a>
</g>
</g>
<!-- Node10&#45;&gt;Node17 -->
<g id="edge31" class="edge">
<title>Node10&#45;&gt;Node17</title>
<path fill="none" stroke="midnightblue" d="M347.94,-609.17C335.54,-601.2 320.79,-590.32 310,-578 291.89,-557.31 278.34,-527.9 271.34,-510.65"/>
<polygon fill="midnightblue" stroke="midnightblue" points="346.13,-612.16 356.48,-614.44 349.81,-606.21 346.13,-612.16"/>
</g>
<!-- Node11&#45;&gt;Node3 -->
<g id="edge14" class="edge">
<title>Node11&#45;&gt;Node3</title>
<path fill="none" stroke="midnightblue" d="M493.88,-477.66C515.67,-449.18 559.04,-392.5 575.48,-371.02"/>
<polygon fill="midnightblue" stroke="midnightblue" points="490.92,-475.77 487.63,-485.84 496.48,-480.02 490.92,-475.77"/>
</g>
<!-- Node11&#45;&gt;Node7 -->
<g id="edge19" class="edge">
<title>Node11&#45;&gt;Node7</title>
<path fill="none" stroke="midnightblue" d="M477.43,-475.59C472.75,-444.58 468.45,-382.7 500,-346 527.6,-313.89 574.05,-301.49 612.44,-297"/>
<polygon fill="midnightblue" stroke="midnightblue" points="474.05,-476.58 479.17,-485.85 480.95,-475.4 474.05,-476.58"/>
</g>
<!-- Node11&#45;&gt;Node12 -->
<g id="edge15" class="edge">
<title>Node11&#45;&gt;Node12</title>
<path fill="none" stroke="midnightblue" d="M470.5,-476.95C454.69,-450.55 425.11,-401.12 410.55,-376.78"/>
<polygon fill="midnightblue" stroke="midnightblue" points="467.68,-479.06 475.82,-485.84 473.68,-475.46 467.68,-479.06"/>
</g>
<!-- Node11&#45;&gt;Node14 -->
<g id="edge20" class="edge">
<title>Node11&#45;&gt;Node14</title>
<path fill="none" stroke="midnightblue" d="M445.58,-482.63C412.69,-471.61 363.68,-455.19 328.87,-443.53"/>
<polygon fill="midnightblue" stroke="midnightblue" points="444.64,-486.01 455.24,-485.87 446.87,-479.37 444.64,-486.01"/>
</g>
<!-- Node12&#45;&gt;Node4 -->
<g id="edge16" class="edge">
<title>Node12&#45;&gt;Node4</title>
<path fill="none" stroke="midnightblue" d="M402.69,-336.2C404.34,-318.63 409.08,-295.24 422,-279 472.02,-216.17 560.85,-181.4 619.34,-164.34"/>
<polygon fill="midnightblue" stroke="midnightblue" points="399.19,-336.05 402.01,-346.27 406.17,-336.53 399.19,-336.05"/>
</g>
<!-- Node12&#45;&gt;Node7 -->
<g id="edge17" class="edge">
<title>Node12&#45;&gt;Node7</title>
<path fill="none" stroke="midnightblue" d="M462.61,-346.17C508.66,-335.29 571.66,-320.4 617.45,-309.58"/>
<polygon fill="midnightblue" stroke="midnightblue" points="461.69,-342.8 452.76,-348.5 463.3,-349.61 461.69,-342.8"/>
</g>
<!-- Node13 -->
<g id="node13" class="node">
<title>Node13</title>
<g id="a_node13"><a xlink:href="aca__plus_8cu_source.html" target="_top" xlink:title=" ">
<polygon fill="none" stroke="black" points="430.5,-279.5 430.5,-309.5 537.5,-309.5 537.5,-279.5 430.5,-279.5"/>
<text text-anchor="start" x="438.5" y="-297.5" font-family="Helvetica,sans-Serif" font-size="10.00">src/hmatrix/aca_plus</text>
<text text-anchor="middle" x="484" y="-286.5" font-family="Helvetica,sans-Serif" font-size="10.00">/aca_plus.cu</text>
</a>
</g>
</g>
<!-- Node12&#45;&gt;Node13 -->
<g id="edge18" class="edge">
<title>Node12&#45;&gt;Node13</title>
<path fill="none" stroke="midnightblue" d="M427.65,-340.17C440.19,-330.23 454.97,-318.51 466.24,-309.58"/>
<polygon fill="midnightblue" stroke="midnightblue" points="425.46,-337.44 419.79,-346.4 429.8,-342.93 425.46,-337.44"/>
</g>
<!-- Node14&#45;&gt;Node3 -->
<g id="edge21" class="edge">
<title>Node14&#45;&gt;Node3</title>
<path fill="none" stroke="midnightblue" d="M355.16,-412.48C413.47,-399.63 495.35,-381.59 543.12,-371.07"/>
<polygon fill="midnightblue" stroke="midnightblue" points="354.3,-409.09 345.28,-414.66 355.8,-415.92 354.3,-409.09"/>
</g>
<!-- Node14&#45;&gt;Node12 -->
<g id="edge22" class="edge">
<title>Node14&#45;&gt;Node12</title>
<path fill="none" stroke="midnightblue" d="M320.98,-408.3C338.97,-398.12 360.68,-385.85 377.1,-376.58"/>
<polygon fill="midnightblue" stroke="midnightblue" points="318.94,-405.43 311.95,-413.4 322.38,-411.52 318.94,-405.43"/>
</g>
<!-- Node15 -->
<g id="node15" class="node">
<title>Node15</title>
<g id="a_node15"><a xlink:href="sauter__quadrature_8cu_source.html" target="_top" xlink:title=" ">
<polygon fill="none" stroke="black" points="224.5,-346.5 224.5,-376.5 333.5,-376.5 333.5,-346.5 224.5,-346.5"/>
<text text-anchor="start" x="232.5" y="-364.5" font-family="Helvetica,sans-Serif" font-size="10.00">src/quadrature/sauter</text>
<text text-anchor="middle" x="279" y="-353.5" font-family="Helvetica,sans-Serif" font-size="10.00">_quadrature.cu</text>
</a>
</g>
</g>
<!-- Node14&#45;&gt;Node15 -->
<g id="edge23" class="edge">
<title>Node14&#45;&gt;Node15</title>
<path fill="none" stroke="midnightblue" d="M284.03,-403.4C282.92,-394.37 281.7,-384.41 280.73,-376.58"/>
<polygon fill="midnightblue" stroke="midnightblue" points="280.57,-403.9 285.26,-413.4 287.52,-403.04 280.57,-403.9"/>
</g>
<!-- Node16&#45;&gt;Node11 -->
<g id="edge25" class="edge">
<title>Node16&#45;&gt;Node11</title>
<path fill="none" stroke="midnightblue" d="M404.46,-542.14C425.18,-529.79 451,-514.39 466.73,-505.01"/>
<polygon fill="midnightblue" stroke="midnightblue" points="402.45,-539.27 395.65,-547.4 406.03,-545.28 402.45,-539.27"/>
</g>
<!-- Node16&#45;&gt;Node12 -->
<g id="edge26" class="edge">
<title>Node16&#45;&gt;Node12</title>
<path fill="none" stroke="midnightblue" d="M375.65,-537.27C381.98,-495.29 394.79,-410.33 399.86,-376.68"/>
<polygon fill="midnightblue" stroke="midnightblue" points="372.19,-536.78 374.16,-547.19 379.11,-537.82 372.19,-536.78"/>
</g>
<!-- Node16&#45;&gt;Node14 -->
<g id="edge27" class="edge">
<title>Node16&#45;&gt;Node14</title>
<path fill="none" stroke="midnightblue" d="M358.83,-538.52C349.22,-522.03 335.71,-499.39 323,-480 314.85,-467.57 305.03,-453.87 297.7,-443.88"/>
<polygon fill="midnightblue" stroke="midnightblue" points="355.96,-540.55 364,-547.45 362.02,-537.04 355.96,-540.55"/>
</g>
<!-- Node16&#45;&gt;Node17 -->
<g id="edge28" class="edge">
<title>Node16&#45;&gt;Node17</title>
<path fill="none" stroke="midnightblue" d="M340.22,-542.02C323.73,-531.9 303.95,-519.77 288.96,-510.58"/>
<polygon fill="midnightblue" stroke="midnightblue" points="338.65,-545.15 349,-547.4 342.3,-539.18 338.65,-545.15"/>
</g>
<!-- Node18&#45;&gt;Node3 -->
<g id="edge33" class="edge">
<title>Node18&#45;&gt;Node3</title>
<path fill="none" stroke="midnightblue" d="M790.05,-411.86C736.02,-399.04 661.61,-381.39 617.97,-371.03"/>
<polygon fill="midnightblue" stroke="midnightblue" points="789.35,-415.29 799.89,-414.19 790.97,-408.48 789.35,-415.29"/>
</g>
<!-- Node18&#45;&gt;Node5 -->
<g id="edge38" class="edge">
<title>Node18&#45;&gt;Node5</title>
<path fill="none" stroke="midnightblue" d="M883.08,-407.25C905.77,-390.46 939.14,-366.17 969,-346 993.83,-329.23 1009.41,-334.95 1026,-310 1071.7,-241.27 1068.34,-135.6 1065.38,-97.66"/>
<polygon fill="midnightblue" stroke="midnightblue" points="880.88,-404.52 874.94,-413.29 885.06,-410.14 880.88,-404.52"/>
</g>
<!-- Node18&#45;&gt;Node7 -->
<g id="edge39" class="edge">
<title>Node18&#45;&gt;Node7</title>
<path fill="none" stroke="midnightblue" d="M801.24,-409.83C781.09,-401.75 758.85,-390.84 741,-377 716.4,-357.93 695.82,-327.42 685.06,-309.63"/>
<polygon fill="midnightblue" stroke="midnightblue" points="800.04,-413.12 810.63,-413.46 802.56,-406.59 800.04,-413.12"/>
</g>
<!-- Node18&#45;&gt;Node9 -->
<g id="edge40" class="edge">
<title>Node18&#45;&gt;Node9</title>
<path fill="none" stroke="midnightblue" d="M856.57,-403.06C856.66,-386.82 856.23,-365.07 854,-346 849.69,-309.15 839.64,-267 833.37,-242.84"/>
<polygon fill="midnightblue" stroke="midnightblue" points="853.07,-403.27 856.44,-413.31 860.06,-403.36 853.07,-403.27"/>
</g>
<!-- Node19 -->
<g id="node19" class="node">
<title>Node19</title>
<g id="a_node19"><a xlink:href="ddm__efield_8h.html" target="_top" xlink:title="Introduction of ddm_efield.h.">
<polygon fill="none" stroke="black" points="977.5,-346.5 977.5,-376.5 1082.5,-376.5 1082.5,-346.5 977.5,-346.5"/>
<text text-anchor="start" x="985.5" y="-364.5" font-family="Helvetica,sans-Serif" font-size="10.00">include/electric_field</text>
<text text-anchor="middle" x="1030" y="-353.5" font-family="Helvetica,sans-Serif" font-size="10.00">/ddm_efield.h</text>
</a>
</g>
</g>
<!-- Node18&#45;&gt;Node19 -->
<g id="edge34" class="edge">
<title>Node18&#45;&gt;Node19</title>
<path fill="none" stroke="midnightblue" d="M903.33,-409.82C931.3,-399.37 966.23,-386.32 992.32,-376.58"/>
<polygon fill="midnightblue" stroke="midnightblue" points="901.9,-406.62 893.76,-413.4 904.35,-413.18 901.9,-406.62"/>
</g>
<!-- Node20 -->
<g id="node20" class="node">
<title>Node20</title>
<g id="a_node20"><a xlink:href="laplace__bem_8h.html" target="_top" xlink:title="Implementation of BEM involving kernel functions and singular numerical quadratures.">
<polygon fill="none" stroke="black" points="901.5,-279.5 901.5,-309.5 1016.5,-309.5 1016.5,-279.5 901.5,-279.5"/>
<text text-anchor="start" x="909.5" y="-297.5" font-family="Helvetica,sans-Serif" font-size="10.00">include/laplace/laplace</text>
<text text-anchor="middle" x="959" y="-286.5" font-family="Helvetica,sans-Serif" font-size="10.00">_bem.h</text>
</a>
</g>
</g>
<!-- Node18&#45;&gt;Node20 -->
<g id="edge35" class="edge">
<title>Node18&#45;&gt;Node20</title>
<path fill="none" stroke="midnightblue" d="M873.41,-405.19C894.73,-377.86 930.22,-332.38 948.06,-309.52"/>
<polygon fill="midnightblue" stroke="midnightblue" points="870.42,-403.34 867.02,-413.37 875.93,-407.64 870.42,-403.34"/>
</g>
<!-- Node21 -->
<g id="node21" class="node">
<title>Node21</title>
<g id="a_node21"><a xlink:href="dof__tools__ext_8cc_source.html" target="_top" xlink:title=" ">
<polygon fill="none" stroke="black" points="749.5,-346.5 749.5,-376.5 844.5,-376.5 844.5,-346.5 749.5,-346.5"/>
<text text-anchor="start" x="757.5" y="-364.5" font-family="Helvetica,sans-Serif" font-size="10.00">src/dofs/dof_tools</text>
<text text-anchor="middle" x="797" y="-353.5" font-family="Helvetica,sans-Serif" font-size="10.00">_ext.cc</text>
</a>
</g>
</g>
<!-- Node18&#45;&gt;Node21 -->
<g id="edge41" class="edge">
<title>Node18&#45;&gt;Node21</title>
<path fill="none" stroke="midnightblue" d="M836.25,-405.74C827.52,-396.12 817.5,-385.09 809.78,-376.58"/>
<polygon fill="midnightblue" stroke="midnightblue" points="833.89,-408.34 843.2,-413.4 839.07,-403.64 833.89,-408.34"/>
</g>
<!-- Node20&#45;&gt;Node4 -->
<g id="edge37" class="edge">
<title>Node20&#45;&gt;Node4</title>
<path fill="none" stroke="midnightblue" d="M951.11,-269.82C942.78,-248.52 927.54,-218.04 904,-201 854.46,-165.13 784.05,-154.03 734.83,-150.94"/>
<polygon fill="midnightblue" stroke="midnightblue" points="947.92,-271.27 954.66,-279.44 954.48,-268.85 947.92,-271.27"/>
</g>
<!-- Node20&#45;&gt;Node5 -->
<g id="edge36" class="edge">
<title>Node20&#45;&gt;Node5</title>
<path fill="none" stroke="midnightblue" d="M970.56,-270.38C992.43,-226.65 1039.23,-133.04 1056.98,-97.54"/>
<polygon fill="midnightblue" stroke="midnightblue" points="967.39,-268.89 966.05,-279.4 973.66,-272.02 967.39,-268.89"/>
</g>
<!-- Node22&#45;&gt;Node3 -->
<g id="edge45" class="edge">
<title>Node22&#45;&gt;Node3</title>
<path fill="none" stroke="midnightblue" d="M771.06,-661.96C755.22,-638.61 734,-600.42 734,-563.5 734,-563.5 734,-563.5 734,-494.5 734,-428.09 650.27,-387.55 607.1,-371.06"/>
<polygon fill="midnightblue" stroke="midnightblue" points="768.2,-663.98 776.81,-670.15 773.93,-659.95 768.2,-663.98"/>
</g>
<!-- Node22&#45;&gt;Node4 -->
<g id="edge52" class="edge">
<title>Node22&#45;&gt;Node4</title>
<path fill="none" stroke="midnightblue" d="M861.68,-675C967.26,-659.29 1149,-623.53 1149,-563.5 1149,-563.5 1149,-563.5 1149,-427.5 1149,-288.7 1059.81,-259.63 934,-201 869.7,-171.04 788.33,-158.84 734.58,-153.88"/>
<polygon fill="midnightblue" stroke="midnightblue" points="861.1,-671.55 851.71,-676.46 862.11,-678.47 861.1,-671.55"/>
</g>
<!-- Node22&#45;&gt;Node5 -->
<g id="edge51" class="edge">
<title>Node22&#45;&gt;Node5</title>
<path fill="none" stroke="midnightblue" d="M861.84,-677.33C977.17,-664.06 1187,-630.69 1187,-563.5 1187,-563.5 1187,-563.5 1187,-221 1187,-163.51 1126.53,-119.04 1090.39,-97.6"/>
<polygon fill="midnightblue" stroke="midnightblue" points="861.21,-673.88 851.66,-678.48 861.99,-680.84 861.21,-673.88"/>
</g>
<!-- Node22&#45;&gt;Node7 -->
<g id="edge53" class="edge">
<title>Node22&#45;&gt;Node7</title>
<path fill="none" stroke="midnightblue" d="M782.9,-660.32C778.22,-635.98 772,-597.31 772,-563.5 772,-563.5 772,-563.5 772,-494.5 772,-434.82 731.82,-431.27 707,-377 696.46,-353.97 686.84,-326.06 681.46,-309.6"/>
<polygon fill="midnightblue" stroke="midnightblue" points="779.53,-661.3 784.92,-670.42 786.39,-659.93 779.53,-661.3"/>
</g>
<!-- Node22&#45;&gt;Node10 -->
<g id="edge46" class="edge">
<title>Node22&#45;&gt;Node10</title>
<path fill="none" stroke="midnightblue" d="M714.29,-673.96C633.69,-662.43 506.11,-644.18 431.58,-633.52"/>
<polygon fill="midnightblue" stroke="midnightblue" points="713.97,-677.45 724.37,-675.4 714.96,-670.52 713.97,-677.45"/>
</g>
<!-- Node22&#45;&gt;Node12 -->
<g id="edge49" class="edge">
<title>Node22&#45;&gt;Node12</title>
<path fill="none" stroke="midnightblue" d="M766.25,-663.28C726.88,-625.19 640.66,-543.33 563,-480 514.46,-440.42 454.08,-398.07 422.86,-376.65"/>
<polygon fill="midnightblue" stroke="midnightblue" points="763.87,-665.84 773.48,-670.29 768.74,-660.82 763.87,-665.84"/>
</g>
<!-- Node22&#45;&gt;Node18 -->
<g id="edge47" class="edge">
<title>Node22&#45;&gt;Node18</title>
<path fill="none" stroke="midnightblue" d="M794.35,-660.69C808.27,-608.47 841.15,-485.18 852.26,-443.53"/>
<polygon fill="midnightblue" stroke="midnightblue" points="790.95,-659.86 791.75,-670.43 797.71,-661.67 790.95,-659.86"/>
</g>
<!-- Node22&#45;&gt;Node19 -->
<g id="edge48" class="edge">
<title>Node22&#45;&gt;Node19</title>
<path fill="none" stroke="midnightblue" d="M861.63,-670.34C917.58,-654.8 985,-623.61 985,-563.5 985,-563.5 985,-563.5 985,-494.5 985,-449.47 1008.76,-400.19 1021.75,-376.61"/>
<polygon fill="midnightblue" stroke="midnightblue" points="860.46,-667.02 851.69,-672.97 862.25,-673.79 860.46,-667.02"/>
</g>
<!-- Node22&#45;&gt;Node20 -->
<g id="edge50" class="edge">
<title>Node22&#45;&gt;Node20</title>
<path fill="none" stroke="midnightblue" d="M861.71,-672.11C957.04,-653.94 1111,-616.42 1111,-563.5 1111,-563.5 1111,-563.5 1111,-427.5 1111,-390.31 1116.48,-374 1092,-346 1080.74,-333.12 1042.74,-319.4 1010.22,-309.51"/>
<polygon fill="midnightblue" stroke="midnightblue" points="861,-668.68 851.81,-673.96 862.29,-675.56 861,-668.68"/>
</g>
</g>
</svg>
