<?xml version="1.0" encoding="UTF-8" standalone="no"?>
<!DOCTYPE svg PUBLIC "-//W3C//DTD SVG 1.1//EN"
 "http://www.w3.org/Graphics/SVG/1.1/DTD/svg11.dtd">
<!-- Generated by graphviz version 2.43.0 (0)
 -->
<!-- Title: include/mapping/mapping_q_ext.h Pages: 1 -->
<svg width="909pt" height="106pt"
 viewBox="0.00 0.00 909.00 106.00" xmlns="http://www.w3.org/2000/svg" xmlns:xlink="http://www.w3.org/1999/xlink">
<g id="graph0" class="graph" transform="scale(1 1) rotate(0) translate(4 102)">
<title>include/mapping/mapping_q_ext.h</title>
<!-- Node1 -->
<g id="node1" class="node">
<title>Node1</title>
<g id="a_node1"><a xlink:title="Extend the class MappingQ.">
<polygon fill="#bfbfbf" stroke="black" points="426.5,-67.5 426.5,-97.5 553.5,-97.5 553.5,-67.5 426.5,-67.5"/>
<text text-anchor="start" x="434.5" y="-85.5" font-family="Helvetica,sans-Serif" font-size="10.00">include/mapping/mapping</text>
<text text-anchor="middle" x="490" y="-74.5" font-family="Helvetica,sans-Serif" font-size="10.00">_q_ext.h</text>
</a>
</g>
</g>
<!-- Node2 -->
<g id="node2" class="node">
<title>Node2</title>
<g id="a_node2"><a xlink:title=" ">
<polygon fill="none" stroke="#bfbfbf" points="0,-6 0,-25 100,-25 100,-6 0,-6"/>
<text text-anchor="middle" x="50" y="-13" font-family="Helvetica,sans-Serif" font-size="10.00">deal.II/base/point.h</text>
</a>
</g>
</g>
<!-- Node1&#45;&gt;Node2 -->
<g id="edge1" class="edge">
<title>Node1&#45;&gt;Node2</title>
<path fill="none" stroke="midnightblue" d="M426.29,-75.21C350.36,-67.21 219.81,-51.9 109,-31 103.49,-29.96 97.73,-28.73 92.06,-27.43"/>
<polygon fill="midnightblue" stroke="midnightblue" points="92.55,-23.95 82.01,-25.04 90.93,-30.76 92.55,-23.95"/>
</g>
<!-- Node3 -->
<g id="node3" class="node">
<title>Node3</title>
<g id="a_node3"><a xlink:title=" ">
<polygon fill="none" stroke="#bfbfbf" points="118.5,-0.5 118.5,-30.5 237.5,-30.5 237.5,-0.5 118.5,-0.5"/>
<text text-anchor="start" x="126.5" y="-18.5" font-family="Helvetica,sans-Serif" font-size="10.00">deal.II/base/tensor</text>
<text text-anchor="middle" x="178" y="-7.5" font-family="Helvetica,sans-Serif" font-size="10.00">_product_polynomials.h</text>
</a>
</g>
</g>
<!-- Node1&#45;&gt;Node3 -->
<g id="edge2" class="edge">
<title>Node1&#45;&gt;Node3</title>
<path fill="none" stroke="midnightblue" d="M426.29,-68.3C379.57,-58.61 314.31,-45.06 247.68,-31.14"/>
<polygon fill="midnightblue" stroke="midnightblue" points="248.34,-27.7 237.84,-29.08 246.91,-34.55 248.34,-27.7"/>
</g>
<!-- Node4 -->
<g id="node4" class="node">
<title>Node4</title>
<g id="a_node4"><a xlink:title=" ">
<polygon fill="none" stroke="#bfbfbf" points="256,-6 256,-25 354,-25 354,-6 256,-6"/>
<text text-anchor="middle" x="305" y="-13" font-family="Helvetica,sans-Serif" font-size="10.00">deal.II/fe/fe_data.h</text>
</a>
</g>
</g>
<!-- Node1&#45;&gt;Node4 -->
<g id="edge3" class="edge">
<title>Node1&#45;&gt;Node4</title>
<path fill="none" stroke="midnightblue" d="M449.86,-67.4C416.68,-55.74 370.1,-39.37 338.8,-28.38"/>
<polygon fill="midnightblue" stroke="midnightblue" points="339.81,-25.02 329.21,-25.01 337.49,-31.62 339.81,-25.02"/>
</g>
<!-- Node5 -->
<g id="node5" class="node">
<title>Node5</title>
<g id="a_node5"><a xlink:title=" ">
<polygon fill="none" stroke="#bfbfbf" points="372.5,-6 372.5,-25 483.5,-25 483.5,-6 372.5,-6"/>
<text text-anchor="middle" x="428" y="-13" font-family="Helvetica,sans-Serif" font-size="10.00">deal.II/fe/fe_q_base.h</text>
</a>
</g>
</g>
<!-- Node1&#45;&gt;Node5 -->
<g id="edge4" class="edge">
<title>Node1&#45;&gt;Node5</title>
<path fill="none" stroke="midnightblue" d="M476.55,-67.4C466.78,-57.16 453.56,-43.3 443.38,-32.62"/>
<polygon fill="midnightblue" stroke="midnightblue" points="445.73,-30.01 436.29,-25.19 440.66,-34.85 445.73,-30.01"/>
</g>
<!-- Node6 -->
<g id="node6" class="node">
<title>Node6</title>
<g id="a_node6"><a xlink:title=" ">
<polygon fill="none" stroke="#bfbfbf" points="501.5,-6 501.5,-25 602.5,-25 602.5,-6 501.5,-6"/>
<text text-anchor="middle" x="552" y="-13" font-family="Helvetica,sans-Serif" font-size="10.00">deal.II/fe/fe_tools.h</text>
</a>
</g>
</g>
<!-- Node1&#45;&gt;Node6 -->
<g id="edge5" class="edge">
<title>Node1&#45;&gt;Node6</title>
<path fill="none" stroke="midnightblue" d="M503.45,-67.4C513.22,-57.16 526.44,-43.3 536.62,-32.62"/>
<polygon fill="midnightblue" stroke="midnightblue" points="539.34,-34.85 543.71,-25.19 534.27,-30.01 539.34,-34.85"/>
</g>
<!-- Node7 -->
<g id="node7" class="node">
<title>Node7</title>
<g id="a_node7"><a xlink:title=" ">
<polygon fill="none" stroke="#bfbfbf" points="620.5,-6 620.5,-25 733.5,-25 733.5,-6 620.5,-6"/>
<text text-anchor="middle" x="677" y="-13" font-family="Helvetica,sans-Serif" font-size="10.00">deal.II/fe/mapping_q.h</text>
</a>
</g>
</g>
<!-- Node1&#45;&gt;Node7 -->
<g id="edge6" class="edge">
<title>Node1&#45;&gt;Node7</title>
<path fill="none" stroke="midnightblue" d="M530.58,-67.4C564.11,-55.74 611.2,-39.37 642.83,-28.38"/>
<polygon fill="midnightblue" stroke="midnightblue" points="644.23,-31.6 652.53,-25.01 641.93,-24.98 644.23,-31.6"/>
</g>
<!-- Node8 -->
<g id="node8" class="node">
<title>Node8</title>
<g id="a_node8"><a xlink:title=" ">
<polygon fill="none" stroke="#bfbfbf" points="751.5,-6 751.5,-25 838.5,-25 838.5,-6 751.5,-6"/>
<text text-anchor="middle" x="795" y="-13" font-family="Helvetica,sans-Serif" font-size="10.00">deal.II/grid/tria.h</text>
</a>
</g>
</g>
<!-- Node1&#45;&gt;Node8 -->
<g id="edge7" class="edge">
<title>Node1&#45;&gt;Node8</title>
<path fill="none" stroke="midnightblue" d="M553.71,-70.15C605.05,-60.68 678.96,-46.3 743,-31 747.32,-29.97 751.83,-28.82 756.3,-27.64"/>
<polygon fill="midnightblue" stroke="midnightblue" points="757.21,-31.01 765.95,-25.02 755.38,-24.26 757.21,-31.01"/>
</g>
<!-- Node9 -->
<g id="node9" class="node">
<title>Node9</title>
<g id="a_node9"><a xlink:title=" ">
<polygon fill="none" stroke="#bfbfbf" points="857,-6 857,-25 901,-25 901,-6 857,-6"/>
<text text-anchor="middle" x="879" y="-13" font-family="Helvetica,sans-Serif" font-size="10.00">vector</text>
</a>
</g>
</g>
<!-- Node1&#45;&gt;Node9 -->
<g id="edge8" class="edge">
<title>Node1&#45;&gt;Node9</title>
<path fill="none" stroke="midnightblue" d="M553.62,-78.24C626.15,-73.21 747.67,-60.81 848,-31 849.88,-30.44 851.79,-29.79 853.69,-29.07"/>
<polygon fill="midnightblue" stroke="midnightblue" points="855.13,-32.26 862.95,-25.11 852.38,-25.82 855.13,-32.26"/>
</g>
</g>
</svg>
