<?xml version="1.0" encoding="UTF-8" standalone="no"?>
<!DOCTYPE svg PUBLIC "-//W3C//DTD SVG 1.1//EN"
 "http://www.w3.org/Graphics/SVG/1.1/DTD/svg11.dtd">
<!-- Generated by graphviz version 2.43.0 (0)
 -->
<!-- Title: include/utilities/number_traits.h Pages: 1 -->
<svg width="462pt" height="95pt"
 viewBox="0.00 0.00 462.00 95.00" xmlns="http://www.w3.org/2000/svg" xmlns:xlink="http://www.w3.org/1999/xlink">
<g id="graph0" class="graph" transform="scale(1 1) rotate(0) translate(4 91)">
<title>include/utilities/number_traits.h</title>
<!-- Node1 -->
<g id="node1" class="node">
<title>Node1</title>
<g id="a_node1"><a xlink:title="Definition of ranks for different types of numbers.">
<polygon fill="#bfbfbf" stroke="black" points="179,-56.5 179,-86.5 295,-86.5 295,-56.5 179,-56.5"/>
<text text-anchor="start" x="187" y="-74.5" font-family="Helvetica,sans-Serif" font-size="10.00">include/utilities/number</text>
<text text-anchor="middle" x="237" y="-63.5" font-family="Helvetica,sans-Serif" font-size="10.00">_traits.h</text>
</a>
</g>
</g>
<!-- Node2 -->
<g id="node2" class="node">
<title>Node2</title>
<g id="a_node2"><a xlink:title=" ">
<polygon fill="none" stroke="#bfbfbf" points="0,-0.5 0,-19.5 116,-19.5 116,-0.5 0,-0.5"/>
<text text-anchor="middle" x="58" y="-7.5" font-family="Helvetica,sans-Serif" font-size="10.00">deal.II/base/numbers.h</text>
</a>
</g>
</g>
<!-- Node1&#45;&gt;Node2 -->
<g id="edge1" class="edge">
<title>Node1&#45;&gt;Node2</title>
<path fill="none" stroke="midnightblue" d="M194.58,-56.4C163.78,-46.16 122.59,-32.47 93.52,-22.81"/>
<polygon fill="midnightblue" stroke="midnightblue" points="94.38,-19.4 83.78,-19.57 92.17,-26.05 94.38,-19.4"/>
</g>
<!-- Node3 -->
<g id="node3" class="node">
<title>Node3</title>
<g id="a_node3"><a xlink:title=" ">
<polygon fill="none" stroke="#bfbfbf" points="134.5,-0.5 134.5,-19.5 187.5,-19.5 187.5,-0.5 134.5,-0.5"/>
<text text-anchor="middle" x="161" y="-7.5" font-family="Helvetica,sans-Serif" font-size="10.00">complex</text>
</a>
</g>
</g>
<!-- Node1&#45;&gt;Node3 -->
<g id="edge2" class="edge">
<title>Node1&#45;&gt;Node3</title>
<path fill="none" stroke="midnightblue" d="M218.99,-56.4C207.26,-47.22 191.98,-35.26 180.06,-25.92"/>
<polygon fill="midnightblue" stroke="midnightblue" points="182.09,-23.07 172.06,-19.66 177.78,-28.58 182.09,-23.07"/>
</g>
<!-- Node4 -->
<g id="node4" class="node">
<title>Node4</title>
<g id="a_node4"><a xlink:title=" ">
<polygon fill="none" stroke="#bfbfbf" points="206,-0.5 206,-19.5 268,-19.5 268,-0.5 206,-0.5"/>
<text text-anchor="middle" x="237" y="-7.5" font-family="Helvetica,sans-Serif" font-size="10.00">type_traits</text>
</a>
</g>
</g>
<!-- Node1&#45;&gt;Node4 -->
<g id="edge3" class="edge">
<title>Node1&#45;&gt;Node4</title>
<path fill="none" stroke="midnightblue" d="M237,-56.4C237,-48.47 237,-38.46 237,-29.86"/>
<polygon fill="midnightblue" stroke="midnightblue" points="240.5,-29.66 237,-19.66 233.5,-29.66 240.5,-29.66"/>
</g>
<!-- Node5 -->
<g id="node5" class="node">
<title>Node5</title>
<g id="a_node5"><a xlink:href="config_8h.html" target="_top" xlink:title="Configurations for building the project.">
<polygon fill="none" stroke="black" points="286.5,-0.5 286.5,-19.5 337.5,-19.5 337.5,-0.5 286.5,-0.5"/>
<text text-anchor="middle" x="312" y="-7.5" font-family="Helvetica,sans-Serif" font-size="10.00">config.h</text>
</a>
</g>
</g>
<!-- Node1&#45;&gt;Node5 -->
<g id="edge4" class="edge">
<title>Node1&#45;&gt;Node5</title>
<path fill="none" stroke="midnightblue" d="M254.77,-56.4C266.35,-47.22 281.42,-35.26 293.2,-25.92"/>
<polygon fill="midnightblue" stroke="midnightblue" points="295.43,-28.61 301.09,-19.66 291.08,-23.13 295.43,-28.61"/>
</g>
<!-- Node6 -->
<g id="node6" class="node">
<title>Node6</title>
<g id="a_node6"><a xlink:title=" ">
<polygon fill="none" stroke="#bfbfbf" points="356,-0.5 356,-19.5 454,-19.5 454,-0.5 356,-0.5"/>
<text text-anchor="middle" x="405" y="-7.5" font-family="Helvetica,sans-Serif" font-size="10.00">cuda_complex.hcu</text>
</a>
</g>
</g>
<!-- Node1&#45;&gt;Node6 -->
<g id="edge5" class="edge">
<title>Node1&#45;&gt;Node6</title>
<path fill="none" stroke="midnightblue" d="M276.81,-56.4C305.5,-46.24 343.81,-32.67 371.06,-23.02"/>
<polygon fill="midnightblue" stroke="midnightblue" points="372.3,-26.3 380.55,-19.66 369.96,-19.7 372.3,-26.3"/>
</g>
</g>
</svg>
