<?xml version="1.0" encoding="UTF-8" standalone="no"?>
<!DOCTYPE svg PUBLIC "-//W3C//DTD SVG 1.1//EN"
 "http://www.w3.org/Graphics/SVG/1.1/DTD/svg11.dtd">
<!-- Generated by graphviz version 2.43.0 (0)
 -->
<!-- Title: include/preconditioners/preconditioner_type.h Pages: 1 -->
<svg width="209pt" height="307pt"
 viewBox="0.00 0.00 209.00 307.00" xmlns="http://www.w3.org/2000/svg" xmlns:xlink="http://www.w3.org/1999/xlink">
<g id="graph0" class="graph" transform="scale(1 1) rotate(0) translate(4 303)">
<title>include/preconditioners/preconditioner_type.h</title>
<!-- Node1 -->
<g id="node1" class="node">
<title>Node1</title>
<g id="a_node1"><a xlink:title="Definition of preconditioner types.">
<polygon fill="#bfbfbf" stroke="black" points="42.5,-268.5 42.5,-298.5 158.5,-298.5 158.5,-268.5 42.5,-268.5"/>
<text text-anchor="start" x="50.5" y="-286.5" font-family="Helvetica,sans-Serif" font-size="10.00">include/preconditioners</text>
<text text-anchor="middle" x="100.5" y="-275.5" font-family="Helvetica,sans-Serif" font-size="10.00">/preconditioner_type.h</text>
</a>
</g>
</g>
<!-- Node2 -->
<g id="node2" class="node">
<title>Node2</title>
<g id="a_node2"><a xlink:href="laplace__bem_8h.html" target="_top" xlink:title="Implementation of BEM involving kernel functions and singular numerical quadratures.">
<polygon fill="none" stroke="black" points="0,-201.5 0,-231.5 115,-231.5 115,-201.5 0,-201.5"/>
<text text-anchor="start" x="8" y="-219.5" font-family="Helvetica,sans-Serif" font-size="10.00">include/laplace/laplace</text>
<text text-anchor="middle" x="57.5" y="-208.5" font-family="Helvetica,sans-Serif" font-size="10.00">_bem.h</text>
</a>
</g>
</g>
<!-- Node1&#45;&gt;Node2 -->
<g id="edge1" class="edge">
<title>Node1&#45;&gt;Node2</title>
<path fill="none" stroke="midnightblue" d="M85.53,-259.87C79.3,-250.46 72.27,-239.83 66.81,-231.58"/>
<polygon fill="midnightblue" stroke="midnightblue" points="82.73,-261.99 91.17,-268.4 88.57,-258.12 82.73,-261.99"/>
</g>
<!-- Node5 -->
<g id="node5" class="node">
<title>Node5</title>
<g id="a_node5"><a xlink:href="laplace__bem_8priv_8hcu_source.html" target="_top" xlink:title=" ">
<polygon fill="none" stroke="black" points="86,-134.5 86,-164.5 201,-164.5 201,-134.5 86,-134.5"/>
<text text-anchor="start" x="94" y="-152.5" font-family="Helvetica,sans-Serif" font-size="10.00">include/laplace/laplace</text>
<text text-anchor="middle" x="143.5" y="-141.5" font-family="Helvetica,sans-Serif" font-size="10.00">_bem.priv.hcu</text>
</a>
</g>
</g>
<!-- Node1&#45;&gt;Node5 -->
<g id="edge6" class="edge">
<title>Node1&#45;&gt;Node5</title>
<path fill="none" stroke="midnightblue" d="M112.91,-259.1C117,-250.72 121.32,-241.09 124.5,-232 132.56,-208.96 138.22,-181.06 141.16,-164.6"/>
<polygon fill="midnightblue" stroke="midnightblue" points="109.66,-257.76 108.28,-268.26 115.91,-260.91 109.66,-257.76"/>
</g>
<!-- Node3 -->
<g id="node3" class="node">
<title>Node3</title>
<g id="a_node3"><a xlink:href="laplace__bem_8impl_8hcu_source.html" target="_top" xlink:title=" ">
<polygon fill="none" stroke="black" points="43,-67.5 43,-97.5 158,-97.5 158,-67.5 43,-67.5"/>
<text text-anchor="start" x="51" y="-85.5" font-family="Helvetica,sans-Serif" font-size="10.00">include/laplace/laplace</text>
<text text-anchor="middle" x="100.5" y="-74.5" font-family="Helvetica,sans-Serif" font-size="10.00">_bem.impl.hcu</text>
</a>
</g>
</g>
<!-- Node2&#45;&gt;Node3 -->
<g id="edge2" class="edge">
<title>Node2&#45;&gt;Node3</title>
<path fill="none" stroke="midnightblue" d="M62.14,-191.56C65.63,-175.13 70.92,-152.97 77.5,-134 81.86,-121.44 88.2,-107.75 93.12,-97.79"/>
<polygon fill="midnightblue" stroke="midnightblue" points="58.7,-190.93 60.12,-201.43 65.56,-192.33 58.7,-190.93"/>
</g>
<!-- Node2&#45;&gt;Node5 -->
<g id="edge4" class="edge">
<title>Node2&#45;&gt;Node5</title>
<path fill="none" stroke="midnightblue" d="M84.4,-195.17C97.55,-185.23 113.05,-173.51 124.88,-164.58"/>
<polygon fill="midnightblue" stroke="midnightblue" points="82.03,-192.57 76.16,-201.4 86.25,-198.16 82.03,-192.57"/>
</g>
<!-- Node4 -->
<g id="node4" class="node">
<title>Node4</title>
<g id="a_node4"><a xlink:href="laplace__bem_8cu_source.html" target="_top" xlink:title=" ">
<polygon fill="none" stroke="black" points="51.5,-0.5 51.5,-30.5 149.5,-30.5 149.5,-0.5 51.5,-0.5"/>
<text text-anchor="start" x="59.5" y="-18.5" font-family="Helvetica,sans-Serif" font-size="10.00">src/laplace/laplace</text>
<text text-anchor="middle" x="100.5" y="-7.5" font-family="Helvetica,sans-Serif" font-size="10.00">_bem.cu</text>
</a>
</g>
</g>
<!-- Node3&#45;&gt;Node4 -->
<g id="edge3" class="edge">
<title>Node3&#45;&gt;Node4</title>
<path fill="none" stroke="midnightblue" d="M100.5,-57.11C100.5,-48.15 100.5,-38.32 100.5,-30.58"/>
<polygon fill="midnightblue" stroke="midnightblue" points="97,-57.4 100.5,-67.4 104,-57.4 97,-57.4"/>
</g>
<!-- Node5&#45;&gt;Node3 -->
<g id="edge5" class="edge">
<title>Node5&#45;&gt;Node3</title>
<path fill="none" stroke="midnightblue" d="M128.53,-125.87C122.3,-116.46 115.27,-105.83 109.81,-97.58"/>
<polygon fill="midnightblue" stroke="midnightblue" points="125.73,-127.99 134.17,-134.4 131.57,-124.12 125.73,-127.99"/>
</g>
</g>
</svg>
