<?xml version="1.0" encoding="UTF-8" standalone="no"?>
<!DOCTYPE svg PUBLIC "-//W3C//DTD SVG 1.1//EN"
 "http://www.w3.org/Graphics/SVG/1.1/DTD/svg11.dtd">
<!-- Generated by graphviz version 2.43.0 (0)
 -->
<!-- Title: include/quadrature/quadrature.templates.h Pages: 1 -->
<svg width="902pt" height="106pt"
 viewBox="0.00 0.00 902.00 106.00" xmlns="http://www.w3.org/2000/svg" xmlns:xlink="http://www.w3.org/1999/xlink">
<g id="graph0" class="graph" transform="scale(1 1) rotate(0) translate(4 102)">
<title>include/quadrature/quadrature.templates.h</title>
<!-- Node1 -->
<g id="node1" class="node">
<title>Node1</title>
<g id="a_node1"><a xlink:title="This file is extracted from $DEAL_II_DIR/source/base/quadrature.cc for generating the Gauss quadratur...">
<polygon fill="#bfbfbf" stroke="black" points="530.5,-67.5 530.5,-97.5 649.5,-97.5 649.5,-67.5 530.5,-67.5"/>
<text text-anchor="start" x="538.5" y="-85.5" font-family="Helvetica,sans-Serif" font-size="10.00">include/quadrature</text>
<text text-anchor="middle" x="590" y="-74.5" font-family="Helvetica,sans-Serif" font-size="10.00">/quadrature.templates.h</text>
</a>
</g>
</g>
<!-- Node2 -->
<g id="node2" class="node">
<title>Node2</title>
<g id="a_node2"><a xlink:title=" ">
<polygon fill="none" stroke="#bfbfbf" points="0,-0.5 0,-30.5 106,-30.5 106,-0.5 0,-0.5"/>
<text text-anchor="start" x="8" y="-18.5" font-family="Helvetica,sans-Serif" font-size="10.00">deal.II/base/memory</text>
<text text-anchor="middle" x="53" y="-7.5" font-family="Helvetica,sans-Serif" font-size="10.00">_consumption.h</text>
</a>
</g>
</g>
<!-- Node1&#45;&gt;Node2 -->
<g id="edge1" class="edge">
<title>Node1&#45;&gt;Node2</title>
<path fill="none" stroke="midnightblue" d="M530.44,-77.55C442.08,-71.16 270.96,-56.78 116.18,-31.06"/>
<polygon fill="midnightblue" stroke="midnightblue" points="116.45,-27.56 106.01,-29.35 115.29,-34.46 116.45,-27.56"/>
</g>
<!-- Node3 -->
<g id="node3" class="node">
<title>Node3</title>
<g id="a_node3"><a xlink:title=" ">
<polygon fill="none" stroke="#bfbfbf" points="124.5,-6 124.5,-25 249.5,-25 249.5,-6 124.5,-6"/>
<text text-anchor="middle" x="187" y="-13" font-family="Helvetica,sans-Serif" font-size="10.00">deal.II/base/quadrature.h</text>
</a>
</g>
</g>
<!-- Node1&#45;&gt;Node3 -->
<g id="edge2" class="edge">
<title>Node1&#45;&gt;Node3</title>
<path fill="none" stroke="midnightblue" d="M530.37,-73.27C463.99,-63.9 353.59,-47.73 259,-31 252.17,-29.79 244.98,-28.44 237.91,-27.06"/>
<polygon fill="midnightblue" stroke="midnightblue" points="238.17,-23.55 227.68,-25.04 236.81,-30.41 238.17,-23.55"/>
</g>
<!-- Node4 -->
<g id="node4" class="node">
<title>Node4</title>
<g id="a_node4"><a xlink:title=" ">
<polygon fill="none" stroke="#bfbfbf" points="268,-0.5 268,-30.5 384,-30.5 384,-0.5 268,-0.5"/>
<text text-anchor="start" x="276" y="-18.5" font-family="Helvetica,sans-Serif" font-size="10.00">deal.II/base/quadrature</text>
<text text-anchor="middle" x="326" y="-7.5" font-family="Helvetica,sans-Serif" font-size="10.00">_lib.h</text>
</a>
</g>
</g>
<!-- Node1&#45;&gt;Node4 -->
<g id="edge3" class="edge">
<title>Node1&#45;&gt;Node4</title>
<path fill="none" stroke="midnightblue" d="M533.04,-67.48C491.98,-57.37 436.41,-43.68 393.18,-33.04"/>
<polygon fill="midnightblue" stroke="midnightblue" points="393.86,-29.6 383.31,-30.61 392.19,-36.4 393.86,-29.6"/>
</g>
<!-- Node5 -->
<g id="node5" class="node">
<title>Node5</title>
<g id="a_node5"><a xlink:title=" ">
<polygon fill="none" stroke="#bfbfbf" points="402,-6 402,-25 512,-25 512,-6 402,-6"/>
<text text-anchor="middle" x="457" y="-13" font-family="Helvetica,sans-Serif" font-size="10.00">deal.II/base/utilities.h</text>
</a>
</g>
</g>
<!-- Node1&#45;&gt;Node5 -->
<g id="edge4" class="edge">
<title>Node1&#45;&gt;Node5</title>
<path fill="none" stroke="midnightblue" d="M561.14,-67.4C538.11,-56.14 506.11,-40.5 483.68,-29.54"/>
<polygon fill="midnightblue" stroke="midnightblue" points="484.93,-26.25 474.41,-25.01 481.85,-32.54 484.93,-26.25"/>
</g>
<!-- Node6 -->
<g id="node6" class="node">
<title>Node6</title>
<g id="a_node6"><a xlink:title=" ">
<polygon fill="none" stroke="#bfbfbf" points="530,-6 530,-25 586,-25 586,-6 530,-6"/>
<text text-anchor="middle" x="558" y="-13" font-family="Helvetica,sans-Serif" font-size="10.00">algorithm</text>
</a>
</g>
</g>
<!-- Node1&#45;&gt;Node6 -->
<g id="edge5" class="edge">
<title>Node1&#45;&gt;Node6</title>
<path fill="none" stroke="midnightblue" d="M583.06,-67.4C578.26,-57.66 571.86,-44.65 566.72,-34.21"/>
<polygon fill="midnightblue" stroke="midnightblue" points="569.84,-32.62 562.28,-25.19 563.56,-35.71 569.84,-32.62"/>
</g>
<!-- Node7 -->
<g id="node7" class="node">
<title>Node7</title>
<g id="a_node7"><a xlink:title=" ">
<polygon fill="none" stroke="#bfbfbf" points="604,-6 604,-25 642,-25 642,-6 604,-6"/>
<text text-anchor="middle" x="623" y="-13" font-family="Helvetica,sans-Serif" font-size="10.00">array</text>
</a>
</g>
</g>
<!-- Node1&#45;&gt;Node7 -->
<g id="edge6" class="edge">
<title>Node1&#45;&gt;Node7</title>
<path fill="none" stroke="midnightblue" d="M597.16,-67.4C602.1,-57.66 608.71,-44.65 614.01,-34.21"/>
<polygon fill="midnightblue" stroke="midnightblue" points="617.18,-35.7 618.59,-25.19 610.94,-32.53 617.18,-35.7"/>
</g>
<!-- Node8 -->
<g id="node8" class="node">
<title>Node8</title>
<g id="a_node8"><a xlink:title=" ">
<polygon fill="none" stroke="#bfbfbf" points="660,-6 660,-25 704,-25 704,-6 660,-6"/>
<text text-anchor="middle" x="682" y="-13" font-family="Helvetica,sans-Serif" font-size="10.00">cmath</text>
</a>
</g>
</g>
<!-- Node1&#45;&gt;Node8 -->
<g id="edge7" class="edge">
<title>Node1&#45;&gt;Node8</title>
<path fill="none" stroke="midnightblue" d="M609.96,-67.4C625.25,-56.6 646.25,-41.76 661.64,-30.89"/>
<polygon fill="midnightblue" stroke="midnightblue" points="663.81,-33.64 669.96,-25.01 659.77,-27.92 663.81,-33.64"/>
</g>
<!-- Node9 -->
<g id="node9" class="node">
<title>Node9</title>
<g id="a_node9"><a xlink:title=" ">
<polygon fill="none" stroke="#bfbfbf" points="722,-6 722,-25 762,-25 762,-6 722,-6"/>
<text text-anchor="middle" x="742" y="-13" font-family="Helvetica,sans-Serif" font-size="10.00">limits</text>
</a>
</g>
</g>
<!-- Node1&#45;&gt;Node9 -->
<g id="edge8" class="edge">
<title>Node1&#45;&gt;Node9</title>
<path fill="none" stroke="midnightblue" d="M626.09,-67.5C650.77,-57.73 684.1,-44.13 713,-31 714,-30.55 715.01,-30.08 716.04,-29.6"/>
<polygon fill="midnightblue" stroke="midnightblue" points="717.76,-32.65 725.23,-25.15 714.71,-26.35 717.76,-32.65"/>
</g>
<!-- Node10 -->
<g id="node10" class="node">
<title>Node10</title>
<g id="a_node10"><a xlink:title=" ">
<polygon fill="none" stroke="#bfbfbf" points="780,-6 780,-25 832,-25 832,-6 780,-6"/>
<text text-anchor="middle" x="806" y="-13" font-family="Helvetica,sans-Serif" font-size="10.00">memory</text>
</a>
</g>
</g>
<!-- Node1&#45;&gt;Node10 -->
<g id="edge9" class="edge">
<title>Node1&#45;&gt;Node10</title>
<path fill="none" stroke="midnightblue" d="M647.2,-67.43C683.09,-58.14 730.14,-45.11 771,-31 772.91,-30.34 774.87,-29.63 776.83,-28.89"/>
<polygon fill="midnightblue" stroke="midnightblue" points="778.53,-31.98 786.54,-25.05 775.95,-25.47 778.53,-31.98"/>
</g>
<!-- Node11 -->
<g id="node11" class="node">
<title>Node11</title>
<g id="a_node11"><a xlink:title=" ">
<polygon fill="none" stroke="#bfbfbf" points="850,-6 850,-25 894,-25 894,-6 850,-6"/>
<text text-anchor="middle" x="872" y="-13" font-family="Helvetica,sans-Serif" font-size="10.00">vector</text>
</a>
</g>
</g>
<!-- Node1&#45;&gt;Node11 -->
<g id="edge10" class="edge">
<title>Node1&#45;&gt;Node11</title>
<path fill="none" stroke="midnightblue" d="M649.61,-73.61C701.12,-65.83 777.14,-52.02 841,-31 842.67,-30.45 844.36,-29.84 846.06,-29.18"/>
<polygon fill="midnightblue" stroke="midnightblue" points="847.77,-32.25 855.57,-25.08 845,-25.82 847.77,-32.25"/>
</g>
</g>
</svg>
