<?xml version="1.0" encoding="UTF-8" standalone="no"?>
<!DOCTYPE svg PUBLIC "-//W3C//DTD SVG 1.1//EN"
 "http://www.w3.org/Graphics/SVG/1.1/DTD/svg11.dtd">
<!-- Generated by graphviz version 2.43.0 (0)
 -->
<!-- Title: include/hmatrix/rkmatrix.h Pages: 1 -->
<svg width="1324pt" height="586pt"
 viewBox="0.00 0.00 1324.07 586.00" xmlns="http://www.w3.org/2000/svg" xmlns:xlink="http://www.w3.org/1999/xlink">
<g id="graph0" class="graph" transform="scale(1 1) rotate(0) translate(4 582)">
<title>include/hmatrix/rkmatrix.h</title>
<!-- Node1 -->
<g id="node1" class="node">
<title>Node1</title>
<g id="a_node1"><a xlink:title="Definition of rank&#45;k matrix.">
<polygon fill="#bfbfbf" stroke="black" points="662.07,-558.5 662.07,-577.5 791.07,-577.5 791.07,-558.5 662.07,-558.5"/>
<text text-anchor="middle" x="726.57" y="-565.5" font-family="Helvetica,sans-Serif" font-size="10.00">include/hmatrix/rkmatrix.h</text>
</a>
</g>
</g>
<!-- Node2 -->
<g id="node2" class="node">
<title>Node2</title>
<g id="a_node2"><a xlink:href="hmatrix_8h.html" target="_top" xlink:title="Definition of hierarchical matrix.">
<polygon fill="none" stroke="black" points="663.57,-502.5 663.57,-521.5 789.57,-521.5 789.57,-502.5 663.57,-502.5"/>
<text text-anchor="middle" x="726.57" y="-509.5" font-family="Helvetica,sans-Serif" font-size="10.00">include/hmatrix/hmatrix.h</text>
</a>
</g>
</g>
<!-- Node1&#45;&gt;Node2 -->
<g id="edge1" class="edge">
<title>Node1&#45;&gt;Node2</title>
<path fill="none" stroke="midnightblue" d="M726.57,-547.8C726.57,-538.91 726.57,-528.78 726.57,-521.75"/>
<polygon fill="midnightblue" stroke="midnightblue" points="723.07,-548.08 726.57,-558.08 730.07,-548.08 723.07,-548.08"/>
</g>
<!-- Node3 -->
<g id="node3" class="node">
<title>Node3</title>
<g id="a_node3"><a xlink:href="ddm__efield_8h.html" target="_top" xlink:title="Introduction of ddm_efield.h.">
<polygon fill="none" stroke="black" points="121.07,-134.5 121.07,-164.5 226.07,-164.5 226.07,-134.5 121.07,-134.5"/>
<text text-anchor="start" x="129.07" y="-152.5" font-family="Helvetica,sans-Serif" font-size="10.00">include/electric_field</text>
<text text-anchor="middle" x="173.57" y="-141.5" font-family="Helvetica,sans-Serif" font-size="10.00">/ddm_efield.h</text>
</a>
</g>
</g>
<!-- Node2&#45;&gt;Node3 -->
<g id="edge2" class="edge">
<title>Node2&#45;&gt;Node3</title>
<path fill="none" stroke="midnightblue" d="M653.14,-505.28C469.06,-489.95 2.57,-444.64 2.57,-379 2.57,-379 2.57,-379 2.57,-299 2.57,-254.63 -7.71,-234.33 21.57,-201 46.44,-172.69 87.56,-160.2 120.77,-154.72"/>
<polygon fill="midnightblue" stroke="midnightblue" points="653.02,-508.78 663.27,-506.11 653.59,-501.8 653.02,-508.78"/>
</g>
<!-- Node4 -->
<g id="node4" class="node">
<title>Node4</title>
<g id="a_node4"><a xlink:href="subdomain__steklov__poincare__hmatrix_8h.html" target="_top" xlink:title="Introduction of subdomain_steklov_poincare_hmatrix.h.">
<polygon fill="none" stroke="black" points="340.57,-357.5 340.57,-398.5 486.57,-398.5 486.57,-357.5 340.57,-357.5"/>
<text text-anchor="start" x="348.57" y="-386.5" font-family="Helvetica,sans-Serif" font-size="10.00">include/electric_field</text>
<text text-anchor="start" x="348.57" y="-375.5" font-family="Helvetica,sans-Serif" font-size="10.00">/subdomain_steklov_poincare</text>
<text text-anchor="middle" x="413.57" y="-364.5" font-family="Helvetica,sans-Serif" font-size="10.00">_hmatrix.h</text>
</a>
</g>
</g>
<!-- Node2&#45;&gt;Node4 -->
<g id="edge3" class="edge">
<title>Node2&#45;&gt;Node4</title>
<path fill="none" stroke="midnightblue" d="M653.43,-509.04C576.9,-505.43 463.64,-495.17 432.57,-466 414.31,-448.86 411.55,-418.57 411.99,-398.64"/>
<polygon fill="midnightblue" stroke="midnightblue" points="653.36,-512.54 663.5,-509.49 653.67,-505.55 653.36,-512.54"/>
</g>
<!-- Node10 -->
<g id="node10" class="node">
<title>Node10</title>
<g id="a_node10"><a xlink:href="aca__plus_8hcu.html" target="_top" xlink:title="Implement the ACA+ method proposed in Grasedyck, L. 2005. “Adaptive Recompression of &#45;Matrices for BE...">
<polygon fill="none" stroke="black" points="1215.07,-363 1215.07,-393 1316.07,-393 1316.07,-363 1215.07,-363"/>
<text text-anchor="start" x="1223.07" y="-381" font-family="Helvetica,sans-Serif" font-size="10.00">include/hmatrix/aca</text>
<text text-anchor="middle" x="1265.57" y="-370" font-family="Helvetica,sans-Serif" font-size="10.00">_plus/aca_plus.hcu</text>
</a>
</g>
</g>
<!-- Node2&#45;&gt;Node10 -->
<g id="edge14" class="edge">
<title>Node2&#45;&gt;Node10</title>
<path fill="none" stroke="midnightblue" d="M799.77,-511.26C915.58,-510.48 1134.76,-503.86 1201.57,-466 1230.94,-449.36 1250.65,-413.11 1259.76,-393.05"/>
<polygon fill="midnightblue" stroke="midnightblue" points="799.56,-507.76 789.58,-511.31 799.59,-514.76 799.56,-507.76"/>
</g>
<!-- Node11 -->
<g id="node11" class="node">
<title>Node11</title>
<g id="a_node11"><a xlink:href="laplace__bem_8priv_8hcu_source.html" target="_top" xlink:title=" ">
<polygon fill="none" stroke="black" points="790.07,-134.5 790.07,-164.5 905.07,-164.5 905.07,-134.5 790.07,-134.5"/>
<text text-anchor="start" x="798.07" y="-152.5" font-family="Helvetica,sans-Serif" font-size="10.00">include/laplace/laplace</text>
<text text-anchor="middle" x="847.57" y="-141.5" font-family="Helvetica,sans-Serif" font-size="10.00">_bem.priv.hcu</text>
</a>
</g>
</g>
<!-- Node2&#45;&gt;Node11 -->
<g id="edge31" class="edge">
<title>Node2&#45;&gt;Node11</title>
<path fill="none" stroke="midnightblue" d="M690.12,-498.36C674.5,-491.18 657.4,-480.64 646.57,-466 623.04,-434.18 627.57,-418.58 627.57,-379 627.57,-379 627.57,-379 627.57,-299 627.57,-220.55 724.87,-180.76 790.06,-162.92"/>
<polygon fill="midnightblue" stroke="midnightblue" points="689.01,-501.69 699.58,-502.4 691.76,-495.25 689.01,-501.69"/>
</g>
<!-- Node14 -->
<g id="node14" class="node">
<title>Node14</title>
<g id="a_node14"><a xlink:href="operator__preconditioner_8h.html" target="_top" xlink:title=" ">
<polygon fill="none" stroke="black" points="1043.07,-285 1043.07,-315 1172.07,-315 1172.07,-285 1043.07,-285"/>
<text text-anchor="start" x="1051.07" y="-303" font-family="Helvetica,sans-Serif" font-size="10.00">include/preconditioners</text>
<text text-anchor="middle" x="1107.57" y="-292" font-family="Helvetica,sans-Serif" font-size="10.00">/operator_preconditioner.h</text>
</a>
</g>
</g>
<!-- Node2&#45;&gt;Node14 -->
<g id="edge32" class="edge">
<title>Node2&#45;&gt;Node14</title>
<path fill="none" stroke="midnightblue" d="M799.77,-508.81C918.99,-504.47 1144.36,-492.8 1168.57,-466 1178.08,-455.47 1187.49,-404.04 1166.57,-357 1158.82,-339.58 1142.84,-324.96 1129.46,-315.03"/>
<polygon fill="midnightblue" stroke="midnightblue" points="799.49,-505.31 789.62,-509.17 799.74,-512.31 799.49,-505.31"/>
</g>
<!-- Node18 -->
<g id="node18" class="node">
<title>Node18</title>
<g id="a_node18"><a xlink:href="hblockmatrix__skew__symm_8h.html" target="_top" xlink:title="Introduction of hblockmatrix_skew_symm.h.">
<polygon fill="none" stroke="black" points="656.07,-435.5 656.07,-465.5 797.07,-465.5 797.07,-435.5 656.07,-435.5"/>
<text text-anchor="start" x="664.07" y="-453.5" font-family="Helvetica,sans-Serif" font-size="10.00">include/hmatrix/hblockmatrix</text>
<text text-anchor="middle" x="726.57" y="-442.5" font-family="Helvetica,sans-Serif" font-size="10.00">_skew_symm.h</text>
</a>
</g>
</g>
<!-- Node2&#45;&gt;Node18 -->
<g id="edge24" class="edge">
<title>Node2&#45;&gt;Node18</title>
<path fill="none" stroke="midnightblue" d="M726.57,-492.23C726.57,-483.59 726.57,-473.5 726.57,-465.52"/>
<polygon fill="midnightblue" stroke="midnightblue" points="723.07,-492.48 726.57,-502.48 730.07,-492.48 723.07,-492.48"/>
</g>
<!-- Node19 -->
<g id="node19" class="node">
<title>Node19</title>
<g id="a_node19"><a xlink:href="hblockmatrix__skew__symm__preconditioner_8h.html" target="_top" xlink:title="Introduction of hblockmatrix_skew_symm_preconditioner.h.">
<polygon fill="none" stroke="black" points="815.57,-435.5 815.57,-465.5 1025.57,-465.5 1025.57,-435.5 815.57,-435.5"/>
<text text-anchor="start" x="823.57" y="-453.5" font-family="Helvetica,sans-Serif" font-size="10.00">include/hmatrix/preconditioner</text>
<text text-anchor="middle" x="920.57" y="-442.5" font-family="Helvetica,sans-Serif" font-size="10.00">/hblockmatrix_skew_symm_preconditioner.h</text>
</a>
</g>
</g>
<!-- Node2&#45;&gt;Node19 -->
<g id="edge26" class="edge">
<title>Node2&#45;&gt;Node19</title>
<path fill="none" stroke="midnightblue" d="M764.12,-499.48C795.75,-489.78 841.11,-475.87 874.85,-465.52"/>
<polygon fill="midnightblue" stroke="midnightblue" points="762.9,-496.2 754.37,-502.48 764.95,-502.89 762.9,-496.2"/>
</g>
<!-- Node20 -->
<g id="node20" class="node">
<title>Node20</title>
<g id="a_node20"><a xlink:href="hmatrix__symm__preconditioner_8h.html" target="_top" xlink:title="Symmetric &#45;matrix by inheriting from HMatrix, which is used as the preconditioner for SPD &#45;matrices.">
<polygon fill="none" stroke="black" points="441.57,-435.5 441.57,-465.5 599.57,-465.5 599.57,-435.5 441.57,-435.5"/>
<text text-anchor="start" x="449.57" y="-453.5" font-family="Helvetica,sans-Serif" font-size="10.00">include/hmatrix/preconditioner</text>
<text text-anchor="middle" x="520.57" y="-442.5" font-family="Helvetica,sans-Serif" font-size="10.00">/hmatrix_symm_preconditioner.h</text>
</a>
</g>
</g>
<!-- Node2&#45;&gt;Node20 -->
<g id="edge28" class="edge">
<title>Node2&#45;&gt;Node20</title>
<path fill="none" stroke="midnightblue" d="M687.13,-499.61C653.53,-489.9 605.1,-475.92 569.12,-465.52"/>
<polygon fill="midnightblue" stroke="midnightblue" points="686.48,-503.06 697.06,-502.48 688.42,-496.34 686.48,-503.06"/>
</g>
<!-- Node21 -->
<g id="node21" class="node">
<title>Node21</title>
<g id="a_node21"><a xlink:href="sauter__quadrature_8hcu_source.html" target="_top" xlink:title=" ">
<polygon fill="none" stroke="black" points="1043.57,-435.5 1043.57,-465.5 1159.57,-465.5 1159.57,-435.5 1043.57,-435.5"/>
<text text-anchor="start" x="1051.57" y="-453.5" font-family="Helvetica,sans-Serif" font-size="10.00">include/quadrature</text>
<text text-anchor="middle" x="1101.57" y="-442.5" font-family="Helvetica,sans-Serif" font-size="10.00">/sauter_quadrature.hcu</text>
</a>
</g>
</g>
<!-- Node2&#45;&gt;Node21 -->
<g id="edge33" class="edge">
<title>Node2&#45;&gt;Node21</title>
<path fill="none" stroke="midnightblue" d="M799.76,-501.73C862.31,-493.47 954.61,-480.48 1034.57,-466 1037.5,-465.47 1040.49,-464.91 1043.51,-464.32"/>
<polygon fill="midnightblue" stroke="midnightblue" points="799.06,-498.3 789.6,-503.07 799.97,-505.24 799.06,-498.3"/>
</g>
<!-- Node4&#45;&gt;Node3 -->
<g id="edge4" class="edge">
<title>Node4&#45;&gt;Node3</title>
<path fill="none" stroke="midnightblue" d="M330.58,-364.51C301.67,-356.4 271.11,-343.03 249.57,-321 210.46,-281 237.2,-250.73 211.57,-201 204.73,-187.74 194.44,-174.31 186.28,-164.64"/>
<polygon fill="midnightblue" stroke="midnightblue" points="329.74,-367.91 340.3,-367.06 331.52,-361.14 329.74,-367.91"/>
</g>
<!-- Node5 -->
<g id="node5" class="node">
<title>Node5</title>
<g id="a_node5"><a xlink:href="ddm__efield__matrix_8h.html" target="_top" xlink:title="Introduction of ddm_efield_matrix.h.">
<polygon fill="none" stroke="black" points="338.07,-207 338.07,-237 445.07,-237 445.07,-207 338.07,-207"/>
<text text-anchor="start" x="346.07" y="-225" font-family="Helvetica,sans-Serif" font-size="10.00">include/electric_field</text>
<text text-anchor="middle" x="391.57" y="-214" font-family="Helvetica,sans-Serif" font-size="10.00">/ddm_efield_matrix.h</text>
</a>
</g>
</g>
<!-- Node4&#45;&gt;Node5 -->
<g id="edge5" class="edge">
<title>Node4&#45;&gt;Node5</title>
<path fill="none" stroke="midnightblue" d="M495.76,-352.93C509.98,-345.04 522.94,-334.65 531.57,-321 541.55,-305.22 542.04,-294.46 531.57,-279 512.34,-250.6 476.14,-236.6 445.36,-229.7"/>
<polygon fill="midnightblue" stroke="midnightblue" points="494.09,-349.85 486.78,-357.52 497.28,-356.08 494.09,-349.85"/>
</g>
<!-- Node6 -->
<g id="node6" class="node">
<title>Node6</title>
<g id="a_node6"><a xlink:href="subdomain__hmatrix__for__charge__neutrality__eqn_8h.html" target="_top" xlink:title="Introduction of subdomain_hmatrix_for_charge_neutrality_eqn.h.">
<polygon fill="none" stroke="black" points="259.07,-279.5 259.07,-320.5 384.07,-320.5 384.07,-279.5 259.07,-279.5"/>
<text text-anchor="start" x="267.07" y="-308.5" font-family="Helvetica,sans-Serif" font-size="10.00">include/electric_field</text>
<text text-anchor="start" x="267.07" y="-297.5" font-family="Helvetica,sans-Serif" font-size="10.00">/subdomain_hmatrix_for</text>
<text text-anchor="middle" x="321.57" y="-286.5" font-family="Helvetica,sans-Serif" font-size="10.00">_charge_neutrality_eqn.h</text>
</a>
</g>
</g>
<!-- Node4&#45;&gt;Node6 -->
<g id="edge7" class="edge">
<title>Node4&#45;&gt;Node6</title>
<path fill="none" stroke="midnightblue" d="M381.83,-350.78C369.8,-340.84 356.33,-329.72 345.18,-320.51"/>
<polygon fill="midnightblue" stroke="midnightblue" points="379.94,-353.76 389.88,-357.43 384.4,-348.36 379.94,-353.76"/>
</g>
<!-- Node7 -->
<g id="node7" class="node">
<title>Node7</title>
<g id="a_node7"><a xlink:href="subdomain__hmatrix__for__global__preconditioning_8h.html" target="_top" xlink:title="Introduction of subdomain_hmatrix_for_global_preconditioning.h.">
<polygon fill="none" stroke="black" points="64.57,-279.5 64.57,-320.5 190.57,-320.5 190.57,-279.5 64.57,-279.5"/>
<text text-anchor="start" x="72.57" y="-308.5" font-family="Helvetica,sans-Serif" font-size="10.00">include/electric_field</text>
<text text-anchor="start" x="72.57" y="-297.5" font-family="Helvetica,sans-Serif" font-size="10.00">/subdomain_hmatrix_for</text>
<text text-anchor="middle" x="127.57" y="-286.5" font-family="Helvetica,sans-Serif" font-size="10.00">_global_preconditioning.h</text>
</a>
</g>
</g>
<!-- Node4&#45;&gt;Node7 -->
<g id="edge9" class="edge">
<title>Node4&#45;&gt;Node7</title>
<path fill="none" stroke="midnightblue" d="M330.37,-354.89C285.89,-343.07 231.99,-328.75 190.95,-317.84"/>
<polygon fill="midnightblue" stroke="midnightblue" points="329.73,-358.34 340.29,-357.53 331.52,-351.58 329.73,-358.34"/>
</g>
<!-- Node9 -->
<g id="node9" class="node">
<title>Node9</title>
<g id="a_node9"><a xlink:href="subdomain__hmatrix__for__transmission__eqn_8h.html" target="_top" xlink:title="Introduction of subdomain_hmatrix_for_transmission_eqn.h.">
<polygon fill="none" stroke="black" points="402.07,-279.5 402.07,-320.5 523.07,-320.5 523.07,-279.5 402.07,-279.5"/>
<text text-anchor="start" x="410.07" y="-308.5" font-family="Helvetica,sans-Serif" font-size="10.00">include/electric_field</text>
<text text-anchor="start" x="410.07" y="-297.5" font-family="Helvetica,sans-Serif" font-size="10.00">/subdomain_hmatrix_for</text>
<text text-anchor="middle" x="462.57" y="-286.5" font-family="Helvetica,sans-Serif" font-size="10.00">_transmission_eqn.h</text>
</a>
</g>
</g>
<!-- Node4&#45;&gt;Node9 -->
<g id="edge12" class="edge">
<title>Node4&#45;&gt;Node9</title>
<path fill="none" stroke="midnightblue" d="M431.78,-348.76C437.84,-339.35 444.46,-329.1 449.99,-320.51"/>
<polygon fill="midnightblue" stroke="midnightblue" points="428.67,-347.13 426.19,-357.43 434.55,-350.92 428.67,-347.13"/>
</g>
<!-- Node5&#45;&gt;Node3 -->
<g id="edge6" class="edge">
<title>Node5&#45;&gt;Node3</title>
<path fill="none" stroke="midnightblue" d="M338.57,-203.86C301.34,-191.82 252.15,-175.91 217.19,-164.61"/>
<polygon fill="midnightblue" stroke="midnightblue" points="337.65,-207.24 348.24,-206.99 339.8,-200.58 337.65,-207.24"/>
</g>
<!-- Node6&#45;&gt;Node5 -->
<g id="edge8" class="edge">
<title>Node6&#45;&gt;Node5</title>
<path fill="none" stroke="midnightblue" d="M346.45,-271.99C357.26,-260.25 369.47,-246.99 378.47,-237.23"/>
<polygon fill="midnightblue" stroke="midnightblue" points="343.8,-269.7 339.6,-279.43 348.95,-274.44 343.8,-269.7"/>
</g>
<!-- Node8 -->
<g id="node8" class="node">
<title>Node8</title>
<g id="a_node8"><a xlink:href="ddm__efield__global__preconditioner_8h.html" target="_top" xlink:title="Introduction of ddm_efield_global_preconditioner.h.">
<polygon fill="none" stroke="black" points="30.57,-207 30.57,-237 202.57,-237 202.57,-207 30.57,-207"/>
<text text-anchor="start" x="38.57" y="-225" font-family="Helvetica,sans-Serif" font-size="10.00">include/electric_field</text>
<text text-anchor="middle" x="116.57" y="-214" font-family="Helvetica,sans-Serif" font-size="10.00">/ddm_efield_global_preconditioner.h</text>
</a>
</g>
</g>
<!-- Node7&#45;&gt;Node8 -->
<g id="edge10" class="edge">
<title>Node7&#45;&gt;Node8</title>
<path fill="none" stroke="midnightblue" d="M123.27,-269.28C121.67,-258.25 119.93,-246.25 118.63,-237.23"/>
<polygon fill="midnightblue" stroke="midnightblue" points="119.84,-270.03 124.74,-279.43 126.77,-269.03 119.84,-270.03"/>
</g>
<!-- Node8&#45;&gt;Node3 -->
<g id="edge11" class="edge">
<title>Node8&#45;&gt;Node3</title>
<path fill="none" stroke="midnightblue" d="M134.59,-198.71C143.58,-187.6 154.18,-174.49 162.05,-164.75"/>
<polygon fill="midnightblue" stroke="midnightblue" points="131.67,-196.76 128.1,-206.73 137.11,-201.16 131.67,-196.76"/>
</g>
<!-- Node9&#45;&gt;Node5 -->
<g id="edge13" class="edge">
<title>Node9&#45;&gt;Node5</title>
<path fill="none" stroke="midnightblue" d="M437.34,-271.99C426.37,-260.25 413.98,-246.99 404.86,-237.23"/>
<polygon fill="midnightblue" stroke="midnightblue" points="434.9,-274.51 444.29,-279.43 440.02,-269.73 434.9,-274.51"/>
</g>
<!-- Node10&#45;&gt;Node11 -->
<g id="edge15" class="edge">
<title>Node10&#45;&gt;Node11</title>
<path fill="none" stroke="midnightblue" d="M1285.82,-355.25C1302.09,-335.02 1320.16,-304.27 1306.57,-279 1276.8,-223.63 1247.28,-223.47 1188.57,-201 1093.69,-164.68 974.71,-154.33 905.3,-151.47"/>
<polygon fill="midnightblue" stroke="midnightblue" points="1283.08,-353.08 1279.29,-362.98 1288.42,-357.6 1283.08,-353.08"/>
</g>
<!-- Node10&#45;&gt;Node14 -->
<g id="edge18" class="edge">
<title>Node10&#45;&gt;Node14</title>
<path fill="none" stroke="midnightblue" d="M1227.16,-358.52C1199.31,-345.13 1162.21,-327.28 1136.76,-315.04"/>
<polygon fill="midnightblue" stroke="midnightblue" points="1225.69,-361.7 1236.22,-362.88 1228.73,-355.39 1225.69,-361.7"/>
</g>
<!-- Node17 -->
<g id="node17" class="node">
<title>Node17</title>
<g id="a_node17"><a xlink:href="aca__plus_8cu_source.html" target="_top" xlink:title=" ">
<polygon fill="none" stroke="black" points="1190.07,-285 1190.07,-315 1297.07,-315 1297.07,-285 1190.07,-285"/>
<text text-anchor="start" x="1198.07" y="-303" font-family="Helvetica,sans-Serif" font-size="10.00">src/hmatrix/aca_plus</text>
<text text-anchor="middle" x="1243.57" y="-292" font-family="Helvetica,sans-Serif" font-size="10.00">/aca_plus.cu</text>
</a>
</g>
</g>
<!-- Node10&#45;&gt;Node17 -->
<g id="edge23" class="edge">
<title>Node10&#45;&gt;Node17</title>
<path fill="none" stroke="midnightblue" d="M1258.61,-352.96C1255.02,-340.55 1250.76,-325.83 1247.69,-315.23"/>
<polygon fill="midnightblue" stroke="midnightblue" points="1255.29,-354.07 1261.43,-362.7 1262.01,-352.13 1255.29,-354.07"/>
</g>
<!-- Node12 -->
<g id="node12" class="node">
<title>Node12</title>
<g id="a_node12"><a xlink:href="laplace__bem_8impl_8hcu_source.html" target="_top" xlink:title=" ">
<polygon fill="none" stroke="black" points="790.07,-67.5 790.07,-97.5 905.07,-97.5 905.07,-67.5 790.07,-67.5"/>
<text text-anchor="start" x="798.07" y="-85.5" font-family="Helvetica,sans-Serif" font-size="10.00">include/laplace/laplace</text>
<text text-anchor="middle" x="847.57" y="-74.5" font-family="Helvetica,sans-Serif" font-size="10.00">_bem.impl.hcu</text>
</a>
</g>
</g>
<!-- Node11&#45;&gt;Node12 -->
<g id="edge16" class="edge">
<title>Node11&#45;&gt;Node12</title>
<path fill="none" stroke="midnightblue" d="M847.57,-124.11C847.57,-115.15 847.57,-105.32 847.57,-97.58"/>
<polygon fill="midnightblue" stroke="midnightblue" points="844.07,-124.4 847.57,-134.4 851.07,-124.4 844.07,-124.4"/>
</g>
<!-- Node13 -->
<g id="node13" class="node">
<title>Node13</title>
<g id="a_node13"><a xlink:href="laplace__bem_8cu_source.html" target="_top" xlink:title=" ">
<polygon fill="none" stroke="black" points="798.57,-0.5 798.57,-30.5 896.57,-30.5 896.57,-0.5 798.57,-0.5"/>
<text text-anchor="start" x="806.57" y="-18.5" font-family="Helvetica,sans-Serif" font-size="10.00">src/laplace/laplace</text>
<text text-anchor="middle" x="847.57" y="-7.5" font-family="Helvetica,sans-Serif" font-size="10.00">_bem.cu</text>
</a>
</g>
</g>
<!-- Node12&#45;&gt;Node13 -->
<g id="edge17" class="edge">
<title>Node12&#45;&gt;Node13</title>
<path fill="none" stroke="midnightblue" d="M847.57,-57.11C847.57,-48.15 847.57,-38.32 847.57,-30.58"/>
<polygon fill="midnightblue" stroke="midnightblue" points="844.07,-57.4 847.57,-67.4 851.07,-57.4 844.07,-57.4"/>
</g>
<!-- Node15 -->
<g id="node15" class="node">
<title>Node15</title>
<g id="a_node15"><a xlink:href="preconditioner__for__laplace__dirichlet_8h.html" target="_top" xlink:title=" ">
<polygon fill="none" stroke="black" points="1046.07,-201.5 1046.07,-242.5 1179.07,-242.5 1179.07,-201.5 1046.07,-201.5"/>
<text text-anchor="start" x="1054.07" y="-230.5" font-family="Helvetica,sans-Serif" font-size="10.00">include/preconditioners</text>
<text text-anchor="start" x="1054.07" y="-219.5" font-family="Helvetica,sans-Serif" font-size="10.00">/preconditioner_for_laplace</text>
<text text-anchor="middle" x="1112.57" y="-208.5" font-family="Helvetica,sans-Serif" font-size="10.00">_dirichlet.h</text>
</a>
</g>
</g>
<!-- Node14&#45;&gt;Node15 -->
<g id="edge19" class="edge">
<title>Node14&#45;&gt;Node15</title>
<path fill="none" stroke="midnightblue" d="M1109.17,-274.66C1109.85,-264.33 1110.63,-252.44 1111.28,-242.68"/>
<polygon fill="midnightblue" stroke="midnightblue" points="1105.67,-274.5 1108.51,-284.7 1112.66,-274.96 1105.67,-274.5"/>
</g>
<!-- Node16 -->
<g id="node16" class="node">
<title>Node16</title>
<g id="a_node16"><a xlink:href="preconditioner__for__laplace__neumann_8h.html" target="_top" xlink:title=" ">
<polygon fill="none" stroke="black" points="895.07,-201.5 895.07,-242.5 1028.07,-242.5 1028.07,-201.5 895.07,-201.5"/>
<text text-anchor="start" x="903.07" y="-230.5" font-family="Helvetica,sans-Serif" font-size="10.00">include/preconditioners</text>
<text text-anchor="start" x="903.07" y="-219.5" font-family="Helvetica,sans-Serif" font-size="10.00">/preconditioner_for_laplace</text>
<text text-anchor="middle" x="961.57" y="-208.5" font-family="Helvetica,sans-Serif" font-size="10.00">_neumann.h</text>
</a>
</g>
</g>
<!-- Node14&#45;&gt;Node16 -->
<g id="edge21" class="edge">
<title>Node14&#45;&gt;Node16</title>
<path fill="none" stroke="midnightblue" d="M1071.45,-280.2C1049.49,-268.77 1021.51,-254.2 999.28,-242.63"/>
<polygon fill="midnightblue" stroke="midnightblue" points="1069.96,-283.37 1080.45,-284.88 1073.2,-277.16 1069.96,-283.37"/>
</g>
<!-- Node15&#45;&gt;Node11 -->
<g id="edge20" class="edge">
<title>Node15&#45;&gt;Node11</title>
<path fill="none" stroke="midnightblue" d="M1036.01,-200.58C984.9,-186.98 936.22,-174.04 900.4,-164.53"/>
<polygon fill="midnightblue" stroke="midnightblue" points="1035.35,-204.03 1045.91,-203.22 1037.15,-197.27 1035.35,-204.03"/>
</g>
<!-- Node16&#45;&gt;Node11 -->
<g id="edge22" class="edge">
<title>Node16&#45;&gt;Node11</title>
<path fill="none" stroke="midnightblue" d="M921.16,-196.01C904.15,-185.49 884.99,-173.64 870.48,-164.67"/>
<polygon fill="midnightblue" stroke="midnightblue" points="919.47,-199.08 929.81,-201.36 923.15,-193.13 919.47,-199.08"/>
</g>
<!-- Node18&#45;&gt;Node11 -->
<g id="edge25" class="edge">
<title>Node18&#45;&gt;Node11</title>
<path fill="none" stroke="midnightblue" d="M736.14,-425.86C760.16,-366.51 822.45,-212.58 841.77,-164.84"/>
<polygon fill="midnightblue" stroke="midnightblue" points="732.75,-424.9 732.24,-435.48 739.24,-427.52 732.75,-424.9"/>
</g>
<!-- Node19&#45;&gt;Node11 -->
<g id="edge27" class="edge">
<title>Node19&#45;&gt;Node11</title>
<path fill="none" stroke="midnightblue" d="M895.83,-428.4C887.7,-420.1 879.5,-409.93 874.57,-399 837.47,-316.71 842.84,-204.09 846.15,-164.75"/>
<polygon fill="midnightblue" stroke="midnightblue" points="893.54,-431.06 903.18,-435.48 898.4,-426.02 893.54,-431.06"/>
</g>
<!-- Node20&#45;&gt;Node4 -->
<g id="edge29" class="edge">
<title>Node20&#45;&gt;Node4</title>
<path fill="none" stroke="midnightblue" d="M490.45,-429.65C475.75,-419.97 458.11,-408.35 443.44,-398.68"/>
<polygon fill="midnightblue" stroke="midnightblue" points="488.9,-432.82 499.17,-435.4 492.75,-426.98 488.9,-432.82"/>
</g>
<!-- Node20&#45;&gt;Node11 -->
<g id="edge30" class="edge">
<title>Node20&#45;&gt;Node11</title>
<path fill="none" stroke="midnightblue" d="M526.44,-425.43C540.65,-369.17 578.29,-231.49 613.57,-201 639.55,-178.55 729.49,-164.04 790,-156.57"/>
<polygon fill="midnightblue" stroke="midnightblue" points="523.02,-424.7 524,-435.25 529.81,-426.39 523.02,-424.7"/>
</g>
<!-- Node21&#45;&gt;Node10 -->
<g id="edge37" class="edge">
<title>Node21&#45;&gt;Node10</title>
<path fill="none" stroke="midnightblue" d="M1143.81,-431.34C1171.53,-419.42 1207.26,-404.07 1232.83,-393.07"/>
<polygon fill="midnightblue" stroke="midnightblue" points="1142.17,-428.24 1134.36,-435.4 1144.93,-434.67 1142.17,-428.24"/>
</g>
<!-- Node22 -->
<g id="node22" class="node">
<title>Node22</title>
<g id="a_node22"><a xlink:href="bem__general_8hcu_source.html" target="_top" xlink:title=" ">
<polygon fill="none" stroke="black" points="883.57,-368.5 883.57,-387.5 1029.57,-387.5 1029.57,-368.5 883.57,-368.5"/>
<text text-anchor="middle" x="956.57" y="-375.5" font-family="Helvetica,sans-Serif" font-size="10.00">include/bem/bem_general.hcu</text>
</a>
</g>
</g>
<!-- Node21&#45;&gt;Node22 -->
<g id="edge34" class="edge">
<title>Node21&#45;&gt;Node22</title>
<path fill="none" stroke="midnightblue" d="M1063.55,-431.02C1034.64,-416.96 996.18,-398.26 974.12,-387.53"/>
<polygon fill="midnightblue" stroke="midnightblue" points="1062.05,-434.18 1072.58,-435.4 1065.11,-427.88 1062.05,-434.18"/>
</g>
<!-- Node23 -->
<g id="node23" class="node">
<title>Node23</title>
<g id="a_node23"><a xlink:href="sauter__quadrature_8cu_source.html" target="_top" xlink:title=" ">
<polygon fill="none" stroke="black" points="1048.07,-363 1048.07,-393 1157.07,-393 1157.07,-363 1048.07,-363"/>
<text text-anchor="start" x="1056.07" y="-381" font-family="Helvetica,sans-Serif" font-size="10.00">src/quadrature/sauter</text>
<text text-anchor="middle" x="1102.57" y="-370" font-family="Helvetica,sans-Serif" font-size="10.00">_quadrature.cu</text>
</a>
</g>
</g>
<!-- Node21&#45;&gt;Node23 -->
<g id="edge38" class="edge">
<title>Node21&#45;&gt;Node23</title>
<path fill="none" stroke="midnightblue" d="M1101.91,-425.23C1102.07,-414.57 1102.24,-402.41 1102.37,-393.25"/>
<polygon fill="midnightblue" stroke="midnightblue" points="1098.41,-425.18 1101.77,-435.23 1105.41,-425.28 1098.41,-425.18"/>
</g>
<!-- Node22&#45;&gt;Node11 -->
<g id="edge35" class="edge">
<title>Node22&#45;&gt;Node11</title>
<path fill="none" stroke="midnightblue" d="M946.86,-359.55C932.9,-334.2 906.61,-285.55 886.57,-243 873.72,-215.72 860.43,-183.07 853.16,-164.76"/>
<polygon fill="midnightblue" stroke="midnightblue" points="943.83,-361.29 951.73,-368.35 949.95,-357.9 943.83,-361.29"/>
</g>
<!-- Node22&#45;&gt;Node14 -->
<g id="edge36" class="edge">
<title>Node22&#45;&gt;Node14</title>
<path fill="none" stroke="midnightblue" d="M982.84,-363.78C1009.9,-350.16 1051.92,-329.01 1079.59,-315.08"/>
<polygon fill="midnightblue" stroke="midnightblue" points="980.96,-360.81 973.6,-368.43 984.1,-367.06 980.96,-360.81"/>
</g>
</g>
</svg>
