<?xml version="1.0" encoding="UTF-8" standalone="no"?>
<!DOCTYPE svg PUBLIC "-//W3C//DTD SVG 1.1//EN"
 "http://www.w3.org/Graphics/SVG/1.1/DTD/svg11.dtd">
<!-- Generated by graphviz version 2.43.0 (0)
 -->
<!-- Title: include/quadrature/sauter_quadrature_tools.h Pages: 1 -->
<svg width="902pt" height="162pt"
 viewBox="0.00 0.00 902.00 162.00" xmlns="http://www.w3.org/2000/svg" xmlns:xlink="http://www.w3.org/1999/xlink">
<g id="graph0" class="graph" transform="scale(1 1) rotate(0) translate(4 158)">
<title>include/quadrature/sauter_quadrature_tools.h</title>
<!-- Node1 -->
<g id="node1" class="node">
<title>Node1</title>
<g id="a_node1"><a xlink:title="Introduction of sauter_quadrature_tools.h.">
<polygon fill="#bfbfbf" stroke="black" points="422,-123.5 422,-153.5 554,-153.5 554,-123.5 422,-123.5"/>
<text text-anchor="start" x="430" y="-141.5" font-family="Helvetica,sans-Serif" font-size="10.00">include/quadrature</text>
<text text-anchor="middle" x="488" y="-130.5" font-family="Helvetica,sans-Serif" font-size="10.00">/sauter_quadrature_tools.h</text>
</a>
</g>
</g>
<!-- Node2 -->
<g id="node2" class="node">
<title>Node2</title>
<g id="a_node2"><a xlink:title=" ">
<polygon fill="none" stroke="#bfbfbf" points="344,-67.5 344,-86.5 444,-86.5 444,-67.5 344,-67.5"/>
<text text-anchor="middle" x="394" y="-74.5" font-family="Helvetica,sans-Serif" font-size="10.00">deal.II/base/point.h</text>
</a>
</g>
</g>
<!-- Node1&#45;&gt;Node2 -->
<g id="edge1" class="edge">
<title>Node1&#45;&gt;Node2</title>
<path fill="none" stroke="midnightblue" d="M465.72,-123.4C450.8,-113.95 431.22,-101.56 416.29,-92.11"/>
<polygon fill="midnightblue" stroke="midnightblue" points="418,-89.05 407.68,-86.66 414.26,-94.96 418,-89.05"/>
</g>
<!-- Node3 -->
<g id="node3" class="node">
<title>Node3</title>
<g id="a_node3"><a xlink:href="config_8h.html" target="_top" xlink:title="Configurations for building the project.">
<polygon fill="none" stroke="black" points="462.5,-67.5 462.5,-86.5 513.5,-86.5 513.5,-67.5 462.5,-67.5"/>
<text text-anchor="middle" x="488" y="-74.5" font-family="Helvetica,sans-Serif" font-size="10.00">config.h</text>
</a>
</g>
</g>
<!-- Node1&#45;&gt;Node3 -->
<g id="edge2" class="edge">
<title>Node1&#45;&gt;Node3</title>
<path fill="none" stroke="midnightblue" d="M488,-123.4C488,-115.47 488,-105.46 488,-96.86"/>
<polygon fill="midnightblue" stroke="midnightblue" points="491.5,-96.66 488,-86.66 484.5,-96.66 491.5,-96.66"/>
</g>
<!-- Node4 -->
<g id="node4" class="node">
<title>Node4</title>
<g id="a_node4"><a xlink:href="quadrature_8templates_8h.html" target="_top" xlink:title="This file is extracted from $DEAL_II_DIR/source/base/quadrature.cc for generating the Gauss quadratur...">
<polygon fill="none" stroke="black" points="532,-67.5 532,-86.5 648,-86.5 648,-67.5 532,-67.5"/>
<text text-anchor="middle" x="590" y="-74.5" font-family="Helvetica,sans-Serif" font-size="10.00">quadrature.templates.h</text>
</a>
</g>
</g>
<!-- Node1&#45;&gt;Node4 -->
<g id="edge3" class="edge">
<title>Node1&#45;&gt;Node4</title>
<path fill="none" stroke="midnightblue" d="M512.17,-123.4C528.52,-113.86 550.01,-101.32 566.27,-91.84"/>
<polygon fill="midnightblue" stroke="midnightblue" points="568.28,-94.72 575.16,-86.66 564.76,-88.67 568.28,-94.72"/>
</g>
<!-- Node5 -->
<g id="node5" class="node">
<title>Node5</title>
<g id="a_node5"><a xlink:title=" ">
<polygon fill="none" stroke="#bfbfbf" points="0,-0.5 0,-30.5 106,-30.5 106,-0.5 0,-0.5"/>
<text text-anchor="start" x="8" y="-18.5" font-family="Helvetica,sans-Serif" font-size="10.00">deal.II/base/memory</text>
<text text-anchor="middle" x="53" y="-7.5" font-family="Helvetica,sans-Serif" font-size="10.00">_consumption.h</text>
</a>
</g>
</g>
<!-- Node4&#45;&gt;Node5 -->
<g id="edge4" class="edge">
<title>Node4&#45;&gt;Node5</title>
<path fill="none" stroke="midnightblue" d="M531.78,-68.13C528.47,-67.73 525.2,-67.35 522,-67 344.76,-47.44 296.05,-59.3 116.07,-31.02"/>
<polygon fill="midnightblue" stroke="midnightblue" points="116.43,-27.53 106,-29.42 115.33,-34.44 116.43,-27.53"/>
</g>
<!-- Node6 -->
<g id="node6" class="node">
<title>Node6</title>
<g id="a_node6"><a xlink:title=" ">
<polygon fill="none" stroke="#bfbfbf" points="124.5,-6 124.5,-25 249.5,-25 249.5,-6 124.5,-6"/>
<text text-anchor="middle" x="187" y="-13" font-family="Helvetica,sans-Serif" font-size="10.00">deal.II/base/quadrature.h</text>
</a>
</g>
</g>
<!-- Node4&#45;&gt;Node6 -->
<g id="edge5" class="edge">
<title>Node4&#45;&gt;Node6</title>
<path fill="none" stroke="midnightblue" d="M531.71,-68.28C443.93,-56.62 285.23,-35.42 259,-31 251.83,-29.79 244.27,-28.4 236.86,-26.97"/>
<polygon fill="midnightblue" stroke="midnightblue" points="237.39,-23.51 226.9,-25.01 236.04,-30.37 237.39,-23.51"/>
</g>
<!-- Node7 -->
<g id="node7" class="node">
<title>Node7</title>
<g id="a_node7"><a xlink:title=" ">
<polygon fill="none" stroke="#bfbfbf" points="268,-0.5 268,-30.5 384,-30.5 384,-0.5 268,-0.5"/>
<text text-anchor="start" x="276" y="-18.5" font-family="Helvetica,sans-Serif" font-size="10.00">deal.II/base/quadrature</text>
<text text-anchor="middle" x="326" y="-7.5" font-family="Helvetica,sans-Serif" font-size="10.00">_lib.h</text>
</a>
</g>
</g>
<!-- Node4&#45;&gt;Node7 -->
<g id="edge6" class="edge">
<title>Node4&#45;&gt;Node7</title>
<path fill="none" stroke="midnightblue" d="M552.18,-67.48C511.01,-58.2 444.34,-43.17 394.02,-31.83"/>
<polygon fill="midnightblue" stroke="midnightblue" points="394.72,-28.4 384.19,-29.62 393.18,-35.23 394.72,-28.4"/>
</g>
<!-- Node8 -->
<g id="node8" class="node">
<title>Node8</title>
<g id="a_node8"><a xlink:title=" ">
<polygon fill="none" stroke="#bfbfbf" points="402,-6 402,-25 512,-25 512,-6 402,-6"/>
<text text-anchor="middle" x="457" y="-13" font-family="Helvetica,sans-Serif" font-size="10.00">deal.II/base/utilities.h</text>
</a>
</g>
</g>
<!-- Node4&#45;&gt;Node8 -->
<g id="edge7" class="edge">
<title>Node4&#45;&gt;Node8</title>
<path fill="none" stroke="midnightblue" d="M570.94,-67.48C548.53,-57.45 511.09,-40.7 485.29,-29.15"/>
<polygon fill="midnightblue" stroke="midnightblue" points="486.58,-25.9 476.02,-25.01 483.72,-32.29 486.58,-25.9"/>
</g>
<!-- Node9 -->
<g id="node9" class="node">
<title>Node9</title>
<g id="a_node9"><a xlink:title=" ">
<polygon fill="none" stroke="#bfbfbf" points="530,-6 530,-25 586,-25 586,-6 530,-6"/>
<text text-anchor="middle" x="558" y="-13" font-family="Helvetica,sans-Serif" font-size="10.00">algorithm</text>
</a>
</g>
</g>
<!-- Node4&#45;&gt;Node9 -->
<g id="edge8" class="edge">
<title>Node4&#45;&gt;Node9</title>
<path fill="none" stroke="midnightblue" d="M585.42,-67.48C580.76,-58.82 573.41,-45.15 567.49,-34.15"/>
<polygon fill="midnightblue" stroke="midnightblue" points="570.4,-32.16 562.58,-25.01 564.23,-35.47 570.4,-32.16"/>
</g>
<!-- Node10 -->
<g id="node10" class="node">
<title>Node10</title>
<g id="a_node10"><a xlink:title=" ">
<polygon fill="none" stroke="#bfbfbf" points="604,-6 604,-25 642,-25 642,-6 604,-6"/>
<text text-anchor="middle" x="623" y="-13" font-family="Helvetica,sans-Serif" font-size="10.00">array</text>
</a>
</g>
</g>
<!-- Node4&#45;&gt;Node10 -->
<g id="edge9" class="edge">
<title>Node4&#45;&gt;Node10</title>
<path fill="none" stroke="midnightblue" d="M594.73,-67.48C599.58,-58.73 607.27,-44.87 613.4,-33.81"/>
<polygon fill="midnightblue" stroke="midnightblue" points="616.49,-35.45 618.28,-25.01 610.37,-32.06 616.49,-35.45"/>
</g>
<!-- Node11 -->
<g id="node11" class="node">
<title>Node11</title>
<g id="a_node11"><a xlink:title=" ">
<polygon fill="none" stroke="#bfbfbf" points="660,-6 660,-25 704,-25 704,-6 660,-6"/>
<text text-anchor="middle" x="682" y="-13" font-family="Helvetica,sans-Serif" font-size="10.00">cmath</text>
</a>
</g>
</g>
<!-- Node4&#45;&gt;Node11 -->
<g id="edge10" class="edge">
<title>Node4&#45;&gt;Node11</title>
<path fill="none" stroke="midnightblue" d="M603.18,-67.48C618.07,-57.84 642.54,-42.02 660.27,-30.55"/>
<polygon fill="midnightblue" stroke="midnightblue" points="662.35,-33.38 668.84,-25.01 658.55,-27.5 662.35,-33.38"/>
</g>
<!-- Node12 -->
<g id="node12" class="node">
<title>Node12</title>
<g id="a_node12"><a xlink:title=" ">
<polygon fill="none" stroke="#bfbfbf" points="722,-6 722,-25 762,-25 762,-6 722,-6"/>
<text text-anchor="middle" x="742" y="-13" font-family="Helvetica,sans-Serif" font-size="10.00">limits</text>
</a>
</g>
</g>
<!-- Node4&#45;&gt;Node12 -->
<g id="edge11" class="edge">
<title>Node4&#45;&gt;Node12</title>
<path fill="none" stroke="midnightblue" d="M616.25,-67.36C641.38,-58.86 680.22,-45.14 713,-31 714.16,-30.5 715.35,-29.97 716.54,-29.43"/>
<polygon fill="midnightblue" stroke="midnightblue" points="718.07,-32.58 725.59,-25.11 715.06,-26.26 718.07,-32.58"/>
</g>
<!-- Node13 -->
<g id="node13" class="node">
<title>Node13</title>
<g id="a_node13"><a xlink:title=" ">
<polygon fill="none" stroke="#bfbfbf" points="780,-6 780,-25 832,-25 832,-6 780,-6"/>
<text text-anchor="middle" x="806" y="-13" font-family="Helvetica,sans-Serif" font-size="10.00">memory</text>
</a>
</g>
</g>
<!-- Node4&#45;&gt;Node13 -->
<g id="edge12" class="edge">
<title>Node4&#45;&gt;Node13</title>
<path fill="none" stroke="midnightblue" d="M631.84,-67.46C668.85,-59.46 724.1,-46.45 771,-31 773.13,-30.3 775.32,-29.53 777.5,-28.71"/>
<polygon fill="midnightblue" stroke="midnightblue" points="778.91,-31.92 786.94,-25 776.35,-25.41 778.91,-31.92"/>
</g>
<!-- Node14 -->
<g id="node14" class="node">
<title>Node14</title>
<g id="a_node14"><a xlink:title=" ">
<polygon fill="none" stroke="#bfbfbf" points="850,-6 850,-25 894,-25 894,-6 850,-6"/>
<text text-anchor="middle" x="872" y="-13" font-family="Helvetica,sans-Serif" font-size="10.00">vector</text>
</a>
</g>
</g>
<!-- Node4&#45;&gt;Node14 -->
<g id="edge13" class="edge">
<title>Node4&#45;&gt;Node14</title>
<path fill="none" stroke="midnightblue" d="M648.1,-69.93C699.65,-63.53 776.55,-51.47 841,-31 842.67,-30.47 844.37,-29.87 846.07,-29.22"/>
<polygon fill="midnightblue" stroke="midnightblue" points="847.77,-32.3 855.59,-25.14 845.02,-25.86 847.77,-32.3"/>
</g>
</g>
</svg>
