<?xml version="1.0" encoding="UTF-8" standalone="no"?>
<!DOCTYPE svg PUBLIC "-//W3C//DTD SVG 1.1//EN"
 "http://www.w3.org/Graphics/SVG/1.1/DTD/svg11.dtd">
<!-- Generated by graphviz version 2.43.0 (0)
 -->
<!-- Title: include/quadrature/sauter_quadrature_tools.h Pages: 1 -->
<svg width="678pt" height="709pt"
 viewBox="0.00 0.00 677.50 709.00" xmlns="http://www.w3.org/2000/svg" xmlns:xlink="http://www.w3.org/1999/xlink">
<g id="graph0" class="graph" transform="scale(1 1) rotate(0) translate(4 705)">
<title>include/quadrature/sauter_quadrature_tools.h</title>
<!-- Node1 -->
<g id="node1" class="node">
<title>Node1</title>
<g id="a_node1"><a xlink:title="Introduction of sauter_quadrature_tools.h.">
<polygon fill="#bfbfbf" stroke="black" points="325,-670.5 325,-700.5 457,-700.5 457,-670.5 325,-670.5"/>
<text text-anchor="start" x="333" y="-688.5" font-family="Helvetica,sans-Serif" font-size="10.00">include/quadrature</text>
<text text-anchor="middle" x="391" y="-677.5" font-family="Helvetica,sans-Serif" font-size="10.00">/sauter_quadrature_tools.h</text>
</a>
</g>
</g>
<!-- Node2 -->
<g id="node2" class="node">
<title>Node2</title>
<g id="a_node2"><a xlink:href="bem__values_8hcu_source.html" target="_top" xlink:title=" ">
<polygon fill="none" stroke="black" points="319.5,-614.5 319.5,-633.5 462.5,-633.5 462.5,-614.5 319.5,-614.5"/>
<text text-anchor="middle" x="391" y="-621.5" font-family="Helvetica,sans-Serif" font-size="10.00">include/bem/bem_values.hcu</text>
</a>
</g>
</g>
<!-- Node1&#45;&gt;Node2 -->
<g id="edge1" class="edge">
<title>Node1&#45;&gt;Node2</title>
<path fill="none" stroke="midnightblue" d="M391,-660.29C391,-650.86 391,-640.65 391,-633.66"/>
<polygon fill="midnightblue" stroke="midnightblue" points="387.5,-660.4 391,-670.4 394.5,-660.4 387.5,-660.4"/>
</g>
<!-- Node5 -->
<g id="node5" class="node">
<title>Node5</title>
<g id="a_node5"><a xlink:href="laplace__bem_8impl_8hcu_source.html" target="_top" xlink:title=" ">
<polygon fill="none" stroke="black" points="328.5,-67.5 328.5,-97.5 443.5,-97.5 443.5,-67.5 328.5,-67.5"/>
<text text-anchor="start" x="336.5" y="-85.5" font-family="Helvetica,sans-Serif" font-size="10.00">include/laplace/laplace</text>
<text text-anchor="middle" x="386" y="-74.5" font-family="Helvetica,sans-Serif" font-size="10.00">_bem.impl.hcu</text>
</a>
</g>
</g>
<!-- Node1&#45;&gt;Node5 -->
<g id="edge33" class="edge">
<title>Node1&#45;&gt;Node5</title>
<path fill="none" stroke="midnightblue" d="M314.42,-682.74C250.74,-678.76 159.06,-667.1 86,-634 40.98,-613.6 0,-612.92 0,-563.5 0,-563.5 0,-563.5 0,-221 0,-152.17 220.53,-108.84 328.21,-91.78"/>
<polygon fill="midnightblue" stroke="midnightblue" points="314.6,-686.25 324.79,-683.33 315.01,-679.27 314.6,-686.25"/>
</g>
<!-- Node7 -->
<g id="node7" class="node">
<title>Node7</title>
<g id="a_node7"><a xlink:href="operator__preconditioner_8h.html" target="_top" xlink:title=" ">
<polygon fill="none" stroke="black" points="69.5,-279.5 69.5,-309.5 198.5,-309.5 198.5,-279.5 69.5,-279.5"/>
<text text-anchor="start" x="77.5" y="-297.5" font-family="Helvetica,sans-Serif" font-size="10.00">include/preconditioners</text>
<text text-anchor="middle" x="134" y="-286.5" font-family="Helvetica,sans-Serif" font-size="10.00">/operator_preconditioner.h</text>
</a>
</g>
</g>
<!-- Node1&#45;&gt;Node7 -->
<g id="edge34" class="edge">
<title>Node1&#45;&gt;Node7</title>
<path fill="none" stroke="midnightblue" d="M314.47,-673.99C210.66,-657.55 38,-621.49 38,-563.5 38,-563.5 38,-563.5 38,-427.5 38,-376.21 85.99,-331.46 114.11,-309.64"/>
<polygon fill="midnightblue" stroke="midnightblue" points="314.18,-677.49 324.6,-675.57 315.26,-670.57 314.18,-677.49"/>
</g>
<!-- Node13 -->
<g id="node13" class="node">
<title>Node13</title>
<g id="a_node13"><a xlink:href="sauter__quadrature_8hcu_source.html" target="_top" xlink:title=" ">
<polygon fill="none" stroke="black" points="268,-413.5 268,-443.5 384,-443.5 384,-413.5 268,-413.5"/>
<text text-anchor="start" x="276" y="-431.5" font-family="Helvetica,sans-Serif" font-size="10.00">include/quadrature</text>
<text text-anchor="middle" x="326" y="-420.5" font-family="Helvetica,sans-Serif" font-size="10.00">/sauter_quadrature.hcu</text>
</a>
</g>
</g>
<!-- Node1&#45;&gt;Node13 -->
<g id="edge35" class="edge">
<title>Node1&#45;&gt;Node13</title>
<path fill="none" stroke="midnightblue" d="M438.76,-665.45C451.89,-657.74 464.55,-647.42 472,-634 476.31,-626.23 473.37,-622.78 472,-614 462.33,-552.21 469.9,-527.32 429,-480 414.48,-463.2 393.07,-451.45 373.52,-443.55"/>
<polygon fill="midnightblue" stroke="midnightblue" points="436.79,-662.54 429.66,-670.37 440.12,-668.69 436.79,-662.54"/>
</g>
<!-- Node17 -->
<g id="node17" class="node">
<title>Node17</title>
<g id="a_node17"><a xlink:href="laplace__bem_8h.html" target="_top" xlink:title="Implementation of BEM involving kernel functions and singular numerical quadratures.">
<polygon fill="none" stroke="black" points="554.5,-207 554.5,-237 669.5,-237 669.5,-207 554.5,-207"/>
<text text-anchor="start" x="562.5" y="-225" font-family="Helvetica,sans-Serif" font-size="10.00">include/laplace/laplace</text>
<text text-anchor="middle" x="612" y="-214" font-family="Helvetica,sans-Serif" font-size="10.00">_bem.h</text>
</a>
</g>
</g>
<!-- Node1&#45;&gt;Node17 -->
<g id="edge30" class="edge">
<title>Node1&#45;&gt;Node17</title>
<path fill="none" stroke="midnightblue" d="M467.04,-673.41C528.9,-659.57 606,-629.16 606,-563.5 606,-563.5 606,-563.5 606,-360.5 606,-315.34 609.27,-261.92 610.98,-237.05"/>
<polygon fill="midnightblue" stroke="midnightblue" points="466.31,-669.98 457.26,-675.49 467.77,-676.83 466.31,-669.98"/>
</g>
<!-- Node3 -->
<g id="node3" class="node">
<title>Node3</title>
<g id="a_node3"><a xlink:href="bem__general_8hcu_source.html" target="_top" xlink:title=" ">
<polygon fill="none" stroke="black" points="370,-352 370,-371 516,-371 516,-352 370,-352"/>
<text text-anchor="middle" x="443" y="-359" font-family="Helvetica,sans-Serif" font-size="10.00">include/bem/bem_general.hcu</text>
</a>
</g>
</g>
<!-- Node2&#45;&gt;Node3 -->
<g id="edge2" class="edge">
<title>Node2&#45;&gt;Node3</title>
<path fill="none" stroke="midnightblue" d="M408.79,-607.11C416.42,-599.18 424.59,-588.95 429,-578 459.27,-502.89 448.43,-401.11 444.3,-371.14"/>
<polygon fill="midnightblue" stroke="midnightblue" points="406.21,-604.73 401.49,-614.22 411.09,-609.75 406.21,-604.73"/>
</g>
<!-- Node4 -->
<g id="node4" class="node">
<title>Node4</title>
<g id="a_node4"><a xlink:href="laplace__bem_8priv_8hcu_source.html" target="_top" xlink:title=" ">
<polygon fill="none" stroke="black" points="328.5,-134.5 328.5,-164.5 443.5,-164.5 443.5,-134.5 328.5,-134.5"/>
<text text-anchor="start" x="336.5" y="-152.5" font-family="Helvetica,sans-Serif" font-size="10.00">include/laplace/laplace</text>
<text text-anchor="middle" x="386" y="-141.5" font-family="Helvetica,sans-Serif" font-size="10.00">_bem.priv.hcu</text>
</a>
</g>
</g>
<!-- Node2&#45;&gt;Node4 -->
<g id="edge27" class="edge">
<title>Node2&#45;&gt;Node4</title>
<path fill="none" stroke="midnightblue" d="M427.87,-610.9C473.14,-593.45 544,-556.55 544,-496.5 544,-496.5 544,-496.5 544,-427.5 544,-316.91 510.24,-287.23 441,-201 430.04,-187.35 415.35,-174.06 403.9,-164.54"/>
<polygon fill="midnightblue" stroke="midnightblue" points="426.51,-607.67 418.35,-614.43 428.95,-614.23 426.51,-607.67"/>
</g>
<!-- Node10 -->
<g id="node10" class="node">
<title>Node10</title>
<g id="a_node10"><a xlink:href="bem__kernels_8hcu_source.html" target="_top" xlink:title=" ">
<polygon fill="none" stroke="black" points="66,-486 66,-505 212,-505 212,-486 66,-486"/>
<text text-anchor="middle" x="139" y="-493" font-family="Helvetica,sans-Serif" font-size="10.00">include/bem/bem_kernels.hcu</text>
</a>
</g>
</g>
<!-- Node2&#45;&gt;Node10 -->
<g id="edge11" class="edge">
<title>Node2&#45;&gt;Node10</title>
<path fill="none" stroke="midnightblue" d="M310.97,-612.49C279.49,-605.89 244.01,-595.2 215,-578 182.72,-558.85 155.72,-521.92 144.53,-505.16"/>
<polygon fill="midnightblue" stroke="midnightblue" points="310.55,-615.98 321.04,-614.5 311.92,-609.11 310.55,-615.98"/>
</g>
<!-- Node2&#45;&gt;Node13 -->
<g id="edge28" class="edge">
<title>Node2&#45;&gt;Node13</title>
<path fill="none" stroke="midnightblue" d="M400.19,-605.11C413.42,-576.64 433.86,-520.17 411,-480 401.49,-463.29 384.03,-451.54 367.4,-443.6"/>
<polygon fill="midnightblue" stroke="midnightblue" points="396.97,-603.72 395.74,-614.25 403.27,-606.79 396.97,-603.72"/>
</g>
<!-- Node15 -->
<g id="node15" class="node">
<title>Node15</title>
<g id="a_node15"><a xlink:href="cu__bem__values_8hcu.html" target="_top" xlink:title="Introduction of cu_bem_values.hcu.">
<polygon fill="none" stroke="black" points="224.5,-547.5 224.5,-577.5 331.5,-577.5 331.5,-547.5 224.5,-547.5"/>
<text text-anchor="start" x="232.5" y="-565.5" font-family="Helvetica,sans-Serif" font-size="10.00">include/bem/cu_bem</text>
<text text-anchor="middle" x="278" y="-554.5" font-family="Helvetica,sans-Serif" font-size="10.00">_values.hcu</text>
</a>
</g>
</g>
<!-- Node2&#45;&gt;Node15 -->
<g id="edge22" class="edge">
<title>Node2&#45;&gt;Node15</title>
<path fill="none" stroke="midnightblue" d="M365.94,-609.81C347.75,-600.23 323.18,-587.29 304.63,-577.52"/>
<polygon fill="midnightblue" stroke="midnightblue" points="364.33,-612.91 374.81,-614.48 367.59,-606.72 364.33,-612.91"/>
</g>
<!-- Node16 -->
<g id="node16" class="node">
<title>Node16</title>
<g id="a_node16"><a xlink:href="cu__debug__tools_8hcu_source.html" target="_top" xlink:title=" ">
<polygon fill="none" stroke="black" points="306.5,-480.5 306.5,-510.5 401.5,-510.5 401.5,-480.5 306.5,-480.5"/>
<text text-anchor="start" x="314.5" y="-498.5" font-family="Helvetica,sans-Serif" font-size="10.00">include/utilities/cu</text>
<text text-anchor="middle" x="354" y="-487.5" font-family="Helvetica,sans-Serif" font-size="10.00">_debug_tools.hcu</text>
</a>
</g>
</g>
<!-- Node2&#45;&gt;Node16 -->
<g id="edge29" class="edge">
<title>Node2&#45;&gt;Node16</title>
<path fill="none" stroke="midnightblue" d="M385.57,-604.45C378.14,-579.03 364.94,-533.91 358.21,-510.89"/>
<polygon fill="midnightblue" stroke="midnightblue" points="382.29,-605.69 388.46,-614.31 389.01,-603.72 382.29,-605.69"/>
</g>
<!-- Node3&#45;&gt;Node4 -->
<g id="edge3" class="edge">
<title>Node3&#45;&gt;Node4</title>
<path fill="none" stroke="midnightblue" d="M447.53,-341.72C450.81,-325.05 453.9,-300.11 449,-279 438.67,-234.47 410.64,-187.57 395.7,-164.71"/>
<polygon fill="midnightblue" stroke="midnightblue" points="444.04,-341.29 445.32,-351.8 450.88,-342.78 444.04,-341.29"/>
</g>
<!-- Node3&#45;&gt;Node7 -->
<g id="edge6" class="edge">
<title>Node3&#45;&gt;Node7</title>
<path fill="none" stroke="midnightblue" d="M392.46,-349.87C339.59,-338.75 256.44,-321.26 198.79,-309.13"/>
<polygon fill="midnightblue" stroke="midnightblue" points="391.78,-353.3 402.29,-351.94 393.22,-346.45 391.78,-353.3"/>
</g>
<!-- Node4&#45;&gt;Node5 -->
<g id="edge4" class="edge">
<title>Node4&#45;&gt;Node5</title>
<path fill="none" stroke="midnightblue" d="M386,-124.11C386,-115.15 386,-105.32 386,-97.58"/>
<polygon fill="midnightblue" stroke="midnightblue" points="382.5,-124.4 386,-134.4 389.5,-124.4 382.5,-124.4"/>
</g>
<!-- Node6 -->
<g id="node6" class="node">
<title>Node6</title>
<g id="a_node6"><a xlink:href="laplace__bem_8cu_source.html" target="_top" xlink:title=" ">
<polygon fill="none" stroke="black" points="337,-0.5 337,-30.5 435,-30.5 435,-0.5 337,-0.5"/>
<text text-anchor="start" x="345" y="-18.5" font-family="Helvetica,sans-Serif" font-size="10.00">src/laplace/laplace</text>
<text text-anchor="middle" x="386" y="-7.5" font-family="Helvetica,sans-Serif" font-size="10.00">_bem.cu</text>
</a>
</g>
</g>
<!-- Node5&#45;&gt;Node6 -->
<g id="edge5" class="edge">
<title>Node5&#45;&gt;Node6</title>
<path fill="none" stroke="midnightblue" d="M386,-57.11C386,-48.15 386,-38.32 386,-30.58"/>
<polygon fill="midnightblue" stroke="midnightblue" points="382.5,-57.4 386,-67.4 389.5,-57.4 382.5,-57.4"/>
</g>
<!-- Node8 -->
<g id="node8" class="node">
<title>Node8</title>
<g id="a_node8"><a xlink:href="preconditioner__for__laplace__dirichlet_8h.html" target="_top" xlink:title=" ">
<polygon fill="none" stroke="black" points="179.5,-201.5 179.5,-242.5 312.5,-242.5 312.5,-201.5 179.5,-201.5"/>
<text text-anchor="start" x="187.5" y="-230.5" font-family="Helvetica,sans-Serif" font-size="10.00">include/preconditioners</text>
<text text-anchor="start" x="187.5" y="-219.5" font-family="Helvetica,sans-Serif" font-size="10.00">/preconditioner_for_laplace</text>
<text text-anchor="middle" x="246" y="-208.5" font-family="Helvetica,sans-Serif" font-size="10.00">_dirichlet.h</text>
</a>
</g>
</g>
<!-- Node7&#45;&gt;Node8 -->
<g id="edge7" class="edge">
<title>Node7&#45;&gt;Node8</title>
<path fill="none" stroke="midnightblue" d="M165.09,-273.93C180.57,-264.19 199.23,-252.44 214.74,-242.68"/>
<polygon fill="midnightblue" stroke="midnightblue" points="162.99,-271.11 156.4,-279.4 166.72,-277.04 162.99,-271.11"/>
</g>
<!-- Node9 -->
<g id="node9" class="node">
<title>Node9</title>
<g id="a_node9"><a xlink:href="preconditioner__for__laplace__neumann_8h.html" target="_top" xlink:title=" ">
<polygon fill="none" stroke="black" points="28.5,-201.5 28.5,-242.5 161.5,-242.5 161.5,-201.5 28.5,-201.5"/>
<text text-anchor="start" x="36.5" y="-230.5" font-family="Helvetica,sans-Serif" font-size="10.00">include/preconditioners</text>
<text text-anchor="start" x="36.5" y="-219.5" font-family="Helvetica,sans-Serif" font-size="10.00">/preconditioner_for_laplace</text>
<text text-anchor="middle" x="95" y="-208.5" font-family="Helvetica,sans-Serif" font-size="10.00">_neumann.h</text>
</a>
</g>
</g>
<!-- Node7&#45;&gt;Node9 -->
<g id="edge9" class="edge">
<title>Node7&#45;&gt;Node9</title>
<path fill="none" stroke="midnightblue" d="M121.23,-270.41C116.25,-261.42 110.61,-251.22 105.84,-242.59"/>
<polygon fill="midnightblue" stroke="midnightblue" points="118.2,-272.18 126.11,-279.23 124.33,-268.79 118.2,-272.18"/>
</g>
<!-- Node8&#45;&gt;Node4 -->
<g id="edge8" class="edge">
<title>Node8&#45;&gt;Node4</title>
<path fill="none" stroke="midnightblue" d="M294.2,-196.73C315.43,-186.04 339.64,-173.85 357.86,-164.67"/>
<polygon fill="midnightblue" stroke="midnightblue" points="292.36,-193.74 285,-201.36 295.5,-199.99 292.36,-193.74"/>
</g>
<!-- Node9&#45;&gt;Node4 -->
<g id="edge10" class="edge">
<title>Node9&#45;&gt;Node4</title>
<path fill="none" stroke="midnightblue" d="M171.4,-200.68C229.82,-186.15 286.86,-172.92 328.13,-163.52"/>
<polygon fill="midnightblue" stroke="midnightblue" points="170.48,-197.3 161.63,-203.12 172.18,-204.09 170.48,-197.3"/>
</g>
<!-- Node10&#45;&gt;Node3 -->
<g id="edge12" class="edge">
<title>Node10&#45;&gt;Node3</title>
<path fill="none" stroke="midnightblue" d="M157.21,-479.28C179.78,-461.12 220.04,-430.97 259,-413 303.22,-392.6 357.32,-378.98 395.38,-371.08"/>
<polygon fill="midnightblue" stroke="midnightblue" points="154.74,-476.78 149.21,-485.82 159.17,-482.21 154.74,-476.78"/>
</g>
<!-- Node10&#45;&gt;Node7 -->
<g id="edge17" class="edge">
<title>Node10&#45;&gt;Node7</title>
<path fill="none" stroke="midnightblue" d="M131.68,-476.1C121.45,-447.99 105.09,-392.7 114,-346 116.44,-333.22 122.06,-319.54 126.72,-309.65"/>
<polygon fill="midnightblue" stroke="midnightblue" points="128.53,-477.67 135.36,-485.77 135.08,-475.18 128.53,-477.67"/>
</g>
<!-- Node11 -->
<g id="node11" class="node">
<title>Node11</title>
<g id="a_node11"><a xlink:href="aca__plus_8hcu.html" target="_top" xlink:title="Implement the ACA+ method proposed in Grasedyck, L. 2005. “Adaptive Recompression of &#45;Matrices for BE...">
<polygon fill="none" stroke="black" points="123.5,-346.5 123.5,-376.5 224.5,-376.5 224.5,-346.5 123.5,-346.5"/>
<text text-anchor="start" x="131.5" y="-364.5" font-family="Helvetica,sans-Serif" font-size="10.00">include/hmatrix/aca</text>
<text text-anchor="middle" x="174" y="-353.5" font-family="Helvetica,sans-Serif" font-size="10.00">_plus/aca_plus.hcu</text>
</a>
</g>
</g>
<!-- Node10&#45;&gt;Node11 -->
<g id="edge13" class="edge">
<title>Node10&#45;&gt;Node11</title>
<path fill="none" stroke="midnightblue" d="M143.93,-475.89C151,-449.24 163.85,-400.8 170.21,-376.78"/>
<polygon fill="midnightblue" stroke="midnightblue" points="140.48,-475.28 141.3,-485.84 147.24,-477.07 140.48,-475.28"/>
</g>
<!-- Node10&#45;&gt;Node13 -->
<g id="edge18" class="edge">
<title>Node10&#45;&gt;Node13</title>
<path fill="none" stroke="midnightblue" d="M173.55,-482.49C205.25,-471.47 252.23,-455.14 285.64,-443.53"/>
<polygon fill="midnightblue" stroke="midnightblue" points="172.13,-479.28 163.83,-485.87 174.43,-485.89 172.13,-479.28"/>
</g>
<!-- Node11&#45;&gt;Node4 -->
<g id="edge14" class="edge">
<title>Node11&#45;&gt;Node4</title>
<path fill="none" stroke="midnightblue" d="M203.84,-340.77C235.35,-319.07 285.41,-282.07 322,-243 345.49,-217.91 366.93,-183.6 378.04,-164.6"/>
<polygon fill="midnightblue" stroke="midnightblue" points="201.77,-337.94 195.47,-346.47 205.71,-343.73 201.77,-337.94"/>
</g>
<!-- Node11&#45;&gt;Node7 -->
<g id="edge15" class="edge">
<title>Node11&#45;&gt;Node7</title>
<path fill="none" stroke="midnightblue" d="M160.07,-337.87C154.28,-328.46 147.74,-317.83 142.66,-309.58"/>
<polygon fill="midnightblue" stroke="midnightblue" points="157.1,-339.71 165.32,-346.4 163.06,-336.05 157.1,-339.71"/>
</g>
<!-- Node12 -->
<g id="node12" class="node">
<title>Node12</title>
<g id="a_node12"><a xlink:href="aca__plus_8cu_source.html" target="_top" xlink:title=" ">
<polygon fill="none" stroke="black" points="332.5,-279.5 332.5,-309.5 439.5,-309.5 439.5,-279.5 332.5,-279.5"/>
<text text-anchor="start" x="340.5" y="-297.5" font-family="Helvetica,sans-Serif" font-size="10.00">src/hmatrix/aca_plus</text>
<text text-anchor="middle" x="386" y="-286.5" font-family="Helvetica,sans-Serif" font-size="10.00">/aca_plus.cu</text>
</a>
</g>
</g>
<!-- Node11&#45;&gt;Node12 -->
<g id="edge16" class="edge">
<title>Node11&#45;&gt;Node12</title>
<path fill="none" stroke="midnightblue" d="M229.63,-343.44C263.99,-332.91 307.56,-319.55 339.98,-309.61"/>
<polygon fill="midnightblue" stroke="midnightblue" points="228.27,-340.2 219.74,-346.48 230.33,-346.89 228.27,-340.2"/>
</g>
<!-- Node13&#45;&gt;Node3 -->
<g id="edge19" class="edge">
<title>Node13&#45;&gt;Node3</title>
<path fill="none" stroke="midnightblue" d="M360.25,-408.47C382.58,-396.06 410.65,-380.47 427.69,-371.01"/>
<polygon fill="midnightblue" stroke="midnightblue" points="358.43,-405.48 351.39,-413.4 361.83,-411.6 358.43,-405.48"/>
</g>
<!-- Node13&#45;&gt;Node11 -->
<g id="edge20" class="edge">
<title>Node13&#45;&gt;Node11</title>
<path fill="none" stroke="midnightblue" d="M283.69,-409.41C259.42,-399.03 229.41,-386.2 206.92,-376.58"/>
<polygon fill="midnightblue" stroke="midnightblue" points="282.45,-412.68 293.02,-413.4 285.2,-406.25 282.45,-412.68"/>
</g>
<!-- Node14 -->
<g id="node14" class="node">
<title>Node14</title>
<g id="a_node14"><a xlink:href="sauter__quadrature_8cu_source.html" target="_top" xlink:title=" ">
<polygon fill="none" stroke="black" points="242.5,-346.5 242.5,-376.5 351.5,-376.5 351.5,-346.5 242.5,-346.5"/>
<text text-anchor="start" x="250.5" y="-364.5" font-family="Helvetica,sans-Serif" font-size="10.00">src/quadrature/sauter</text>
<text text-anchor="middle" x="297" y="-353.5" font-family="Helvetica,sans-Serif" font-size="10.00">_quadrature.cu</text>
</a>
</g>
</g>
<!-- Node13&#45;&gt;Node14 -->
<g id="edge21" class="edge">
<title>Node13&#45;&gt;Node14</title>
<path fill="none" stroke="midnightblue" d="M315.51,-403.99C311.41,-394.8 306.85,-384.58 303.28,-376.58"/>
<polygon fill="midnightblue" stroke="midnightblue" points="312.44,-405.69 319.71,-413.4 318.83,-402.84 312.44,-405.69"/>
</g>
<!-- Node15&#45;&gt;Node10 -->
<g id="edge23" class="edge">
<title>Node15&#45;&gt;Node10</title>
<path fill="none" stroke="midnightblue" d="M238.72,-543.13C211.97,-530.62 177.79,-514.64 157.19,-505.01"/>
<polygon fill="midnightblue" stroke="midnightblue" points="237.3,-546.33 247.84,-547.4 240.26,-539.99 237.3,-546.33"/>
</g>
<!-- Node15&#45;&gt;Node11 -->
<g id="edge24" class="edge">
<title>Node15&#45;&gt;Node11</title>
<path fill="none" stroke="midnightblue" d="M265.75,-538.06C243.96,-496.38 199.11,-410.54 181.41,-376.68"/>
<polygon fill="midnightblue" stroke="midnightblue" points="262.79,-539.95 270.52,-547.19 268.99,-536.7 262.79,-539.95"/>
</g>
<!-- Node15&#45;&gt;Node13 -->
<g id="edge25" class="edge">
<title>Node15&#45;&gt;Node13</title>
<path fill="none" stroke="midnightblue" d="M281.72,-537.34C284.72,-520.82 289.66,-498.63 297,-480 302.11,-467.02 310.14,-453.36 316.45,-443.52"/>
<polygon fill="midnightblue" stroke="midnightblue" points="278.25,-536.83 280.02,-547.28 285.15,-538.01 278.25,-536.83"/>
</g>
<!-- Node15&#45;&gt;Node16 -->
<g id="edge26" class="edge">
<title>Node15&#45;&gt;Node16</title>
<path fill="none" stroke="midnightblue" d="M302.11,-540.88C313.66,-531.01 327.19,-519.43 337.54,-510.58"/>
<polygon fill="midnightblue" stroke="midnightblue" points="299.82,-538.24 294.49,-547.4 304.37,-543.56 299.82,-538.24"/>
</g>
<!-- Node17&#45;&gt;Node4 -->
<g id="edge32" class="edge">
<title>Node17&#45;&gt;Node4</title>
<path fill="none" stroke="midnightblue" d="M557.05,-203.86C518.46,-191.82 467.46,-175.91 431.22,-164.61"/>
<polygon fill="midnightblue" stroke="midnightblue" points="556.49,-207.35 567.08,-206.99 558.58,-200.67 556.49,-207.35"/>
</g>
<!-- Node17&#45;&gt;Node5 -->
<g id="edge31" class="edge">
<title>Node17&#45;&gt;Node5</title>
<path fill="none" stroke="midnightblue" d="M579.97,-201.51C533.85,-173.45 449.82,-122.33 409.21,-97.62"/>
<polygon fill="midnightblue" stroke="midnightblue" points="578.3,-204.6 588.67,-206.8 581.94,-198.62 578.3,-204.6"/>
</g>
</g>
</svg>
