<?xml version="1.0" encoding="UTF-8" standalone="no"?>
<!DOCTYPE svg PUBLIC "-//W3C//DTD SVG 1.1//EN"
 "http://www.w3.org/Graphics/SVG/1.1/DTD/svg11.dtd">
<!-- Generated by graphviz version 2.43.0 (0)
 -->
<!-- Title: include/solvers/solver_bicgstab_general.h Pages: 1 -->
<svg width="753pt" height="106pt"
 viewBox="0.00 0.00 752.50 106.00" xmlns="http://www.w3.org/2000/svg" xmlns:xlink="http://www.w3.org/1999/xlink">
<g id="graph0" class="graph" transform="scale(1 1) rotate(0) translate(4 102)">
<title>include/solvers/solver_bicgstab_general.h</title>
<!-- Node1 -->
<g id="node1" class="node">
<title>Node1</title>
<g id="a_node1"><a xlink:title="Bicgstab solver which can handle complex values.">
<polygon fill="#bfbfbf" stroke="black" points="388.5,-67.5 388.5,-97.5 499.5,-97.5 499.5,-67.5 388.5,-67.5"/>
<text text-anchor="start" x="396.5" y="-85.5" font-family="Helvetica,sans-Serif" font-size="10.00">include/solvers/solver</text>
<text text-anchor="middle" x="444" y="-74.5" font-family="Helvetica,sans-Serif" font-size="10.00">_bicgstab_general.h</text>
</a>
</g>
</g>
<!-- Node2 -->
<g id="node2" class="node">
<title>Node2</title>
<g id="a_node2"><a xlink:title=" ">
<polygon fill="none" stroke="#bfbfbf" points="0,-6 0,-25 126,-25 126,-6 0,-6"/>
<text text-anchor="middle" x="63" y="-13" font-family="Helvetica,sans-Serif" font-size="10.00">deal.II/base/exceptions.h</text>
</a>
</g>
</g>
<!-- Node1&#45;&gt;Node2 -->
<g id="edge1" class="edge">
<title>Node1&#45;&gt;Node2</title>
<path fill="none" stroke="midnightblue" d="M388.35,-73.04C326.41,-63.47 223.37,-47.11 135,-31 128.26,-29.77 121.17,-28.42 114.19,-27.05"/>
<polygon fill="midnightblue" stroke="midnightblue" points="114.56,-23.55 104.07,-25.04 113.2,-30.42 114.56,-23.55"/>
</g>
<!-- Node3 -->
<g id="node3" class="node">
<title>Node3</title>
<g id="a_node3"><a xlink:title=" ">
<polygon fill="none" stroke="#bfbfbf" points="144,-6 144,-25 260,-25 260,-6 144,-6"/>
<text text-anchor="middle" x="202" y="-13" font-family="Helvetica,sans-Serif" font-size="10.00">deal.II/base/numbers.h</text>
</a>
</g>
</g>
<!-- Node1&#45;&gt;Node3 -->
<g id="edge2" class="edge">
<title>Node1&#45;&gt;Node3</title>
<path fill="none" stroke="midnightblue" d="M391.79,-67.48C347.37,-55.55 284.44,-38.64 243.43,-27.63"/>
<polygon fill="midnightblue" stroke="midnightblue" points="244.32,-24.24 233.75,-25.03 242.5,-31 244.32,-24.24"/>
</g>
<!-- Node4 -->
<g id="node4" class="node">
<title>Node4</title>
<g id="a_node4"><a xlink:title=" ">
<polygon fill="none" stroke="#bfbfbf" points="278.5,-6 278.5,-25 381.5,-25 381.5,-6 278.5,-6"/>
<text text-anchor="middle" x="330" y="-13" font-family="Helvetica,sans-Serif" font-size="10.00">deal.II/base/types.h</text>
</a>
</g>
</g>
<!-- Node1&#45;&gt;Node4 -->
<g id="edge3" class="edge">
<title>Node1&#45;&gt;Node4</title>
<path fill="none" stroke="midnightblue" d="M419.26,-67.4C399.79,-56.29 372.83,-40.92 353.65,-29.98"/>
<polygon fill="midnightblue" stroke="midnightblue" points="355.34,-26.92 344.92,-25.01 351.87,-33 355.34,-26.92"/>
</g>
<!-- Node5 -->
<g id="node5" class="node">
<title>Node5</title>
<g id="a_node5"><a xlink:title=" ">
<polygon fill="none" stroke="#bfbfbf" points="399.5,-0.5 399.5,-30.5 488.5,-30.5 488.5,-0.5 399.5,-0.5"/>
<text text-anchor="start" x="407.5" y="-18.5" font-family="Helvetica,sans-Serif" font-size="10.00">deal.II/lac/solver</text>
<text text-anchor="middle" x="444" y="-7.5" font-family="Helvetica,sans-Serif" font-size="10.00">_bicgstab.h</text>
</a>
</g>
</g>
<!-- Node1&#45;&gt;Node5 -->
<g id="edge4" class="edge">
<title>Node1&#45;&gt;Node5</title>
<path fill="none" stroke="midnightblue" d="M444,-67.4C444,-59.64 444,-49.81 444,-40.86"/>
<polygon fill="midnightblue" stroke="midnightblue" points="447.5,-40.58 444,-30.58 440.5,-40.58 447.5,-40.58"/>
</g>
<!-- Node6 -->
<g id="node6" class="node">
<title>Node6</title>
<g id="a_node6"><a xlink:title=" ">
<polygon fill="none" stroke="#bfbfbf" points="506.5,-0.5 506.5,-30.5 595.5,-30.5 595.5,-0.5 506.5,-0.5"/>
<text text-anchor="start" x="514.5" y="-18.5" font-family="Helvetica,sans-Serif" font-size="10.00">deal.II/lac/solver</text>
<text text-anchor="middle" x="551" y="-7.5" font-family="Helvetica,sans-Serif" font-size="10.00">_control.h</text>
</a>
</g>
</g>
<!-- Node1&#45;&gt;Node6 -->
<g id="edge5" class="edge">
<title>Node1&#45;&gt;Node6</title>
<path fill="none" stroke="midnightblue" d="M467.22,-67.4C482.36,-58.2 502.33,-46.07 518.97,-35.95"/>
<polygon fill="midnightblue" stroke="midnightblue" points="521.1,-38.76 527.83,-30.58 517.46,-32.78 521.1,-38.76"/>
</g>
<!-- Node7 -->
<g id="node7" class="node">
<title>Node7</title>
<g id="a_node7"><a xlink:title=" ">
<polygon fill="none" stroke="#bfbfbf" points="613,-6 613,-25 675,-25 675,-6 613,-6"/>
<text text-anchor="middle" x="644" y="-13" font-family="Helvetica,sans-Serif" font-size="10.00">type_traits</text>
</a>
</g>
</g>
<!-- Node1&#45;&gt;Node7 -->
<g id="edge6" class="edge">
<title>Node1&#45;&gt;Node7</title>
<path fill="none" stroke="midnightblue" d="M491.06,-67.44C523.28,-57.65 566.89,-44.05 605,-31 607.25,-30.23 609.56,-29.42 611.89,-28.59"/>
<polygon fill="midnightblue" stroke="midnightblue" points="613.19,-31.84 621.39,-25.13 610.79,-25.26 613.19,-31.84"/>
</g>
<!-- Node8 -->
<g id="node8" class="node">
<title>Node8</title>
<g id="a_node8"><a xlink:href="config_8h.html" target="_top" xlink:title="Configurations for building the project.">
<polygon fill="none" stroke="black" points="693.5,-6 693.5,-25 744.5,-25 744.5,-6 693.5,-6"/>
<text text-anchor="middle" x="719" y="-13" font-family="Helvetica,sans-Serif" font-size="10.00">config.h</text>
</a>
</g>
</g>
<!-- Node1&#45;&gt;Node8 -->
<g id="edge7" class="edge">
<title>Node1&#45;&gt;Node8</title>
<path fill="none" stroke="midnightblue" d="M499.55,-72.82C548.67,-64.44 621.97,-50.19 684,-31 686.14,-30.34 688.34,-29.59 690.53,-28.8"/>
<polygon fill="midnightblue" stroke="midnightblue" points="691.93,-32.01 699.98,-25.13 689.39,-25.49 691.93,-32.01"/>
</g>
</g>
</svg>
