<?xml version="1.0" encoding="UTF-8" standalone="no"?>
<!DOCTYPE svg PUBLIC "-//W3C//DTD SVG 1.1//EN"
 "http://www.w3.org/Graphics/SVG/1.1/DTD/svg11.dtd">
<!-- Generated by graphviz version 2.43.0 (0)
 -->
<!-- Title: include/solvers/solver_cg_general.h Pages: 1 -->
<svg width="190pt" height="374pt"
 viewBox="0.00 0.00 189.50 374.00" xmlns="http://www.w3.org/2000/svg" xmlns:xlink="http://www.w3.org/1999/xlink">
<g id="graph0" class="graph" transform="scale(1 1) rotate(0) translate(4 370)">
<title>include/solvers/solver_cg_general.h</title>
<!-- Node1 -->
<g id="node1" class="node">
<title>Node1</title>
<g id="a_node1"><a xlink:title="CG solver which can handle complex values.">
<polygon fill="#bfbfbf" stroke="black" points="35,-335.5 35,-365.5 146,-365.5 146,-335.5 35,-335.5"/>
<text text-anchor="start" x="43" y="-353.5" font-family="Helvetica,sans-Serif" font-size="10.00">include/solvers/solver</text>
<text text-anchor="middle" x="90.5" y="-342.5" font-family="Helvetica,sans-Serif" font-size="10.00">_cg_general.h</text>
</a>
</g>
</g>
<!-- Node2 -->
<g id="node2" class="node">
<title>Node2</title>
<g id="a_node2"><a xlink:href="laplace__bem_8priv_8hcu_source.html" target="_top" xlink:title=" ">
<polygon fill="none" stroke="black" points="0,-134.5 0,-164.5 115,-164.5 115,-134.5 0,-134.5"/>
<text text-anchor="start" x="8" y="-152.5" font-family="Helvetica,sans-Serif" font-size="10.00">include/laplace/laplace</text>
<text text-anchor="middle" x="57.5" y="-141.5" font-family="Helvetica,sans-Serif" font-size="10.00">_bem.priv.hcu</text>
</a>
</g>
</g>
<!-- Node1&#45;&gt;Node2 -->
<g id="edge1" class="edge">
<title>Node1&#45;&gt;Node2</title>
<path fill="none" stroke="midnightblue" d="M54.38,-329.8C43.35,-321.81 32.55,-311.48 26.5,-299 7.5,-259.81 14.66,-242.92 26.5,-201 30.3,-187.54 38.81,-174.12 45.96,-164.51"/>
<polygon fill="midnightblue" stroke="midnightblue" points="52.52,-332.78 62.78,-335.46 56.43,-326.97 52.52,-332.78"/>
</g>
<!-- Node5 -->
<g id="node5" class="node">
<title>Node5</title>
<g id="a_node5"><a xlink:href="schur__complement_8h_source.html" target="_top" xlink:title=" ">
<polygon fill="none" stroke="black" points="36,-268.5 36,-298.5 145,-298.5 145,-268.5 36,-268.5"/>
<text text-anchor="start" x="44" y="-286.5" font-family="Helvetica,sans-Serif" font-size="10.00">include/solvers/schur</text>
<text text-anchor="middle" x="90.5" y="-275.5" font-family="Helvetica,sans-Serif" font-size="10.00">_complement.h</text>
</a>
</g>
</g>
<!-- Node1&#45;&gt;Node5 -->
<g id="edge4" class="edge">
<title>Node1&#45;&gt;Node5</title>
<path fill="none" stroke="midnightblue" d="M90.5,-325.11C90.5,-316.15 90.5,-306.32 90.5,-298.58"/>
<polygon fill="midnightblue" stroke="midnightblue" points="87,-325.4 90.5,-335.4 94,-325.4 87,-325.4"/>
</g>
<!-- Node6 -->
<g id="node6" class="node">
<title>Node6</title>
<g id="a_node6"><a xlink:href="solve__hblockmatrix__skew__symm_8h_source.html" target="_top" xlink:title=" ">
<polygon fill="none" stroke="black" points="35.5,-201.5 35.5,-231.5 181.5,-231.5 181.5,-201.5 35.5,-201.5"/>
<text text-anchor="start" x="43.5" y="-219.5" font-family="Helvetica,sans-Serif" font-size="10.00">include/solvers/solve</text>
<text text-anchor="middle" x="108.5" y="-208.5" font-family="Helvetica,sans-Serif" font-size="10.00">_hblockmatrix_skew_symm.h</text>
</a>
</g>
</g>
<!-- Node1&#45;&gt;Node6 -->
<g id="edge7" class="edge">
<title>Node1&#45;&gt;Node6</title>
<path fill="none" stroke="midnightblue" d="M126.62,-329.8C137.65,-321.81 148.45,-311.48 154.5,-299 160.51,-286.6 159.47,-280.85 154.5,-268 148.93,-253.62 137.16,-240.82 126.92,-231.71"/>
<polygon fill="midnightblue" stroke="midnightblue" points="124.57,-326.97 118.22,-335.46 128.48,-332.78 124.57,-326.97"/>
</g>
<!-- Node3 -->
<g id="node3" class="node">
<title>Node3</title>
<g id="a_node3"><a xlink:href="laplace__bem_8impl_8hcu_source.html" target="_top" xlink:title=" ">
<polygon fill="none" stroke="black" points="0,-67.5 0,-97.5 115,-97.5 115,-67.5 0,-67.5"/>
<text text-anchor="start" x="8" y="-85.5" font-family="Helvetica,sans-Serif" font-size="10.00">include/laplace/laplace</text>
<text text-anchor="middle" x="57.5" y="-74.5" font-family="Helvetica,sans-Serif" font-size="10.00">_bem.impl.hcu</text>
</a>
</g>
</g>
<!-- Node2&#45;&gt;Node3 -->
<g id="edge2" class="edge">
<title>Node2&#45;&gt;Node3</title>
<path fill="none" stroke="midnightblue" d="M57.5,-124.11C57.5,-115.15 57.5,-105.32 57.5,-97.58"/>
<polygon fill="midnightblue" stroke="midnightblue" points="54,-124.4 57.5,-134.4 61,-124.4 54,-124.4"/>
</g>
<!-- Node4 -->
<g id="node4" class="node">
<title>Node4</title>
<g id="a_node4"><a xlink:href="laplace__bem_8cu_source.html" target="_top" xlink:title=" ">
<polygon fill="none" stroke="black" points="8.5,-0.5 8.5,-30.5 106.5,-30.5 106.5,-0.5 8.5,-0.5"/>
<text text-anchor="start" x="16.5" y="-18.5" font-family="Helvetica,sans-Serif" font-size="10.00">src/laplace/laplace</text>
<text text-anchor="middle" x="57.5" y="-7.5" font-family="Helvetica,sans-Serif" font-size="10.00">_bem.cu</text>
</a>
</g>
</g>
<!-- Node3&#45;&gt;Node4 -->
<g id="edge3" class="edge">
<title>Node3&#45;&gt;Node4</title>
<path fill="none" stroke="midnightblue" d="M57.5,-57.11C57.5,-48.15 57.5,-38.32 57.5,-30.58"/>
<polygon fill="midnightblue" stroke="midnightblue" points="54,-57.4 57.5,-67.4 61,-57.4 54,-57.4"/>
</g>
<!-- Node5&#45;&gt;Node6 -->
<g id="edge5" class="edge">
<title>Node5&#45;&gt;Node6</title>
<path fill="none" stroke="midnightblue" d="M97.09,-258.7C99.61,-249.59 102.41,-239.49 104.6,-231.58"/>
<polygon fill="midnightblue" stroke="midnightblue" points="93.7,-257.82 94.41,-268.4 100.45,-259.69 93.7,-257.82"/>
</g>
<!-- Node6&#45;&gt;Node2 -->
<g id="edge6" class="edge">
<title>Node6&#45;&gt;Node2</title>
<path fill="none" stroke="midnightblue" d="M91.2,-193.45C83.71,-183.9 75.16,-173 68.54,-164.58"/>
<polygon fill="midnightblue" stroke="midnightblue" points="88.51,-195.69 97.43,-201.4 94.01,-191.37 88.51,-195.69"/>
</g>
</g>
</svg>
