<?xml version="1.0" encoding="UTF-8" standalone="no"?>
<!DOCTYPE svg PUBLIC "-//W3C//DTD SVG 1.1//EN"
 "http://www.w3.org/Graphics/SVG/1.1/DTD/svg11.dtd">
<!-- Generated by graphviz version 2.43.0 (0)
 -->
<!-- Title: formatter&lt; BitRef, Char, enable_if_t&lt; detail::is_bit_reference_like&lt; BitRef &gt;::value &gt; &gt; Pages: 1 -->
<svg width="138pt" height="193pt"
 viewBox="0.00 0.00 138.00 193.00" xmlns="http://www.w3.org/2000/svg" xmlns:xlink="http://www.w3.org/1999/xlink">
<g id="graph0" class="graph" transform="scale(1 1) rotate(0) translate(4 189)">
<title>formatter&lt; BitRef, Char, enable_if_t&lt; detail::is_bit_reference_like&lt; BitRef &gt;::value &gt; &gt;</title>
<!-- Node1 -->
<g id="node1" class="node">
<title>Node1</title>
<g id="a_node1"><a xlink:title=" ">
<polygon fill="#bfbfbf" stroke="black" points="0,-0.5 0,-90.5 130,-90.5 130,-0.5 0,-0.5"/>
<text text-anchor="start" x="8" y="-78.5" font-family="Helvetica,sans-Serif" font-size="10.00">formatter&lt; BitRef,</text>
<text text-anchor="start" x="8" y="-67.5" font-family="Helvetica,sans-Serif" font-size="10.00"> Char, enable_if_t&lt;</text>
<text text-anchor="start" x="8" y="-56.5" font-family="Helvetica,sans-Serif" font-size="10.00"> detail::is_bit_reference</text>
<text text-anchor="middle" x="65" y="-45.5" font-family="Helvetica,sans-Serif" font-size="10.00">_like&lt; BitRef &gt;::value &gt; &gt;</text>
<polyline fill="none" stroke="black" points="0,-38.5 130,-38.5 "/>
<text text-anchor="middle" x="65" y="-26.5" font-family="Helvetica,sans-Serif" font-size="10.00"> </text>
<polyline fill="none" stroke="black" points="0,-19.5 130,-19.5 "/>
<text text-anchor="start" x="8" y="-7.5" font-family="Helvetica,sans-Serif" font-size="10.00">+ format()</text>
</a>
</g>
</g>
<!-- Node2 -->
<g id="node2" class="node">
<title>Node2</title>
<g id="a_node2"><a xlink:href="structformatter.html" target="_top" xlink:title=" ">
<polygon fill="none" stroke="#bfbfbf" points="5.5,-127.5 5.5,-184.5 124.5,-184.5 124.5,-127.5 5.5,-127.5"/>
<text text-anchor="middle" x="65" y="-172.5" font-family="Helvetica,sans-Serif" font-size="10.00">formatter&lt; bool, Char &gt;</text>
<polyline fill="none" stroke="#bfbfbf" points="5.5,-165.5 124.5,-165.5 "/>
<text text-anchor="middle" x="65" y="-153.5" font-family="Helvetica,sans-Serif" font-size="10.00"> </text>
<polyline fill="none" stroke="#bfbfbf" points="5.5,-146.5 124.5,-146.5 "/>
<text text-anchor="start" x="13.5" y="-134.5" font-family="Helvetica,sans-Serif" font-size="10.00">+ formatter()</text>
</a>
</g>
</g>
<!-- Node2&#45;&gt;Node1 -->
<g id="edge1" class="edge">
<title>Node2&#45;&gt;Node1</title>
<path fill="none" stroke="midnightblue" d="M65,-117.21C65,-108.61 65,-99.39 65,-90.55"/>
<polygon fill="none" stroke="midnightblue" points="61.5,-117.34 65,-127.34 68.5,-117.34 61.5,-117.34"/>
</g>
</g>
</svg>
