<?xml version="1.0" encoding="UTF-8" standalone="no"?>
<!DOCTYPE svg PUBLIC "-//W3C//DTD SVG 1.1//EN"
 "http://www.w3.org/Graphics/SVG/1.1/DTD/svg11.dtd">
<!-- Generated by graphviz version 2.43.0 (0)
 -->
<!-- Title: detail::styled_arg&lt; T &gt; Pages: 1 -->
<svg width="122pt" height="171pt"
 viewBox="0.00 0.00 122.00 171.00" xmlns="http://www.w3.org/2000/svg" xmlns:xlink="http://www.w3.org/1999/xlink">
<g id="graph0" class="graph" transform="scale(1 1) rotate(0) translate(4 167)">
<title>detail::styled_arg&lt; T &gt;</title>
<!-- Node1 -->
<g id="node1" class="node">
<title>Node1</title>
<g id="a_node1"><a xlink:title=" ">
<polygon fill="#bfbfbf" stroke="black" points="0,-0.5 0,-68.5 114,-68.5 114,-0.5 0,-0.5"/>
<text text-anchor="middle" x="57" y="-56.5" font-family="Helvetica,sans-Serif" font-size="10.00">detail::styled_arg&lt; T &gt;</text>
<polyline fill="none" stroke="black" points="0,-49.5 114,-49.5 "/>
<text text-anchor="start" x="8" y="-37.5" font-family="Helvetica,sans-Serif" font-size="10.00">+ value</text>
<text text-anchor="start" x="8" y="-26.5" font-family="Helvetica,sans-Serif" font-size="10.00">+ style</text>
<polyline fill="none" stroke="black" points="0,-19.5 114,-19.5 "/>
<text text-anchor="start" x="8" y="-7.5" font-family="Helvetica,sans-Serif" font-size="10.00">+ styled_arg()</text>
</a>
</g>
</g>
<!-- Node2 -->
<g id="node2" class="node">
<title>Node2</title>
<g id="a_node2"><a xlink:href="structdetail_1_1view.html" target="_top" xlink:title=" ">
<polygon fill="none" stroke="#bfbfbf" points="24,-105.5 24,-162.5 90,-162.5 90,-105.5 24,-105.5"/>
<text text-anchor="middle" x="57" y="-150.5" font-family="Helvetica,sans-Serif" font-size="10.00">detail::view</text>
<polyline fill="none" stroke="#bfbfbf" points="24,-143.5 90,-143.5 "/>
<text text-anchor="middle" x="57" y="-131.5" font-family="Helvetica,sans-Serif" font-size="10.00"> </text>
<polyline fill="none" stroke="#bfbfbf" points="24,-124.5 90,-124.5 "/>
<text text-anchor="middle" x="57" y="-112.5" font-family="Helvetica,sans-Serif" font-size="10.00"> </text>
</a>
</g>
</g>
<!-- Node2&#45;&gt;Node1 -->
<g id="edge1" class="edge">
<title>Node2&#45;&gt;Node1</title>
<path fill="none" stroke="midnightblue" d="M57,-95.06C57,-86.39 57,-77.24 57,-68.79"/>
<polygon fill="none" stroke="midnightblue" points="53.5,-95.32 57,-105.32 60.5,-95.32 53.5,-95.32"/>
</g>
</g>
</svg>
