<?xml version="1.0" encoding="UTF-8" standalone="no"?>
<!DOCTYPE svg PUBLIC "-//W3C//DTD SVG 1.1//EN"
 "http://www.w3.org/Graphics/SVG/1.1/DTD/svg11.dtd">
<!-- Generated by graphviz version 2.43.0 (0)
 -->
<!-- Title: conjunction&lt; P1, Pn... &gt; Pages: 1 -->
<svg width="131pt" height="182pt"
 viewBox="0.00 0.00 131.00 182.00" xmlns="http://www.w3.org/2000/svg" xmlns:xlink="http://www.w3.org/1999/xlink">
<g id="graph0" class="graph" transform="scale(1 1) rotate(0) translate(4 178)">
<title>conjunction&lt; P1, Pn... &gt;</title>
<!-- Node1 -->
<g id="node1" class="node">
<title>Node1</title>
<g id="a_node1"><a xlink:title=" ">
<polygon fill="#bfbfbf" stroke="black" points="0,-0.5 0,-57.5 123,-57.5 123,-0.5 0,-0.5"/>
<text text-anchor="middle" x="61.5" y="-45.5" font-family="Helvetica,sans-Serif" font-size="10.00">conjunction&lt; P1, Pn... &gt;</text>
<polyline fill="none" stroke="black" points="0,-38.5 123,-38.5 "/>
<text text-anchor="middle" x="61.5" y="-26.5" font-family="Helvetica,sans-Serif" font-size="10.00"> </text>
<polyline fill="none" stroke="black" points="0,-19.5 123,-19.5 "/>
<text text-anchor="middle" x="61.5" y="-7.5" font-family="Helvetica,sans-Serif" font-size="10.00"> </text>
</a>
</g>
</g>
<!-- Node2 -->
<g id="node2" class="node">
<title>Node2</title>
<g id="a_node2"><a xlink:title=" ">
<polygon fill="none" stroke="#bfbfbf" points="2,-94.5 2,-173.5 121,-173.5 121,-94.5 2,-94.5"/>
<text text-anchor="start" x="10" y="-161.5" font-family="Helvetica,sans-Serif" font-size="10.00">conditional_t&lt; bool</text>
<text text-anchor="start" x="10" y="-150.5" font-family="Helvetica,sans-Serif" font-size="10.00">(P1::value), conjunction</text>
<text text-anchor="middle" x="61.5" y="-139.5" font-family="Helvetica,sans-Serif" font-size="10.00">&lt; Pn... &gt;, P1 &gt;</text>
<polyline fill="none" stroke="#bfbfbf" points="2,-132.5 121,-132.5 "/>
<text text-anchor="middle" x="61.5" y="-120.5" font-family="Helvetica,sans-Serif" font-size="10.00"> </text>
<polyline fill="none" stroke="#bfbfbf" points="2,-113.5 121,-113.5 "/>
<text text-anchor="middle" x="61.5" y="-101.5" font-family="Helvetica,sans-Serif" font-size="10.00"> </text>
</a>
</g>
</g>
<!-- Node2&#45;&gt;Node1 -->
<g id="edge1" class="edge">
<title>Node2&#45;&gt;Node1</title>
<path fill="none" stroke="midnightblue" d="M61.5,-84.16C61.5,-75.04 61.5,-65.81 61.5,-57.61"/>
<polygon fill="none" stroke="midnightblue" points="58,-84.35 61.5,-94.35 65,-84.35 58,-84.35"/>
</g>
</g>
</svg>
