<?xml version="1.0" encoding="UTF-8" standalone="no"?>
<!DOCTYPE svg PUBLIC "-//W3C//DTD SVG 1.1//EN"
 "http://www.w3.org/Graphics/SVG/1.1/DTD/svg11.dtd">
<!-- Generated by graphviz version 2.43.0 (0)
 -->
<!-- Title: detail::range_format_kind_&lt; T &gt; Pages: 1 -->
<svg width="159pt" height="248pt"
 viewBox="0.00 0.00 159.00 248.00" xmlns="http://www.w3.org/2000/svg" xmlns:xlink="http://www.w3.org/1999/xlink">
<g id="graph0" class="graph" transform="scale(1 1) rotate(0) translate(4 244)">
<title>detail::range_format_kind_&lt; T &gt;</title>
<!-- Node1 -->
<g id="node1" class="node">
<title>Node1</title>
<g id="a_node1"><a xlink:title=" ">
<polygon fill="#bfbfbf" stroke="black" points="24,-0.5 24,-68.5 127,-68.5 127,-0.5 24,-0.5"/>
<text text-anchor="start" x="32" y="-56.5" font-family="Helvetica,sans-Serif" font-size="10.00">detail::range_format</text>
<text text-anchor="middle" x="75.5" y="-45.5" font-family="Helvetica,sans-Serif" font-size="10.00">_kind_&lt; T &gt;</text>
<polyline fill="none" stroke="black" points="24,-38.5 127,-38.5 "/>
<text text-anchor="middle" x="75.5" y="-26.5" font-family="Helvetica,sans-Serif" font-size="10.00"> </text>
<polyline fill="none" stroke="black" points="24,-19.5 127,-19.5 "/>
<text text-anchor="middle" x="75.5" y="-7.5" font-family="Helvetica,sans-Serif" font-size="10.00"> </text>
</a>
</g>
</g>
<!-- Node2 -->
<g id="node2" class="node">
<title>Node2</title>
<g id="a_node2"><a xlink:title=" ">
<polygon fill="none" stroke="#bfbfbf" points="0,-105.5 0,-239.5 151,-239.5 151,-105.5 0,-105.5"/>
<text text-anchor="start" x="8" y="-227.5" font-family="Helvetica,sans-Serif" font-size="10.00">std::integral_constant</text>
<text text-anchor="start" x="8" y="-216.5" font-family="Helvetica,sans-Serif" font-size="10.00">&lt; range_format, std::is</text>
<text text-anchor="start" x="8" y="-205.5" font-family="Helvetica,sans-Serif" font-size="10.00">_same&lt; uncvref_type&lt; T &gt;</text>
<text text-anchor="start" x="8" y="-194.5" font-family="Helvetica,sans-Serif" font-size="10.00">, T &gt;::value ? range_format</text>
<text text-anchor="start" x="8" y="-183.5" font-family="Helvetica,sans-Serif" font-size="10.00">::disabled :is_map&lt; T &gt;::value</text>
<text text-anchor="start" x="8" y="-172.5" font-family="Helvetica,sans-Serif" font-size="10.00"> ? range_format::map :is_set&lt;</text>
<text text-anchor="start" x="8" y="-161.5" font-family="Helvetica,sans-Serif" font-size="10.00"> T &gt;::value ? range_format::set</text>
<text text-anchor="middle" x="75.5" y="-150.5" font-family="Helvetica,sans-Serif" font-size="10.00"> :range_format::sequence &gt;</text>
<polyline fill="none" stroke="#bfbfbf" points="0,-143.5 151,-143.5 "/>
<text text-anchor="middle" x="75.5" y="-131.5" font-family="Helvetica,sans-Serif" font-size="10.00"> </text>
<polyline fill="none" stroke="#bfbfbf" points="0,-124.5 151,-124.5 "/>
<text text-anchor="middle" x="75.5" y="-112.5" font-family="Helvetica,sans-Serif" font-size="10.00"> </text>
</a>
</g>
</g>
<!-- Node2&#45;&gt;Node1 -->
<g id="edge1" class="edge">
<title>Node2&#45;&gt;Node1</title>
<path fill="none" stroke="midnightblue" d="M75.5,-95.37C75.5,-86.08 75.5,-77 75.5,-68.83"/>
<polygon fill="none" stroke="midnightblue" points="72,-95.49 75.5,-105.49 79,-95.49 72,-95.49"/>
</g>
</g>
</svg>
