<?xml version="1.0" encoding="UTF-8" standalone="no"?>
<!DOCTYPE svg PUBLIC "-//W3C//DTD SVG 1.1//EN"
 "http://www.w3.org/Graphics/SVG/1.1/DTD/svg11.dtd">
<!-- Generated by graphviz version 2.43.0 (0)
 -->
<!-- Title: is_char&lt; T &gt; Pages: 1 -->
<svg width="89pt" height="160pt"
 viewBox="0.00 0.00 89.00 160.00" xmlns="http://www.w3.org/2000/svg" xmlns:xlink="http://www.w3.org/1999/xlink">
<g id="graph0" class="graph" transform="scale(1 1) rotate(0) translate(4 156)">
<title>is_char&lt; T &gt;</title>
<!-- Node1 -->
<g id="node1" class="node">
<title>Node1</title>
<g id="a_node1"><a xlink:title="Specifies if T is a character type. Can be specialized by users.">
<polygon fill="#bfbfbf" stroke="black" points="5,-0.5 5,-57.5 76,-57.5 76,-0.5 5,-0.5"/>
<text text-anchor="middle" x="40.5" y="-45.5" font-family="Helvetica,sans-Serif" font-size="10.00">is_char&lt; T &gt;</text>
<polyline fill="none" stroke="black" points="5,-38.5 76,-38.5 "/>
<text text-anchor="middle" x="40.5" y="-26.5" font-family="Helvetica,sans-Serif" font-size="10.00"> </text>
<polyline fill="none" stroke="black" points="5,-19.5 76,-19.5 "/>
<text text-anchor="middle" x="40.5" y="-7.5" font-family="Helvetica,sans-Serif" font-size="10.00"> </text>
</a>
</g>
</g>
<!-- Node2 -->
<g id="node2" class="node">
<title>Node2</title>
<g id="a_node2"><a xlink:title=" ">
<polygon fill="none" stroke="#bfbfbf" points="0,-94.5 0,-151.5 81,-151.5 81,-94.5 0,-94.5"/>
<text text-anchor="middle" x="40.5" y="-139.5" font-family="Helvetica,sans-Serif" font-size="10.00">std::false_type</text>
<polyline fill="none" stroke="#bfbfbf" points="0,-132.5 81,-132.5 "/>
<text text-anchor="middle" x="40.5" y="-120.5" font-family="Helvetica,sans-Serif" font-size="10.00"> </text>
<polyline fill="none" stroke="#bfbfbf" points="0,-113.5 81,-113.5 "/>
<text text-anchor="middle" x="40.5" y="-101.5" font-family="Helvetica,sans-Serif" font-size="10.00"> </text>
</a>
</g>
</g>
<!-- Node2&#45;&gt;Node1 -->
<g id="edge1" class="edge">
<title>Node2&#45;&gt;Node1</title>
<path fill="none" stroke="midnightblue" d="M40.5,-84.21C40.5,-75.29 40.5,-65.95 40.5,-57.58"/>
<polygon fill="none" stroke="midnightblue" points="37,-84.4 40.5,-94.4 44,-84.4 37,-84.4"/>
</g>
</g>
</svg>
