<?xml version="1.0" encoding="UTF-8" standalone="no"?>
<!DOCTYPE svg PUBLIC "-//W3C//DTD SVG 1.1//EN"
 "http://www.w3.org/Graphics/SVG/1.1/DTD/svg11.dtd">
<!-- Generated by graphviz version 2.43.0 (0)
 -->
<!-- Title: formatter&lt; group_digits_view&lt; T &gt; &gt; Pages: 1 -->
<svg width="125pt" height="193pt"
 viewBox="0.00 0.00 125.00 193.00" xmlns="http://www.w3.org/2000/svg" xmlns:xlink="http://www.w3.org/1999/xlink">
<g id="graph0" class="graph" transform="scale(1 1) rotate(0) translate(4 189)">
<title>formatter&lt; group_digits_view&lt; T &gt; &gt;</title>
<!-- Node1 -->
<g id="node1" class="node">
<title>Node1</title>
<g id="a_node1"><a xlink:title=" ">
<polygon fill="#bfbfbf" stroke="black" points="0,-0.5 0,-79.5 117,-79.5 117,-0.5 0,-0.5"/>
<text text-anchor="start" x="8" y="-67.5" font-family="Helvetica,sans-Serif" font-size="10.00">formatter&lt; group_digits</text>
<text text-anchor="middle" x="58.5" y="-56.5" font-family="Helvetica,sans-Serif" font-size="10.00">_view&lt; T &gt; &gt;</text>
<polyline fill="none" stroke="black" points="0,-49.5 117,-49.5 "/>
<text text-anchor="start" x="8" y="-37.5" font-family="Helvetica,sans-Serif" font-size="10.00">&#45; specs_</text>
<polyline fill="none" stroke="black" points="0,-30.5 117,-30.5 "/>
<text text-anchor="start" x="8" y="-18.5" font-family="Helvetica,sans-Serif" font-size="10.00">+ parse()</text>
<text text-anchor="start" x="8" y="-7.5" font-family="Helvetica,sans-Serif" font-size="10.00">+ format()</text>
</a>
</g>
</g>
<!-- Node2 -->
<g id="node2" class="node">
<title>Node2</title>
<g id="a_node2"><a xlink:href="structformatter.html" target="_top" xlink:title=" ">
<polygon fill="none" stroke="#bfbfbf" points="9,-116.5 9,-184.5 108,-184.5 108,-116.5 9,-116.5"/>
<text text-anchor="start" x="17" y="-172.5" font-family="Helvetica,sans-Serif" font-size="10.00">formatter&lt; T, Char,</text>
<text text-anchor="middle" x="58.5" y="-161.5" font-family="Helvetica,sans-Serif" font-size="10.00"> Enable &gt;</text>
<polyline fill="none" stroke="#bfbfbf" points="9,-154.5 108,-154.5 "/>
<text text-anchor="middle" x="58.5" y="-142.5" font-family="Helvetica,sans-Serif" font-size="10.00"> </text>
<polyline fill="none" stroke="#bfbfbf" points="9,-135.5 108,-135.5 "/>
<text text-anchor="start" x="17" y="-123.5" font-family="Helvetica,sans-Serif" font-size="10.00">+ formatter()</text>
</a>
</g>
</g>
<!-- Node2&#45;&gt;Node1 -->
<g id="edge1" class="edge">
<title>Node2&#45;&gt;Node1</title>
<path fill="none" stroke="midnightblue" d="M58.5,-106.27C58.5,-97.48 58.5,-88.28 58.5,-79.65"/>
<polygon fill="none" stroke="midnightblue" points="55,-106.36 58.5,-116.36 62,-106.36 55,-106.36"/>
</g>
</g>
</svg>
