<?xml version="1.0" encoding="UTF-8" standalone="no"?>
<!DOCTYPE svg PUBLIC "-//W3C//DTD SVG 1.1//EN"
 "http://www.w3.org/Graphics/SVG/1.1/DTD/svg11.dtd">
<!-- Generated by graphviz version 2.43.0 (0)
 -->
<!-- Title: basic_ostream_formatter&lt; Char &gt; Pages: 1 -->
<svg width="246pt" height="309pt"
 viewBox="0.00 0.00 246.00 309.00" xmlns="http://www.w3.org/2000/svg" xmlns:xlink="http://www.w3.org/1999/xlink">
<g id="graph0" class="graph" transform="scale(1 1) rotate(0) translate(4 305)">
<title>basic_ostream_formatter&lt; Char &gt;</title>
<!-- Node1 -->
<g id="node1" class="node">
<title>Node1</title>
<g id="a_node1"><a xlink:title=" ">
<polygon fill="#bfbfbf" stroke="black" points="56,-116.5 56,-195.5 181,-195.5 181,-116.5 56,-116.5"/>
<text text-anchor="start" x="64" y="-183.5" font-family="Helvetica,sans-Serif" font-size="10.00">basic_ostream_formatter</text>
<text text-anchor="middle" x="118.5" y="-172.5" font-family="Helvetica,sans-Serif" font-size="10.00">&lt; Char &gt;</text>
<polyline fill="none" stroke="black" points="56,-165.5 181,-165.5 "/>
<text text-anchor="middle" x="118.5" y="-153.5" font-family="Helvetica,sans-Serif" font-size="10.00"> </text>
<polyline fill="none" stroke="black" points="56,-146.5 181,-146.5 "/>
<text text-anchor="start" x="64" y="-134.5" font-family="Helvetica,sans-Serif" font-size="10.00">+ set_debug_format()</text>
<text text-anchor="start" x="64" y="-123.5" font-family="Helvetica,sans-Serif" font-size="10.00">+ format()</text>
</a>
</g>
</g>
<!-- Node3 -->
<g id="node3" class="node">
<title>Node3</title>
<g id="a_node3"><a xlink:href="structformatter_3_01detail_1_1streamed__view_3_01T_01_4_00_01Char_01_4.html" target="_top" xlink:title=" ">
<polygon fill="none" stroke="#bfbfbf" points="0,-0.5 0,-79.5 109,-79.5 109,-0.5 0,-0.5"/>
<text text-anchor="start" x="8" y="-67.5" font-family="Helvetica,sans-Serif" font-size="10.00">formatter&lt; detail::</text>
<text text-anchor="start" x="8" y="-56.5" font-family="Helvetica,sans-Serif" font-size="10.00">streamed_view&lt; T &gt;,</text>
<text text-anchor="middle" x="54.5" y="-45.5" font-family="Helvetica,sans-Serif" font-size="10.00"> Char &gt;</text>
<polyline fill="none" stroke="#bfbfbf" points="0,-38.5 109,-38.5 "/>
<text text-anchor="middle" x="54.5" y="-26.5" font-family="Helvetica,sans-Serif" font-size="10.00"> </text>
<polyline fill="none" stroke="#bfbfbf" points="0,-19.5 109,-19.5 "/>
<text text-anchor="start" x="8" y="-7.5" font-family="Helvetica,sans-Serif" font-size="10.00">+ format()</text>
</a>
</g>
</g>
<!-- Node1&#45;&gt;Node3 -->
<g id="edge2" class="edge">
<title>Node1&#45;&gt;Node3</title>
<path fill="none" stroke="midnightblue" d="M91.89,-107.59C86.64,-98.25 81.2,-88.56 76.15,-79.56"/>
<polygon fill="none" stroke="midnightblue" points="88.89,-109.4 96.83,-116.4 94.99,-105.97 88.89,-109.4"/>
</g>
<!-- Node4 -->
<g id="node4" class="node">
<title>Node4</title>
<g id="a_node4"><a xlink:href="structformatter_3_01std_1_1thread_1_1id_00_01Char_01_4.html" target="_top" xlink:title=" ">
<polygon fill="none" stroke="#bfbfbf" points="127,-6 127,-74 238,-74 238,-6 127,-6"/>
<text text-anchor="start" x="135" y="-62" font-family="Helvetica,sans-Serif" font-size="10.00">formatter&lt; std::thread</text>
<text text-anchor="middle" x="182.5" y="-51" font-family="Helvetica,sans-Serif" font-size="10.00">::id, Char &gt;</text>
<polyline fill="none" stroke="#bfbfbf" points="127,-44 238,-44 "/>
<text text-anchor="middle" x="182.5" y="-32" font-family="Helvetica,sans-Serif" font-size="10.00"> </text>
<polyline fill="none" stroke="#bfbfbf" points="127,-25 238,-25 "/>
<text text-anchor="middle" x="182.5" y="-13" font-family="Helvetica,sans-Serif" font-size="10.00"> </text>
</a>
</g>
</g>
<!-- Node1&#45;&gt;Node4 -->
<g id="edge3" class="edge">
<title>Node1&#45;&gt;Node4</title>
<path fill="none" stroke="midnightblue" d="M145.13,-107.56C151.42,-96.36 158,-84.64 163.85,-74.22"/>
<polygon fill="none" stroke="midnightblue" points="142.01,-105.97 140.17,-116.4 148.11,-109.4 142.01,-105.97"/>
</g>
<!-- Node2 -->
<g id="node2" class="node">
<title>Node2</title>
<g id="a_node2"><a xlink:href="structformatter.html" target="_top" xlink:title=" ">
<polygon fill="none" stroke="#bfbfbf" points="60,-232.5 60,-300.5 177,-300.5 177,-232.5 60,-232.5"/>
<text text-anchor="start" x="68" y="-288.5" font-family="Helvetica,sans-Serif" font-size="10.00">formatter&lt; basic_string</text>
<text text-anchor="middle" x="118.5" y="-277.5" font-family="Helvetica,sans-Serif" font-size="10.00">_view&lt; Char &gt;, Char &gt;</text>
<polyline fill="none" stroke="#bfbfbf" points="60,-270.5 177,-270.5 "/>
<text text-anchor="middle" x="118.5" y="-258.5" font-family="Helvetica,sans-Serif" font-size="10.00"> </text>
<polyline fill="none" stroke="#bfbfbf" points="60,-251.5 177,-251.5 "/>
<text text-anchor="start" x="68" y="-239.5" font-family="Helvetica,sans-Serif" font-size="10.00">+ formatter()</text>
</a>
</g>
</g>
<!-- Node2&#45;&gt;Node1 -->
<g id="edge1" class="edge">
<title>Node2&#45;&gt;Node1</title>
<path fill="none" stroke="midnightblue" d="M118.5,-222.27C118.5,-213.48 118.5,-204.28 118.5,-195.65"/>
<polygon fill="none" stroke="midnightblue" points="115,-222.36 118.5,-232.36 122,-222.36 115,-222.36"/>
</g>
</g>
</svg>
