<?xml version="1.0" encoding="UTF-8" standalone="no"?>
<!DOCTYPE svg PUBLIC "-//W3C//DTD SVG 1.1//EN"
 "http://www.w3.org/Graphics/SVG/1.1/DTD/svg11.dtd">
<!-- Generated by graphviz version 2.43.0 (0)
 -->
<!-- Title: formatter&lt; detail::streamed_view&lt; T &gt;, Char &gt; Pages: 1 -->
<svg width="133pt" height="309pt"
 viewBox="0.00 0.00 133.00 309.00" xmlns="http://www.w3.org/2000/svg" xmlns:xlink="http://www.w3.org/1999/xlink">
<g id="graph0" class="graph" transform="scale(1 1) rotate(0) translate(4 305)">
<title>formatter&lt; detail::streamed_view&lt; T &gt;, Char &gt;</title>
<!-- Node1 -->
<g id="node1" class="node">
<title>Node1</title>
<g id="a_node1"><a xlink:title=" ">
<polygon fill="#bfbfbf" stroke="black" points="8,-0.5 8,-79.5 117,-79.5 117,-0.5 8,-0.5"/>
<text text-anchor="start" x="16" y="-67.5" font-family="Helvetica,sans-Serif" font-size="10.00">formatter&lt; detail::</text>
<text text-anchor="start" x="16" y="-56.5" font-family="Helvetica,sans-Serif" font-size="10.00">streamed_view&lt; T &gt;,</text>
<text text-anchor="middle" x="62.5" y="-45.5" font-family="Helvetica,sans-Serif" font-size="10.00"> Char &gt;</text>
<polyline fill="none" stroke="black" points="8,-38.5 117,-38.5 "/>
<text text-anchor="middle" x="62.5" y="-26.5" font-family="Helvetica,sans-Serif" font-size="10.00"> </text>
<polyline fill="none" stroke="black" points="8,-19.5 117,-19.5 "/>
<text text-anchor="start" x="16" y="-7.5" font-family="Helvetica,sans-Serif" font-size="10.00">+ format()</text>
</a>
</g>
</g>
<!-- Node2 -->
<g id="node2" class="node">
<title>Node2</title>
<g id="a_node2"><a xlink:href="structbasic__ostream__formatter.html" target="_top" xlink:title=" ">
<polygon fill="none" stroke="#bfbfbf" points="0,-116.5 0,-195.5 125,-195.5 125,-116.5 0,-116.5"/>
<text text-anchor="start" x="8" y="-183.5" font-family="Helvetica,sans-Serif" font-size="10.00">basic_ostream_formatter</text>
<text text-anchor="middle" x="62.5" y="-172.5" font-family="Helvetica,sans-Serif" font-size="10.00">&lt; Char &gt;</text>
<polyline fill="none" stroke="#bfbfbf" points="0,-165.5 125,-165.5 "/>
<text text-anchor="middle" x="62.5" y="-153.5" font-family="Helvetica,sans-Serif" font-size="10.00"> </text>
<polyline fill="none" stroke="#bfbfbf" points="0,-146.5 125,-146.5 "/>
<text text-anchor="start" x="8" y="-134.5" font-family="Helvetica,sans-Serif" font-size="10.00">+ set_debug_format()</text>
<text text-anchor="start" x="8" y="-123.5" font-family="Helvetica,sans-Serif" font-size="10.00">+ format()</text>
</a>
</g>
</g>
<!-- Node2&#45;&gt;Node1 -->
<g id="edge1" class="edge">
<title>Node2&#45;&gt;Node1</title>
<path fill="none" stroke="midnightblue" d="M62.5,-106.15C62.5,-97.26 62.5,-88.1 62.5,-79.56"/>
<polygon fill="none" stroke="midnightblue" points="59,-106.4 62.5,-116.4 66,-106.4 59,-106.4"/>
</g>
<!-- Node3 -->
<g id="node3" class="node">
<title>Node3</title>
<g id="a_node3"><a xlink:href="structformatter.html" target="_top" xlink:title=" ">
<polygon fill="none" stroke="#bfbfbf" points="4,-232.5 4,-300.5 121,-300.5 121,-232.5 4,-232.5"/>
<text text-anchor="start" x="12" y="-288.5" font-family="Helvetica,sans-Serif" font-size="10.00">formatter&lt; basic_string</text>
<text text-anchor="middle" x="62.5" y="-277.5" font-family="Helvetica,sans-Serif" font-size="10.00">_view&lt; Char &gt;, Char &gt;</text>
<polyline fill="none" stroke="#bfbfbf" points="4,-270.5 121,-270.5 "/>
<text text-anchor="middle" x="62.5" y="-258.5" font-family="Helvetica,sans-Serif" font-size="10.00"> </text>
<polyline fill="none" stroke="#bfbfbf" points="4,-251.5 121,-251.5 "/>
<text text-anchor="start" x="12" y="-239.5" font-family="Helvetica,sans-Serif" font-size="10.00">+ formatter()</text>
</a>
</g>
</g>
<!-- Node3&#45;&gt;Node2 -->
<g id="edge2" class="edge">
<title>Node3&#45;&gt;Node2</title>
<path fill="none" stroke="midnightblue" d="M62.5,-222.27C62.5,-213.48 62.5,-204.28 62.5,-195.65"/>
<polygon fill="none" stroke="midnightblue" points="59,-222.36 62.5,-232.36 66,-222.36 59,-222.36"/>
</g>
</g>
</svg>
