<?xml version="1.0" encoding="UTF-8" standalone="no"?>
<!DOCTYPE svg PUBLIC "-//W3C//DTD SVG 1.1//EN"
 "http://www.w3.org/Graphics/SVG/1.1/DTD/svg11.dtd">
<!-- Generated by graphviz version 2.43.0 (0)
 -->
<!-- Title: detail::view Pages: 1 -->
<svg width="526pt" height="193pt"
 viewBox="0.00 0.00 526.00 193.00" xmlns="http://www.w3.org/2000/svg" xmlns:xlink="http://www.w3.org/1999/xlink">
<g id="graph0" class="graph" transform="scale(1 1) rotate(0) translate(4 189)">
<title>detail::view</title>
<!-- Node1 -->
<g id="node1" class="node">
<title>Node1</title>
<g id="a_node1"><a xlink:title=" ">
<polygon fill="#bfbfbf" stroke="black" points="208,-127.5 208,-184.5 274,-184.5 274,-127.5 208,-127.5"/>
<text text-anchor="middle" x="241" y="-172.5" font-family="Helvetica,sans-Serif" font-size="10.00">detail::view</text>
<polyline fill="none" stroke="black" points="208,-165.5 274,-165.5 "/>
<text text-anchor="middle" x="241" y="-153.5" font-family="Helvetica,sans-Serif" font-size="10.00"> </text>
<polyline fill="none" stroke="black" points="208,-146.5 274,-146.5 "/>
<text text-anchor="middle" x="241" y="-134.5" font-family="Helvetica,sans-Serif" font-size="10.00"> </text>
</a>
</g>
</g>
<!-- Node2 -->
<g id="node2" class="node">
<title>Node2</title>
<g id="a_node2"><a xlink:href="structdetail_1_1named__arg.html" target="_top" xlink:title=" ">
<polygon fill="none" stroke="#bfbfbf" points="0,-6 0,-85 100,-85 100,-6 0,-6"/>
<text text-anchor="start" x="8" y="-73" font-family="Helvetica,sans-Serif" font-size="10.00">detail::named_arg&lt;</text>
<text text-anchor="middle" x="50" y="-62" font-family="Helvetica,sans-Serif" font-size="10.00"> Char, T &gt;</text>
<polyline fill="none" stroke="#bfbfbf" points="0,-55 100,-55 "/>
<text text-anchor="start" x="8" y="-43" font-family="Helvetica,sans-Serif" font-size="10.00">+ name</text>
<text text-anchor="start" x="8" y="-32" font-family="Helvetica,sans-Serif" font-size="10.00">+ value</text>
<polyline fill="none" stroke="#bfbfbf" points="0,-25 100,-25 "/>
<text text-anchor="start" x="8" y="-13" font-family="Helvetica,sans-Serif" font-size="10.00">+ named_arg()</text>
</a>
</g>
</g>
<!-- Node1&#45;&gt;Node2 -->
<g id="edge1" class="edge">
<title>Node1&#45;&gt;Node2</title>
<path fill="none" stroke="midnightblue" d="M198.43,-136.91C172.01,-125.07 137.74,-108.57 109,-91 105.94,-89.13 102.84,-87.13 99.74,-85.06"/>
<polygon fill="none" stroke="midnightblue" points="197.23,-140.21 207.79,-141.06 200.06,-133.81 197.23,-140.21"/>
</g>
<!-- Node3 -->
<g id="node3" class="node">
<title>Node3</title>
<g id="a_node3"><a xlink:href="structdetail_1_1styled__arg.html" target="_top" xlink:title=" ">
<polygon fill="none" stroke="#bfbfbf" points="118,-11.5 118,-79.5 232,-79.5 232,-11.5 118,-11.5"/>
<text text-anchor="middle" x="175" y="-67.5" font-family="Helvetica,sans-Serif" font-size="10.00">detail::styled_arg&lt; T &gt;</text>
<polyline fill="none" stroke="#bfbfbf" points="118,-60.5 232,-60.5 "/>
<text text-anchor="start" x="126" y="-48.5" font-family="Helvetica,sans-Serif" font-size="10.00">+ value</text>
<text text-anchor="start" x="126" y="-37.5" font-family="Helvetica,sans-Serif" font-size="10.00">+ style</text>
<polyline fill="none" stroke="#bfbfbf" points="118,-30.5 232,-30.5 "/>
<text text-anchor="start" x="126" y="-18.5" font-family="Helvetica,sans-Serif" font-size="10.00">+ styled_arg()</text>
</a>
</g>
</g>
<!-- Node1&#45;&gt;Node3 -->
<g id="edge2" class="edge">
<title>Node1&#45;&gt;Node3</title>
<path fill="none" stroke="midnightblue" d="M218.77,-118.46C211.11,-105.86 202.57,-91.82 195.09,-79.52"/>
<polygon fill="none" stroke="midnightblue" points="215.99,-120.62 224.17,-127.34 221.97,-116.98 215.99,-120.62"/>
</g>
<!-- Node4 -->
<g id="node4" class="node">
<title>Node4</title>
<g id="a_node4"><a xlink:href="structjoin__view.html" target="_top" xlink:title=" ">
<polygon fill="none" stroke="#bfbfbf" points="250,-0.5 250,-90.5 366,-90.5 366,-0.5 250,-0.5"/>
<text text-anchor="start" x="258" y="-78.5" font-family="Helvetica,sans-Serif" font-size="10.00">join_view&lt; It, Sentinel,</text>
<text text-anchor="middle" x="308" y="-67.5" font-family="Helvetica,sans-Serif" font-size="10.00"> Char &gt;</text>
<polyline fill="none" stroke="#bfbfbf" points="250,-60.5 366,-60.5 "/>
<text text-anchor="start" x="258" y="-48.5" font-family="Helvetica,sans-Serif" font-size="10.00">+ begin</text>
<text text-anchor="start" x="258" y="-37.5" font-family="Helvetica,sans-Serif" font-size="10.00">+ end</text>
<text text-anchor="start" x="258" y="-26.5" font-family="Helvetica,sans-Serif" font-size="10.00">+ sep</text>
<polyline fill="none" stroke="#bfbfbf" points="250,-19.5 366,-19.5 "/>
<text text-anchor="start" x="258" y="-7.5" font-family="Helvetica,sans-Serif" font-size="10.00">+ join_view()</text>
</a>
</g>
</g>
<!-- Node1&#45;&gt;Node4 -->
<g id="edge3" class="edge">
<title>Node1&#45;&gt;Node4</title>
<path fill="none" stroke="midnightblue" d="M263.46,-118.63C269.02,-109.62 275.04,-99.88 280.8,-90.55"/>
<polygon fill="none" stroke="midnightblue" points="260.36,-116.99 258.08,-127.34 266.31,-120.67 260.36,-116.99"/>
</g>
<!-- Node5 -->
<g id="node5" class="node">
<title>Node5</title>
<g id="a_node5"><a xlink:href="structtuple__join__view.html" target="_top" xlink:title=" ">
<polygon fill="none" stroke="#bfbfbf" points="384,-11.5 384,-79.5 518,-79.5 518,-11.5 384,-11.5"/>
<text text-anchor="middle" x="451" y="-67.5" font-family="Helvetica,sans-Serif" font-size="10.00">tuple_join_view&lt; Char, T &gt;</text>
<polyline fill="none" stroke="#bfbfbf" points="384,-60.5 518,-60.5 "/>
<text text-anchor="start" x="392" y="-48.5" font-family="Helvetica,sans-Serif" font-size="10.00">+ tuple</text>
<text text-anchor="start" x="392" y="-37.5" font-family="Helvetica,sans-Serif" font-size="10.00">+ sep</text>
<polyline fill="none" stroke="#bfbfbf" points="384,-30.5 518,-30.5 "/>
<text text-anchor="start" x="392" y="-18.5" font-family="Helvetica,sans-Serif" font-size="10.00">+ tuple_join_view()</text>
</a>
</g>
</g>
<!-- Node1&#45;&gt;Node5 -->
<g id="edge4" class="edge">
<title>Node1&#45;&gt;Node5</title>
<path fill="none" stroke="midnightblue" d="M283.54,-135.79C310.11,-123.53 344.88,-106.98 375,-91 381.75,-87.42 388.77,-83.54 395.68,-79.61"/>
<polygon fill="none" stroke="midnightblue" points="281.77,-132.76 274.15,-140.11 284.7,-139.12 281.77,-132.76"/>
</g>
</g>
</svg>
