<?xml version="1.0" encoding="UTF-8" standalone="no"?>
<!DOCTYPE svg PUBLIC "-//W3C//DTD SVG 1.1//EN"
 "http://www.w3.org/Graphics/SVG/1.1/DTD/svg11.dtd">
<!-- Generated by graphviz version 2.43.0 (0)
 -->
<!-- Title: detail::unformattable Pages: 1 -->
<svg width="260pt" height="171pt"
 viewBox="0.00 0.00 260.00 171.00" xmlns="http://www.w3.org/2000/svg" xmlns:xlink="http://www.w3.org/1999/xlink">
<g id="graph0" class="graph" transform="scale(1 1) rotate(0) translate(4 167)">
<title>detail::unformattable</title>
<!-- Node1 -->
<g id="node1" class="node">
<title>Node1</title>
<g id="a_node1"><a xlink:title=" ">
<polygon fill="#bfbfbf" stroke="black" points="79,-105.5 79,-162.5 184,-162.5 184,-105.5 79,-105.5"/>
<text text-anchor="middle" x="131.5" y="-150.5" font-family="Helvetica,sans-Serif" font-size="10.00">detail::unformattable</text>
<polyline fill="none" stroke="black" points="79,-143.5 184,-143.5 "/>
<text text-anchor="middle" x="131.5" y="-131.5" font-family="Helvetica,sans-Serif" font-size="10.00"> </text>
<polyline fill="none" stroke="black" points="79,-124.5 184,-124.5 "/>
<text text-anchor="middle" x="131.5" y="-112.5" font-family="Helvetica,sans-Serif" font-size="10.00"> </text>
</a>
</g>
</g>
<!-- Node2 -->
<g id="node2" class="node">
<title>Node2</title>
<g id="a_node2"><a xlink:href="structdetail_1_1unformattable__char.html" target="_top" xlink:title=" ">
<polygon fill="none" stroke="#bfbfbf" points="0,-6 0,-63 129,-63 129,-6 0,-6"/>
<text text-anchor="middle" x="64.5" y="-51" font-family="Helvetica,sans-Serif" font-size="10.00">detail::unformattable_char</text>
<polyline fill="none" stroke="#bfbfbf" points="0,-44 129,-44 "/>
<text text-anchor="middle" x="64.5" y="-32" font-family="Helvetica,sans-Serif" font-size="10.00"> </text>
<polyline fill="none" stroke="#bfbfbf" points="0,-25 129,-25 "/>
<text text-anchor="middle" x="64.5" y="-13" font-family="Helvetica,sans-Serif" font-size="10.00"> </text>
</a>
</g>
</g>
<!-- Node1&#45;&gt;Node2 -->
<g id="edge1" class="edge">
<title>Node1&#45;&gt;Node2</title>
<path fill="none" stroke="midnightblue" d="M106.78,-97.02C99.11,-85.87 90.79,-73.75 83.57,-63.25"/>
<polygon fill="none" stroke="midnightblue" points="103.93,-99.06 112.48,-105.32 109.7,-95.1 103.93,-99.06"/>
</g>
<!-- Node3 -->
<g id="node3" class="node">
<title>Node3</title>
<g id="a_node3"><a xlink:href="structdetail_1_1unformattable__pointer.html" target="_top" xlink:title=" ">
<polygon fill="none" stroke="#bfbfbf" points="147,-0.5 147,-68.5 252,-68.5 252,-0.5 147,-0.5"/>
<text text-anchor="start" x="155" y="-56.5" font-family="Helvetica,sans-Serif" font-size="10.00">detail::unformattable</text>
<text text-anchor="middle" x="199.5" y="-45.5" font-family="Helvetica,sans-Serif" font-size="10.00">_pointer</text>
<polyline fill="none" stroke="#bfbfbf" points="147,-38.5 252,-38.5 "/>
<text text-anchor="middle" x="199.5" y="-26.5" font-family="Helvetica,sans-Serif" font-size="10.00"> </text>
<polyline fill="none" stroke="#bfbfbf" points="147,-19.5 252,-19.5 "/>
<text text-anchor="middle" x="199.5" y="-7.5" font-family="Helvetica,sans-Serif" font-size="10.00"> </text>
</a>
</g>
</g>
<!-- Node1&#45;&gt;Node3 -->
<g id="edge2" class="edge">
<title>Node1&#45;&gt;Node3</title>
<path fill="none" stroke="midnightblue" d="M156.57,-97.05C163.02,-87.81 169.93,-77.89 176.29,-68.79"/>
<polygon fill="none" stroke="midnightblue" points="153.65,-95.12 150.8,-105.32 159.4,-99.12 153.65,-95.12"/>
</g>
</g>
</svg>
