<?xml version="1.0" encoding="UTF-8" standalone="no"?>
<!DOCTYPE svg PUBLIC "-//W3C//DTD SVG 1.1//EN"
 "http://www.w3.org/Graphics/SVG/1.1/DTD/svg11.dtd">
<!-- Generated by graphviz version 2.43.0 (0)
 -->
<!-- Title: detail::has_member_data_tm_zone&lt; T, void_t&lt; decltype(T::tm_zone)&gt; &gt; Pages: 1 -->
<svg width="148pt" height="182pt"
 viewBox="0.00 0.00 148.00 182.00" xmlns="http://www.w3.org/2000/svg" xmlns:xlink="http://www.w3.org/1999/xlink">
<g id="graph0" class="graph" transform="scale(1 1) rotate(0) translate(4 178)">
<title>detail::has_member_data_tm_zone&lt; T, void_t&lt; decltype(T::tm_zone)&gt; &gt;</title>
<!-- Node1 -->
<g id="node1" class="node">
<title>Node1</title>
<g id="a_node1"><a xlink:title=" ">
<polygon fill="#bfbfbf" stroke="black" points="0,-0.5 0,-79.5 140,-79.5 140,-0.5 0,-0.5"/>
<text text-anchor="start" x="8" y="-67.5" font-family="Helvetica,sans-Serif" font-size="10.00">detail::has_member</text>
<text text-anchor="start" x="8" y="-56.5" font-family="Helvetica,sans-Serif" font-size="10.00">_data_tm_zone&lt; T, void</text>
<text text-anchor="middle" x="70" y="-45.5" font-family="Helvetica,sans-Serif" font-size="10.00">_t&lt; decltype(T::tm_zone)&gt; &gt;</text>
<polyline fill="none" stroke="black" points="0,-38.5 140,-38.5 "/>
<text text-anchor="middle" x="70" y="-26.5" font-family="Helvetica,sans-Serif" font-size="10.00"> </text>
<polyline fill="none" stroke="black" points="0,-19.5 140,-19.5 "/>
<text text-anchor="middle" x="70" y="-7.5" font-family="Helvetica,sans-Serif" font-size="10.00"> </text>
</a>
</g>
</g>
<!-- Node2 -->
<g id="node2" class="node">
<title>Node2</title>
<g id="a_node2"><a xlink:title=" ">
<polygon fill="none" stroke="#bfbfbf" points="31.5,-116.5 31.5,-173.5 108.5,-173.5 108.5,-116.5 31.5,-116.5"/>
<text text-anchor="middle" x="70" y="-161.5" font-family="Helvetica,sans-Serif" font-size="10.00">std::true_type</text>
<polyline fill="none" stroke="#bfbfbf" points="31.5,-154.5 108.5,-154.5 "/>
<text text-anchor="middle" x="70" y="-142.5" font-family="Helvetica,sans-Serif" font-size="10.00"> </text>
<polyline fill="none" stroke="#bfbfbf" points="31.5,-135.5 108.5,-135.5 "/>
<text text-anchor="middle" x="70" y="-123.5" font-family="Helvetica,sans-Serif" font-size="10.00"> </text>
</a>
</g>
</g>
<!-- Node2&#45;&gt;Node1 -->
<g id="edge1" class="edge">
<title>Node2&#45;&gt;Node1</title>
<path fill="none" stroke="midnightblue" d="M70,-106.16C70,-97.47 70,-88.23 70,-79.52"/>
<polygon fill="none" stroke="midnightblue" points="66.5,-106.4 70,-116.4 73.5,-106.4 66.5,-106.4"/>
</g>
</g>
</svg>
