<?xml version="1.0" encoding="UTF-8" standalone="no"?>
<!DOCTYPE svg PUBLIC "-//W3C//DTD SVG 1.1//EN"
 "http://www.w3.org/Graphics/SVG/1.1/DTD/svg11.dtd">
<!-- Generated by graphviz version 2.43.0 (0)
 -->
<!-- Title: format_specs Pages: 1 -->
<svg width="258pt" height="270pt"
 viewBox="0.00 0.00 258.00 270.00" xmlns="http://www.w3.org/2000/svg" xmlns:xlink="http://www.w3.org/1999/xlink">
<g id="graph0" class="graph" transform="scale(1 1) rotate(0) translate(4 266)">
<title>format_specs</title>
<!-- Node1 -->
<g id="node1" class="node">
<title>Node1</title>
<g id="a_node1"><a xlink:title=" ">
<polygon fill="#bfbfbf" stroke="black" points="79.5,-116.5 79.5,-261.5 170.5,-261.5 170.5,-116.5 79.5,-116.5"/>
<text text-anchor="middle" x="125" y="-249.5" font-family="Helvetica,sans-Serif" font-size="10.00">format_specs</text>
<polyline fill="none" stroke="black" points="79.5,-242.5 170.5,-242.5 "/>
<text text-anchor="start" x="87.5" y="-230.5" font-family="Helvetica,sans-Serif" font-size="10.00">+ width</text>
<text text-anchor="start" x="87.5" y="-219.5" font-family="Helvetica,sans-Serif" font-size="10.00">+ precision</text>
<text text-anchor="start" x="87.5" y="-208.5" font-family="Helvetica,sans-Serif" font-size="10.00">+ type</text>
<text text-anchor="start" x="87.5" y="-197.5" font-family="Helvetica,sans-Serif" font-size="10.00">+ align</text>
<text text-anchor="start" x="87.5" y="-186.5" font-family="Helvetica,sans-Serif" font-size="10.00">+ sign</text>
<text text-anchor="start" x="87.5" y="-175.5" font-family="Helvetica,sans-Serif" font-size="10.00">+ upper</text>
<text text-anchor="start" x="87.5" y="-164.5" font-family="Helvetica,sans-Serif" font-size="10.00">+ alt</text>
<text text-anchor="start" x="87.5" y="-153.5" font-family="Helvetica,sans-Serif" font-size="10.00">+ localized</text>
<text text-anchor="start" x="87.5" y="-142.5" font-family="Helvetica,sans-Serif" font-size="10.00">+ fill</text>
<polyline fill="none" stroke="black" points="79.5,-135.5 170.5,-135.5 "/>
<text text-anchor="start" x="87.5" y="-123.5" font-family="Helvetica,sans-Serif" font-size="10.00">+ format_specs()</text>
</a>
</g>
</g>
<!-- Node2 -->
<g id="node2" class="node">
<title>Node2</title>
<g id="a_node2"><a xlink:href="structdetail_1_1dynamic__format__specs.html" target="_top" xlink:title=" ">
<polygon fill="none" stroke="#bfbfbf" points="0,-0.5 0,-79.5 116,-79.5 116,-0.5 0,-0.5"/>
<text text-anchor="start" x="8" y="-67.5" font-family="Helvetica,sans-Serif" font-size="10.00">detail::dynamic_format</text>
<text text-anchor="middle" x="58" y="-56.5" font-family="Helvetica,sans-Serif" font-size="10.00">_specs&lt; Char &gt;</text>
<polyline fill="none" stroke="#bfbfbf" points="0,-49.5 116,-49.5 "/>
<text text-anchor="start" x="8" y="-37.5" font-family="Helvetica,sans-Serif" font-size="10.00">+ width_ref</text>
<text text-anchor="start" x="8" y="-26.5" font-family="Helvetica,sans-Serif" font-size="10.00">+ precision_ref</text>
<polyline fill="none" stroke="#bfbfbf" points="0,-19.5 116,-19.5 "/>
<text text-anchor="middle" x="58" y="-7.5" font-family="Helvetica,sans-Serif" font-size="10.00"> </text>
</a>
</g>
</g>
<!-- Node1&#45;&gt;Node2 -->
<g id="edge1" class="edge">
<title>Node1&#45;&gt;Node2</title>
<path fill="none" stroke="midnightblue" d="M88,-106.83C83.74,-97.47 79.55,-88.28 75.72,-79.87"/>
<polygon fill="none" stroke="midnightblue" points="84.95,-108.57 92.29,-116.22 91.32,-105.67 84.95,-108.57"/>
</g>
<!-- Node3 -->
<g id="node3" class="node">
<title>Node3</title>
<g id="a_node3"><a xlink:href="structdetail_1_1dynamic__format__specs.html" target="_top" xlink:title=" ">
<polygon fill="none" stroke="#bfbfbf" points="134,-0.5 134,-79.5 250,-79.5 250,-0.5 134,-0.5"/>
<text text-anchor="start" x="142" y="-67.5" font-family="Helvetica,sans-Serif" font-size="10.00">detail::dynamic_format</text>
<text text-anchor="middle" x="192" y="-56.5" font-family="Helvetica,sans-Serif" font-size="10.00">_specs&lt; Char &gt;</text>
<polyline fill="none" stroke="#bfbfbf" points="134,-49.5 250,-49.5 "/>
<text text-anchor="start" x="142" y="-37.5" font-family="Helvetica,sans-Serif" font-size="10.00">+ width_ref</text>
<text text-anchor="start" x="142" y="-26.5" font-family="Helvetica,sans-Serif" font-size="10.00">+ precision_ref</text>
<polyline fill="none" stroke="#bfbfbf" points="134,-19.5 250,-19.5 "/>
<text text-anchor="middle" x="192" y="-7.5" font-family="Helvetica,sans-Serif" font-size="10.00"> </text>
</a>
</g>
</g>
<!-- Node1&#45;&gt;Node3 -->
<g id="edge2" class="edge">
<title>Node1&#45;&gt;Node3</title>
<path fill="none" stroke="midnightblue" d="M162,-106.83C166.26,-97.47 170.45,-88.28 174.28,-79.87"/>
<polygon fill="none" stroke="midnightblue" points="158.68,-105.67 157.71,-116.22 165.05,-108.57 158.68,-105.67"/>
</g>
</g>
</svg>
