<?xml version="1.0" encoding="UTF-8" standalone="no"?>
<!DOCTYPE svg PUBLIC "-//W3C//DTD SVG 1.1//EN"
 "http://www.w3.org/Graphics/SVG/1.1/DTD/svg11.dtd">
<!-- Generated by graphviz version 2.43.0 (0)
 -->
<!-- Title: formatter&lt; std::tm, Char &gt; Pages: 1 -->
<svg width="810pt" height="259pt"
 viewBox="0.00 0.00 810.00 259.00" xmlns="http://www.w3.org/2000/svg" xmlns:xlink="http://www.w3.org/1999/xlink">
<g id="graph0" class="graph" transform="scale(1 1) rotate(0) translate(4 255)">
<title>formatter&lt; std::tm, Char &gt;</title>
<!-- Node1 -->
<g id="node1" class="node">
<title>Node1</title>
<g id="a_node1"><a xlink:title=" ">
<polygon fill="#bfbfbf" stroke="black" points="361,-138.5 361,-250.5 459,-250.5 459,-138.5 361,-138.5"/>
<text text-anchor="start" x="369" y="-238.5" font-family="Helvetica,sans-Serif" font-size="10.00">formatter&lt; std::tm,</text>
<text text-anchor="middle" x="410" y="-227.5" font-family="Helvetica,sans-Serif" font-size="10.00"> Char &gt;</text>
<polyline fill="none" stroke="black" points="361,-220.5 459,-220.5 "/>
<text text-anchor="start" x="369" y="-208.5" font-family="Helvetica,sans-Serif" font-size="10.00"># format_str_</text>
<text text-anchor="start" x="369" y="-197.5" font-family="Helvetica,sans-Serif" font-size="10.00">&#45; specs_</text>
<text text-anchor="start" x="369" y="-186.5" font-family="Helvetica,sans-Serif" font-size="10.00">&#45; width_ref_</text>
<polyline fill="none" stroke="black" points="361,-179.5 459,-179.5 "/>
<text text-anchor="start" x="369" y="-167.5" font-family="Helvetica,sans-Serif" font-size="10.00">+ parse()</text>
<text text-anchor="start" x="369" y="-156.5" font-family="Helvetica,sans-Serif" font-size="10.00">+ format()</text>
<text text-anchor="start" x="369" y="-145.5" font-family="Helvetica,sans-Serif" font-size="10.00"># do_format()</text>
</a>
</g>
</g>
<!-- Node2 -->
<g id="node2" class="node">
<title>Node2</title>
<g id="a_node2"><a xlink:href="structformatter_3_01day_00_01Char_01_4.html" target="_top" xlink:title=" ">
<polygon fill="none" stroke="#bfbfbf" points="0,-17 0,-85 116,-85 116,-17 0,-17"/>
<text text-anchor="middle" x="58" y="-73" font-family="Helvetica,sans-Serif" font-size="10.00">formatter&lt; day, Char &gt;</text>
<polyline fill="none" stroke="#bfbfbf" points="0,-66 116,-66 "/>
<text text-anchor="start" x="8" y="-54" font-family="Helvetica,sans-Serif" font-size="10.00">&#45; use_tm_formatter_</text>
<polyline fill="none" stroke="#bfbfbf" points="0,-47 116,-47 "/>
<text text-anchor="start" x="8" y="-35" font-family="Helvetica,sans-Serif" font-size="10.00">+ parse()</text>
<text text-anchor="start" x="8" y="-24" font-family="Helvetica,sans-Serif" font-size="10.00">+ format()</text>
</a>
</g>
</g>
<!-- Node1&#45;&gt;Node2 -->
<g id="edge1" class="edge">
<title>Node1&#45;&gt;Node2</title>
<path fill="none" stroke="#8b1a1a" d="M351,-180.62C291.75,-166.31 198.91,-140.09 125,-102 115.84,-97.28 106.61,-91.33 98.05,-85.2"/>
<polygon fill="none" stroke="#8b1a1a" points="350.39,-184.07 360.93,-182.98 352.01,-177.26 350.39,-184.07"/>
</g>
<!-- Node3 -->
<g id="node3" class="node">
<title>Node3</title>
<g id="a_node3"><a xlink:href="structformatter_3_01month_00_01Char_01_4.html" target="_top" xlink:title=" ">
<polygon fill="none" stroke="#bfbfbf" points="134,-11.5 134,-90.5 262,-90.5 262,-11.5 134,-11.5"/>
<text text-anchor="middle" x="198" y="-78.5" font-family="Helvetica,sans-Serif" font-size="10.00">formatter&lt; month, Char &gt;</text>
<polyline fill="none" stroke="#bfbfbf" points="134,-71.5 262,-71.5 "/>
<text text-anchor="start" x="142" y="-59.5" font-family="Helvetica,sans-Serif" font-size="10.00">&#45; localized_</text>
<text text-anchor="start" x="142" y="-48.5" font-family="Helvetica,sans-Serif" font-size="10.00">&#45; use_tm_formatter_</text>
<polyline fill="none" stroke="#bfbfbf" points="134,-41.5 262,-41.5 "/>
<text text-anchor="start" x="142" y="-29.5" font-family="Helvetica,sans-Serif" font-size="10.00">+ parse()</text>
<text text-anchor="start" x="142" y="-18.5" font-family="Helvetica,sans-Serif" font-size="10.00">+ format()</text>
</a>
</g>
</g>
<!-- Node1&#45;&gt;Node3 -->
<g id="edge2" class="edge">
<title>Node1&#45;&gt;Node3</title>
<path fill="none" stroke="#8b1a1a" d="M352.31,-155.86C327.25,-139.43 297.6,-119.87 271,-102 265.52,-98.32 259.82,-94.46 254.12,-90.59"/>
<polygon fill="none" stroke="#8b1a1a" points="350.68,-158.98 360.97,-161.54 354.52,-153.13 350.68,-158.98"/>
</g>
<!-- Node4 -->
<g id="node4" class="node">
<title>Node4</title>
<g id="a_node4"><a xlink:href="structformatter_3_01std_1_1chrono_1_1time__point_3_01std_1_1chrono_1_1system__clock_00_01Duration_01_4_00_01Char_01_4.html" target="_top" xlink:title=" ">
<polygon fill="none" stroke="#bfbfbf" points="280,-0.5 280,-101.5 406,-101.5 406,-0.5 280,-0.5"/>
<text text-anchor="start" x="288" y="-89.5" font-family="Helvetica,sans-Serif" font-size="10.00">formatter&lt; std::chrono</text>
<text text-anchor="start" x="288" y="-78.5" font-family="Helvetica,sans-Serif" font-size="10.00">::time_point&lt; std::chrono</text>
<text text-anchor="start" x="288" y="-67.5" font-family="Helvetica,sans-Serif" font-size="10.00">::system_clock, Duration</text>
<text text-anchor="middle" x="343" y="-56.5" font-family="Helvetica,sans-Serif" font-size="10.00"> &gt;, Char &gt;</text>
<polyline fill="none" stroke="#bfbfbf" points="280,-49.5 406,-49.5 "/>
<text text-anchor="middle" x="343" y="-37.5" font-family="Helvetica,sans-Serif" font-size="10.00"> </text>
<polyline fill="none" stroke="#bfbfbf" points="280,-30.5 406,-30.5 "/>
<text text-anchor="start" x="288" y="-18.5" font-family="Helvetica,sans-Serif" font-size="10.00">+ formatter()</text>
<text text-anchor="start" x="288" y="-7.5" font-family="Helvetica,sans-Serif" font-size="10.00">+ format()</text>
</a>
</g>
</g>
<!-- Node1&#45;&gt;Node4 -->
<g id="edge3" class="edge">
<title>Node1&#45;&gt;Node4</title>
<path fill="none" stroke="midnightblue" d="M379.56,-129.21C375.18,-119.96 370.73,-110.56 366.51,-101.66"/>
<polygon fill="none" stroke="midnightblue" points="376.46,-130.85 383.9,-138.39 382.79,-127.85 376.46,-130.85"/>
</g>
<!-- Node5 -->
<g id="node5" class="node">
<title>Node5</title>
<g id="a_node5"><a xlink:href="structformatter_3_01weekday_00_01Char_01_4.html" target="_top" xlink:title=" ">
<polygon fill="none" stroke="#bfbfbf" points="424,-6 424,-96 530,-96 530,-6 424,-6"/>
<text text-anchor="start" x="432" y="-84" font-family="Helvetica,sans-Serif" font-size="10.00">formatter&lt; weekday,</text>
<text text-anchor="middle" x="477" y="-73" font-family="Helvetica,sans-Serif" font-size="10.00"> Char &gt;</text>
<polyline fill="none" stroke="#bfbfbf" points="424,-66 530,-66 "/>
<text text-anchor="start" x="432" y="-54" font-family="Helvetica,sans-Serif" font-size="10.00">&#45; localized_</text>
<text text-anchor="start" x="432" y="-43" font-family="Helvetica,sans-Serif" font-size="10.00">&#45; use_tm_formatter_</text>
<polyline fill="none" stroke="#bfbfbf" points="424,-36 530,-36 "/>
<text text-anchor="start" x="432" y="-24" font-family="Helvetica,sans-Serif" font-size="10.00">+ parse()</text>
<text text-anchor="start" x="432" y="-13" font-family="Helvetica,sans-Serif" font-size="10.00">+ format()</text>
</a>
</g>
</g>
<!-- Node1&#45;&gt;Node5 -->
<g id="edge4" class="edge">
<title>Node1&#45;&gt;Node5</title>
<path fill="none" stroke="#8b1a1a" d="M440.48,-129.12C445.75,-118 451.11,-106.67 456.05,-96.24"/>
<polygon fill="none" stroke="#8b1a1a" points="437.21,-127.85 436.1,-138.39 443.54,-130.85 437.21,-127.85"/>
</g>
<!-- Node6 -->
<g id="node6" class="node">
<title>Node6</title>
<g id="a_node6"><a xlink:href="structformatter_3_01year_00_01Char_01_4.html" target="_top" xlink:title=" ">
<polygon fill="none" stroke="#bfbfbf" points="548.5,-17 548.5,-85 667.5,-85 667.5,-17 548.5,-17"/>
<text text-anchor="middle" x="608" y="-73" font-family="Helvetica,sans-Serif" font-size="10.00">formatter&lt; year, Char &gt;</text>
<polyline fill="none" stroke="#bfbfbf" points="548.5,-66 667.5,-66 "/>
<text text-anchor="start" x="556.5" y="-54" font-family="Helvetica,sans-Serif" font-size="10.00">&#45; use_tm_formatter_</text>
<polyline fill="none" stroke="#bfbfbf" points="548.5,-47 667.5,-47 "/>
<text text-anchor="start" x="556.5" y="-35" font-family="Helvetica,sans-Serif" font-size="10.00">+ parse()</text>
<text text-anchor="start" x="556.5" y="-24" font-family="Helvetica,sans-Serif" font-size="10.00">+ format()</text>
</a>
</g>
</g>
<!-- Node1&#45;&gt;Node6 -->
<g id="edge5" class="edge">
<title>Node1&#45;&gt;Node6</title>
<path fill="none" stroke="#8b1a1a" d="M467.48,-152.92C489.84,-137.08 515.65,-118.74 539,-102 546.57,-96.57 554.6,-90.78 562.4,-85.15"/>
<polygon fill="none" stroke="#8b1a1a" points="465.23,-150.22 459.09,-158.86 469.27,-155.94 465.23,-150.22"/>
</g>
<!-- Node7 -->
<g id="node7" class="node">
<title>Node7</title>
<g id="a_node7"><a xlink:href="structformatter_3_01year__month__day_00_01Char_01_4.html" target="_top" xlink:title=" ">
<polygon fill="none" stroke="#bfbfbf" points="686,-11.5 686,-90.5 802,-90.5 802,-11.5 686,-11.5"/>
<text text-anchor="start" x="694" y="-78.5" font-family="Helvetica,sans-Serif" font-size="10.00">formatter&lt; year_month</text>
<text text-anchor="middle" x="744" y="-67.5" font-family="Helvetica,sans-Serif" font-size="10.00">_day, Char &gt;</text>
<polyline fill="none" stroke="#bfbfbf" points="686,-60.5 802,-60.5 "/>
<text text-anchor="start" x="694" y="-48.5" font-family="Helvetica,sans-Serif" font-size="10.00">&#45; use_tm_formatter_</text>
<polyline fill="none" stroke="#bfbfbf" points="686,-41.5 802,-41.5 "/>
<text text-anchor="start" x="694" y="-29.5" font-family="Helvetica,sans-Serif" font-size="10.00">+ parse()</text>
<text text-anchor="start" x="694" y="-18.5" font-family="Helvetica,sans-Serif" font-size="10.00">+ format()</text>
</a>
</g>
</g>
<!-- Node1&#45;&gt;Node7 -->
<g id="edge6" class="edge">
<title>Node1&#45;&gt;Node7</title>
<path fill="none" stroke="#8b1a1a" d="M468.81,-179.03C524.39,-164.05 609.14,-137.82 677,-102 683.29,-98.68 689.63,-94.8 695.76,-90.69"/>
<polygon fill="none" stroke="#8b1a1a" points="467.89,-175.65 459.12,-181.6 469.69,-182.42 467.89,-175.65"/>
</g>
</g>
</svg>
