<?xml version="1.0" encoding="UTF-8" standalone="no"?>
<!DOCTYPE svg PUBLIC "-//W3C//DTD SVG 1.1//EN"
 "http://www.w3.org/Graphics/SVG/1.1/DTD/svg11.dtd">
<!-- Generated by graphviz version 2.43.0 (0)
 -->
<!-- Title: formatter&lt; T, Char, enable_if_t&lt; detail::has_format_as&lt; T &gt;::value &gt; &gt; Pages: 1 -->
<svg width="136pt" height="204pt"
 viewBox="0.00 0.00 136.00 204.00" xmlns="http://www.w3.org/2000/svg" xmlns:xlink="http://www.w3.org/1999/xlink">
<g id="graph0" class="graph" transform="scale(1 1) rotate(0) translate(4 200)">
<title>formatter&lt; T, Char, enable_if_t&lt; detail::has_format_as&lt; T &gt;::value &gt; &gt;</title>
<!-- Node1 -->
<g id="node1" class="node">
<title>Node1</title>
<g id="a_node1"><a xlink:title=" ">
<polygon fill="#bfbfbf" stroke="black" points="9,-0.5 9,-90.5 119,-90.5 119,-0.5 9,-0.5"/>
<text text-anchor="start" x="17" y="-78.5" font-family="Helvetica,sans-Serif" font-size="10.00">formatter&lt; T, Char,</text>
<text text-anchor="start" x="17" y="-67.5" font-family="Helvetica,sans-Serif" font-size="10.00"> enable_if_t&lt; detail</text>
<text text-anchor="start" x="17" y="-56.5" font-family="Helvetica,sans-Serif" font-size="10.00">::has_format_as&lt; T &gt;</text>
<text text-anchor="middle" x="64" y="-45.5" font-family="Helvetica,sans-Serif" font-size="10.00">::value &gt; &gt;</text>
<polyline fill="none" stroke="black" points="9,-38.5 119,-38.5 "/>
<text text-anchor="middle" x="64" y="-26.5" font-family="Helvetica,sans-Serif" font-size="10.00"> </text>
<polyline fill="none" stroke="black" points="9,-19.5 119,-19.5 "/>
<text text-anchor="start" x="17" y="-7.5" font-family="Helvetica,sans-Serif" font-size="10.00">+ format()</text>
</a>
</g>
</g>
<!-- Node2 -->
<g id="node2" class="node">
<title>Node2</title>
<g id="a_node2"><a xlink:href="structformatter.html" target="_top" xlink:title=" ">
<polygon fill="none" stroke="#bfbfbf" points="0,-127.5 0,-195.5 128,-195.5 128,-127.5 0,-127.5"/>
<text text-anchor="start" x="8" y="-183.5" font-family="Helvetica,sans-Serif" font-size="10.00">formatter&lt; detail::</text>
<text text-anchor="middle" x="64" y="-172.5" font-family="Helvetica,sans-Serif" font-size="10.00">format_as_t&lt; T &gt;, Char &gt;</text>
<polyline fill="none" stroke="#bfbfbf" points="0,-165.5 128,-165.5 "/>
<text text-anchor="middle" x="64" y="-153.5" font-family="Helvetica,sans-Serif" font-size="10.00"> </text>
<polyline fill="none" stroke="#bfbfbf" points="0,-146.5 128,-146.5 "/>
<text text-anchor="start" x="8" y="-134.5" font-family="Helvetica,sans-Serif" font-size="10.00">+ formatter()</text>
</a>
</g>
</g>
<!-- Node2&#45;&gt;Node1 -->
<g id="edge1" class="edge">
<title>Node2&#45;&gt;Node1</title>
<path fill="none" stroke="midnightblue" d="M64,-116.97C64,-108.35 64,-99.28 64,-90.64"/>
<polygon fill="none" stroke="midnightblue" points="60.5,-117.22 64,-127.22 67.5,-117.22 60.5,-117.22"/>
</g>
</g>
</svg>
