<?xml version="1.0" encoding="UTF-8" standalone="no"?>
<!DOCTYPE svg PUBLIC "-//W3C//DTD SVG 1.1//EN"
 "http://www.w3.org/Graphics/SVG/1.1/DTD/svg11.dtd">
<!-- Generated by graphviz version 2.43.0 (0)
 -->
<!-- Title: formatter&lt; std::thread::id, Char &gt; Pages: 1 -->
<svg width="133pt" height="298pt"
 viewBox="0.00 0.00 133.00 298.00" xmlns="http://www.w3.org/2000/svg" xmlns:xlink="http://www.w3.org/1999/xlink">
<g id="graph0" class="graph" transform="scale(1 1) rotate(0) translate(4 294)">
<title>formatter&lt; std::thread::id, Char &gt;</title>
<!-- Node1 -->
<g id="node1" class="node">
<title>Node1</title>
<g id="a_node1"><a xlink:title=" ">
<polygon fill="#bfbfbf" stroke="black" points="7,-0.5 7,-68.5 118,-68.5 118,-0.5 7,-0.5"/>
<text text-anchor="start" x="15" y="-56.5" font-family="Helvetica,sans-Serif" font-size="10.00">formatter&lt; std::thread</text>
<text text-anchor="middle" x="62.5" y="-45.5" font-family="Helvetica,sans-Serif" font-size="10.00">::id, Char &gt;</text>
<polyline fill="none" stroke="black" points="7,-38.5 118,-38.5 "/>
<text text-anchor="middle" x="62.5" y="-26.5" font-family="Helvetica,sans-Serif" font-size="10.00"> </text>
<polyline fill="none" stroke="black" points="7,-19.5 118,-19.5 "/>
<text text-anchor="middle" x="62.5" y="-7.5" font-family="Helvetica,sans-Serif" font-size="10.00"> </text>
</a>
</g>
</g>
<!-- Node2 -->
<g id="node2" class="node">
<title>Node2</title>
<g id="a_node2"><a xlink:href="structbasic__ostream__formatter.html" target="_top" xlink:title=" ">
<polygon fill="none" stroke="#bfbfbf" points="0,-105.5 0,-184.5 125,-184.5 125,-105.5 0,-105.5"/>
<text text-anchor="start" x="8" y="-172.5" font-family="Helvetica,sans-Serif" font-size="10.00">basic_ostream_formatter</text>
<text text-anchor="middle" x="62.5" y="-161.5" font-family="Helvetica,sans-Serif" font-size="10.00">&lt; Char &gt;</text>
<polyline fill="none" stroke="#bfbfbf" points="0,-154.5 125,-154.5 "/>
<text text-anchor="middle" x="62.5" y="-142.5" font-family="Helvetica,sans-Serif" font-size="10.00"> </text>
<polyline fill="none" stroke="#bfbfbf" points="0,-135.5 125,-135.5 "/>
<text text-anchor="start" x="8" y="-123.5" font-family="Helvetica,sans-Serif" font-size="10.00">+ set_debug_format()</text>
<text text-anchor="start" x="8" y="-112.5" font-family="Helvetica,sans-Serif" font-size="10.00">+ format()</text>
</a>
</g>
</g>
<!-- Node2&#45;&gt;Node1 -->
<g id="edge1" class="edge">
<title>Node2&#45;&gt;Node1</title>
<path fill="none" stroke="midnightblue" d="M62.5,-95.35C62.5,-86.28 62.5,-77 62.5,-68.54"/>
<polygon fill="none" stroke="midnightblue" points="59,-95.44 62.5,-105.44 66,-95.44 59,-95.44"/>
</g>
<!-- Node3 -->
<g id="node3" class="node">
<title>Node3</title>
<g id="a_node3"><a xlink:href="structformatter.html" target="_top" xlink:title=" ">
<polygon fill="none" stroke="#bfbfbf" points="4,-221.5 4,-289.5 121,-289.5 121,-221.5 4,-221.5"/>
<text text-anchor="start" x="12" y="-277.5" font-family="Helvetica,sans-Serif" font-size="10.00">formatter&lt; basic_string</text>
<text text-anchor="middle" x="62.5" y="-266.5" font-family="Helvetica,sans-Serif" font-size="10.00">_view&lt; Char &gt;, Char &gt;</text>
<polyline fill="none" stroke="#bfbfbf" points="4,-259.5 121,-259.5 "/>
<text text-anchor="middle" x="62.5" y="-247.5" font-family="Helvetica,sans-Serif" font-size="10.00"> </text>
<polyline fill="none" stroke="#bfbfbf" points="4,-240.5 121,-240.5 "/>
<text text-anchor="start" x="12" y="-228.5" font-family="Helvetica,sans-Serif" font-size="10.00">+ formatter()</text>
</a>
</g>
</g>
<!-- Node3&#45;&gt;Node2 -->
<g id="edge2" class="edge">
<title>Node3&#45;&gt;Node2</title>
<path fill="none" stroke="midnightblue" d="M62.5,-211.27C62.5,-202.48 62.5,-193.28 62.5,-184.65"/>
<polygon fill="none" stroke="midnightblue" points="59,-211.36 62.5,-221.36 66,-211.36 59,-211.36"/>
</g>
</g>
</svg>
