<?xml version="1.0" encoding="UTF-8" standalone="no"?>
<!DOCTYPE svg PUBLIC "-//W3C//DTD SVG 1.1//EN"
 "http://www.w3.org/Graphics/SVG/1.1/DTD/svg11.dtd">
<!-- Generated by graphviz version 2.43.0 (0)
 -->
<!-- Title: formatter&lt; year_month_day, Char &gt; Pages: 1 -->
<svg width="124pt" height="237pt"
 viewBox="0.00 0.00 124.00 237.00" xmlns="http://www.w3.org/2000/svg" xmlns:xlink="http://www.w3.org/1999/xlink">
<g id="graph0" class="graph" transform="scale(1 1) rotate(0) translate(4 233)">
<title>formatter&lt; year_month_day, Char &gt;</title>
<!-- Node1 -->
<g id="node1" class="node">
<title>Node1</title>
<g id="a_node1"><a xlink:title=" ">
<polygon fill="#bfbfbf" stroke="black" points="0,-0.5 0,-79.5 116,-79.5 116,-0.5 0,-0.5"/>
<text text-anchor="start" x="8" y="-67.5" font-family="Helvetica,sans-Serif" font-size="10.00">formatter&lt; year_month</text>
<text text-anchor="middle" x="58" y="-56.5" font-family="Helvetica,sans-Serif" font-size="10.00">_day, Char &gt;</text>
<polyline fill="none" stroke="black" points="0,-49.5 116,-49.5 "/>
<text text-anchor="start" x="8" y="-37.5" font-family="Helvetica,sans-Serif" font-size="10.00">&#45; use_tm_formatter_</text>
<polyline fill="none" stroke="black" points="0,-30.5 116,-30.5 "/>
<text text-anchor="start" x="8" y="-18.5" font-family="Helvetica,sans-Serif" font-size="10.00">+ parse()</text>
<text text-anchor="start" x="8" y="-7.5" font-family="Helvetica,sans-Serif" font-size="10.00">+ format()</text>
</a>
</g>
</g>
<!-- Node2 -->
<g id="node2" class="node">
<title>Node2</title>
<g id="a_node2"><a xlink:href="structformatter_3_01std_1_1tm_00_01Char_01_4.html" target="_top" xlink:title=" ">
<polygon fill="none" stroke="#bfbfbf" points="9,-116.5 9,-228.5 107,-228.5 107,-116.5 9,-116.5"/>
<text text-anchor="start" x="17" y="-216.5" font-family="Helvetica,sans-Serif" font-size="10.00">formatter&lt; std::tm,</text>
<text text-anchor="middle" x="58" y="-205.5" font-family="Helvetica,sans-Serif" font-size="10.00"> Char &gt;</text>
<polyline fill="none" stroke="#bfbfbf" points="9,-198.5 107,-198.5 "/>
<text text-anchor="start" x="17" y="-186.5" font-family="Helvetica,sans-Serif" font-size="10.00"># format_str_</text>
<text text-anchor="start" x="17" y="-175.5" font-family="Helvetica,sans-Serif" font-size="10.00">&#45; specs_</text>
<text text-anchor="start" x="17" y="-164.5" font-family="Helvetica,sans-Serif" font-size="10.00">&#45; width_ref_</text>
<polyline fill="none" stroke="#bfbfbf" points="9,-157.5 107,-157.5 "/>
<text text-anchor="start" x="17" y="-145.5" font-family="Helvetica,sans-Serif" font-size="10.00">+ parse()</text>
<text text-anchor="start" x="17" y="-134.5" font-family="Helvetica,sans-Serif" font-size="10.00">+ format()</text>
<text text-anchor="start" x="17" y="-123.5" font-family="Helvetica,sans-Serif" font-size="10.00"># do_format()</text>
</a>
</g>
</g>
<!-- Node2&#45;&gt;Node1 -->
<g id="edge1" class="edge">
<title>Node2&#45;&gt;Node1</title>
<path fill="none" stroke="#8b1a1a" d="M58,-106.06C58,-97.08 58,-88.11 58,-79.82"/>
<polygon fill="none" stroke="#8b1a1a" points="54.5,-106.16 58,-116.16 61.5,-106.16 54.5,-106.16"/>
</g>
</g>
</svg>
