<?xml version="1.0" encoding="UTF-8" standalone="no"?>
<!DOCTYPE svg PUBLIC "-//W3C//DTD SVG 1.1//EN"
 "http://www.w3.org/Graphics/SVG/1.1/DTD/svg11.dtd">
<!-- Generated by graphviz version 2.43.0 (0)
 -->
<!-- Title: formatter&lt; detail::styled_arg&lt; T &gt;, Char &gt; Pages: 1 -->
<svg width="129pt" height="171pt"
 viewBox="0.00 0.00 129.00 171.00" xmlns="http://www.w3.org/2000/svg" xmlns:xlink="http://www.w3.org/1999/xlink">
<g id="graph0" class="graph" transform="scale(1 1) rotate(0) translate(4 167)">
<title>formatter&lt; detail::styled_arg&lt; T &gt;, Char &gt;</title>
<!-- Node1 -->
<g id="node1" class="node">
<title>Node1</title>
<g id="a_node1"><a xlink:title=" ">
<polygon fill="#bfbfbf" stroke="black" points="0,-0.5 0,-68.5 121,-68.5 121,-0.5 0,-0.5"/>
<text text-anchor="start" x="8" y="-56.5" font-family="Helvetica,sans-Serif" font-size="10.00">formatter&lt; detail::</text>
<text text-anchor="middle" x="60.5" y="-45.5" font-family="Helvetica,sans-Serif" font-size="10.00">styled_arg&lt; T &gt;, Char &gt;</text>
<polyline fill="none" stroke="black" points="0,-38.5 121,-38.5 "/>
<text text-anchor="middle" x="60.5" y="-26.5" font-family="Helvetica,sans-Serif" font-size="10.00"> </text>
<polyline fill="none" stroke="black" points="0,-19.5 121,-19.5 "/>
<text text-anchor="start" x="8" y="-7.5" font-family="Helvetica,sans-Serif" font-size="10.00">+ format()</text>
</a>
</g>
</g>
<!-- Node2 -->
<g id="node2" class="node">
<title>Node2</title>
<g id="a_node2"><a xlink:href="structformatter.html" target="_top" xlink:title=" ">
<polygon fill="none" stroke="#bfbfbf" points="8,-105.5 8,-162.5 113,-162.5 113,-105.5 8,-105.5"/>
<text text-anchor="middle" x="60.5" y="-150.5" font-family="Helvetica,sans-Serif" font-size="10.00">formatter&lt; T, Char &gt;</text>
<polyline fill="none" stroke="#bfbfbf" points="8,-143.5 113,-143.5 "/>
<text text-anchor="middle" x="60.5" y="-131.5" font-family="Helvetica,sans-Serif" font-size="10.00"> </text>
<polyline fill="none" stroke="#bfbfbf" points="8,-124.5 113,-124.5 "/>
<text text-anchor="start" x="16" y="-112.5" font-family="Helvetica,sans-Serif" font-size="10.00">+ formatter()</text>
</a>
</g>
</g>
<!-- Node2&#45;&gt;Node1 -->
<g id="edge1" class="edge">
<title>Node2&#45;&gt;Node1</title>
<path fill="none" stroke="midnightblue" d="M60.5,-95.06C60.5,-86.39 60.5,-77.24 60.5,-68.79"/>
<polygon fill="none" stroke="midnightblue" points="57,-95.32 60.5,-105.32 64,-95.32 57,-95.32"/>
</g>
</g>
</svg>
