<?xml version="1.0" encoding="UTF-8" standalone="no"?>
<!DOCTYPE svg PUBLIC "-//W3C//DTD SVG 1.1//EN"
 "http://www.w3.org/Graphics/SVG/1.1/DTD/svg11.dtd">
<!-- Generated by graphviz version 2.43.0 (0)
 -->
<!-- Title: include/cad_mesh/subdomain_topology.h Pages: 1 -->
<svg width="530pt" height="452pt"
 viewBox="0.00 0.00 529.50 452.00" xmlns="http://www.w3.org/2000/svg" xmlns:xlink="http://www.w3.org/1999/xlink">
<g id="graph0" class="graph" transform="scale(1 1) rotate(0) translate(4 448)">
<title>include/cad_mesh/subdomain_topology.h</title>
<!-- Node1 -->
<g id="node1" class="node">
<title>Node1</title>
<g id="a_node1"><a xlink:title="Introduction of subdomain_topology.h.">
<polygon fill="#bfbfbf" stroke="black" points="116,-413.5 116,-443.5 262,-443.5 262,-413.5 116,-413.5"/>
<text text-anchor="start" x="124" y="-431.5" font-family="Helvetica,sans-Serif" font-size="10.00">include/cad_mesh/subdomain</text>
<text text-anchor="middle" x="189" y="-420.5" font-family="Helvetica,sans-Serif" font-size="10.00">_topology.h</text>
</a>
</g>
</g>
<!-- Node2 -->
<g id="node2" class="node">
<title>Node2</title>
<g id="a_node2"><a xlink:href="bem__general_8hcu_source.html" target="_top" xlink:title=" ">
<polygon fill="none" stroke="black" points="66,-352 66,-371 212,-371 212,-352 66,-352"/>
<text text-anchor="middle" x="139" y="-359" font-family="Helvetica,sans-Serif" font-size="10.00">include/bem/bem_general.hcu</text>
</a>
</g>
</g>
<!-- Node1&#45;&gt;Node2 -->
<g id="edge1" class="edge">
<title>Node1&#45;&gt;Node2</title>
<path fill="none" stroke="midnightblue" d="M171.94,-405.32C162.92,-393.6 152.37,-379.88 145.69,-371.19"/>
<polygon fill="midnightblue" stroke="midnightblue" points="169.28,-407.6 178.15,-413.4 174.83,-403.34 169.28,-407.6"/>
</g>
<!-- Node3 -->
<g id="node3" class="node">
<title>Node3</title>
<g id="a_node3"><a xlink:href="laplace__bem_8priv_8hcu_source.html" target="_top" xlink:title=" ">
<polygon fill="none" stroke="black" points="113.5,-134.5 113.5,-164.5 228.5,-164.5 228.5,-134.5 113.5,-134.5"/>
<text text-anchor="start" x="121.5" y="-152.5" font-family="Helvetica,sans-Serif" font-size="10.00">include/laplace/laplace</text>
<text text-anchor="middle" x="171" y="-141.5" font-family="Helvetica,sans-Serif" font-size="10.00">_bem.priv.hcu</text>
</a>
</g>
</g>
<!-- Node1&#45;&gt;Node3 -->
<g id="edge15" class="edge">
<title>Node1&#45;&gt;Node3</title>
<path fill="none" stroke="midnightblue" d="M106.28,-412.8C87.01,-405.31 68.71,-394.02 57,-377 31.54,-339.99 -5.48,-324.28 81,-201 92.63,-184.43 111.53,-172.64 129.01,-164.65"/>
<polygon fill="midnightblue" stroke="midnightblue" points="105.2,-416.13 115.8,-416.17 107.54,-409.53 105.2,-416.13"/>
</g>
<!-- Node4 -->
<g id="node4" class="node">
<title>Node4</title>
<g id="a_node4"><a xlink:href="laplace__bem_8impl_8hcu_source.html" target="_top" xlink:title=" ">
<polygon fill="none" stroke="black" points="113.5,-67.5 113.5,-97.5 228.5,-97.5 228.5,-67.5 113.5,-67.5"/>
<text text-anchor="start" x="121.5" y="-85.5" font-family="Helvetica,sans-Serif" font-size="10.00">include/laplace/laplace</text>
<text text-anchor="middle" x="171" y="-74.5" font-family="Helvetica,sans-Serif" font-size="10.00">_bem.impl.hcu</text>
</a>
</g>
</g>
<!-- Node1&#45;&gt;Node4 -->
<g id="edge14" class="edge">
<title>Node1&#45;&gt;Node4</title>
<path fill="none" stroke="midnightblue" d="M105.69,-415.18C79.49,-407.78 52.17,-395.94 32,-377 3.63,-350.36 0,-334.41 0,-295.5 0,-295.5 0,-295.5 0,-221 0,-156.05 75.85,-116.62 126.52,-97.53"/>
<polygon fill="midnightblue" stroke="midnightblue" points="105.09,-418.64 115.66,-417.8 106.88,-411.87 105.09,-418.64"/>
</g>
<!-- Node6 -->
<g id="node6" class="node">
<title>Node6</title>
<g id="a_node6"><a xlink:href="operator__preconditioner_8h.html" target="_top" xlink:title=" ">
<polygon fill="none" stroke="black" points="113.5,-279.5 113.5,-309.5 242.5,-309.5 242.5,-279.5 113.5,-279.5"/>
<text text-anchor="start" x="121.5" y="-297.5" font-family="Helvetica,sans-Serif" font-size="10.00">include/preconditioners</text>
<text text-anchor="middle" x="178" y="-286.5" font-family="Helvetica,sans-Serif" font-size="10.00">/operator_preconditioner.h</text>
</a>
</g>
</g>
<!-- Node1&#45;&gt;Node6 -->
<g id="edge16" class="edge">
<title>Node1&#45;&gt;Node6</title>
<path fill="none" stroke="midnightblue" d="M207.21,-404.8C212.77,-396.54 218.15,-386.81 221,-377 224.84,-363.77 225.76,-358.93 221,-346 215.75,-331.74 204.48,-318.76 194.8,-309.53"/>
<polygon fill="midnightblue" stroke="midnightblue" points="204.23,-402.96 201.24,-413.12 209.91,-407.05 204.23,-402.96"/>
</g>
<!-- Node9 -->
<g id="node9" class="node">
<title>Node9</title>
<g id="a_node9"><a xlink:href="ddm__efield_8h.html" target="_top" xlink:title="Introduction of ddm_efield.h.">
<polygon fill="none" stroke="black" points="306.5,-346.5 306.5,-376.5 411.5,-376.5 411.5,-346.5 306.5,-346.5"/>
<text text-anchor="start" x="314.5" y="-364.5" font-family="Helvetica,sans-Serif" font-size="10.00">include/electric_field</text>
<text text-anchor="middle" x="359" y="-353.5" font-family="Helvetica,sans-Serif" font-size="10.00">/ddm_efield.h</text>
</a>
</g>
</g>
<!-- Node1&#45;&gt;Node9 -->
<g id="edge10" class="edge">
<title>Node1&#45;&gt;Node9</title>
<path fill="none" stroke="midnightblue" d="M235.24,-409.82C262.57,-399.37 296.69,-386.32 322.18,-376.58"/>
<polygon fill="midnightblue" stroke="midnightblue" points="233.98,-406.56 225.89,-413.4 236.48,-413.09 233.98,-406.56"/>
</g>
<!-- Node10 -->
<g id="node10" class="node">
<title>Node10</title>
<g id="a_node10"><a xlink:href="laplace__bem_8h.html" target="_top" xlink:title="Implementation of BEM involving kernel functions and singular numerical quadratures.">
<polygon fill="none" stroke="black" points="406.5,-207 406.5,-237 521.5,-237 521.5,-207 406.5,-207"/>
<text text-anchor="start" x="414.5" y="-225" font-family="Helvetica,sans-Serif" font-size="10.00">include/laplace/laplace</text>
<text text-anchor="middle" x="464" y="-214" font-family="Helvetica,sans-Serif" font-size="10.00">_bem.h</text>
</a>
</g>
</g>
<!-- Node1&#45;&gt;Node10 -->
<g id="edge11" class="edge">
<title>Node1&#45;&gt;Node10</title>
<path fill="none" stroke="midnightblue" d="M216.11,-407.18C238.15,-390.67 270.06,-366.8 298,-346 350.94,-306.59 413.54,-260.29 444.56,-237.36"/>
<polygon fill="midnightblue" stroke="midnightblue" points="213.79,-404.54 207.89,-413.34 217.99,-410.15 213.79,-404.54"/>
</g>
<!-- Node2&#45;&gt;Node3 -->
<g id="edge2" class="edge">
<title>Node2&#45;&gt;Node3</title>
<path fill="none" stroke="midnightblue" d="M124.96,-343.9C117.81,-334.54 109.66,-322.28 105,-310 87.74,-264.56 73.16,-243.91 96,-201 104.63,-184.79 121.04,-172.85 136.31,-164.66"/>
<polygon fill="midnightblue" stroke="midnightblue" points="122.39,-346.28 131.37,-351.9 127.85,-341.91 122.39,-346.28"/>
</g>
<!-- Node2&#45;&gt;Node6 -->
<g id="edge5" class="edge">
<title>Node2&#45;&gt;Node6</title>
<path fill="none" stroke="midnightblue" d="M149.48,-343.03C155.77,-332.56 163.66,-319.4 169.55,-309.59"/>
<polygon fill="midnightblue" stroke="midnightblue" points="146.4,-341.36 144.26,-351.73 152.41,-344.96 146.4,-341.36"/>
</g>
<!-- Node3&#45;&gt;Node4 -->
<g id="edge3" class="edge">
<title>Node3&#45;&gt;Node4</title>
<path fill="none" stroke="midnightblue" d="M171,-124.11C171,-115.15 171,-105.32 171,-97.58"/>
<polygon fill="midnightblue" stroke="midnightblue" points="167.5,-124.4 171,-134.4 174.5,-124.4 167.5,-124.4"/>
</g>
<!-- Node5 -->
<g id="node5" class="node">
<title>Node5</title>
<g id="a_node5"><a xlink:href="laplace__bem_8cu_source.html" target="_top" xlink:title=" ">
<polygon fill="none" stroke="black" points="122,-0.5 122,-30.5 220,-30.5 220,-0.5 122,-0.5"/>
<text text-anchor="start" x="130" y="-18.5" font-family="Helvetica,sans-Serif" font-size="10.00">src/laplace/laplace</text>
<text text-anchor="middle" x="171" y="-7.5" font-family="Helvetica,sans-Serif" font-size="10.00">_bem.cu</text>
</a>
</g>
</g>
<!-- Node4&#45;&gt;Node5 -->
<g id="edge4" class="edge">
<title>Node4&#45;&gt;Node5</title>
<path fill="none" stroke="midnightblue" d="M171,-57.11C171,-48.15 171,-38.32 171,-30.58"/>
<polygon fill="midnightblue" stroke="midnightblue" points="167.5,-57.4 171,-67.4 174.5,-57.4 167.5,-57.4"/>
</g>
<!-- Node7 -->
<g id="node7" class="node">
<title>Node7</title>
<g id="a_node7"><a xlink:href="preconditioner__for__laplace__dirichlet_8h.html" target="_top" xlink:title=" ">
<polygon fill="none" stroke="black" points="104.5,-201.5 104.5,-242.5 237.5,-242.5 237.5,-201.5 104.5,-201.5"/>
<text text-anchor="start" x="112.5" y="-230.5" font-family="Helvetica,sans-Serif" font-size="10.00">include/preconditioners</text>
<text text-anchor="start" x="112.5" y="-219.5" font-family="Helvetica,sans-Serif" font-size="10.00">/preconditioner_for_laplace</text>
<text text-anchor="middle" x="171" y="-208.5" font-family="Helvetica,sans-Serif" font-size="10.00">_dirichlet.h</text>
</a>
</g>
</g>
<!-- Node6&#45;&gt;Node7 -->
<g id="edge6" class="edge">
<title>Node6&#45;&gt;Node7</title>
<path fill="none" stroke="midnightblue" d="M175.59,-269.27C174.73,-260.56 173.77,-250.85 172.94,-242.59"/>
<polygon fill="midnightblue" stroke="midnightblue" points="172.11,-269.63 176.58,-279.23 179.08,-268.94 172.11,-269.63"/>
</g>
<!-- Node8 -->
<g id="node8" class="node">
<title>Node8</title>
<g id="a_node8"><a xlink:href="preconditioner__for__laplace__neumann_8h.html" target="_top" xlink:title=" ">
<polygon fill="none" stroke="black" points="255.5,-201.5 255.5,-242.5 388.5,-242.5 388.5,-201.5 255.5,-201.5"/>
<text text-anchor="start" x="263.5" y="-230.5" font-family="Helvetica,sans-Serif" font-size="10.00">include/preconditioners</text>
<text text-anchor="start" x="263.5" y="-219.5" font-family="Helvetica,sans-Serif" font-size="10.00">/preconditioner_for_laplace</text>
<text text-anchor="middle" x="322" y="-208.5" font-family="Helvetica,sans-Serif" font-size="10.00">_neumann.h</text>
</a>
</g>
</g>
<!-- Node6&#45;&gt;Node8 -->
<g id="edge8" class="edge">
<title>Node6&#45;&gt;Node8</title>
<path fill="none" stroke="midnightblue" d="M215.8,-275C236.19,-265.01 261.36,-252.69 282.08,-242.55"/>
<polygon fill="midnightblue" stroke="midnightblue" points="214.24,-271.86 206.79,-279.4 217.31,-278.15 214.24,-271.86"/>
</g>
<!-- Node7&#45;&gt;Node3 -->
<g id="edge7" class="edge">
<title>Node7&#45;&gt;Node3</title>
<path fill="none" stroke="midnightblue" d="M171,-191.08C171,-182.01 171,-172.45 171,-164.89"/>
<polygon fill="midnightblue" stroke="midnightblue" points="167.5,-191.36 171,-201.36 174.5,-191.36 167.5,-191.36"/>
</g>
<!-- Node8&#45;&gt;Node3 -->
<g id="edge9" class="edge">
<title>Node8&#45;&gt;Node3</title>
<path fill="none" stroke="midnightblue" d="M270.63,-197.02C247.58,-186.25 221.18,-173.93 201.35,-164.67"/>
<polygon fill="midnightblue" stroke="midnightblue" points="269.4,-200.3 279.94,-201.36 272.36,-193.96 269.4,-200.3"/>
</g>
<!-- Node10&#45;&gt;Node3 -->
<g id="edge13" class="edge">
<title>Node10&#45;&gt;Node3</title>
<path fill="none" stroke="midnightblue" d="M409.64,-204.17C405.71,-203.07 401.8,-202 398,-201 340.79,-185.99 274.72,-171.62 228.66,-162.08"/>
<polygon fill="midnightblue" stroke="midnightblue" points="408.82,-207.58 419.4,-206.99 410.76,-200.85 408.82,-207.58"/>
</g>
<!-- Node10&#45;&gt;Node4 -->
<g id="edge12" class="edge">
<title>Node10&#45;&gt;Node4</title>
<path fill="none" stroke="midnightblue" d="M424.62,-202.52C365.35,-174.7 254.47,-122.67 201.16,-97.65"/>
<polygon fill="midnightblue" stroke="midnightblue" points="423.48,-205.85 434.02,-206.93 426.45,-199.51 423.48,-205.85"/>
</g>
</g>
</svg>
