<?xml version="1.0" encoding="UTF-8" standalone="no"?>
<!DOCTYPE svg PUBLIC "-//W3C//DTD SVG 1.1//EN"
 "http://www.w3.org/Graphics/SVG/1.1/DTD/svg11.dtd">
<!-- Generated by graphviz version 2.43.0 (0)
 -->
<!-- Title: include/cad_mesh/subdomain_topology.h Pages: 1 -->
<svg width="1950pt" height="541pt"
 viewBox="0.00 0.00 1949.50 541.00" xmlns="http://www.w3.org/2000/svg" xmlns:xlink="http://www.w3.org/1999/xlink">
<g id="graph0" class="graph" transform="scale(1 1) rotate(0) translate(4 537)">
<title>include/cad_mesh/subdomain_topology.h</title>
<!-- Node1 -->
<g id="node1" class="node">
<title>Node1</title>
<g id="a_node1"><a xlink:title="Introduction of subdomain_topology.h.">
<polygon fill="#bfbfbf" stroke="black" points="780.5,-502.5 780.5,-532.5 926.5,-532.5 926.5,-502.5 780.5,-502.5"/>
<text text-anchor="start" x="788.5" y="-520.5" font-family="Helvetica,sans-Serif" font-size="10.00">include/cad_mesh/subdomain</text>
<text text-anchor="middle" x="853.5" y="-509.5" font-family="Helvetica,sans-Serif" font-size="10.00">_topology.h</text>
</a>
</g>
</g>
<!-- Node2 -->
<g id="node2" class="node">
<title>Node2</title>
<g id="a_node2"><a xlink:href="build-hmatrix-on-subdomain_8cu.html" target="_top" xlink:title="Example for building an H&#45;matrix on a subdomain which is specified by a set of material ids.">
<polygon fill="none" stroke="black" points="0,-424.5 0,-465.5 139,-465.5 139,-424.5 0,-424.5"/>
<text text-anchor="start" x="8" y="-453.5" font-family="Helvetica,sans-Serif" font-size="10.00">examples/build&#45;hmatrix</text>
<text text-anchor="start" x="8" y="-442.5" font-family="Helvetica,sans-Serif" font-size="10.00">&#45;on&#45;subdomain/build&#45;hmatrix</text>
<text text-anchor="middle" x="69.5" y="-431.5" font-family="Helvetica,sans-Serif" font-size="10.00">&#45;on&#45;subdomain.cu</text>
</a>
</g>
</g>
<!-- Node1&#45;&gt;Node2 -->
<g id="edge1" class="edge">
<title>Node1&#45;&gt;Node2</title>
<path fill="none" stroke="midnightblue" d="M770.24,-515.37C637.63,-512.5 370.62,-502.28 147.5,-466 144.74,-465.55 141.94,-465.05 139.11,-464.51"/>
<polygon fill="midnightblue" stroke="midnightblue" points="770.26,-518.87 780.33,-515.58 770.41,-511.88 770.26,-518.87"/>
</g>
<!-- Node3 -->
<g id="node3" class="node">
<title>Node3</title>
<g id="a_node3"><a xlink:href="build-hmatrix_8cu.html" target="_top" xlink:title="Example for building an H&#45;matrix.">
<polygon fill="none" stroke="black" points="157,-430 157,-460 274,-460 274,-430 157,-430"/>
<text text-anchor="start" x="165" y="-448" font-family="Helvetica,sans-Serif" font-size="10.00">examples/build&#45;hmatrix</text>
<text text-anchor="middle" x="215.5" y="-437" font-family="Helvetica,sans-Serif" font-size="10.00">/build&#45;hmatrix.cu</text>
</a>
</g>
</g>
<!-- Node1&#45;&gt;Node3 -->
<g id="edge2" class="edge">
<title>Node1&#45;&gt;Node3</title>
<path fill="none" stroke="midnightblue" d="M770.15,-513.69C659.38,-508.91 457.91,-496.53 288.5,-466 279.84,-464.44 270.71,-462.32 261.95,-460.05"/>
<polygon fill="midnightblue" stroke="midnightblue" points="770.12,-517.2 780.26,-514.12 770.41,-510.2 770.12,-517.2"/>
</g>
<!-- Node4 -->
<g id="node4" class="node">
<title>Node4</title>
<g id="a_node4"><a xlink:href="bem__bilinear__form_8h.html" target="_top" xlink:title="Definition of a class for BEM bilinear form.">
<polygon fill="none" stroke="black" points="1082,-207 1082,-237 1209,-237 1209,-207 1082,-207"/>
<text text-anchor="start" x="1090" y="-225" font-family="Helvetica,sans-Serif" font-size="10.00">include/bem/bem_bilinear</text>
<text text-anchor="middle" x="1145.5" y="-214" font-family="Helvetica,sans-Serif" font-size="10.00">_form.h</text>
</a>
</g>
</g>
<!-- Node1&#45;&gt;Node4 -->
<g id="edge3" class="edge">
<title>Node1&#45;&gt;Node4</title>
<path fill="none" stroke="midnightblue" d="M923.18,-499.24C945,-491.53 968.14,-480.76 986.5,-466 1007.82,-448.86 1107.24,-286.18 1137.04,-237.01"/>
<polygon fill="midnightblue" stroke="midnightblue" points="921.97,-495.96 913.61,-502.46 924.2,-502.59 921.97,-495.96"/>
</g>
<!-- Node5 -->
<g id="node5" class="node">
<title>Node5</title>
<g id="a_node5"><a xlink:href="helmholtz__acoustic__bem_8priv_8hcu_source.html" target="_top" xlink:title=" ">
<polygon fill="none" stroke="black" points="415,-134.5 415,-164.5 552,-164.5 552,-134.5 415,-134.5"/>
<text text-anchor="start" x="423" y="-152.5" font-family="Helvetica,sans-Serif" font-size="10.00">include/helmholtz/helmholtz</text>
<text text-anchor="middle" x="483.5" y="-141.5" font-family="Helvetica,sans-Serif" font-size="10.00">_acoustic_bem.priv.hcu</text>
</a>
</g>
</g>
<!-- Node1&#45;&gt;Node5 -->
<g id="edge33" class="edge">
<title>Node1&#45;&gt;Node5</title>
<path fill="none" stroke="midnightblue" d="M770.33,-508.68C634.13,-493.54 378.5,-454.37 378.5,-373.5 378.5,-373.5 378.5,-373.5 378.5,-299 378.5,-254.63 371.88,-237.22 397.5,-201 409.1,-184.6 427.84,-172.7 444.88,-164.58"/>
<polygon fill="midnightblue" stroke="midnightblue" points="770,-512.16 780.32,-509.77 770.76,-505.21 770,-512.16"/>
</g>
<!-- Node6 -->
<g id="node6" class="node">
<title>Node6</title>
<g id="a_node6"><a xlink:href="helmholtz__acoustic__bem_8impl_8hcu.html" target="_top" xlink:title="Call member functions of pimpl from HelmholtzAcousticBEM.">
<polygon fill="none" stroke="black" points="272,-67.5 272,-97.5 409,-97.5 409,-67.5 272,-67.5"/>
<text text-anchor="start" x="280" y="-85.5" font-family="Helvetica,sans-Serif" font-size="10.00">include/helmholtz/helmholtz</text>
<text text-anchor="middle" x="340.5" y="-74.5" font-family="Helvetica,sans-Serif" font-size="10.00">_acoustic_bem.impl.hcu</text>
</a>
</g>
</g>
<!-- Node1&#45;&gt;Node6 -->
<g id="edge32" class="edge">
<title>Node1&#45;&gt;Node6</title>
<path fill="none" stroke="midnightblue" d="M770.13,-514.32C660.46,-510.2 474.71,-498.51 415.5,-466 369.11,-440.53 340.5,-426.43 340.5,-373.5 340.5,-373.5 340.5,-373.5 340.5,-221 340.5,-175.88 340.5,-122.44 340.5,-97.55"/>
<polygon fill="midnightblue" stroke="midnightblue" points="770.05,-517.82 780.17,-514.68 770.3,-510.82 770.05,-517.82"/>
</g>
<!-- Node8 -->
<g id="node8" class="node">
<title>Node8</title>
<g id="a_node8"><a xlink:href="laplace__bem_8priv_8hcu_source.html" target="_top" xlink:title=" ">
<polygon fill="none" stroke="black" points="1170,-134.5 1170,-164.5 1285,-164.5 1285,-134.5 1170,-134.5"/>
<text text-anchor="start" x="1178" y="-152.5" font-family="Helvetica,sans-Serif" font-size="10.00">include/laplace/laplace</text>
<text text-anchor="middle" x="1227.5" y="-141.5" font-family="Helvetica,sans-Serif" font-size="10.00">_bem.priv.hcu</text>
</a>
</g>
</g>
<!-- Node1&#45;&gt;Node8 -->
<g id="edge42" class="edge">
<title>Node1&#45;&gt;Node8</title>
<path fill="none" stroke="midnightblue" d="M936.67,-505.55C1059.62,-486.99 1275.5,-444.32 1275.5,-373.5 1275.5,-373.5 1275.5,-373.5 1275.5,-299 1275.5,-247.52 1249.06,-190.66 1235.43,-164.76"/>
<polygon fill="midnightblue" stroke="midnightblue" points="935.9,-502.12 926.53,-507.05 936.93,-509.04 935.9,-502.12"/>
</g>
<!-- Node9 -->
<g id="node9" class="node">
<title>Node9</title>
<g id="a_node9"><a xlink:href="laplace__bem_8impl_8hcu.html" target="_top" xlink:title="Implementation of pimpl member functions to be called by LaplaceBEM.">
<polygon fill="none" stroke="black" points="1256,-67.5 1256,-97.5 1371,-97.5 1371,-67.5 1256,-67.5"/>
<text text-anchor="start" x="1264" y="-85.5" font-family="Helvetica,sans-Serif" font-size="10.00">include/laplace/laplace</text>
<text text-anchor="middle" x="1313.5" y="-74.5" font-family="Helvetica,sans-Serif" font-size="10.00">_bem.impl.hcu</text>
</a>
</g>
</g>
<!-- Node1&#45;&gt;Node9 -->
<g id="edge41" class="edge">
<title>Node1&#45;&gt;Node9</title>
<path fill="none" stroke="midnightblue" d="M937.22,-516.59C1009.49,-513.85 1115.25,-502.95 1199.5,-466 1259.25,-439.79 1313.5,-438.75 1313.5,-373.5 1313.5,-373.5 1313.5,-373.5 1313.5,-221 1313.5,-175.88 1313.5,-122.44 1313.5,-97.55"/>
<polygon fill="midnightblue" stroke="midnightblue" points="936.69,-513.11 926.81,-516.94 936.92,-520.1 936.69,-513.11"/>
</g>
<!-- Node11 -->
<g id="node11" class="node">
<title>Node11</title>
<g id="a_node11"><a xlink:href="bem__general_8hcu_source.html" target="_top" xlink:title=" ">
<polygon fill="none" stroke="black" points="831.5,-435.5 831.5,-454.5 977.5,-454.5 977.5,-435.5 831.5,-435.5"/>
<text text-anchor="middle" x="904.5" y="-442.5" font-family="Helvetica,sans-Serif" font-size="10.00">include/bem/bem_general.hcu</text>
</a>
</g>
</g>
<!-- Node1&#45;&gt;Node11 -->
<g id="edge10" class="edge">
<title>Node1&#45;&gt;Node11</title>
<path fill="none" stroke="midnightblue" d="M869.77,-494.01C879.38,-480.73 891,-464.66 898.07,-454.89"/>
<polygon fill="midnightblue" stroke="midnightblue" points="866.85,-492.08 863.82,-502.23 872.52,-496.18 866.85,-492.08"/>
</g>
<!-- Node12 -->
<g id="node12" class="node">
<title>Node12</title>
<g id="a_node12"><a xlink:href="operator__preconditioner_8h.html" target="_top" xlink:title="Definition of the abstract class for dual mesh operator preconditioner.">
<polygon fill="none" stroke="black" points="739,-357.5 739,-387.5 868,-387.5 868,-357.5 739,-357.5"/>
<text text-anchor="start" x="747" y="-375.5" font-family="Helvetica,sans-Serif" font-size="10.00">include/preconditioners</text>
<text text-anchor="middle" x="803.5" y="-364.5" font-family="Helvetica,sans-Serif" font-size="10.00">/operator_preconditioner.h</text>
</a>
</g>
</g>
<!-- Node1&#45;&gt;Node12 -->
<g id="edge43" class="edge">
<title>Node1&#45;&gt;Node12</title>
<path fill="none" stroke="midnightblue" d="M837.19,-493.72C831.83,-485.34 826.28,-475.55 822.5,-466 812.01,-439.47 807,-406.27 804.87,-387.73"/>
<polygon fill="midnightblue" stroke="midnightblue" points="834.38,-495.82 842.84,-502.19 840.2,-491.93 834.38,-495.82"/>
</g>
<!-- Node13 -->
<g id="node13" class="node">
<title>Node13</title>
<g id="a_node13"><a xlink:href="preconditioner__for__helmholtz__acoustic__hyper__singular__bio_8h.html" target="_top" xlink:title="Dual mesh operator preconditioner for the hyper singular boundary integral operator in the Helmholtz ...">
<polygon fill="none" stroke="black" points="407,-201.5 407,-242.5 560,-242.5 560,-201.5 407,-201.5"/>
<text text-anchor="start" x="415" y="-230.5" font-family="Helvetica,sans-Serif" font-size="10.00">include/preconditioners</text>
<text text-anchor="start" x="415" y="-219.5" font-family="Helvetica,sans-Serif" font-size="10.00">/preconditioner_for_helmholtz</text>
<text text-anchor="middle" x="483.5" y="-208.5" font-family="Helvetica,sans-Serif" font-size="10.00">_acoustic_hyper_singular_bio.h</text>
</a>
</g>
</g>
<!-- Node1&#45;&gt;Node13 -->
<g id="edge44" class="edge">
<title>Node1&#45;&gt;Node13</title>
<path fill="none" stroke="midnightblue" d="M770.4,-503.94C736.56,-496.38 698.06,-484.48 666.5,-466 588.67,-420.42 574.35,-396.17 524.5,-321 507.99,-296.1 495.95,-263.47 489.34,-242.86"/>
<polygon fill="midnightblue" stroke="midnightblue" points="769.76,-507.39 780.28,-506.06 771.23,-500.54 769.76,-507.39"/>
</g>
<!-- Node14 -->
<g id="node14" class="node">
<title>Node14</title>
<g id="a_node14"><a xlink:href="preconditioner__for__helmholtz__acoustic__single__layer__bio_8h_source.html" target="_top" xlink:title=" ">
<polygon fill="none" stroke="black" points="578.5,-201.5 578.5,-242.5 722.5,-242.5 722.5,-201.5 578.5,-201.5"/>
<text text-anchor="start" x="586.5" y="-230.5" font-family="Helvetica,sans-Serif" font-size="10.00">include/preconditioners</text>
<text text-anchor="start" x="586.5" y="-219.5" font-family="Helvetica,sans-Serif" font-size="10.00">/preconditioner_for_helmholtz</text>
<text text-anchor="middle" x="650.5" y="-208.5" font-family="Helvetica,sans-Serif" font-size="10.00">_acoustic_single_layer_bio.h</text>
</a>
</g>
</g>
<!-- Node1&#45;&gt;Node14 -->
<g id="edge45" class="edge">
<title>Node1&#45;&gt;Node14</title>
<path fill="none" stroke="midnightblue" d="M804.48,-498.75C738.46,-471.85 623.71,-413.83 575.5,-321 566.9,-304.43 567.13,-295.69 575.5,-279 583.15,-263.75 597.14,-251.59 610.98,-242.55"/>
<polygon fill="midnightblue" stroke="midnightblue" points="803.27,-502.03 813.85,-502.49 805.87,-495.53 803.27,-502.03"/>
</g>
<!-- Node16 -->
<g id="node16" class="node">
<title>Node16</title>
<g id="a_node16"><a xlink:href="preconditioner__for__laplace__hyper__singular__bio_8h.html" target="_top" xlink:title="Dual mesh operator preconditioner for the hyper singular boundary integral operator in the Laplace eq...">
<polygon fill="none" stroke="black" points="741,-201.5 741,-242.5 874,-242.5 874,-201.5 741,-201.5"/>
<text text-anchor="start" x="749" y="-230.5" font-family="Helvetica,sans-Serif" font-size="10.00">include/preconditioners</text>
<text text-anchor="start" x="749" y="-219.5" font-family="Helvetica,sans-Serif" font-size="10.00">/preconditioner_for_laplace</text>
<text text-anchor="middle" x="807.5" y="-208.5" font-family="Helvetica,sans-Serif" font-size="10.00">_hyper_singular_bio.h</text>
</a>
</g>
</g>
<!-- Node1&#45;&gt;Node16 -->
<g id="edge46" class="edge">
<title>Node1&#45;&gt;Node16</title>
<path fill="none" stroke="midnightblue" d="M936.24,-502.16C955.88,-494.67 974.57,-483.3 986.5,-466 997.1,-450.64 991.71,-441.93 986.5,-424 965.21,-350.71 948.29,-333.14 894.5,-279 880.32,-264.73 861.9,-252.23 845.65,-242.68"/>
<polygon fill="midnightblue" stroke="midnightblue" points="934.84,-498.94 926.54,-505.52 937.14,-505.55 934.84,-498.94"/>
</g>
<!-- Node17 -->
<g id="node17" class="node">
<title>Node17</title>
<g id="a_node17"><a xlink:href="preconditioner__for__laplace__single__layer__bio_8h.html" target="_top" xlink:title="Dual mesh operator preconditioner for the single layer potential boundary integral operator in the La...">
<polygon fill="none" stroke="black" points="931,-201.5 931,-242.5 1064,-242.5 1064,-201.5 931,-201.5"/>
<text text-anchor="start" x="939" y="-230.5" font-family="Helvetica,sans-Serif" font-size="10.00">include/preconditioners</text>
<text text-anchor="start" x="939" y="-219.5" font-family="Helvetica,sans-Serif" font-size="10.00">/preconditioner_for_laplace</text>
<text text-anchor="middle" x="997.5" y="-208.5" font-family="Helvetica,sans-Serif" font-size="10.00">_single_layer_bio.h</text>
</a>
</g>
</g>
<!-- Node1&#45;&gt;Node17 -->
<g id="edge47" class="edge">
<title>Node1&#45;&gt;Node17</title>
<path fill="none" stroke="midnightblue" d="M936.63,-507.75C962.61,-500.65 988.6,-488.08 1004.5,-466 1053.94,-397.33 1021.65,-287.17 1005.32,-242.63"/>
<polygon fill="midnightblue" stroke="midnightblue" points="935.56,-504.41 926.7,-510.21 937.25,-511.2 935.56,-504.41"/>
</g>
<!-- Node19 -->
<g id="node19" class="node">
<title>Node19</title>
<g id="a_node19"><a xlink:href="ddm__efield_8h.html" target="_top" xlink:title="Introduction of ddm_efield.h.">
<polygon fill="none" stroke="black" points="1380,-430 1380,-460 1485,-460 1485,-430 1380,-430"/>
<text text-anchor="start" x="1388" y="-448" font-family="Helvetica,sans-Serif" font-size="10.00">include/electric_field</text>
<text text-anchor="middle" x="1432.5" y="-437" font-family="Helvetica,sans-Serif" font-size="10.00">/ddm_efield.h</text>
</a>
</g>
</g>
<!-- Node1&#45;&gt;Node19 -->
<g id="edge28" class="edge">
<title>Node1&#45;&gt;Node19</title>
<path fill="none" stroke="midnightblue" d="M936.86,-513.19C1038.79,-508.02 1216.16,-495.37 1365.5,-466 1373.48,-464.43 1381.87,-462.31 1389.91,-460.04"/>
<polygon fill="midnightblue" stroke="midnightblue" points="936.45,-509.71 926.63,-513.7 936.8,-516.7 936.45,-509.71"/>
</g>
<!-- Node20 -->
<g id="node20" class="node">
<title>Node20</title>
<g id="a_node20"><a xlink:href="helmholtz__acoustic__bem_8h.html" target="_top" xlink:title="Definition of the class for solving the Helmholtz acoustic equation using BEM.">
<polygon fill="none" stroke="black" points="175,-207 175,-237 312,-237 312,-207 175,-207"/>
<text text-anchor="start" x="183" y="-225" font-family="Helvetica,sans-Serif" font-size="10.00">include/helmholtz/helmholtz</text>
<text text-anchor="middle" x="243.5" y="-214" font-family="Helvetica,sans-Serif" font-size="10.00">_acoustic_bem.h</text>
</a>
</g>
</g>
<!-- Node1&#45;&gt;Node20 -->
<g id="edge29" class="edge">
<title>Node1&#45;&gt;Node20</title>
<path fill="none" stroke="midnightblue" d="M770.07,-513.42C630.24,-507.54 360.49,-492.85 326.5,-466 252.51,-407.55 244.13,-279.82 243.45,-237.18"/>
<polygon fill="midnightblue" stroke="midnightblue" points="770.18,-516.93 780.31,-513.85 770.47,-509.94 770.18,-516.93"/>
</g>
<!-- Node21 -->
<g id="node21" class="node">
<title>Node21</title>
<g id="a_node21"><a xlink:href="laplace__bem_8h.html" target="_top" xlink:title="Definition of the class for solving the Laplace equation using BEM.">
<polygon fill="none" stroke="black" points="1387,-207 1387,-237 1502,-237 1502,-207 1387,-207"/>
<text text-anchor="start" x="1395" y="-225" font-family="Helvetica,sans-Serif" font-size="10.00">include/laplace/laplace</text>
<text text-anchor="middle" x="1444.5" y="-214" font-family="Helvetica,sans-Serif" font-size="10.00">_bem.h</text>
</a>
</g>
</g>
<!-- Node1&#45;&gt;Node21 -->
<g id="edge34" class="edge">
<title>Node1&#45;&gt;Node21</title>
<path fill="none" stroke="midnightblue" d="M936.96,-517.14C1055.88,-516.49 1266.46,-509.04 1327.5,-466 1408.44,-408.94 1435.5,-280.3 1442.46,-237.3"/>
<polygon fill="midnightblue" stroke="midnightblue" points="936.79,-513.64 926.8,-517.18 936.81,-520.64 936.79,-513.64"/>
</g>
<!-- Node4&#45;&gt;Node5 -->
<g id="edge4" class="edge">
<title>Node4&#45;&gt;Node5</title>
<path fill="none" stroke="midnightblue" d="M1089.09,-204.46C1083.52,-203.15 1077.92,-201.97 1072.5,-201 886.08,-167.76 662.44,-156.2 552.05,-152.34"/>
<polygon fill="midnightblue" stroke="midnightblue" points="1088.51,-207.92 1099.06,-206.92 1090.19,-201.12 1088.51,-207.92"/>
</g>
<!-- Node4&#45;&gt;Node8 -->
<g id="edge7" class="edge">
<title>Node4&#45;&gt;Node8</title>
<path fill="none" stroke="midnightblue" d="M1169.97,-199.96C1183.3,-188.5 1199.43,-174.64 1211.21,-164.5"/>
<polygon fill="midnightblue" stroke="midnightblue" points="1167.39,-197.56 1162.09,-206.73 1171.96,-202.87 1167.39,-197.56"/>
</g>
<!-- Node5&#45;&gt;Node6 -->
<g id="edge5" class="edge">
<title>Node5&#45;&gt;Node6</title>
<path fill="none" stroke="midnightblue" d="M443.09,-130.13C420.37,-119.8 392.44,-107.11 371.47,-97.58"/>
<polygon fill="midnightblue" stroke="midnightblue" points="441.92,-133.44 452.47,-134.4 444.82,-127.07 441.92,-133.44"/>
</g>
<!-- Node7 -->
<g id="node7" class="node">
<title>Node7</title>
<g id="a_node7"><a xlink:href="helmholtz__acoustic__bem_8cu_source.html" target="_top" xlink:title=" ">
<polygon fill="none" stroke="black" points="280.5,-0.5 280.5,-30.5 400.5,-30.5 400.5,-0.5 280.5,-0.5"/>
<text text-anchor="start" x="288.5" y="-18.5" font-family="Helvetica,sans-Serif" font-size="10.00">src/helmholtz/helmholtz</text>
<text text-anchor="middle" x="340.5" y="-7.5" font-family="Helvetica,sans-Serif" font-size="10.00">_acoustic_bem.cu</text>
</a>
</g>
</g>
<!-- Node6&#45;&gt;Node7 -->
<g id="edge6" class="edge">
<title>Node6&#45;&gt;Node7</title>
<path fill="none" stroke="midnightblue" d="M340.5,-57.11C340.5,-48.15 340.5,-38.32 340.5,-30.58"/>
<polygon fill="midnightblue" stroke="midnightblue" points="337,-57.4 340.5,-67.4 344,-57.4 337,-57.4"/>
</g>
<!-- Node8&#45;&gt;Node9 -->
<g id="edge8" class="edge">
<title>Node8&#45;&gt;Node9</title>
<path fill="none" stroke="midnightblue" d="M1254.4,-128.17C1267.55,-118.23 1283.05,-106.51 1294.88,-97.58"/>
<polygon fill="midnightblue" stroke="midnightblue" points="1252.03,-125.57 1246.16,-134.4 1256.25,-131.16 1252.03,-125.57"/>
</g>
<!-- Node10 -->
<g id="node10" class="node">
<title>Node10</title>
<g id="a_node10"><a xlink:href="laplace__bem_8cu_source.html" target="_top" xlink:title=" ">
<polygon fill="none" stroke="black" points="1264.5,-0.5 1264.5,-30.5 1362.5,-30.5 1362.5,-0.5 1264.5,-0.5"/>
<text text-anchor="start" x="1272.5" y="-18.5" font-family="Helvetica,sans-Serif" font-size="10.00">src/laplace/laplace</text>
<text text-anchor="middle" x="1313.5" y="-7.5" font-family="Helvetica,sans-Serif" font-size="10.00">_bem.cu</text>
</a>
</g>
</g>
<!-- Node9&#45;&gt;Node10 -->
<g id="edge9" class="edge">
<title>Node9&#45;&gt;Node10</title>
<path fill="none" stroke="midnightblue" d="M1313.5,-57.11C1313.5,-48.15 1313.5,-38.32 1313.5,-30.58"/>
<polygon fill="midnightblue" stroke="midnightblue" points="1310,-57.4 1313.5,-67.4 1317,-57.4 1310,-57.4"/>
</g>
<!-- Node11&#45;&gt;Node5 -->
<g id="edge11" class="edge">
<title>Node11&#45;&gt;Node5</title>
<path fill="none" stroke="midnightblue" d="M909.78,-425.57C921.59,-379.99 944.47,-261.33 882.5,-201 836.91,-156.61 654.01,-149.83 552.41,-149.61"/>
<polygon fill="midnightblue" stroke="midnightblue" points="906.39,-424.71 907.14,-435.28 913.14,-426.55 906.39,-424.71"/>
</g>
<!-- Node11&#45;&gt;Node8 -->
<g id="edge12" class="edge">
<title>Node11&#45;&gt;Node8</title>
<path fill="none" stroke="midnightblue" d="M942.36,-432.14C1010.79,-408.5 1153.93,-348.5 1218.5,-243 1233.41,-218.64 1232,-183.75 1229.72,-164.53"/>
<polygon fill="midnightblue" stroke="midnightblue" points="941.18,-428.84 932.82,-435.36 943.42,-435.47 941.18,-428.84"/>
</g>
<!-- Node11&#45;&gt;Node12 -->
<g id="edge13" class="edge">
<title>Node11&#45;&gt;Node12</title>
<path fill="none" stroke="midnightblue" d="M883.68,-429.47C866.09,-417.19 841.06,-399.72 823.67,-387.58"/>
<polygon fill="midnightblue" stroke="midnightblue" points="881.91,-432.5 892.12,-435.36 885.92,-426.76 881.91,-432.5"/>
</g>
<!-- Node12&#45;&gt;Node13 -->
<g id="edge14" class="edge">
<title>Node12&#45;&gt;Node13</title>
<path fill="none" stroke="midnightblue" d="M728.87,-366.23C682.27,-360.31 622.44,-347.72 575.5,-321 541.23,-301.49 512.11,-265.03 496.28,-242.5"/>
<polygon fill="midnightblue" stroke="midnightblue" points="728.55,-369.72 738.9,-367.43 729.39,-362.77 728.55,-369.72"/>
</g>
<!-- Node12&#45;&gt;Node14 -->
<g id="edge16" class="edge">
<title>Node12&#45;&gt;Node14</title>
<path fill="none" stroke="midnightblue" d="M728.7,-363.95C673.19,-356.63 604.19,-343.28 586.5,-321 574.89,-306.38 578.79,-296 586.5,-279 593.15,-264.35 605.74,-252.02 618.01,-242.69"/>
<polygon fill="midnightblue" stroke="midnightblue" points="728.53,-367.46 738.9,-365.25 729.42,-360.52 728.53,-367.46"/>
</g>
<!-- Node15 -->
<g id="node15" class="node">
<title>Node15</title>
<g id="a_node15"><a xlink:href="preconditioner__for__hyper__singular__bio_8h.html" target="_top" xlink:title="Dual mesh operator preconditioner for the hyper singular boundary integral operator.">
<polygon fill="none" stroke="black" points="595.5,-279.5 595.5,-320.5 721.5,-320.5 721.5,-279.5 595.5,-279.5"/>
<text text-anchor="start" x="603.5" y="-308.5" font-family="Helvetica,sans-Serif" font-size="10.00">include/preconditioners</text>
<text text-anchor="start" x="603.5" y="-297.5" font-family="Helvetica,sans-Serif" font-size="10.00">/preconditioner_for_hyper</text>
<text text-anchor="middle" x="658.5" y="-286.5" font-family="Helvetica,sans-Serif" font-size="10.00">_singular_bio.h</text>
</a>
</g>
</g>
<!-- Node12&#45;&gt;Node15 -->
<g id="edge18" class="edge">
<title>Node12&#45;&gt;Node15</title>
<path fill="none" stroke="midnightblue" d="M765.44,-353C744.9,-343.01 719.56,-330.69 698.7,-320.55"/>
<polygon fill="midnightblue" stroke="midnightblue" points="763.98,-356.18 774.51,-357.4 767.04,-349.88 763.98,-356.18"/>
</g>
<!-- Node12&#45;&gt;Node16 -->
<g id="edge22" class="edge">
<title>Node12&#45;&gt;Node16</title>
<path fill="none" stroke="midnightblue" d="M845.76,-352.08C857.91,-344.25 869.71,-333.96 876.5,-321 885.17,-304.47 884.53,-295.85 876.5,-279 869.4,-264.1 856.18,-251.87 843.2,-242.68"/>
<polygon fill="midnightblue" stroke="midnightblue" points="843.71,-349.22 836.91,-357.34 847.29,-355.23 843.71,-349.22"/>
</g>
<!-- Node12&#45;&gt;Node17 -->
<g id="edge23" class="edge">
<title>Node12&#45;&gt;Node17</title>
<path fill="none" stroke="midnightblue" d="M842.29,-352.77C858.95,-344.02 878.28,-332.91 894.5,-321 927.12,-297.03 960.22,-263.56 979.79,-242.59"/>
<polygon fill="midnightblue" stroke="midnightblue" points="840.63,-349.68 833.34,-357.37 843.83,-355.91 840.63,-349.68"/>
</g>
<!-- Node18 -->
<g id="node18" class="node">
<title>Node18</title>
<g id="a_node18"><a xlink:href="preconditioner__for__single__layer__bio_8h.html" target="_top" xlink:title="Dual mesh operator preconditioner for the single layer potential boundary integral operator.">
<polygon fill="none" stroke="black" points="739.5,-279.5 739.5,-320.5 867.5,-320.5 867.5,-279.5 739.5,-279.5"/>
<text text-anchor="start" x="747.5" y="-308.5" font-family="Helvetica,sans-Serif" font-size="10.00">include/preconditioners</text>
<text text-anchor="start" x="747.5" y="-297.5" font-family="Helvetica,sans-Serif" font-size="10.00">/preconditioner_for_single</text>
<text text-anchor="middle" x="803.5" y="-286.5" font-family="Helvetica,sans-Serif" font-size="10.00">_layer_bio.h</text>
</a>
</g>
</g>
<!-- Node12&#45;&gt;Node18 -->
<g id="edge25" class="edge">
<title>Node12&#45;&gt;Node18</title>
<path fill="none" stroke="midnightblue" d="M803.5,-346.98C803.5,-338.35 803.5,-328.76 803.5,-320.59"/>
<polygon fill="midnightblue" stroke="midnightblue" points="800,-347.23 803.5,-357.23 807,-347.23 800,-347.23"/>
</g>
<!-- Node13&#45;&gt;Node5 -->
<g id="edge15" class="edge">
<title>Node13&#45;&gt;Node5</title>
<path fill="none" stroke="midnightblue" d="M483.5,-191.08C483.5,-182.01 483.5,-172.45 483.5,-164.89"/>
<polygon fill="midnightblue" stroke="midnightblue" points="480,-191.36 483.5,-201.36 487,-191.36 480,-191.36"/>
</g>
<!-- Node14&#45;&gt;Node5 -->
<g id="edge17" class="edge">
<title>Node14&#45;&gt;Node5</title>
<path fill="none" stroke="midnightblue" d="M594.67,-197.43C568.85,-186.53 539.05,-173.95 516.8,-164.56"/>
<polygon fill="midnightblue" stroke="midnightblue" points="593.41,-200.7 603.98,-201.36 596.13,-194.25 593.41,-200.7"/>
</g>
<!-- Node15&#45;&gt;Node13 -->
<g id="edge19" class="edge">
<title>Node15&#45;&gt;Node13</title>
<path fill="none" stroke="midnightblue" d="M603.99,-275.33C579.71,-264.78 551.46,-252.51 528.41,-242.51"/>
<polygon fill="midnightblue" stroke="midnightblue" points="602.87,-278.65 613.43,-279.43 605.65,-272.23 602.87,-278.65"/>
</g>
<!-- Node15&#45;&gt;Node16 -->
<g id="edge20" class="edge">
<title>Node15&#45;&gt;Node16</title>
<path fill="none" stroke="midnightblue" d="M706.01,-274.77C726.43,-264.35 749.99,-252.34 769.26,-242.51"/>
<polygon fill="midnightblue" stroke="midnightblue" points="704.19,-271.77 696.87,-279.43 707.37,-278 704.19,-271.77"/>
</g>
<!-- Node16&#45;&gt;Node8 -->
<g id="edge21" class="edge">
<title>Node16&#45;&gt;Node8</title>
<path fill="none" stroke="midnightblue" d="M884.04,-207.46C896.55,-205.28 909.39,-203.06 921.5,-201 1008.02,-186.27 1108.42,-169.83 1169.95,-159.82"/>
<polygon fill="midnightblue" stroke="midnightblue" points="883.34,-204.03 874.09,-209.2 884.54,-210.93 883.34,-204.03"/>
</g>
<!-- Node17&#45;&gt;Node8 -->
<g id="edge24" class="edge">
<title>Node17&#45;&gt;Node8</title>
<path fill="none" stroke="midnightblue" d="M1070.83,-198.52C1107.14,-187.39 1149.86,-174.3 1181.51,-164.6"/>
<polygon fill="midnightblue" stroke="midnightblue" points="1069.8,-195.18 1061.26,-201.46 1071.85,-201.87 1069.8,-195.18"/>
</g>
<!-- Node18&#45;&gt;Node14 -->
<g id="edge26" class="edge">
<title>Node18&#45;&gt;Node14</title>
<path fill="none" stroke="midnightblue" d="M755,-274.91C733.96,-264.46 709.65,-252.38 689.77,-242.51"/>
<polygon fill="midnightblue" stroke="midnightblue" points="753.59,-278.11 764.1,-279.43 756.7,-271.84 753.59,-278.11"/>
</g>
<!-- Node18&#45;&gt;Node17 -->
<g id="edge27" class="edge">
<title>Node18&#45;&gt;Node17</title>
<path fill="none" stroke="midnightblue" d="M862.85,-275.75C890.01,-265.11 921.83,-252.65 947.71,-242.51"/>
<polygon fill="midnightblue" stroke="midnightblue" points="861.49,-272.52 853.46,-279.43 864.05,-279.04 861.49,-272.52"/>
</g>
<!-- Node20&#45;&gt;Node5 -->
<g id="edge31" class="edge">
<title>Node20&#45;&gt;Node5</title>
<path fill="none" stroke="midnightblue" d="M300.81,-204.16C341.91,-192.09 396.66,-176.01 435.48,-164.61"/>
<polygon fill="midnightblue" stroke="midnightblue" points="299.81,-200.81 291.2,-206.99 301.78,-207.53 299.81,-200.81"/>
</g>
<!-- Node20&#45;&gt;Node6 -->
<g id="edge30" class="edge">
<title>Node20&#45;&gt;Node6</title>
<path fill="none" stroke="midnightblue" d="M259.52,-198.29C279.64,-169.76 313.56,-121.69 330.39,-97.83"/>
<polygon fill="midnightblue" stroke="midnightblue" points="256.42,-196.61 253.52,-206.8 262.14,-200.65 256.42,-196.61"/>
</g>
<!-- Node21&#45;&gt;Node8 -->
<g id="edge39" class="edge">
<title>Node21&#45;&gt;Node8</title>
<path fill="none" stroke="midnightblue" d="M1391.74,-203.86C1354.68,-191.82 1305.72,-175.91 1270.92,-164.61"/>
<polygon fill="midnightblue" stroke="midnightblue" points="1390.78,-207.23 1401.37,-206.99 1392.94,-200.57 1390.78,-207.23"/>
</g>
<!-- Node21&#45;&gt;Node9 -->
<g id="edge38" class="edge">
<title>Node21&#45;&gt;Node9</title>
<path fill="none" stroke="midnightblue" d="M1414.4,-201.02C1400.54,-191.07 1384.36,-178.33 1371.5,-165 1351,-143.75 1332.15,-114.78 1321.8,-97.72"/>
<polygon fill="midnightblue" stroke="midnightblue" points="1412.49,-203.95 1422.68,-206.84 1416.51,-198.23 1412.49,-203.95"/>
</g>
<!-- Node22 -->
<g id="node22" class="node">
<title>Node22</title>
<g id="a_node22"><a xlink:href="solve-laplace-dirichlet_8cu_source.html" target="_top" xlink:title=" ">
<polygon fill="none" stroke="black" points="1380,-134.5 1380,-164.5 1509,-164.5 1509,-134.5 1380,-134.5"/>
<text text-anchor="start" x="1388" y="-152.5" font-family="Helvetica,sans-Serif" font-size="10.00">examples/laplace&#45;dirichlet</text>
<text text-anchor="middle" x="1444.5" y="-141.5" font-family="Helvetica,sans-Serif" font-size="10.00">/solve&#45;laplace&#45;dirichlet.cu</text>
</a>
</g>
</g>
<!-- Node21&#45;&gt;Node22 -->
<g id="edge35" class="edge">
<title>Node21&#45;&gt;Node22</title>
<path fill="none" stroke="midnightblue" d="M1444.5,-196.73C1444.5,-186.07 1444.5,-173.91 1444.5,-164.75"/>
<polygon fill="midnightblue" stroke="midnightblue" points="1441,-196.73 1444.5,-206.73 1448,-196.73 1441,-196.73"/>
</g>
<!-- Node23 -->
<g id="node23" class="node">
<title>Node23</title>
<g id="a_node23"><a xlink:href="solve-laplace-mixed_8cu_source.html" target="_top" xlink:title=" ">
<polygon fill="none" stroke="black" points="1527.5,-134.5 1527.5,-164.5 1649.5,-164.5 1649.5,-134.5 1527.5,-134.5"/>
<text text-anchor="start" x="1535.5" y="-152.5" font-family="Helvetica,sans-Serif" font-size="10.00">examples/laplace&#45;mixed</text>
<text text-anchor="middle" x="1588.5" y="-141.5" font-family="Helvetica,sans-Serif" font-size="10.00">/solve&#45;laplace&#45;mixed.cu</text>
</a>
</g>
</g>
<!-- Node21&#45;&gt;Node23 -->
<g id="edge36" class="edge">
<title>Node21&#45;&gt;Node23</title>
<path fill="none" stroke="midnightblue" d="M1482.55,-202.37C1506.75,-190.52 1537.6,-175.42 1559.76,-164.57"/>
<polygon fill="midnightblue" stroke="midnightblue" points="1480.74,-199.36 1473.29,-206.9 1483.81,-205.65 1480.74,-199.36"/>
</g>
<!-- Node24 -->
<g id="node24" class="node">
<title>Node24</title>
<g id="a_node24"><a xlink:href="solve-laplace-neumann_8cu_source.html" target="_top" xlink:title=" ">
<polygon fill="none" stroke="black" points="1668,-134.5 1668,-164.5 1803,-164.5 1803,-134.5 1668,-134.5"/>
<text text-anchor="start" x="1676" y="-152.5" font-family="Helvetica,sans-Serif" font-size="10.00">examples/laplace&#45;neumann</text>
<text text-anchor="middle" x="1735.5" y="-141.5" font-family="Helvetica,sans-Serif" font-size="10.00">/solve&#45;laplace&#45;neumann.cu</text>
</a>
</g>
</g>
<!-- Node21&#45;&gt;Node24 -->
<g id="edge37" class="edge">
<title>Node21&#45;&gt;Node24</title>
<path fill="none" stroke="midnightblue" d="M1512.1,-204.62C1562.14,-192.5 1629.61,-176.15 1677.27,-164.61"/>
<polygon fill="midnightblue" stroke="midnightblue" points="1511.23,-201.23 1502.34,-206.99 1512.88,-208.03 1511.23,-201.23"/>
</g>
<!-- Node25 -->
<g id="node25" class="node">
<title>Node25</title>
<g id="a_node25"><a xlink:href="hbem__laplace_8cc_source.html" target="_top" xlink:title=" ">
<polygon fill="none" stroke="black" points="1821.5,-134.5 1821.5,-164.5 1941.5,-164.5 1941.5,-134.5 1821.5,-134.5"/>
<text text-anchor="start" x="1829.5" y="-152.5" font-family="Helvetica,sans-Serif" font-size="10.00">src/hbem_laplace/hbem</text>
<text text-anchor="middle" x="1881.5" y="-141.5" font-family="Helvetica,sans-Serif" font-size="10.00">_laplace.cc</text>
</a>
</g>
</g>
<!-- Node21&#45;&gt;Node25 -->
<g id="edge40" class="edge">
<title>Node21&#45;&gt;Node25</title>
<path fill="none" stroke="midnightblue" d="M1512.15,-211.87C1586.11,-201.61 1708.04,-183.91 1812.5,-165 1815.39,-164.48 1818.35,-163.92 1821.33,-163.35"/>
<polygon fill="midnightblue" stroke="midnightblue" points="1511.46,-208.43 1502.03,-213.26 1512.42,-215.36 1511.46,-208.43"/>
</g>
</g>
</svg>
