<?xml version="1.0" encoding="UTF-8" standalone="no"?>
<!DOCTYPE svg PUBLIC "-//W3C//DTD SVG 1.1//EN"
 "http://www.w3.org/Graphics/SVG/1.1/DTD/svg11.dtd">
<!-- Generated by graphviz version 2.43.0 (0)
 -->
<!-- Title: include/electric_field/subdomain_steklov_poincare_hmatrix.h Pages: 1 -->
<svg width="440pt" height="262pt"
 viewBox="0.00 0.00 439.63 262.00" xmlns="http://www.w3.org/2000/svg" xmlns:xlink="http://www.w3.org/1999/xlink">
<g id="graph0" class="graph" transform="scale(1 1) rotate(0) translate(4 258)">
<title>include/electric_field/subdomain_steklov_poincare_hmatrix.h</title>
<!-- Node1 -->
<g id="node1" class="node">
<title>Node1</title>
<g id="a_node1"><a xlink:title="Introduction of subdomain_steklov_poincare_hmatrix.h.">
<polygon fill="#bfbfbf" stroke="black" points="12.63,-212.5 12.63,-253.5 158.63,-253.5 158.63,-212.5 12.63,-212.5"/>
<text text-anchor="start" x="20.63" y="-241.5" font-family="Helvetica,sans-Serif" font-size="10.00">include/electric_field</text>
<text text-anchor="start" x="20.63" y="-230.5" font-family="Helvetica,sans-Serif" font-size="10.00">/subdomain_steklov_poincare</text>
<text text-anchor="middle" x="85.63" y="-219.5" font-family="Helvetica,sans-Serif" font-size="10.00">_hmatrix.h</text>
</a>
</g>
</g>
<!-- Node2 -->
<g id="node2" class="node">
<title>Node2</title>
<g id="a_node2"><a xlink:href="ddm__efield_8h.html" target="_top" xlink:title="Introduction of ddm_efield.h.">
<polygon fill="none" stroke="black" points="33.13,-0.5 33.13,-30.5 138.13,-30.5 138.13,-0.5 33.13,-0.5"/>
<text text-anchor="start" x="41.13" y="-18.5" font-family="Helvetica,sans-Serif" font-size="10.00">include/electric_field</text>
<text text-anchor="middle" x="85.63" y="-7.5" font-family="Helvetica,sans-Serif" font-size="10.00">/ddm_efield.h</text>
</a>
</g>
</g>
<!-- Node1&#45;&gt;Node2 -->
<g id="edge1" class="edge">
<title>Node1&#45;&gt;Node2</title>
<path fill="none" stroke="midnightblue" d="M33.29,-206.79C21.81,-198.64 11.14,-188.43 4.63,-176 -4.04,-159.47 2.05,-152.49 4.63,-134 8.89,-103.34 6.62,-92.86 23.63,-67 33.39,-52.15 48.89,-39.53 61.95,-30.62"/>
<polygon fill="midnightblue" stroke="midnightblue" points="31.47,-209.78 41.75,-212.35 35.32,-203.93 31.47,-209.78"/>
</g>
<!-- Node3 -->
<g id="node3" class="node">
<title>Node3</title>
<g id="a_node3"><a xlink:href="ddm__efield__matrix_8h.html" target="_top" xlink:title="Introduction of ddm_efield_matrix.h.">
<polygon fill="none" stroke="black" points="32.13,-67.5 32.13,-97.5 139.13,-97.5 139.13,-67.5 32.13,-67.5"/>
<text text-anchor="start" x="40.13" y="-85.5" font-family="Helvetica,sans-Serif" font-size="10.00">include/electric_field</text>
<text text-anchor="middle" x="85.63" y="-74.5" font-family="Helvetica,sans-Serif" font-size="10.00">/ddm_efield_matrix.h</text>
</a>
</g>
</g>
<!-- Node1&#45;&gt;Node3 -->
<g id="edge2" class="edge">
<title>Node1&#45;&gt;Node3</title>
<path fill="none" stroke="midnightblue" d="M40.2,-206.09C29.92,-197.89 20.35,-187.82 14.63,-176 6.48,-159.2 6.07,-150.59 14.63,-134 22.88,-118 38.8,-105.97 53.48,-97.66"/>
<polygon fill="midnightblue" stroke="midnightblue" points="38.42,-209.13 48.54,-212.27 42.59,-203.51 38.42,-209.13"/>
</g>
<!-- Node4 -->
<g id="node4" class="node">
<title>Node4</title>
<g id="a_node4"><a xlink:href="subdomain__hmatrix__for__charge__neutrality__eqn_8h.html" target="_top" xlink:title="Introduction of subdomain_hmatrix_for_charge_neutrality_eqn.h.">
<polygon fill="none" stroke="black" points="23.13,-134.5 23.13,-175.5 148.13,-175.5 148.13,-134.5 23.13,-134.5"/>
<text text-anchor="start" x="31.13" y="-163.5" font-family="Helvetica,sans-Serif" font-size="10.00">include/electric_field</text>
<text text-anchor="start" x="31.13" y="-152.5" font-family="Helvetica,sans-Serif" font-size="10.00">/subdomain_hmatrix_for</text>
<text text-anchor="middle" x="85.63" y="-141.5" font-family="Helvetica,sans-Serif" font-size="10.00">_charge_neutrality_eqn.h</text>
</a>
</g>
</g>
<!-- Node1&#45;&gt;Node4 -->
<g id="edge4" class="edge">
<title>Node1&#45;&gt;Node4</title>
<path fill="none" stroke="midnightblue" d="M85.63,-202.3C85.63,-193.3 85.63,-183.65 85.63,-175.51"/>
<polygon fill="midnightblue" stroke="midnightblue" points="82.13,-202.43 85.63,-212.43 89.13,-202.43 82.13,-202.43"/>
</g>
<!-- Node5 -->
<g id="node5" class="node">
<title>Node5</title>
<g id="a_node5"><a xlink:href="subdomain__hmatrix__for__global__preconditioning_8h.html" target="_top" xlink:title="Introduction of subdomain_hmatrix_for_global_preconditioning.h.">
<polygon fill="none" stroke="black" points="305.63,-134.5 305.63,-175.5 431.63,-175.5 431.63,-134.5 305.63,-134.5"/>
<text text-anchor="start" x="313.63" y="-163.5" font-family="Helvetica,sans-Serif" font-size="10.00">include/electric_field</text>
<text text-anchor="start" x="313.63" y="-152.5" font-family="Helvetica,sans-Serif" font-size="10.00">/subdomain_hmatrix_for</text>
<text text-anchor="middle" x="368.63" y="-141.5" font-family="Helvetica,sans-Serif" font-size="10.00">_global_preconditioning.h</text>
</a>
</g>
</g>
<!-- Node1&#45;&gt;Node5 -->
<g id="edge6" class="edge">
<title>Node1&#45;&gt;Node5</title>
<path fill="none" stroke="midnightblue" d="M168.63,-210.21C207.52,-199.93 254.48,-187.45 296.63,-176 299.51,-175.22 302.45,-174.42 305.42,-173.6"/>
<polygon fill="midnightblue" stroke="midnightblue" points="167.69,-206.83 158.92,-212.77 169.48,-213.6 167.69,-206.83"/>
</g>
<!-- Node7 -->
<g id="node7" class="node">
<title>Node7</title>
<g id="a_node7"><a xlink:href="subdomain__hmatrix__for__transmission__eqn_8h.html" target="_top" xlink:title="Introduction of subdomain_hmatrix_for_transmission_eqn.h.">
<polygon fill="none" stroke="black" points="166.13,-134.5 166.13,-175.5 287.13,-175.5 287.13,-134.5 166.13,-134.5"/>
<text text-anchor="start" x="174.13" y="-163.5" font-family="Helvetica,sans-Serif" font-size="10.00">include/electric_field</text>
<text text-anchor="start" x="174.13" y="-152.5" font-family="Helvetica,sans-Serif" font-size="10.00">/subdomain_hmatrix_for</text>
<text text-anchor="middle" x="226.63" y="-141.5" font-family="Helvetica,sans-Serif" font-size="10.00">_transmission_eqn.h</text>
</a>
</g>
</g>
<!-- Node1&#45;&gt;Node7 -->
<g id="edge9" class="edge">
<title>Node1&#45;&gt;Node7</title>
<path fill="none" stroke="midnightblue" d="M130.84,-207.63C150.11,-197.24 172.28,-185.29 190.44,-175.51"/>
<polygon fill="midnightblue" stroke="midnightblue" points="129.08,-204.6 121.94,-212.43 132.4,-210.76 129.08,-204.6"/>
</g>
<!-- Node3&#45;&gt;Node2 -->
<g id="edge3" class="edge">
<title>Node3&#45;&gt;Node2</title>
<path fill="none" stroke="midnightblue" d="M85.63,-57.11C85.63,-48.15 85.63,-38.32 85.63,-30.58"/>
<polygon fill="midnightblue" stroke="midnightblue" points="82.13,-57.4 85.63,-67.4 89.13,-57.4 82.13,-57.4"/>
</g>
<!-- Node4&#45;&gt;Node3 -->
<g id="edge5" class="edge">
<title>Node4&#45;&gt;Node3</title>
<path fill="none" stroke="midnightblue" d="M85.63,-124.08C85.63,-115.01 85.63,-105.45 85.63,-97.89"/>
<polygon fill="midnightblue" stroke="midnightblue" points="82.13,-124.36 85.63,-134.36 89.13,-124.36 82.13,-124.36"/>
</g>
<!-- Node6 -->
<g id="node6" class="node">
<title>Node6</title>
<g id="a_node6"><a xlink:href="ddm__efield__global__preconditioner_8h.html" target="_top" xlink:title="Introduction of ddm_efield_global_preconditioner.h.">
<polygon fill="none" stroke="black" points="219.63,-67.5 219.63,-97.5 391.63,-97.5 391.63,-67.5 219.63,-67.5"/>
<text text-anchor="start" x="227.63" y="-85.5" font-family="Helvetica,sans-Serif" font-size="10.00">include/electric_field</text>
<text text-anchor="middle" x="305.63" y="-74.5" font-family="Helvetica,sans-Serif" font-size="10.00">/ddm_efield_global_preconditioner.h</text>
</a>
</g>
</g>
<!-- Node5&#45;&gt;Node6 -->
<g id="edge7" class="edge">
<title>Node5&#45;&gt;Node6</title>
<path fill="none" stroke="midnightblue" d="M344.25,-126.73C335.47,-116.89 325.9,-106.19 318.49,-97.89"/>
<polygon fill="midnightblue" stroke="midnightblue" points="341.8,-129.24 351.08,-134.36 347.02,-124.57 341.8,-129.24"/>
</g>
<!-- Node6&#45;&gt;Node2 -->
<g id="edge8" class="edge">
<title>Node6&#45;&gt;Node2</title>
<path fill="none" stroke="midnightblue" d="M248.36,-64.58C212.62,-54.02 167.17,-40.59 133.39,-30.61"/>
<polygon fill="midnightblue" stroke="midnightblue" points="247.58,-68 258.16,-67.48 249.56,-61.29 247.58,-68"/>
</g>
<!-- Node7&#45;&gt;Node3 -->
<g id="edge10" class="edge">
<title>Node7&#45;&gt;Node3</title>
<path fill="none" stroke="midnightblue" d="M178.37,-129.87C156.92,-119.15 132.4,-106.89 113.97,-97.67"/>
<polygon fill="midnightblue" stroke="midnightblue" points="176.84,-133.02 187.35,-134.36 179.97,-126.76 176.84,-133.02"/>
</g>
</g>
</svg>
