<?xml version="1.0" encoding="UTF-8" standalone="no"?>
<!DOCTYPE svg PUBLIC "-//W3C//DTD SVG 1.1//EN"
 "http://www.w3.org/Graphics/SVG/1.1/DTD/svg11.dtd">
<!-- Generated by graphviz version 2.43.0 (0)
 -->
<!-- Title: include/cad_mesh/subdomain_topology.h Pages: 1 -->
<svg width="555pt" height="218pt"
 viewBox="0.00 0.00 555.00 218.00" xmlns="http://www.w3.org/2000/svg" xmlns:xlink="http://www.w3.org/1999/xlink">
<g id="graph0" class="graph" transform="scale(1 1) rotate(0) translate(4 214)">
<title>include/cad_mesh/subdomain_topology.h</title>
<!-- Node1 -->
<g id="node1" class="node">
<title>Node1</title>
<g id="a_node1"><a xlink:title="Introduction of subdomain_topology.h.">
<polygon fill="#bfbfbf" stroke="black" points="238,-179.5 238,-209.5 384,-209.5 384,-179.5 238,-179.5"/>
<text text-anchor="start" x="246" y="-197.5" font-family="Helvetica,sans-Serif" font-size="10.00">include/cad_mesh/subdomain</text>
<text text-anchor="middle" x="311" y="-186.5" font-family="Helvetica,sans-Serif" font-size="10.00">_topology.h</text>
</a>
</g>
</g>
<!-- Node2 -->
<g id="node2" class="node">
<title>Node2</title>
<g id="a_node2"><a xlink:title=" ">
<polygon fill="none" stroke="#bfbfbf" points="0,-0.5 0,-19.5 126,-19.5 126,-0.5 0,-0.5"/>
<text text-anchor="middle" x="63" y="-7.5" font-family="Helvetica,sans-Serif" font-size="10.00">deal.II/base/exceptions.h</text>
</a>
</g>
</g>
<!-- Node1&#45;&gt;Node2 -->
<g id="edge1" class="edge">
<title>Node1&#45;&gt;Node2</title>
<path fill="none" stroke="midnightblue" d="M237.83,-186.07C201.66,-179.42 159.02,-166.84 127,-143 89.49,-115.07 72.86,-59.29 66.46,-29.99"/>
<polygon fill="midnightblue" stroke="midnightblue" points="69.82,-28.96 64.42,-19.84 62.96,-30.34 69.82,-28.96"/>
</g>
<!-- Node3 -->
<g id="node3" class="node">
<title>Node3</title>
<g id="a_node3"><a xlink:title=" ">
<polygon fill="none" stroke="#bfbfbf" points="110.5,-62 110.5,-81 159.5,-81 159.5,-62 110.5,-62"/>
<text text-anchor="middle" x="135" y="-69" font-family="Helvetica,sans-Serif" font-size="10.00">gmsh.h</text>
</a>
</g>
</g>
<!-- Node1&#45;&gt;Node3 -->
<g id="edge2" class="edge">
<title>Node1&#45;&gt;Node3</title>
<path fill="none" stroke="midnightblue" d="M274.36,-179.46C253.4,-170.57 227.15,-157.94 206,-143 183.73,-127.27 162.09,-104.33 148.66,-88.93"/>
<polygon fill="midnightblue" stroke="midnightblue" points="151.26,-86.58 142.1,-81.25 145.94,-91.13 151.26,-86.58"/>
</g>
<!-- Node4 -->
<g id="node4" class="node">
<title>Node4</title>
<g id="a_node4"><a xlink:title=" ">
<polygon fill="none" stroke="#bfbfbf" points="419,-123.5 419,-142.5 475,-142.5 475,-123.5 419,-123.5"/>
<text text-anchor="middle" x="447" y="-130.5" font-family="Helvetica,sans-Serif" font-size="10.00">algorithm</text>
</a>
</g>
</g>
<!-- Node1&#45;&gt;Node4 -->
<g id="edge3" class="edge">
<title>Node1&#45;&gt;Node4</title>
<path fill="none" stroke="midnightblue" d="M343.23,-179.4C365.84,-169.51 395.84,-156.38 417.76,-146.79"/>
<polygon fill="midnightblue" stroke="midnightblue" points="419.45,-149.87 427.21,-142.66 416.65,-143.46 419.45,-149.87"/>
</g>
<!-- Node5 -->
<g id="node5" class="node">
<title>Node5</title>
<g id="a_node5"><a xlink:title=" ">
<polygon fill="none" stroke="#bfbfbf" points="380,-62 380,-81 418,-81 418,-62 380,-62"/>
<text text-anchor="middle" x="399" y="-69" font-family="Helvetica,sans-Serif" font-size="10.00">array</text>
</a>
</g>
</g>
<!-- Node1&#45;&gt;Node5 -->
<g id="edge4" class="edge">
<title>Node1&#45;&gt;Node5</title>
<path fill="none" stroke="midnightblue" d="M321.44,-179.14C337.83,-156.61 369.52,-113.04 386.89,-89.16"/>
<polygon fill="midnightblue" stroke="midnightblue" points="389.73,-91.2 392.78,-81.05 384.07,-87.08 389.73,-91.2"/>
</g>
<!-- Node6 -->
<g id="node6" class="node">
<title>Node6</title>
<g id="a_node6"><a xlink:title=" ">
<polygon fill="none" stroke="#bfbfbf" points="493,-123.5 493,-142.5 547,-142.5 547,-123.5 493,-123.5"/>
<text text-anchor="middle" x="520" y="-130.5" font-family="Helvetica,sans-Serif" font-size="10.00">iostream</text>
</a>
</g>
</g>
<!-- Node1&#45;&gt;Node6 -->
<g id="edge5" class="edge">
<title>Node1&#45;&gt;Node6</title>
<path fill="none" stroke="midnightblue" d="M360.27,-179.47C397.78,-168.8 448.62,-154.32 482.78,-144.6"/>
<polygon fill="midnightblue" stroke="midnightblue" points="484.15,-147.85 492.81,-141.74 482.23,-141.11 484.15,-147.85"/>
</g>
<!-- Node7 -->
<g id="node7" class="node">
<title>Node7</title>
<g id="a_node7"><a xlink:title=" ">
<polygon fill="none" stroke="#bfbfbf" points="436.5,-62 436.5,-81 471.5,-81 471.5,-62 436.5,-62"/>
<text text-anchor="middle" x="454" y="-69" font-family="Helvetica,sans-Serif" font-size="10.00">map</text>
</a>
</g>
</g>
<!-- Node1&#45;&gt;Node7 -->
<g id="edge6" class="edge">
<title>Node1&#45;&gt;Node7</title>
<path fill="none" stroke="midnightblue" d="M327.68,-179.38C354.79,-156.45 408.17,-111.28 436.06,-87.68"/>
<polygon fill="midnightblue" stroke="midnightblue" points="438.47,-90.22 443.85,-81.09 433.95,-84.88 438.47,-90.22"/>
</g>
<!-- Node8 -->
<g id="node8" class="node">
<title>Node8</title>
<g id="a_node8"><a xlink:href="config_8h.html" target="_top" xlink:title="Configurations for building the project.">
<polygon fill="none" stroke="black" points="162.5,-0.5 162.5,-19.5 213.5,-19.5 213.5,-0.5 162.5,-0.5"/>
<text text-anchor="middle" x="188" y="-7.5" font-family="Helvetica,sans-Serif" font-size="10.00">config.h</text>
</a>
</g>
</g>
<!-- Node1&#45;&gt;Node8 -->
<g id="edge7" class="edge">
<title>Node1&#45;&gt;Node8</title>
<path fill="none" stroke="midnightblue" d="M238.13,-179.45C188.56,-165.48 127.36,-138.37 101,-87 94.71,-74.74 93.84,-67.77 101,-56 112.29,-37.45 133.98,-26.2 152.87,-19.6"/>
<polygon fill="midnightblue" stroke="midnightblue" points="153.96,-22.92 162.43,-16.55 151.83,-16.25 153.96,-22.92"/>
</g>
<!-- Node9 -->
<g id="node9" class="node">
<title>Node9</title>
<g id="a_node9"><a xlink:href="gmsh__manipulation_8h.html" target="_top" xlink:title="Introduction of gmsh_manipulation.h.">
<polygon fill="none" stroke="black" points="215.5,-123.5 215.5,-142.5 324.5,-142.5 324.5,-123.5 215.5,-123.5"/>
<text text-anchor="middle" x="270" y="-130.5" font-family="Helvetica,sans-Serif" font-size="10.00">gmsh_manipulation.h</text>
</a>
</g>
</g>
<!-- Node1&#45;&gt;Node9 -->
<g id="edge8" class="edge">
<title>Node1&#45;&gt;Node9</title>
<path fill="none" stroke="midnightblue" d="M301.28,-179.4C295.45,-170.93 287.98,-160.1 281.81,-151.14"/>
<polygon fill="midnightblue" stroke="midnightblue" points="284.52,-148.91 275.97,-142.66 278.76,-152.88 284.52,-148.91"/>
</g>
<!-- Node9&#45;&gt;Node3 -->
<g id="edge9" class="edge">
<title>Node9&#45;&gt;Node3</title>
<path fill="none" stroke="midnightblue" d="M250.66,-123.48C227.9,-113.45 189.91,-96.7 163.71,-85.15"/>
<polygon fill="midnightblue" stroke="midnightblue" points="164.87,-81.84 154.31,-81.01 162.05,-88.24 164.87,-81.84"/>
</g>
<!-- Node9&#45;&gt;Node5 -->
<g id="edge10" class="edge">
<title>Node9&#45;&gt;Node5</title>
<path fill="none" stroke="midnightblue" d="M288.48,-123.48C310.13,-113.49 346.21,-96.85 371.23,-85.31"/>
<polygon fill="midnightblue" stroke="midnightblue" points="372.94,-88.38 380.55,-81.01 370.01,-82.02 372.94,-88.38"/>
</g>
<!-- Node9&#45;&gt;Node7 -->
<g id="edge11" class="edge">
<title>Node9&#45;&gt;Node7</title>
<path fill="none" stroke="midnightblue" d="M308.19,-123.48C340.47,-115.71 387.6,-103.01 427,-87 428.04,-86.58 429.08,-86.13 430.13,-85.66"/>
<polygon fill="midnightblue" stroke="midnightblue" points="432.01,-88.64 439.42,-81.06 428.91,-82.36 432.01,-88.64"/>
</g>
<!-- Node9&#45;&gt;Node8 -->
<g id="edge13" class="edge">
<title>Node9&#45;&gt;Node8</title>
<path fill="none" stroke="midnightblue" d="M251.51,-123.36C237.24,-115.75 218.12,-103.33 207,-87 195.31,-69.83 190.8,-46.09 189.07,-29.74"/>
<polygon fill="midnightblue" stroke="midnightblue" points="192.56,-29.45 188.26,-19.76 185.58,-30.01 192.56,-29.45"/>
</g>
<!-- Node10 -->
<g id="node10" class="node">
<title>Node10</title>
<g id="a_node10"><a xlink:title=" ">
<polygon fill="none" stroke="#bfbfbf" points="289,-0.5 289,-19.5 333,-19.5 333,-0.5 289,-0.5"/>
<text text-anchor="middle" x="311" y="-7.5" font-family="Helvetica,sans-Serif" font-size="10.00">vector</text>
</a>
</g>
</g>
<!-- Node9&#45;&gt;Node10 -->
<g id="edge12" class="edge">
<title>Node9&#45;&gt;Node10</title>
<path fill="none" stroke="midnightblue" d="M290.22,-123.49C304.77,-116.17 323.3,-104.06 332,-87 341.58,-68.22 332.03,-44.52 322.9,-28.63"/>
<polygon fill="midnightblue" stroke="midnightblue" points="325.7,-26.5 317.45,-19.85 319.75,-30.19 325.7,-26.5"/>
</g>
<!-- Node11 -->
<g id="node11" class="node">
<title>Node11</title>
<g id="a_node11"><a xlink:href="vector__arithmetic_8h.html" target="_top" xlink:title="Introduction of vector_arithmetic.h.">
<polygon fill="none" stroke="black" points="216.5,-56.5 216.5,-86.5 323.5,-86.5 323.5,-56.5 216.5,-56.5"/>
<text text-anchor="start" x="224.5" y="-74.5" font-family="Helvetica,sans-Serif" font-size="10.00">linear_algebra/vector</text>
<text text-anchor="middle" x="270" y="-63.5" font-family="Helvetica,sans-Serif" font-size="10.00">_arithmetic.h</text>
</a>
</g>
</g>
<!-- Node9&#45;&gt;Node11 -->
<g id="edge14" class="edge">
<title>Node9&#45;&gt;Node11</title>
<path fill="none" stroke="midnightblue" d="M270,-123.48C270,-116.47 270,-106.19 270,-96.7"/>
<polygon fill="midnightblue" stroke="midnightblue" points="273.5,-96.52 270,-86.52 266.5,-96.52 273.5,-96.52"/>
</g>
<!-- Node11&#45;&gt;Node2 -->
<g id="edge15" class="edge">
<title>Node11&#45;&gt;Node2</title>
<path fill="none" stroke="midnightblue" d="M221.21,-56.47C185.03,-46.08 136.33,-32.08 102.56,-22.37"/>
<polygon fill="midnightblue" stroke="midnightblue" points="103.17,-18.91 92.59,-19.51 101.24,-25.63 103.17,-18.91"/>
</g>
<!-- Node11&#45;&gt;Node8 -->
<g id="edge17" class="edge">
<title>Node11&#45;&gt;Node8</title>
<path fill="none" stroke="midnightblue" d="M250.57,-56.4C237.79,-47.13 221.11,-35.03 208.19,-25.65"/>
<polygon fill="midnightblue" stroke="midnightblue" points="210.08,-22.7 199.93,-19.66 205.97,-28.36 210.08,-22.7"/>
</g>
<!-- Node11&#45;&gt;Node10 -->
<g id="edge16" class="edge">
<title>Node11&#45;&gt;Node10</title>
<path fill="none" stroke="midnightblue" d="M279.72,-56.4C285.55,-47.93 293.02,-37.1 299.19,-28.14"/>
<polygon fill="midnightblue" stroke="midnightblue" points="302.24,-29.88 305.03,-19.66 296.48,-25.91 302.24,-29.88"/>
</g>
</g>
</svg>
