<?xml version="1.0" encoding="UTF-8" standalone="no"?>
<!DOCTYPE svg PUBLIC "-//W3C//DTD SVG 1.1//EN"
 "http://www.w3.org/Graphics/SVG/1.1/DTD/svg11.dtd">
<!-- Generated by graphviz version 2.43.0 (0)
 -->
<!-- Title: include/platform_shared/tensor.h Pages: 1 -->
<svg width="592pt" height="653pt"
 viewBox="0.00 0.00 592.11 653.00" xmlns="http://www.w3.org/2000/svg" xmlns:xlink="http://www.w3.org/1999/xlink">
<g id="graph0" class="graph" transform="scale(1 1) rotate(0) translate(4 649)">
<title>include/platform_shared/tensor.h</title>
<!-- Node1 -->
<g id="node1" class="node">
<title>Node1</title>
<g id="a_node1"><a xlink:title="Introduction of tensor.h.">
<polygon fill="#bfbfbf" stroke="black" points="288.5,-614.5 288.5,-644.5 408.5,-644.5 408.5,-614.5 288.5,-614.5"/>
<text text-anchor="start" x="296.5" y="-632.5" font-family="Helvetica,sans-Serif" font-size="10.00">include/platform_shared</text>
<text text-anchor="middle" x="348.5" y="-621.5" font-family="Helvetica,sans-Serif" font-size="10.00">/tensor.h</text>
</a>
</g>
</g>
<!-- Node2 -->
<g id="node2" class="node">
<title>Node2</title>
<g id="a_node2"><a xlink:href="cu__tensor_8hcu.html" target="_top" xlink:title="Introduction of cu_tensor.hcu.">
<polygon fill="none" stroke="black" points="227.5,-547.5 227.5,-577.5 337.5,-577.5 337.5,-547.5 227.5,-547.5"/>
<text text-anchor="start" x="235.5" y="-565.5" font-family="Helvetica,sans-Serif" font-size="10.00">include/linear_algebra</text>
<text text-anchor="middle" x="282.5" y="-554.5" font-family="Helvetica,sans-Serif" font-size="10.00">/cu_tensor.hcu</text>
</a>
</g>
</g>
<!-- Node1&#45;&gt;Node2 -->
<g id="edge1" class="edge">
<title>Node1&#45;&gt;Node2</title>
<path fill="none" stroke="midnightblue" d="M326.99,-607.31C317.09,-597.56 305.61,-586.26 296.79,-577.58"/>
<polygon fill="midnightblue" stroke="midnightblue" points="324.6,-609.87 334.18,-614.4 329.51,-604.89 324.6,-609.87"/>
</g>
<!-- Node15 -->
<g id="node15" class="node">
<title>Node15</title>
<g id="a_node15"><a xlink:href="laplace__kernels_8h.html" target="_top" xlink:title="Introduction of laplace_kernels.h.">
<polygon fill="none" stroke="black" points="360.5,-547.5 360.5,-577.5 480.5,-577.5 480.5,-547.5 360.5,-547.5"/>
<text text-anchor="start" x="368.5" y="-565.5" font-family="Helvetica,sans-Serif" font-size="10.00">include/platform_shared</text>
<text text-anchor="middle" x="420.5" y="-554.5" font-family="Helvetica,sans-Serif" font-size="10.00">/laplace_kernels.h</text>
</a>
</g>
</g>
<!-- Node1&#45;&gt;Node15 -->
<g id="edge21" class="edge">
<title>Node1&#45;&gt;Node15</title>
<path fill="none" stroke="midnightblue" d="M371.65,-607.6C382.52,-597.78 395.2,-586.34 404.91,-577.58"/>
<polygon fill="midnightblue" stroke="midnightblue" points="369.2,-605.1 364.12,-614.4 373.89,-610.29 369.2,-605.1"/>
</g>
<!-- Node3 -->
<g id="node3" class="node">
<title>Node3</title>
<g id="a_node3"><a xlink:href="bem__kernels_8hcu_source.html" target="_top" xlink:title=" ">
<polygon fill="none" stroke="black" points="163.5,-486 163.5,-505 309.5,-505 309.5,-486 163.5,-486"/>
<text text-anchor="middle" x="236.5" y="-493" font-family="Helvetica,sans-Serif" font-size="10.00">include/bem/bem_kernels.hcu</text>
</a>
</g>
</g>
<!-- Node2&#45;&gt;Node3 -->
<g id="edge2" class="edge">
<title>Node2&#45;&gt;Node3</title>
<path fill="none" stroke="midnightblue" d="M266.56,-538.97C258.32,-527.33 248.74,-513.8 242.65,-505.19"/>
<polygon fill="midnightblue" stroke="midnightblue" points="263.89,-541.26 272.52,-547.4 269.6,-537.21 263.89,-541.26"/>
</g>
<!-- Node4 -->
<g id="node4" class="node">
<title>Node4</title>
<g id="a_node4"><a xlink:href="bem__general_8hcu_source.html" target="_top" xlink:title=" ">
<polygon fill="none" stroke="black" points="249.5,-352 249.5,-371 395.5,-371 395.5,-352 249.5,-352"/>
<text text-anchor="middle" x="322.5" y="-359" font-family="Helvetica,sans-Serif" font-size="10.00">include/bem/bem_general.hcu</text>
</a>
</g>
</g>
<!-- Node3&#45;&gt;Node4 -->
<g id="edge3" class="edge">
<title>Node3&#45;&gt;Node4</title>
<path fill="none" stroke="midnightblue" d="M247.71,-477.29C266.34,-448.69 303.01,-392.41 316.95,-371.02"/>
<polygon fill="midnightblue" stroke="midnightblue" points="244.67,-475.55 242.14,-485.84 250.53,-479.37 244.67,-475.55"/>
</g>
<!-- Node8 -->
<g id="node8" class="node">
<title>Node8</title>
<g id="a_node8"><a xlink:href="operator__preconditioner_8h.html" target="_top" xlink:title=" ">
<polygon fill="none" stroke="black" points="271,-279.5 271,-309.5 400,-309.5 400,-279.5 271,-279.5"/>
<text text-anchor="start" x="279" y="-297.5" font-family="Helvetica,sans-Serif" font-size="10.00">include/preconditioners</text>
<text text-anchor="middle" x="335.5" y="-286.5" font-family="Helvetica,sans-Serif" font-size="10.00">/operator_preconditioner.h</text>
</a>
</g>
</g>
<!-- Node3&#45;&gt;Node8 -->
<g id="edge16" class="edge">
<title>Node3&#45;&gt;Node8</title>
<path fill="none" stroke="midnightblue" d="M270.2,-482.2C310.59,-465.42 376.32,-431.1 404.5,-377 410.87,-364.78 410.73,-358.29 404.5,-346 396.44,-330.11 380.78,-318.02 366.41,-309.66"/>
<polygon fill="midnightblue" stroke="midnightblue" points="268.74,-479.02 260.77,-486 271.35,-485.51 268.74,-479.02"/>
</g>
<!-- Node11 -->
<g id="node11" class="node">
<title>Node11</title>
<g id="a_node11"><a xlink:href="aca__plus_8hcu.html" target="_top" xlink:title="Implement the ACA+ method proposed in Grasedyck, L. 2005. “Adaptive Recompression of &#45;Matrices for BE...">
<polygon fill="none" stroke="black" points="3,-346.5 3,-376.5 104,-376.5 104,-346.5 3,-346.5"/>
<text text-anchor="start" x="11" y="-364.5" font-family="Helvetica,sans-Serif" font-size="10.00">include/hmatrix/aca</text>
<text text-anchor="middle" x="53.5" y="-353.5" font-family="Helvetica,sans-Serif" font-size="10.00">_plus/aca_plus.hcu</text>
</a>
</g>
</g>
<!-- Node3&#45;&gt;Node11 -->
<g id="edge12" class="edge">
<title>Node3&#45;&gt;Node11</title>
<path fill="none" stroke="midnightblue" d="M204.08,-481.97C182.97,-473.02 155.39,-459.8 133.5,-444 105.85,-424.04 79.24,-394.11 64.76,-376.62"/>
<polygon fill="midnightblue" stroke="midnightblue" points="203,-485.31 213.58,-485.9 205.67,-478.84 203,-485.31"/>
</g>
<!-- Node13 -->
<g id="node13" class="node">
<title>Node13</title>
<g id="a_node13"><a xlink:href="sauter__quadrature_8hcu_source.html" target="_top" xlink:title=" ">
<polygon fill="none" stroke="black" points="142.5,-413.5 142.5,-443.5 258.5,-443.5 258.5,-413.5 142.5,-413.5"/>
<text text-anchor="start" x="150.5" y="-431.5" font-family="Helvetica,sans-Serif" font-size="10.00">include/quadrature</text>
<text text-anchor="middle" x="200.5" y="-420.5" font-family="Helvetica,sans-Serif" font-size="10.00">/sauter_quadrature.hcu</text>
</a>
</g>
</g>
<!-- Node3&#45;&gt;Node13 -->
<g id="edge17" class="edge">
<title>Node3&#45;&gt;Node13</title>
<path fill="none" stroke="midnightblue" d="M226.65,-476.71C220.87,-466.29 213.68,-453.3 208.3,-443.59"/>
<polygon fill="midnightblue" stroke="midnightblue" points="223.74,-478.68 231.64,-485.73 229.86,-475.29 223.74,-478.68"/>
</g>
<!-- Node5 -->
<g id="node5" class="node">
<title>Node5</title>
<g id="a_node5"><a xlink:href="laplace__bem_8priv_8hcu_source.html" target="_top" xlink:title=" ">
<polygon fill="none" stroke="black" points="278,-134.5 278,-164.5 393,-164.5 393,-134.5 278,-134.5"/>
<text text-anchor="start" x="286" y="-152.5" font-family="Helvetica,sans-Serif" font-size="10.00">include/laplace/laplace</text>
<text text-anchor="middle" x="335.5" y="-141.5" font-family="Helvetica,sans-Serif" font-size="10.00">_bem.priv.hcu</text>
</a>
</g>
</g>
<!-- Node4&#45;&gt;Node5 -->
<g id="edge4" class="edge">
<title>Node4&#45;&gt;Node5</title>
<path fill="none" stroke="midnightblue" d="M296.89,-346.52C283.8,-337.87 269.05,-325.46 261.5,-310 240.23,-266.47 236.6,-243.7 259.5,-201 268.26,-184.66 284.89,-172.71 300.36,-164.55"/>
<polygon fill="midnightblue" stroke="midnightblue" points="295.25,-349.61 305.59,-351.9 298.93,-343.66 295.25,-349.61"/>
</g>
<!-- Node4&#45;&gt;Node8 -->
<g id="edge7" class="edge">
<title>Node4&#45;&gt;Node8</title>
<path fill="none" stroke="midnightblue" d="M326.25,-341.74C328.3,-331.49 330.8,-319 332.68,-309.59"/>
<polygon fill="midnightblue" stroke="midnightblue" points="322.78,-341.24 324.25,-351.73 329.65,-342.61 322.78,-341.24"/>
</g>
<!-- Node6 -->
<g id="node6" class="node">
<title>Node6</title>
<g id="a_node6"><a xlink:href="laplace__bem_8impl_8hcu_source.html" target="_top" xlink:title=" ">
<polygon fill="none" stroke="black" points="278,-67.5 278,-97.5 393,-97.5 393,-67.5 278,-67.5"/>
<text text-anchor="start" x="286" y="-85.5" font-family="Helvetica,sans-Serif" font-size="10.00">include/laplace/laplace</text>
<text text-anchor="middle" x="335.5" y="-74.5" font-family="Helvetica,sans-Serif" font-size="10.00">_bem.impl.hcu</text>
</a>
</g>
</g>
<!-- Node5&#45;&gt;Node6 -->
<g id="edge5" class="edge">
<title>Node5&#45;&gt;Node6</title>
<path fill="none" stroke="midnightblue" d="M335.5,-124.11C335.5,-115.15 335.5,-105.32 335.5,-97.58"/>
<polygon fill="midnightblue" stroke="midnightblue" points="332,-124.4 335.5,-134.4 339,-124.4 332,-124.4"/>
</g>
<!-- Node7 -->
<g id="node7" class="node">
<title>Node7</title>
<g id="a_node7"><a xlink:href="laplace__bem_8cu_source.html" target="_top" xlink:title=" ">
<polygon fill="none" stroke="black" points="286.5,-0.5 286.5,-30.5 384.5,-30.5 384.5,-0.5 286.5,-0.5"/>
<text text-anchor="start" x="294.5" y="-18.5" font-family="Helvetica,sans-Serif" font-size="10.00">src/laplace/laplace</text>
<text text-anchor="middle" x="335.5" y="-7.5" font-family="Helvetica,sans-Serif" font-size="10.00">_bem.cu</text>
</a>
</g>
</g>
<!-- Node6&#45;&gt;Node7 -->
<g id="edge6" class="edge">
<title>Node6&#45;&gt;Node7</title>
<path fill="none" stroke="midnightblue" d="M335.5,-57.11C335.5,-48.15 335.5,-38.32 335.5,-30.58"/>
<polygon fill="midnightblue" stroke="midnightblue" points="332,-57.4 335.5,-67.4 339,-57.4 332,-57.4"/>
</g>
<!-- Node9 -->
<g id="node9" class="node">
<title>Node9</title>
<g id="a_node9"><a xlink:href="preconditioner__for__laplace__dirichlet_8h.html" target="_top" xlink:title=" ">
<polygon fill="none" stroke="black" points="420,-201.5 420,-242.5 553,-242.5 553,-201.5 420,-201.5"/>
<text text-anchor="start" x="428" y="-230.5" font-family="Helvetica,sans-Serif" font-size="10.00">include/preconditioners</text>
<text text-anchor="start" x="428" y="-219.5" font-family="Helvetica,sans-Serif" font-size="10.00">/preconditioner_for_laplace</text>
<text text-anchor="middle" x="486.5" y="-208.5" font-family="Helvetica,sans-Serif" font-size="10.00">_dirichlet.h</text>
</a>
</g>
</g>
<!-- Node8&#45;&gt;Node9 -->
<g id="edge8" class="edge">
<title>Node8&#45;&gt;Node9</title>
<path fill="none" stroke="midnightblue" d="M374.85,-275.13C396.28,-265.12 422.82,-252.73 444.63,-242.55"/>
<polygon fill="midnightblue" stroke="midnightblue" points="373.27,-272 365.69,-279.4 376.24,-278.34 373.27,-272"/>
</g>
<!-- Node10 -->
<g id="node10" class="node">
<title>Node10</title>
<g id="a_node10"><a xlink:href="preconditioner__for__laplace__neumann_8h.html" target="_top" xlink:title=" ">
<polygon fill="none" stroke="black" points="269,-201.5 269,-242.5 402,-242.5 402,-201.5 269,-201.5"/>
<text text-anchor="start" x="277" y="-230.5" font-family="Helvetica,sans-Serif" font-size="10.00">include/preconditioners</text>
<text text-anchor="start" x="277" y="-219.5" font-family="Helvetica,sans-Serif" font-size="10.00">/preconditioner_for_laplace</text>
<text text-anchor="middle" x="335.5" y="-208.5" font-family="Helvetica,sans-Serif" font-size="10.00">_neumann.h</text>
</a>
</g>
</g>
<!-- Node8&#45;&gt;Node10 -->
<g id="edge10" class="edge">
<title>Node8&#45;&gt;Node10</title>
<path fill="none" stroke="midnightblue" d="M335.5,-268.98C335.5,-260.35 335.5,-250.76 335.5,-242.59"/>
<polygon fill="midnightblue" stroke="midnightblue" points="332,-269.23 335.5,-279.23 339,-269.23 332,-269.23"/>
</g>
<!-- Node9&#45;&gt;Node5 -->
<g id="edge9" class="edge">
<title>Node9&#45;&gt;Node5</title>
<path fill="none" stroke="midnightblue" d="M435.13,-197.02C412.08,-186.25 385.68,-173.93 365.85,-164.67"/>
<polygon fill="midnightblue" stroke="midnightblue" points="433.9,-200.3 444.44,-201.36 436.86,-193.96 433.9,-200.3"/>
</g>
<!-- Node10&#45;&gt;Node5 -->
<g id="edge11" class="edge">
<title>Node10&#45;&gt;Node5</title>
<path fill="none" stroke="midnightblue" d="M335.5,-191.08C335.5,-182.01 335.5,-172.45 335.5,-164.89"/>
<polygon fill="midnightblue" stroke="midnightblue" points="332,-191.36 335.5,-201.36 339,-191.36 332,-191.36"/>
</g>
<!-- Node11&#45;&gt;Node5 -->
<g id="edge13" class="edge">
<title>Node11&#45;&gt;Node5</title>
<path fill="none" stroke="midnightblue" d="M78.78,-340.19C90.08,-331.04 103.52,-320.06 115.5,-310 172.21,-262.39 180.52,-243 241.5,-201 261.79,-187.03 286.37,-173.94 305.31,-164.59"/>
<polygon fill="midnightblue" stroke="midnightblue" points="76.56,-337.48 70.98,-346.49 80.96,-342.93 76.56,-337.48"/>
</g>
<!-- Node11&#45;&gt;Node8 -->
<g id="edge14" class="edge">
<title>Node11&#45;&gt;Node8</title>
<path fill="none" stroke="midnightblue" d="M113.84,-345.7C172.6,-331.88 229.68,-319 271.99,-309.56"/>
<polygon fill="midnightblue" stroke="midnightblue" points="112.95,-342.32 104.02,-348.02 114.55,-349.13 112.95,-342.32"/>
</g>
<!-- Node12 -->
<g id="node12" class="node">
<title>Node12</title>
<g id="a_node12"><a xlink:href="aca__plus_8cu_source.html" target="_top" xlink:title=" ">
<polygon fill="none" stroke="black" points="0,-279.5 0,-309.5 107,-309.5 107,-279.5 0,-279.5"/>
<text text-anchor="start" x="8" y="-297.5" font-family="Helvetica,sans-Serif" font-size="10.00">src/hmatrix/aca_plus</text>
<text text-anchor="middle" x="53.5" y="-286.5" font-family="Helvetica,sans-Serif" font-size="10.00">/aca_plus.cu</text>
</a>
</g>
</g>
<!-- Node11&#45;&gt;Node12 -->
<g id="edge15" class="edge">
<title>Node11&#45;&gt;Node12</title>
<path fill="none" stroke="midnightblue" d="M53.5,-336.11C53.5,-327.15 53.5,-317.32 53.5,-309.58"/>
<polygon fill="midnightblue" stroke="midnightblue" points="50,-336.4 53.5,-346.4 57,-336.4 50,-336.4"/>
</g>
<!-- Node13&#45;&gt;Node4 -->
<g id="edge18" class="edge">
<title>Node13&#45;&gt;Node4</title>
<path fill="none" stroke="midnightblue" d="M235.9,-408.64C259.24,-396.2 288.69,-380.51 306.53,-371.01"/>
<polygon fill="midnightblue" stroke="midnightblue" points="234.15,-405.6 226.97,-413.4 237.44,-411.78 234.15,-405.6"/>
</g>
<!-- Node13&#45;&gt;Node11 -->
<g id="edge19" class="edge">
<title>Node13&#45;&gt;Node11</title>
<path fill="none" stroke="midnightblue" d="M159.27,-409.27C135.86,-398.92 106.99,-386.15 85.33,-376.58"/>
<polygon fill="midnightblue" stroke="midnightblue" points="158.04,-412.55 168.6,-413.4 160.87,-406.15 158.04,-412.55"/>
</g>
<!-- Node14 -->
<g id="node14" class="node">
<title>Node14</title>
<g id="a_node14"><a xlink:href="sauter__quadrature_8cu_source.html" target="_top" xlink:title=" ">
<polygon fill="none" stroke="black" points="122,-346.5 122,-376.5 231,-376.5 231,-346.5 122,-346.5"/>
<text text-anchor="start" x="130" y="-364.5" font-family="Helvetica,sans-Serif" font-size="10.00">src/quadrature/sauter</text>
<text text-anchor="middle" x="176.5" y="-353.5" font-family="Helvetica,sans-Serif" font-size="10.00">_quadrature.cu</text>
</a>
</g>
</g>
<!-- Node13&#45;&gt;Node14 -->
<g id="edge20" class="edge">
<title>Node13&#45;&gt;Node14</title>
<path fill="none" stroke="midnightblue" d="M191.82,-403.99C188.43,-394.8 184.65,-384.58 181.7,-376.58"/>
<polygon fill="midnightblue" stroke="midnightblue" points="188.55,-405.23 195.29,-413.4 195.11,-402.8 188.55,-405.23"/>
</g>
<!-- Node15&#45;&gt;Node3 -->
<g id="edge22" class="edge">
<title>Node15&#45;&gt;Node3</title>
<path fill="none" stroke="midnightblue" d="M370.81,-543.95C335.07,-531.32 288.45,-514.85 260.58,-505.01"/>
<polygon fill="midnightblue" stroke="midnightblue" points="369.98,-547.37 380.57,-547.4 372.31,-540.76 369.98,-547.37"/>
</g>
<!-- Node15&#45;&gt;Node5 -->
<g id="edge24" class="edge">
<title>Node15&#45;&gt;Node5</title>
<path fill="none" stroke="midnightblue" d="M472.71,-543.6C519.72,-523.77 581.5,-486.82 581.5,-429.5 581.5,-429.5 581.5,-429.5 581.5,-293.5 581.5,-251.53 591.93,-230.92 562.5,-201 539.25,-177.36 452.39,-163.27 393.11,-156.2"/>
<polygon fill="midnightblue" stroke="midnightblue" points="471.17,-540.45 463.22,-547.46 473.8,-546.93 471.17,-540.45"/>
</g>
<!-- Node15&#45;&gt;Node9 -->
<g id="edge25" class="edge">
<title>Node15&#45;&gt;Node9</title>
<path fill="none" stroke="midnightblue" d="M448.57,-540.93C458.29,-532.59 468.48,-522.26 475.5,-511 495.47,-478.95 499.5,-467.26 499.5,-429.5 499.5,-429.5 499.5,-429.5 499.5,-360.5 499.5,-318.3 493.36,-269.13 489.52,-242.53"/>
<polygon fill="midnightblue" stroke="midnightblue" points="446.13,-538.41 440.61,-547.45 450.57,-543.82 446.13,-538.41"/>
</g>
<!-- Node15&#45;&gt;Node10 -->
<g id="edge26" class="edge">
<title>Node15&#45;&gt;Node10</title>
<path fill="none" stroke="midnightblue" d="M432.37,-538.3C444.48,-512.45 461.5,-469.08 461.5,-429.5 461.5,-429.5 461.5,-429.5 461.5,-360.5 461.5,-307.08 409.16,-265.4 371.94,-242.52"/>
<polygon fill="midnightblue" stroke="midnightblue" points="429.22,-536.77 428.02,-547.3 435.52,-539.82 429.22,-536.77"/>
</g>
<!-- Node16 -->
<g id="node16" class="node">
<title>Node16</title>
<g id="a_node16"><a xlink:href="ddm__efield_8h.html" target="_top" xlink:title="Introduction of ddm_efield.h.">
<polygon fill="none" stroke="black" points="328,-480.5 328,-510.5 433,-510.5 433,-480.5 328,-480.5"/>
<text text-anchor="start" x="336" y="-498.5" font-family="Helvetica,sans-Serif" font-size="10.00">include/electric_field</text>
<text text-anchor="middle" x="380.5" y="-487.5" font-family="Helvetica,sans-Serif" font-size="10.00">/ddm_efield.h</text>
</a>
</g>
</g>
<!-- Node15&#45;&gt;Node16 -->
<g id="edge23" class="edge">
<title>Node15&#45;&gt;Node16</title>
<path fill="none" stroke="midnightblue" d="M406.57,-538.87C400.78,-529.46 394.24,-518.83 389.16,-510.58"/>
<polygon fill="midnightblue" stroke="midnightblue" points="403.6,-540.71 411.82,-547.4 409.56,-537.05 403.6,-540.71"/>
</g>
</g>
</svg>
