<?xml version="1.0" encoding="UTF-8" standalone="no"?>
<!DOCTYPE svg PUBLIC "-//W3C//DTD SVG 1.1//EN"
 "http://www.w3.org/Graphics/SVG/1.1/DTD/svg11.dtd">
<!-- Generated by graphviz version 2.43.0 (0)
 -->
<!-- Title: include/cluster_tree/tree.h Pages: 1 -->
<svg width="801pt" height="106pt"
 viewBox="0.00 0.00 800.50 106.00" xmlns="http://www.w3.org/2000/svg" xmlns:xlink="http://www.w3.org/1999/xlink">
<g id="graph0" class="graph" transform="scale(1 1) rotate(0) translate(4 102)">
<title>include/cluster_tree/tree.h</title>
<!-- Node1 -->
<g id="node1" class="node">
<title>Node1</title>
<g id="a_node1"><a xlink:title="Implementation of the classes for binary tree node, general tree node and functions for manipulating ...">
<polygon fill="#bfbfbf" stroke="black" points="415.5,-67.5 415.5,-97.5 516.5,-97.5 516.5,-67.5 415.5,-67.5"/>
<text text-anchor="start" x="423.5" y="-85.5" font-family="Helvetica,sans-Serif" font-size="10.00">include/cluster_tree</text>
<text text-anchor="middle" x="466" y="-74.5" font-family="Helvetica,sans-Serif" font-size="10.00">/tree.h</text>
</a>
</g>
</g>
<!-- Node2 -->
<g id="node2" class="node">
<title>Node2</title>
<g id="a_node2"><a xlink:title=" ">
<polygon fill="none" stroke="#bfbfbf" points="0,-6 0,-25 126,-25 126,-6 0,-6"/>
<text text-anchor="middle" x="63" y="-13" font-family="Helvetica,sans-Serif" font-size="10.00">deal.II/base/exceptions.h</text>
</a>
</g>
</g>
<!-- Node1&#45;&gt;Node2 -->
<g id="edge1" class="edge">
<title>Node1&#45;&gt;Node2</title>
<path fill="none" stroke="midnightblue" d="M415.41,-74.54C350.37,-65.42 234.03,-48.52 135,-31 128.17,-29.79 120.98,-28.44 113.91,-27.06"/>
<polygon fill="midnightblue" stroke="midnightblue" points="114.17,-23.55 103.68,-25.04 112.81,-30.41 114.17,-23.55"/>
</g>
<!-- Node3 -->
<g id="node3" class="node">
<title>Node3</title>
<g id="a_node3"><a xlink:title=" ">
<polygon fill="none" stroke="#bfbfbf" points="144,-0.5 144,-30.5 250,-30.5 250,-0.5 144,-0.5"/>
<text text-anchor="start" x="152" y="-18.5" font-family="Helvetica,sans-Serif" font-size="10.00">deal.II/base/memory</text>
<text text-anchor="middle" x="197" y="-7.5" font-family="Helvetica,sans-Serif" font-size="10.00">_consumption.h</text>
</a>
</g>
</g>
<!-- Node1&#45;&gt;Node3 -->
<g id="edge2" class="edge">
<title>Node1&#45;&gt;Node3</title>
<path fill="none" stroke="midnightblue" d="M415.4,-69.27C371.36,-58.63 307.32,-43.16 259.97,-31.72"/>
<polygon fill="midnightblue" stroke="midnightblue" points="260.67,-28.29 250.13,-29.34 259.03,-35.09 260.67,-28.29"/>
</g>
<!-- Node4 -->
<g id="node4" class="node">
<title>Node4</title>
<g id="a_node4"><a xlink:title=" ">
<polygon fill="none" stroke="#bfbfbf" points="268,-6 268,-25 324,-25 324,-6 268,-6"/>
<text text-anchor="middle" x="296" y="-13" font-family="Helvetica,sans-Serif" font-size="10.00">algorithm</text>
</a>
</g>
</g>
<!-- Node1&#45;&gt;Node4 -->
<g id="edge3" class="edge">
<title>Node1&#45;&gt;Node4</title>
<path fill="none" stroke="midnightblue" d="M428.7,-67.46C402.01,-57.38 365.26,-43.45 333,-31 331.17,-30.29 329.28,-29.56 327.38,-28.82"/>
<polygon fill="midnightblue" stroke="midnightblue" points="328.49,-25.5 317.9,-25.13 325.94,-32.02 328.49,-25.5"/>
</g>
<!-- Node5 -->
<g id="node5" class="node">
<title>Node5</title>
<g id="a_node5"><a xlink:title=" ">
<polygon fill="none" stroke="#bfbfbf" points="342,-6 342,-25 380,-25 380,-6 342,-6"/>
<text text-anchor="middle" x="361" y="-13" font-family="Helvetica,sans-Serif" font-size="10.00">array</text>
</a>
</g>
</g>
<!-- Node1&#45;&gt;Node5 -->
<g id="edge4" class="edge">
<title>Node1&#45;&gt;Node5</title>
<path fill="none" stroke="midnightblue" d="M443.22,-67.4C425.45,-56.39 400.9,-41.2 383.26,-30.28"/>
<polygon fill="midnightblue" stroke="midnightblue" points="385.09,-27.29 374.74,-25.01 381.4,-33.25 385.09,-27.29"/>
</g>
<!-- Node6 -->
<g id="node6" class="node">
<title>Node6</title>
<g id="a_node6"><a xlink:title=" ">
<polygon fill="none" stroke="#bfbfbf" points="398.5,-6 398.5,-25 457.5,-25 457.5,-6 398.5,-6"/>
<text text-anchor="middle" x="428" y="-13" font-family="Helvetica,sans-Serif" font-size="10.00">exception</text>
</a>
</g>
</g>
<!-- Node1&#45;&gt;Node6 -->
<g id="edge5" class="edge">
<title>Node1&#45;&gt;Node6</title>
<path fill="none" stroke="midnightblue" d="M457.75,-67.4C452.01,-57.56 444.3,-44.38 438.17,-33.89"/>
<polygon fill="midnightblue" stroke="midnightblue" points="441.15,-32.06 433.08,-25.19 435.11,-35.59 441.15,-32.06"/>
</g>
<!-- Node7 -->
<g id="node7" class="node">
<title>Node7</title>
<g id="a_node7"><a xlink:title=" ">
<polygon fill="none" stroke="#bfbfbf" points="475.5,-6 475.5,-25 534.5,-25 534.5,-6 475.5,-6"/>
<text text-anchor="middle" x="505" y="-13" font-family="Helvetica,sans-Serif" font-size="10.00">functional</text>
</a>
</g>
</g>
<!-- Node1&#45;&gt;Node7 -->
<g id="edge6" class="edge">
<title>Node1&#45;&gt;Node7</title>
<path fill="none" stroke="midnightblue" d="M474.46,-67.4C480.36,-57.56 488.27,-44.38 494.56,-33.89"/>
<polygon fill="midnightblue" stroke="midnightblue" points="497.64,-35.57 499.78,-25.19 491.64,-31.97 497.64,-35.57"/>
</g>
<!-- Node8 -->
<g id="node8" class="node">
<title>Node8</title>
<g id="a_node8"><a xlink:title=" ">
<polygon fill="none" stroke="#bfbfbf" points="553,-6 553,-25 607,-25 607,-6 553,-6"/>
<text text-anchor="middle" x="580" y="-13" font-family="Helvetica,sans-Serif" font-size="10.00">iostream</text>
</a>
</g>
</g>
<!-- Node1&#45;&gt;Node8 -->
<g id="edge7" class="edge">
<title>Node1&#45;&gt;Node8</title>
<path fill="none" stroke="midnightblue" d="M490.74,-67.4C510.21,-56.29 537.17,-40.92 556.35,-29.98"/>
<polygon fill="midnightblue" stroke="midnightblue" points="558.13,-33 565.08,-25.01 554.66,-26.92 558.13,-33"/>
</g>
<!-- Node9 -->
<g id="node9" class="node">
<title>Node9</title>
<g id="a_node9"><a xlink:title=" ">
<polygon fill="none" stroke="#bfbfbf" points="625.5,-6 625.5,-25 660.5,-25 660.5,-6 625.5,-6"/>
<text text-anchor="middle" x="643" y="-13" font-family="Helvetica,sans-Serif" font-size="10.00">new</text>
</a>
</g>
</g>
<!-- Node1&#45;&gt;Node9 -->
<g id="edge8" class="edge">
<title>Node1&#45;&gt;Node9</title>
<path fill="none" stroke="midnightblue" d="M514.4,-67.48C544.17,-58.3 582.84,-45.36 616,-31 617,-30.57 618.01,-30.11 619.03,-29.64"/>
<polygon fill="midnightblue" stroke="midnightblue" points="620.72,-32.7 628.08,-25.09 617.58,-26.45 620.72,-32.7"/>
</g>
<!-- Node10 -->
<g id="node10" class="node">
<title>Node10</title>
<g id="a_node10"><a xlink:title=" ">
<polygon fill="none" stroke="#bfbfbf" points="679,-6 679,-25 723,-25 723,-6 679,-6"/>
<text text-anchor="middle" x="701" y="-13" font-family="Helvetica,sans-Serif" font-size="10.00">vector</text>
</a>
</g>
</g>
<!-- Node1&#45;&gt;Node10 -->
<g id="edge9" class="edge">
<title>Node1&#45;&gt;Node10</title>
<path fill="none" stroke="midnightblue" d="M516.69,-71.82C558.46,-63.17 618.92,-49.07 670,-31 671.62,-30.43 673.26,-29.8 674.91,-29.14"/>
<polygon fill="midnightblue" stroke="midnightblue" points="676.43,-32.29 684.19,-25.09 673.63,-25.88 676.43,-32.29"/>
</g>
<!-- Node11 -->
<g id="node11" class="node">
<title>Node11</title>
<g id="a_node11"><a xlink:href="config_8h.html" target="_top" xlink:title="Configurations for building the project.">
<polygon fill="none" stroke="black" points="741.5,-6 741.5,-25 792.5,-25 792.5,-6 741.5,-6"/>
<text text-anchor="middle" x="767" y="-13" font-family="Helvetica,sans-Serif" font-size="10.00">config.h</text>
</a>
</g>
</g>
<!-- Node1&#45;&gt;Node11 -->
<g id="edge10" class="edge">
<title>Node1&#45;&gt;Node11</title>
<path fill="none" stroke="midnightblue" d="M516.74,-75.03C570.82,-67.4 658.58,-52.92 732,-31 734.29,-30.32 736.63,-29.54 738.96,-28.7"/>
<polygon fill="midnightblue" stroke="midnightblue" points="740.31,-31.93 748.37,-25.05 737.78,-25.41 740.31,-31.93"/>
</g>
</g>
</svg>
