<?xml version="1.0" encoding="UTF-8" standalone="no"?>
<!DOCTYPE svg PUBLIC "-//W3C//DTD SVG 1.1//EN"
 "http://www.w3.org/Graphics/SVG/1.1/DTD/svg11.dtd">
<!-- Generated by graphviz version 2.43.0 (0)
 -->
<!-- Title: include/cluster_tree/tree.h Pages: 1 -->
<svg width="1497pt" height="798pt"
 viewBox="0.00 0.00 1497.00 798.00" xmlns="http://www.w3.org/2000/svg" xmlns:xlink="http://www.w3.org/1999/xlink">
<g id="graph0" class="graph" transform="scale(1 1) rotate(0) translate(4 794)">
<title>include/cluster_tree/tree.h</title>
<!-- Node1 -->
<g id="node1" class="node">
<title>Node1</title>
<g id="a_node1"><a xlink:title="Implementation of the classes for binary tree node, general tree node and functions for manipulating ...">
<polygon fill="#bfbfbf" stroke="black" points="365.5,-759.5 365.5,-789.5 466.5,-789.5 466.5,-759.5 365.5,-759.5"/>
<text text-anchor="start" x="373.5" y="-777.5" font-family="Helvetica,sans-Serif" font-size="10.00">include/cluster_tree</text>
<text text-anchor="middle" x="416" y="-766.5" font-family="Helvetica,sans-Serif" font-size="10.00">/tree.h</text>
</a>
</g>
</g>
<!-- Node2 -->
<g id="node2" class="node">
<title>Node2</title>
<g id="a_node2"><a xlink:href="block__cluster__tree_8h.html" target="_top" xlink:title="Implementation of the class BlockClusterTree.">
<polygon fill="none" stroke="black" points="340.5,-558.5 340.5,-588.5 447.5,-588.5 447.5,-558.5 340.5,-558.5"/>
<text text-anchor="start" x="348.5" y="-576.5" font-family="Helvetica,sans-Serif" font-size="10.00">include/cluster_tree</text>
<text text-anchor="middle" x="394" y="-565.5" font-family="Helvetica,sans-Serif" font-size="10.00">/block_cluster_tree.h</text>
</a>
</g>
</g>
<!-- Node1&#45;&gt;Node2 -->
<g id="edge1" class="edge">
<title>Node1&#45;&gt;Node2</title>
<path fill="none" stroke="midnightblue" d="M413.29,-749C408.64,-706.93 399.28,-622.26 395.57,-588.68"/>
<polygon fill="midnightblue" stroke="midnightblue" points="409.84,-749.63 414.42,-759.19 416.8,-748.86 409.84,-749.63"/>
</g>
<!-- Node25 -->
<g id="node25" class="node">
<title>Node25</title>
<g id="a_node25"><a xlink:href="cluster__tree_8h_source.html" target="_top" xlink:title=" ">
<polygon fill="none" stroke="black" points="424.5,-692.5 424.5,-722.5 525.5,-722.5 525.5,-692.5 424.5,-692.5"/>
<text text-anchor="start" x="432.5" y="-710.5" font-family="Helvetica,sans-Serif" font-size="10.00">include/cluster_tree</text>
<text text-anchor="middle" x="475" y="-699.5" font-family="Helvetica,sans-Serif" font-size="10.00">/cluster_tree.h</text>
</a>
</g>
</g>
<!-- Node1&#45;&gt;Node25 -->
<g id="edge42" class="edge">
<title>Node1&#45;&gt;Node25</title>
<path fill="none" stroke="midnightblue" d="M435.75,-751.74C444.48,-742.12 454.5,-731.09 462.22,-722.58"/>
<polygon fill="midnightblue" stroke="midnightblue" points="432.93,-749.64 428.8,-759.4 438.11,-754.34 432.93,-749.64"/>
</g>
<!-- Node3 -->
<g id="node3" class="node">
<title>Node3</title>
<g id="a_node3"><a xlink:href="hmatrix_8h.html" target="_top" xlink:title="Definition of hierarchical matrix.">
<polygon fill="none" stroke="black" points="431,-502.5 431,-521.5 557,-521.5 557,-502.5 431,-502.5"/>
<text text-anchor="middle" x="494" y="-509.5" font-family="Helvetica,sans-Serif" font-size="10.00">include/hmatrix/hmatrix.h</text>
</a>
</g>
</g>
<!-- Node2&#45;&gt;Node3 -->
<g id="edge2" class="edge">
<title>Node2&#45;&gt;Node3</title>
<path fill="none" stroke="midnightblue" d="M426.66,-553.07C444.48,-542.46 465.67,-529.86 479.45,-521.66"/>
<polygon fill="midnightblue" stroke="midnightblue" points="424.5,-550.28 417.7,-558.4 428.08,-556.29 424.5,-550.28"/>
</g>
<!-- Node12 -->
<g id="node12" class="node">
<title>Node12</title>
<g id="a_node12"><a xlink:href="laplace__bem_8priv_8hcu_source.html" target="_top" xlink:title=" ">
<polygon fill="none" stroke="black" points="421.5,-134.5 421.5,-164.5 536.5,-164.5 536.5,-134.5 421.5,-134.5"/>
<text text-anchor="start" x="429.5" y="-152.5" font-family="Helvetica,sans-Serif" font-size="10.00">include/laplace/laplace</text>
<text text-anchor="middle" x="479" y="-141.5" font-family="Helvetica,sans-Serif" font-size="10.00">_bem.priv.hcu</text>
</a>
</g>
</g>
<!-- Node2&#45;&gt;Node12 -->
<g id="edge40" class="edge">
<title>Node2&#45;&gt;Node12</title>
<path fill="none" stroke="midnightblue" d="M330.34,-566.23C218.85,-553.48 0,-519.76 0,-451.5 0,-451.5 0,-451.5 0,-299 0,-247.7 17.73,-228.56 61,-201 119.49,-163.74 320.92,-153.97 421.26,-151.41"/>
<polygon fill="midnightblue" stroke="midnightblue" points="330.13,-569.73 340.45,-567.37 330.91,-562.78 330.13,-569.73"/>
</g>
<!-- Node15 -->
<g id="node15" class="node">
<title>Node15</title>
<g id="a_node15"><a xlink:href="operator__preconditioner_8h.html" target="_top" xlink:title=" ">
<polygon fill="none" stroke="black" points="229.5,-285 229.5,-315 358.5,-315 358.5,-285 229.5,-285"/>
<text text-anchor="start" x="237.5" y="-303" font-family="Helvetica,sans-Serif" font-size="10.00">include/preconditioners</text>
<text text-anchor="middle" x="294" y="-292" font-family="Helvetica,sans-Serif" font-size="10.00">/operator_preconditioner.h</text>
</a>
</g>
</g>
<!-- Node2&#45;&gt;Node15 -->
<g id="edge41" class="edge">
<title>Node2&#45;&gt;Node15</title>
<path fill="none" stroke="midnightblue" d="M351.67,-553.84C318.06,-536.46 273.43,-507.04 253,-466 245.01,-449.95 247.89,-390.8 259,-357 264.09,-341.53 274.3,-326 282.39,-315.22"/>
<polygon fill="midnightblue" stroke="midnightblue" points="350.32,-557.08 360.83,-558.42 353.46,-550.82 350.32,-557.08"/>
</g>
<!-- Node4 -->
<g id="node4" class="node">
<title>Node4</title>
<g id="a_node4"><a xlink:href="ddm__efield_8h.html" target="_top" xlink:title="Introduction of ddm_efield.h.">
<polygon fill="none" stroke="black" points="1341.5,-134.5 1341.5,-164.5 1446.5,-164.5 1446.5,-134.5 1341.5,-134.5"/>
<text text-anchor="start" x="1349.5" y="-152.5" font-family="Helvetica,sans-Serif" font-size="10.00">include/electric_field</text>
<text text-anchor="middle" x="1394" y="-141.5" font-family="Helvetica,sans-Serif" font-size="10.00">/ddm_efield.h</text>
</a>
</g>
</g>
<!-- Node3&#45;&gt;Node4 -->
<g id="edge3" class="edge">
<title>Node3&#45;&gt;Node4</title>
<path fill="none" stroke="midnightblue" d="M567.66,-508.97C797.95,-501.65 1489,-471.94 1489,-379 1489,-379 1489,-379 1489,-299 1489,-252.44 1478.58,-239.22 1452,-201 1442.01,-186.64 1427.06,-173.75 1414.84,-164.59"/>
<polygon fill="midnightblue" stroke="midnightblue" points="567.26,-505.48 557.38,-509.29 567.48,-512.48 567.26,-505.48"/>
</g>
<!-- Node5 -->
<g id="node5" class="node">
<title>Node5</title>
<g id="a_node5"><a xlink:href="subdomain__steklov__poincare__hmatrix_8h.html" target="_top" xlink:title="Introduction of subdomain_steklov_poincare_hmatrix.h.">
<polygon fill="none" stroke="black" points="1107,-357.5 1107,-398.5 1253,-398.5 1253,-357.5 1107,-357.5"/>
<text text-anchor="start" x="1115" y="-386.5" font-family="Helvetica,sans-Serif" font-size="10.00">include/electric_field</text>
<text text-anchor="start" x="1115" y="-375.5" font-family="Helvetica,sans-Serif" font-size="10.00">/subdomain_steklov_poincare</text>
<text text-anchor="middle" x="1180" y="-364.5" font-family="Helvetica,sans-Serif" font-size="10.00">_hmatrix.h</text>
</a>
</g>
</g>
<!-- Node3&#45;&gt;Node5 -->
<g id="edge4" class="edge">
<title>Node3&#45;&gt;Node5</title>
<path fill="none" stroke="midnightblue" d="M567.31,-508.7C692.77,-504.12 943.21,-491.98 1027,-466 1075.16,-451.07 1124.8,-419.24 1154,-398.5"/>
<polygon fill="midnightblue" stroke="midnightblue" points="566.9,-505.21 557.04,-509.07 567.16,-512.21 566.9,-505.21"/>
</g>
<!-- Node11 -->
<g id="node11" class="node">
<title>Node11</title>
<g id="a_node11"><a xlink:href="aca__plus_8hcu.html" target="_top" xlink:title="Implement the ACA+ method proposed in Grasedyck, L. 2005. “Adaptive Recompression of &#45;Matrices for BE...">
<polygon fill="none" stroke="black" points="434.5,-363 434.5,-393 535.5,-393 535.5,-363 434.5,-363"/>
<text text-anchor="start" x="442.5" y="-381" font-family="Helvetica,sans-Serif" font-size="10.00">include/hmatrix/aca</text>
<text text-anchor="middle" x="485" y="-370" font-family="Helvetica,sans-Serif" font-size="10.00">_plus/aca_plus.hcu</text>
</a>
</g>
</g>
<!-- Node3&#45;&gt;Node11 -->
<g id="edge15" class="edge">
<title>Node3&#45;&gt;Node11</title>
<path fill="none" stroke="midnightblue" d="M479.02,-494.47C472.78,-486.48 466.23,-476.38 463,-466 455.13,-440.71 467.42,-410.64 476.56,-393.3"/>
<polygon fill="midnightblue" stroke="midnightblue" points="476.42,-496.81 485.52,-502.23 481.79,-492.32 476.42,-496.81"/>
</g>
<!-- Node3&#45;&gt;Node12 -->
<g id="edge32" class="edge">
<title>Node3&#45;&gt;Node12</title>
<path fill="none" stroke="midnightblue" d="M420.4,-504.98C291.39,-492.39 38,-457.64 38,-379 38,-379 38,-379 38,-299 38,-226.29 102.08,-229.44 169,-201 252.06,-165.7 357.28,-154.94 421.31,-151.74"/>
<polygon fill="midnightblue" stroke="midnightblue" points="420.31,-508.49 430.6,-505.96 420.97,-501.52 420.31,-508.49"/>
</g>
<!-- Node3&#45;&gt;Node15 -->
<g id="edge33" class="edge">
<title>Node3&#45;&gt;Node15</title>
<path fill="none" stroke="midnightblue" d="M479.62,-494.42C472.58,-486.07 464.1,-475.69 457,-466 422.81,-419.38 427.5,-397.25 386,-357 368.01,-339.56 343.65,-325.03 324.51,-315.15"/>
<polygon fill="midnightblue" stroke="midnightblue" points="477.17,-496.94 486.33,-502.27 482.5,-492.39 477.17,-496.94"/>
</g>
<!-- Node19 -->
<g id="node19" class="node">
<title>Node19</title>
<g id="a_node19"><a xlink:href="hblockmatrix__skew__symm_8h.html" target="_top" xlink:title="Introduction of hblockmatrix_skew_symm.h.">
<polygon fill="none" stroke="black" points="472.5,-435.5 472.5,-465.5 613.5,-465.5 613.5,-435.5 472.5,-435.5"/>
<text text-anchor="start" x="480.5" y="-453.5" font-family="Helvetica,sans-Serif" font-size="10.00">include/hmatrix/hblockmatrix</text>
<text text-anchor="middle" x="543" y="-442.5" font-family="Helvetica,sans-Serif" font-size="10.00">_skew_symm.h</text>
</a>
</g>
</g>
<!-- Node3&#45;&gt;Node19 -->
<g id="edge25" class="edge">
<title>Node3&#45;&gt;Node19</title>
<path fill="none" stroke="midnightblue" d="M507.56,-494.53C515.07,-485.42 524.29,-474.21 531.45,-465.52"/>
<polygon fill="midnightblue" stroke="midnightblue" points="504.68,-492.53 501.02,-502.48 510.08,-496.98 504.68,-492.53"/>
</g>
<!-- Node20 -->
<g id="node20" class="node">
<title>Node20</title>
<g id="a_node20"><a xlink:href="hblockmatrix__skew__symm__preconditioner_8h.html" target="_top" xlink:title="Introduction of hblockmatrix_skew_symm_preconditioner.h.">
<polygon fill="none" stroke="black" points="632,-435.5 632,-465.5 842,-465.5 842,-435.5 632,-435.5"/>
<text text-anchor="start" x="640" y="-453.5" font-family="Helvetica,sans-Serif" font-size="10.00">include/hmatrix/preconditioner</text>
<text text-anchor="middle" x="737" y="-442.5" font-family="Helvetica,sans-Serif" font-size="10.00">/hblockmatrix_skew_symm_preconditioner.h</text>
</a>
</g>
</g>
<!-- Node3&#45;&gt;Node20 -->
<g id="edge27" class="edge">
<title>Node3&#45;&gt;Node20</title>
<path fill="none" stroke="midnightblue" d="M538.74,-500.05C578.43,-490.33 636.64,-476.07 679.73,-465.52"/>
<polygon fill="midnightblue" stroke="midnightblue" points="537.7,-496.7 528.82,-502.48 539.36,-503.5 537.7,-496.7"/>
</g>
<!-- Node21 -->
<g id="node21" class="node">
<title>Node21</title>
<g id="a_node21"><a xlink:href="hmatrix__symm__preconditioner_8h.html" target="_top" xlink:title="Symmetric &#45;matrix by inheriting from HMatrix, which is used as the preconditioner for SPD &#45;matrices.">
<polygon fill="none" stroke="black" points="860,-435.5 860,-465.5 1018,-465.5 1018,-435.5 860,-435.5"/>
<text text-anchor="start" x="868" y="-453.5" font-family="Helvetica,sans-Serif" font-size="10.00">include/hmatrix/preconditioner</text>
<text text-anchor="middle" x="939" y="-442.5" font-family="Helvetica,sans-Serif" font-size="10.00">/hmatrix_symm_preconditioner.h</text>
</a>
</g>
</g>
<!-- Node3&#45;&gt;Node21 -->
<g id="edge29" class="edge">
<title>Node3&#45;&gt;Node21</title>
<path fill="none" stroke="midnightblue" d="M567.65,-502.54C639.92,-494.05 753.19,-480.22 851,-466 853.91,-465.58 856.88,-465.14 859.87,-464.68"/>
<polygon fill="midnightblue" stroke="midnightblue" points="566.82,-499.12 557.3,-503.76 567.64,-506.07 566.82,-499.12"/>
</g>
<!-- Node22 -->
<g id="node22" class="node">
<title>Node22</title>
<g id="a_node22"><a xlink:href="sauter__quadrature_8hcu_source.html" target="_top" xlink:title=" ">
<polygon fill="none" stroke="black" points="262,-435.5 262,-465.5 378,-465.5 378,-435.5 262,-435.5"/>
<text text-anchor="start" x="270" y="-453.5" font-family="Helvetica,sans-Serif" font-size="10.00">include/quadrature</text>
<text text-anchor="middle" x="320" y="-442.5" font-family="Helvetica,sans-Serif" font-size="10.00">/sauter_quadrature.hcu</text>
</a>
</g>
</g>
<!-- Node3&#45;&gt;Node22 -->
<g id="edge34" class="edge">
<title>Node3&#45;&gt;Node22</title>
<path fill="none" stroke="midnightblue" d="M459.58,-499.23C431.25,-489.54 391.01,-475.78 361.01,-465.52"/>
<polygon fill="midnightblue" stroke="midnightblue" points="458.48,-502.55 469.07,-502.48 460.74,-495.93 458.48,-502.55"/>
</g>
<!-- Node5&#45;&gt;Node4 -->
<g id="edge5" class="edge">
<title>Node5&#45;&gt;Node4</title>
<path fill="none" stroke="midnightblue" d="M1263.36,-369.59C1328.35,-361.89 1411,-347.17 1432,-321 1465.37,-279.4 1448.91,-251.58 1432,-201 1427.41,-187.26 1417.45,-174.27 1408.88,-164.9"/>
<polygon fill="midnightblue" stroke="midnightblue" points="1262.63,-366.15 1253.09,-370.77 1263.42,-373.11 1262.63,-366.15"/>
</g>
<!-- Node6 -->
<g id="node6" class="node">
<title>Node6</title>
<g id="a_node6"><a xlink:href="ddm__efield__matrix_8h.html" target="_top" xlink:title="Introduction of ddm_efield_matrix.h.">
<polygon fill="none" stroke="black" points="1125.5,-207 1125.5,-237 1232.5,-237 1232.5,-207 1125.5,-207"/>
<text text-anchor="start" x="1133.5" y="-225" font-family="Helvetica,sans-Serif" font-size="10.00">include/electric_field</text>
<text text-anchor="middle" x="1179" y="-214" font-family="Helvetica,sans-Serif" font-size="10.00">/ddm_efield_matrix.h</text>
</a>
</g>
</g>
<!-- Node5&#45;&gt;Node6 -->
<g id="edge6" class="edge">
<title>Node5&#45;&gt;Node6</title>
<path fill="none" stroke="midnightblue" d="M1224.51,-351.21C1234.76,-342.97 1244.31,-332.84 1250,-321 1258.09,-304.18 1258.14,-295.8 1250,-279 1241.16,-260.78 1223.2,-246.7 1207.56,-237.22"/>
<polygon fill="midnightblue" stroke="midnightblue" points="1222.12,-348.63 1216.2,-357.42 1226.31,-354.24 1222.12,-348.63"/>
</g>
<!-- Node7 -->
<g id="node7" class="node">
<title>Node7</title>
<g id="a_node7"><a xlink:href="subdomain__hmatrix__for__charge__neutrality__eqn_8h.html" target="_top" xlink:title="Introduction of subdomain_hmatrix_for_charge_neutrality_eqn.h.">
<polygon fill="none" stroke="black" points="976.5,-279.5 976.5,-320.5 1101.5,-320.5 1101.5,-279.5 976.5,-279.5"/>
<text text-anchor="start" x="984.5" y="-308.5" font-family="Helvetica,sans-Serif" font-size="10.00">include/electric_field</text>
<text text-anchor="start" x="984.5" y="-297.5" font-family="Helvetica,sans-Serif" font-size="10.00">/subdomain_hmatrix_for</text>
<text text-anchor="middle" x="1039" y="-286.5" font-family="Helvetica,sans-Serif" font-size="10.00">_charge_neutrality_eqn.h</text>
</a>
</g>
</g>
<!-- Node5&#45;&gt;Node7 -->
<g id="edge8" class="edge">
<title>Node5&#45;&gt;Node7</title>
<path fill="none" stroke="midnightblue" d="M1134.78,-352.63C1115.51,-342.24 1093.34,-330.29 1075.19,-320.51"/>
<polygon fill="midnightblue" stroke="midnightblue" points="1133.23,-355.76 1143.69,-357.43 1136.55,-349.6 1133.23,-355.76"/>
</g>
<!-- Node8 -->
<g id="node8" class="node">
<title>Node8</title>
<g id="a_node8"><a xlink:href="subdomain__hmatrix__for__global__preconditioning_8h.html" target="_top" xlink:title="Introduction of subdomain_hmatrix_for_global_preconditioning.h.">
<polygon fill="none" stroke="black" points="1297,-279.5 1297,-320.5 1423,-320.5 1423,-279.5 1297,-279.5"/>
<text text-anchor="start" x="1305" y="-308.5" font-family="Helvetica,sans-Serif" font-size="10.00">include/electric_field</text>
<text text-anchor="start" x="1305" y="-297.5" font-family="Helvetica,sans-Serif" font-size="10.00">/subdomain_hmatrix_for</text>
<text text-anchor="middle" x="1360" y="-286.5" font-family="Helvetica,sans-Serif" font-size="10.00">_global_preconditioning.h</text>
</a>
</g>
</g>
<!-- Node5&#45;&gt;Node8 -->
<g id="edge10" class="edge">
<title>Node5&#45;&gt;Node8</title>
<path fill="none" stroke="midnightblue" d="M1235.73,-353.47C1260.78,-342.89 1290,-330.56 1313.8,-320.51"/>
<polygon fill="midnightblue" stroke="midnightblue" points="1234.21,-350.31 1226.35,-357.43 1236.93,-356.76 1234.21,-350.31"/>
</g>
<!-- Node10 -->
<g id="node10" class="node">
<title>Node10</title>
<g id="a_node10"><a xlink:href="subdomain__hmatrix__for__transmission__eqn_8h.html" target="_top" xlink:title="Introduction of subdomain_hmatrix_for_transmission_eqn.h.">
<polygon fill="none" stroke="black" points="1119.5,-279.5 1119.5,-320.5 1240.5,-320.5 1240.5,-279.5 1119.5,-279.5"/>
<text text-anchor="start" x="1127.5" y="-308.5" font-family="Helvetica,sans-Serif" font-size="10.00">include/electric_field</text>
<text text-anchor="start" x="1127.5" y="-297.5" font-family="Helvetica,sans-Serif" font-size="10.00">/subdomain_hmatrix_for</text>
<text text-anchor="middle" x="1180" y="-286.5" font-family="Helvetica,sans-Serif" font-size="10.00">_transmission_eqn.h</text>
</a>
</g>
</g>
<!-- Node5&#45;&gt;Node10 -->
<g id="edge13" class="edge">
<title>Node5&#45;&gt;Node10</title>
<path fill="none" stroke="midnightblue" d="M1180,-347.3C1180,-338.3 1180,-328.65 1180,-320.51"/>
<polygon fill="midnightblue" stroke="midnightblue" points="1176.5,-347.43 1180,-357.43 1183.5,-347.43 1176.5,-347.43"/>
</g>
<!-- Node6&#45;&gt;Node4 -->
<g id="edge7" class="edge">
<title>Node6&#45;&gt;Node4</title>
<path fill="none" stroke="midnightblue" d="M1231.28,-203.86C1267.99,-191.82 1316.5,-175.91 1350.98,-164.61"/>
<polygon fill="midnightblue" stroke="midnightblue" points="1230.15,-200.55 1221.73,-206.99 1232.33,-207.2 1230.15,-200.55"/>
</g>
<!-- Node7&#45;&gt;Node6 -->
<g id="edge9" class="edge">
<title>Node7&#45;&gt;Node6</title>
<path fill="none" stroke="midnightblue" d="M1083.87,-274.64C1106.61,-262.3 1133.44,-247.73 1152.8,-237.23"/>
<polygon fill="midnightblue" stroke="midnightblue" points="1082.17,-271.58 1075.05,-279.43 1085.51,-277.73 1082.17,-271.58"/>
</g>
<!-- Node9 -->
<g id="node9" class="node">
<title>Node9</title>
<g id="a_node9"><a xlink:href="ddm__efield__global__preconditioner_8h.html" target="_top" xlink:title="Introduction of ddm_efield_global_preconditioner.h.">
<polygon fill="none" stroke="black" points="1251,-207 1251,-237 1423,-237 1423,-207 1251,-207"/>
<text text-anchor="start" x="1259" y="-225" font-family="Helvetica,sans-Serif" font-size="10.00">include/electric_field</text>
<text text-anchor="middle" x="1337" y="-214" font-family="Helvetica,sans-Serif" font-size="10.00">/ddm_efield_global_preconditioner.h</text>
</a>
</g>
</g>
<!-- Node8&#45;&gt;Node9 -->
<g id="edge11" class="edge">
<title>Node8&#45;&gt;Node9</title>
<path fill="none" stroke="midnightblue" d="M1351.11,-269.62C1347.74,-258.5 1344.06,-246.34 1341.31,-237.23"/>
<polygon fill="midnightblue" stroke="midnightblue" points="1347.83,-270.87 1354.08,-279.43 1354.53,-268.84 1347.83,-270.87"/>
</g>
<!-- Node9&#45;&gt;Node4 -->
<g id="edge12" class="edge">
<title>Node9&#45;&gt;Node4</title>
<path fill="none" stroke="midnightblue" d="M1355.02,-198.71C1364.01,-187.6 1374.61,-174.49 1382.48,-164.75"/>
<polygon fill="midnightblue" stroke="midnightblue" points="1352.1,-196.76 1348.53,-206.73 1357.54,-201.16 1352.1,-196.76"/>
</g>
<!-- Node10&#45;&gt;Node6 -->
<g id="edge14" class="edge">
<title>Node10&#45;&gt;Node6</title>
<path fill="none" stroke="midnightblue" d="M1179.61,-269.28C1179.46,-258.25 1179.31,-246.25 1179.19,-237.23"/>
<polygon fill="midnightblue" stroke="midnightblue" points="1176.11,-269.48 1179.74,-279.43 1183.11,-269.38 1176.11,-269.48"/>
</g>
<!-- Node11&#45;&gt;Node12 -->
<g id="edge16" class="edge">
<title>Node11&#45;&gt;Node12</title>
<path fill="none" stroke="midnightblue" d="M495.99,-353.23C499.95,-343.47 503.95,-331.91 506,-321 515.85,-268.58 520.36,-252.64 507,-201 503.59,-187.8 495.9,-174.37 489.44,-164.69"/>
<polygon fill="midnightblue" stroke="midnightblue" points="492.67,-352.09 491.96,-362.66 499.11,-354.84 492.67,-352.09"/>
</g>
<!-- Node11&#45;&gt;Node15 -->
<g id="edge19" class="edge">
<title>Node11&#45;&gt;Node15</title>
<path fill="none" stroke="midnightblue" d="M439.88,-359.05C406.07,-345.59 360.45,-327.44 329.29,-315.04"/>
<polygon fill="midnightblue" stroke="midnightblue" points="438.94,-362.44 449.52,-362.88 441.52,-355.93 438.94,-362.44"/>
</g>
<!-- Node18 -->
<g id="node18" class="node">
<title>Node18</title>
<g id="a_node18"><a xlink:href="aca__plus_8cu_source.html" target="_top" xlink:title=" ">
<polygon fill="none" stroke="black" points="390.5,-285 390.5,-315 497.5,-315 497.5,-285 390.5,-285"/>
<text text-anchor="start" x="398.5" y="-303" font-family="Helvetica,sans-Serif" font-size="10.00">src/hmatrix/aca_plus</text>
<text text-anchor="middle" x="444" y="-292" font-family="Helvetica,sans-Serif" font-size="10.00">/aca_plus.cu</text>
</a>
</g>
</g>
<!-- Node11&#45;&gt;Node18 -->
<g id="edge24" class="edge">
<title>Node11&#45;&gt;Node18</title>
<path fill="none" stroke="midnightblue" d="M472.43,-353.7C465.66,-341.14 457.51,-326.04 451.68,-315.23"/>
<polygon fill="midnightblue" stroke="midnightblue" points="469.46,-355.57 477.29,-362.7 475.62,-352.24 469.46,-355.57"/>
</g>
<!-- Node13 -->
<g id="node13" class="node">
<title>Node13</title>
<g id="a_node13"><a xlink:href="laplace__bem_8impl_8hcu_source.html" target="_top" xlink:title=" ">
<polygon fill="none" stroke="black" points="421.5,-67.5 421.5,-97.5 536.5,-97.5 536.5,-67.5 421.5,-67.5"/>
<text text-anchor="start" x="429.5" y="-85.5" font-family="Helvetica,sans-Serif" font-size="10.00">include/laplace/laplace</text>
<text text-anchor="middle" x="479" y="-74.5" font-family="Helvetica,sans-Serif" font-size="10.00">_bem.impl.hcu</text>
</a>
</g>
</g>
<!-- Node12&#45;&gt;Node13 -->
<g id="edge17" class="edge">
<title>Node12&#45;&gt;Node13</title>
<path fill="none" stroke="midnightblue" d="M479,-124.11C479,-115.15 479,-105.32 479,-97.58"/>
<polygon fill="midnightblue" stroke="midnightblue" points="475.5,-124.4 479,-134.4 482.5,-124.4 475.5,-124.4"/>
</g>
<!-- Node14 -->
<g id="node14" class="node">
<title>Node14</title>
<g id="a_node14"><a xlink:href="laplace__bem_8cu_source.html" target="_top" xlink:title=" ">
<polygon fill="none" stroke="black" points="430,-0.5 430,-30.5 528,-30.5 528,-0.5 430,-0.5"/>
<text text-anchor="start" x="438" y="-18.5" font-family="Helvetica,sans-Serif" font-size="10.00">src/laplace/laplace</text>
<text text-anchor="middle" x="479" y="-7.5" font-family="Helvetica,sans-Serif" font-size="10.00">_bem.cu</text>
</a>
</g>
</g>
<!-- Node13&#45;&gt;Node14 -->
<g id="edge18" class="edge">
<title>Node13&#45;&gt;Node14</title>
<path fill="none" stroke="midnightblue" d="M479,-57.11C479,-48.15 479,-38.32 479,-30.58"/>
<polygon fill="midnightblue" stroke="midnightblue" points="475.5,-57.4 479,-67.4 482.5,-57.4 475.5,-57.4"/>
</g>
<!-- Node16 -->
<g id="node16" class="node">
<title>Node16</title>
<g id="a_node16"><a xlink:href="preconditioner__for__laplace__dirichlet_8h.html" target="_top" xlink:title=" ">
<polygon fill="none" stroke="black" points="364.5,-201.5 364.5,-242.5 497.5,-242.5 497.5,-201.5 364.5,-201.5"/>
<text text-anchor="start" x="372.5" y="-230.5" font-family="Helvetica,sans-Serif" font-size="10.00">include/preconditioners</text>
<text text-anchor="start" x="372.5" y="-219.5" font-family="Helvetica,sans-Serif" font-size="10.00">/preconditioner_for_laplace</text>
<text text-anchor="middle" x="431" y="-208.5" font-family="Helvetica,sans-Serif" font-size="10.00">_dirichlet.h</text>
</a>
</g>
</g>
<!-- Node15&#45;&gt;Node16 -->
<g id="edge20" class="edge">
<title>Node15&#45;&gt;Node16</title>
<path fill="none" stroke="midnightblue" d="M328.45,-279.89C348.96,-268.51 374.94,-254.1 395.62,-242.63"/>
<polygon fill="midnightblue" stroke="midnightblue" points="326.49,-276.97 319.45,-284.88 329.89,-283.09 326.49,-276.97"/>
</g>
<!-- Node17 -->
<g id="node17" class="node">
<title>Node17</title>
<g id="a_node17"><a xlink:href="preconditioner__for__laplace__neumann_8h.html" target="_top" xlink:title=" ">
<polygon fill="none" stroke="black" points="213.5,-201.5 213.5,-242.5 346.5,-242.5 346.5,-201.5 213.5,-201.5"/>
<text text-anchor="start" x="221.5" y="-230.5" font-family="Helvetica,sans-Serif" font-size="10.00">include/preconditioners</text>
<text text-anchor="start" x="221.5" y="-219.5" font-family="Helvetica,sans-Serif" font-size="10.00">/preconditioner_for_laplace</text>
<text text-anchor="middle" x="280" y="-208.5" font-family="Helvetica,sans-Serif" font-size="10.00">_neumann.h</text>
</a>
</g>
</g>
<!-- Node15&#45;&gt;Node17 -->
<g id="edge22" class="edge">
<title>Node15&#45;&gt;Node17</title>
<path fill="none" stroke="midnightblue" d="M289.52,-274.66C287.61,-264.33 285.42,-252.44 283.63,-242.68"/>
<polygon fill="midnightblue" stroke="midnightblue" points="286.11,-275.5 291.37,-284.7 293,-274.24 286.11,-275.5"/>
</g>
<!-- Node16&#45;&gt;Node12 -->
<g id="edge21" class="edge">
<title>Node16&#45;&gt;Node12</title>
<path fill="none" stroke="midnightblue" d="M450.17,-192.85C456.69,-183.26 463.72,-172.94 469.2,-164.89"/>
<polygon fill="midnightblue" stroke="midnightblue" points="447.11,-191.13 444.37,-201.36 452.89,-195.07 447.11,-191.13"/>
</g>
<!-- Node17&#45;&gt;Node12 -->
<g id="edge23" class="edge">
<title>Node17&#45;&gt;Node12</title>
<path fill="none" stroke="midnightblue" d="M344.65,-198.1C375.81,-187.06 412.17,-174.17 439.21,-164.6"/>
<polygon fill="midnightblue" stroke="midnightblue" points="343.43,-194.82 335.17,-201.46 345.76,-201.42 343.43,-194.82"/>
</g>
<!-- Node19&#45;&gt;Node12 -->
<g id="edge26" class="edge">
<title>Node19&#45;&gt;Node12</title>
<path fill="none" stroke="midnightblue" d="M546.48,-425.27C551.99,-379.18 558.81,-276.73 524,-201 517.53,-186.92 505.76,-173.93 495.89,-164.65"/>
<polygon fill="midnightblue" stroke="midnightblue" points="542.98,-425.11 545.17,-435.48 549.92,-426 542.98,-425.11"/>
</g>
<!-- Node20&#45;&gt;Node12 -->
<g id="edge28" class="edge">
<title>Node20&#45;&gt;Node12</title>
<path fill="none" stroke="midnightblue" d="M722.21,-426.77C691.92,-381.15 619.34,-276.35 544,-201 530.36,-187.36 513.03,-174.06 499.69,-164.54"/>
<polygon fill="midnightblue" stroke="midnightblue" points="719.42,-428.91 727.85,-435.33 725.27,-425.05 719.42,-428.91"/>
</g>
<!-- Node21&#45;&gt;Node5 -->
<g id="edge30" class="edge">
<title>Node21&#45;&gt;Node5</title>
<path fill="none" stroke="midnightblue" d="M996.5,-432.68C1031.52,-422.44 1076.41,-409.3 1113.03,-398.59"/>
<polygon fill="midnightblue" stroke="midnightblue" points="995.52,-429.32 986.9,-435.49 997.48,-436.04 995.52,-429.32"/>
</g>
<!-- Node21&#45;&gt;Node12 -->
<g id="edge31" class="edge">
<title>Node21&#45;&gt;Node12</title>
<path fill="none" stroke="midnightblue" d="M912.28,-429.42C853.33,-385.52 707.04,-278.72 577,-201 554.66,-187.65 528.39,-174.23 508.68,-164.58"/>
<polygon fill="midnightblue" stroke="midnightblue" points="910.22,-432.25 920.33,-435.43 914.41,-426.64 910.22,-432.25"/>
</g>
<!-- Node22&#45;&gt;Node11 -->
<g id="edge38" class="edge">
<title>Node22&#45;&gt;Node11</title>
<path fill="none" stroke="midnightblue" d="M362.49,-431.34C390.39,-419.42 426.34,-404.07 452.06,-393.07"/>
<polygon fill="midnightblue" stroke="midnightblue" points="360.81,-428.26 352.99,-435.4 363.56,-434.69 360.81,-428.26"/>
</g>
<!-- Node23 -->
<g id="node23" class="node">
<title>Node23</title>
<g id="a_node23"><a xlink:href="bem__general_8hcu_source.html" target="_top" xlink:title=" ">
<polygon fill="none" stroke="black" points="66,-368.5 66,-387.5 212,-387.5 212,-368.5 66,-368.5"/>
<text text-anchor="middle" x="139" y="-375.5" font-family="Helvetica,sans-Serif" font-size="10.00">include/bem/bem_general.hcu</text>
</a>
</g>
</g>
<!-- Node22&#45;&gt;Node23 -->
<g id="edge35" class="edge">
<title>Node22&#45;&gt;Node23</title>
<path fill="none" stroke="midnightblue" d="M274.41,-431.74C238.12,-417.61 188.92,-398.44 160.91,-387.53"/>
<polygon fill="midnightblue" stroke="midnightblue" points="273.22,-435.03 283.81,-435.4 275.76,-428.51 273.22,-435.03"/>
</g>
<!-- Node24 -->
<g id="node24" class="node">
<title>Node24</title>
<g id="a_node24"><a xlink:href="sauter__quadrature_8cu_source.html" target="_top" xlink:title=" ">
<polygon fill="none" stroke="black" points="268.5,-363 268.5,-393 377.5,-393 377.5,-363 268.5,-363"/>
<text text-anchor="start" x="276.5" y="-381" font-family="Helvetica,sans-Serif" font-size="10.00">src/quadrature/sauter</text>
<text text-anchor="middle" x="323" y="-370" font-family="Helvetica,sans-Serif" font-size="10.00">_quadrature.cu</text>
</a>
</g>
</g>
<!-- Node22&#45;&gt;Node24 -->
<g id="edge39" class="edge">
<title>Node22&#45;&gt;Node24</title>
<path fill="none" stroke="midnightblue" d="M321.03,-425.23C321.49,-414.57 322,-402.41 322.39,-393.25"/>
<polygon fill="midnightblue" stroke="midnightblue" points="317.54,-425.09 320.61,-435.23 324.53,-425.39 317.54,-425.09"/>
</g>
<!-- Node23&#45;&gt;Node12 -->
<g id="edge36" class="edge">
<title>Node23&#45;&gt;Node12</title>
<path fill="none" stroke="midnightblue" d="M140.08,-358.19C143.25,-321.78 155.64,-241.68 204,-201 236.18,-173.93 350.75,-160.37 421.46,-154.43"/>
<polygon fill="midnightblue" stroke="midnightblue" points="136.58,-358.14 139.34,-368.37 143.56,-358.65 136.58,-358.14"/>
</g>
<!-- Node23&#45;&gt;Node15 -->
<g id="edge37" class="edge">
<title>Node23&#45;&gt;Node15</title>
<path fill="none" stroke="midnightblue" d="M165.6,-363.96C193.36,-350.35 236.75,-329.07 265.28,-315.08"/>
<polygon fill="midnightblue" stroke="midnightblue" points="163.92,-360.88 156.48,-368.43 167,-367.17 163.92,-360.88"/>
</g>
<!-- Node25&#45;&gt;Node2 -->
<g id="edge46" class="edge">
<title>Node25&#45;&gt;Node2</title>
<path fill="none" stroke="midnightblue" d="M455.3,-684.46C448.14,-675.9 440.27,-665.8 434,-656 419.65,-633.56 406.81,-605.23 399.75,-588.57"/>
<polygon fill="midnightblue" stroke="midnightblue" points="452.71,-686.82 461.87,-692.14 458.03,-682.27 452.71,-686.82"/>
</g>
<!-- Node25&#45;&gt;Node12 -->
<g id="edge47" class="edge">
<title>Node25&#45;&gt;Node12</title>
<path fill="none" stroke="midnightblue" d="M535.89,-705.23C683.05,-700.5 1046,-678.33 1046,-574.5 1046,-574.5 1046,-574.5 1046,-511 1046,-271.43 681.08,-184.23 536.75,-159.11"/>
<polygon fill="midnightblue" stroke="midnightblue" points="535.56,-701.73 525.67,-705.54 535.77,-708.73 535.56,-701.73"/>
</g>
<!-- Node26 -->
<g id="node26" class="node">
<title>Node26</title>
<g id="a_node26"><a xlink:href="block__cluster_8h.html" target="_top" xlink:title="Implementation of the class BlockCluster.">
<polygon fill="none" stroke="black" points="443.5,-625.5 443.5,-655.5 544.5,-655.5 544.5,-625.5 443.5,-625.5"/>
<text text-anchor="start" x="451.5" y="-643.5" font-family="Helvetica,sans-Serif" font-size="10.00">include/cluster_tree</text>
<text text-anchor="middle" x="494" y="-632.5" font-family="Helvetica,sans-Serif" font-size="10.00">/block_cluster.h</text>
</a>
</g>
</g>
<!-- Node25&#45;&gt;Node26 -->
<g id="edge43" class="edge">
<title>Node25&#45;&gt;Node26</title>
<path fill="none" stroke="midnightblue" d="M481.96,-682.7C484.62,-673.59 487.57,-663.49 489.89,-655.58"/>
<polygon fill="midnightblue" stroke="midnightblue" points="478.57,-681.82 479.12,-692.4 485.29,-683.78 478.57,-681.82"/>
</g>
<!-- Node26&#45;&gt;Node2 -->
<g id="edge44" class="edge">
<title>Node26&#45;&gt;Node2</title>
<path fill="none" stroke="midnightblue" d="M463.59,-619.73C448.12,-609.68 429.67,-597.68 415.66,-588.58"/>
<polygon fill="midnightblue" stroke="midnightblue" points="462.01,-622.88 472.3,-625.4 465.82,-617.01 462.01,-622.88"/>
</g>
<!-- Node26&#45;&gt;Node3 -->
<g id="edge45" class="edge">
<title>Node26&#45;&gt;Node3</title>
<path fill="none" stroke="midnightblue" d="M494,-615.14C494,-586.62 494,-540.86 494,-521.79"/>
<polygon fill="midnightblue" stroke="midnightblue" points="490.5,-615.48 494,-625.48 497.5,-615.48 490.5,-615.48"/>
</g>
</g>
</svg>
