<?xml version="1.0" encoding="UTF-8" standalone="no"?>
<!DOCTYPE svg PUBLIC "-//W3C//DTD SVG 1.1//EN"
 "http://www.w3.org/Graphics/SVG/1.1/DTD/svg11.dtd">
<!-- Generated by graphviz version 2.43.0 (0)
 -->
<!-- Title: include/grid/triangulation_tools.h Pages: 1 -->
<svg width="487pt" height="95pt"
 viewBox="0.00 0.00 487.00 95.00" xmlns="http://www.w3.org/2000/svg" xmlns:xlink="http://www.w3.org/1999/xlink">
<g id="graph0" class="graph" transform="scale(1 1) rotate(0) translate(4 91)">
<title>include/grid/triangulation_tools.h</title>
<!-- Node1 -->
<g id="node1" class="node">
<title>Node1</title>
<g id="a_node1"><a xlink:title="Introduction of triangulation_tools.h.">
<polygon fill="#bfbfbf" stroke="black" points="214.5,-56.5 214.5,-86.5 336.5,-86.5 336.5,-56.5 214.5,-56.5"/>
<text text-anchor="start" x="222.5" y="-74.5" font-family="Helvetica,sans-Serif" font-size="10.00">include/grid/triangulation</text>
<text text-anchor="middle" x="275.5" y="-63.5" font-family="Helvetica,sans-Serif" font-size="10.00">_tools.h</text>
</a>
</g>
</g>
<!-- Node2 -->
<g id="node2" class="node">
<title>Node2</title>
<g id="a_node2"><a xlink:title=" ">
<polygon fill="none" stroke="#bfbfbf" points="0,-0.5 0,-19.5 87,-19.5 87,-0.5 0,-0.5"/>
<text text-anchor="middle" x="43.5" y="-7.5" font-family="Helvetica,sans-Serif" font-size="10.00">deal.II/grid/tria.h</text>
</a>
</g>
</g>
<!-- Node1&#45;&gt;Node2 -->
<g id="edge1" class="edge">
<title>Node1&#45;&gt;Node2</title>
<path fill="none" stroke="midnightblue" d="M220.81,-56.47C179.74,-45.94 124.27,-31.72 86.38,-22"/>
<polygon fill="midnightblue" stroke="midnightblue" points="87.22,-18.6 76.67,-19.51 85.48,-25.38 87.22,-18.6"/>
</g>
<!-- Node3 -->
<g id="node3" class="node">
<title>Node3</title>
<g id="a_node3"><a xlink:title=" ">
<polygon fill="none" stroke="#bfbfbf" points="105.5,-0.5 105.5,-19.5 161.5,-19.5 161.5,-0.5 105.5,-0.5"/>
<text text-anchor="middle" x="133.5" y="-7.5" font-family="Helvetica,sans-Serif" font-size="10.00">algorithm</text>
</a>
</g>
</g>
<!-- Node1&#45;&gt;Node3 -->
<g id="edge2" class="edge">
<title>Node1&#45;&gt;Node3</title>
<path fill="none" stroke="midnightblue" d="M241.85,-56.4C218.02,-46.42 186.35,-33.15 163.41,-23.53"/>
<polygon fill="midnightblue" stroke="midnightblue" points="164.74,-20.29 154.16,-19.66 162.03,-26.75 164.74,-20.29"/>
</g>
<!-- Node4 -->
<g id="node4" class="node">
<title>Node4</title>
<g id="a_node4"><a xlink:title=" ">
<polygon fill="none" stroke="#bfbfbf" points="179.5,-0.5 179.5,-19.5 233.5,-19.5 233.5,-0.5 179.5,-0.5"/>
<text text-anchor="middle" x="206.5" y="-7.5" font-family="Helvetica,sans-Serif" font-size="10.00">iostream</text>
</a>
</g>
</g>
<!-- Node1&#45;&gt;Node4 -->
<g id="edge3" class="edge">
<title>Node1&#45;&gt;Node4</title>
<path fill="none" stroke="midnightblue" d="M259.15,-56.4C248.6,-47.31 234.9,-35.49 224.12,-26.19"/>
<polygon fill="midnightblue" stroke="midnightblue" points="226.4,-23.54 216.54,-19.66 221.83,-28.84 226.4,-23.54"/>
</g>
<!-- Node5 -->
<g id="node5" class="node">
<title>Node5</title>
<g id="a_node5"><a xlink:title=" ">
<polygon fill="none" stroke="#bfbfbf" points="252,-0.5 252,-19.5 299,-19.5 299,-0.5 252,-0.5"/>
<text text-anchor="middle" x="275.5" y="-7.5" font-family="Helvetica,sans-Serif" font-size="10.00">iterator</text>
</a>
</g>
</g>
<!-- Node1&#45;&gt;Node5 -->
<g id="edge4" class="edge">
<title>Node1&#45;&gt;Node5</title>
<path fill="none" stroke="midnightblue" d="M275.5,-56.4C275.5,-48.47 275.5,-38.46 275.5,-29.86"/>
<polygon fill="midnightblue" stroke="midnightblue" points="279,-29.66 275.5,-19.66 272,-29.66 279,-29.66"/>
</g>
<!-- Node6 -->
<g id="node6" class="node">
<title>Node6</title>
<g id="a_node6"><a xlink:title=" ">
<polygon fill="none" stroke="#bfbfbf" points="317.5,-0.5 317.5,-19.5 347.5,-19.5 347.5,-0.5 317.5,-0.5"/>
<text text-anchor="middle" x="332.5" y="-7.5" font-family="Helvetica,sans-Serif" font-size="10.00">set</text>
</a>
</g>
</g>
<!-- Node1&#45;&gt;Node6 -->
<g id="edge5" class="edge">
<title>Node1&#45;&gt;Node6</title>
<path fill="none" stroke="midnightblue" d="M289.01,-56.4C297.46,-47.58 308.38,-36.18 317.16,-27.02"/>
<polygon fill="midnightblue" stroke="midnightblue" points="319.82,-29.3 324.21,-19.66 314.76,-24.46 319.82,-29.3"/>
</g>
<!-- Node7 -->
<g id="node7" class="node">
<title>Node7</title>
<g id="a_node7"><a xlink:title=" ">
<polygon fill="none" stroke="#bfbfbf" points="365.5,-0.5 365.5,-19.5 409.5,-19.5 409.5,-0.5 365.5,-0.5"/>
<text text-anchor="middle" x="387.5" y="-7.5" font-family="Helvetica,sans-Serif" font-size="10.00">vector</text>
</a>
</g>
</g>
<!-- Node1&#45;&gt;Node7 -->
<g id="edge6" class="edge">
<title>Node1&#45;&gt;Node7</title>
<path fill="none" stroke="midnightblue" d="M302.04,-56.4C320.16,-46.77 344.04,-34.09 361.94,-24.58"/>
<polygon fill="midnightblue" stroke="midnightblue" points="364.01,-27.44 371.2,-19.66 360.73,-21.26 364.01,-27.44"/>
</g>
<!-- Node8 -->
<g id="node8" class="node">
<title>Node8</title>
<g id="a_node8"><a xlink:href="config_8h.html" target="_top" xlink:title="Configurations for building the project.">
<polygon fill="none" stroke="black" points="428,-0.5 428,-19.5 479,-19.5 479,-0.5 428,-0.5"/>
<text text-anchor="middle" x="453.5" y="-7.5" font-family="Helvetica,sans-Serif" font-size="10.00">config.h</text>
</a>
</g>
</g>
<!-- Node1&#45;&gt;Node8 -->
<g id="edge7" class="edge">
<title>Node1&#45;&gt;Node8</title>
<path fill="none" stroke="midnightblue" d="M317.68,-56.4C348.31,-46.16 389.27,-32.47 418.17,-22.81"/>
<polygon fill="midnightblue" stroke="midnightblue" points="419.48,-26.06 427.86,-19.57 417.27,-19.42 419.48,-26.06"/>
</g>
</g>
</svg>
