<?xml version="1.0" encoding="UTF-8" standalone="no"?>
<!DOCTYPE svg PUBLIC "-//W3C//DTD SVG 1.1//EN"
 "http://www.w3.org/Graphics/SVG/1.1/DTD/svg11.dtd">
<!-- Generated by graphviz version 2.43.0 (0)
 -->
<!-- Title: include/utilities/unary_template_arg_containers.h Pages: 1 -->
<svg width="341pt" height="452pt"
 viewBox="0.00 0.00 340.55 452.00" xmlns="http://www.w3.org/2000/svg" xmlns:xlink="http://www.w3.org/1999/xlink">
<g id="graph0" class="graph" transform="scale(1 1) rotate(0) translate(4 448)">
<title>include/utilities/unary_template_arg_containers.h</title>
<!-- Node1 -->
<g id="node1" class="node">
<title>Node1</title>
<g id="a_node1"><a xlink:title="Definitions of STL container types with unary template argument.">
<polygon fill="#bfbfbf" stroke="black" points="105,-413.5 105,-443.5 242,-443.5 242,-413.5 105,-413.5"/>
<text text-anchor="start" x="113" y="-431.5" font-family="Helvetica,sans-Serif" font-size="10.00">include/utilities/unary</text>
<text text-anchor="middle" x="173.5" y="-420.5" font-family="Helvetica,sans-Serif" font-size="10.00">_template_arg_containers.h</text>
</a>
</g>
</g>
<!-- Node2 -->
<g id="node2" class="node">
<title>Node2</title>
<g id="a_node2"><a xlink:href="ddm__efield_8h.html" target="_top" xlink:title="Introduction of ddm_efield.h.">
<polygon fill="none" stroke="black" points="0,-346.5 0,-376.5 105,-376.5 105,-346.5 0,-346.5"/>
<text text-anchor="start" x="8" y="-364.5" font-family="Helvetica,sans-Serif" font-size="10.00">include/electric_field</text>
<text text-anchor="middle" x="52.5" y="-353.5" font-family="Helvetica,sans-Serif" font-size="10.00">/ddm_efield.h</text>
</a>
</g>
</g>
<!-- Node1&#45;&gt;Node2 -->
<g id="edge1" class="edge">
<title>Node1&#45;&gt;Node2</title>
<path fill="none" stroke="midnightblue" d="M138.27,-408.57C119.24,-398.35 96.13,-385.94 78.7,-376.58"/>
<polygon fill="midnightblue" stroke="midnightblue" points="136.78,-411.75 147.24,-413.4 140.09,-405.58 136.78,-411.75"/>
</g>
<!-- Node3 -->
<g id="node3" class="node">
<title>Node3</title>
<g id="a_node3"><a xlink:href="aca__plus_8hcu.html" target="_top" xlink:title="Implement the ACA+ method proposed in Grasedyck, L. 2005. “Adaptive Recompression of &#45;Matrices for BE...">
<polygon fill="none" stroke="black" points="123,-346.5 123,-376.5 224,-376.5 224,-346.5 123,-346.5"/>
<text text-anchor="start" x="131" y="-364.5" font-family="Helvetica,sans-Serif" font-size="10.00">include/hmatrix/aca</text>
<text text-anchor="middle" x="173.5" y="-353.5" font-family="Helvetica,sans-Serif" font-size="10.00">_plus/aca_plus.hcu</text>
</a>
</g>
</g>
<!-- Node1&#45;&gt;Node3 -->
<g id="edge2" class="edge">
<title>Node1&#45;&gt;Node3</title>
<path fill="none" stroke="midnightblue" d="M173.5,-403.11C173.5,-394.15 173.5,-384.32 173.5,-376.58"/>
<polygon fill="midnightblue" stroke="midnightblue" points="170,-403.4 173.5,-413.4 177,-403.4 170,-403.4"/>
</g>
<!-- Node4 -->
<g id="node4" class="node">
<title>Node4</title>
<g id="a_node4"><a xlink:href="laplace__bem_8priv_8hcu_source.html" target="_top" xlink:title=" ">
<polygon fill="none" stroke="black" points="109,-134.5 109,-164.5 224,-164.5 224,-134.5 109,-134.5"/>
<text text-anchor="start" x="117" y="-152.5" font-family="Helvetica,sans-Serif" font-size="10.00">include/laplace/laplace</text>
<text text-anchor="middle" x="166.5" y="-141.5" font-family="Helvetica,sans-Serif" font-size="10.00">_bem.priv.hcu</text>
</a>
</g>
</g>
<!-- Node1&#45;&gt;Node4 -->
<g id="edge12" class="edge">
<title>Node1&#45;&gt;Node4</title>
<path fill="none" stroke="midnightblue" d="M203.36,-407.62C259.77,-367.6 371.77,-274.83 318.5,-201 297.1,-171.35 257.58,-158.83 224.2,-153.67"/>
<polygon fill="midnightblue" stroke="midnightblue" points="201.34,-404.76 195.14,-413.36 205.34,-410.5 201.34,-404.76"/>
</g>
<!-- Node3&#45;&gt;Node4 -->
<g id="edge3" class="edge">
<title>Node3&#45;&gt;Node4</title>
<path fill="none" stroke="midnightblue" d="M113.23,-345.27C79.9,-335.69 42.96,-322.76 31.5,-310 11.04,-287.22 19.08,-273.41 15.5,-243 13.32,-224.46 4.59,-216.15 15.5,-201 36.66,-171.61 75.7,-159.08 108.79,-153.84"/>
<polygon fill="midnightblue" stroke="midnightblue" points="112.4,-348.67 122.97,-348.01 114.29,-341.93 112.4,-348.67"/>
</g>
<!-- Node7 -->
<g id="node7" class="node">
<title>Node7</title>
<g id="a_node7"><a xlink:href="operator__preconditioner_8h.html" target="_top" xlink:title=" ">
<polygon fill="none" stroke="black" points="41,-279.5 41,-309.5 170,-309.5 170,-279.5 41,-279.5"/>
<text text-anchor="start" x="49" y="-297.5" font-family="Helvetica,sans-Serif" font-size="10.00">include/preconditioners</text>
<text text-anchor="middle" x="105.5" y="-286.5" font-family="Helvetica,sans-Serif" font-size="10.00">/operator_preconditioner.h</text>
</a>
</g>
</g>
<!-- Node3&#45;&gt;Node7 -->
<g id="edge6" class="edge">
<title>Node3&#45;&gt;Node7</title>
<path fill="none" stroke="midnightblue" d="M151.33,-339.31C141.13,-329.56 129.31,-318.26 120.23,-309.58"/>
<polygon fill="midnightblue" stroke="midnightblue" points="149.1,-342.02 158.75,-346.4 153.93,-336.96 149.1,-342.02"/>
</g>
<!-- Node10 -->
<g id="node10" class="node">
<title>Node10</title>
<g id="a_node10"><a xlink:href="aca__plus_8cu_source.html" target="_top" xlink:title=" ">
<polygon fill="none" stroke="black" points="188,-279.5 188,-309.5 295,-309.5 295,-279.5 188,-279.5"/>
<text text-anchor="start" x="196" y="-297.5" font-family="Helvetica,sans-Serif" font-size="10.00">src/hmatrix/aca_plus</text>
<text text-anchor="middle" x="241.5" y="-286.5" font-family="Helvetica,sans-Serif" font-size="10.00">/aca_plus.cu</text>
</a>
</g>
</g>
<!-- Node3&#45;&gt;Node10 -->
<g id="edge11" class="edge">
<title>Node3&#45;&gt;Node10</title>
<path fill="none" stroke="midnightblue" d="M195.67,-339.31C205.87,-329.56 217.69,-318.26 226.77,-309.58"/>
<polygon fill="midnightblue" stroke="midnightblue" points="193.07,-336.96 188.25,-346.4 197.9,-342.02 193.07,-336.96"/>
</g>
<!-- Node5 -->
<g id="node5" class="node">
<title>Node5</title>
<g id="a_node5"><a xlink:href="laplace__bem_8impl_8hcu_source.html" target="_top" xlink:title=" ">
<polygon fill="none" stroke="black" points="109,-67.5 109,-97.5 224,-97.5 224,-67.5 109,-67.5"/>
<text text-anchor="start" x="117" y="-85.5" font-family="Helvetica,sans-Serif" font-size="10.00">include/laplace/laplace</text>
<text text-anchor="middle" x="166.5" y="-74.5" font-family="Helvetica,sans-Serif" font-size="10.00">_bem.impl.hcu</text>
</a>
</g>
</g>
<!-- Node4&#45;&gt;Node5 -->
<g id="edge4" class="edge">
<title>Node4&#45;&gt;Node5</title>
<path fill="none" stroke="midnightblue" d="M166.5,-124.11C166.5,-115.15 166.5,-105.32 166.5,-97.58"/>
<polygon fill="midnightblue" stroke="midnightblue" points="163,-124.4 166.5,-134.4 170,-124.4 163,-124.4"/>
</g>
<!-- Node6 -->
<g id="node6" class="node">
<title>Node6</title>
<g id="a_node6"><a xlink:href="laplace__bem_8cu_source.html" target="_top" xlink:title=" ">
<polygon fill="none" stroke="black" points="117.5,-0.5 117.5,-30.5 215.5,-30.5 215.5,-0.5 117.5,-0.5"/>
<text text-anchor="start" x="125.5" y="-18.5" font-family="Helvetica,sans-Serif" font-size="10.00">src/laplace/laplace</text>
<text text-anchor="middle" x="166.5" y="-7.5" font-family="Helvetica,sans-Serif" font-size="10.00">_bem.cu</text>
</a>
</g>
</g>
<!-- Node5&#45;&gt;Node6 -->
<g id="edge5" class="edge">
<title>Node5&#45;&gt;Node6</title>
<path fill="none" stroke="midnightblue" d="M166.5,-57.11C166.5,-48.15 166.5,-38.32 166.5,-30.58"/>
<polygon fill="midnightblue" stroke="midnightblue" points="163,-57.4 166.5,-67.4 170,-57.4 163,-57.4"/>
</g>
<!-- Node8 -->
<g id="node8" class="node">
<title>Node8</title>
<g id="a_node8"><a xlink:href="preconditioner__for__laplace__dirichlet_8h.html" target="_top" xlink:title=" ">
<polygon fill="none" stroke="black" points="25,-201.5 25,-242.5 158,-242.5 158,-201.5 25,-201.5"/>
<text text-anchor="start" x="33" y="-230.5" font-family="Helvetica,sans-Serif" font-size="10.00">include/preconditioners</text>
<text text-anchor="start" x="33" y="-219.5" font-family="Helvetica,sans-Serif" font-size="10.00">/preconditioner_for_laplace</text>
<text text-anchor="middle" x="91.5" y="-208.5" font-family="Helvetica,sans-Serif" font-size="10.00">_dirichlet.h</text>
</a>
</g>
</g>
<!-- Node7&#45;&gt;Node8 -->
<g id="edge7" class="edge">
<title>Node7&#45;&gt;Node8</title>
<path fill="none" stroke="midnightblue" d="M100.69,-269.27C98.96,-260.56 97.03,-250.85 95.39,-242.59"/>
<polygon fill="midnightblue" stroke="midnightblue" points="97.29,-270.11 102.67,-279.23 104.15,-268.74 97.29,-270.11"/>
</g>
<!-- Node9 -->
<g id="node9" class="node">
<title>Node9</title>
<g id="a_node9"><a xlink:href="preconditioner__for__laplace__neumann_8h.html" target="_top" xlink:title=" ">
<polygon fill="none" stroke="black" points="176,-201.5 176,-242.5 309,-242.5 309,-201.5 176,-201.5"/>
<text text-anchor="start" x="184" y="-230.5" font-family="Helvetica,sans-Serif" font-size="10.00">include/preconditioners</text>
<text text-anchor="start" x="184" y="-219.5" font-family="Helvetica,sans-Serif" font-size="10.00">/preconditioner_for_laplace</text>
<text text-anchor="middle" x="242.5" y="-208.5" font-family="Helvetica,sans-Serif" font-size="10.00">_neumann.h</text>
</a>
</g>
</g>
<!-- Node7&#45;&gt;Node9 -->
<g id="edge9" class="edge">
<title>Node7&#45;&gt;Node9</title>
<path fill="none" stroke="midnightblue" d="M141.99,-274.72C161.3,-264.79 184.99,-252.6 204.52,-242.55"/>
<polygon fill="midnightblue" stroke="midnightblue" points="140.18,-271.71 132.89,-279.4 143.39,-277.94 140.18,-271.71"/>
</g>
<!-- Node8&#45;&gt;Node4 -->
<g id="edge8" class="edge">
<title>Node8&#45;&gt;Node4</title>
<path fill="none" stroke="midnightblue" d="M119.89,-194.31C130.52,-184.32 142.19,-173.35 151.19,-164.89"/>
<polygon fill="midnightblue" stroke="midnightblue" points="117.28,-191.96 112.39,-201.36 122.08,-197.06 117.28,-191.96"/>
</g>
<!-- Node9&#45;&gt;Node4 -->
<g id="edge10" class="edge">
<title>Node9&#45;&gt;Node4</title>
<path fill="none" stroke="midnightblue" d="M213.73,-194.31C202.96,-184.32 191.14,-173.35 182.01,-164.89"/>
<polygon fill="midnightblue" stroke="midnightblue" points="211.62,-197.13 221.33,-201.36 216.38,-191.99 211.62,-197.13"/>
</g>
</g>
</svg>
