<?xml version="1.0" encoding="UTF-8" standalone="no"?>
<!DOCTYPE svg PUBLIC "-//W3C//DTD SVG 1.1//EN"
 "http://www.w3.org/Graphics/SVG/1.1/DTD/svg11.dtd">
<!-- Generated by graphviz version 2.43.0 (0)
 -->
<!-- Title: include/utilities/unary_template_arg_containers.h Pages: 1 -->
<svg width="254pt" height="95pt"
 viewBox="0.00 0.00 254.00 95.00" xmlns="http://www.w3.org/2000/svg" xmlns:xlink="http://www.w3.org/1999/xlink">
<g id="graph0" class="graph" transform="scale(1 1) rotate(0) translate(4 91)">
<title>include/utilities/unary_template_arg_containers.h</title>
<!-- Node1 -->
<g id="node1" class="node">
<title>Node1</title>
<g id="a_node1"><a xlink:title="Definitions of STL container types with unary template argument.">
<polygon fill="#bfbfbf" stroke="black" points="58,-56.5 58,-86.5 195,-86.5 195,-56.5 58,-56.5"/>
<text text-anchor="start" x="66" y="-74.5" font-family="Helvetica,sans-Serif" font-size="10.00">include/utilities/unary</text>
<text text-anchor="middle" x="126.5" y="-63.5" font-family="Helvetica,sans-Serif" font-size="10.00">_template_arg_containers.h</text>
</a>
</g>
</g>
<!-- Node2 -->
<g id="node2" class="node">
<title>Node2</title>
<g id="a_node2"><a xlink:title=" ">
<polygon fill="none" stroke="#bfbfbf" points="0,-0.5 0,-19.5 67,-19.5 67,-0.5 0,-0.5"/>
<text text-anchor="middle" x="33.5" y="-7.5" font-family="Helvetica,sans-Serif" font-size="10.00">forward_list</text>
</a>
</g>
</g>
<!-- Node1&#45;&gt;Node2 -->
<g id="edge1" class="edge">
<title>Node1&#45;&gt;Node2</title>
<path fill="none" stroke="midnightblue" d="M104.46,-56.4C89.69,-46.95 70.32,-34.56 55.55,-25.11"/>
<polygon fill="midnightblue" stroke="midnightblue" points="57.34,-22.1 47.03,-19.66 53.57,-28 57.34,-22.1"/>
</g>
<!-- Node3 -->
<g id="node3" class="node">
<title>Node3</title>
<g id="a_node3"><a xlink:title=" ">
<polygon fill="none" stroke="#bfbfbf" points="85,-0.5 85,-19.5 114,-19.5 114,-0.5 85,-0.5"/>
<text text-anchor="middle" x="99.5" y="-7.5" font-family="Helvetica,sans-Serif" font-size="10.00">list</text>
</a>
</g>
</g>
<!-- Node1&#45;&gt;Node3 -->
<g id="edge2" class="edge">
<title>Node1&#45;&gt;Node3</title>
<path fill="none" stroke="midnightblue" d="M120.1,-56.4C116.38,-48.2 111.65,-37.78 107.67,-28.99"/>
<polygon fill="midnightblue" stroke="midnightblue" points="110.75,-27.32 103.43,-19.66 104.37,-30.21 110.75,-27.32"/>
</g>
<!-- Node4 -->
<g id="node4" class="node">
<title>Node4</title>
<g id="a_node4"><a xlink:title=" ">
<polygon fill="none" stroke="#bfbfbf" points="132.5,-0.5 132.5,-19.5 176.5,-19.5 176.5,-0.5 132.5,-0.5"/>
<text text-anchor="middle" x="154.5" y="-7.5" font-family="Helvetica,sans-Serif" font-size="10.00">vector</text>
</a>
</g>
</g>
<!-- Node1&#45;&gt;Node4 -->
<g id="edge3" class="edge">
<title>Node1&#45;&gt;Node4</title>
<path fill="none" stroke="midnightblue" d="M133.14,-56.4C137.04,-48.11 142,-37.55 146.17,-28.71"/>
<polygon fill="midnightblue" stroke="midnightblue" points="149.33,-30.2 150.43,-19.66 143,-27.22 149.33,-30.2"/>
</g>
<!-- Node5 -->
<g id="node5" class="node">
<title>Node5</title>
<g id="a_node5"><a xlink:href="config_8h.html" target="_top" xlink:title="Configurations for building the project.">
<polygon fill="none" stroke="black" points="195,-0.5 195,-19.5 246,-19.5 246,-0.5 195,-0.5"/>
<text text-anchor="middle" x="220.5" y="-7.5" font-family="Helvetica,sans-Serif" font-size="10.00">config.h</text>
</a>
</g>
</g>
<!-- Node1&#45;&gt;Node5 -->
<g id="edge4" class="edge">
<title>Node1&#45;&gt;Node5</title>
<path fill="none" stroke="midnightblue" d="M148.78,-56.4C163.7,-46.95 183.28,-34.56 198.21,-25.11"/>
<polygon fill="midnightblue" stroke="midnightblue" points="200.24,-27.96 206.82,-19.66 196.5,-22.05 200.24,-27.96"/>
</g>
</g>
</svg>
