<?xml version="1.0" encoding="UTF-8" standalone="no"?>
<!DOCTYPE svg PUBLIC "-//W3C//DTD SVG 1.1//EN"
 "http://www.w3.org/Graphics/SVG/1.1/DTD/svg11.dtd">
<!-- Generated by graphviz version 2.43.0 (0)
 -->
<!-- Title: include/utilities/unary_template_arg_containers.h Pages: 1 -->
<svg width="1070pt" height="541pt"
 viewBox="0.00 0.00 1069.51 541.00" xmlns="http://www.w3.org/2000/svg" xmlns:xlink="http://www.w3.org/1999/xlink">
<g id="graph0" class="graph" transform="scale(1 1) rotate(0) translate(4 537)">
<title>include/utilities/unary_template_arg_containers.h</title>
<!-- Node1 -->
<g id="node1" class="node">
<title>Node1</title>
<g id="a_node1"><a xlink:title="Definitions of STL container types with unary template argument.">
<polygon fill="#bfbfbf" stroke="black" points="169,-502.5 169,-532.5 306,-532.5 306,-502.5 169,-502.5"/>
<text text-anchor="start" x="177" y="-520.5" font-family="Helvetica,sans-Serif" font-size="10.00">include/utilities/unary</text>
<text text-anchor="middle" x="237.5" y="-509.5" font-family="Helvetica,sans-Serif" font-size="10.00">_template_arg_containers.h</text>
</a>
</g>
</g>
<!-- Node2 -->
<g id="node2" class="node">
<title>Node2</title>
<g id="a_node2"><a xlink:href="build-hmatrix-on-subdomain_8cu.html" target="_top" xlink:title="Example for building an H&#45;matrix on a subdomain which is specified by a set of material ids.">
<polygon fill="none" stroke="black" points="33,-357.5 33,-398.5 172,-398.5 172,-357.5 33,-357.5"/>
<text text-anchor="start" x="41" y="-386.5" font-family="Helvetica,sans-Serif" font-size="10.00">examples/build&#45;hmatrix</text>
<text text-anchor="start" x="41" y="-375.5" font-family="Helvetica,sans-Serif" font-size="10.00">&#45;on&#45;subdomain/build&#45;hmatrix</text>
<text text-anchor="middle" x="102.5" y="-364.5" font-family="Helvetica,sans-Serif" font-size="10.00">&#45;on&#45;subdomain.cu</text>
</a>
</g>
</g>
<!-- Node1&#45;&gt;Node2 -->
<g id="edge1" class="edge">
<title>Node1&#45;&gt;Node2</title>
<path fill="none" stroke="midnightblue" d="M216.44,-495.05C190.51,-468.64 146.84,-424.16 121.76,-398.62"/>
<polygon fill="midnightblue" stroke="midnightblue" points="214.06,-497.62 223.56,-502.3 219.05,-492.72 214.06,-497.62"/>
</g>
<!-- Node3 -->
<g id="node3" class="node">
<title>Node3</title>
<g id="a_node3"><a xlink:href="cluster__tree__builder_8h.html" target="_top" xlink:title="Definition of a class for building a cluster tree.">
<polygon fill="none" stroke="black" points="0,-435.5 0,-465.5 113,-465.5 113,-435.5 0,-435.5"/>
<text text-anchor="start" x="8" y="-453.5" font-family="Helvetica,sans-Serif" font-size="10.00">include/cluster_tree</text>
<text text-anchor="middle" x="56.5" y="-442.5" font-family="Helvetica,sans-Serif" font-size="10.00">/cluster_tree_builder.h</text>
</a>
</g>
</g>
<!-- Node1&#45;&gt;Node3 -->
<g id="edge2" class="edge">
<title>Node1&#45;&gt;Node3</title>
<path fill="none" stroke="midnightblue" d="M188.64,-498.96C159.49,-488.48 122.96,-475.37 95.7,-465.58"/>
<polygon fill="midnightblue" stroke="midnightblue" points="187.63,-502.31 198.23,-502.4 190,-495.72 187.63,-502.31"/>
</g>
<!-- Node12 -->
<g id="node12" class="node">
<title>Node12</title>
<g id="a_node12"><a xlink:href="ddm__efield_8h.html" target="_top" xlink:title="Introduction of ddm_efield.h.">
<polygon fill="none" stroke="black" points="351,-435.5 351,-465.5 456,-465.5 456,-435.5 351,-435.5"/>
<text text-anchor="start" x="359" y="-453.5" font-family="Helvetica,sans-Serif" font-size="10.00">include/electric_field</text>
<text text-anchor="middle" x="403.5" y="-442.5" font-family="Helvetica,sans-Serif" font-size="10.00">/ddm_efield.h</text>
</a>
</g>
</g>
<!-- Node1&#45;&gt;Node12 -->
<g id="edge13" class="edge">
<title>Node1&#45;&gt;Node12</title>
<path fill="none" stroke="midnightblue" d="M283.01,-498.68C309.63,-488.26 342.77,-475.28 367.55,-465.58"/>
<polygon fill="midnightblue" stroke="midnightblue" points="281.55,-495.49 273.52,-502.4 284.11,-502.01 281.55,-495.49"/>
</g>
<!-- Node13 -->
<g id="node13" class="node">
<title>Node13</title>
<g id="a_node13"><a xlink:href="aca__plus_8hcu.html" target="_top" xlink:title="Implement the ACA+ method proposed in Grasedyck, L. 2005. “Adaptive Recompression of &#45;Matrices for BE...">
<polygon fill="none" stroke="black" points="232,-435.5 232,-465.5 333,-465.5 333,-435.5 232,-435.5"/>
<text text-anchor="start" x="240" y="-453.5" font-family="Helvetica,sans-Serif" font-size="10.00">include/hmatrix/aca</text>
<text text-anchor="middle" x="282.5" y="-442.5" font-family="Helvetica,sans-Serif" font-size="10.00">_plus/aca_plus.hcu</text>
</a>
</g>
</g>
<!-- Node1&#45;&gt;Node13 -->
<g id="edge14" class="edge">
<title>Node1&#45;&gt;Node13</title>
<path fill="none" stroke="midnightblue" d="M252.97,-494.16C259.53,-484.68 266.98,-473.92 272.75,-465.58"/>
<polygon fill="midnightblue" stroke="midnightblue" points="250.08,-492.18 247.26,-502.4 255.83,-496.17 250.08,-492.18"/>
</g>
<!-- Node4 -->
<g id="node4" class="node">
<title>Node4</title>
<g id="a_node4"><a xlink:href="bem__function__space_8h.html" target="_top" xlink:title="Definition of a class for BEM function space.">
<polygon fill="none" stroke="black" points="205,-285 205,-315 336,-315 336,-285 205,-285"/>
<text text-anchor="start" x="213" y="-303" font-family="Helvetica,sans-Serif" font-size="10.00">include/bem/bem_function</text>
<text text-anchor="middle" x="270.5" y="-292" font-family="Helvetica,sans-Serif" font-size="10.00">_space.h</text>
</a>
</g>
</g>
<!-- Node3&#45;&gt;Node4 -->
<g id="edge3" class="edge">
<title>Node3&#45;&gt;Node4</title>
<path fill="none" stroke="midnightblue" d="M37.41,-427.26C22.56,-407.16 7.02,-377.63 23.5,-357 45.83,-329.04 139.6,-314 204.95,-306.75"/>
<polygon fill="midnightblue" stroke="midnightblue" points="34.72,-429.51 43.63,-435.25 40.24,-425.21 34.72,-429.51"/>
</g>
<!-- Node5 -->
<g id="node5" class="node">
<title>Node5</title>
<g id="a_node5"><a xlink:href="bem__bilinear__form_8h.html" target="_top" xlink:title="Definition of a class for BEM bilinear form.">
<polygon fill="none" stroke="black" points="281,-207 281,-237 408,-237 408,-207 281,-207"/>
<text text-anchor="start" x="289" y="-225" font-family="Helvetica,sans-Serif" font-size="10.00">include/bem/bem_bilinear</text>
<text text-anchor="middle" x="344.5" y="-214" font-family="Helvetica,sans-Serif" font-size="10.00">_form.h</text>
</a>
</g>
</g>
<!-- Node4&#45;&gt;Node5 -->
<g id="edge4" class="edge">
<title>Node4&#45;&gt;Node5</title>
<path fill="none" stroke="midnightblue" d="M291.4,-277.53C303.96,-264.63 319.6,-248.57 330.64,-237.23"/>
<polygon fill="midnightblue" stroke="midnightblue" points="288.89,-275.1 284.42,-284.7 293.9,-279.98 288.89,-275.1"/>
</g>
<!-- Node6 -->
<g id="node6" class="node">
<title>Node6</title>
<g id="a_node6"><a xlink:href="helmholtz__acoustic__bem_8priv_8hcu_source.html" target="_top" xlink:title=" ">
<polygon fill="none" stroke="black" points="276,-134.5 276,-164.5 413,-164.5 413,-134.5 276,-134.5"/>
<text text-anchor="start" x="284" y="-152.5" font-family="Helvetica,sans-Serif" font-size="10.00">include/helmholtz/helmholtz</text>
<text text-anchor="middle" x="344.5" y="-141.5" font-family="Helvetica,sans-Serif" font-size="10.00">_acoustic_bem.priv.hcu</text>
</a>
</g>
</g>
<!-- Node4&#45;&gt;Node6 -->
<g id="edge11" class="edge">
<title>Node4&#45;&gt;Node6</title>
<path fill="none" stroke="midnightblue" d="M252.78,-276.53C238.69,-255.74 223.62,-224.57 238.5,-201 249.44,-183.68 268.12,-172.17 286.79,-164.59"/>
<polygon fill="midnightblue" stroke="midnightblue" points="250,-278.66 258.66,-284.75 255.69,-274.58 250,-278.66"/>
</g>
<!-- Node9 -->
<g id="node9" class="node">
<title>Node9</title>
<g id="a_node9"><a xlink:href="laplace__bem_8priv_8hcu_source.html" target="_top" xlink:title=" ">
<polygon fill="none" stroke="black" points="598,-134.5 598,-164.5 713,-164.5 713,-134.5 598,-134.5"/>
<text text-anchor="start" x="606" y="-152.5" font-family="Helvetica,sans-Serif" font-size="10.00">include/laplace/laplace</text>
<text text-anchor="middle" x="655.5" y="-141.5" font-family="Helvetica,sans-Serif" font-size="10.00">_bem.priv.hcu</text>
</a>
</g>
</g>
<!-- Node4&#45;&gt;Node9 -->
<g id="edge12" class="edge">
<title>Node4&#45;&gt;Node9</title>
<path fill="none" stroke="midnightblue" d="M263.11,-275.05C257.94,-253.01 254.75,-220.83 272.5,-201 293.83,-177.17 496.01,-160.81 597.7,-154.03"/>
<polygon fill="midnightblue" stroke="midnightblue" points="259.79,-276.18 265.73,-284.95 266.56,-274.39 259.79,-276.18"/>
</g>
<!-- Node5&#45;&gt;Node6 -->
<g id="edge5" class="edge">
<title>Node5&#45;&gt;Node6</title>
<path fill="none" stroke="midnightblue" d="M344.5,-196.73C344.5,-186.07 344.5,-173.91 344.5,-164.75"/>
<polygon fill="midnightblue" stroke="midnightblue" points="341,-196.73 344.5,-206.73 348,-196.73 341,-196.73"/>
</g>
<!-- Node5&#45;&gt;Node9 -->
<g id="edge8" class="edge">
<title>Node5&#45;&gt;Node9</title>
<path fill="none" stroke="midnightblue" d="M404.14,-204.35C408.65,-203.19 413.14,-202.06 417.5,-201 478.66,-186.15 549.25,-171.48 597.58,-161.81"/>
<polygon fill="midnightblue" stroke="midnightblue" points="403.05,-201.02 394.27,-206.95 404.83,-207.79 403.05,-201.02"/>
</g>
<!-- Node7 -->
<g id="node7" class="node">
<title>Node7</title>
<g id="a_node7"><a xlink:href="helmholtz__acoustic__bem_8impl_8hcu.html" target="_top" xlink:title="Call member functions of pimpl from HelmholtzAcousticBEM.">
<polygon fill="none" stroke="black" points="276,-67.5 276,-97.5 413,-97.5 413,-67.5 276,-67.5"/>
<text text-anchor="start" x="284" y="-85.5" font-family="Helvetica,sans-Serif" font-size="10.00">include/helmholtz/helmholtz</text>
<text text-anchor="middle" x="344.5" y="-74.5" font-family="Helvetica,sans-Serif" font-size="10.00">_acoustic_bem.impl.hcu</text>
</a>
</g>
</g>
<!-- Node6&#45;&gt;Node7 -->
<g id="edge6" class="edge">
<title>Node6&#45;&gt;Node7</title>
<path fill="none" stroke="midnightblue" d="M344.5,-124.11C344.5,-115.15 344.5,-105.32 344.5,-97.58"/>
<polygon fill="midnightblue" stroke="midnightblue" points="341,-124.4 344.5,-134.4 348,-124.4 341,-124.4"/>
</g>
<!-- Node8 -->
<g id="node8" class="node">
<title>Node8</title>
<g id="a_node8"><a xlink:href="helmholtz__acoustic__bem_8cu_source.html" target="_top" xlink:title=" ">
<polygon fill="none" stroke="black" points="284.5,-0.5 284.5,-30.5 404.5,-30.5 404.5,-0.5 284.5,-0.5"/>
<text text-anchor="start" x="292.5" y="-18.5" font-family="Helvetica,sans-Serif" font-size="10.00">src/helmholtz/helmholtz</text>
<text text-anchor="middle" x="344.5" y="-7.5" font-family="Helvetica,sans-Serif" font-size="10.00">_acoustic_bem.cu</text>
</a>
</g>
</g>
<!-- Node7&#45;&gt;Node8 -->
<g id="edge7" class="edge">
<title>Node7&#45;&gt;Node8</title>
<path fill="none" stroke="midnightblue" d="M344.5,-57.11C344.5,-48.15 344.5,-38.32 344.5,-30.58"/>
<polygon fill="midnightblue" stroke="midnightblue" points="341,-57.4 344.5,-67.4 348,-57.4 341,-57.4"/>
</g>
<!-- Node10 -->
<g id="node10" class="node">
<title>Node10</title>
<g id="a_node10"><a xlink:href="laplace__bem_8impl_8hcu.html" target="_top" xlink:title="Implementation of pimpl member functions to be called by LaplaceBEM.">
<polygon fill="none" stroke="black" points="598,-67.5 598,-97.5 713,-97.5 713,-67.5 598,-67.5"/>
<text text-anchor="start" x="606" y="-85.5" font-family="Helvetica,sans-Serif" font-size="10.00">include/laplace/laplace</text>
<text text-anchor="middle" x="655.5" y="-74.5" font-family="Helvetica,sans-Serif" font-size="10.00">_bem.impl.hcu</text>
</a>
</g>
</g>
<!-- Node9&#45;&gt;Node10 -->
<g id="edge9" class="edge">
<title>Node9&#45;&gt;Node10</title>
<path fill="none" stroke="midnightblue" d="M655.5,-124.11C655.5,-115.15 655.5,-105.32 655.5,-97.58"/>
<polygon fill="midnightblue" stroke="midnightblue" points="652,-124.4 655.5,-134.4 659,-124.4 652,-124.4"/>
</g>
<!-- Node11 -->
<g id="node11" class="node">
<title>Node11</title>
<g id="a_node11"><a xlink:href="laplace__bem_8cu_source.html" target="_top" xlink:title=" ">
<polygon fill="none" stroke="black" points="606.5,-0.5 606.5,-30.5 704.5,-30.5 704.5,-0.5 606.5,-0.5"/>
<text text-anchor="start" x="614.5" y="-18.5" font-family="Helvetica,sans-Serif" font-size="10.00">src/laplace/laplace</text>
<text text-anchor="middle" x="655.5" y="-7.5" font-family="Helvetica,sans-Serif" font-size="10.00">_bem.cu</text>
</a>
</g>
</g>
<!-- Node10&#45;&gt;Node11 -->
<g id="edge10" class="edge">
<title>Node10&#45;&gt;Node11</title>
<path fill="none" stroke="midnightblue" d="M655.5,-57.11C655.5,-48.15 655.5,-38.32 655.5,-30.58"/>
<polygon fill="midnightblue" stroke="midnightblue" points="652,-57.4 655.5,-67.4 659,-57.4 652,-57.4"/>
</g>
<!-- Node13&#45;&gt;Node2 -->
<g id="edge15" class="edge">
<title>Node13&#45;&gt;Node2</title>
<path fill="none" stroke="midnightblue" d="M236.97,-431.67C211.18,-421.57 178.88,-408.92 152.41,-398.55"/>
<polygon fill="midnightblue" stroke="midnightblue" points="235.92,-435.01 246.51,-435.4 238.47,-428.5 235.92,-435.01"/>
</g>
<!-- Node13&#45;&gt;Node5 -->
<g id="edge17" class="edge">
<title>Node13&#45;&gt;Node5</title>
<path fill="none" stroke="midnightblue" d="M318.07,-429.69C328.93,-421.69 339.55,-411.39 345.5,-399 371.81,-344.18 356.61,-268.24 348.54,-237.14"/>
<polygon fill="midnightblue" stroke="midnightblue" points="316.07,-426.82 309.8,-435.36 320.03,-432.59 316.07,-426.82"/>
</g>
<!-- Node13&#45;&gt;Node6 -->
<g id="edge18" class="edge">
<title>Node13&#45;&gt;Node6</title>
<path fill="none" stroke="midnightblue" d="M250.77,-429.41C239.86,-421.15 228.41,-410.74 220.5,-399 190.11,-353.89 186.27,-332.42 196.5,-279 203.51,-242.36 201.51,-227.76 227.5,-201 244.07,-183.94 267.36,-172.3 288.79,-164.54"/>
<polygon fill="midnightblue" stroke="midnightblue" points="248.79,-432.29 258.95,-435.3 252.88,-426.62 248.79,-432.29"/>
</g>
<!-- Node13&#45;&gt;Node9 -->
<g id="edge19" class="edge">
<title>Node13&#45;&gt;Node9</title>
<path fill="none" stroke="midnightblue" d="M343.34,-435.18C468.81,-418.85 743.39,-437.14 845.5,-399 953.75,-358.57 1001.82,-346.36 1053.5,-243 1061.85,-226.3 1065.84,-215.01 1053.5,-201 1031.37,-175.88 818.02,-160.01 713.13,-153.66"/>
<polygon fill="midnightblue" stroke="midnightblue" points="342.52,-431.76 333.12,-436.64 343.52,-438.69 342.52,-431.76"/>
</g>
<!-- Node14 -->
<g id="node14" class="node">
<title>Node14</title>
<g id="a_node14"><a xlink:href="build-hmatrix_8cu.html" target="_top" xlink:title="Example for building an H&#45;matrix.">
<polygon fill="none" stroke="black" points="719,-363 719,-393 836,-393 836,-363 719,-363"/>
<text text-anchor="start" x="727" y="-381" font-family="Helvetica,sans-Serif" font-size="10.00">examples/build&#45;hmatrix</text>
<text text-anchor="middle" x="777.5" y="-370" font-family="Helvetica,sans-Serif" font-size="10.00">/build&#45;hmatrix.cu</text>
</a>
</g>
</g>
<!-- Node13&#45;&gt;Node14 -->
<g id="edge16" class="edge">
<title>Node13&#45;&gt;Node14</title>
<path fill="none" stroke="midnightblue" d="M343.04,-435.09C506.33,-408.51 552.39,-430.03 710.5,-399 718.48,-397.43 726.87,-395.32 734.92,-393.05"/>
<polygon fill="midnightblue" stroke="midnightblue" points="342.43,-431.64 333.14,-436.74 343.57,-438.55 342.43,-431.64"/>
</g>
<!-- Node15 -->
<g id="node15" class="node">
<title>Node15</title>
<g id="a_node15"><a xlink:href="operator__preconditioner_8h.html" target="_top" xlink:title="Definition of the abstract class for dual mesh operator preconditioner.">
<polygon fill="none" stroke="black" points="572,-363 572,-393 701,-393 701,-363 572,-363"/>
<text text-anchor="start" x="580" y="-381" font-family="Helvetica,sans-Serif" font-size="10.00">include/preconditioners</text>
<text text-anchor="middle" x="636.5" y="-370" font-family="Helvetica,sans-Serif" font-size="10.00">/operator_preconditioner.h</text>
</a>
</g>
</g>
<!-- Node13&#45;&gt;Node15 -->
<g id="edge20" class="edge">
<title>Node13&#45;&gt;Node15</title>
<path fill="none" stroke="midnightblue" d="M343,-434.95C427.81,-416.78 514.32,-400.71 571.79,-390.39"/>
<polygon fill="midnightblue" stroke="midnightblue" points="342.24,-431.54 333.2,-437.06 343.71,-438.38 342.24,-431.54"/>
</g>
<!-- Node22 -->
<g id="node22" class="node">
<title>Node22</title>
<g id="a_node22"><a xlink:href="aca__plus_8cu_source.html" target="_top" xlink:title=" ">
<polygon fill="none" stroke="black" points="229,-363 229,-393 336,-393 336,-363 229,-363"/>
<text text-anchor="start" x="237" y="-381" font-family="Helvetica,sans-Serif" font-size="10.00">src/hmatrix/aca_plus</text>
<text text-anchor="middle" x="282.5" y="-370" font-family="Helvetica,sans-Serif" font-size="10.00">/aca_plus.cu</text>
</a>
</g>
</g>
<!-- Node13&#45;&gt;Node22 -->
<g id="edge35" class="edge">
<title>Node13&#45;&gt;Node22</title>
<path fill="none" stroke="midnightblue" d="M282.5,-425.23C282.5,-414.57 282.5,-402.41 282.5,-393.25"/>
<polygon fill="midnightblue" stroke="midnightblue" points="279,-425.23 282.5,-435.23 286,-425.23 279,-425.23"/>
</g>
<!-- Node16 -->
<g id="node16" class="node">
<title>Node16</title>
<g id="a_node16"><a xlink:href="preconditioner__for__helmholtz__acoustic__hyper__singular__bio_8h.html" target="_top" xlink:title="Dual mesh operator preconditioner for the hyper singular boundary integral operator in the Helmholtz ...">
<polygon fill="none" stroke="black" points="740,-201.5 740,-242.5 893,-242.5 893,-201.5 740,-201.5"/>
<text text-anchor="start" x="748" y="-230.5" font-family="Helvetica,sans-Serif" font-size="10.00">include/preconditioners</text>
<text text-anchor="start" x="748" y="-219.5" font-family="Helvetica,sans-Serif" font-size="10.00">/preconditioner_for_helmholtz</text>
<text text-anchor="middle" x="816.5" y="-208.5" font-family="Helvetica,sans-Serif" font-size="10.00">_acoustic_hyper_singular_bio.h</text>
</a>
</g>
</g>
<!-- Node15&#45;&gt;Node16 -->
<g id="edge21" class="edge">
<title>Node15&#45;&gt;Node16</title>
<path fill="none" stroke="midnightblue" d="M658.91,-355.75C680.45,-335.54 714.12,-304.54 744.5,-279 759.29,-266.57 776.33,-253.27 790.13,-242.75"/>
<polygon fill="midnightblue" stroke="midnightblue" points="656.44,-353.27 651.56,-362.67 661.24,-358.37 656.44,-353.27"/>
</g>
<!-- Node17 -->
<g id="node17" class="node">
<title>Node17</title>
<g id="a_node17"><a xlink:href="preconditioner__for__helmholtz__acoustic__single__layer__bio_8h_source.html" target="_top" xlink:title=" ">
<polygon fill="none" stroke="black" points="426.5,-201.5 426.5,-242.5 570.5,-242.5 570.5,-201.5 426.5,-201.5"/>
<text text-anchor="start" x="434.5" y="-230.5" font-family="Helvetica,sans-Serif" font-size="10.00">include/preconditioners</text>
<text text-anchor="start" x="434.5" y="-219.5" font-family="Helvetica,sans-Serif" font-size="10.00">/preconditioner_for_helmholtz</text>
<text text-anchor="middle" x="498.5" y="-208.5" font-family="Helvetica,sans-Serif" font-size="10.00">_acoustic_single_layer_bio.h</text>
</a>
</g>
</g>
<!-- Node15&#45;&gt;Node17 -->
<g id="edge23" class="edge">
<title>Node15&#45;&gt;Node17</title>
<path fill="none" stroke="midnightblue" d="M571.35,-359.17C551.35,-350.67 531.06,-338.42 517.5,-321 499.94,-298.43 497.12,-264.24 497.34,-242.79"/>
<polygon fill="midnightblue" stroke="midnightblue" points="570.22,-362.49 580.81,-362.94 572.81,-355.99 570.22,-362.49"/>
</g>
<!-- Node18 -->
<g id="node18" class="node">
<title>Node18</title>
<g id="a_node18"><a xlink:href="preconditioner__for__hyper__singular__bio_8h.html" target="_top" xlink:title="Dual mesh operator preconditioner for the hyper singular boundary integral operator.">
<polygon fill="none" stroke="black" points="753.5,-279.5 753.5,-320.5 879.5,-320.5 879.5,-279.5 753.5,-279.5"/>
<text text-anchor="start" x="761.5" y="-308.5" font-family="Helvetica,sans-Serif" font-size="10.00">include/preconditioners</text>
<text text-anchor="start" x="761.5" y="-297.5" font-family="Helvetica,sans-Serif" font-size="10.00">/preconditioner_for_hyper</text>
<text text-anchor="middle" x="816.5" y="-286.5" font-family="Helvetica,sans-Serif" font-size="10.00">_singular_bio.h</text>
</a>
</g>
</g>
<!-- Node15&#45;&gt;Node18 -->
<g id="edge25" class="edge">
<title>Node15&#45;&gt;Node18</title>
<path fill="none" stroke="midnightblue" d="M679.23,-358.96C706.56,-347.42 741.99,-332.46 770.01,-320.63"/>
<polygon fill="midnightblue" stroke="midnightblue" points="677.79,-355.77 669.93,-362.88 680.51,-362.22 677.79,-355.77"/>
</g>
<!-- Node19 -->
<g id="node19" class="node">
<title>Node19</title>
<g id="a_node19"><a xlink:href="preconditioner__for__laplace__hyper__singular__bio_8h.html" target="_top" xlink:title="Dual mesh operator preconditioner for the hyper singular boundary integral operator in the Laplace eq...">
<polygon fill="none" stroke="black" points="911,-201.5 911,-242.5 1044,-242.5 1044,-201.5 911,-201.5"/>
<text text-anchor="start" x="919" y="-230.5" font-family="Helvetica,sans-Serif" font-size="10.00">include/preconditioners</text>
<text text-anchor="start" x="919" y="-219.5" font-family="Helvetica,sans-Serif" font-size="10.00">/preconditioner_for_laplace</text>
<text text-anchor="middle" x="977.5" y="-208.5" font-family="Helvetica,sans-Serif" font-size="10.00">_hyper_singular_bio.h</text>
</a>
</g>
</g>
<!-- Node15&#45;&gt;Node19 -->
<g id="edge29" class="edge">
<title>Node15&#45;&gt;Node19</title>
<path fill="none" stroke="midnightblue" d="M696.95,-360.32C701.53,-359.16 706.08,-358.04 710.5,-357 789.05,-338.46 818.32,-360.86 888.5,-321 922.27,-301.82 950.24,-265.25 965.35,-242.62"/>
<polygon fill="midnightblue" stroke="midnightblue" points="695.75,-357.01 686.94,-362.9 697.5,-363.79 695.75,-357.01"/>
</g>
<!-- Node20 -->
<g id="node20" class="node">
<title>Node20</title>
<g id="a_node20"><a xlink:href="preconditioner__for__laplace__single__layer__bio_8h.html" target="_top" xlink:title="Dual mesh operator preconditioner for the single layer potential boundary integral operator in the La...">
<polygon fill="none" stroke="black" points="589,-201.5 589,-242.5 722,-242.5 722,-201.5 589,-201.5"/>
<text text-anchor="start" x="597" y="-230.5" font-family="Helvetica,sans-Serif" font-size="10.00">include/preconditioners</text>
<text text-anchor="start" x="597" y="-219.5" font-family="Helvetica,sans-Serif" font-size="10.00">/preconditioner_for_laplace</text>
<text text-anchor="middle" x="655.5" y="-208.5" font-family="Helvetica,sans-Serif" font-size="10.00">_single_layer_bio.h</text>
</a>
</g>
</g>
<!-- Node15&#45;&gt;Node20 -->
<g id="edge30" class="edge">
<title>Node15&#45;&gt;Node20</title>
<path fill="none" stroke="midnightblue" d="M650.37,-354.19C655.58,-344.35 660.88,-332.48 663.5,-321 669.58,-294.37 664.94,-262.75 660.6,-242.77"/>
<polygon fill="midnightblue" stroke="midnightblue" points="647.32,-352.49 645.49,-362.92 653.43,-355.9 647.32,-352.49"/>
</g>
<!-- Node21 -->
<g id="node21" class="node">
<title>Node21</title>
<g id="a_node21"><a xlink:href="preconditioner__for__single__layer__bio_8h.html" target="_top" xlink:title="Dual mesh operator preconditioner for the single layer potential boundary integral operator.">
<polygon fill="none" stroke="black" points="526.5,-279.5 526.5,-320.5 654.5,-320.5 654.5,-279.5 526.5,-279.5"/>
<text text-anchor="start" x="534.5" y="-308.5" font-family="Helvetica,sans-Serif" font-size="10.00">include/preconditioners</text>
<text text-anchor="start" x="534.5" y="-297.5" font-family="Helvetica,sans-Serif" font-size="10.00">/preconditioner_for_single</text>
<text text-anchor="middle" x="590.5" y="-286.5" font-family="Helvetica,sans-Serif" font-size="10.00">_layer_bio.h</text>
</a>
</g>
</g>
<!-- Node15&#45;&gt;Node21 -->
<g id="edge32" class="edge">
<title>Node15&#45;&gt;Node21</title>
<path fill="none" stroke="midnightblue" d="M622.55,-353.95C616.12,-343.33 608.57,-330.85 602.41,-320.68"/>
<polygon fill="midnightblue" stroke="midnightblue" points="619.68,-355.96 627.85,-362.7 625.66,-352.34 619.68,-355.96"/>
</g>
<!-- Node16&#45;&gt;Node6 -->
<g id="edge22" class="edge">
<title>Node16&#45;&gt;Node6</title>
<path fill="none" stroke="midnightblue" d="M729.54,-200.72C613.53,-179.96 488.78,-165.34 413.34,-157.35"/>
<polygon fill="midnightblue" stroke="midnightblue" points="729.2,-204.22 739.66,-202.55 730.45,-197.33 729.2,-204.22"/>
</g>
<!-- Node17&#45;&gt;Node6 -->
<g id="edge24" class="edge">
<title>Node17&#45;&gt;Node6</title>
<path fill="none" stroke="midnightblue" d="M446.42,-197.16C422.84,-186.36 395.77,-173.97 375.45,-164.67"/>
<polygon fill="midnightblue" stroke="midnightblue" points="445.05,-200.38 455.6,-201.36 447.97,-194.02 445.05,-200.38"/>
</g>
<!-- Node18&#45;&gt;Node16 -->
<g id="edge26" class="edge">
<title>Node18&#45;&gt;Node16</title>
<path fill="none" stroke="midnightblue" d="M816.5,-269.3C816.5,-260.3 816.5,-250.65 816.5,-242.51"/>
<polygon fill="midnightblue" stroke="midnightblue" points="813,-269.43 816.5,-279.43 820,-269.43 813,-269.43"/>
</g>
<!-- Node18&#45;&gt;Node19 -->
<g id="edge27" class="edge">
<title>Node18&#45;&gt;Node19</title>
<path fill="none" stroke="midnightblue" d="M867.24,-275.05C889.44,-264.57 915.17,-252.42 936.18,-242.51"/>
<polygon fill="midnightblue" stroke="midnightblue" points="865.51,-271.99 857.96,-279.43 868.5,-278.32 865.51,-271.99"/>
</g>
<!-- Node19&#45;&gt;Node9 -->
<g id="edge28" class="edge">
<title>Node19&#45;&gt;Node9</title>
<path fill="none" stroke="midnightblue" d="M901.06,-200.72C831.3,-184.48 761.04,-170.48 713.11,-161.28"/>
<polygon fill="midnightblue" stroke="midnightblue" points="900.36,-204.15 910.9,-203.02 901.96,-197.33 900.36,-204.15"/>
</g>
<!-- Node20&#45;&gt;Node9 -->
<g id="edge31" class="edge">
<title>Node20&#45;&gt;Node9</title>
<path fill="none" stroke="midnightblue" d="M655.5,-191.08C655.5,-182.01 655.5,-172.45 655.5,-164.89"/>
<polygon fill="midnightblue" stroke="midnightblue" points="652,-191.36 655.5,-201.36 659,-191.36 652,-191.36"/>
</g>
<!-- Node21&#45;&gt;Node17 -->
<g id="edge33" class="edge">
<title>Node21&#45;&gt;Node17</title>
<path fill="none" stroke="midnightblue" d="M558.76,-272.78C546.73,-262.84 533.26,-251.72 522.11,-242.51"/>
<polygon fill="midnightblue" stroke="midnightblue" points="556.87,-275.76 566.81,-279.43 561.33,-270.36 556.87,-275.76"/>
</g>
<!-- Node21&#45;&gt;Node20 -->
<g id="edge34" class="edge">
<title>Node21&#45;&gt;Node20</title>
<path fill="none" stroke="midnightblue" d="M613.91,-271.63C622.15,-261.99 631.24,-251.36 638.82,-242.51"/>
<polygon fill="midnightblue" stroke="midnightblue" points="611.08,-269.55 607.24,-279.43 616.4,-274.1 611.08,-269.55"/>
</g>
</g>
</svg>
